<svg xmlns="http://www.w3.org/2000/svg" xmlns:xlink="http://www.w3.org/1999/xlink" width="108" height="108" viewBox="0 0 108 108">
  <defs>
    <filter id="Trazado_904820" x="0" y="0" width="108" height="108" filterUnits="userSpaceOnUse">
      <feOffset dy="3" input="SourceAlpha"/>
      <feGaussianBlur stdDeviation="3" result="blur"/>
      <feFlood flood-opacity="0.161"/>
      <feComposite operator="in" in2="blur"/>
      <feComposite in="SourceGraphic"/>
    </filter>
  </defs>
  <g id="Grupo_1223812" data-name="Grupo 1223812" transform="translate(-200 -3606)">
    <g id="Grupo_1174741" data-name="Grupo 1174741" transform="translate(209 3612)">
      <g id="Grupo_1173585" data-name="Grupo 1173585" transform="translate(0 0)">
        <g id="Grupo_1173428" data-name="Grupo 1173428">
          <g id="Grupo_1171958" data-name="Grupo 1171958">
            <g id="Grupo_1167341" data-name="Grupo 1167341">
              <g id="Grupo_1166792" data-name="Grupo 1166792">
                <g transform="matrix(1, 0, 0, 1, -9, -6)" filter="url(#Trazado_904820)">
                  <g id="Trazado_904820-2" data-name="Trazado 904820" transform="translate(9 6)" fill="#e7f2f8">
                    <path d="M 44.99999618530273 88.50002288818359 C 39.12687301635742 88.50002288818359 33.43022155761719 87.35009765625 28.06829643249512 85.08218383789062 C 22.88852119445801 82.89133453369141 18.23629570007324 79.75460815429688 14.24084663391113 75.75916290283203 C 10.24540901184082 71.76371002197266 7.108683586120605 67.11148834228516 4.917821407318115 61.93171310424805 C 2.649921178817749 56.56978607177734 1.499996185302734 50.87313461303711 1.499996185302734 45.0000114440918 C 1.499996185302734 39.12688827514648 2.649921178817749 33.43023681640625 4.917821407318115 28.06829833984375 C 7.108683586120605 22.88852310180664 10.24540901184082 18.2363109588623 14.24084663391113 14.2408618927002 C 18.23629570007324 10.24541187286377 22.88852119445801 7.108686447143555 28.06829643249512 4.917823791503906 C 33.43022155761719 2.649924039840698 39.12687301635742 1.499998927116394 44.99999618530273 1.499998927116394 C 50.87311935424805 1.499998927116394 56.56977081298828 2.649924039840698 61.93169784545898 4.917823791503906 C 67.11147308349609 7.108686447143555 71.76369476318359 10.24541187286377 75.75914764404297 14.2408618927002 C 79.75458526611328 18.2363109588623 82.89131164550781 22.88852310180664 85.08216857910156 28.06829833984375 C 87.35007476806641 33.43023681640625 88.5 39.12688827514648 88.5 45.0000114440918 C 88.5 50.87313461303711 87.35007476806641 56.56978607177734 85.08216857910156 61.93171310424805 C 82.89131164550781 67.11148834228516 79.75458526611328 71.76371002197266 75.75914764404297 75.75916290283203 C 71.76369476318359 79.75460815429688 67.11147308349609 82.89133453369141 61.93169784545898 85.08218383789062 C 56.56977081298828 87.35009765625 50.87311935424805 88.50002288818359 44.99999618530273 88.50002288818359 Z" stroke="none"/>
                    <path d="M 44.99999618530273 3 C 39.32870864868164 3 33.82865142822266 4.110054016113281 28.65262603759766 6.299339294433594 C 23.65165710449219 8.414566040039062 19.15968322753906 11.44333648681641 15.301513671875 15.30152893066406 C 11.44333648681641 19.15969848632812 8.414566040039062 23.65165710449219 6.299339294433594 28.65264129638672 C 4.110054016113281 33.82866668701172 2.999992370605469 39.3287239074707 2.999992370605469 45.0000114440918 C 2.999992370605469 50.67129898071289 4.110054016113281 56.17135620117188 6.299339294433594 61.34738159179688 C 8.414566040039062 66.34836578369141 11.44333648681641 70.84032440185547 15.301513671875 74.69849395751953 C 19.15968322753906 78.55668640136719 23.65165710449219 81.58545684814453 28.65262603759766 83.70068359375 C 33.82865142822266 85.88996887207031 39.32870864868164 87.00002288818359 44.99999618530273 87.00002288818359 C 50.67128372192383 87.00002288818359 56.17134094238281 85.88996887207031 61.34736633300781 83.70068359375 C 66.34834289550781 81.58545684814453 70.84030914306641 78.55668640136719 74.69847869873047 74.69849395751953 C 78.55665588378906 70.84032440185547 81.58542633056641 66.34836578369141 83.70065307617188 61.34738159179688 C 85.88993835449219 56.17135620117188 87 50.67129898071289 87 45.0000114440918 C 87 39.3287239074707 85.88993835449219 33.82866668701172 83.70065307617188 28.65264129638672 C 81.58542633056641 23.65165710449219 78.55665588378906 19.15969848632812 74.69847869873047 15.30152893066406 C 70.84030914306641 11.44333648681641 66.34834289550781 8.414566040039062 61.34736633300781 6.299339294433594 C 56.17134094238281 4.110054016113281 50.67128372192383 3 44.99999618530273 3 M 44.99999618530273 0 C 69.85281372070312 0 90 20.14719390869141 90 45.0000114440918 C 90 69.85282897949219 69.85281372070312 90.00002288818359 44.99999618530273 90.00002288818359 C 20.14717864990234 90.00002288818359 -7.62939453125e-06 69.85282897949219 -7.62939453125e-06 45.0000114440918 C -7.62939453125e-06 20.14719390869141 20.14717864990234 0 44.99999618530273 0 Z" stroke="none" fill="#248abf"/>
                  </g>
                </g>
              </g>
            </g>
          </g>
        </g>
      </g>
    </g>
    <g id="Idea" transform="translate(221.425 3620)">
      <path id="Trazado_1178943" data-name="Trazado 1178943" d="M43.62,38.161a33.822,33.822,0,0,0,.389-5.115V31h2.046A2.046,2.046,0,0,1,48.1,33.046v3.069a2.046,2.046,0,0,1-2.046,2.046Z" transform="translate(0.842 0.712)" fill="#ddafaf"/>
      <path id="Trazado_1178944" data-name="Trazado 1178944" d="M18.046,38.161A2.046,2.046,0,0,1,16,36.115V33.046A2.046,2.046,0,0,1,18.046,31h2.046v2.046a33.828,33.828,0,0,0,.389,5.117Z" transform="translate(0.207 0.712)" fill="#ddafaf"/>
      <path id="Trazado_1178945" data-name="Trazado 1178945" d="M8,63.276V58.333a4.078,4.078,0,0,1,3.155-3.983L25.391,51H39.712l14.236,3.349A4.078,4.078,0,0,1,57.1,58.333v4.943Z" transform="translate(0.023 1.172)" fill="#01c0fa"/>
      <path id="Trazado_1178946" data-name="Trazado 1178946" d="M25,51H39.322V63.276H25Z" transform="translate(0.414 1.172)" fill="#eaf6ff"/>
      <path id="Trazado_1178947" data-name="Trazado 1178947" d="M32.161,57.282A7.161,7.161,0,0,1,25,50.121V44.75a12.29,12.29,0,0,0,14.322,0v5.371A7.169,7.169,0,0,1,32.161,57.282Z" transform="translate(0.414 1.028)" fill="#ddafaf"/>
      <path id="Trazado_1178948" data-name="Trazado 1178948" d="M32.276,47.529A12.289,12.289,0,0,1,20,35.253V24H44.552V35.253A12.289,12.289,0,0,1,32.276,47.529Z" transform="translate(0.299 0.552)" fill="#f9d4d4"/>
      <path id="Trazado_1178949" data-name="Trazado 1178949" d="M41.023,31.13A1.023,1.023,0,0,1,40,30.107V27.093a12.89,12.89,0,0,0,4.092-1.764v5.8Z" transform="translate(0.758 0.582)" fill="#5e6e84"/>
      <path id="Trazado_1178950" data-name="Trazado 1178950" d="M20,31.13v-5.8a12.89,12.89,0,0,0,4.092,1.764v3.015a1.023,1.023,0,0,1-1.023,1.023Z" transform="translate(0.299 0.582)" fill="#5e6e84"/>
      <ellipse id="Elipse_14715" data-name="Elipse 14715" cx="12.5" cy="4.5" rx="12.5" ry="4.5" transform="translate(20 20)" fill="#ddafaf"/>
      <path id="Trazado_1178951" data-name="Trazado 1178951" d="M32.23,28.506a33.26,33.26,0,0,1-6.138-.554V24.422l-.373-.307a10.212,10.212,0,0,1-2.231-2.577,9.681,9.681,0,0,1-.5-.946A10.127,10.127,0,0,1,22,16.23a10.23,10.23,0,1,1,20.46,0,9.944,9.944,0,0,1-.984,4.334,7.968,7.968,0,0,1-.511.97,10.041,10.041,0,0,1-2.225,2.581l-.373.307v3.529a33.26,33.26,0,0,1-6.136.554Z" transform="translate(0.345 0.138)" fill="#fedf30"/>
      <g id="Grupo_1223811" data-name="Grupo 1223811" transform="translate(7)">
        <path id="Trazado_1178952" data-name="Trazado 1178952" d="M54.205,54.411,40.748,51.24c0-.071.01-.139.01-.2V46.152a13.334,13.334,0,0,0,4.464-6.369H46.9a3.069,3.069,0,0,0,3.069-3.069V33.645A3.069,3.069,0,0,0,46.9,30.576H45.873V24.438c0-.968-.578-2.3-3.131-3.416a11.253,11.253,0,1,0-20.335,0c-2.553,1.119-3.131,2.448-3.131,3.416v6.138H18.253a3.069,3.069,0,0,0-3.069,3.069v3.069a3.069,3.069,0,0,0,3.069,3.069h1.674a13.334,13.334,0,0,0,4.464,6.369v4.884c0,.071.008.14.01.2L10.944,54.411A5.094,5.094,0,0,0,7,59.391v4.943a1.023,1.023,0,0,0,2.046,0V59.391A3.057,3.057,0,0,1,11.412,56.4L24.391,53.35V64.334a1.023,1.023,0,0,0,2.046,0v-7.9a8.154,8.154,0,0,0,12.276-.005v7.9a1.023,1.023,0,0,0,2.046,0V53.35L53.737,56.4A3.057,3.057,0,0,1,56.1,59.391v4.943a1.023,1.023,0,0,0,2.046,0V59.391a5.094,5.094,0,0,0-3.944-4.98ZM41.781,28.231a10.819,10.819,0,0,0,2.046-.933v3.278H41.781Zm6.138,5.414v3.069A1.023,1.023,0,0,1,46.9,37.737H45.7a13.356,13.356,0,0,0,.174-2.046V32.622H46.9A1.023,1.023,0,0,1,47.919,33.645Zm-4.092-9.207c0,.554-1.28,1.555-4.092,2.266v-1.78a12.173,12.173,0,0,0,1.96-2.093l.02-.025C43.365,23.486,43.827,24.152,43.827,24.438ZM32.575,7.047A9.2,9.2,0,0,1,38.1,23.61a1.023,1.023,0,0,0-.409.818V27.12c-.657.1-1.345.182-2.046.243V19.323h1.023A3.069,3.069,0,1,0,33.6,16.254v1.023H31.552V16.254a3.069,3.069,0,1,0-3.069,3.069h1.023v8.04c-.7-.061-1.389-.139-2.046-.243V24.428a1.023,1.023,0,0,0-.409-.818A9.2,9.2,0,0,1,32.575,7.047ZM31.552,27.482V19.323H33.6v8.159C32.916,27.507,32.233,27.507,31.552,27.482ZM29.506,17.277H28.483a1.023,1.023,0,1,1,1.023-1.023Zm6.138,0V16.254a1.023,1.023,0,1,1,1.023,1.023Zm-12.21,5.529.019.024a12.209,12.209,0,0,0,1.961,2.094V26.7c-2.812-.716-4.092-1.711-4.092-2.266,0-.285.462-.951,2.111-1.632Zm-.065,5.425v2.345H21.322V27.3A10.819,10.819,0,0,0,23.368,28.231Zm-5.115,9.506a1.023,1.023,0,0,1-1.023-1.023V33.645a1.023,1.023,0,0,1,1.023-1.023h1.023v3.069a13.356,13.356,0,0,0,.174,2.046Zm3.069-2.046V32.622h2.046a2.046,2.046,0,0,0,2.046-2.046V28.795a33,33,0,0,0,7.161.758,32.871,32.871,0,0,0,7.161-.758v1.781a2.046,2.046,0,0,0,2.046,2.046h2.046v3.069a11.253,11.253,0,1,1-22.506,0ZM32.575,57.173a6.138,6.138,0,0,1-6.138-6.138V47.476a13.207,13.207,0,0,0,12.276,0v3.559a6.144,6.144,0,0,1-6.138,6.138Z" transform="translate(-7 0.114)" fill="#0b0a0a"/>
        <path id="Trazado_1178953" data-name="Trazado 1178953" d="M16.023,59A1.023,1.023,0,0,0,15,60.023v3.069a1.023,1.023,0,0,0,2.046,0V60.023A1.023,1.023,0,0,0,16.023,59Z" transform="translate(-6.816 1.356)" fill="#0b0a0a"/>
        <path id="Trazado_1178954" data-name="Trazado 1178954" d="M48.023,59A1.023,1.023,0,0,0,47,60.023v3.069a1.023,1.023,0,0,0,2.046,0V60.023A1.023,1.023,0,0,0,48.023,59Z" transform="translate(-6.081 1.356)" fill="#0b0a0a"/>
        <path id="Trazado_1178955" data-name="Trazado 1178955" d="M32.023,4.092a1.023,1.023,0,0,0,1.023-1.023V1.023a1.023,1.023,0,1,0-2.046,0V3.069A1.023,1.023,0,0,0,32.023,4.092Z" transform="translate(-6.448)" fill="#0b0a0a"/>
        <path id="Trazado_1178956" data-name="Trazado 1178956" d="M22.14,7.587A1.024,1.024,0,0,0,23.587,6.14L22.14,4.694A1.023,1.023,0,1,0,20.694,6.14Z" transform="translate(-6.693 0.1)" fill="#0b0a0a"/>
        <path id="Trazado_1178957" data-name="Trazado 1178957" d="M17.023,17.046h2.046a1.023,1.023,0,0,0,0-2.046H17.023a1.023,1.023,0,1,0,0,2.046Z" transform="translate(-6.793 0.345)" fill="#0b0a0a"/>
        <path id="Trazado_1178958" data-name="Trazado 1178958" d="M41.939,7.587,43.385,6.14a1.023,1.023,0,1,0-1.445-1.445L40.492,6.14a1.024,1.024,0,1,0,1.448,1.448Z" transform="translate(-6.237 0.1)" fill="#0b0a0a"/>
        <path id="Trazado_1178959" data-name="Trazado 1178959" d="M45.023,17.046h2.046a1.023,1.023,0,0,0,0-2.046H45.023a1.023,1.023,0,0,0,0,2.046Z" transform="translate(-6.15 0.345)" fill="#0b0a0a"/>
        <path id="Trazado_1178960" data-name="Trazado 1178960" d="M32.115,41.738a6.787,6.787,0,0,0,4.815-1.992A1.023,1.023,0,1,0,35.483,38.3a4.771,4.771,0,0,1-6.737,0A1.023,1.023,0,1,0,27.3,39.746a6.787,6.787,0,0,0,4.815,1.992Z" transform="translate(-6.54 0.873)" fill="#0b0a0a"/>
      </g>
    </g>
  </g>
</svg>
