<svg xmlns="http://www.w3.org/2000/svg" xmlns:xlink="http://www.w3.org/1999/xlink" width="118" height="118" viewBox="0 0 118 118">
  <defs>
    <filter id="Trazado_982547" x="0" y="0" width="118" height="118" filterUnits="userSpaceOnUse">
      <feOffset dy="3" input="SourceAlpha"/>
      <feGaussianBlur stdDeviation="3" result="blur"/>
      <feFlood flood-opacity="0.161"/>
      <feComposite operator="in" in2="blur"/>
      <feComposite in="SourceGraphic"/>
    </filter>
  </defs>
  <g id="Grupo_1223814" data-name="Grupo 1223814" transform="translate(-268.5 -4258.933)">
    <g id="Grupo_1223741" data-name="Grupo 1223741" transform="translate(0 -4646.112)">
      <g id="Grupo_1223199" data-name="Grupo 1223199" transform="translate(277.5 8911.045)">
        <g id="Grupo_1211216" data-name="Grupo 1211216" transform="translate(0)">
          <g id="Grupo_1210737" data-name="Grupo 1210737">
            <g id="Grupo_1210537" data-name="Grupo 1210537">
              <g id="Grupo_1164202" data-name="Grupo 1164202">
                <g id="Grupo_1158168" data-name="Grupo 1158168">
                  <g id="Grupo_1152576" data-name="Grupo 1152576">
                    <g id="Grupo_1148633" data-name="Grupo 1148633">
                      <g id="Grupo_1148525" data-name="Grupo 1148525">
                        <g transform="matrix(1, 0, 0, 1, -9, -6)" filter="url(#Trazado_982547)">
                          <g id="Trazado_982547-2" data-name="Trazado 982547" transform="translate(9 6)" fill="#fcf5f0">
                            <path d="M 49.99999618530273 98.5 C 43.45188140869141 98.5 37.10042572021484 97.21786499023438 31.12206840515137 94.68923950195312 C 25.34691047668457 92.24655151367188 20.15996742248535 88.74931335449219 15.70532512664795 84.29468536376953 C 11.25068187713623 79.84004211425781 7.753438949584961 74.65309906005859 5.310753345489502 68.87792205810547 C 2.782124757766724 62.89956665039062 1.499996185302734 56.54811096191406 1.499996185302734 49.99999618530273 C 1.499996185302734 43.45188140869141 2.782124757766724 37.10042572021484 5.310753345489502 31.12206840515137 C 7.753438949584961 25.34691047668457 11.25068187713623 20.15996742248535 15.70532512664795 15.70532512664795 C 20.15996742248535 11.25068187713623 25.34691047668457 7.753438949584961 31.12206840515137 5.310753345489502 C 37.10042572021484 2.782124757766724 43.45188140869141 1.499996185302734 49.99999618530273 1.499996185302734 C 56.54811096191406 1.499996185302734 62.89956665039062 2.782124757766724 68.87792205810547 5.310753345489502 C 74.65309906005859 7.753438949584961 79.84004211425781 11.25068187713623 84.29468536376953 15.70532512664795 C 88.74931335449219 20.15996742248535 92.24655151367188 25.34691047668457 94.68923950195312 31.12206840515137 C 97.21786499023438 37.10042572021484 98.5 43.45188140869141 98.5 49.99999618530273 C 98.5 56.54811096191406 97.21786499023438 62.89956665039062 94.68923950195312 68.87792205810547 C 92.24655151367188 74.65309906005859 88.74931335449219 79.84004211425781 84.29468536376953 84.29468536376953 C 79.84004211425781 88.74931335449219 74.65309906005859 92.24655151367188 68.87792205810547 94.68923950195312 C 62.89956665039062 97.21786499023438 56.54811096191406 98.5 49.99999618530273 98.5 Z" stroke="none"/>
                            <path d="M 49.99999618530273 2.999992370605469 C 43.65372085571289 2.999992370605469 37.49885940551758 4.242256164550781 31.70639801025391 6.6922607421875 C 26.11002349853516 9.059318542480469 21.08335113525391 12.4486083984375 16.76598358154297 16.76598358154297 C 12.4486083984375 21.08335113525391 9.059318542480469 26.11002349853516 6.6922607421875 31.70639801025391 C 4.242256164550781 37.49885940551758 2.999992370605469 43.65372085571289 2.999992370605469 49.99999618530273 C 2.999992370605469 56.34627151489258 4.242256164550781 62.50113296508789 6.6922607421875 68.29359436035156 C 9.059318542480469 73.88996887207031 12.4486083984375 78.91664123535156 16.76598358154297 83.2340087890625 C 21.08335113525391 87.55138397216797 26.11002349853516 90.940673828125 31.70639801025391 93.30773162841797 C 37.49885940551758 95.75773620605469 43.65372085571289 97 49.99999618530273 97 C 56.34627151489258 97 62.50113296508789 95.75773620605469 68.29359436035156 93.30773162841797 C 73.88996887207031 90.940673828125 78.91664123535156 87.55138397216797 83.2340087890625 83.2340087890625 C 87.55138397216797 78.91664123535156 90.940673828125 73.88996887207031 93.30773162841797 68.29359436035156 C 95.75773620605469 62.50113296508789 97 56.34627151489258 97 49.99999618530273 C 97 43.65372085571289 95.75773620605469 37.49885940551758 93.30773162841797 31.70639801025391 C 90.940673828125 26.11002349853516 87.55138397216797 21.08335113525391 83.2340087890625 16.76598358154297 C 78.91664123535156 12.4486083984375 73.88996887207031 9.059318542480469 68.29359436035156 6.6922607421875 C 62.50113296508789 4.242256164550781 56.34627151489258 2.999992370605469 49.99999618530273 2.999992370605469 M 49.99999618530273 -7.62939453125e-06 C 77.61422729492188 -7.62939453125e-06 100 22.38576507568359 100 49.99999618530273 C 100 77.61422729492188 77.61422729492188 100 49.99999618530273 100 C 22.38576507568359 100 -7.62939453125e-06 77.61422729492188 -7.62939453125e-06 49.99999618530273 C -7.62939453125e-06 22.38576507568359 22.38576507568359 -7.62939453125e-06 49.99999618530273 -7.62939453125e-06 Z" stroke="none" fill="#eca675"/>
                          </g>
                        </g>
                      </g>
                    </g>
                  </g>
                </g>
              </g>
            </g>
          </g>
        </g>
      </g>
    </g>
    <g id="optimism_17599023" transform="translate(285.811 4270.296)">
      <path id="Trazado_1178961" data-name="Trazado 1178961" d="M383.854,121.076a4.262,4.262,0,1,1,4.254-4.262A4.27,4.27,0,0,1,383.854,121.076Zm5.847-5.855a6.186,6.186,0,0,0-.585-1.408,1.067,1.067,0,0,1-.106-.8l.264-.985-.634-.634-.981.264a1.059,1.059,0,0,1-.808-.106,6.1,6.1,0,0,0-1.4-.581,1.075,1.075,0,0,1-.645-.494l-.506-.88h-.9l-.506.88a1.075,1.075,0,0,1-.645.494,6.106,6.106,0,0,0-1.4.581,1.061,1.061,0,0,1-.808.106l-.981-.264-.634.634.264.981a1.059,1.059,0,0,1-.106.8,6.394,6.394,0,0,0-.585,1.416,1.075,1.075,0,0,1-.491.634l-.883.506v.9l.883.51a1.064,1.064,0,0,1,.491.634,6.292,6.292,0,0,0,.585,1.412,1.069,1.069,0,0,1,.106.8l-.264.981.634.63.981-.264a1.078,1.078,0,0,1,.808.106,5.892,5.892,0,0,0,1.4.585,1.062,1.062,0,0,1,.645.494l.506.879h.9l.506-.879a1.061,1.061,0,0,1,.645-.494,5.954,5.954,0,0,0,1.4-.585,1.076,1.076,0,0,1,.808-.106l.981.264.634-.63-.264-.985a1.066,1.066,0,0,1,.106-.8,6.259,6.259,0,0,0,.585-1.408,1.056,1.056,0,0,1,.494-.634l.876-.51v-.9l-.876-.506a1.067,1.067,0,0,1-.494-.634Z" transform="translate(-318.74 -86.321)" fill="#7b849b"/>
      <path id="Trazado_1178962" data-name="Trazado 1178962" d="M417,147.8a2.133,2.133,0,1,0,2.125,2.133A2.136,2.136,0,0,0,417,147.8Z" transform="translate(-351.888 -119.442)" fill="#e8ecf9"/>
      <path id="Trazado_1178963" data-name="Trazado 1178963" d="M27.966,155.42l-.181,3.02,2.5.963a1.062,1.062,0,0,1,.672.838,1.075,1.075,0,0,1-.4,1L28.9,162.513c.57,1.955,1.057,2.824,1.729,3.122.9.4,2.6.064,5.247-.642l5.991-1.612a1.065,1.065,0,0,1,.555,2.057l-4.975,1.336,1.816,7.108a1.055,1.055,0,0,1-.3,1.042l-4.786,4.488c.51-.072,1.015-.136,1.514-.2,8.407-1.095,15.069-1.967,18.142-12.861-1.019-1.887-2.3-4.485-3.02-6.255a11.485,11.485,0,0,1-5.957-2.491A1.061,1.061,0,0,1,45,155.851a3.922,3.922,0,0,0,1.087-5.945,45.317,45.317,0,0,1-10.215-3.333,2.635,2.635,0,0,1,.468.627,1.058,1.058,0,0,1-.438,1.438,1.031,1.031,0,0,1-.5.128,1.064,1.064,0,0,1-.94-.562.468.468,0,0,0-.291-.23.491.491,0,0,0-.378.057,1.063,1.063,0,1,1-1.114-1.812,2.6,2.6,0,0,1,1.831-.344,18.685,18.685,0,0,1-4.779-3.628l-.815,4.613a1,1,0,0,1-.174.419l-3.42,4.949,2.337,2.389a1.051,1.051,0,0,1,.3.8Z" transform="translate(-14.225 -114.625)" fill="#ffddcf"/>
      <path id="Trazado_1178964" data-name="Trazado 1178964" d="M46.307,349.075c-1.487.2-3.027.393-4.575.657a12.121,12.121,0,0,0-4.469,6.58H62.138l-1.174-3.654A1.065,1.065,0,0,1,62.991,352l1.385,4.307H75.788c-.14-1.91-.3-3.835-.593-5.625a14.842,14.842,0,0,1-7.244-12.74c0-.136,0-.272.008-.411-.634-.578-1.321-1.17-2.065-1.767C62.274,347,54.509,348.007,46.306,349.075Z" transform="translate(-24.57 -282.377)" fill="#ede4ed"/>
      <path id="Trazado_1178965" data-name="Trazado 1178965" d="M286.872,264.576a3.389,3.389,0,0,1,3.454-1.653,3.019,3.019,0,0,1,2.567,2.242,1.064,1.064,0,1,1-2.072.479.942.942,0,0,0-.812-.615,1.252,1.252,0,0,0-1.295.615,1.065,1.065,0,1,1-1.842-1.068Zm14.152,5.674a2.424,2.424,0,0,1,2.325,3.114,7.23,7.23,0,0,1-13.865,0,2.43,2.43,0,0,1,2.325-3.118h9.214Zm-1.083-4.485a3.018,3.018,0,0,1,2.574-2.246,3.386,3.386,0,0,1,3.446,1.665,1.065,1.065,0,0,1-1.846,1.064,1.247,1.247,0,0,0-1.291-.623.938.938,0,0,0-.812.623,1.063,1.063,0,0,1-1.034.823,1.037,1.037,0,0,1-.242-.026A1.067,1.067,0,0,1,299.941,265.765Zm-3.526,16.36a12.708,12.708,0,1,0-12.71-12.71A12.727,12.727,0,0,0,296.415,282.125Z" transform="translate(-238.195 -213.845)" fill="#ffe177"/>
      <path id="Trazado_1178966" data-name="Trazado 1178966" d="M342.375,374.493a.254.254,0,0,0-.049.264v0a5.1,5.1,0,0,0,9.781,0,.276.276,0,0,0-.053-.272.258.258,0,0,0-.23-.113h-9.215a.255.255,0,0,0-.234.117Z" transform="translate(-288.994 -315.843)" fill="#f6b446"/>
      <path id="Trazado_1178967" data-name="Trazado 1178967" d="M278.331,76.191a2.675,2.675,0,1,0-2.676-2.676A2.681,2.681,0,0,0,278.331,76.191Z" transform="translate(-231.217 -52.73)" fill="#e8ecf9"/>
      <path id="Trazado_1178968" data-name="Trazado 1178968" d="M239.482,29.842a4.8,4.8,0,1,1-4.805,4.8A4.809,4.809,0,0,1,239.482,29.842Zm-8.645,5.432,1.121.649a1.063,1.063,0,0,1,.5.642,6.979,6.979,0,0,0,.695,1.68,1.072,1.072,0,0,1,.109.812l-.34,1.253.895.891,1.257-.336a1.059,1.059,0,0,1,.8.106,7.416,7.416,0,0,0,1.687.7,1.071,1.071,0,0,1,.642.494l.645,1.121h1.265l.645-1.121a1.071,1.071,0,0,1,.642-.494,7.283,7.283,0,0,0,1.687-.7,1.069,1.069,0,0,1,.8-.106l1.257.336.891-.891-.336-1.253a1.068,1.068,0,0,1,.1-.8,7.246,7.246,0,0,0,.7-1.691,1.074,1.074,0,0,1,.494-.638l1.121-.649V34.013L247,33.364a1.054,1.054,0,0,1-.491-.638,7.558,7.558,0,0,0-.706-1.695,1.058,1.058,0,0,1-.1-.8l.336-1.253-.891-.891-1.257.332a1.068,1.068,0,0,1-.8-.1,7.057,7.057,0,0,0-1.684-.7,1.065,1.065,0,0,1-.645-.494L240.108,26h-1.261l-.645,1.125a1.075,1.075,0,0,1-.645.494,7.12,7.12,0,0,0-1.684.7,1.058,1.058,0,0,1-.8.1l-1.257-.336-.895.895.34,1.25a1.076,1.076,0,0,1-.106.808,6.962,6.962,0,0,0-.7,1.684,1.06,1.06,0,0,1-.5.645l-1.121.649v1.261Z" transform="translate(-192.367 -13.859)" fill="#7b849b"/>
      <path id="Trazado_1178969" data-name="Trazado 1178969" d="M54.606,39.819c.019.03.034.06.049.091,2.22,3.794,8.165,6.916,16.8,8.731a1.048,1.048,0,0,1,.544.3,6.035,6.035,0,0,1-.079,8.546,9.309,9.309,0,0,0,4.2,1.283.84.84,0,0,1,.17.011A9.354,9.354,0,0,0,81.8,57.247c4.194-2.756,4.583-7.335,4.3-10.317H84.688a1.073,1.073,0,0,1-.925-.532l-.744-1.291a9.064,9.064,0,0,1-1.355-.563l-1.442.385a1.065,1.065,0,0,1-1.027-.276l-1.763-1.763a1.07,1.07,0,0,1-.276-1.031l.389-1.434a8.745,8.745,0,0,1-.566-1.359l-1.287-.744a1.062,1.062,0,0,1-.532-.921V34.911a1.063,1.063,0,0,1,.532-.921l1.287-.744a8.9,8.9,0,0,1,.566-1.359l-.136-.506a15.193,15.193,0,0,0-2.442-1.536c-7.221-3.567-14.273-2.129-18.063.887-2.54,2.02-3.65,4.654-3.043,7.229a7.059,7.059,0,0,0,.744,1.857Z" transform="translate(-38.819 -15.372)" fill="#475066"/>
      <g id="Grupo_1223813" data-name="Grupo 1223813" transform="translate(8.917 10.011)">
        <path id="Trazado_1178970" data-name="Trazado 1178970" d="M308.379,305.841a1.252,1.252,0,0,1,1.295-.615.942.942,0,0,1,.812.615,1.064,1.064,0,1,0,2.072-.479,3.019,3.019,0,0,0-2.567-2.242,3.39,3.39,0,0,0-3.454,1.653,1.065,1.065,0,1,0,1.842,1.068Z" transform="translate(-266.776 -264.053)" fill="#030403"/>
        <path id="Trazado_1178971" data-name="Trazado 1178971" d="M264.473,56.983a2.675,2.675,0,1,1-2.676,2.673A2.678,2.678,0,0,1,264.473,56.983Zm0,7.478a4.8,4.8,0,1,0-4.805-4.805A4.81,4.81,0,0,0,264.473,64.461Z" transform="translate(-226.276 -48.882)" fill="#030403"/>
        <path id="Trazado_1178972" data-name="Trazado 1178972" d="M14.523,32.653a1,1,0,0,0,.174-.419l.815-4.613a18.685,18.685,0,0,0,4.779,3.628,2.6,2.6,0,0,0-1.831.344A1.063,1.063,0,1,0,19.573,33.4a.491.491,0,0,1,.378-.057.469.469,0,0,1,.291.23,1.064,1.064,0,0,0,.94.563,1.032,1.032,0,0,0,.5-.128,1.058,1.058,0,0,0,.438-1.438,2.634,2.634,0,0,0-.468-.627A45.313,45.313,0,0,0,31.865,35.28a3.922,3.922,0,0,1-1.087,5.945,1.061,1.061,0,0,0-.151,1.755,11.482,11.482,0,0,0,5.957,2.491c.725,1.77,2,4.368,3.02,6.255C36.53,62.621,29.868,63.493,21.461,64.588c-.5.064-1,.128-1.514.2L24.734,60.3a1.055,1.055,0,0,0,.3-1.042L23.22,52.15,28.2,50.813a1.065,1.065,0,0,0-.555-2.057L21.65,50.368c-2.642.706-4.349,1.038-5.247.642-.672-.3-1.159-1.166-1.729-3.122l1.653-1.276a1.075,1.075,0,0,0,.4-1,1.061,1.061,0,0,0-.672-.838l-2.5-.963.181-3.02a1.05,1.05,0,0,0-.3-.8L11.1,37.6l3.42-4.949ZM18.086,15.36c3.79-3.016,10.841-4.454,18.063-.887a15.194,15.194,0,0,1,2.442,1.536l.136.506a8.893,8.893,0,0,0-.566,1.359l-1.287.744a1.062,1.062,0,0,0-.532.921V22.03a1.063,1.063,0,0,0,.532.921l1.287.744a8.745,8.745,0,0,0,.566,1.359l-.389,1.434a1.07,1.07,0,0,0,.276,1.031l1.763,1.763a1.065,1.065,0,0,0,1.027.276l1.442-.385a9.078,9.078,0,0,0,1.355.563l.744,1.291a1.073,1.073,0,0,0,.925.532h1.419c.279,2.982-.109,7.561-4.3,10.317a9.355,9.355,0,0,1-5.511,1.533.839.839,0,0,0-.17-.011,9.31,9.31,0,0,1-4.2-1.283,6.035,6.035,0,0,0,.079-8.546,1.049,1.049,0,0,0-.544-.3c-8.637-1.816-14.582-4.938-16.8-8.731-.015-.03-.03-.06-.049-.091a7.055,7.055,0,0,1-.744-1.857c-.608-2.575.5-5.209,3.043-7.229ZM39.592,19.5a1.06,1.06,0,0,0,.5-.645,6.963,6.963,0,0,1,.7-1.684,1.076,1.076,0,0,0,.106-.808l-.34-1.25.895-.895,1.257.336a1.058,1.058,0,0,0,.8-.1,7.12,7.12,0,0,1,1.684-.7,1.075,1.075,0,0,0,.645-.494l.645-1.125h1.261l.649,1.125a1.064,1.064,0,0,0,.645.494,7.056,7.056,0,0,1,1.684.7,1.067,1.067,0,0,0,.8.1l1.257-.332.891.891-.336,1.253a1.059,1.059,0,0,0,.1.8,7.562,7.562,0,0,1,.706,1.695,1.055,1.055,0,0,0,.491.638l1.121.649v1.261l-1.121.649a1.074,1.074,0,0,0-.494.638,7.251,7.251,0,0,1-.7,1.691,1.067,1.067,0,0,0-.1.8l.336,1.253-.891.891-1.257-.336a1.069,1.069,0,0,0-.8.106,7.276,7.276,0,0,1-1.687.7,1.071,1.071,0,0,0-.642.494l-.645,1.121H46.481l-.645-1.121a1.071,1.071,0,0,0-.642-.494,7.421,7.421,0,0,1-1.687-.7,1.06,1.06,0,0,0-.8-.106l-1.257.336-.895-.891.34-1.253a1.072,1.072,0,0,0-.109-.812,6.979,6.979,0,0,1-.695-1.68,1.063,1.063,0,0,0-.5-.642l-1.121-.649V20.154l1.121-.649Zm3.8,35.654c0,.14-.008.276-.008.411a14.842,14.842,0,0,0,7.244,12.74c.291,1.789.453,3.714.593,5.625H39.807l-1.385-4.307a1.065,1.065,0,1,0-2.027.653l1.174,3.654H12.692a12.123,12.123,0,0,1,4.469-6.58c1.548-.264,3.088-.461,4.575-.657,8.2-1.068,15.968-2.08,19.588-13.306.744.6,1.431,1.189,2.065,1.767ZM58.221,42.864A12.708,12.708,0,1,1,45.511,55.57,12.724,12.724,0,0,1,58.221,42.864ZM9.472,38.979l2.114,2.163-.2,3.322a1.07,1.07,0,0,0,.679,1.057l1.457.563-.721.559a1.065,1.065,0,0,0-.377,1.117c.736,2.744,1.48,4.473,3.114,5.194,1.321.589,2.986.4,5.621-.26l1.657,6.481-6.783,6.361a14.113,14.113,0,0,0-5.7,9.305,1.078,1.078,0,0,0,.249.853,1.061,1.061,0,0,0,.808.37H52.358a1.066,1.066,0,0,0,1.065-1.14c-.128-1.823-.26-3.688-.487-5.489a14.836,14.836,0,1,0-9.252-16.851q-.991-.844-2.114-1.7c-.861-1.574-1.929-3.714-2.665-5.391a11.492,11.492,0,0,0,5.247-1.842C48.2,41,50.037,36.48,49.357,30.89l.668-1.151a9.735,9.735,0,0,0,1.359-.566l1.442.385a1.065,1.065,0,0,0,1.027-.276l1.759-1.763a1.065,1.065,0,0,0,.276-1.027L55.5,25.054a9.631,9.631,0,0,0,.563-1.359l1.287-.744a1.055,1.055,0,0,0,.532-.921V19.539a1.055,1.055,0,0,0-.532-.921l-1.287-.747a9.4,9.4,0,0,0-.563-1.355l.385-1.438a1.065,1.065,0,0,0-.276-1.027l-1.759-1.767a1.055,1.055,0,0,0-1.027-.272l-1.442.381a9.021,9.021,0,0,0-1.359-.559l-.744-1.291a1.073,1.073,0,0,0-.925-.532H45.869a1.073,1.073,0,0,0-.925.532L44.2,11.834a9.848,9.848,0,0,0-1.355.559L41.4,12.012a1.054,1.054,0,0,0-1.027.272l-1.389,1.389a16.32,16.32,0,0,0-1.895-1.106,21.515,21.515,0,0,0-11.37-2.261,16.828,16.828,0,0,0-8.961,3.386c-3.167,2.522-4.583,6.028-3.786,9.388a8.759,8.759,0,0,0,.8,2.114l-1.136,6.44L9.265,36.514a1.938,1.938,0,0,0,.208,2.465Z" transform="translate(-8.917 -10.011)" fill="#030403"/>
        <path id="Trazado_1178973" data-name="Trazado 1178973" d="M338.178,360.633a.276.276,0,0,1,.053.272,5.1,5.1,0,0,1-9.781,0v0a.3.3,0,0,1,.283-.381h9.214A.258.258,0,0,1,338.178,360.633Zm-11.385-1.268a2.354,2.354,0,0,0-.385,2.144,7.23,7.23,0,0,0,13.865,0,2.424,2.424,0,0,0-2.325-3.114h-9.214a2.369,2.369,0,0,0-1.94.974Z" transform="translate(-284.035 -311.998)" fill="#030403"/>
        <path id="Trazado_1178974" data-name="Trazado 1178974" d="M377.213,103.4l-.876.51a1.056,1.056,0,0,0-.495.634,6.255,6.255,0,0,1-.585,1.408,1.067,1.067,0,0,0-.106.8l.264.985-.634.63-.981-.264a1.076,1.076,0,0,0-.808.106,5.956,5.956,0,0,1-1.4.585,1.061,1.061,0,0,0-.645.494l-.506.879h-.9l-.506-.879a1.06,1.06,0,0,0-.645-.494,5.886,5.886,0,0,1-1.4-.585,1.079,1.079,0,0,0-.808-.106l-.981.264-.634-.63.264-.981a1.068,1.068,0,0,0-.106-.8,6.288,6.288,0,0,1-.585-1.412,1.064,1.064,0,0,0-.491-.634l-.883-.51v-.9l.883-.506a1.075,1.075,0,0,0,.491-.634,6.392,6.392,0,0,1,.585-1.416,1.06,1.06,0,0,0,.106-.8l-.264-.981.634-.634.981.264a1.061,1.061,0,0,0,.808-.106,6.1,6.1,0,0,1,1.4-.581,1.075,1.075,0,0,0,.645-.494l.506-.88h.9l.506.88a1.075,1.075,0,0,0,.645.494,6.106,6.106,0,0,1,1.4.581,1.059,1.059,0,0,0,.808.106l.981-.264.634.634-.264.985a1.067,1.067,0,0,0,.106.8,6.187,6.187,0,0,1,.585,1.408,1.066,1.066,0,0,0,.495.634l.876.506v.9Zm1.6,1.536a1.059,1.059,0,0,0,.532-.921v-2.129a1.055,1.055,0,0,0-.532-.921l-1.049-.608a8.047,8.047,0,0,0-.442-1.068l.313-1.17a1.072,1.072,0,0,0-.275-1.03l-1.5-1.5a1.047,1.047,0,0,0-1.027-.276l-1.174.309a8.564,8.564,0,0,0-1.072-.445l-.608-1.046a1.054,1.054,0,0,0-.921-.532h-2.125a1.063,1.063,0,0,0-.921.532l-.6,1.046a8.831,8.831,0,0,0-1.076.445l-1.17-.309a1.048,1.048,0,0,0-1.027.276l-1.5,1.5a1.071,1.071,0,0,0-.276,1.03l.313,1.17a8.606,8.606,0,0,0-.445,1.068l-1.049.608a1.062,1.062,0,0,0-.532.921v2.129a1.067,1.067,0,0,0,.532.921l1.049.608a8.82,8.82,0,0,0,.445,1.068l-.313,1.17a1.065,1.065,0,0,0,.276,1.027l1.5,1.5a1.065,1.065,0,0,0,1.027.276l1.17-.313a7.787,7.787,0,0,0,1.076.445l.6,1.049a1.072,1.072,0,0,0,.921.532h2.125a1.063,1.063,0,0,0,.921-.532l.608-1.049a7.558,7.558,0,0,0,1.072-.445l1.174.313a1.065,1.065,0,0,0,1.027-.276l1.5-1.5a1.065,1.065,0,0,0,.275-1.027l-.313-1.17a8.241,8.241,0,0,0,.442-1.068Z" transform="translate(-313.8 -82.471)" fill="#030403"/>
        <path id="Trazado_1178975" data-name="Trazado 1178975" d="M403.144,138.211a2.133,2.133,0,1,1,2.125-2.133A2.139,2.139,0,0,1,403.144,138.211Zm0-6.395a4.262,4.262,0,1,0,4.254,4.262A4.268,4.268,0,0,0,403.144,131.816Z" transform="translate(-346.947 -115.595)" fill="#030403"/>
        <path id="Trazado_1178976" data-name="Trazado 1178976" d="M406.241,311.127a1.03,1.03,0,0,0,.242.026,1.063,1.063,0,0,0,1.034-.823.938.938,0,0,1,.811-.623,1.247,1.247,0,0,1,1.291.623,1.065,1.065,0,0,0,1.846-1.064,3.386,3.386,0,0,0-3.446-1.665,3.018,3.018,0,0,0-2.574,2.246A1.067,1.067,0,0,0,406.241,311.127Z" transform="translate(-352.615 -267.938)" fill="#030403"/>
      </g>
    </g>
  </g>
</svg>
