<svg xmlns="http://www.w3.org/2000/svg" xmlns:xlink="http://www.w3.org/1999/xlink" width="118" height="118" viewBox="0 0 118 118">
  <defs>
    <filter id="Trazado_982547" x="0" y="0" width="118" height="118" filterUnits="userSpaceOnUse">
      <feOffset dy="3" input="SourceAlpha"/>
      <feGaussianBlur stdDeviation="3" result="blur"/>
      <feFlood flood-opacity="0.161"/>
      <feComposite operator="in" in2="blur"/>
      <feComposite in="SourceGraphic"/>
    </filter>
  </defs>
  <g id="Grupo_1223816" data-name="Grupo 1223816" transform="translate(-898.5 -4258.933)">
    <g id="Grupo_1223739" data-name="Grupo 1223739" transform="translate(0 -4646.112)">
      <g id="Grupo_1223201" data-name="Grupo 1223201" transform="translate(907.5 8911.045)">
        <g id="Grupo_1211216" data-name="Grupo 1211216" transform="translate(0)">
          <g id="Grupo_1210737" data-name="Grupo 1210737">
            <g id="Grupo_1210537" data-name="Grupo 1210537">
              <g id="Grupo_1164202" data-name="Grupo 1164202">
                <g id="Grupo_1158168" data-name="Grupo 1158168">
                  <g id="Grupo_1152576" data-name="Grupo 1152576">
                    <g id="Grupo_1148633" data-name="Grupo 1148633">
                      <g id="Grupo_1148525" data-name="Grupo 1148525">
                        <g transform="matrix(1, 0, 0, 1, -9, -6)" filter="url(#Trazado_982547)">
                          <g id="Trazado_982547-2" data-name="Trazado 982547" transform="translate(9 6)" fill="#fcf5f0">
                            <path d="M 49.99999618530273 98.5 C 43.45188140869141 98.5 37.10042572021484 97.21786499023438 31.12206840515137 94.68923950195312 C 25.34691047668457 92.24655151367188 20.15996742248535 88.74931335449219 15.70532512664795 84.29468536376953 C 11.25068187713623 79.84004211425781 7.753438949584961 74.65309906005859 5.310753345489502 68.87792205810547 C 2.782124757766724 62.89956665039062 1.499996185302734 56.54811096191406 1.499996185302734 49.99999618530273 C 1.499996185302734 43.45188140869141 2.782124757766724 37.10042572021484 5.310753345489502 31.12206840515137 C 7.753438949584961 25.34691047668457 11.25068187713623 20.15996742248535 15.70532512664795 15.70532512664795 C 20.15996742248535 11.25068187713623 25.34691047668457 7.753438949584961 31.12206840515137 5.310753345489502 C 37.10042572021484 2.782124757766724 43.45188140869141 1.499996185302734 49.99999618530273 1.499996185302734 C 56.54811096191406 1.499996185302734 62.89956665039062 2.782124757766724 68.87792205810547 5.310753345489502 C 74.65309906005859 7.753438949584961 79.84004211425781 11.25068187713623 84.29468536376953 15.70532512664795 C 88.74931335449219 20.15996742248535 92.24655151367188 25.34691047668457 94.68923950195312 31.12206840515137 C 97.21786499023438 37.10042572021484 98.5 43.45188140869141 98.5 49.99999618530273 C 98.5 56.54811096191406 97.21786499023438 62.89956665039062 94.68923950195312 68.87792205810547 C 92.24655151367188 74.65309906005859 88.74931335449219 79.84004211425781 84.29468536376953 84.29468536376953 C 79.84004211425781 88.74931335449219 74.65309906005859 92.24655151367188 68.87792205810547 94.68923950195312 C 62.89956665039062 97.21786499023438 56.54811096191406 98.5 49.99999618530273 98.5 Z" stroke="none"/>
                            <path d="M 49.99999618530273 2.999992370605469 C 43.65372085571289 2.999992370605469 37.49885940551758 4.242256164550781 31.70639801025391 6.6922607421875 C 26.11002349853516 9.059318542480469 21.08335113525391 12.4486083984375 16.76598358154297 16.76598358154297 C 12.4486083984375 21.08335113525391 9.059318542480469 26.11002349853516 6.6922607421875 31.70639801025391 C 4.242256164550781 37.49885940551758 2.999992370605469 43.65372085571289 2.999992370605469 49.99999618530273 C 2.999992370605469 56.34627151489258 4.242256164550781 62.50113296508789 6.6922607421875 68.29359436035156 C 9.059318542480469 73.88996887207031 12.4486083984375 78.91664123535156 16.76598358154297 83.2340087890625 C 21.08335113525391 87.55138397216797 26.11002349853516 90.940673828125 31.70639801025391 93.30773162841797 C 37.49885940551758 95.75773620605469 43.65372085571289 97 49.99999618530273 97 C 56.34627151489258 97 62.50113296508789 95.75773620605469 68.29359436035156 93.30773162841797 C 73.88996887207031 90.940673828125 78.91664123535156 87.55138397216797 83.2340087890625 83.2340087890625 C 87.55138397216797 78.91664123535156 90.940673828125 73.88996887207031 93.30773162841797 68.29359436035156 C 95.75773620605469 62.50113296508789 97 56.34627151489258 97 49.99999618530273 C 97 43.65372085571289 95.75773620605469 37.49885940551758 93.30773162841797 31.70639801025391 C 90.940673828125 26.11002349853516 87.55138397216797 21.08335113525391 83.2340087890625 16.76598358154297 C 78.91664123535156 12.4486083984375 73.88996887207031 9.059318542480469 68.29359436035156 6.6922607421875 C 62.50113296508789 4.242256164550781 56.34627151489258 2.999992370605469 49.99999618530273 2.999992370605469 M 49.99999618530273 -7.62939453125e-06 C 77.61422729492188 -7.62939453125e-06 100 22.38576507568359 100 49.99999618530273 C 100 77.61422729492188 77.61422729492188 100 49.99999618530273 100 C 22.38576507568359 100 -7.62939453125e-06 77.61422729492188 -7.62939453125e-06 49.99999618530273 C -7.62939453125e-06 22.38576507568359 22.38576507568359 -7.62939453125e-06 49.99999618530273 -7.62939453125e-06 Z" stroke="none" fill="#eca675"/>
                          </g>
                        </g>
                      </g>
                    </g>
                  </g>
                </g>
              </g>
            </g>
          </g>
        </g>
      </g>
    </g>
    <g id="mental_9165855" transform="translate(918.828 4276.893)">
      <path id="Trazado_1179005" data-name="Trazado 1179005" d="M44.995,55.394V47.286H41.5a1.957,1.957,0,0,1-1.957-1.957V37.523H34.99l4.555-7.806a14.638,14.638,0,1,1,26.727,8.567c-1.486,2.163-2.984,4.434-3.419,7.02a67.332,67.332,0,0,0-.967,10.077H44.995Z" transform="translate(7.287 2.583)" fill="#f2c791"/>
      <path id="Trazado_1179006" data-name="Trazado 1179006" d="M24.837,55.394V47.286h3.492a1.957,1.957,0,0,0,1.957-1.957V37.523h4.555l-4.555-7.806A14.638,14.638,0,1,0,3.559,38.285c1.486,2.163,2.984,4.434,3.419,7.02a67.332,67.332,0,0,1,.967,10.077H24.837Z" transform="translate(0.21 2.583)" fill="#ffd199"/>
      <path id="Trazado_1179007" data-name="Trazado 1179007" d="M48,24h7.25v7.25H48Z" transform="translate(9.997 4.374)" fill="#67cc6d"/>
      <path id="Trazado_1179008" data-name="Trazado 1179008" d="M17.958,31.958H9.5L13.729,23.5Z" transform="translate(1.978 4.27)" fill="#ff7375"/>
      <path id="Trazado_1179009" data-name="Trazado 1179009" d="M38.578,29.572l-4.41,7.564a1.2,1.2,0,0,0,0,1.208,1.213,1.213,0,0,0,1.051.6h3.347v6.6a3.169,3.169,0,0,0,3.166,3.166h2.284v6.9h2.417v-6.9h1.812V46.295h-6.5a.753.753,0,0,1-.749-.749V37.74a1.212,1.212,0,0,0-1.208-1.208H37.334l3.419-5.872a1.227,1.227,0,0,0,.242-.7,13.429,13.429,0,1,1,24.516,7.866c-1.39,2.03-3.129,4.567-3.625,7.5a66.642,66.642,0,0,0-.979,10.282h2.417a66.732,66.732,0,0,1,.955-9.872c.375-2.235,1.631-4.2,3.226-6.537a15.662,15.662,0,0,0,2.719-9.993A15.87,15.87,0,0,0,55.506,14.457,15.831,15.831,0,0,0,38.59,29.572Z" transform="translate(7.082 2.378)"/>
      <path id="Trazado_1179010" data-name="Trazado 1179010" d="M5.993,45.729A66.348,66.348,0,0,1,6.947,55.6H9.364a66.642,66.642,0,0,0-.979-10.282c-.5-2.936-2.223-5.461-3.625-7.5A13.431,13.431,0,0,1,24.914,20.331a13.3,13.3,0,0,1,4.362,9.618,1.115,1.115,0,0,0,.23.677l3.432,5.9H30.485a1.212,1.212,0,0,0-1.208,1.208v7.806a.753.753,0,0,1-.749.749h-6.5V48.7h1.812v6.9h2.417V48.7h2.284A3.169,3.169,0,0,0,31.7,45.536v-6.6h3.347a1.213,1.213,0,0,0,1.051-.6,1.2,1.2,0,0,0,0-1.208l-4.41-7.564A15.831,15.831,0,0,0,14.777,14.447,15.853,15.853,0,0,0,2.754,39.192c1.595,2.344,2.852,4.3,3.226,6.537Z" transform="translate(0 2.376)"/>
      <path id="Trazado_1179011" data-name="Trazado 1179011" d="M55.458,32.666a1.212,1.212,0,0,0,1.208-1.208v-7.25A1.212,1.212,0,0,0,55.458,23h-7.25A1.212,1.212,0,0,0,47,24.208v7.25a1.212,1.212,0,0,0,1.208,1.208Zm-6.041-7.25H54.25V30.25H49.417Z" transform="translate(9.789 4.166)"/>
      <path id="Trazado_1179012" data-name="Trazado 1179012" d="M19.2,32.8a1.192,1.192,0,0,0,.048-1.172l-4.229-8.458a1.257,1.257,0,0,0-2.163,0L8.623,31.624A1.192,1.192,0,0,0,8.671,32.8a1.207,1.207,0,0,0,1.027.568h8.458a1.207,1.207,0,0,0,1.027-.568Zm-7.528-1.849L13.939,26.4l2.272,4.543Z" transform="translate(1.768 4.072)"/>
      <path id="Trazado_1179013" data-name="Trazado 1179013" d="M34.408,5.417a23.234,23.234,0,0,1,14.934,5.667l-2.682-.3-.278,2.4,6.005.689h.133a1.206,1.206,0,0,0,1.2-1.414L52.689,6.5l-2.38.411.362,2.127A25.569,25.569,0,0,0,34.4,3,25.145,25.145,0,0,0,20.44,7.314l1.341,2.018A22.794,22.794,0,0,1,34.408,5.417Z" transform="translate(4.257 0)"/>
      <path id="Trazado_1179014" data-name="Trazado 1179014" d="M20.253,10.079,18.694,8.23a30.329,30.329,0,0,0-2.634,2.513l1.764,1.643a27.46,27.46,0,0,1,2.429-2.32Z" transform="translate(3.345 1.089)"/>
      <path id="Trazado_1179015" data-name="Trazado 1179015" d="M49.289,58.563l-1.341-2.018A22.794,22.794,0,0,1,35.321,60.46a23.234,23.234,0,0,1-14.934-5.667l2.682.3.278-2.4L17.342,52a1.187,1.187,0,0,0-1.015.375,1.218,1.218,0,0,0-.314,1.039l1.027,5.957,2.38-.411-.362-2.127a25.569,25.569,0,0,0,16.276,6.041,25.145,25.145,0,0,0,13.956-4.314Z" transform="translate(3.331 10.204)"/>
      <path id="Trazado_1179016" data-name="Trazado 1179016" d="M44.47,54.638l1.559,1.849a30.329,30.329,0,0,0,2.634-2.513L46.9,52.33a27.46,27.46,0,0,1-2.429,2.32Z" transform="translate(9.262 10.275)"/>
    </g>
  </g>
</svg>
