<svg xmlns="http://www.w3.org/2000/svg" xmlns:xlink="http://www.w3.org/1999/xlink" width="99.544" height="99.544" viewBox="0 0 99.544 99.544">
  <defs>
    <filter id="Trazado_904820" x="0" y="0" width="99.544" height="99.544" filterUnits="userSpaceOnUse">
      <feOffset dy="3" input="SourceAlpha"/>
      <feGaussianBlur stdDeviation="3" result="blur"/>
      <feFlood flood-opacity="0.161"/>
      <feComposite operator="in" in2="blur"/>
      <feComposite in="SourceGraphic"/>
    </filter>
  </defs>
  <g id="Grupo_1223819" data-name="Grupo 1223819" transform="translate(-171 -4630.016)">
    <g id="Grupo_1223742" data-name="Grupo 1223742" transform="translate(180 4636.016)">
      <g id="Grupo_1173585" data-name="Grupo 1173585" transform="translate(0 0)">
        <g id="Grupo_1173428" data-name="Grupo 1173428">
          <g id="Grupo_1171958" data-name="Grupo 1171958">
            <g id="Grupo_1167341" data-name="Grupo 1167341">
              <g id="Grupo_1166792" data-name="Grupo 1166792">
                <g transform="matrix(1, 0, 0, 1, -9, -6)" filter="url(#Trazado_904820)">
                  <g id="Trazado_904820-2" data-name="Trazado 904820" transform="translate(9 6)" fill="#f2f4f0">
                    <path d="M 40.77218246459961 80.04439544677734 C 35.46981811523438 80.04439544677734 30.32684135437012 79.00625610351562 25.48614692687988 76.95880889892578 C 20.80981826782227 74.98088836669922 16.6097354888916 72.14900970458984 13.00255870819092 68.54183197021484 C 9.395394325256348 64.93465423583984 6.563511848449707 60.73457336425781 4.585594177246094 56.05824661254883 C 2.538147211074829 51.2175407409668 1.500005960464478 46.0745735168457 1.500005960464478 40.77219772338867 C 1.500005960464478 35.46982192993164 2.538147211074829 30.32685661315918 4.585594177246094 25.48615074157715 C 6.563511848449707 20.80982208251953 9.395394325256348 16.60973930358887 13.00255870819092 13.00256252288818 C 16.6097354888916 9.3953857421875 20.80981826782227 6.563503742218018 25.48614692687988 4.585586071014404 C 30.32684135437012 2.538138866424561 35.46981811523438 1.499997735023499 40.77218246459961 1.499997735023499 C 46.07455825805664 1.499997735023499 51.21752548217773 2.538138866424561 56.05823135375977 4.585586071014404 C 60.73455810546875 6.563503742218018 64.93463897705078 9.3953857421875 68.54181671142578 13.00256252288818 C 72.14897918701172 16.60973930358887 74.98086547851562 20.80982208251953 76.95878601074219 25.48615074157715 C 79.00623321533203 30.32685661315918 80.04437255859375 35.46982192993164 80.04437255859375 40.77219772338867 C 80.04437255859375 46.0745735168457 79.00623321533203 51.2175407409668 76.95878601074219 56.05824661254883 C 74.98086547851562 60.73457336425781 72.14897918701172 64.93465423583984 68.54181671142578 68.54183197021484 C 64.93463897705078 72.14900970458984 60.73455810546875 74.98088836669922 56.05823135375977 76.95880889892578 C 51.21752548217773 79.00625610351562 46.07455825805664 80.04439544677734 40.77218246459961 80.04439544677734 Z" stroke="none"/>
                    <path d="M 40.77218246459961 3 C 35.67164993286133 3 30.72527694702148 3.998275756835938 26.07046127319336 5.967094421386719 C 21.57294082641602 7.869384765625 17.53311920166016 10.59331512451172 14.06320953369141 14.06322479248047 C 10.59331512451172 17.53311920166016 7.869384765625 21.57294464111328 5.967086791992188 26.07047653198242 C 3.998275756835938 30.72529220581055 2.999992370605469 35.67166519165039 2.999992370605469 40.77219772338867 C 2.999992370605469 45.87273025512695 3.998275756835938 50.81910705566406 5.967086791992188 55.47391510009766 C 7.869384765625 59.97145080566406 10.59331512451172 64.01126098632812 14.06320953369141 67.48117065429688 C 17.53311920166016 70.95108032226562 21.57294082641602 73.67501068115234 26.07046127319336 75.57730102539062 C 30.72527694702148 77.54611968994141 35.67164993286133 78.54439544677734 40.77218246459961 78.54439544677734 C 45.87271499633789 78.54439544677734 50.819091796875 77.54611968994141 55.47389984130859 75.57730102539062 C 59.97142028808594 73.67501068115234 64.01124572753906 70.95108032226562 67.48115539550781 67.48117065429688 C 70.9510498046875 64.01126098632812 73.67498016357422 59.97145080566406 75.57727813720703 55.47391510009766 C 77.54608917236328 50.81910705566406 78.54437255859375 45.87273025512695 78.54437255859375 40.77219772338867 C 78.54437255859375 35.67166519165039 77.54608917236328 30.72529220581055 75.57727813720703 26.07047653198242 C 73.67498016357422 21.57294464111328 70.9510498046875 17.53311920166016 67.48115539550781 14.06322479248047 C 64.01124572753906 10.59331512451172 59.97142028808594 7.869384765625 55.47389984130859 5.967094421386719 C 50.819091796875 3.998275756835938 45.87271499633789 3 40.77218246459961 3 M 40.77218246459961 0 C 63.29003524780273 0 81.54437255859375 18.25432968139648 81.54437255859375 40.77219772338867 C 81.54437255859375 63.2900505065918 63.29003524780273 81.54439544677734 40.77218246459961 81.54439544677734 C 18.25432968139648 81.54439544677734 -7.62939453125e-06 63.2900505065918 -7.62939453125e-06 40.77219772338867 C -7.62939453125e-06 18.25432968139648 18.25432968139648 0 40.77218246459961 0 Z" stroke="none" fill="#899e78"/>
                  </g>
                </g>
              </g>
            </g>
          </g>
        </g>
      </g>
    </g>
    <g id="Check" transform="translate(193.787 4649.788)">
      <path id="Trazado_1179036" data-name="Trazado 1179036" d="M49.955,55v4.857H5.429a2.429,2.429,0,0,1,0-4.857Z" transform="translate(-0.19 -10.093)" fill="#ff7956"/>
      <path id="Trazado_1179037" data-name="Trazado 1179037" d="M55,49h4.857v4.857H55Z" transform="translate(-10.093 -8.95)" fill="#fee9ab"/>
      <path id="Trazado_1179038" data-name="Trazado 1179038" d="M49.955,43v4.857H5.429a2.429,2.429,0,0,1,0-4.857Z" transform="translate(-0.19 -7.808)" fill="#ff7956"/>
      <path id="Trazado_1179039" data-name="Trazado 1179039" d="M51,13h4.857V29.191H51Z" transform="translate(-9.331 -2.095)" fill="#9cdd05"/>
      <path id="Trazado_1179040" data-name="Trazado 1179040" d="M55.857,9v3.238H51V9h4.857Z" transform="translate(-9.331 -1.333)" fill="#ff9811"/>
      <path id="Trazado_1179041" data-name="Trazado 1179041" d="M55.857,33l-2.445,4.857L51,33Z" transform="translate(-9.331 -5.903)" fill="#ff9811"/>
      <path id="Trazado_1179042" data-name="Trazado 1179042" d="M55.238,4.619V7.857H52V4.619a1.619,1.619,0,0,1,3.238,0Z" transform="translate(-9.522 -0.19)" fill="#9cdd05"/>
      <path id="Trazado_1179043" data-name="Trazado 1179043" d="M53.857,53.477v2.429l-2.429-1.619L49,55.905V47h4.857v6.477Z" transform="translate(-8.95 -8.57)" fill="#ff3051"/>
      <path id="Trazado_1179044" data-name="Trazado 1179044" d="M40.24,49v4.857H5.429a2.429,2.429,0,0,1,0-4.857Z" transform="translate(-0.19 -8.95)" fill="#fee9ab"/>
      <path id="Trazado_1179045" data-name="Trazado 1179045" d="M37.66,12.715,31.191,6.246l-.008-.008H15V3H40.906V35.383H37.668V12.723Z" transform="translate(-2.476 -0.19)" fill="#ff7956"/>
      <path id="Trazado_1179046" data-name="Trazado 1179046" d="M36.906,13.485v22.66H11V7H30.421l.008.008v6.468H36.9Z" transform="translate(-1.714 -0.952)" fill="#fee9ab"/>
      <path id="Trazado_1179047" data-name="Trazado 1179047" d="M41.468,13.478H35V7.01Z" transform="translate(-6.284 -0.954)" fill="#ffde55"/>
      <circle id="Elipse_14720" data-name="Elipse 14720" cx="8.5" cy="8.5" r="8.5" transform="translate(13.213 13.212)" fill="#46f8ff"/>
      <path id="Trazado_1179048" data-name="Trazado 1179048" d="M49.764,34.383H39.24V2.81A.81.81,0,0,0,38.43,2H12.524a.81.81,0,0,0-.81.81V5.238H9.286a.81.81,0,0,0-.81.81V34.383H5.238A3.238,3.238,0,0,0,3.1,40.05a3.234,3.234,0,0,0,0,4.857,3.238,3.238,0,0,0,2.14,5.667H49.764a.81.81,0,0,0,.81-.81V35.192A.81.81,0,0,0,49.764,34.383ZM13.334,3.619H37.621V34.383H36V12.536a.809.809,0,0,0-.237-.572L29.282,5.475a.81.81,0,0,0-.576-.237H13.334ZM29.525,8.012l3.7,3.7h-3.7ZM10.1,6.857h17.81v5.667a.81.81,0,0,0,.81.81h5.667V34.383H10.1ZM5.238,36H48.955V39.24H45.717v-.81a.81.81,0,0,0-.81-.81H40.05a.81.81,0,0,0-.81.81v.81h-34a1.619,1.619,0,0,1,0-3.238Zm40.478,4.857h3.238V44.1H45.717ZM44.1,39.24v6.583l-1.17-.78a.81.81,0,0,0-.9,0l-1.17.78V39.24ZM5.238,40.859h34V44.1h-34a1.619,1.619,0,0,1,0-3.238Zm0,8.1a1.619,1.619,0,0,1,0-3.238h34v1.619a.81.81,0,0,0,1.259.674l1.979-1.321,1.979,1.32a.81.81,0,0,0,1.259-.672V45.716h3.238v3.238Z"/>
      <path id="Trazado_1179049" data-name="Trazado 1179049" d="M58.905,10.1H56.477V7.667a.81.81,0,0,0-.81-.81V4.429a2.429,2.429,0,0,0-4.857,0V6.857a.81.81,0,0,0-.81.81V27.1a.8.8,0,0,0,.081.359l2.409,4.857a.807.807,0,0,0,1.445,0l2.449-4.857a.81.81,0,0,0,.092-.364V11.715H58.1v5.667h1.619V10.905A.81.81,0,0,0,58.905,10.1ZM54.857,8.477V10.1H51.619V8.477ZM52.429,4.429a.81.81,0,0,1,1.619,0V6.857H52.429Zm.795,25.715-1.109-2.238h2.238Zm1.634-3.857H51.619V11.715h3.238Z" transform="translate(-9.141)"/>
      <path id="Trazado_1179050" data-name="Trazado 1179050" d="M24.905,16a8.905,8.905,0,1,0,8.905,8.905A8.905,8.905,0,0,0,24.905,16Zm0,16.191a7.286,7.286,0,1,1,7.286-7.286,7.286,7.286,0,0,1-7.286,7.286Z" transform="translate(-2.666 -2.666)"/>
      <path id="Trazado_1179051" data-name="Trazado 1179051" d="M23.327,28.1,21.61,26.388l-1.145,1.145,2.289,2.289a.81.81,0,0,0,1.145,0l6.869-6.869-1.145-1.145Z" transform="translate(-3.516 -3.772)"/>
    </g>
  </g>
</svg>
