<svg xmlns="http://www.w3.org/2000/svg" xmlns:xlink="http://www.w3.org/1999/xlink" width="113" height="113" viewBox="0 0 113 113">
  <defs>
    <filter id="Trazado_982547" x="0" y="0" width="113" height="113" filterUnits="userSpaceOnUse">
      <feOffset dy="3" input="SourceAlpha"/>
      <feGaussianBlur stdDeviation="3" result="blur"/>
      <feFlood flood-opacity="0.161"/>
      <feComposite operator="in" in2="blur"/>
      <feComposite in="SourceGraphic"/>
    </filter>
  </defs>
  <g id="Grupo_1223822" data-name="Grupo 1223822" transform="translate(-793.98 -5386.547)">
    <g id="Grupo_1223743" data-name="Grupo 1223743" transform="translate(0 1537.837)">
      <g id="Grupo_1223176" data-name="Grupo 1223176" transform="translate(802.98 3854.71)">
        <g id="Grupo_1211217" data-name="Grupo 1211217" transform="translate(0)">
          <g id="Grupo_1210736" data-name="Grupo 1210736">
            <g id="Grupo_1210537" data-name="Grupo 1210537">
              <g id="Grupo_1164202" data-name="Grupo 1164202">
                <g id="Grupo_1158168" data-name="Grupo 1158168">
                  <g id="Grupo_1152576" data-name="Grupo 1152576">
                    <g id="Grupo_1148633" data-name="Grupo 1148633">
                      <g id="Grupo_1148525" data-name="Grupo 1148525">
                        <g transform="matrix(1, 0, 0, 1, -9, -6)" filter="url(#Trazado_982547)">
                          <g id="Trazado_982547-2" data-name="Trazado 982547" transform="translate(9 6)" fill="#fcf5f0">
                            <path d="M 47.49999618530273 93.5 C 41.28936767578125 93.5 35.26533126831055 92.28396606445312 29.59518241882324 89.88570404052734 C 24.11771583557129 87.56893157958984 19.19812965393066 84.251953125 14.97308921813965 80.02690124511719 C 10.74803638458252 75.80186462402344 7.431062698364258 70.88227844238281 5.114289283752441 65.40480804443359 C 2.716022968292236 59.73466110229492 1.499996185302734 53.71062469482422 1.499996185302734 47.49999618530273 C 1.499996185302734 41.28936767578125 2.716022968292236 35.26533126831055 5.114289283752441 29.59518241882324 C 7.431062698364258 24.11771583557129 10.74803638458252 19.19812965393066 14.97308921813965 14.97308921813965 C 19.19812965393066 10.74803638458252 24.11771583557129 7.431062698364258 29.59518241882324 5.114289283752441 C 35.26533126831055 2.716022968292236 41.28936767578125 1.499996185302734 47.49999618530273 1.499996185302734 C 53.71062469482422 1.499996185302734 59.73466110229492 2.716022968292236 65.40480804443359 5.114289283752441 C 70.88227844238281 7.431062698364258 75.80186462402344 10.74803638458252 80.02690124511719 14.97308921813965 C 84.251953125 19.19812965393066 87.56893157958984 24.11771583557129 89.88570404052734 29.59518241882324 C 92.28396606445312 35.26533126831055 93.5 41.28936767578125 93.5 47.49999618530273 C 93.5 53.71062469482422 92.28396606445312 59.73466110229492 89.88570404052734 65.40480804443359 C 87.56893157958984 70.88227844238281 84.251953125 75.80186462402344 80.02690124511719 80.02690124511719 C 75.80186462402344 84.251953125 70.88227844238281 87.56893157958984 65.40480804443359 89.88570404052734 C 59.73466110229492 92.28396606445312 53.71062469482422 93.5 47.49999618530273 93.5 Z" stroke="none"/>
                            <path d="M 47.49999618530273 2.999992370605469 C 41.4912109375 2.999992370605469 35.66376495361328 4.1761474609375 30.17950439453125 6.495796203613281 C 24.88084411621094 8.736953735351562 20.12152099609375 11.94598388671875 16.03375244140625 16.03375244140625 C 11.94598388671875 20.12152099609375 8.736953735351562 24.88084411621094 6.495796203613281 30.17950439453125 C 4.1761474609375 35.66376495361328 2.999992370605469 41.4912109375 2.999992370605469 47.49999618530273 C 2.999992370605469 53.50878143310547 4.1761474609375 59.33622741699219 6.495796203613281 64.82048797607422 C 8.736953735351562 70.11914825439453 11.94598388671875 74.87847137451172 16.03375244140625 78.96623992919922 C 20.12152099609375 83.05400848388672 24.88084411621094 86.26304626464844 30.17950439453125 88.50419616699219 C 35.66376495361328 90.82384490966797 41.4912109375 92 47.49999618530273 92 C 53.50878143310547 92 59.33622741699219 90.82384490966797 64.82048797607422 88.50419616699219 C 70.11914825439453 86.26304626464844 74.87847137451172 83.05400848388672 78.96623992919922 78.96623992919922 C 83.05400848388672 74.87847137451172 86.26304626464844 70.11914825439453 88.50419616699219 64.82048797607422 C 90.82384490966797 59.33622741699219 92 53.50878143310547 92 47.49999618530273 C 92 41.4912109375 90.82384490966797 35.66376495361328 88.50419616699219 30.17950439453125 C 86.26304626464844 24.88084411621094 83.05400848388672 20.12152099609375 78.96623992919922 16.03375244140625 C 74.87847137451172 11.94598388671875 70.11914825439453 8.736953735351562 64.82048797607422 6.495796203613281 C 59.33622741699219 4.1761474609375 53.50878143310547 2.999992370605469 47.49999618530273 2.999992370605469 M 47.49999618530273 -7.62939453125e-06 C 73.7335205078125 -7.62939453125e-06 95 21.26647186279297 95 47.49999618530273 C 95 73.7335205078125 73.7335205078125 95 47.49999618530273 95 C 21.26647186279297 95 -7.62939453125e-06 73.7335205078125 -7.62939453125e-06 47.49999618530273 C -7.62939453125e-06 21.26647186279297 21.26647186279297 -7.62939453125e-06 47.49999618530273 -7.62939453125e-06 Z" stroke="none" fill="#eca675"/>
                          </g>
                        </g>
                      </g>
                    </g>
                  </g>
                </g>
              </g>
            </g>
          </g>
        </g>
      </g>
    </g>
    <g id="support_8125445" transform="translate(766.099 5397.384)">
      <g id="Grupo_1223820" data-name="Grupo 1223820" transform="translate(57.951 7.499)">
        <path id="Trazado_1179052" data-name="Trazado 1179052" d="M235.143,81.379V79.012a7.893,7.893,0,1,0-15.785,0v2.368Z" transform="translate(-197.817 -62.629)" fill="#adb9c8" fill-rule="evenodd"/>
        <path id="Trazado_1179053" data-name="Trazado 1179053" d="M243.815,151.948V148H231.187v3.946a6.277,6.277,0,0,0,.118,1.213,6.354,6.354,0,0,0,3.224,4.353,6.278,6.278,0,0,0,5.945,0,6.3,6.3,0,0,0,3.341-5.566Z" transform="translate(-208.068 -129.251)" fill="#f6d9ad" fill-rule="evenodd"/>
        <path id="Trazado_1179054" data-name="Trazado 1179054" d="M217.819,148v3.946a6.274,6.274,0,0,1-.118,1.213h2.543a1.584,1.584,0,0,0,1.578-1.578v-2A1.583,1.583,0,0,0,220.244,148h-2.425Zm-12.628,3.946V148h-2.425a1.583,1.583,0,0,0-1.579,1.579v2a1.583,1.583,0,0,0,1.579,1.579h2.543A6.275,6.275,0,0,1,205.191,151.948Z" transform="translate(-182.071 -129.251)" fill="#feb982" fill-rule="evenodd"/>
        <path id="Trazado_1179055" data-name="Trazado 1179055" d="M260.078,219.275a6.276,6.276,0,0,1-5.945,0l-.322,3.22c0,1.453,1.475,2.63,3.295,2.63s3.3-1.177,3.3-2.63Z" transform="translate(-227.672 -191.012)" fill="#f6d9ad" fill-rule="evenodd"/>
        <path id="Trazado_1179056" data-name="Trazado 1179056" d="M202.392,243.4c0,1.453-1.475,2.63-3.3,2.63s-3.3-1.177-3.3-2.63l-4.6,1.4a6.953,6.953,0,0,0-4.334,2.987,20.023,20.023,0,0,0,24.484-.02c-.779-1.492-2.5-2.4-4.36-2.967Z" transform="translate(-169.663 -211.918)" fill="#f05776" fill-rule="evenodd"/>
        <path id="Trazado_1179057" data-name="Trazado 1179057" d="M151.812,38.981l4.6,1.4c1.86.566,3.58,1.475,4.36,2.967a20.018,20.018,0,1,0-24.484.02,6.952,6.952,0,0,1,4.334-2.987l4.6-1.4.322-3.219a6.354,6.354,0,0,1-3.224-4.353h-2.543A1.583,1.583,0,0,1,138.2,29.83v-2a1.583,1.583,0,0,1,1.579-1.579h.846V23.882a7.893,7.893,0,1,1,15.785,0V26.25h.846a1.583,1.583,0,0,1,1.579,1.579v2a1.584,1.584,0,0,1-1.579,1.579h-2.543a6.354,6.354,0,0,1-3.224,4.353Z" transform="translate(-119.084 -7.499)" fill="#fff" fill-rule="evenodd"/>
        <path id="Trazado_1179058" data-name="Trazado 1179058" d="M91.411,357.543c-.442-1.591-2.048-2.186-3.7-2.09l-13.92.817-12.84,5.141h-3v13.924h3l10.836-3.783L89.3,373.034l20.435-10.6a2.008,2.008,0,0,0,.855-2.7,4.016,4.016,0,0,0-5.4-1.71l-15.1,7.836L81.464,362.8l7.857-1.563A3.068,3.068,0,0,0,91.411,357.543Z" transform="translate(-57.951 -309.008)" fill="#f6d9ad" fill-rule="evenodd"/>
        <path id="Trazado_1179059" data-name="Trazado 1179059" d="M250.262,350.733l-6.07,3.149a3.127,3.127,0,0,1-2.2,2.889l-7.857,1.563,8.623,3.056,12.043-6.248a2.008,2.008,0,0,0,.855-2.7A4.015,4.015,0,0,0,250.262,350.733Z" transform="translate(-210.625 -304.539)" fill="#feb982" fill-rule="evenodd"/>
        <rect id="Rectángulo_421821" data-name="Rectángulo 421821" width="3.003" height="13.924" transform="translate(0 52.403)" fill="#feb982"/>
        <path id="Trazado_1179060" data-name="Trazado 1179060" d="M188.148,265.055a4.675,4.675,0,0,0-1.28,1.5A19.932,19.932,0,0,0,199.1,270.72q.759,0,1.5-.056A19.965,19.965,0,0,1,188.148,265.055Z" transform="translate(-169.663 -230.683)" fill="#df1843" fill-rule="evenodd"/>
        <path id="Trazado_1179061" data-name="Trazado 1179061" d="M150.019,7.556q-.744-.055-1.5-.056a20.019,20.019,0,0,0-12.229,35.869,4.675,4.675,0,0,1,1.28-1.5,20.017,20.017,0,0,1,12.45-34.316Z" transform="translate(-119.084 -7.5)" fill="#b6e6fc" fill-rule="evenodd"/>
        <path id="Trazado_1179062" data-name="Trazado 1179062" d="M228.752,71.265a7.89,7.89,0,0,0-9.394,7.748V81.38h3V79.013A7.923,7.923,0,0,1,228.752,71.265Z" transform="translate(-197.817 -62.629)" fill="#72869e" fill-rule="evenodd"/>
        <path id="Trazado_1179063" data-name="Trazado 1179063" d="M234.189,148h-3v3.946A6.315,6.315,0,0,0,239,158.081a6.339,6.339,0,0,1-4.813-6.133Z" transform="translate(-208.067 -129.251)" fill="#feb982" fill-rule="evenodd"/>
        <path id="Trazado_1179064" data-name="Trazado 1179064" d="M257.053,220.024a6.254,6.254,0,0,1-2.92-.749l-.322,3.22a2.873,2.873,0,0,0,2.686,2.585Z" transform="translate(-227.672 -191.012)" fill="#feb982" fill-rule="evenodd"/>
      </g>
      <g id="Grupo_1223821" data-name="Grupo 1223821" transform="translate(57.951 7.499)">
        <path id="Trazado_1179065" data-name="Trazado 1179065" d="M81.464,362.8l8.623,3.056,15.1-7.836a4.015,4.015,0,0,1,5.4,1.71,2.008,2.008,0,0,1-.855,2.7l-9.329,4.84m-1.777.922-9.329,4.84L71.79,371.554l-10.836,3.783h-3V361.413h3l12.84-5.141,13.92-.817c1.649-.1,3.255.5,3.7,2.09a3.067,3.067,0,0,1-2.09,3.7L76.2,363.852" transform="translate(-57.951 -309.009)" fill="none" stroke="#000" stroke-miterlimit="22.926" stroke-width="1" fill-rule="evenodd"/>
        <path id="Trazado_1179066" data-name="Trazado 1179066" d="M309.474,353.882l6.07-3.149a4.015,4.015,0,0,1,5.4,1.71,2.008,2.008,0,0,1-.855,2.7" transform="translate(-275.907 -304.539)" fill="none" stroke="#000" stroke-miterlimit="22.926" stroke-width="1" fill-rule="evenodd"/>
        <path id="Trazado_1179067" data-name="Trazado 1179067" d="M135.113,12.652a20.018,20.018,0,1,1-1.462,1.462" transform="translate(-119.084 -7.5)" fill="none" stroke="#000" stroke-miterlimit="22.926" stroke-width="1" fill-rule="evenodd"/>
        <path id="Trazado_1179068" data-name="Trazado 1179068" d="M195.8,243.4l-4.6,1.4a6.953,6.953,0,0,0-4.334,2.987m24.483-.02c-.779-1.492-2.5-2.4-4.36-2.967l-4.6-1.4" transform="translate(-169.664 -211.918)" fill="none" stroke="#000" stroke-miterlimit="22.926" stroke-width="1" fill-rule="evenodd"/>
        <path id="Trazado_1179069" data-name="Trazado 1179069" d="M316,39.5v-2m4,4v-2" transform="translate(-281.561 -33.495)" fill="none" stroke="#000" stroke-miterlimit="22.926" stroke-width="1" fill-rule="evenodd"/>
        <path id="Trazado_1179070" data-name="Trazado 1179070" d="M254.132,219.275l-.322,3.22m6.59,0-.322-3.219" transform="translate(-227.672 -191.012)" fill="none" stroke="#000" stroke-miterlimit="22.926" stroke-width="1" fill-rule="evenodd"/>
        <path id="Trazado_1179071" data-name="Trazado 1179071" d="M243.815,148v3.946a6.314,6.314,0,1,1-12.628,0V148" transform="translate(-208.068 -129.251)" fill="none" stroke="#000" stroke-miterlimit="22.926" stroke-width="1" fill-rule="evenodd"/>
        <path id="Trazado_1179072" data-name="Trazado 1179072" d="M205.307,153.161h-2.543a1.583,1.583,0,0,1-1.579-1.579v-2A1.583,1.583,0,0,1,202.765,148h17.478a1.583,1.583,0,0,1,1.578,1.579v2a1.584,1.584,0,0,1-1.578,1.579H217.7" transform="translate(-182.071 -129.251)" fill="none" stroke="#000" stroke-miterlimit="22.926" stroke-width="1" fill-rule="evenodd"/>
        <path id="Trazado_1179073" data-name="Trazado 1179073" d="M219.358,81.379V79.012a7.893,7.893,0,1,1,15.785,0v2.368" transform="translate(-197.817 -62.629)" fill="none" stroke="#000" stroke-miterlimit="22.926" stroke-width="1" fill-rule="evenodd"/>
        <path id="Trazado_1179074" data-name="Trazado 1179074" d="M260.4,243.4c0,1.453-1.475,2.63-3.3,2.63s-3.3-1.177-3.3-2.63" transform="translate(-227.671 -211.918)" fill="none" stroke="#000" stroke-miterlimit="22.926" stroke-width="1" fill-rule="evenodd"/>
      </g>
    </g>
  </g>
</svg>
