<svg xmlns="http://www.w3.org/2000/svg" xmlns:xlink="http://www.w3.org/1999/xlink" width="108" height="108" viewBox="0 0 108 108">
  <defs>
    <filter id="Trazado_904820" x="0" y="0" width="108" height="108" filterUnits="userSpaceOnUse">
      <feOffset dy="3" input="SourceAlpha"/>
      <feGaussianBlur stdDeviation="3" result="blur"/>
      <feFlood flood-opacity="0.161"/>
      <feComposite operator="in" in2="blur"/>
      <feComposite in="SourceGraphic"/>
    </filter>
  </defs>
  <g id="Grupo_1223810" data-name="Grupo 1223810" transform="translate(-200 -446.341)">
    <g id="Grupo_1223229" data-name="Grupo 1223229" transform="translate(209 452.341)">
      <g id="Grupo_1222170" data-name="Grupo 1222170" transform="translate(0 0)">
        <g id="Grupo_1173585" data-name="Grupo 1173585">
          <g id="Grupo_1173428" data-name="Grupo 1173428">
            <g id="Grupo_1171958" data-name="Grupo 1171958">
              <g id="Grupo_1167341" data-name="Grupo 1167341">
                <g id="Grupo_1166792" data-name="Grupo 1166792">
                  <g transform="matrix(1, 0, 0, 1, -9, -6)" filter="url(#Trazado_904820)">
                    <g id="Trazado_904820-2" data-name="Trazado 904820" transform="translate(9 6)" fill="#fcf5f0">
                      <path d="M 44.99999618530273 88.50002288818359 C 39.12687301635742 88.50002288818359 33.43022155761719 87.35009765625 28.06829643249512 85.08218383789062 C 22.88852119445801 82.89133453369141 18.23629570007324 79.75460815429688 14.24084663391113 75.75916290283203 C 10.24540901184082 71.76371002197266 7.108683586120605 67.11148834228516 4.917821407318115 61.93171310424805 C 2.649921178817749 56.56978607177734 1.499996185302734 50.87313461303711 1.499996185302734 45.0000114440918 C 1.499996185302734 39.12688827514648 2.649921178817749 33.43023681640625 4.917821407318115 28.06829833984375 C 7.108683586120605 22.88852310180664 10.24540901184082 18.2363109588623 14.24084663391113 14.2408618927002 C 18.23629570007324 10.24541187286377 22.88852119445801 7.108686447143555 28.06829643249512 4.917823791503906 C 33.43022155761719 2.649924039840698 39.12687301635742 1.499998927116394 44.99999618530273 1.499998927116394 C 50.87311935424805 1.499998927116394 56.56977081298828 2.649924039840698 61.93169784545898 4.917823791503906 C 67.11147308349609 7.108686447143555 71.76369476318359 10.24541187286377 75.75914764404297 14.2408618927002 C 79.75458526611328 18.2363109588623 82.89131164550781 22.88852310180664 85.08216857910156 28.06829833984375 C 87.35007476806641 33.43023681640625 88.5 39.12688827514648 88.5 45.0000114440918 C 88.5 50.87313461303711 87.35007476806641 56.56978607177734 85.08216857910156 61.93171310424805 C 82.89131164550781 67.11148834228516 79.75458526611328 71.76371002197266 75.75914764404297 75.75916290283203 C 71.76369476318359 79.75460815429688 67.11147308349609 82.89133453369141 61.93169784545898 85.08218383789062 C 56.56977081298828 87.35009765625 50.87311935424805 88.50002288818359 44.99999618530273 88.50002288818359 Z" stroke="none"/>
                      <path d="M 44.99999618530273 3 C 39.32870864868164 3 33.82865142822266 4.110054016113281 28.65262603759766 6.299339294433594 C 23.65165710449219 8.414566040039062 19.15968322753906 11.44333648681641 15.301513671875 15.30152893066406 C 11.44333648681641 19.15969848632812 8.414566040039062 23.65165710449219 6.299339294433594 28.65264129638672 C 4.110054016113281 33.82866668701172 2.999992370605469 39.3287239074707 2.999992370605469 45.0000114440918 C 2.999992370605469 50.67129898071289 4.110054016113281 56.17135620117188 6.299339294433594 61.34738159179688 C 8.414566040039062 66.34836578369141 11.44333648681641 70.84032440185547 15.301513671875 74.69849395751953 C 19.15968322753906 78.55668640136719 23.65165710449219 81.58545684814453 28.65262603759766 83.70068359375 C 33.82865142822266 85.88996887207031 39.32870864868164 87.00002288818359 44.99999618530273 87.00002288818359 C 50.67128372192383 87.00002288818359 56.17134094238281 85.88996887207031 61.34736633300781 83.70068359375 C 66.34834289550781 81.58545684814453 70.84030914306641 78.55668640136719 74.69847869873047 74.69849395751953 C 78.55665588378906 70.84032440185547 81.58542633056641 66.34836578369141 83.70065307617188 61.34738159179688 C 85.88993835449219 56.17135620117188 87 50.67129898071289 87 45.0000114440918 C 87 39.3287239074707 85.88993835449219 33.82866668701172 83.70065307617188 28.65264129638672 C 81.58542633056641 23.65165710449219 78.55665588378906 19.15969848632812 74.69847869873047 15.30152893066406 C 70.84030914306641 11.44333648681641 66.34834289550781 8.414566040039062 61.34736633300781 6.299339294433594 C 56.17134094238281 4.110054016113281 50.67128372192383 3 44.99999618530273 3 M 44.99999618530273 0 C 69.85281372070312 0 90 20.14719390869141 90 45.0000114440918 C 90 69.85282897949219 69.85281372070312 90.00002288818359 44.99999618530273 90.00002288818359 C 20.14717864990234 90.00002288818359 -7.62939453125e-06 69.85282897949219 -7.62939453125e-06 45.0000114440918 C -7.62939453125e-06 20.14719390869141 20.14717864990234 0 44.99999618530273 0 Z" stroke="none" fill="#eca675"/>
                    </g>
                  </g>
                </g>
              </g>
            </g>
          </g>
        </g>
      </g>
    </g>
    <g id="goal_2452170" transform="translate(221.272 466.613)">
      <g id="Grupo_1223808" data-name="Grupo 1223808" transform="translate(1.959 5.795)">
        <g id="Grupo_1223793" data-name="Grupo 1223793" transform="translate(34.523 46.03)">
          <path id="Trazado_1178923" data-name="Trazado 1178923" d="M38,54H55.261v3.836H38Z" transform="translate(-38 -54)" fill="#aab2bd"/>
        </g>
        <g id="Grupo_1223794" data-name="Grupo 1223794" transform="translate(34.523 36.441)">
          <path id="Trazado_1178924" data-name="Trazado 1178924" d="M38,44H55.261v3.836H38Z" transform="translate(-38 -44)" fill="#aab2bd"/>
        </g>
        <g id="Grupo_1223795" data-name="Grupo 1223795" transform="translate(34.523 26.851)">
          <path id="Trazado_1178925" data-name="Trazado 1178925" d="M38,34H55.261v3.836H38Z" transform="translate(-38 -34)" fill="#aab2bd"/>
        </g>
        <g id="Grupo_1223796" data-name="Grupo 1223796" transform="translate(51.784 23.015)">
          <path id="Trazado_1178926" data-name="Trazado 1178926" d="M59.836,30V60.687H56V30Z" transform="translate(-56 -30)" fill="#ccd1d9"/>
        </g>
        <g id="Grupo_1223797" data-name="Grupo 1223797" transform="translate(30.687 23.015)">
          <path id="Trazado_1178927" data-name="Trazado 1178927" d="M37.836,56.851v3.836H34V30h3.836V56.851Z" transform="translate(-34 -30)" fill="#ccd1d9"/>
        </g>
        <g id="Grupo_1223798" data-name="Grupo 1223798" transform="translate(14.384 23.015)">
          <path id="Trazado_1178928" data-name="Trazado 1178928" d="M21.795,30l4.795,7.672H23.713V60.687H19.877V37.672H17Z" transform="translate(-17 -30)" fill="#b4dd7f"/>
        </g>
        <g id="Grupo_1223799" data-name="Grupo 1223799" transform="translate(0.959 34.523)">
          <path id="Trazado_1178929" data-name="Trazado 1178929" d="M7.795,42l4.795,7.672H9.713V61.179H5.877V49.672H3Z" transform="translate(-3 -42)" fill="#b4dd7f"/>
        </g>
        <g id="Grupo_1223800" data-name="Grupo 1223800" transform="translate(28.769 5.447)">
          <path id="Trazado_1178930" data-name="Trazado 1178930" d="M60.769,11.68V27.33a1.932,1.932,0,0,1-1.918,1.918H33.918A1.924,1.924,0,0,1,32,27.33V23.811l3.836-1.592v-.01l2.954-1.227a1.421,1.421,0,0,0,.882-1.323v-.048c.307.029.623.048.93.048H52.109a8.634,8.634,0,0,0,8.611-7.979Z" transform="translate(-32 -11.68)" fill="#d3a06c"/>
        </g>
        <g id="Grupo_1223801" data-name="Grupo 1223801" transform="translate(28.769)">
          <path id="Trazado_1178931" data-name="Trazado 1178931" d="M60.769,7.918v3.529h-.048a8.634,8.634,0,0,1-8.611,7.979H40.6c-.307,0-.623-.019-.93-.048a1.425,1.425,0,0,0-.882-1.275l-2.954-1.227v-.01l-2.129-.882A8.547,8.547,0,0,1,32,11.447V7.918A1.924,1.924,0,0,1,33.918,6H58.851A1.924,1.924,0,0,1,60.769,7.918Z" transform="translate(-32 -6)" fill="#cf9e76"/>
        </g>
        <g id="Grupo_1223802" data-name="Grupo 1223802" transform="translate(0 7.672)">
          <path id="Trazado_1178932" data-name="Trazado 1178932" d="M9.672,14V25.508H7.754A5.762,5.762,0,0,1,2,19.754,5.758,5.758,0,0,1,7.754,14Z" transform="translate(-2 -14)" fill="#aab2bd"/>
        </g>
        <g id="Grupo_1223803" data-name="Grupo 1223803" transform="translate(7.672 7.672)">
          <path id="Trazado_1178933" data-name="Trazado 1178933" d="M13.836,19.754v5.754H10V14h3.836Z" transform="translate(-10 -14)" fill="#ffeaa7"/>
        </g>
        <g id="Grupo_1223804" data-name="Grupo 1223804" transform="translate(11.508 13.425)">
          <path id="Trazado_1178934" data-name="Trazado 1178934" d="M14,20H27.425v5.754H14Z" transform="translate(-14 -20)" fill="#69d6f4"/>
        </g>
        <g id="Grupo_1223805" data-name="Grupo 1223805" transform="translate(11.508 7.672)">
          <path id="Trazado_1178935" data-name="Trazado 1178935" d="M14,14H27.425v5.754H14Z" transform="translate(-14 -14)" fill="#ff826e"/>
        </g>
        <g id="Grupo_1223806" data-name="Grupo 1223806" transform="translate(24.933 7.672)">
          <path id="Trazado_1178936" data-name="Trazado 1178936" d="M38.625,18.43,35.672,17.2v-.01l-2.129-.882-1.707-.71L28,14V25.508l3.836-1.6,3.836-1.592V22.3l2.954-1.227a1.421,1.421,0,0,0,.882-1.323v-.048A1.425,1.425,0,0,0,38.625,18.43Z" transform="translate(-28 -14)" fill="#aab2bd"/>
        </g>
        <g id="Grupo_1223807" data-name="Grupo 1223807" transform="translate(38.359 5.754)">
          <path id="Trazado_1178937" data-name="Trazado 1178937" d="M51.59,12.959v1.918a.962.962,0,0,1-.959.959H42.959A.962.962,0,0,1,42,14.877V12.959A.962.962,0,0,1,42.959,12h7.672A.962.962,0,0,1,51.59,12.959Z" transform="translate(-42 -12)" fill="#fcd770"/>
        </g>
      </g>
      <g id="Grupo_1223809" data-name="Grupo 1223809" transform="translate(1 1)">
        <path id="Trazado_1178938" data-name="Trazado 1178938" d="M57.579,4.836H50.866V2.918A1.92,1.92,0,0,0,48.948,1H41.276a1.92,1.92,0,0,0-1.918,1.918V4.836H32.646a2.88,2.88,0,0,0-2.877,2.877v5.914l-2.685-1.119H7.713a6.713,6.713,0,1,0,0,13.425H27.084l2.685-1.119v2.078a2.873,2.873,0,0,0,1.918,2.7V58.538H24.015v-21.1h3.648L21.138,27l-6.525,10.44h3.648v21.1H10.59v-9.59h3.648L7.713,38.508,1.188,48.948H4.836V60.456h53.7V29.592a2.873,2.873,0,0,0,1.918-2.7V7.713a2.88,2.88,0,0,0-2.877-2.877ZM8.672,58.538H6.754V47.03H4.648l3.065-4.9,3.065,4.9H8.672Zm32.6-55.62h7.672V4.836H41.276ZM32.646,6.754H57.579a.96.96,0,0,1,.959.959v3.462l-.046,0a7.7,7.7,0,0,1-7.65,7.091H39.335c-.07,0-.137-.01-.207-.012a2.373,2.373,0,0,0-1.244-1.243l-4.809-2a7.616,7.616,0,0,1-1.388-3.814V7.713a.96.96,0,0,1,.959-.959ZM25.933,18.261H14.425V14.425H25.933ZM12.508,24.015H10.59v-9.59h1.918Zm1.918-3.836H25.933v3.836H14.425ZM27.851,14.9,33.6,17.3v3.836l-5.754,2.4Zm7.672,3.2,1.622.676a.48.48,0,0,1,0,.886l-1.623.676ZM2.918,19.22a4.8,4.8,0,0,1,4.795-4.795h.959v9.59H7.713A4.8,4.8,0,0,1,2.918,19.22ZM33.6,29.769h1.918V58.538H33.6ZM52.784,54.7H37.441V52.784H52.784Zm0-3.836H37.441V47.03H52.784Zm0-5.754H37.441V43.194H52.784Zm0-3.836H37.441V37.441H52.784Zm0-5.754H37.441V33.6H52.784ZM37.441,56.62H52.784v1.918H37.441ZM52.784,31.687H37.441V29.769H52.784ZM18.073,35.523l3.065-4.9,3.065,4.9H22.1V58.538H20.179V35.523ZM54.7,58.538V29.769H56.62V58.538Zm2.877-30.687H32.646a.96.96,0,0,1-.959-.959V24.015l6.2-2.582a2.375,2.375,0,0,0,1.253-1.265c.066,0,.129.012.2.012H50.842a9.611,9.611,0,0,0,7.7-3.886v10.6a.96.96,0,0,1-.959.959Z" transform="translate(-1 -1)"/>
        <path id="Trazado_1178939" data-name="Trazado 1178939" d="M42.918,16.754H50.59a1.92,1.92,0,0,0,1.918-1.918V12.918A1.92,1.92,0,0,0,50.59,11H42.918A1.92,1.92,0,0,0,41,12.918v1.918A1.92,1.92,0,0,0,42.918,16.754Zm0-3.836H50.59v1.918H42.918Z" transform="translate(-2.641 -1.41)"/>
        <path id="Trazado_1178940" data-name="Trazado 1178940" d="M57,25h1.918v1.918H57Z" transform="translate(-3.298 -1.985)"/>
        <path id="Trazado_1178941" data-name="Trazado 1178941" d="M53,25h1.918v1.918H53Z" transform="translate(-3.134 -1.985)"/>
        <path id="Trazado_1178942" data-name="Trazado 1178942" d="M49,25h1.918v1.918H49Z" transform="translate(-2.97 -1.985)"/>
      </g>
    </g>
  </g>
</svg>
