<svg xmlns="http://www.w3.org/2000/svg" xmlns:xlink="http://www.w3.org/1999/xlink" width="113" height="113" viewBox="0 0 113 113">
  <defs>
    <filter id="Trazado_982547" x="0" y="0" width="113" height="113" filterUnits="userSpaceOnUse">
      <feOffset dy="3" input="SourceAlpha"/>
      <feGaussianBlur stdDeviation="3" result="blur"/>
      <feFlood flood-opacity="0.161"/>
      <feComposite operator="in" in2="blur"/>
      <feComposite in="SourceGraphic"/>
    </filter>
  </defs>
  <g id="Grupo_1223832" data-name="Grupo 1223832" transform="translate(-1769.49 -5761.547)">
    <g id="Grupo_1223748" data-name="Grupo 1223748" transform="translate(657 1912.837)">
      <g id="Grupo_1223177" data-name="Grupo 1223177" transform="translate(1121.49 3854.71)">
        <g id="Grupo_1211216" data-name="Grupo 1211216" transform="translate(0)">
          <g id="Grupo_1210737" data-name="Grupo 1210737">
            <g id="Grupo_1210537" data-name="Grupo 1210537">
              <g id="Grupo_1164202" data-name="Grupo 1164202">
                <g id="Grupo_1158168" data-name="Grupo 1158168">
                  <g id="Grupo_1152576" data-name="Grupo 1152576">
                    <g id="Grupo_1148633" data-name="Grupo 1148633">
                      <g id="Grupo_1148525" data-name="Grupo 1148525">
                        <g transform="matrix(1, 0, 0, 1, -9, -6)" filter="url(#Trazado_982547)">
                          <g id="Trazado_982547-2" data-name="Trazado 982547" transform="translate(9 6)" fill="#fcf5f0">
                            <path d="M 47.49999618530273 93.5 C 41.28936767578125 93.5 35.26533126831055 92.28396606445312 29.59518241882324 89.88570404052734 C 24.11771583557129 87.56893157958984 19.19812965393066 84.251953125 14.97308921813965 80.02690124511719 C 10.74803638458252 75.80186462402344 7.431062698364258 70.88227844238281 5.114289283752441 65.40480804443359 C 2.716022968292236 59.73466110229492 1.499996185302734 53.71062469482422 1.499996185302734 47.49999618530273 C 1.499996185302734 41.28936767578125 2.716022968292236 35.26533126831055 5.114289283752441 29.59518241882324 C 7.431062698364258 24.11771583557129 10.74803638458252 19.19812965393066 14.97308921813965 14.97308921813965 C 19.19812965393066 10.74803638458252 24.11771583557129 7.431062698364258 29.59518241882324 5.114289283752441 C 35.26533126831055 2.716022968292236 41.28936767578125 1.499996185302734 47.49999618530273 1.499996185302734 C 53.71062469482422 1.499996185302734 59.73466110229492 2.716022968292236 65.40480804443359 5.114289283752441 C 70.88227844238281 7.431062698364258 75.80186462402344 10.74803638458252 80.02690124511719 14.97308921813965 C 84.251953125 19.19812965393066 87.56893157958984 24.11771583557129 89.88570404052734 29.59518241882324 C 92.28396606445312 35.26533126831055 93.5 41.28936767578125 93.5 47.49999618530273 C 93.5 53.71062469482422 92.28396606445312 59.73466110229492 89.88570404052734 65.40480804443359 C 87.56893157958984 70.88227844238281 84.251953125 75.80186462402344 80.02690124511719 80.02690124511719 C 75.80186462402344 84.251953125 70.88227844238281 87.56893157958984 65.40480804443359 89.88570404052734 C 59.73466110229492 92.28396606445312 53.71062469482422 93.5 47.49999618530273 93.5 Z" stroke="none"/>
                            <path d="M 47.49999618530273 2.999992370605469 C 41.4912109375 2.999992370605469 35.66376495361328 4.1761474609375 30.17950439453125 6.495796203613281 C 24.88084411621094 8.736953735351562 20.12152099609375 11.94598388671875 16.03375244140625 16.03375244140625 C 11.94598388671875 20.12152099609375 8.736953735351562 24.88084411621094 6.495796203613281 30.17950439453125 C 4.1761474609375 35.66376495361328 2.999992370605469 41.4912109375 2.999992370605469 47.49999618530273 C 2.999992370605469 53.50878143310547 4.1761474609375 59.33622741699219 6.495796203613281 64.82048797607422 C 8.736953735351562 70.11914825439453 11.94598388671875 74.87847137451172 16.03375244140625 78.96623992919922 C 20.12152099609375 83.05400848388672 24.88084411621094 86.26304626464844 30.17950439453125 88.50419616699219 C 35.66376495361328 90.82384490966797 41.4912109375 92 47.49999618530273 92 C 53.50878143310547 92 59.33622741699219 90.82384490966797 64.82048797607422 88.50419616699219 C 70.11914825439453 86.26304626464844 74.87847137451172 83.05400848388672 78.96623992919922 78.96623992919922 C 83.05400848388672 74.87847137451172 86.26304626464844 70.11914825439453 88.50419616699219 64.82048797607422 C 90.82384490966797 59.33622741699219 92 53.50878143310547 92 47.49999618530273 C 92 41.4912109375 90.82384490966797 35.66376495361328 88.50419616699219 30.17950439453125 C 86.26304626464844 24.88084411621094 83.05400848388672 20.12152099609375 78.96623992919922 16.03375244140625 C 74.87847137451172 11.94598388671875 70.11914825439453 8.736953735351562 64.82048797607422 6.495796203613281 C 59.33622741699219 4.1761474609375 53.50878143310547 2.999992370605469 47.49999618530273 2.999992370605469 M 47.49999618530273 -7.62939453125e-06 C 73.7335205078125 -7.62939453125e-06 95 21.26647186279297 95 47.49999618530273 C 95 73.7335205078125 73.7335205078125 95 47.49999618530273 95 C 21.26647186279297 95 -7.62939453125e-06 73.7335205078125 -7.62939453125e-06 47.49999618530273 C -7.62939453125e-06 21.26647186279297 21.26647186279297 -7.62939453125e-06 47.49999618530273 -7.62939453125e-06 Z" stroke="none" fill="#eca675"/>
                          </g>
                        </g>
                      </g>
                    </g>
                  </g>
                </g>
              </g>
            </g>
          </g>
        </g>
      </g>
    </g>
    <g id="Layer_x0020_1" transform="translate(1797.191 5783.759)">
      <path id="Trazado_1179088" data-name="Trazado 1179088" d="M22.305,56.552v-2.78a1,1,0,1,1,1.99,0v2.78h3.981V52.88a5.521,5.521,0,0,0-5.525-5.525h-1.2l-2.985,3.878a.98.98,0,0,1-1.579.034l-1.853-2.3-1.819,2.3a1.015,1.015,0,0,1-1.613-.034L8.75,47.355H7.515a5.514,5.514,0,0,0-5.49,5.525v3.672H5.971v-2.78a1.012,1.012,0,0,1,2.025,0v2.78Zm13.829,2.025a1,1,0,0,1-1-1.167l1.132-8.51-5.937-6.211a1,1,0,0,1,.549-1.681l8.476-1.544,3.946-7.344v-5.7H39.634a1,1,0,0,1-1.029-1V21.379H31.055a1,1,0,0,1-1-1V8.75a1,1,0,0,1,1-1H57.547a1,1,0,0,1,1.029,1V20.383a1,1,0,0,1-1.029,1H50v4.049a1,1,0,0,1-1,1H45.331v5.7l3.946,7.344,8.476,1.544a1,1,0,0,1,.549,1.681L52.331,48.9,53.5,57.41a1.026,1.026,0,0,1-1.441,1.064L44.3,54.733l-7.755,3.74A.914.914,0,0,1,36.134,58.576ZM33.08,42.654l5.01,5.216a.894.894,0,0,1,.24.824l-.961,7.138,6.52-3.123a.945.945,0,0,1,.858,0l6.486,3.123-.961-7.138a1.013,1.013,0,0,1,.275-.824l4.976-5.216-7.069-1.3a.941.941,0,0,1-.721-.515L44.3,34.487l-3.4,6.348a1,1,0,0,1-.721.515ZM44.3,50a3.706,3.706,0,1,1,3.706-3.706A3.713,3.713,0,0,1,44.3,50Zm0-5.388a1.7,1.7,0,0,0,0,3.4A1.7,1.7,0,0,0,44.3,44.61ZM40.629,24.4h7.378v-3.02H40.629Zm-8.545-5.01H56.552V15.579H32.085Zm0-5.834H56.552V9.78H32.085ZM13.006,26.045a12.768,12.768,0,0,1-5.7-1.338,10.473,10.473,0,0,0-.446,4.427c1.956-2.093,3.432-1.956,6.692.069,1.2.721,7-1.338,9.951.343,1-1.784-.069-2.368-.1-4.976-.034-.652-.034-1.064-2.4-1.27A12.952,12.952,0,0,1,13.006,26.045ZM5.559,23.678A13.016,13.016,0,1,1,22.854,21.55c3.054.721,2.231,2.4,2.848,4.941a4.848,4.848,0,0,1-.824,4.633c1.132,3.226-1.784,7.412-2.642,8.339A8.909,8.909,0,0,1,20.28,41.11v1.922l1.338,2.3h1.132A7.572,7.572,0,0,1,30.3,52.88v4.667a1.011,1.011,0,0,1-1.029,1.029H1a1,1,0,0,1-1-1.029V52.88a7.542,7.542,0,0,1,7.515-7.549H8.647l1.373-2.3V41.11a8.976,8.976,0,0,1-3.534-4.186c-.618-1.3-1.51-3.672-1.064-5.628C4.53,29.717,4.564,26.286,5.559,23.678ZM13.006,2.025A11,11,0,1,0,24.021,13.04,11.021,11.021,0,0,0,13.006,2.025ZM10.741,18.119a.988.988,0,0,1-.721-.309l-3.6-3.6A1.007,1.007,0,0,1,7.858,12.8l2.882,2.882,7.446-7.446c.927-.927,2.368.48,1.441,1.407L11.461,17.81A.988.988,0,0,1,10.741,18.119Zm3.054,29.305-2.574-2.505-.789,1.338L12.525,49ZM12.01,42.105v.755l3.123,3.054,3.123-3.054v-.789A9.5,9.5,0,0,1,12.01,42.105Zm7.035,2.814-2.539,2.505L17.775,49l2.059-2.745ZM22.888,31.6c-1.887-1.922-8.064.721-10.4-.686-2.985-1.853-3.226-1.75-5.044.652-.343,1-.034,2.642.858,4.5A6.937,6.937,0,0,0,11.427,39.6a7.581,7.581,0,0,0,9.334-1.476C21.722,37.061,23.781,33.492,22.888,31.6Z" transform="translate(0)" fill-rule="evenodd"/>
      <path id="Trazado_1179089" data-name="Trazado 1179089" d="M67.716,72.658l7.446-7.446c.927-.927,2.368.48,1.441,1.407l-8.167,8.167a1,1,0,0,1-1.441,0l-3.6-3.6a1.007,1.007,0,0,1,1.441-1.407ZM69.981,81A11,11,0,1,0,59,70.015,11.021,11.021,0,0,0,69.981,81Z" transform="translate(-56.975 -56.975)" fill="#1aa1ff" fill-rule="evenodd"/>
      <path id="Trazado_1179090" data-name="Trazado 1179090" d="M212.225,679a12.952,12.952,0,0,1-8,2.745,12.768,12.768,0,0,1-5.7-1.338,10.473,10.473,0,0,0-.446,4.427c1.956-2.093,3.432-1.956,6.691.069,1.2.721,7-1.338,9.951.343,1-1.784-.069-2.368-.1-4.976C214.593,679.618,214.593,679.206,212.225,679Z" transform="translate(-191.224 -655.7)" fill="#c06000" fill-rule="evenodd"/>
      <path id="Trazado_1179091" data-name="Trazado 1179091" d="M228.594,865.6c-1.887-1.922-8.064.721-10.4-.686-2.985-1.853-3.226-1.75-5.044.652-.343,1-.034,2.642.858,4.5a6.937,6.937,0,0,0,3.123,3.535,7.581,7.581,0,0,0,9.334-1.476C227.427,871.058,229.486,867.489,228.594,865.6Z" transform="translate(-205.706 -833.997)" fill="#ffe4af" fill-rule="evenodd"/>
      <path id="Trazado_1179092" data-name="Trazado 1179092" d="M356.245,1226a9.505,9.505,0,0,1-6.245.034v.755l3.123,3.054,3.123-3.054Z" transform="translate(-337.99 -1183.929)" fill="#ffc06d" fill-rule="evenodd"/>
      <g id="Grupo_1223836" data-name="Grupo 1223836" transform="translate(2.025 44.919)">
        <path id="Trazado_1179093" data-name="Trazado 1179093" d="M307.363,1311.5l-2.574-2.5-.789,1.338,2.093,2.745Z" transform="translate(-295.593 -1309)" fill="#1aa1ff" fill-rule="evenodd"/>
        <path id="Trazado_1179094" data-name="Trazado 1179094" d="M483.539,1309,481,1311.5l1.27,1.579,2.059-2.745Z" transform="translate(-466.519 -1309)" fill="#1aa1ff" fill-rule="evenodd"/>
        <path id="Trazado_1179095" data-name="Trazado 1179095" d="M78.525,1380l-2.985,3.878a.98.98,0,0,1-1.579.034l-1.853-2.3-1.819,2.3a1.015,1.015,0,0,1-1.613-.034L65.726,1380H64.49a5.514,5.514,0,0,0-5.49,5.525v3.672h3.946v-2.78a1.012,1.012,0,0,1,2.025,0v2.78H79.28v-2.78a1,1,0,1,1,1.99,0v2.78h3.981v-3.672A5.521,5.521,0,0,0,79.727,1380Z" transform="translate(-59 -1377.564)" fill="#1aa1ff" fill-rule="evenodd"/>
      </g>
      <path id="Trazado_1179096" data-name="Trazado 1179096" d="M1243.923,1300a1.7,1.7,0,0,0,0,3.4A1.7,1.7,0,0,0,1243.923,1300Z" transform="translate(-1199.622 -1255.39)" fill="#e4e4e4" fill-rule="evenodd"/>
      <path id="Trazado_1179097" data-name="Trazado 1179097" d="M971.515,1016.8a3.706,3.706,0,0,1,7.412,0,3.706,3.706,0,1,1-7.412,0ZM964,1013.167l5.01,5.216a.894.894,0,0,1,.24.823l-.961,7.138,6.52-3.123a.945.945,0,0,1,.858,0l6.486,3.123-.961-7.138a1.013,1.013,0,0,1,.275-.823l4.976-5.216-7.069-1.3a.941.941,0,0,1-.721-.515L975.221,1005l-3.4,6.348a1,1,0,0,1-.721.515Z" transform="translate(-930.92 -970.513)" fill="#ffa721" fill-rule="evenodd"/>
      <path id="Trazado_1179098" data-name="Trazado 1179098" d="M1184,626.02h7.378V623H1184Z" transform="translate(-1143.37 -601.622)" fill="#ff3131" fill-rule="evenodd"/>
      <path id="Trazado_1179099" data-name="Trazado 1179099" d="M935,457.809h24.467V454H935Z" transform="translate(-902.915 -438.421)" fill="#ff3131" fill-rule="evenodd"/>
      <path id="Trazado_1179100" data-name="Trazado 1179100" d="M935,288.775h24.467V285H935Z" transform="translate(-902.915 -275.22)" fill="#ff3131" fill-rule="evenodd"/>
    </g>
  </g>
</svg>
