<svg xmlns="http://www.w3.org/2000/svg" xmlns:xlink="http://www.w3.org/1999/xlink" width="113" height="113" viewBox="0 0 113 113">
  <defs>
    <filter id="Trazado_982547" x="0" y="0" width="113" height="113" filterUnits="userSpaceOnUse">
      <feOffset dy="3" input="SourceAlpha"/>
      <feGaussianBlur stdDeviation="3" result="blur"/>
      <feFlood flood-opacity="0.161"/>
      <feComposite operator="in" in2="blur"/>
      <feComposite in="SourceGraphic"/>
    </filter>
  </defs>
  <g id="Grupo_1223343" data-name="Grupo 1223343" transform="translate(-1722.49 -5331.026)">
    <g id="Grupo_1223124" data-name="Grupo 1223124" transform="translate(1731.49 5337.026)">
      <g id="Grupo_1211216" data-name="Grupo 1211216" transform="translate(0)">
        <g id="Grupo_1210737" data-name="Grupo 1210737">
          <g id="Grupo_1210537" data-name="Grupo 1210537">
            <g id="Grupo_1164202" data-name="Grupo 1164202">
              <g id="Grupo_1158168" data-name="Grupo 1158168">
                <g id="Grupo_1152576" data-name="Grupo 1152576">
                  <g id="Grupo_1148633" data-name="Grupo 1148633">
                    <g id="Grupo_1148525" data-name="Grupo 1148525">
                      <g transform="matrix(1, 0, 0, 1, -9, -6)" filter="url(#Trazado_982547)">
                        <g id="Trazado_982547-2" data-name="Trazado 982547" transform="translate(9 6)" fill="#fcf5f0">
                          <path d="M 47.49999618530273 93.5 C 41.28936767578125 93.5 35.26533126831055 92.28396606445312 29.59518241882324 89.88570404052734 C 24.11771583557129 87.56893157958984 19.19812965393066 84.251953125 14.97308921813965 80.02690124511719 C 10.74803638458252 75.80186462402344 7.431062698364258 70.88227844238281 5.114289283752441 65.40480804443359 C 2.716022968292236 59.73466110229492 1.499996185302734 53.71062469482422 1.499996185302734 47.49999618530273 C 1.499996185302734 41.28936767578125 2.716022968292236 35.26533126831055 5.114289283752441 29.59518241882324 C 7.431062698364258 24.11771583557129 10.74803638458252 19.19812965393066 14.97308921813965 14.97308921813965 C 19.19812965393066 10.74803638458252 24.11771583557129 7.431062698364258 29.59518241882324 5.114289283752441 C 35.26533126831055 2.716022968292236 41.28936767578125 1.499996185302734 47.49999618530273 1.499996185302734 C 53.71062469482422 1.499996185302734 59.73466110229492 2.716022968292236 65.40480804443359 5.114289283752441 C 70.88227844238281 7.431062698364258 75.80186462402344 10.74803638458252 80.02690124511719 14.97308921813965 C 84.251953125 19.19812965393066 87.56893157958984 24.11771583557129 89.88570404052734 29.59518241882324 C 92.28396606445312 35.26533126831055 93.5 41.28936767578125 93.5 47.49999618530273 C 93.5 53.71062469482422 92.28396606445312 59.73466110229492 89.88570404052734 65.40480804443359 C 87.56893157958984 70.88227844238281 84.251953125 75.80186462402344 80.02690124511719 80.02690124511719 C 75.80186462402344 84.251953125 70.88227844238281 87.56893157958984 65.40480804443359 89.88570404052734 C 59.73466110229492 92.28396606445312 53.71062469482422 93.5 47.49999618530273 93.5 Z" stroke="none"/>
                          <path d="M 47.49999618530273 2.999992370605469 C 41.4912109375 2.999992370605469 35.66376495361328 4.1761474609375 30.17950439453125 6.495796203613281 C 24.88084411621094 8.736953735351562 20.12152099609375 11.94598388671875 16.03375244140625 16.03375244140625 C 11.94598388671875 20.12152099609375 8.736953735351562 24.88084411621094 6.495796203613281 30.17950439453125 C 4.1761474609375 35.66376495361328 2.999992370605469 41.4912109375 2.999992370605469 47.49999618530273 C 2.999992370605469 53.50878143310547 4.1761474609375 59.33622741699219 6.495796203613281 64.82048797607422 C 8.736953735351562 70.11914825439453 11.94598388671875 74.87847137451172 16.03375244140625 78.96623992919922 C 20.12152099609375 83.05400848388672 24.88084411621094 86.26304626464844 30.17950439453125 88.50419616699219 C 35.66376495361328 90.82384490966797 41.4912109375 92 47.49999618530273 92 C 53.50878143310547 92 59.33622741699219 90.82384490966797 64.82048797607422 88.50419616699219 C 70.11914825439453 86.26304626464844 74.87847137451172 83.05400848388672 78.96623992919922 78.96623992919922 C 83.05400848388672 74.87847137451172 86.26304626464844 70.11914825439453 88.50419616699219 64.82048797607422 C 90.82384490966797 59.33622741699219 92 53.50878143310547 92 47.49999618530273 C 92 41.4912109375 90.82384490966797 35.66376495361328 88.50419616699219 30.17950439453125 C 86.26304626464844 24.88084411621094 83.05400848388672 20.12152099609375 78.96623992919922 16.03375244140625 C 74.87847137451172 11.94598388671875 70.11914825439453 8.736953735351562 64.82048797607422 6.495796203613281 C 59.33622741699219 4.1761474609375 53.50878143310547 2.999992370605469 47.49999618530273 2.999992370605469 M 47.49999618530273 -7.62939453125e-06 C 73.7335205078125 -7.62939453125e-06 95 21.26647186279297 95 47.49999618530273 C 95 73.7335205078125 73.7335205078125 95 47.49999618530273 95 C 21.26647186279297 95 -7.62939453125e-06 73.7335205078125 -7.62939453125e-06 47.49999618530273 C -7.62939453125e-06 21.26647186279297 21.26647186279297 -7.62939453125e-06 47.49999618530273 -7.62939453125e-06 Z" stroke="none" fill="#eca675"/>
                        </g>
                      </g>
                    </g>
                  </g>
                </g>
              </g>
            </g>
          </g>
        </g>
      </g>
    </g>
    <g id="multicultural_17773107" transform="translate(1718.956 5310.662)">
      <g id="Grupo_1223342" data-name="Grupo 1223342" transform="translate(23.947 46.59)">
        <path id="Trazado_1177321" data-name="Trazado 1177321" d="M128.407,52.61A25.559,25.559,0,1,1,102.85,78.171,25.563,25.563,0,0,1,128.407,52.61Z" transform="translate(-92.472 -52.61)" fill="#bad2d6" fill-rule="evenodd"/>
        <path id="Trazado_1177322" data-name="Trazado 1177322" d="M162.585,52.61A25.558,25.558,0,0,1,178.33,98.3a25.562,25.562,0,0,1-25.814-43.632A25.52,25.52,0,0,1,162.585,52.61Z" transform="translate(-126.651 -52.61)" fill="#e3f3f4" fill-rule="evenodd"/>
        <path id="Trazado_1177323" data-name="Trazado 1177323" d="M209.706,52.61a25.49,25.49,0,0,1,18.675,8.112q-7.335,1.768-13.531,3.47a12.961,12.961,0,0,1-5.209.589,2.726,2.726,0,0,1-2.355-2.707,2.6,2.6,0,0,0-2.271-2.768q-6.511.06-7.375-3.672A25.457,25.457,0,0,1,209.706,52.61Z" transform="translate(-173.771 -52.61)" fill="#3d9f93" fill-rule="evenodd"/>
        <path id="Trazado_1177324" data-name="Trazado 1177324" d="M266.535,81.29a25.287,25.287,0,0,1,2.595,2.421q-7.335,1.768-13.531,3.47a12.961,12.961,0,0,1-5.209.589,2.726,2.726,0,0,1-2.355-2.707,2.6,2.6,0,0,0-2.271-2.768c-.209,0-.416,0-.613,0A25.733,25.733,0,0,1,251.508,80,25.457,25.457,0,0,1,266.535,81.29Z" transform="translate(-214.52 -75.598)" fill="#4bbbab" fill-rule="evenodd"/>
        <path id="Trazado_1177325" data-name="Trazado 1177325" d="M230.8,96.57l-4.748,3.554c-6.527-.915-13.225,1.832-14.733,5.9a1.46,1.46,0,0,0,1.706,1.933c1.823-.431,4.495-4.268,6.507-2.316l-11.147,10.9c-3.712,3.3-.69,6.979,2.61,3.591l-2.247,2.6c-2.595,3.3.436,5.612,3.474,2.929l2.252-2.6c-2.331,2.872.233,5.011,2.9,2.8l2.865-2.865c-1.574,2.481.871,3.6,3.142,1.255l9.372-9.8q1.435-1.349,2.03-5.007l4.5-3.643Z" transform="translate(-181.522 -90.314)" fill="#fcccb1" fill-rule="evenodd"/>
        <path id="Trazado_1177326" data-name="Trazado 1177326" d="M260.591,98.78l-4.688,3.505c-6.527-.912-13.22,1.836-14.733,5.9a1.137,1.137,0,0,0,1.356,1.662,2.821,2.821,0,0,0,.682-.282c2.2-3.45,8.257-5.636,14.185-4.8l5.084-3.934Z" transform="translate(-211.024 -92.209)" fill="#eab295" fill-rule="evenodd"/>
        <path id="Trazado_1177327" data-name="Trazado 1177327" d="M143.933,213.218l5.124-4.277c5.361,2.146,12.325-1.594,14.927-5.506.646-.972-.569-2.2-1.706-1.933-1.827.431-4.495,4.268-6.511,2.316l11.147-10.9c3.712-3.3.69-6.979-2.61-3.591l2.247-2.6c2.595-3.3-.436-5.612-3.474-2.929l-2.252,2.6c2.331-2.872-.233-5.011-2.892-2.8l-2.868,2.865c1.574-2.476-.871-3.6-3.142-1.255l-9.372,9.8q-1.435,1.349-2.03,5.007l-5.41,4.381Z" transform="translate(-120.141 -164.117)" fill="#fdcc9a" fill-rule="evenodd"/>
        <path id="Trazado_1177328" data-name="Trazado 1177328" d="M137.881,217.066l5.163-4.152q.593-3.655,2.029-5l9.792-10.2c2-2.872-.451-3.994-2.723-1.65l-9.368,9.8a3.281,3.281,0,0,0-.258.266,10.941,10.941,0,0,0-1.456,4.325l-.286.233c-.009.061-.02.117-.028.182l-5.007,4.05Z" transform="translate(-120.681 -174.562)" fill="#f5b381" fill-rule="evenodd"/>
        <path id="Trazado_1177329" data-name="Trazado 1177329" d="M97.674,333.895l2.885-2.881a1.271,1.271,0,0,1,1.792,0l9.284,9.286a1.264,1.264,0,0,1,0,1.792l-2.881,2.881a1.271,1.271,0,0,1-1.792,0l-9.288-9.288A1.27,1.27,0,0,1,97.674,333.895Z" transform="translate(-87.716 -291.075)" fill="#157d7e" fill-rule="evenodd"/>
        <path id="Trazado_1177330" data-name="Trazado 1177330" d="M122.233,350.746l6.588,6.592a1.264,1.264,0,0,1,0,1.792l-2.881,2.881a1.27,1.27,0,0,1-1.638.129l-6.588-6.588a1.271,1.271,0,0,1,0-1.792l2.881-2.881A1.276,1.276,0,0,1,122.233,350.746Z" transform="translate(-104.904 -308.112)" fill="#00989f" fill-rule="evenodd"/>
        <path id="Trazado_1177331" data-name="Trazado 1177331" d="M371.813,62.735l3-2.755a1.269,1.269,0,0,1,1.792.077l8.884,9.671a1.267,1.267,0,0,1-.073,1.788l-3,2.76a1.272,1.272,0,0,1-1.792-.077l-8.884-9.671A1.274,1.274,0,0,1,371.813,62.735Z" transform="translate(-322.807 -58.644)" fill="#4185b0" fill-rule="evenodd"/>
        <path id="Trazado_1177332" data-name="Trazado 1177332" d="M396.653,80.947l6.386,6.955a1.267,1.267,0,0,1-.073,1.788l-3,2.76a1.275,1.275,0,0,1-1.376.222L392.2,85.72a1.276,1.276,0,0,1,.077-1.792l3-2.76A1.281,1.281,0,0,1,396.653,80.947Z" transform="translate(-340.357 -76.821)" fill="#41ade2" fill-rule="evenodd"/>
        <path id="Trazado_1177333" data-name="Trazado 1177333" d="M73.17,138.95H89.3v7.71c0,2.812-16.125,2.812-16.125,0Z" transform="translate(-67.016 -126.662)" fill="#157d7e" fill-rule="evenodd"/>
        <path id="Trazado_1177334" data-name="Trazado 1177334" d="M86.061,138.95h14.289v7.71c0,.011,0,.024,0,.04-4.228,1.287-14.286.818-14.286-1.4V138.95Z" transform="translate(-78.072 -126.662)" fill="#00989f" fill-rule="evenodd"/>
        <path id="Trazado_1177335" data-name="Trazado 1177335" d="M51.57,104.357,62.7,99.35l11.14,5.007-11.14,5Z" transform="translate(-48.49 -92.698)" fill="#157d7e" fill-rule="evenodd"/>
        <path id="Trazado_1177336" data-name="Trazado 1177336" d="M87.153,109.02l8.081,3.631-10.643,4.781L76.51,113.8Z" transform="translate(-69.881 -100.992)" fill="#00989f" fill-rule="evenodd"/>
        <path id="Trazado_1177337" data-name="Trazado 1177337" d="M31.974,158.57l1.235,3.477c.206.581-.189,1.207-.714,1.13l-1.961-.29a.856.856,0,0,1-.464-1.3Z" transform="translate(-29.932 -143.49)" fill="#ffc908" fill-rule="evenodd"/>
        <path id="Trazado_1177338" data-name="Trazado 1177338" d="M325.451,382.5l-2.041-12.6a21.453,21.453,0,0,1,11.138,0v14.713A18.471,18.471,0,0,0,325.451,382.5Z" transform="translate(-281.642 -324.119)" fill="#ffecca" fill-rule="evenodd"/>
        <path id="Trazado_1177339" data-name="Trazado 1177339" d="M410.777,382.5l2.041-12.6a21.453,21.453,0,0,0-11.138,0v14.713A18.471,18.471,0,0,1,410.777,382.5Z" transform="translate(-348.772 -324.119)" fill="#ffecca" fill-rule="evenodd"/>
        <path id="Trazado_1177340" data-name="Trazado 1177340" d="M325.739,388.325,323.67,375.96a30.787,30.787,0,0,1,4.136,3.373,25.65,25.65,0,0,1,6.967,10.937A19.561,19.561,0,0,0,325.739,388.325Z" transform="translate(-281.865 -329.94)" fill="#ffddaf" fill-rule="evenodd"/>
        <path id="Trazado_1177341" data-name="Trazado 1177341" d="M410.769,386.884l2.041-12.6-.029-.009a29.666,29.666,0,0,0-4.349,3.611,25.742,25.742,0,0,0-6.762,10.957V389A18.48,18.48,0,0,1,410.769,386.884Z" transform="translate(-348.764 -328.499)" fill="#ffddaf" fill-rule="evenodd"/>
      </g>
      <path id="Trazado_1177342" data-name="Trazado 1177342" d="M77.374,107.939a.989.989,0,0,1-1.069-.011,17.543,17.543,0,0,0-8.524-1.96,1,1,0,0,1-1-.84l-1.141-7.052a26.619,26.619,0,0,1-16.415-1.6,2.265,2.265,0,0,1-.649,1.836L45.691,101.2a2.269,2.269,0,0,1-3.2,0L33.2,91.909a2.262,2.262,0,0,1,0-3.2l2.881-2.885a2.3,2.3,0,0,1,.746-.492,26.545,26.545,0,0,1-3.353-15.988C30.94,68.9,29.1,68,29.1,66.589V60.271l-1.445-.649-.6,2.074,1.106,3.123a1.78,1.78,0,0,1-1.795,2.445l-1.961-.29a1.842,1.842,0,0,1-1.158-2.817l1.9-3.01.944-3.232a.991.991,0,0,1,.537-.576l11.131-5a1.011,1.011,0,0,1,.811,0l2.469,1.11a26.547,26.547,0,0,1,32.118-4.3l2.1-1.928a2.273,2.273,0,0,1,3.2.077h0c.024.024.048.053.068.077L87.365,57a2.27,2.27,0,0,1-.137,3.2l-2.573,2.364a26.566,26.566,0,0,1-6.043,28.417,22.45,22.45,0,0,1,9.642.444v0a.99.99,0,0,1,.722,1.113l-2.041,12.591a1,1,0,0,1-1,.84,17.546,17.546,0,0,0-8.556,1.971Zm7.734-3.962,1.759-10.848a20.42,20.42,0,0,0-9.016.028v12.361a19.441,19.441,0,0,1,7.257-1.541Zm-9.251,1.541V93.157a20.408,20.408,0,0,0-9.013-.028L68.6,103.977a19.425,19.425,0,0,1,7.258,1.541ZM65.317,96.11l-.581-3.574a.988.988,0,0,1,.726-1.113l0,0a22.394,22.394,0,0,1,10.106-.359,24.579,24.579,0,0,0,7.331-27.526,2.244,2.244,0,0,1-1.161-.206l-3.615,2.929a15.039,15.039,0,0,1-.8,2.916,6.3,6.3,0,0,1-1.449,2.259l-3.591,3.756a7.464,7.464,0,0,1-.9.944l-9.63,9.42c1.307-.666,2.707-2.215,4.107-2.546,1.973-.464,3.934,1.687,2.76,3.45a16.113,16.113,0,0,1-7.584,5.676,12.166,12.166,0,0,1-7.967.407l-2.7,2.259A24.66,24.66,0,0,0,65.317,96.11ZM26.2,65.224l-.46-1.291-.706,1.122Zm11.619-8.314a.993.993,0,0,1,.06,1.985L31.35,59.1l6.81,3.059,8.719-3.914L38.16,54.33l-6.148,2.764Zm5.172-2.59L49.7,57.341a.992.992,0,0,1,0,1.812L47.223,60.27v6.318c0,1.642-2.485,2.6-5.66,2.933a33.567,33.567,0,0,1-6.111.064,24.583,24.583,0,0,0,3.727,15.791l4.233-3.426a15.123,15.123,0,0,1,.8-2.916,6.362,6.362,0,0,1,1.449-2.259l9.359-9.787a5.907,5.907,0,0,1,1.5-1.141l3.259-3.191c-1.795.915-3.461,3.224-5.524,2.456a2.452,2.452,0,0,1-1.445-3.16A8.963,8.963,0,0,1,56.8,57.578c-.576-1.291-.081-2-.686-2.731a1.821,1.821,0,0,0-1.025-.569,12.168,12.168,0,0,1-5.438-.988,5.067,5.067,0,0,1-2.36-2.234,24.557,24.557,0,0,0-4.3,3.263Zm2.243,6.846-6.661,2.993a.994.994,0,0,1-.811,0L31.1,61.165v5.422c0,.427,2.054.759,3.868.956a32.652,32.652,0,0,0,6.395,0c2.17-.231,3.868-.574,3.868-.956V61.165Zm35.025.8L73.1,54.177l-2.452,1.836c.178.1.352.2.521.31a.993.993,0,0,1-1.082,1.667,6.2,6.2,0,0,0-.75-.416c-.182-.085-.367-.161-.561-.231a1,1,0,0,1-.436.037v0a17.324,17.324,0,0,0-8.7,1c-2.17.867-4.244,2.316-4.966,4.257a.467.467,0,0,0,.552.618,6.641,6.641,0,0,0,1.743-1.1c1.735-1.311,3.631-2.747,5.506-1.117a16.674,16.674,0,0,0,3.429.8,8.769,8.769,0,0,0,2.885-.112.992.992,0,0,1,.436,1.936,13.5,13.5,0,0,1-7.008-.622L59.45,65.756a1.949,1.949,0,0,1,.593.6l.988-.988,0,0c.02-.02.04-.04.064-.061,1.529-1.271,3.474-1.59,4.675-.431a2.456,2.456,0,0,1,.473.629c3.877-3.4,8.016-.077,5.1,4.026a2.63,2.63,0,0,1,1.913,1.755L74.491,70a4.424,4.424,0,0,0,.985-1.574,12.5,12.5,0,0,0,.666-2.417,4.373,4.373,0,0,0-.46-1.089,4.473,4.473,0,0,0-.871-1.057.992.992,0,1,1,1.315-1.486,6.288,6.288,0,0,1,1.412,1.792Zm-8.448-9.3a2.283,2.283,0,0,1-.037-2.021A24.63,24.63,0,0,0,49.037,50.1a3.2,3.2,0,0,0,1.5,1.408,10.357,10.357,0,0,0,4.611.787.993.993,0,0,1,.242.02,3.579,3.579,0,0,1,3.066,3.736,1.794,1.794,0,0,0,.112.629A19.581,19.581,0,0,1,68.2,55.364Zm4.822-4.011-2.957,2.72-.011.011a.277.277,0,0,0-.048.411l8.884,9.671a.279.279,0,0,0,.387.02l3-2.76a.273.273,0,0,0,.016-.383l-8.844-9.629L77.04,48.7h0A.282.282,0,0,0,76.628,48.655ZM40.4,86.941l7.4,7.4,4.422-3.7a1,1,0,0,1,1.045-.145,9.991,9.991,0,0,0,7.076-.238,14.049,14.049,0,0,0,6.612-4.906c.081-.121-.31-.5-.649-.416a6.556,6.556,0,0,0-1.746,1.1c-1.788,1.355-3.744,2.836-5.68.961a.994.994,0,0,1-.02-1.408l11.07-10.828.855-.9c.69-.8.968-2.215.1-2.4-.545-.121-1.218.185-2.089,1.04l-6.443,6.419a.994.994,0,1,1-1.4-1.408l6.43-6.4L69.6,68.563c.73-.891,1.183-2.287.13-2.456a2.819,2.819,0,0,0-2.135.864l-2.207,2.549c-.011.013-.02.024-.028.033L59.678,76.3a.991.991,0,1,1-1.517-1.275l5.676-6.753a2.249,2.249,0,0,0,.7-1.7c-.154-.75-1.436-.383-2.1.209l-2.861,2.861c-.011.009-.02.02-.033.028l-4.906,5.418a.99.99,0,1,1-1.469-1.328l4.893-5.41a1.413,1.413,0,0,0,.3-.932c-.2-.13-.677.068-.919.174a4,4,0,0,0-1,.77l-9.372,9.8a4.308,4.308,0,0,0-1.02,1.614,11.7,11.7,0,0,0-.574,1.924,11.773,11.773,0,0,0,.411,4.18.994.994,0,1,1-1.928.481,18.363,18.363,0,0,1-.4-1.988Zm-2.909.29-2.881,2.885a.271.271,0,0,0,0,.383L43.9,99.782a.266.266,0,0,0,.379,0L47.161,96.9a.271.271,0,0,0,0-.383l-9.286-9.287A.278.278,0,0,0,37.491,87.231Z" transform="translate(0 0)"/>
    </g>
  </g>
</svg>
