<svg xmlns="http://www.w3.org/2000/svg" xmlns:xlink="http://www.w3.org/1999/xlink" width="113" height="113" viewBox="0 0 113 113">
  <defs>
    <filter id="Trazado_982547" x="0" y="0" width="113" height="113" filterUnits="userSpaceOnUse">
      <feOffset dy="3" input="SourceAlpha"/>
      <feGaussianBlur stdDeviation="3" result="blur"/>
      <feFlood flood-opacity="0.161"/>
      <feComposite operator="in" in2="blur"/>
      <feComposite in="SourceGraphic"/>
    </filter>
  </defs>
  <g id="Grupo_1223383" data-name="Grupo 1223383" transform="translate(-1722.49 -5755.026)">
    <g id="Grupo_1223126" data-name="Grupo 1223126" transform="translate(1731.49 5761.026)">
      <g id="Grupo_1211216" data-name="Grupo 1211216" transform="translate(0)">
        <g id="Grupo_1210737" data-name="Grupo 1210737">
          <g id="Grupo_1210537" data-name="Grupo 1210537">
            <g id="Grupo_1164202" data-name="Grupo 1164202">
              <g id="Grupo_1158168" data-name="Grupo 1158168">
                <g id="Grupo_1152576" data-name="Grupo 1152576">
                  <g id="Grupo_1148633" data-name="Grupo 1148633">
                    <g id="Grupo_1148525" data-name="Grupo 1148525">
                      <g transform="matrix(1, 0, 0, 1, -9, -6)" filter="url(#Trazado_982547)">
                        <g id="Trazado_982547-2" data-name="Trazado 982547" transform="translate(9 6)" fill="#fcf5f0">
                          <path d="M 47.49999618530273 93.5 C 41.28936767578125 93.5 35.26533126831055 92.28396606445312 29.59518241882324 89.88570404052734 C 24.11771583557129 87.56893157958984 19.19812965393066 84.251953125 14.97308921813965 80.02690124511719 C 10.74803638458252 75.80186462402344 7.431062698364258 70.88227844238281 5.114289283752441 65.40480804443359 C 2.716022968292236 59.73466110229492 1.499996185302734 53.71062469482422 1.499996185302734 47.49999618530273 C 1.499996185302734 41.28936767578125 2.716022968292236 35.26533126831055 5.114289283752441 29.59518241882324 C 7.431062698364258 24.11771583557129 10.74803638458252 19.19812965393066 14.97308921813965 14.97308921813965 C 19.19812965393066 10.74803638458252 24.11771583557129 7.431062698364258 29.59518241882324 5.114289283752441 C 35.26533126831055 2.716022968292236 41.28936767578125 1.499996185302734 47.49999618530273 1.499996185302734 C 53.71062469482422 1.499996185302734 59.73466110229492 2.716022968292236 65.40480804443359 5.114289283752441 C 70.88227844238281 7.431062698364258 75.80186462402344 10.74803638458252 80.02690124511719 14.97308921813965 C 84.251953125 19.19812965393066 87.56893157958984 24.11771583557129 89.88570404052734 29.59518241882324 C 92.28396606445312 35.26533126831055 93.5 41.28936767578125 93.5 47.49999618530273 C 93.5 53.71062469482422 92.28396606445312 59.73466110229492 89.88570404052734 65.40480804443359 C 87.56893157958984 70.88227844238281 84.251953125 75.80186462402344 80.02690124511719 80.02690124511719 C 75.80186462402344 84.251953125 70.88227844238281 87.56893157958984 65.40480804443359 89.88570404052734 C 59.73466110229492 92.28396606445312 53.71062469482422 93.5 47.49999618530273 93.5 Z" stroke="none"/>
                          <path d="M 47.49999618530273 2.999992370605469 C 41.4912109375 2.999992370605469 35.66376495361328 4.1761474609375 30.17950439453125 6.495796203613281 C 24.88084411621094 8.736953735351562 20.12152099609375 11.94598388671875 16.03375244140625 16.03375244140625 C 11.94598388671875 20.12152099609375 8.736953735351562 24.88084411621094 6.495796203613281 30.17950439453125 C 4.1761474609375 35.66376495361328 2.999992370605469 41.4912109375 2.999992370605469 47.49999618530273 C 2.999992370605469 53.50878143310547 4.1761474609375 59.33622741699219 6.495796203613281 64.82048797607422 C 8.736953735351562 70.11914825439453 11.94598388671875 74.87847137451172 16.03375244140625 78.96623992919922 C 20.12152099609375 83.05400848388672 24.88084411621094 86.26304626464844 30.17950439453125 88.50419616699219 C 35.66376495361328 90.82384490966797 41.4912109375 92 47.49999618530273 92 C 53.50878143310547 92 59.33622741699219 90.82384490966797 64.82048797607422 88.50419616699219 C 70.11914825439453 86.26304626464844 74.87847137451172 83.05400848388672 78.96623992919922 78.96623992919922 C 83.05400848388672 74.87847137451172 86.26304626464844 70.11914825439453 88.50419616699219 64.82048797607422 C 90.82384490966797 59.33622741699219 92 53.50878143310547 92 47.49999618530273 C 92 41.4912109375 90.82384490966797 35.66376495361328 88.50419616699219 30.17950439453125 C 86.26304626464844 24.88084411621094 83.05400848388672 20.12152099609375 78.96623992919922 16.03375244140625 C 74.87847137451172 11.94598388671875 70.11914825439453 8.736953735351562 64.82048797607422 6.495796203613281 C 59.33622741699219 4.1761474609375 53.50878143310547 2.999992370605469 47.49999618530273 2.999992370605469 M 47.49999618530273 -7.62939453125e-06 C 73.7335205078125 -7.62939453125e-06 95 21.26647186279297 95 47.49999618530273 C 95 73.7335205078125 73.7335205078125 95 47.49999618530273 95 C 21.26647186279297 95 -7.62939453125e-06 73.7335205078125 -7.62939453125e-06 47.49999618530273 C -7.62939453125e-06 21.26647186279297 21.26647186279297 -7.62939453125e-06 47.49999618530273 -7.62939453125e-06 Z" stroke="none" fill="#eca675"/>
                        </g>
                      </g>
                    </g>
                  </g>
                </g>
              </g>
            </g>
          </g>
        </g>
      </g>
    </g>
    <g id="information_5864738" transform="translate(1748.593 5778.129)">
      <g id="Grupo_1223381" data-name="Grupo 1223381" transform="translate(0.981 0.981)">
        <g id="Grupo_1223371" data-name="Grupo 1223371" transform="translate(0 50.988)">
          <path id="Trazado_1177373" data-name="Trazado 1177373" d="M62.911,424v1.961a5.883,5.883,0,0,1-5.883,5.883H13.883A5.883,5.883,0,0,1,8,425.961V424H62.911Z" transform="translate(-8 -424)" fill="#969faa"/>
        </g>
        <g id="Grupo_1223372" data-name="Grupo 1223372" transform="translate(3.922 13.728)">
          <path id="Trazado_1177374" data-name="Trazado 1177374" d="M87.066,123.922v33.339H40V123.922A3.923,3.923,0,0,1,43.922,120h3.922v3.922H44.9a.98.98,0,0,0-.981.981v27.455a.98.98,0,0,0,.981.981H82.164a.98.98,0,0,0,.981-.981V124.5a1.387,1.387,0,0,0,2.367.981Z" transform="translate(-40 -120)" fill="#ccd1d9"/>
        </g>
        <g id="Grupo_1223373" data-name="Grupo 1223373" transform="translate(7.844 17.65)">
          <path id="Trazado_1177375" data-name="Trazado 1177375" d="M111.222,152.575v27.861a.98.98,0,0,1-.981.981H72.981a.98.98,0,0,1-.981-.981V152.981a.98.98,0,0,1,.981-.981h2.942v17.65a2.368,2.368,0,0,0,.694,1.674,21.063,21.063,0,0,0,14.9,6.17h.2a21.068,21.068,0,0,0,14.9-6.17,2.368,2.368,0,0,0,.694-1.674V152h3.922Z" transform="translate(-72 -152)" fill="#4fc1e9"/>
        </g>
        <g id="Grupo_1223374" data-name="Grupo 1223374" transform="translate(11.767)">
          <path id="Trazado_1177376" data-name="Trazado 1177376" d="M135.2,42.394a2.363,2.363,0,0,0-.514-.769,21.063,21.063,0,0,0-14.9-6.17h-.2a21.068,21.068,0,0,0-14.9,6.17A2.367,2.367,0,0,0,104,43.3V15.844h7.844V8h23.533v5.883a1.961,1.961,0,0,0-1.961,1.961v7.844a1.961,1.961,0,0,0,1.961,1.961V43.3A2.369,2.369,0,0,0,135.2,42.394Z" transform="translate(-104 -8)" fill="#f0d0b4"/>
        </g>
        <g id="Grupo_1223375" data-name="Grupo 1223375" transform="translate(11.767)">
          <path id="Trazado_1177377" data-name="Trazado 1177377" d="M111.844,8v7.844H104Z" transform="translate(-104 -8)" fill="#ecc19c"/>
        </g>
        <g id="Grupo_1223376" data-name="Grupo 1223376" transform="translate(23.533 3.922)">
          <path id="Trazado_1177378" data-name="Trazado 1177378" d="M200,40h13.728v3.922H200Z" transform="translate(-200 -40)" fill="#5cd6b3"/>
        </g>
        <g id="Grupo_1223377" data-name="Grupo 1223377" transform="translate(27.455 27.455)">
          <path id="Trazado_1177379" data-name="Trazado 1177379" d="M247.509,238.939a2.367,2.367,0,0,1-.514,2.58,21.068,21.068,0,0,1-14.9,6.17H232A7.844,7.844,0,1,0,232,232h.1a21.062,21.062,0,0,1,14.9,6.17A2.362,2.362,0,0,1,247.509,238.939Z" transform="translate(-232 -232)" fill="#e6e9ed"/>
        </g>
        <g id="Grupo_1223378" data-name="Grupo 1223378" transform="translate(11.767 27.455)">
          <path id="Trazado_1177380" data-name="Trazado 1177380" d="M119.591,232h.1a7.844,7.844,0,1,0,0,15.689h-.1a21.063,21.063,0,0,1-14.9-6.17,2.367,2.367,0,0,1,0-3.349,21.068,21.068,0,0,1,14.9-6.17Z" transform="translate(-104 -232)" fill="#e6e9ed"/>
        </g>
        <g id="Grupo_1223379" data-name="Grupo 1223379" transform="translate(19.814 27.587)">
          <circle id="Elipse_14699" data-name="Elipse 14699" cx="7.774" cy="7.774" r="7.774" transform="translate(0 0)" fill="#69d6f4"/>
        </g>
        <g id="Grupo_1223380" data-name="Grupo 1223380" transform="translate(41.183 5.883)">
          <path id="Trazado_1177381" data-name="Trazado 1177381" d="M361.65,57.961v7.844a1.961,1.961,0,0,1-1.961,1.961h-5.883l-1.555,1.555a1.379,1.379,0,0,1-.45.3,1.387,1.387,0,0,1-1.917-1.281v-.575h-3.922A1.961,1.961,0,0,1,344,65.805V57.961A1.961,1.961,0,0,1,345.961,56h13.728A1.961,1.961,0,0,1,361.65,57.961Z" transform="translate(-344 -56)" fill="#ffeaa7"/>
        </g>
      </g>
      <g id="Grupo_1223382" data-name="Grupo 1223382" transform="translate(0)">
        <path id="Trazado_1177382" data-name="Trazado 1177382" d="M128,192h23.533v1.961H128Z" transform="translate(-112.311 -168.467)"/>
        <path id="Trazado_1177383" data-name="Trazado 1177383" d="M176,160h17.65v1.961H176Z" transform="translate(-154.428 -140.389)"/>
        <path id="Trazado_1177384" data-name="Trazado 1177384" d="M128,160h3.922v1.961H128Z" transform="translate(-112.311 -140.389)"/>
        <path id="Trazado_1177385" data-name="Trazado 1177385" d="M128,128h19.611v1.961H128Z" transform="translate(-112.311 -112.311)"/>
        <path id="Trazado_1177386" data-name="Trazado 1177386" d="M304,128h1.961v1.961H304Z" transform="translate(-266.739 -112.311)"/>
        <path id="Trazado_1177387" data-name="Trazado 1177387" d="M128,96h23.533v1.961H128Z" transform="translate(-112.311 -84.233)"/>
        <path id="Trazado_1177388" data-name="Trazado 1177388" d="M381,79.533l-1.268-1.268-1.387,1.387L381,82.306l6.577-6.577-1.387-1.387Z" transform="translate(-331.97 -65.231)"/>
        <path id="Trazado_1177389" data-name="Trazado 1177389" d="M207.689,37.883V32H192v5.883Zm-13.728-3.922h11.767v1.961H193.961Z" transform="translate(-168.467 -28.078)"/>
        <circle id="Elipse_14700" data-name="Elipse 14700" cx="0.915" cy="0.915" r="0.915" transform="translate(27.653 31.311)"/>
        <path id="Trazado_1177390" data-name="Trazado 1177390" d="M224,288h1.961v5.883H224Z" transform="translate(-196.545 -252.7)"/>
        <path id="Trazado_1177391" data-name="Trazado 1177391" d="M57.852,5.883H45.105V0H20.185L11.767,8.419v5.309H8.825a4.908,4.908,0,0,0-4.9,4.9V50.988H0V53.93a6.872,6.872,0,0,0,6.864,6.864H50.008a6.872,6.872,0,0,0,6.864-6.864V50.988H52.95V19.611h4.9a2.945,2.945,0,0,0,2.942-2.942V8.825A2.945,2.945,0,0,0,57.852,5.883Zm-14.708.169a2.946,2.946,0,0,0-1.961,2.773v7.844a2.946,2.946,0,0,0,1.961,2.773V32.992a21.885,21.885,0,0,0-14.61-5.536h-.2a21.886,21.886,0,0,0-14.61,5.536V9.805h7.844V1.961H43.144ZM35.3,36.28a6.864,6.864,0,1,1-6.864-6.864A6.872,6.872,0,0,1,35.3,36.28Zm-.193-5.768A20.01,20.01,0,0,1,42.738,35.3a1.387,1.387,0,0,1,0,1.961,20.01,20.01,0,0,1-7.631,4.787,8.8,8.8,0,0,0,0-11.535Zm-15.5,5.768a8.785,8.785,0,0,0,2.154,5.768,20.01,20.01,0,0,1-7.631-4.787,1.387,1.387,0,0,1,0-1.961,20.01,20.01,0,0,1,7.631-4.787A8.785,8.785,0,0,0,19.611,36.28Zm-7.844,0a3.326,3.326,0,0,0,.981,2.367,21.9,21.9,0,0,0,15.59,6.458h.2a21.9,21.9,0,0,0,15.59-6.458,3.326,3.326,0,0,0,.981-2.367V19.611h1.961V47.066H9.805V19.611h1.961ZM15.114,7.844l4.5-4.5v4.5Zm39.8,46.086a4.908,4.908,0,0,1-4.9,4.9H6.864a4.908,4.908,0,0,1-4.9-4.9V52.95h52.95ZM5.883,50.988V18.63a2.945,2.945,0,0,1,2.942-2.942h2.942V17.65H9.805a1.963,1.963,0,0,0-1.961,1.961V47.066a1.963,1.963,0,0,0,1.961,1.961H47.066a1.963,1.963,0,0,0,1.961-1.961V21.536a2.372,2.372,0,0,0,.406.036,2.349,2.349,0,0,0,1.555-.585v30Zm52.95-34.319a.982.982,0,0,1-.981.981H51.563l-1.842,1.842a.406.406,0,0,1-.693-.287V17.65h-4.9a.982.982,0,0,1-.981-.981V8.825a.982.982,0,0,1,.981-.981H57.852a.982.982,0,0,1,.981.981v7.844Z" transform="translate(0)"/>
        <path id="Trazado_1177392" data-name="Trazado 1177392" d="M336,448h9.805v1.961H336Z" transform="translate(-294.817 -393.089)"/>
      </g>
    </g>
  </g>
</svg>
