<svg xmlns="http://www.w3.org/2000/svg" xmlns:xlink="http://www.w3.org/1999/xlink" width="113" height="113" viewBox="0 0 113 113">
  <defs>
    <filter id="Trazado_982547" x="0" y="0" width="113" height="113" filterUnits="userSpaceOnUse">
      <feOffset dy="3" input="SourceAlpha"/>
      <feGaussianBlur stdDeviation="3" result="blur"/>
      <feFlood flood-opacity="0.161"/>
      <feComposite operator="in" in2="blur"/>
      <feComposite in="SourceGraphic"/>
    </filter>
    <clipPath id="clip-path">
      <path id="path2547" d="M0-682.665H63.294v63.294H0Z" transform="translate(0 682.665)"/>
    </clipPath>
  </defs>
  <g id="Grupo_1223384" data-name="Grupo 1223384" transform="translate(-2074.49 -5755.026)">
    <g id="Grupo_1223127" data-name="Grupo 1223127" transform="translate(2083.49 5761.026)">
      <g id="Grupo_1211216" data-name="Grupo 1211216" transform="translate(0)">
        <g id="Grupo_1210737" data-name="Grupo 1210737">
          <g id="Grupo_1210537" data-name="Grupo 1210537">
            <g id="Grupo_1164202" data-name="Grupo 1164202">
              <g id="Grupo_1158168" data-name="Grupo 1158168">
                <g id="Grupo_1152576" data-name="Grupo 1152576">
                  <g id="Grupo_1148633" data-name="Grupo 1148633">
                    <g id="Grupo_1148525" data-name="Grupo 1148525">
                      <g transform="matrix(1, 0, 0, 1, -9, -6)" filter="url(#Trazado_982547)">
                        <g id="Trazado_982547-2" data-name="Trazado 982547" transform="translate(9 6)" fill="#fcf5f0">
                          <path d="M 47.49999618530273 93.5 C 41.28936767578125 93.5 35.26533126831055 92.28396606445312 29.59518241882324 89.88570404052734 C 24.11771583557129 87.56893157958984 19.19812965393066 84.251953125 14.97308921813965 80.02690124511719 C 10.74803638458252 75.80186462402344 7.431062698364258 70.88227844238281 5.114289283752441 65.40480804443359 C 2.716022968292236 59.73466110229492 1.499996185302734 53.71062469482422 1.499996185302734 47.49999618530273 C 1.499996185302734 41.28936767578125 2.716022968292236 35.26533126831055 5.114289283752441 29.59518241882324 C 7.431062698364258 24.11771583557129 10.74803638458252 19.19812965393066 14.97308921813965 14.97308921813965 C 19.19812965393066 10.74803638458252 24.11771583557129 7.431062698364258 29.59518241882324 5.114289283752441 C 35.26533126831055 2.716022968292236 41.28936767578125 1.499996185302734 47.49999618530273 1.499996185302734 C 53.71062469482422 1.499996185302734 59.73466110229492 2.716022968292236 65.40480804443359 5.114289283752441 C 70.88227844238281 7.431062698364258 75.80186462402344 10.74803638458252 80.02690124511719 14.97308921813965 C 84.251953125 19.19812965393066 87.56893157958984 24.11771583557129 89.88570404052734 29.59518241882324 C 92.28396606445312 35.26533126831055 93.5 41.28936767578125 93.5 47.49999618530273 C 93.5 53.71062469482422 92.28396606445312 59.73466110229492 89.88570404052734 65.40480804443359 C 87.56893157958984 70.88227844238281 84.251953125 75.80186462402344 80.02690124511719 80.02690124511719 C 75.80186462402344 84.251953125 70.88227844238281 87.56893157958984 65.40480804443359 89.88570404052734 C 59.73466110229492 92.28396606445312 53.71062469482422 93.5 47.49999618530273 93.5 Z" stroke="none"/>
                          <path d="M 47.49999618530273 2.999992370605469 C 41.4912109375 2.999992370605469 35.66376495361328 4.1761474609375 30.17950439453125 6.495796203613281 C 24.88084411621094 8.736953735351562 20.12152099609375 11.94598388671875 16.03375244140625 16.03375244140625 C 11.94598388671875 20.12152099609375 8.736953735351562 24.88084411621094 6.495796203613281 30.17950439453125 C 4.1761474609375 35.66376495361328 2.999992370605469 41.4912109375 2.999992370605469 47.49999618530273 C 2.999992370605469 53.50878143310547 4.1761474609375 59.33622741699219 6.495796203613281 64.82048797607422 C 8.736953735351562 70.11914825439453 11.94598388671875 74.87847137451172 16.03375244140625 78.96623992919922 C 20.12152099609375 83.05400848388672 24.88084411621094 86.26304626464844 30.17950439453125 88.50419616699219 C 35.66376495361328 90.82384490966797 41.4912109375 92 47.49999618530273 92 C 53.50878143310547 92 59.33622741699219 90.82384490966797 64.82048797607422 88.50419616699219 C 70.11914825439453 86.26304626464844 74.87847137451172 83.05400848388672 78.96623992919922 78.96623992919922 C 83.05400848388672 74.87847137451172 86.26304626464844 70.11914825439453 88.50419616699219 64.82048797607422 C 90.82384490966797 59.33622741699219 92 53.50878143310547 92 47.49999618530273 C 92 41.4912109375 90.82384490966797 35.66376495361328 88.50419616699219 30.17950439453125 C 86.26304626464844 24.88084411621094 83.05400848388672 20.12152099609375 78.96623992919922 16.03375244140625 C 74.87847137451172 11.94598388671875 70.11914825439453 8.736953735351562 64.82048797607422 6.495796203613281 C 59.33622741699219 4.1761474609375 53.50878143310547 2.999992370605469 47.49999618530273 2.999992370605469 M 47.49999618530273 -7.62939453125e-06 C 73.7335205078125 -7.62939453125e-06 95 21.26647186279297 95 47.49999618530273 C 95 73.7335205078125 73.7335205078125 95 47.49999618530273 95 C 21.26647186279297 95 -7.62939453125e-06 73.7335205078125 -7.62939453125e-06 47.49999618530273 C -7.62939453125e-06 21.26647186279297 21.26647186279297 -7.62939453125e-06 47.49999618530273 -7.62939453125e-06 Z" stroke="none" fill="#eca675"/>
                        </g>
                      </g>
                    </g>
                  </g>
                </g>
              </g>
            </g>
          </g>
        </g>
      </g>
    </g>
    <g id="g2541" transform="translate(2099.833 6459.544)">
      <g id="g2543" transform="translate(0 -682.665)">
        <g id="g2545" clip-path="url(#clip-path)">
          <g id="g2551" transform="translate(9.51 13.14)">
            <path id="path2553" d="M-421.911-241.058a21.571,21.571,0,0,1-24.543,18.226c-28.311-5.153-22.637-45.767,6.062-42.695a21.729,21.729,0,0,1,18.481,24.468" transform="translate(465.026 265.692)" fill="#48deff"/>
          </g>
          <g id="g2555" transform="translate(9.51 13.14)">
            <path id="path2557" d="M-421.911-241.058a21.571,21.571,0,0,1-24.543,18.226c-28.311-5.153-22.637-45.767,6.062-42.695a21.729,21.729,0,0,1,18.481,24.468" transform="translate(465.026 265.692)" fill="#95ebd9"/>
          </g>
          <g id="g2559" transform="translate(28.507 13.076)">
            <path id="path2561" d="M-55.169-2.248a21.912,21.912,0,0,0-5.638-.09C-35.2,1.125-35.139,37.1-60.538,40.536-32.252,42.787-27.291,2.7-55.169-2.248" transform="translate(60.807 2.478)" fill="#6be4cf"/>
          </g>
          <g id="g2563" transform="translate(30.278 13.212)">
            <path id="path2565" d="M-1.469-61.081c.467,1.256,1.832,1.9,3,2.562s2.39,1.764,2.191,3.085a4.934,4.934,0,0,1-.842,1.72c-.594,1.026-1.313,2.738-.857,3.9a2.338,2.338,0,0,0,2.588,1.067c1.867-.346,3.763-2.24,5.7-1.224.714.4,1.146,1.2,1.883,1.558a4.26,4.26,0,0,0,2.617.012,17.348,17.348,0,0,1,5.96-.035A21.82,21.82,0,0,0,1.509-67.323C.071-65.8-2.23-63.3-1.469-61.081" transform="translate(1.62 67.323)" fill="#ffe589"/>
          </g>
          <g id="g2567" transform="translate(32.599 13.212)">
            <path id="path2569" d="M-15.127-.91c-.246-.036-.492-.066-.738-.093q-.419.417-.808.863A21.789,21.789,0,0,1-1.556,17.767a17.423,17.423,0,0,1,4.96.116A21.8,21.8,0,0,0-15.127-.91" transform="translate(16.673 1.003)" fill="#ffd86d"/>
          </g>
          <g id="g2571" transform="translate(32.599 13.212)">
            <path id="path2573" d="M-15.127-.91c-.246-.036-.492-.066-.738-.093q-.419.417-.808.863A21.789,21.789,0,0,1-1.556,17.767a17.423,17.423,0,0,1,4.96.116A21.8,21.8,0,0,0-15.127-.91Z" transform="translate(16.673 1.003)" fill="none" stroke="#ffd86d" stroke-miterlimit="10" stroke-width="1.333"/>
          </g>
          <g id="g2575" transform="translate(9.377 27.594)">
            <path id="path2577" d="M-154.847-224.464a5.119,5.119,0,0,0,1.489-1.791,3.9,3.9,0,0,0-.914-4.01,9.449,9.449,0,0,0-3.7-2.253,3.969,3.969,0,0,1-2.353-1.624c-.681-1.417.556-3.382-.5-4.554-.984-1.095-3.152-.437-3.976-1.655-.66-.975.127-2.246.175-3.417.041-2.416-2.677-3.775-4.884-3.623a21.707,21.707,0,0,0,10.029,25.861,20.54,20.54,0,0,0,4.63-2.934" transform="translate(170.67 247.402)" fill="#ffe589"/>
          </g>
          <g id="g2579" transform="translate(38.744 42.065)">
            <path id="path2581" d="M-114.316-25.212a6.12,6.12,0,0,0-1.84-.474c-1.322-.124-2.8.141-3.866-.65-.355-.263-.765-.579-1.187-.911a2.492,2.492,0,0,0-4,1.48c-.8,4.84-1.33,6.823.122,10.449a21.569,21.569,0,0,0,10.771-9.895" transform="translate(125.998 27.788)" fill="#ffe589"/>
          </g>
          <g id="g2583" transform="translate(38.945 43.988)">
            <path id="path2585" d="M-94.354-1.75a23.535,23.535,0,0,1-2.788-.179c-.11.239-.219.466-.317.653A21.474,21.474,0,0,1-104,6.25a14.169,14.169,0,0,0,.711,2.369A21.571,21.571,0,0,0-92.514-1.276a6.121,6.121,0,0,0-1.84-.474" transform="translate(103.996 1.929)" fill="#ffd86d"/>
          </g>
          <g id="g2587" transform="translate(0.927 9.842)">
            <path id="path2589" d="M-42.308-513.988v-33.776a10.506,10.506,0,0,1-4.324-8.495v-7.929a2.162,2.162,0,1,1,4.324-.056v-.018a2.162,2.162,0,1,1,4.324-.056,2.162,2.162,0,1,1,4.324,0h0a2.162,2.162,0,1,1,4.324.056s0,6.43,0,6.43V-562.1h1.324a2.549,2.549,0,0,1,2.552,2.547v1.633c0,4.032-1.484,9.238-5.985,10.154v33.776Z" transform="translate(46.632 566.513)" fill="#ffdab3"/>
          </g>
          <g id="g2591" transform="translate(5.251 9.842)">
            <path id="path2593" d="M0-20.983v2.008a2.162,2.162,0,0,0,4.324,0v-2.008a2.162,2.162,0,0,0-4.324,0" transform="translate(0 23.127)" fill="#ffc998"/>
          </g>
          <g id="g2595" transform="translate(13.892 9.842)">
            <path id="path2597" d="M0-20.983v2.008a2.162,2.162,0,0,0,4.324,0v-2.008a2.162,2.162,0,0,0-4.324,0" transform="translate(0 23.127)" fill="#ffc998"/>
          </g>
          <g id="g2599" transform="translate(9.568 9.842)">
            <path id="path2601" d="M0-20.983v2.008a2.162,2.162,0,0,0,4.324,0v-2.008a2.162,2.162,0,0,0-4.324,0" transform="translate(0 23.127)" fill="#ffc998"/>
          </g>
          <g id="g2603" transform="translate(0.927 9.842)">
            <path id="path2605" d="M0-20.983v2.008a2.162,2.162,0,0,0,4.324,0v-2.008a2.162,2.162,0,0,0-4.324,0" transform="translate(0 23.127)" fill="#ffc998"/>
          </g>
          <g id="g2607" transform="translate(9.397 14.256)">
            <path id="path2609" d="M-88.22-42.235h-6.867a2.158,2.158,0,0,1,0-4.316h8A2.549,2.549,0,0,1-84.535-44v1.769" transform="translate(97.235 46.551)" fill="#ffdab3"/>
          </g>
          <g id="g2611" transform="translate(11.73 32.8)">
            <path id="path2613" d="M-42.308-289.33v-10.818a10.506,10.506,0,0,1-4.324-8.495v-7.929a2.162,2.162,0,1,1,4.324-.056v-.018a2.162,2.162,0,1,1,4.324-.056,2.162,2.162,0,1,1,4.324,0,2.162,2.162,0,1,1,4.324.057v2.163h1.324a2.549,2.549,0,0,1,2.552,2.547v1.633c0,4.032-1.484,9.238-5.985,10.154v10.818Z" transform="translate(46.632 318.897)" fill="#ffc998"/>
          </g>
          <g id="g2615" transform="translate(16.054 32.8)">
            <path id="path2617" d="M0-20.983v2.008a2.162,2.162,0,0,0,4.324,0v-2.008a2.162,2.162,0,0,0-4.324,0" transform="translate(0 23.127)" fill="#f9b87f"/>
          </g>
          <g id="g2619" transform="translate(20.377 32.8)">
            <path id="path2621" d="M0-20.983v2.008a2.162,2.162,0,0,0,4.324,0v-2.008a2.162,2.162,0,0,0-4.324,0" transform="translate(0 23.127)" fill="#f9b87f"/>
          </g>
          <g id="g2623" transform="translate(11.73 32.8)">
            <path id="path2625" d="M0-20.983v2.008a2.162,2.162,0,0,0,4.324,0v-2.008a2.162,2.162,0,0,0-4.324,0" transform="translate(0 23.127)" fill="#f9b87f"/>
          </g>
          <g id="g2627" transform="translate(24.701 32.8)">
            <path id="path2629" d="M0-20.983v2.008a2.162,2.162,0,0,0,4.324,0v-2.008a2.162,2.162,0,0,0-4.324,0" transform="translate(0 23.127)" fill="#f9b87f"/>
          </g>
          <g id="g2631" transform="translate(11.73 32.8)">
            <path id="path2633" d="M0-20.983v2.008a2.162,2.162,0,0,0,4.324,0v-2.008a2.162,2.162,0,0,0-4.324,0" transform="translate(0 23.127)" fill="#f9b87f"/>
          </g>
          <g id="g2635" transform="translate(20.2 37.214)">
            <path id="path2637" d="M-88.22-42.235h-6.867a2.158,2.158,0,0,1,0-4.316h8A2.549,2.549,0,0,1-84.535-44v1.769" transform="translate(97.236 46.551)" fill="#ffc998"/>
          </g>
          <g id="g2639" transform="translate(37.257 0.927)">
            <path id="path2641" d="M-245.713-123.248a12.6,12.6,0,0,1-12.595,12.595c-16.689-.617-16.684-24.575,0-25.189a12.6,12.6,0,0,1,12.595,12.595" transform="translate(270.822 135.842)" fill="#fbf9f9"/>
          </g>
          <g id="g2643" transform="translate(47.3 0.927)">
            <path id="path2645" d="M-24.194,0a12.649,12.649,0,0,0-2.472.243c13.416,2.865,13.407,21.844,0,24.7A12.636,12.636,0,0,0-11.6,12.595,12.6,12.6,0,0,0-24.194,0" transform="translate(26.667 0)" fill="#f6eeeb"/>
          </g>
          <g id="g2647" transform="translate(4.324 51.859)">
            <path id="path2649" d="M-9.073,0A.927.927,0,0,0-10,.927v9.581a.927.927,0,0,0,1.854,0V.927A.927.927,0,0,0-9.073,0" transform="translate(10)"/>
          </g>
          <g id="g2651" transform="translate(21.293 8.634)">
            <path id="path2653" d="M-8.994,0a.927.927,0,0,0,0,1.854A.927.927,0,0,0-8.994,0" transform="translate(9.913)"/>
          </g>
          <g id="g2655" transform="translate(25.088 7.605)">
            <path id="path2657" d="M-8.994,0a.927.927,0,0,0,0,1.854A.927.927,0,0,0-8.994,0" transform="translate(9.913)"/>
          </g>
          <g id="g2659" transform="translate(28.991 7.181)">
            <path id="path2661" d="M-8.994,0a.927.927,0,0,0,0,1.854A.927.927,0,0,0-8.994,0" transform="translate(9.913)"/>
          </g>
          <g id="g2663" transform="translate(32.916 7.317)">
            <path id="path2665" d="M-8.994,0a.927.927,0,0,0,0,1.854A.927.927,0,0,0-8.994,0" transform="translate(9.913)"/>
          </g>
          <g id="g2667" transform="translate(56.023 27.426)">
            <path id="path2669" d="M-8.994-18.147a.927.927,0,0,0,0-1.854.927.927,0,0,0,0,1.854" transform="translate(9.913 20.001)"/>
          </g>
          <g id="g2671" transform="translate(56.696 31.303)">
            <path id="path2673" d="M0-8.994a.927.927,0,0,0,1.854,0A.927.927,0,0,0,0-8.994" transform="translate(0 9.913)"/>
          </g>
          <g id="g2675" transform="translate(56.803 35.221)">
            <path id="path2677" d="M-8.994,0a.927.927,0,0,0,0,1.854A.927.927,0,0,0-8.994,0" transform="translate(9.913)"/>
          </g>
          <g id="g2679" transform="translate(56.312 39.117)">
            <path id="path2681" d="M-8.994,0a.927.927,0,0,0,0,1.854A.927.927,0,0,0-8.994,0" transform="translate(9.913)"/>
          </g>
          <g id="g2683" transform="translate(55.246 42.897)">
            <path id="path2685" d="M-8.994,0a.927.927,0,0,0,0,1.854A.927.927,0,0,0-8.994,0" transform="translate(9.913)"/>
          </g>
          <g id="g2687" transform="translate(53.635 46.48)">
            <path id="path2689" d="M-8.994,0a.927.927,0,0,0,0,1.854A.927.927,0,0,0-8.994,0" transform="translate(9.913)"/>
          </g>
          <g id="g2691" transform="translate(51.512 49.783)">
            <path id="path2693" d="M-8.994,0a.927.927,0,0,0,0,1.854A.927.927,0,0,0-8.994,0" transform="translate(9.913)"/>
          </g>
          <g id="g2695" transform="translate(48.92 52.734)">
            <path id="path2697" d="M-8.995,0a.927.927,0,0,0,0,1.854A.927.927,0,0,0-8.995,0" transform="translate(9.914)"/>
          </g>
          <g id="g2699" transform="translate(45.918 55.266)">
            <path id="path2701" d="M-8.995,0a.927.927,0,0,0,0,1.854A.927.927,0,0,0-8.995,0" transform="translate(9.914)"/>
          </g>
          <g id="g2703" transform="translate(42.574 57.324)">
            <path id="path2705" d="M-8.994,0a.927.927,0,0,0,0,1.854A.927.927,0,0,0-8.994,0" transform="translate(9.913)"/>
          </g>
          <g id="g2707" transform="translate(38.96 58.863)">
            <path id="path2709" d="M-8.994,0a.927.927,0,0,0,0,1.854A.927.927,0,0,0-8.994,0" transform="translate(9.913)"/>
          </g>
          <g id="g2711" transform="translate(35.16 59.853)">
            <path id="path2713" d="M-8.994,0a.927.927,0,0,0,0,1.854A.927.927,0,0,0-8.994,0" transform="translate(9.913)"/>
          </g>
          <g id="g2715" transform="translate(31.255 60.275)">
            <path id="path2717" d="M-8.994,0a.927.927,0,0,0,0,1.854A.927.927,0,0,0-8.994,0" transform="translate(9.913)"/>
          </g>
          <g id="g2719" transform="translate(0 -0.022)">
            <path id="path2721" d="M-504.641-303.738a17.831,17.831,0,0,0-5.218.241c-1.122.209-1.752.256-2.582-.589-1.723-1.756-3.632-1.452-5.72-.447-.69.332-2.75,1.329-3.277.125-.422-.962.494-2.568.991-3.35,1.657-2.6.132-4.673-2.268-6.008-.978-.544-1.9-1.058-2.2-1.858-.573-1.4,1.337-3.767,2.454-4.945a21.36,21.36,0,0,1,2.549.5,13.668,13.668,0,0,0,14.1,12.345,20.5,20.5,0,0,1,1.166,3.988m.138,6.626a20.513,20.513,0,0,1-1.741,5.849,9.028,9.028,0,0,0-2.458-.3,3.954,3.954,0,0,1-2.236-.424c-1.381-1.024-2.672-2.107-4.513-1.411a3.365,3.365,0,0,0-2.139,2.558c-.246,1.343-1.031,5.848-.774,7.432a18.632,18.632,0,0,0,.63,2.661,20.786,20.786,0,0,1-10.262,1.07c-.124-.018-.249-.037-.373-.058v-2.76a7.727,7.727,0,0,0,4.587-4.22,15.452,15.452,0,0,0,1.4-6.474q0-.02,0-.041v-1.769a3.587,3.587,0,0,0-3.876-3.474V-299.7a3.172,3.172,0,0,0-3.147-3.135,3.081,3.081,0,0,0-2.084.869l-.041-.041a3.036,3.036,0,0,0-2.2-.884,3.082,3.082,0,0,0-2.1.885,3.114,3.114,0,0,0-3.34-.653v-2.784c4.41-1.4,5.943-6.543,5.984-10.694a9.762,9.762,0,0,0-.191-2.948,20.7,20.7,0,0,1,8.612-1.657q-.472.586-.888,1.205c-1.151,1.714-1.486,3.25-1,4.564a5.87,5.87,0,0,0,3.036,2.832c1.433.8,2.653,1.745,1.6,3.392-.854,1.341-1.832,3.479-1.125,5.09,1.042,2.38,3.988,1.664,5.78.8,1.3-.627,2.465-1.074,3.592.075a4.185,4.185,0,0,0,4.245,1.113,16.71,16.71,0,0,1,5.138-.169,20.56,20.56,0,0,1-.122,4.732m-11.517,15.637a16.988,16.988,0,0,1-.513-2.226,32.479,32.479,0,0,1,.768-6.8,1.506,1.506,0,0,1,.971-1.158c1.091-.412,1.967.583,2.753,1.166a5.406,5.406,0,0,0,3.314.788,7.081,7.081,0,0,1,1.585.126,20.67,20.67,0,0,1-8.878,8.1m-12.093-16.993h-2.469v-1.218c0-.012,0-.025,0-.037a1.238,1.238,0,0,1,1.211-1.262,1.3,1.3,0,0,1,1.259,1.281Zm-6.793.181v-1.53a1.235,1.235,0,0,1,1.211-1.225,1.342,1.342,0,0,1,1.259,1.356v1.218a8.17,8.17,0,0,0-2.469.181M-538-296.572a1.234,1.234,0,0,1-1.235-1.231v-2.008a1.285,1.285,0,0,1,1.259-1.174,1.235,1.235,0,0,1,1.21,1.225v1.957A1.234,1.234,0,0,1-538-296.572m-4.324,0a1.234,1.234,0,0,1-1.235-1.231v-1.827a1.3,1.3,0,0,1,1.259-1.281,1.236,1.236,0,0,1,1.211,1.225v1.883a1.234,1.234,0,0,1-1.235,1.231m-3.391-24.672v-1.53A1.235,1.235,0,0,1-544.5-324a1.343,1.343,0,0,1,1.259,1.356v1.218a8.169,8.169,0,0,0-2.469.181m-3.089,1.714a1.234,1.234,0,0,1-1.234-1.231v-1.9a1.3,1.3,0,0,1,1.259-1.281,1.236,1.236,0,0,1,1.21,1.225v1.957a1.234,1.234,0,0,1-1.235,1.231m-4.323,0a1.234,1.234,0,0,1-1.235-1.231v-1.827a1.3,1.3,0,0,1,1.259-1.281,1.236,1.236,0,0,1,1.211,1.225v1.883a1.234,1.234,0,0,1-1.235,1.231m12.946-4.413a1.3,1.3,0,0,1,1.259,1.281v1.236h-2.469v-1.218a1.289,1.289,0,0,1,1.211-1.3m43.747-6.381a.927.927,0,0,0-1.31-.063.927.927,0,0,0-.063,1.31c6.79,7.355,1.383,19.582-8.638,19.511a11.681,11.681,0,0,1-11.667-11.668c-.135-8.394,9.1-14.251,16.627-10.563a.927.927,0,0,0,1.234-.444.927.927,0,0,0-.444-1.234c-8.453-4.151-18.9,2.139-19.25,11.486a22.731,22.731,0,0,0-14.523,1.349,3.8,3.8,0,0,0-2.6-.787v-1.236a3.173,3.173,0,0,0-3.147-3.135,3.081,3.081,0,0,0-2.084.869,3.076,3.076,0,0,0-2.239-.925,3.082,3.082,0,0,0-2.1.885,3.105,3.105,0,0,0-4.326,0,3.1,3.1,0,0,0-5.251,2.2v8.11a11.5,11.5,0,0,0,4.324,8.953v18.881a.927.927,0,0,0,.927.927.927.927,0,0,0,.927-.927v-19.339a.927.927,0,0,0-.38-.748,9.638,9.638,0,0,1-3.944-7.747v-3.274a3.115,3.115,0,0,0,3.4-.626,3.113,3.113,0,0,0,3.241.689,3.093,3.093,0,0,0,3.053,2.615h1.62a7.8,7.8,0,0,0-2.77,5.96.927.927,0,0,0,.927.927.927.927,0,0,0,.927-.927,6.043,6.043,0,0,1,6.163-5.96.927.927,0,0,0,.927-.927.927.927,0,0,0-.927-.927h-6.867a1.234,1.234,0,0,1-1.235-1.231,1.246,1.246,0,0,1,1.235-1.231h8a1.648,1.648,0,0,1,1.624,1.62v1.633c0,3.773-1.373,8.458-5.243,9.246a.927.927,0,0,0-.742.908v3.551a3.107,3.107,0,0,0-4.382,2.8v8.11a11.5,11.5,0,0,0,4.324,8.953v10.36a.927.927,0,0,0,1.854,0v-10.818a.927.927,0,0,0-.38-.748,9.638,9.638,0,0,1-3.944-7.747v-3.274a3.115,3.115,0,0,0,3.4-.626,3.113,3.113,0,0,0,3.241.689,3.093,3.093,0,0,0,3.053,2.615h1.62a7.8,7.8,0,0,0-2.77,5.96.927.927,0,0,0,.927.927.927.927,0,0,0,.927-.927A6.043,6.043,0,0,1-527-292.3a.927.927,0,0,0,.927-.927.927.927,0,0,0-.927-.927h-6.867a1.234,1.234,0,0,1-1.235-1.231,1.246,1.246,0,0,1,1.235-1.231h8a1.624,1.624,0,0,1,1.625,1.62v1.633c0,3.773-1.373,8.458-5.243,9.246a.927.927,0,0,0-.742.909v10.818a.927.927,0,0,0,1.854,0v-5.465l.107.016a23.155,23.155,0,0,0,3.328.241c10.845.185,20.941-8.432,22.266-19.255a22.4,22.4,0,0,0,.056-5.884c0-.025-.005-.05-.009-.074a22.343,22.343,0,0,0-1.283-5.141c10.158-1.8,14.619-14.7,7.475-22.374" transform="translate(556.211 334.777)"/>
          </g>
          <g id="g2723" transform="translate(44.07 5.484)">
            <path id="path2725" d="M-51.6-18.146a.6.6,0,0,1,0,1.194.6.6,0,0,1,0-1.194m2.844,8.105.534,1.026a3.414,3.414,0,0,1-3.4,3.236,3.428,3.428,0,0,1-.909-6.72v1.531a.927.927,0,0,0,.927.927Zm-8.116.84A5.261,5.261,0,0,0-47-6.675l.12.23a.963.963,0,0,0,1.25.395.927.927,0,0,0,.394-1.25l-2.13-4.095a.927.927,0,0,0-.822-.5h-2.479v-.728h2.479a.927.927,0,0,0,.927-.927.927.927,0,0,0-.927-.927h-2.479v-.8A2.455,2.455,0,0,0-51.6-20a2.455,2.455,0,0,0-.927,4.719v.883a5.279,5.279,0,0,0-4.345,5.2" transform="translate(56.868 20)"/>
          </g>
        </g>
      </g>
    </g>
  </g>
</svg>
