<svg xmlns="http://www.w3.org/2000/svg" xmlns:xlink="http://www.w3.org/1999/xlink" width="113" height="113" viewBox="0 0 113 113">
  <defs>
    <filter id="Trazado_982547" x="0" y="0" width="113" height="113" filterUnits="userSpaceOnUse">
      <feOffset dy="3" input="SourceAlpha"/>
      <feGaussianBlur stdDeviation="3" result="blur"/>
      <feFlood flood-opacity="0.161"/>
      <feComposite operator="in" in2="blur"/>
      <feComposite in="SourceGraphic"/>
    </filter>
  </defs>
  <g id="Grupo_1223656" data-name="Grupo 1223656" transform="translate(-793.98 -3848.71)">
    <g id="Grupo_1223176" data-name="Grupo 1223176" transform="translate(802.98 3854.71)">
      <g id="Grupo_1211217" data-name="Grupo 1211217" transform="translate(0)">
        <g id="Grupo_1210736" data-name="Grupo 1210736">
          <g id="Grupo_1210537" data-name="Grupo 1210537">
            <g id="Grupo_1164202" data-name="Grupo 1164202">
              <g id="Grupo_1158168" data-name="Grupo 1158168">
                <g id="Grupo_1152576" data-name="Grupo 1152576">
                  <g id="Grupo_1148633" data-name="Grupo 1148633">
                    <g id="Grupo_1148525" data-name="Grupo 1148525">
                      <g transform="matrix(1, 0, 0, 1, -9, -6)" filter="url(#Trazado_982547)">
                        <g id="Trazado_982547-2" data-name="Trazado 982547" transform="translate(9 6)" fill="#fcf5f0">
                          <path d="M 47.49999618530273 93.5 C 41.28936767578125 93.5 35.26533126831055 92.28396606445312 29.59518241882324 89.88570404052734 C 24.11771583557129 87.56893157958984 19.19812965393066 84.251953125 14.97308921813965 80.02690124511719 C 10.74803638458252 75.80186462402344 7.431062698364258 70.88227844238281 5.114289283752441 65.40480804443359 C 2.716022968292236 59.73466110229492 1.499996185302734 53.71062469482422 1.499996185302734 47.49999618530273 C 1.499996185302734 41.28936767578125 2.716022968292236 35.26533126831055 5.114289283752441 29.59518241882324 C 7.431062698364258 24.11771583557129 10.74803638458252 19.19812965393066 14.97308921813965 14.97308921813965 C 19.19812965393066 10.74803638458252 24.11771583557129 7.431062698364258 29.59518241882324 5.114289283752441 C 35.26533126831055 2.716022968292236 41.28936767578125 1.499996185302734 47.49999618530273 1.499996185302734 C 53.71062469482422 1.499996185302734 59.73466110229492 2.716022968292236 65.40480804443359 5.114289283752441 C 70.88227844238281 7.431062698364258 75.80186462402344 10.74803638458252 80.02690124511719 14.97308921813965 C 84.251953125 19.19812965393066 87.56893157958984 24.11771583557129 89.88570404052734 29.59518241882324 C 92.28396606445312 35.26533126831055 93.5 41.28936767578125 93.5 47.49999618530273 C 93.5 53.71062469482422 92.28396606445312 59.73466110229492 89.88570404052734 65.40480804443359 C 87.56893157958984 70.88227844238281 84.251953125 75.80186462402344 80.02690124511719 80.02690124511719 C 75.80186462402344 84.251953125 70.88227844238281 87.56893157958984 65.40480804443359 89.88570404052734 C 59.73466110229492 92.28396606445312 53.71062469482422 93.5 47.49999618530273 93.5 Z" stroke="none"/>
                          <path d="M 47.49999618530273 2.999992370605469 C 41.4912109375 2.999992370605469 35.66376495361328 4.1761474609375 30.17950439453125 6.495796203613281 C 24.88084411621094 8.736953735351562 20.12152099609375 11.94598388671875 16.03375244140625 16.03375244140625 C 11.94598388671875 20.12152099609375 8.736953735351562 24.88084411621094 6.495796203613281 30.17950439453125 C 4.1761474609375 35.66376495361328 2.999992370605469 41.4912109375 2.999992370605469 47.49999618530273 C 2.999992370605469 53.50878143310547 4.1761474609375 59.33622741699219 6.495796203613281 64.82048797607422 C 8.736953735351562 70.11914825439453 11.94598388671875 74.87847137451172 16.03375244140625 78.96623992919922 C 20.12152099609375 83.05400848388672 24.88084411621094 86.26304626464844 30.17950439453125 88.50419616699219 C 35.66376495361328 90.82384490966797 41.4912109375 92 47.49999618530273 92 C 53.50878143310547 92 59.33622741699219 90.82384490966797 64.82048797607422 88.50419616699219 C 70.11914825439453 86.26304626464844 74.87847137451172 83.05400848388672 78.96623992919922 78.96623992919922 C 83.05400848388672 74.87847137451172 86.26304626464844 70.11914825439453 88.50419616699219 64.82048797607422 C 90.82384490966797 59.33622741699219 92 53.50878143310547 92 47.49999618530273 C 92 41.4912109375 90.82384490966797 35.66376495361328 88.50419616699219 30.17950439453125 C 86.26304626464844 24.88084411621094 83.05400848388672 20.12152099609375 78.96623992919922 16.03375244140625 C 74.87847137451172 11.94598388671875 70.11914825439453 8.736953735351562 64.82048797607422 6.495796203613281 C 59.33622741699219 4.1761474609375 53.50878143310547 2.999992370605469 47.49999618530273 2.999992370605469 M 47.49999618530273 -7.62939453125e-06 C 73.7335205078125 -7.62939453125e-06 95 21.26647186279297 95 47.49999618530273 C 95 73.7335205078125 73.7335205078125 95 47.49999618530273 95 C 21.26647186279297 95 -7.62939453125e-06 73.7335205078125 -7.62939453125e-06 47.49999618530273 C -7.62939453125e-06 21.26647186279297 21.26647186279297 -7.62939453125e-06 47.49999618530273 -7.62939453125e-06 Z" stroke="none" fill="#eca675"/>
                        </g>
                      </g>
                    </g>
                  </g>
                </g>
              </g>
            </g>
          </g>
        </g>
      </g>
    </g>
    <g id="inclusion_17650400" transform="translate(789.313 3847.243)">
      <g id="Grupo_1223655" data-name="Grupo 1223655" transform="translate(29.495 33.508)">
        <path id="Trazado_1178064" data-name="Trazado 1178064" d="M220.83,351.967a98,98,0,0,0,11.019-8.235,3.341,3.341,0,0,1,4.585.611,2.891,2.891,0,0,1-.659,4.238l-7.053,4.885a14.247,14.247,0,0,1-7.891-1.5Z" transform="translate(-194.674 -309.105)" fill="#f9b5b2" fill-rule="evenodd"/>
        <path id="Trazado_1178065" data-name="Trazado 1178065" d="M248.19,343.883c6.25-3.559,10.547-7.6,14.59-11.091a3.336,3.336,0,0,1,4.58.611,2.958,2.958,0,0,1,.559,1.091,1.83,1.83,0,0,0-.159.1l-11.087,7.8C254.747,344.135,251.214,344.418,248.19,343.883Z" transform="translate(-218.179 -299.707)" fill="#f9b5b2" fill-rule="evenodd"/>
        <path id="Trazado_1178066" data-name="Trazado 1178066" d="M95.513,333.369l11.087-7.8c3.387-2.336,8.092-.858,5.22,1.894-3.583,3.435-12.089,13.031-18.659,15.4-8.938,2.967-15.1-1.8-22.178-1.8L60.6,339.851l.183-10.249c12.617-1.195,13.691,1.269,21-4.981,1.585-1.362,2.935-3.782,5.1-2.756,2.584,1.226-1.4,6-4.058,7.891C77.557,333.51,90.992,337.446,95.513,333.369Z" transform="translate(-57.019 -290.675)" fill="#e97579" fill-rule="evenodd"/>
        <path id="Trazado_1178067" data-name="Trazado 1178067" d="M99.465,333.369l11.087-7.8a6.194,6.194,0,0,1,4.573-1.067c-4.441,4.182-13.867,12.648-19.781,14.781-8.207,2.445-12.6-2.623-19.673-2.628L65.2,335.665l.108-6.115c12.077-1.071,13.231,1.226,20.424-4.928,1.585-1.362,2.935-3.782,5.1-2.756,2.584,1.226-1.4,6-4.058,7.891C81.508,333.51,94.944,337.446,99.465,333.369Z" transform="translate(-60.971 -290.675)" fill="#f9b5b2" fill-rule="evenodd"/>
        <path id="Trazado_1178068" data-name="Trazado 1178068" d="M50.613,356.51h3.5a2.02,2.02,0,0,1,2.013,2.013V370.84a2.021,2.021,0,0,1-2.013,2.013h-3.5A2.017,2.017,0,0,1,48.6,370.84V358.523A2.018,2.018,0,0,1,50.613,356.51Z" transform="translate(-46.71 -320.649)" fill="#cf6b28" fill-rule="evenodd"/>
        <path id="Trazado_1178069" data-name="Trazado 1178069" d="M52.362,356.51H50.613a1.946,1.946,0,0,0-2.013,1.861v12.62a1.946,1.946,0,0,0,2.013,1.861h1.748Z" transform="translate(-46.71 -320.649)" fill="#f6851f" fill-rule="evenodd"/>
        <path id="Trazado_1178070" data-name="Trazado 1178070" d="M57.908,110.821l4.182-7.528a2.517,2.517,0,1,1,4.4,2.447c-1.114,2-4.7,9.05-6.454,11.753a3.871,3.871,0,0,0-.659,2.2v7.288a2.529,2.529,0,0,1-2.525,2.523H45.142a2.53,2.53,0,0,1-2.525-2.523V119.7a3.86,3.86,0,0,0-.659-2.2c-1.757-2.7-5.34-9.748-6.454-11.753a2.517,2.517,0,1,1,4.4-2.447l4.034,7.257c.7,1.267,1.406,2.932,2.556,3.806a8.248,8.248,0,0,0,6.881,1C56.266,114.56,56.622,113.134,57.908,110.821Z" transform="translate(-35.186 -101.995)" fill="#718446" fill-rule="evenodd"/>
        <path id="Trazado_1178071" data-name="Trazado 1178071" d="M57.917,110.812l4.182-7.528a2.517,2.517,0,1,1,4.4,2.447c-1.114,2-4.7,9.05-6.454,11.753a3.871,3.871,0,0,0-.659,2.2v.882a26.967,26.967,0,0,1-15.029,4.393c-.583,0-1.158-.016-1.729-.048v-5.229a3.86,3.86,0,0,0-.659-2.2c-1.757-2.7-5.34-9.748-6.454-11.753a2.517,2.517,0,1,1,4.4-2.447l4.034,7.257c.7,1.267,1.406,2.932,2.556,3.806a8.248,8.248,0,0,0,6.881,1c2.89-.8,3.246-2.222,4.533-4.535Z" transform="translate(-35.195 -101.986)" fill="#9bb561" fill-rule="evenodd"/>
        <path id="Trazado_1178072" data-name="Trazado 1178072" d="M268.53,110.821l-4.182-7.528a2.517,2.517,0,1,0-4.4,2.447c1.114,2,4.7,9.05,6.454,11.753a3.867,3.867,0,0,1,.655,2.2v7.288a2.533,2.533,0,0,0,2.528,2.523h11.71a2.53,2.53,0,0,0,2.525-2.523V119.7a3.888,3.888,0,0,1,.655-2.2c1.761-2.7,5.344-9.748,6.459-11.753a2.517,2.517,0,1,0-4.4-2.447L282.5,110.55c-.7,1.267-1.41,2.932-2.556,3.806a8.251,8.251,0,0,1-6.881,1C270.171,114.56,269.815,113.134,268.53,110.821Z" transform="translate(-228.007 -101.995)" fill="#58639c" fill-rule="evenodd"/>
        <path id="Trazado_1178073" data-name="Trazado 1178073" d="M268.53,110.821l-4.182-7.528a2.517,2.517,0,1,0-4.4,2.447c1.114,2,4.7,9.05,6.454,11.753a3.867,3.867,0,0,1,.655,2.2v1.043a27.064,27.064,0,0,0,14.8,4.234c.664,0,1.317-.02,1.965-.063V119.7a3.888,3.888,0,0,1,.655-2.2c1.761-2.7,5.344-9.748,6.459-11.753a2.517,2.517,0,1,0-4.4-2.447l-4.034,7.257c-.7,1.267-1.41,2.932-2.556,3.806a8.251,8.251,0,0,1-6.881,1c-2.891-.8-3.248-2.225-4.533-4.538Z" transform="translate(-228.007 -101.995)" fill="#868db6" fill-rule="evenodd"/>
        <path id="Trazado_1178074" data-name="Trazado 1178074" d="M198.447,212.09h7.388c3,0,5.447,2.161,5.447,4.8V224.1H193V216.89C193,214.25,195.452,212.09,198.447,212.09Z" transform="translate(-170.765 -196.577)" fill="#991b1e" fill-rule="evenodd"/>
        <path id="Trazado_1178075" data-name="Trazado 1178075" d="M198.438,212.09h7.388a5.749,5.749,0,0,1,4.221,1.774c-.975,3.272-5.279,6.274-10.444,7.053a13.807,13.807,0,0,1-6.614-.479v-3.546C192.991,214.25,195.443,212.09,198.438,212.09Z" transform="translate(-170.756 -196.577)" fill="#ed2024" fill-rule="evenodd"/>
        <path id="Trazado_1178076" data-name="Trazado 1178076" d="M339.2,123.9a5.35,5.35,0,1,0,5.351,5.351A5.351,5.351,0,0,0,339.2,123.9Z" transform="translate(-291.77 -120.813)" fill="#f9b5b2" fill-rule="evenodd"/>
        <path id="Trazado_1178077" data-name="Trazado 1178077" d="M114.791,123.9a5.35,5.35,0,1,1-5.351,5.351,5.351,5.351,0,0,1,5.351-5.351Z" transform="translate(-98.978 -120.813)" fill="#f9b5b2" fill-rule="evenodd"/>
        <path id="Trazado_1178078" data-name="Trazado 1178078" d="M225.251,148.11a5.351,5.351,0,1,0,5.351,5.351A5.351,5.351,0,0,0,225.251,148.11Z" transform="translate(-193.875 -141.611)" fill="#f9b5b2" fill-rule="evenodd"/>
      </g>
      <path id="Trazado_1178079" data-name="Trazado 1178079" d="M60.919,40.993a4.365,4.365,0,1,0,4.365,4.365A4.366,4.366,0,0,0,60.919,40.993Zm-4.48-.116a6.32,6.32,0,0,1,2.1-1.393c.6-1.138,1.1-2.092,1.446-2.708a1.536,1.536,0,0,0-2.684-1.493L53.124,42.81c-1.338,2.408-1.753,4.073-5.129,5.012L47.244,48a6.413,6.413,0,0,1-1.889.283,6.311,6.311,0,0,1-1.746-.244,8.4,8.4,0,0,1-1.77-.495c-2.58-1.043-3.163-2.771-4.4-5L33.4,35.282a1.535,1.535,0,0,0-2.683,1.493c.351.631.875,1.622,1.5,2.8,1.546,2.928,3.7,7.016,4.924,8.895a4.859,4.859,0,0,1,.819,2.74V58.5A1.54,1.54,0,0,0,39.5,60.04H50.79V53.821a5.488,5.488,0,0,1,1.849-4.049c.595-.544.324-.139.583-.69.183-.379,1.422-2.332,1.478-2.492a6.378,6.378,0,0,1,1.739-5.712Zm4.572-1.853c.1,0,.211,0,.316.013l-.159-.3Zm2.94.771a6.33,6.33,0,0,1,3.307,5.564c0,.18-.008.359-.024.535.272.479.527.927.759,1.326a19.573,19.573,0,0,1,1.238,2.149,3.984,3.984,0,0,1,.207.635,5.437,5.437,0,0,1,1.609,3.818v6.219H82.83A1.544,1.544,0,0,0,84.371,58.5V51.216a4.891,4.891,0,0,1,.814-2.74c1.222-1.877,3.379-5.967,4.924-8.895.623-1.182,1.147-2.173,1.5-2.8a1.536,1.536,0,0,0-2.684-1.493l-4.034,7.26c-1.234,2.229-1.822,3.958-4.4,5a8.167,8.167,0,0,1-1.77.495,6.31,6.31,0,0,1-1.746.244A6.42,6.42,0,0,1,75.083,48l-.751-.176c-3.37-.938-3.79-2.6-5.129-5.012l-4.182-7.528a1.535,1.535,0,0,0-2.683,1.493ZM65.2,50.035a6.335,6.335,0,0,1-8.555,0c-1.977.224-3.877,1.681-3.877,3.786V60.04h2.8V55.751a.986.986,0,0,1,1.973,0V60.04H64.3V55.751a.986.986,0,0,1,1.973,0V60.04h2.8V53.821c0-2.081-1.888-3.563-3.877-3.786ZM45.356,35.609a6.341,6.341,0,0,1,6.315,5.775l3.918-7.057a3.5,3.5,0,0,1,5.579-.731,3.5,3.5,0,0,1,5.575.731l3.918,7.057a6.34,6.34,0,0,1,12.63,0l3.918-7.057a3.5,3.5,0,1,1,6.118,3.4c-1.75,3.231-4.813,9.238-6.49,11.814a2.873,2.873,0,0,0-.5,1.67V58.5a3.516,3.516,0,0,1-3.511,3.511H71.121a3.674,3.674,0,0,1-.695-.068,1,1,0,0,1-.364.068H51.778a1.268,1.268,0,0,1-.2-.02c-.128.011-.248.02-.364.02H39.5A3.519,3.519,0,0,1,35.99,58.5V51.213a2.882,2.882,0,0,0-.495-1.67c-1.8-2.76-4.537-8.231-6.49-11.814a3.468,3.468,0,0,1-.307-2.66,3.507,3.507,0,0,1,6.43-.743l3.914,7.057a6.339,6.339,0,0,1,6.313-5.775Zm3.087,3.25a4.365,4.365,0,1,0,0,6.171A4.366,4.366,0,0,0,48.443,38.86Zm28.532-1.278a4.365,4.365,0,1,0,4.365,4.365A4.363,4.363,0,0,0,76.976,37.582ZM39.325,31.854a.983.983,0,1,1-1.23-1.534,37.111,37.111,0,0,1,46.141,0,.983.983,0,1,1-1.23,1.534,35.175,35.175,0,0,0-43.681,0ZM33.446,68.382h3.5a3.009,3.009,0,0,1,2.983,2.688c.635-.015,1.243-.024,1.809-.032,5.044-.08,6.986-.108,11.921-4.334.331-.283.675-.642,1.014-1,1.417-1.489,2.843-2.987,5.14-1.9,1.717.814,1.626,2.592.9,4.121a16.68,16.68,0,0,1-4.8,5.464c-1,.712-1.014,1.15-.2,1.794a97.623,97.623,0,0,0,10.364-7.8,4.26,4.26,0,0,1,5.447.18l2.065-1.794,0,0a4.339,4.339,0,0,1,6.146,1.154c1.813-.823,4.306-1.01,5.675.124a2.118,2.118,0,0,1,.795,1.437A3.124,3.124,0,0,1,85.025,71c-.642.616-1.45,1.434-2.373,2.373C78.383,77.715,71.609,84.6,66.014,86.618a.368.368,0,0,1-.052.02c-5.882,1.944-10.54.719-15.012-.459A29.684,29.684,0,0,0,43.5,84.873a1.018,1.018,0,0,1-.111,0l-3.546-.411a3.008,3.008,0,0,1-2.9,2.24h-3.5a3.006,3.006,0,0,1-3-3V71.382a3,3,0,0,1,3-3Zm6.5,4.652v9.45l3.642.423a31.2,31.2,0,0,1,7.863,1.369c4.2,1.1,8.571,2.257,13.9.492C70.518,82.9,77.1,76.213,81.25,72c.938-.954,1.753-1.785,2.408-2.412.435-.42.607-.712.59-.895-.039-.359-2.253-1.043-4.509.479l-11.091,7.8a8.094,8.094,0,0,1-3.973,1.746,16.129,16.129,0,0,1-7.393-.583c-1.7-.555-3.81-1.633-4.1-3.387-.168-1.014.283-2.033,1.585-2.956a14.549,14.549,0,0,0,4.166-4.7c.168-.359.444-1.075.248-1.35a.555.555,0,0,0-.211-.152c-1.378-.655-2.7,1.47-4.034,2.612-5.471,4.68-7.612,4.713-13.175,4.8-.562.013-1.162.021-1.818.037Zm-3-2.68h-3.5a1.031,1.031,0,0,0-1.026,1.027V83.7a1.032,1.032,0,0,0,1.026,1.027h3.5A1.032,1.032,0,0,0,37.976,83.7V71.382a1.034,1.034,0,0,0-1.027-1.027Zm30.257,5.261.287-.235,10.56-7.432a2.381,2.381,0,0,0-3.226-.64,100.794,100.794,0,0,1-12.141,9.629A7.8,7.8,0,0,0,67.206,75.616ZM59.382,76.65A68.588,68.588,0,0,0,70.01,68.89a2.289,2.289,0,0,0-2.645-.013,97.533,97.533,0,0,1-9.629,7.332Z" transform="translate(0 0)"/>
    </g>
  </g>
</svg>
