<svg xmlns="http://www.w3.org/2000/svg" xmlns:xlink="http://www.w3.org/1999/xlink" width="113" height="113" viewBox="0 0 113 113">
  <defs>
    <filter id="Trazado_982547" x="0" y="0" width="113" height="113" filterUnits="userSpaceOnUse">
      <feOffset dy="3" input="SourceAlpha"/>
      <feGaussianBlur stdDeviation="3" result="blur"/>
      <feFlood flood-opacity="0.161"/>
      <feComposite operator="in" in2="blur"/>
      <feComposite in="SourceGraphic"/>
    </filter>
  </defs>
  <g id="Grupo_1223658" data-name="Grupo 1223658" transform="translate(-1112.49 -3848.71)">
    <g id="Grupo_1223177" data-name="Grupo 1223177" transform="translate(1121.49 3854.71)">
      <g id="Grupo_1211216" data-name="Grupo 1211216" transform="translate(0)">
        <g id="Grupo_1210737" data-name="Grupo 1210737">
          <g id="Grupo_1210537" data-name="Grupo 1210537">
            <g id="Grupo_1164202" data-name="Grupo 1164202">
              <g id="Grupo_1158168" data-name="Grupo 1158168">
                <g id="Grupo_1152576" data-name="Grupo 1152576">
                  <g id="Grupo_1148633" data-name="Grupo 1148633">
                    <g id="Grupo_1148525" data-name="Grupo 1148525">
                      <g transform="matrix(1, 0, 0, 1, -9, -6)" filter="url(#Trazado_982547)">
                        <g id="Trazado_982547-2" data-name="Trazado 982547" transform="translate(9 6)" fill="#fcf5f0">
                          <path d="M 47.49999618530273 93.5 C 41.28936767578125 93.5 35.26533126831055 92.28396606445312 29.59518241882324 89.88570404052734 C 24.11771583557129 87.56893157958984 19.19812965393066 84.251953125 14.97308921813965 80.02690124511719 C 10.74803638458252 75.80186462402344 7.431062698364258 70.88227844238281 5.114289283752441 65.40480804443359 C 2.716022968292236 59.73466110229492 1.499996185302734 53.71062469482422 1.499996185302734 47.49999618530273 C 1.499996185302734 41.28936767578125 2.716022968292236 35.26533126831055 5.114289283752441 29.59518241882324 C 7.431062698364258 24.11771583557129 10.74803638458252 19.19812965393066 14.97308921813965 14.97308921813965 C 19.19812965393066 10.74803638458252 24.11771583557129 7.431062698364258 29.59518241882324 5.114289283752441 C 35.26533126831055 2.716022968292236 41.28936767578125 1.499996185302734 47.49999618530273 1.499996185302734 C 53.71062469482422 1.499996185302734 59.73466110229492 2.716022968292236 65.40480804443359 5.114289283752441 C 70.88227844238281 7.431062698364258 75.80186462402344 10.74803638458252 80.02690124511719 14.97308921813965 C 84.251953125 19.19812965393066 87.56893157958984 24.11771583557129 89.88570404052734 29.59518241882324 C 92.28396606445312 35.26533126831055 93.5 41.28936767578125 93.5 47.49999618530273 C 93.5 53.71062469482422 92.28396606445312 59.73466110229492 89.88570404052734 65.40480804443359 C 87.56893157958984 70.88227844238281 84.251953125 75.80186462402344 80.02690124511719 80.02690124511719 C 75.80186462402344 84.251953125 70.88227844238281 87.56893157958984 65.40480804443359 89.88570404052734 C 59.73466110229492 92.28396606445312 53.71062469482422 93.5 47.49999618530273 93.5 Z" stroke="none"/>
                          <path d="M 47.49999618530273 2.999992370605469 C 41.4912109375 2.999992370605469 35.66376495361328 4.1761474609375 30.17950439453125 6.495796203613281 C 24.88084411621094 8.736953735351562 20.12152099609375 11.94598388671875 16.03375244140625 16.03375244140625 C 11.94598388671875 20.12152099609375 8.736953735351562 24.88084411621094 6.495796203613281 30.17950439453125 C 4.1761474609375 35.66376495361328 2.999992370605469 41.4912109375 2.999992370605469 47.49999618530273 C 2.999992370605469 53.50878143310547 4.1761474609375 59.33622741699219 6.495796203613281 64.82048797607422 C 8.736953735351562 70.11914825439453 11.94598388671875 74.87847137451172 16.03375244140625 78.96623992919922 C 20.12152099609375 83.05400848388672 24.88084411621094 86.26304626464844 30.17950439453125 88.50419616699219 C 35.66376495361328 90.82384490966797 41.4912109375 92 47.49999618530273 92 C 53.50878143310547 92 59.33622741699219 90.82384490966797 64.82048797607422 88.50419616699219 C 70.11914825439453 86.26304626464844 74.87847137451172 83.05400848388672 78.96623992919922 78.96623992919922 C 83.05400848388672 74.87847137451172 86.26304626464844 70.11914825439453 88.50419616699219 64.82048797607422 C 90.82384490966797 59.33622741699219 92 53.50878143310547 92 47.49999618530273 C 92 41.4912109375 90.82384490966797 35.66376495361328 88.50419616699219 30.17950439453125 C 86.26304626464844 24.88084411621094 83.05400848388672 20.12152099609375 78.96623992919922 16.03375244140625 C 74.87847137451172 11.94598388671875 70.11914825439453 8.736953735351562 64.82048797607422 6.495796203613281 C 59.33622741699219 4.1761474609375 53.50878143310547 2.999992370605469 47.49999618530273 2.999992370605469 M 47.49999618530273 -7.62939453125e-06 C 73.7335205078125 -7.62939453125e-06 95 21.26647186279297 95 47.49999618530273 C 95 73.7335205078125 73.7335205078125 95 47.49999618530273 95 C 21.26647186279297 95 -7.62939453125e-06 73.7335205078125 -7.62939453125e-06 47.49999618530273 C -7.62939453125e-06 21.26647186279297 21.26647186279297 -7.62939453125e-06 47.49999618530273 -7.62939453125e-06 Z" stroke="none" fill="#eca675"/>
                        </g>
                      </g>
                    </g>
                  </g>
                </g>
              </g>
            </g>
          </g>
        </g>
      </g>
    </g>
    <g id="talk_3702541" transform="translate(1138.142 3872.352)">
      <path id="Trazado_1178080" data-name="Trazado 1178080" d="M48.964,54h2.793a5.585,5.585,0,0,1,5.586,5.585v1.862H35V59.585A5.585,5.585,0,0,1,40.585,54h2.793" transform="translate(-2.349 -3.661)" fill="#3b5892"/>
      <path id="Trazado_1178081" data-name="Trazado 1178081" d="M49.585,51.326v2.489a2.793,2.793,0,1,1-5.585,0V51.326a6.529,6.529,0,0,0,5.585,0Z" transform="translate(-2.971 -3.477)" fill="#f2b9a1"/>
      <path id="Trazado_1178082" data-name="Trazado 1178082" d="M18.964,54h2.793a5.585,5.585,0,0,1,5.585,5.585v1.862H5V59.585A5.585,5.585,0,0,1,10.585,54h2.793" transform="translate(-0.276 -3.661)" fill="#d5883e"/>
      <path id="Trazado_1178083" data-name="Trazado 1178083" d="M19.585,51.326v2.489a2.793,2.793,0,1,1-5.585,0V51.326a6.529,6.529,0,0,0,5.585,0Z" transform="translate(-0.898 -3.477)" fill="#f2b9a1"/>
      <path id="Trazado_1178084" data-name="Trazado 1178084" d="M22.895,39.447A7.447,7.447,0,0,0,8,39.447h4.09a4.934,4.934,0,0,1,2.739.83,6.151,6.151,0,0,0,6.821,0Z" transform="translate(-0.484 -2.142)" fill="#674025"/>
      <path id="Trazado_1178085" data-name="Trazado 1178085" d="M23.033,40v4.655a6.516,6.516,0,0,1-13.033,0V40h2.229a4.934,4.934,0,0,1,2.739.83,6.151,6.151,0,0,0,6.821,0Z" transform="translate(-0.622 -2.694)" fill="#fbe1ca"/>
      <path id="Trazado_1178086" data-name="Trazado 1178086" d="M19,41.436v-1.3a11.087,11.087,0,0,1,1.862-6.15l.093-.151a7.432,7.432,0,0,1,2.7,5.736l-1.244.829A6.152,6.152,0,0,1,19,41.436Z" transform="translate(-1.244 -2.269)" fill="#976947"/>
      <path id="Trazado_1178087" data-name="Trazado 1178087" d="M2,22.48V5.724A3.724,3.724,0,0,1,5.724,2H54.131a3.724,3.724,0,0,1,3.724,3.724V22.48A3.724,3.724,0,0,1,54.131,26.2H34.582l-4.655,5.585L25.273,26.2H5.724A3.724,3.724,0,0,1,2,22.48Z" transform="translate(-0.069 -0.069)" fill="#8ab1db"/>
      <circle id="Elipse_14707" data-name="Elipse 14707" cx="9" cy="9" r="9" transform="translate(20.858 5.858)" fill="#c0dafc"/>
      <path id="Trazado_1178088" data-name="Trazado 1178088" d="M40.573,15H22.048c-.03.306-.046.617-.046.931a9.371,9.371,0,0,0,.238,2.1,5.582,5.582,0,0,1,4.973.876l.745.559a5.585,5.585,0,0,0,6.7,0l.745-.559a5.586,5.586,0,0,1,4.975-.876,9.371,9.371,0,0,0,.238-2.1c0-.314-.016-.625-.046-.931Z" transform="translate(-1.451 -0.967)" fill="#3b5892"/>
      <path id="Trazado_1178089" data-name="Trazado 1178089" d="M40.4,18.241a9.309,9.309,0,0,1-18.142,0,5.586,5.586,0,0,1,4.975.876l.745.559a5.585,5.585,0,0,0,6.7,0l.745-.559a5.586,5.586,0,0,1,4.975-.876Z" transform="translate(-1.468 -1.174)" fill="#5e87ca"/>
      <path id="Trazado_1178090" data-name="Trazado 1178090" d="M41.332,14.724l-2.3-2.3a4.867,4.867,0,0,0-6.482-.358l-.224.179c.065.059.128.118.186.18l2.3,2.3Z" transform="translate(-2.164 -0.691)" fill="#4d8c28"/>
      <path id="Trazado_1178091" data-name="Trazado 1178091" d="M34.1,14.724l-2.3-2.3a4.867,4.867,0,0,0-6.482-.358L22,14.724Z" transform="translate(-1.451 -0.691)" fill="#559b2d"/>
      <path id="Trazado_1178092" data-name="Trazado 1178092" d="M53.033,40v4.655a6.516,6.516,0,0,1-13.033,0V40" transform="translate(-2.694 -2.694)" fill="#fbe1ca"/>
      <path id="Trazado_1178093" data-name="Trazado 1178093" d="M3.724,0H16.756V1.862a5.585,5.585,0,0,1-5.585,5.585H0V3.724A3.724,3.724,0,0,1,3.724,0Z" transform="translate(54.062 37.306) rotate(180)" fill="#976947"/>
      <path id="Trazado_1178094" data-name="Trazado 1178094" d="M46,6H57.171V22.756H46Z" transform="translate(-3.109 -0.345)" fill="#f2f2f2"/>
      <g id="Grupo_1223657" data-name="Grupo 1223657" transform="translate(45.684 8.447)">
        <path id="Trazado_1178095" data-name="Trazado 1178095" d="M49,9h5.585v1.862H49Z" transform="translate(-49 -9)" fill="#ccc"/>
        <path id="Trazado_1178096" data-name="Trazado 1178096" d="M49,13h5.585v1.862H49Z" transform="translate(-49 -9.276)" fill="#ccc"/>
        <path id="Trazado_1178097" data-name="Trazado 1178097" d="M49,17h5.585v1.862H49Z" transform="translate(-49 -9.553)" fill="#ccc"/>
      </g>
      <path id="Trazado_1178098" data-name="Trazado 1178098" d="M6,6H17.171V22.756H6Z" transform="translate(-0.345 -0.345)" fill="#f2f2f2"/>
      <path id="Trazado_1178099" data-name="Trazado 1178099" d="M9,9h5.585v1.862H9Z" transform="translate(-0.553 -0.553)" fill="#ccc"/>
      <path id="Trazado_1178100" data-name="Trazado 1178100" d="M9,13h5.585v1.862H9Z" transform="translate(-0.553 -0.829)" fill="#ccc"/>
      <path id="Trazado_1178101" data-name="Trazado 1178101" d="M9,17h5.585v1.862H9Z" transform="translate(-0.553 -1.105)" fill="#ccc"/>
      <path id="Trazado_1178102" data-name="Trazado 1178102" d="M21.687,51.48H19.826V50.473a7.447,7.447,0,0,0,3.724-6.44V39.378a8.378,8.378,0,0,0-16.756,0,.931.931,0,0,0,.931.931h.931v3.724a7.447,7.447,0,0,0,3.724,6.44V51.48H10.516A6.524,6.524,0,0,0,4,58v1.862a.931.931,0,0,0,.931.931H27.273a.931.931,0,0,0,.931-.931V58A6.524,6.524,0,0,0,21.687,51.48Zm-.019-12.588-.811.541a5.131,5.131,0,0,1-1.963.77v-.266a10.113,10.113,0,0,1,1.21-4.8,6.477,6.477,0,0,1,1.564,3.759Zm-6.5-6.03a6.478,6.478,0,0,1,3.5,1.024,11.976,11.976,0,0,0-1.642,6.051V40.2a5.131,5.131,0,0,1-1.963-.77,5.842,5.842,0,0,0-3.25-.981h-3.1a6.527,6.527,0,0,1,6.45-5.585ZM10.516,44.033V40.309h1.3a3.99,3.99,0,0,1,2.221.673,7.038,7.038,0,0,0,7.647.115v2.936a5.585,5.585,0,0,1-11.171,0ZM16.1,51.48a7.4,7.4,0,0,0,1.862-.245v1.176a1.862,1.862,0,1,1-3.724,0V51.235A7.4,7.4,0,0,0,16.1,51.48Zm10.24,7.447H5.862V58a4.66,4.66,0,0,1,4.655-4.655H12.51a3.706,3.706,0,0,0,7.183,0h1.994A4.66,4.66,0,0,1,26.342,58Z" transform="translate(-0.207 -2.073)"/>
      <path id="Trazado_1178103" data-name="Trazado 1178103" d="M51.687,51.48H49.826V50.473a7.447,7.447,0,0,0,3.724-6.44V40.216a4.663,4.663,0,0,0,3.724-4.561V31.931A.931.931,0,0,0,56.342,31H45.171a6.524,6.524,0,0,0-6.516,6.516v6.516a7.447,7.447,0,0,0,3.724,6.44V51.48H40.516A6.524,6.524,0,0,0,34,58v1.862a.931.931,0,0,0,.931.931H57.273a.931.931,0,0,0,.931-.931V58A6.524,6.524,0,0,0,51.687,51.48ZM40.516,37.516a4.66,4.66,0,0,1,4.655-4.655h10.24v2.793a2.793,2.793,0,0,1-2.793,2.793h-12.1Zm0,6.516V40.309H51.687v3.724a5.585,5.585,0,1,1-11.171,0ZM46.1,51.48a7.4,7.4,0,0,0,1.862-.245v1.176a1.862,1.862,0,1,1-3.724,0V51.235A7.4,7.4,0,0,0,46.1,51.48Zm10.24,7.447H35.862V58a4.66,4.66,0,0,1,4.655-4.655H42.51a3.706,3.706,0,0,0,7.183,0h1.994A4.66,4.66,0,0,1,56.342,58Z" transform="translate(-2.28 -2.073)"/>
      <path id="Trazado_1178104" data-name="Trazado 1178104" d="M54.062,1H5.655A4.66,4.66,0,0,0,1,5.655V22.411a4.66,4.66,0,0,0,4.655,4.655H24.768l4.375,5.251a.931.931,0,0,0,1.43,0l4.375-5.251H54.062a4.66,4.66,0,0,0,4.655-4.655V5.655A4.66,4.66,0,0,0,54.062,1Zm2.793,21.411A2.793,2.793,0,0,1,54.062,25.2H34.513a.931.931,0,0,0-.715.335l-3.94,4.727-3.94-4.727A.931.931,0,0,0,25.2,25.2H5.655a2.793,2.793,0,0,1-2.793-2.793V5.655A2.793,2.793,0,0,1,5.655,2.862H54.062a2.793,2.793,0,0,1,2.793,2.793Z"/>
      <path id="Trazado_1178105" data-name="Trazado 1178105" d="M31.24,5A10.24,10.24,0,1,0,41.48,15.24,10.24,10.24,0,0,0,31.24,5Zm0,1.862A8.373,8.373,0,0,1,38.391,10.9a5.732,5.732,0,0,0-6.823-.228,5.76,5.76,0,0,0-3.276-1.016,5.822,5.822,0,0,0-3.622,1.271l-1.042.838a8.383,8.383,0,0,1,7.611-4.9Zm3.178,6.516-1.409-1.414a3.91,3.91,0,0,1,4.588.7l.709.709Zm-3.342-.709.709.709h-7.2l1.248-1a3.953,3.953,0,0,1,2.459-.863,3.91,3.91,0,0,1,2.783,1.152ZM22.862,15.24H39.618a8.292,8.292,0,0,1-.066,1,6.616,6.616,0,0,0-4.775,1.232l-.745.559a4.778,4.778,0,0,1-5.585,0l-.745-.559a6.609,6.609,0,0,0-4.775-1.232,8.292,8.292,0,0,1-.066-1Zm8.378,8.378a8.386,8.386,0,0,1-7.878-5.555,4.723,4.723,0,0,1,3.224.9l.745.559a6.516,6.516,0,0,0,7.82,0l.745-.559a4.724,4.724,0,0,1,3.224-.9,8.386,8.386,0,0,1-7.878,5.555Z" transform="translate(-1.382 -0.276)"/>
      <path id="Trazado_1178106" data-name="Trazado 1178106" d="M57.1,5H45.931A.931.931,0,0,0,45,5.931V22.687a.931.931,0,0,0,.931.931H57.1a.931.931,0,0,0,.931-.931V5.931A.931.931,0,0,0,57.1,5Zm-.931,16.756H46.862V6.862h9.309Z" transform="translate(-3.04 -0.276)"/>
      <path id="Trazado_1178107" data-name="Trazado 1178107" d="M49,9h5.585v1.862H49Z" transform="translate(-3.316 -0.553)"/>
      <path id="Trazado_1178108" data-name="Trazado 1178108" d="M49,13h5.585v1.862H49Z" transform="translate(-3.316 -0.829)"/>
      <path id="Trazado_1178109" data-name="Trazado 1178109" d="M49,17h5.585v1.862H49Z" transform="translate(-3.316 -1.105)"/>
      <path id="Trazado_1178110" data-name="Trazado 1178110" d="M17.1,5H5.931A.931.931,0,0,0,5,5.931V22.687a.931.931,0,0,0,.931.931H17.1a.931.931,0,0,0,.931-.931V5.931A.931.931,0,0,0,17.1,5Zm-.931,16.756H6.862V6.862h9.309Z" transform="translate(-0.276 -0.276)"/>
      <path id="Trazado_1178111" data-name="Trazado 1178111" d="M9,9h5.585v1.862H9Z" transform="translate(-0.553 -0.553)"/>
      <path id="Trazado_1178112" data-name="Trazado 1178112" d="M9,13h5.585v1.862H9Z" transform="translate(-0.553 -0.829)"/>
      <path id="Trazado_1178113" data-name="Trazado 1178113" d="M9,17h5.585v1.862H9Z" transform="translate(-0.553 -1.105)"/>
    </g>
  </g>
</svg>
