<svg xmlns="http://www.w3.org/2000/svg" xmlns:xlink="http://www.w3.org/1999/xlink" width="113" height="113" viewBox="0 0 113 113">
  <defs>
    <filter id="Trazado_982547" x="0" y="0" width="113" height="113" filterUnits="userSpaceOnUse">
      <feOffset dy="3" input="SourceAlpha"/>
      <feGaussianBlur stdDeviation="3" result="blur"/>
      <feFlood flood-opacity="0.161"/>
      <feComposite operator="in" in2="blur"/>
      <feComposite in="SourceGraphic"/>
    </filter>
  </defs>
  <g id="Grupo_1223661" data-name="Grupo 1223661" transform="translate(-5103.49 -3848.71)">
    <g id="Grupo_1223179" data-name="Grupo 1223179" transform="translate(5112.49 3854.71)">
      <g id="Grupo_1211216" data-name="Grupo 1211216" transform="translate(0)">
        <g id="Grupo_1210737" data-name="Grupo 1210737">
          <g id="Grupo_1210537" data-name="Grupo 1210537">
            <g id="Grupo_1164202" data-name="Grupo 1164202">
              <g id="Grupo_1158168" data-name="Grupo 1158168">
                <g id="Grupo_1152576" data-name="Grupo 1152576">
                  <g id="Grupo_1148633" data-name="Grupo 1148633">
                    <g id="Grupo_1148525" data-name="Grupo 1148525">
                      <g transform="matrix(1, 0, 0, 1, -9, -6)" filter="url(#Trazado_982547)">
                        <g id="Trazado_982547-2" data-name="Trazado 982547" transform="translate(9 6)" fill="#fcf5f0">
                          <path d="M 47.49999618530273 93.5 C 41.28936767578125 93.5 35.26533126831055 92.28396606445312 29.59518241882324 89.88570404052734 C 24.11771583557129 87.56893157958984 19.19812965393066 84.251953125 14.97308921813965 80.02690124511719 C 10.74803638458252 75.80186462402344 7.431062698364258 70.88227844238281 5.114289283752441 65.40480804443359 C 2.716022968292236 59.73466110229492 1.499996185302734 53.71062469482422 1.499996185302734 47.49999618530273 C 1.499996185302734 41.28936767578125 2.716022968292236 35.26533126831055 5.114289283752441 29.59518241882324 C 7.431062698364258 24.11771583557129 10.74803638458252 19.19812965393066 14.97308921813965 14.97308921813965 C 19.19812965393066 10.74803638458252 24.11771583557129 7.431062698364258 29.59518241882324 5.114289283752441 C 35.26533126831055 2.716022968292236 41.28936767578125 1.499996185302734 47.49999618530273 1.499996185302734 C 53.71062469482422 1.499996185302734 59.73466110229492 2.716022968292236 65.40480804443359 5.114289283752441 C 70.88227844238281 7.431062698364258 75.80186462402344 10.74803638458252 80.02690124511719 14.97308921813965 C 84.251953125 19.19812965393066 87.56893157958984 24.11771583557129 89.88570404052734 29.59518241882324 C 92.28396606445312 35.26533126831055 93.5 41.28936767578125 93.5 47.49999618530273 C 93.5 53.71062469482422 92.28396606445312 59.73466110229492 89.88570404052734 65.40480804443359 C 87.56893157958984 70.88227844238281 84.251953125 75.80186462402344 80.02690124511719 80.02690124511719 C 75.80186462402344 84.251953125 70.88227844238281 87.56893157958984 65.40480804443359 89.88570404052734 C 59.73466110229492 92.28396606445312 53.71062469482422 93.5 47.49999618530273 93.5 Z" stroke="none"/>
                          <path d="M 47.49999618530273 2.999992370605469 C 41.4912109375 2.999992370605469 35.66376495361328 4.1761474609375 30.17950439453125 6.495796203613281 C 24.88084411621094 8.736953735351562 20.12152099609375 11.94598388671875 16.03375244140625 16.03375244140625 C 11.94598388671875 20.12152099609375 8.736953735351562 24.88084411621094 6.495796203613281 30.17950439453125 C 4.1761474609375 35.66376495361328 2.999992370605469 41.4912109375 2.999992370605469 47.49999618530273 C 2.999992370605469 53.50878143310547 4.1761474609375 59.33622741699219 6.495796203613281 64.82048797607422 C 8.736953735351562 70.11914825439453 11.94598388671875 74.87847137451172 16.03375244140625 78.96623992919922 C 20.12152099609375 83.05400848388672 24.88084411621094 86.26304626464844 30.17950439453125 88.50419616699219 C 35.66376495361328 90.82384490966797 41.4912109375 92 47.49999618530273 92 C 53.50878143310547 92 59.33622741699219 90.82384490966797 64.82048797607422 88.50419616699219 C 70.11914825439453 86.26304626464844 74.87847137451172 83.05400848388672 78.96623992919922 78.96623992919922 C 83.05400848388672 74.87847137451172 86.26304626464844 70.11914825439453 88.50419616699219 64.82048797607422 C 90.82384490966797 59.33622741699219 92 53.50878143310547 92 47.49999618530273 C 92 41.4912109375 90.82384490966797 35.66376495361328 88.50419616699219 30.17950439453125 C 86.26304626464844 24.88084411621094 83.05400848388672 20.12152099609375 78.96623992919922 16.03375244140625 C 74.87847137451172 11.94598388671875 70.11914825439453 8.736953735351562 64.82048797607422 6.495796203613281 C 59.33622741699219 4.1761474609375 53.50878143310547 2.999992370605469 47.49999618530273 2.999992370605469 M 47.49999618530273 -7.62939453125e-06 C 73.7335205078125 -7.62939453125e-06 95 21.26647186279297 95 47.49999618530273 C 95 73.7335205078125 73.7335205078125 95 47.49999618530273 95 C 21.26647186279297 95 -7.62939453125e-06 73.7335205078125 -7.62939453125e-06 47.49999618530273 C -7.62939453125e-06 21.26647186279297 21.26647186279297 -7.62939453125e-06 47.49999618530273 -7.62939453125e-06 Z" stroke="none" fill="#eca675"/>
                        </g>
                      </g>
                    </g>
                  </g>
                </g>
              </g>
            </g>
          </g>
        </g>
      </g>
    </g>
    <g id="mortarboard_950106" transform="translate(5129.086 3870.815)">
      <path id="Trazado_1178125" data-name="Trazado 1178125" d="M68.7,16.371,38.348,8,8,16.371l7.485,2.065,5.746,1.585L15.325,36.254l23.023,6.279,23.023-6.279L55.465,20.021Z" transform="translate(-6.954 -6.952)" fill="#4b6378"/>
      <path id="Trazado_1178126" data-name="Trazado 1178126" d="M203.252,306.638a1.047,1.047,0,0,1,.306-.74l3.139-3.139a1.046,1.046,0,0,0,0-1.48l-1.66-1.66a1.046,1.046,0,0,0-1.48,0l-1.66,1.66a1.046,1.046,0,0,1-1.48,0l-1.66-1.66a1.046,1.046,0,0,0-1.48,0l-1.66,1.66a1.046,1.046,0,0,0,0,1.48l3.139,3.139a1.046,1.046,0,0,1,.307.74v5.846h4.186v-5.846Z" transform="translate(-169.764 -260.159)" fill="#e85d25"/>
      <path id="Trazado_1178127" data-name="Trazado 1178127" d="M192,400v3.139a6.279,6.279,0,0,0,12.558,0V400Z" transform="translate(-166.884 -347.674)" fill="#a3a3a3"/>
      <path id="Trazado_1178128" data-name="Trazado 1178128" d="M136,249.829a13.6,13.6,0,0,0,7.325,12.062v3.636h4.186v-5.846a1.047,1.047,0,0,0-.306-.74l-3.139-3.139a1.046,1.046,0,0,1,0-1.48l1.66-1.66a1.046,1.046,0,0,1,1.48,0l1.66,1.66a1.046,1.046,0,0,0,1.48,0l1.66-1.66a1.046,1.046,0,0,1,1.48,0l1.66,1.66a1.046,1.046,0,0,1,0,1.48L152,258.941a1.046,1.046,0,0,0-.306.74v5.846h4.186v-3.636a13.549,13.549,0,0,0,6.533-16.6L149.6,248.783l-12.811-3.494A13.55,13.55,0,0,0,136,249.829Z" transform="translate(-118.21 -213.202)" fill="#ffebdb"/>
      <path id="Trazado_1178129" data-name="Trazado 1178129" d="M62.021,8.41,31.673.038a1.051,1.051,0,0,0-.557,0L.768,8.41a1.046,1.046,0,0,0,0,2.017l6.557,1.809v4.508H6.279v1.849l-6.02,6.88,1.575,1.379,3.9-4.458L3.193,30.018l1.986.662L9.126,18.837h1.339V16.744H9.418v-3.93l3.488.962L7.388,28.944A1.046,1.046,0,0,0,8.1,30.312l9.169,2.5a14.558,14.558,0,0,0,6.8,16.5v6.156a7.325,7.325,0,1,0,14.651,0V49.308a14.558,14.558,0,0,0,6.8-16.5l9.169-2.5a1.046,1.046,0,0,0,.708-1.367L49.882,13.776l12.139-3.349a1.046,1.046,0,0,0,0-2.017ZM26.162,53.371H36.627v1.046H26.162ZM29.735,45,26.6,41.86l1.66-1.66,1.66,1.66a2.142,2.142,0,0,0,2.96,0l1.66-1.66,1.66,1.66L33.054,45a2.079,2.079,0,0,0-.613,1.48v4.8H30.348v-4.8A2.079,2.079,0,0,0,29.735,45Zm1.66,15.7a5.241,5.241,0,0,1-5.127-4.186H36.521A5.241,5.241,0,0,1,31.395,60.7ZM43.952,36.627A12.526,12.526,0,0,1,37.19,47.761a1.046,1.046,0,0,0-.563.928v2.589H34.534v-4.8l3.139-3.139a2.1,2.1,0,0,0,0-2.96l-1.66-1.66a2.094,2.094,0,0,0-2.96,0l-1.66,1.66-1.66-1.66a2.094,2.094,0,0,0-2.96,0l-1.66,1.66a2.1,2.1,0,0,0,0,2.96l3.139,3.139v4.8H26.162V48.689a1.046,1.046,0,0,0-.563-.928,12.526,12.526,0,0,1-6.763-11.134,12.378,12.378,0,0,1,.447-3.265l11.835,3.228a1.05,1.05,0,0,0,.551,0l11.835-3.228A12.379,12.379,0,0,1,43.952,36.627Zm9.093-8.036L31.395,34.5l-21.651-5.9,5.187-14.257L31.116,18.8a1.045,1.045,0,0,0,.557,0l16.185-4.465ZM48.234,12.06h0L31.395,16.705,14.556,12.06h0l-1.275-.352L25.5,9.551c.945,1.337,3.488,1.961,5.892,1.961,3.024,0,6.279-.983,6.279-3.139s-3.255-3.139-6.279-3.139c-2.553,0-5.263.7-6.048,2.22L8.582,10.412l-3.6-.993L31.395,2.132,57.808,9.419Zm-21-3.688c.27-.342,1.7-1.046,4.16-1.046s3.89.7,4.16,1.046c-.27.342-1.7,1.046-4.16,1.046S27.5,8.715,27.235,8.372Z"/>
      <path id="Trazado_1178130" data-name="Trazado 1178130" d="M58.093,296H56a24.158,24.158,0,0,0,12.037,20.85l1.048-1.812A22.059,22.059,0,0,1,58.093,296Z" transform="translate(-48.675 -257.279)"/>
      <path id="Trazado_1178131" data-name="Trazado 1178131" d="M337.078,296h-2.093A22.059,22.059,0,0,1,324,315.035l1.048,1.812A24.159,24.159,0,0,0,337.078,296Z" transform="translate(-281.614 -257.279)"/>
      <path id="Trazado_1178132" data-name="Trazado 1178132" d="M386.758,318.137l1.371,1.581A31.4,31.4,0,0,0,398.955,296h-2.093A29.3,29.3,0,0,1,386.758,318.137Z" transform="translate(-336.166 -257.279)"/>
      <path id="Trazado_1178133" data-name="Trazado 1178133" d="M0,296a31.378,31.378,0,0,0,10.942,23.819l1.364-1.587A29.287,29.287,0,0,1,2.093,296Z" transform="translate(0 -257.279)"/>
    </g>
  </g>
</svg>
