<svg xmlns="http://www.w3.org/2000/svg" xmlns:xlink="http://www.w3.org/1999/xlink" width="113" height="113" viewBox="0 0 113 113">
  <defs>
    <filter id="Trazado_982547" x="0" y="0" width="113" height="113" filterUnits="userSpaceOnUse">
      <feOffset dy="3" input="SourceAlpha"/>
      <feGaussianBlur stdDeviation="3" result="blur"/>
      <feFlood flood-opacity="0.161"/>
      <feComposite operator="in" in2="blur"/>
      <feComposite in="SourceGraphic"/>
    </filter>
  </defs>
  <g id="Grupo_1223672" data-name="Grupo 1223672" transform="translate(-674 -4575.069)">
    <g id="Grupo_1223184" data-name="Grupo 1223184" transform="translate(683 4581.069)">
      <g id="Grupo_1211216" data-name="Grupo 1211216" transform="translate(0)">
        <g id="Grupo_1210737" data-name="Grupo 1210737">
          <g id="Grupo_1210537" data-name="Grupo 1210537">
            <g id="Grupo_1164202" data-name="Grupo 1164202">
              <g id="Grupo_1158168" data-name="Grupo 1158168">
                <g id="Grupo_1152576" data-name="Grupo 1152576">
                  <g id="Grupo_1148633" data-name="Grupo 1148633">
                    <g id="Grupo_1148525" data-name="Grupo 1148525">
                      <g transform="matrix(1, 0, 0, 1, -9, -6)" filter="url(#Trazado_982547)">
                        <g id="Trazado_982547-2" data-name="Trazado 982547" transform="translate(9 6)" fill="#fcf5f0">
                          <path d="M 47.49999618530273 93.5 C 41.28936767578125 93.5 35.26533126831055 92.28396606445312 29.59518241882324 89.88570404052734 C 24.11771583557129 87.56893157958984 19.19812965393066 84.251953125 14.97308921813965 80.02690124511719 C 10.74803638458252 75.80186462402344 7.431062698364258 70.88227844238281 5.114289283752441 65.40480804443359 C 2.716022968292236 59.73466110229492 1.499996185302734 53.71062469482422 1.499996185302734 47.49999618530273 C 1.499996185302734 41.28936767578125 2.716022968292236 35.26533126831055 5.114289283752441 29.59518241882324 C 7.431062698364258 24.11771583557129 10.74803638458252 19.19812965393066 14.97308921813965 14.97308921813965 C 19.19812965393066 10.74803638458252 24.11771583557129 7.431062698364258 29.59518241882324 5.114289283752441 C 35.26533126831055 2.716022968292236 41.28936767578125 1.499996185302734 47.49999618530273 1.499996185302734 C 53.71062469482422 1.499996185302734 59.73466110229492 2.716022968292236 65.40480804443359 5.114289283752441 C 70.88227844238281 7.431062698364258 75.80186462402344 10.74803638458252 80.02690124511719 14.97308921813965 C 84.251953125 19.19812965393066 87.56893157958984 24.11771583557129 89.88570404052734 29.59518241882324 C 92.28396606445312 35.26533126831055 93.5 41.28936767578125 93.5 47.49999618530273 C 93.5 53.71062469482422 92.28396606445312 59.73466110229492 89.88570404052734 65.40480804443359 C 87.56893157958984 70.88227844238281 84.251953125 75.80186462402344 80.02690124511719 80.02690124511719 C 75.80186462402344 84.251953125 70.88227844238281 87.56893157958984 65.40480804443359 89.88570404052734 C 59.73466110229492 92.28396606445312 53.71062469482422 93.5 47.49999618530273 93.5 Z" stroke="none"/>
                          <path d="M 47.49999618530273 2.999992370605469 C 41.4912109375 2.999992370605469 35.66376495361328 4.1761474609375 30.17950439453125 6.495796203613281 C 24.88084411621094 8.736953735351562 20.12152099609375 11.94598388671875 16.03375244140625 16.03375244140625 C 11.94598388671875 20.12152099609375 8.736953735351562 24.88084411621094 6.495796203613281 30.17950439453125 C 4.1761474609375 35.66376495361328 2.999992370605469 41.4912109375 2.999992370605469 47.49999618530273 C 2.999992370605469 53.50878143310547 4.1761474609375 59.33622741699219 6.495796203613281 64.82048797607422 C 8.736953735351562 70.11914825439453 11.94598388671875 74.87847137451172 16.03375244140625 78.96623992919922 C 20.12152099609375 83.05400848388672 24.88084411621094 86.26304626464844 30.17950439453125 88.50419616699219 C 35.66376495361328 90.82384490966797 41.4912109375 92 47.49999618530273 92 C 53.50878143310547 92 59.33622741699219 90.82384490966797 64.82048797607422 88.50419616699219 C 70.11914825439453 86.26304626464844 74.87847137451172 83.05400848388672 78.96623992919922 78.96623992919922 C 83.05400848388672 74.87847137451172 86.26304626464844 70.11914825439453 88.50419616699219 64.82048797607422 C 90.82384490966797 59.33622741699219 92 53.50878143310547 92 47.49999618530273 C 92 41.4912109375 90.82384490966797 35.66376495361328 88.50419616699219 30.17950439453125 C 86.26304626464844 24.88084411621094 83.05400848388672 20.12152099609375 78.96623992919922 16.03375244140625 C 74.87847137451172 11.94598388671875 70.11914825439453 8.736953735351562 64.82048797607422 6.495796203613281 C 59.33622741699219 4.1761474609375 53.50878143310547 2.999992370605469 47.49999618530273 2.999992370605469 M 47.49999618530273 -7.62939453125e-06 C 73.7335205078125 -7.62939453125e-06 95 21.26647186279297 95 47.49999618530273 C 95 73.7335205078125 73.7335205078125 95 47.49999618530273 95 C 21.26647186279297 95 -7.62939453125e-06 73.7335205078125 -7.62939453125e-06 47.49999618530273 C -7.62939453125e-06 21.26647186279297 21.26647186279297 -7.62939453125e-06 47.49999618530273 -7.62939453125e-06 Z" stroke="none" fill="#eca675"/>
                        </g>
                      </g>
                    </g>
                  </g>
                </g>
              </g>
            </g>
          </g>
        </g>
      </g>
    </g>
    <g id="inspection_12599740" transform="translate(644.357 4571.029)">
      <g id="Grupo_1223671" data-name="Grupo 1223671" transform="translate(59.643 25.929)">
        <path id="Trazado_1178179" data-name="Trazado 1178179" d="M67.469,57.8h33.739a2.677,2.677,0,0,1,2.669,2.669v41.085a2.677,2.677,0,0,1-2.669,2.669H67.469a2.677,2.677,0,0,1-2.669-2.669V60.469A2.677,2.677,0,0,1,67.469,57.8Z" transform="translate(-64.8 -54.036)" fill="#e6e6e6" fill-rule="evenodd"/>
        <path id="Trazado_1178180" data-name="Trazado 1178180" d="M119.953,120.1A11.953,11.953,0,1,1,108,132.053,11.953,11.953,0,0,1,119.953,120.1Z" transform="translate(-101.932 -107.585)" fill="#f6851f" fill-rule="evenodd"/>
        <path id="Trazado_1178181" data-name="Trazado 1178181" d="M156.9,190.636l5.085-3.736,5.085,3.736v20.128l-5.085-3.736-5.085,3.736Z" transform="translate(-143.963 -165.002)" fill="#ed2024" fill-rule="evenodd"/>
        <path id="Trazado_1178182" data-name="Trazado 1178182" d="M149.865,154.8a7.065,7.065,0,1,1-7.065,7.065A7.062,7.062,0,0,1,149.865,154.8Z" transform="translate(-131.844 -137.411)" fill="#f7ec13" fill-rule="evenodd"/>
        <path id="Trazado_1178183" data-name="Trazado 1178183" d="M160.769,31h7.515a2.677,2.677,0,0,1,2.669,2.669v2.416a2.677,2.677,0,0,1-2.669,2.669h-7.515a2.677,2.677,0,0,1-2.669-2.669v-2.4A2.689,2.689,0,0,1,160.769,31Z" transform="translate(-144.995 -31)" fill="#9e4623" fill-rule="evenodd"/>
        <path id="Trazado_1178184" data-name="Trazado 1178184" d="M261.261,128.03l1.419,13.021a2.536,2.536,0,0,1-5.043.548l-1.447-13.274a13.81,13.81,0,1,1,5.071-.295Z" transform="translate(-218.827 -90.822)" fill="#dd6e42" fill-rule="evenodd"/>
        <path id="Trazado_1178185" data-name="Trazado 1178185" d="M350.7,444.1h8.259v5.2H350.7Z" transform="translate(-310.542 -386.075)" fill="gray" fill-rule="evenodd"/>
        <path id="Trazado_1178186" data-name="Trazado 1178186" d="M318.739,326.654c-.351-.421-.716-.829-1.068-1.208a8.069,8.069,0,0,1-2.023-3.048c-.337-1.124-1.433-2.093-2.191-3.68-1.91-4,1.854-5.2,3.245-2.135,4.663,5,4.34-2.6,4.059-5.183,4.326,2.4,7.936,1.657,5.675,15.395Z" transform="translate(-278.075 -272.014)" fill="#fbc6b3" fill-rule="evenodd"/>
        <path id="Trazado_1178187" data-name="Trazado 1178187" d="M343.6,423.677l.014-2.992a.721.721,0,0,1,.744-.688l8.428.14a.693.693,0,0,1,.674.716l-.014,2.992a.721.721,0,0,1-.744.688l-8.428-.14A.692.692,0,0,1,343.6,423.677Z" transform="translate(-304.436 -365.358)" fill="#e6e6e6" fill-rule="evenodd"/>
        <path id="Trazado_1178188" data-name="Trazado 1178188" d="M287.119,129.2a10.644,10.644,0,1,1-14.538-3.9A10.638,10.638,0,0,1,287.119,129.2Z" transform="translate(-238.814 -110.827)" fill="#e6e6e6" fill-rule="evenodd"/>
        <path id="Trazado_1178189" data-name="Trazado 1178189" d="M305.263,186.442c-4.144,5.478-10.661,5.548-14.763,0C294.7,180.556,301.428,181.02,305.263,186.442Z" transform="translate(-258.798 -160.962)" fill="#fff" fill-rule="evenodd"/>
        <path id="Trazado_1178190" data-name="Trazado 1178190" d="M331.224,198.6a1.924,1.924,0,1,1-1.924,1.924A1.918,1.918,0,0,1,331.224,198.6Z" transform="translate(-292.148 -175.059)" fill="#6abdc8" fill-rule="evenodd"/>
      </g>
      <path id="Trazado_1178191" data-name="Trazado 1178191" d="M97.806,75.54l.211.534c.379,1.292,1.657,2.514,2.669,3.666,2.191.042,4.382.07,6.574.112,1.643-10.493-.492-11.49-3.526-12.894l-.464-.211c.07,1.615.084,4.481-1.1,5.689a1.9,1.9,0,0,1-2.079.464,6.17,6.17,0,0,1-2.416-1.8.8.8,0,0,1-.169-.253c-.941-2.079-3.118-1.489-1.714,1.433.576,1.236,1.517,2.191,2.009,3.259Zm2.528,5.871L99.66,81.4l-.014,2.725,8.161.14.014-2.725Zm-1.672-1.419a10.35,10.35,0,0,1-2.121-3.062c-.155.014-.323.028-.492.028H62.312A3.513,3.513,0,0,1,58.8,73.447V32.362a3.522,3.522,0,0,1,3.512-3.512h9.594v-.239A3.522,3.522,0,0,1,75.417,25.1h7.515a3.522,3.522,0,0,1,3.512,3.512v.239h9.608a3.522,3.522,0,0,1,3.512,3.512V34.89a14.755,14.755,0,0,1,3.427,28.851l.112,1.025c.449.225.9.435,1.334.646,3.722,1.728,6.335,2.936,4.481,14.763a1.532,1.532,0,0,1,.576,1.236c-.014,1,0,2.009-.028,3.006a1.533,1.533,0,0,1-.59,1.166v3.554a.845.845,0,0,1-.843.843H99.773a.845.845,0,0,1-.843-.843V85.7a1.554,1.554,0,0,1-1-1.461c.014-1,0-2.009.028-3.006A1.611,1.611,0,0,1,98.663,79.993Zm8.54,5.942c-2.191-.042-4.382-.07-6.574-.112v2.486H107.2ZM98.747,36.562a12.921,12.921,0,0,0-6.56,1.756A13.066,13.066,0,0,0,97.1,62.6a.836.836,0,0,1,.73.744l.618,5.717v.14a5.038,5.038,0,0,1,.506.815,4.461,4.461,0,0,0,1.643,1.264c.183.056.295.042.379-.042a2.141,2.141,0,0,0,.421-1c.464-2.065.056-5.015-.155-7.023a.866.866,0,0,1,.632-.913,13.065,13.065,0,0,0-3.132-25.747Zm-.871-1.672V32.362a1.841,1.841,0,0,0-1.826-1.826H86.457v.492a3.513,3.513,0,0,1-3.512,3.512H75.431a3.522,3.522,0,0,1-3.512-3.512v-.492H62.312a1.841,1.841,0,0,0-1.826,1.826V73.447a1.841,1.841,0,0,0,1.826,1.826H95.7a14.576,14.576,0,0,1-1.433-2.29c-1-2.093-.773-4.116.787-4.846a2.5,2.5,0,0,1,1.6-.155l-.407-3.821a14.751,14.751,0,0,1-9-5.281,12.653,12.653,0,0,1-3.652,2.851v9.959a.845.845,0,0,1-1.391.646l-4.537-3.329L73.071,72.38a.844.844,0,0,1-1.334-.674V61.747A12.8,12.8,0,1,1,86.6,41.239,14.773,14.773,0,0,1,97.877,34.89ZM86.232,57.477a15.034,15.034,0,0,1-1.573-3.371,8.3,8.3,0,0,1-1.068,1.531v4.158A11.558,11.558,0,0,0,86.232,57.477ZM84.378,46.2a14.054,14.054,0,0,1,1.32-3.483A11.113,11.113,0,1,0,71.751,59.808V55.651A7.914,7.914,0,1,1,84.378,46.2Zm14.341,2.43a2.765,2.765,0,1,1-2.767,2.767A2.766,2.766,0,0,1,98.719,48.627Zm.773,2.009a1.082,1.082,0,1,0,0,1.517,1.068,1.068,0,0,0,0-1.517Zm-1.8-6.152a.843.843,0,0,1,1.686,0v1.868a9.679,9.679,0,0,1,1.278.2l.73-1.868a.836.836,0,1,1,1.559.6l-.7,1.8a8.457,8.457,0,0,1,.941.478.981.981,0,0,1,.183-.337l1.334-1.475a.828.828,0,0,1,1.18-.056.84.84,0,0,1,.056,1.18l-1.447,1.587a12.027,12.027,0,0,1,2.29,2.458.866.866,0,0,1-.014,1c-4.467,5.913-11.644,6.012-16.111-.014a.844.844,0,0,1-.014-.983,12.74,12.74,0,0,1,2.135-2.332.889.889,0,0,1-.337-.225l-1.334-1.475a.835.835,0,0,1,1.236-1.124l1.334,1.475a.77.77,0,0,1,.211.52,11.061,11.061,0,0,1,.969-.534L94.1,45.3a.836.836,0,1,1,1.559-.6l.744,1.938a8.149,8.149,0,0,1,1.25-.239v-1.91Zm5.534,8.638a11.016,11.016,0,0,0,1.826-1.728c-3.526-4.453-9-4.565-12.642.014C95.264,54.878,99.506,55.875,103.228,53.122Zm5.436-9.242a11.485,11.485,0,1,1-15.69-4.2A11.484,11.484,0,0,1,108.664,43.88Zm-.464,8.287a9.808,9.808,0,1,0-12.01,6.939A9.8,9.8,0,0,0,108.2,52.167ZM82.945,26.786H75.431A1.841,1.841,0,0,0,73.6,28.612v2.416a1.841,1.841,0,0,0,1.826,1.826h7.515a1.841,1.841,0,0,0,1.826-1.826V28.612a1.831,1.831,0,0,0-1.826-1.826Zm-1.039,30.3a7.916,7.916,0,0,1-8.484,0V70.034l3.736-2.739a.842.842,0,0,1,1.011-.014l3.736,2.753Zm.169-11.1a6.227,6.227,0,1,0,.07,8.737A6.231,6.231,0,0,0,82.075,45.987Z"/>
    </g>
  </g>
</svg>
