<svg xmlns="http://www.w3.org/2000/svg" xmlns:xlink="http://www.w3.org/1999/xlink" width="108" height="108" viewBox="0 0 108 108">
  <defs>
    <filter id="Trazado_904820" x="0" y="0" width="108" height="108" filterUnits="userSpaceOnUse">
      <feOffset dy="3" input="SourceAlpha"/>
      <feGaussianBlur stdDeviation="3" result="blur"/>
      <feFlood flood-opacity="0.161"/>
      <feComposite operator="in" in2="blur"/>
      <feComposite in="SourceGraphic"/>
    </filter>
  </defs>
  <g id="Grupo_1223570" data-name="Grupo 1223570" transform="translate(-620 -464.333)">
    <g id="Grupo_1223171" data-name="Grupo 1223171" transform="translate(0 143.333)">
      <g id="Grupo_1174741" data-name="Grupo 1174741" transform="translate(629 327)">
        <g id="Grupo_1173585" data-name="Grupo 1173585" transform="translate(0 0)">
          <g id="Grupo_1173428" data-name="Grupo 1173428">
            <g id="Grupo_1171958" data-name="Grupo 1171958">
              <g id="Grupo_1167341" data-name="Grupo 1167341">
                <g id="Grupo_1166792" data-name="Grupo 1166792">
                  <g transform="matrix(1, 0, 0, 1, -9, -6)" filter="url(#Trazado_904820)">
                    <g id="Trazado_904820-2" data-name="Trazado 904820" transform="translate(9 6)" fill="#e7f2f8">
                      <path d="M 44.99999618530273 88.50004577636719 C 39.12687301635742 88.50004577636719 33.43022155761719 87.35012054443359 28.06829643249512 85.08220672607422 C 22.88852119445801 82.89134216308594 18.23629570007324 79.75463104248047 14.24084663391113 75.75917816162109 C 10.24540901184082 71.76371765136719 7.108683586120605 67.11149597167969 4.917821407318115 61.93173217773438 C 2.649921178817749 56.56979370117188 1.499996185302734 50.87314224243164 1.499996185302734 45.00001907348633 C 1.499996185302734 39.12689590454102 2.649921178817749 33.43024444580078 4.917821407318115 28.06830596923828 C 7.108683586120605 22.88853073120117 10.24540901184082 18.23631858825684 14.24084663391113 14.24086952209473 C 18.23629570007324 10.2454195022583 22.88852119445801 7.108694076538086 28.06829643249512 4.917831420898438 C 33.43022155761719 2.649931669235229 39.12687301635742 1.500006556510925 44.99999618530273 1.500006556510925 C 50.87311935424805 1.500006556510925 56.56977081298828 2.649931669235229 61.93169784545898 4.917831420898438 C 67.11147308349609 7.108694076538086 71.76369476318359 10.2454195022583 75.75914764404297 14.24086952209473 C 79.75458526611328 18.23631858825684 82.89131164550781 22.88853073120117 85.08216857910156 28.06830596923828 C 87.35007476806641 33.43024444580078 88.5 39.12689590454102 88.5 45.00001907348633 C 88.5 50.87314224243164 87.35007476806641 56.56979370117188 85.08216857910156 61.93173217773438 C 82.89131164550781 67.11149597167969 79.75458526611328 71.76371765136719 75.75914764404297 75.75917816162109 C 71.76369476318359 79.75463104248047 67.11147308349609 82.89134216308594 61.93169784545898 85.08220672607422 C 56.56977081298828 87.35012054443359 50.87311935424805 88.50004577636719 44.99999618530273 88.50004577636719 Z" stroke="none"/>
                      <path d="M 44.99999618530273 3.000007629394531 C 39.32870864868164 3.000007629394531 33.82865142822266 4.110061645507812 28.65262603759766 6.299346923828125 C 23.65165710449219 8.414573669433594 19.15968322753906 11.44334411621094 15.301513671875 15.30152130126953 C 11.44333648681641 19.15969085693359 8.414566040039062 23.65166473388672 6.299339294433594 28.65263366699219 C 4.110054016113281 33.82867431640625 2.999992370605469 39.32873153686523 2.999992370605469 45.00001907348633 C 2.999992370605469 50.67130661010742 4.110054016113281 56.17136383056641 6.299339294433594 61.34738922119141 C 8.414566040039062 66.34837341308594 11.44333648681641 70.84033203125 15.301513671875 74.69850158691406 C 19.15968322753906 78.55668640136719 23.65165710449219 81.58546447753906 28.65262603759766 83.70069122314453 C 33.82865142822266 85.88997650146484 39.32870864868164 87.00003051757812 44.99999618530273 87.00003051757812 C 50.67128372192383 87.00003051757812 56.17134094238281 85.88997650146484 61.34736633300781 83.70069122314453 C 66.34834289550781 81.58546447753906 70.84030914306641 78.55668640136719 74.69847869873047 74.69850158691406 C 78.55665588378906 70.84033203125 81.58542633056641 66.34837341308594 83.70065307617188 61.34738922119141 C 85.88993835449219 56.17136383056641 87 50.67130661010742 87 45.00001907348633 C 87 39.32873153686523 85.88993835449219 33.82867431640625 83.70065307617188 28.65263366699219 C 81.58542633056641 23.65166473388672 78.55665588378906 19.15969085693359 74.69847869873047 15.30152130126953 C 70.84030914306641 11.44334411621094 66.34834289550781 8.414573669433594 61.34736633300781 6.299346923828125 C 56.17134094238281 4.110061645507812 50.67128372192383 3.000007629394531 44.99999618530273 3.000007629394531 M 44.99999618530273 7.62939453125e-06 C 69.85281372070312 7.62939453125e-06 90 20.14719390869141 90 45.00001907348633 C 90 69.85282897949219 69.85281372070312 90.00003051757812 44.99999618530273 90.00003051757812 C 20.14717864990234 90.00003051757812 -7.62939453125e-06 69.85282897949219 -7.62939453125e-06 45.00001907348633 C -7.62939453125e-06 20.14719390869141 20.14717864990234 7.62939453125e-06 44.99999618530273 7.62939453125e-06 Z" stroke="none" fill="#248abf"/>
                    </g>
                  </g>
                </g>
              </g>
            </g>
          </g>
        </g>
      </g>
    </g>
    <g id="authority_12599666" transform="translate(585.676 433.997)">
      <g id="Grupo_1223569" data-name="Grupo 1223569" transform="translate(59.572 50.866)">
        <path id="Trazado_1177687" data-name="Trazado 1177687" d="M64.7,148h54.143v4.267H64.7Z" transform="translate(-64.7 -133.996)" fill="#80311a" fill-rule="evenodd"/>
        <path id="Trazado_1177688" data-name="Trazado 1177688" d="M91.779,56.1l13.532,6.995,13.532,7.01H64.7l13.547-7.01Z" transform="translate(-64.7 -56.1)" fill="#dd6e42" fill-rule="evenodd"/>
        <path id="Trazado_1177689" data-name="Trazado 1177689" d="M64.7,379.2h54.143v4.313H64.7Z" transform="translate(-64.7 -329.963)" fill="#80311a" fill-rule="evenodd"/>
        <path id="Trazado_1177690" data-name="Trazado 1177690" d="M86.9,176H97.247v3.612H86.9Zm18.515,0h10.347v3.612H105.415Zm18.53,0h10.347v3.612H123.946Z" transform="translate(-83.517 -157.729)" fill="#dd6e42" fill-rule="evenodd"/>
        <path id="Trazado_1177691" data-name="Trazado 1177691" d="M106.8,199.7h4.511v23.056H106.8Zm36.893,0H148.2v23.056h-4.511Zm-18.439,0h4.511v23.056h-4.511Z" transform="translate(-100.384 -177.817)" fill="#80311a" fill-rule="evenodd"/>
        <path id="Trazado_1177692" data-name="Trazado 1177692" d="M86.9,355.3H97.247V351H86.9Zm18.515,0h10.347V351H105.415Zm18.53,0h10.347V351H123.946Z" transform="translate(-83.517 -306.061)" fill="#dd6e42" fill-rule="evenodd"/>
        <path id="Trazado_1177693" data-name="Trazado 1177693" d="M277.663,226A13.563,13.563,0,1,1,264.1,239.563,13.563,13.563,0,0,1,277.663,226Z" transform="translate(-233.714 -200.109)" fill="#fcb13b" fill-rule="evenodd"/>
        <path id="Trazado_1177694" data-name="Trazado 1177694" d="M315.2,299.71l5.776-3.81,5.775,3.81v20.6l-5.775-3.825-5.776,3.825Z" transform="translate(-277.027 -259.357)" fill="#d66666" fill-rule="evenodd"/>
        <path id="Trazado_1177695" data-name="Trazado 1177695" d="M308.431,262.3a8.023,8.023,0,1,1-8.031,8.016A8.016,8.016,0,0,1,308.431,262.3Z" transform="translate(-264.482 -230.878)" fill="#f7ec13" fill-rule="evenodd"/>
      </g>
      <path id="Trazado_1177696" data-name="Trazado 1177696" d="M103.521,81.374A8.938,8.938,0,0,1,110.2,96.247v4.8a12.654,12.654,0,1,0-13.364,0V96.262a8.949,8.949,0,0,1,6.69-14.888Zm4.846,16.458a8.959,8.959,0,0,1-9.707,0v12.282L103,107.25a.894.894,0,0,1,1.021-.015l4.343,2.88Zm.183-12.542a7.112,7.112,0,1,0,0,10.058A7.119,7.119,0,0,0,108.549,85.29Zm1.661,17.875v.35H112.8v-2.088A14.251,14.251,0,0,1,110.21,103.166Zm0,2.179v6.476a.914.914,0,0,1-1.463.731l-5.212-3.444-5.273,3.49a.918.918,0,0,1-1.417-.762V105.36H59.572a.917.917,0,0,1-.914-.914v-4.313a.917.917,0,0,1,.914-.914h2.469V95.836a.917.917,0,0,1,.914-.914h2.118V73.663H62.955a.917.917,0,0,1-.914-.914v-2.7H59.572a.917.917,0,0,1-.914-.914c0-.625-.03-4.145.03-4.48a.9.9,0,0,1,.533-.64L86.24,50.028a.9.9,0,0,1,.838,0L114.1,64a.908.908,0,0,1,.549.838v4.267a.917.917,0,0,1-.914.914h-2.469v2.7a.917.917,0,0,1-.914.914h-2.042V76.62a14.488,14.488,0,0,1,6.233,23.056.889.889,0,0,1,.091.4v4.313a.917.917,0,0,1-.914.914h-3.5Zm-13.364-1.829v-.35a14.883,14.883,0,0,1-3.063-2.133H60.5v2.484Zm-5.928-6.08a7.715,7.715,0,0,1-.366-.7H82.4V99.2h8.534V97.436Zm-1.067-11.9a14.48,14.48,0,0,1,12.115-9.616V73.663H99.985a.917.917,0,0,1-.914-.914v-2.7H92.732v2.7a.917.917,0,0,1-.914.914H89.851Zm13.944-9.692a14.175,14.175,0,0,1,2.682.3V73.678h-2.682ZM72.388,99.188V96.72H63.869v2.469ZM66.9,94.906h2.682V73.663H66.9Zm4.511,0h1.9a.917.917,0,0,1,.914.914V99.2h6.339V95.82a.917.917,0,0,1,.914-.914h2.042V73.663H81.485a.917.917,0,0,1-.914-.914v-2.7H74.232v2.7a.917.917,0,0,1-.914.914h-1.9Zm13.928,0h2.682V73.663H85.341ZM63.869,70.052v1.783h8.518V70.052Zm18.515,0v1.783h8.534V70.052Zm18.53,0v1.783h8.518V70.052ZM99.772,58.668,86.651,51.887,63.336,63.956h46.646ZM112.8,65.785H60.5v2.438h52.3Z" transform="translate(0 0)"/>
    </g>
  </g>
</svg>
