<svg xmlns="http://www.w3.org/2000/svg" xmlns:xlink="http://www.w3.org/1999/xlink" width="113" height="113" viewBox="0 0 113 113">
  <defs>
    <filter id="Trazado_982547" x="0" y="0" width="113" height="113" filterUnits="userSpaceOnUse">
      <feOffset dy="3" input="SourceAlpha"/>
      <feGaussianBlur stdDeviation="3" result="blur"/>
      <feFlood flood-opacity="0.161"/>
      <feComposite operator="in" in2="blur"/>
      <feComposite in="SourceGraphic"/>
    </filter>
  </defs>
  <g id="Grupo_1223677" data-name="Grupo 1223677" transform="translate(-4762.98 -4958.069)">
    <g id="Grupo_1223187" data-name="Grupo 1223187" transform="translate(4771.98 4964.069)">
      <g id="Grupo_1211217" data-name="Grupo 1211217" transform="translate(0)">
        <g id="Grupo_1210736" data-name="Grupo 1210736">
          <g id="Grupo_1210537" data-name="Grupo 1210537">
            <g id="Grupo_1164202" data-name="Grupo 1164202">
              <g id="Grupo_1158168" data-name="Grupo 1158168">
                <g id="Grupo_1152576" data-name="Grupo 1152576">
                  <g id="Grupo_1148633" data-name="Grupo 1148633">
                    <g id="Grupo_1148525" data-name="Grupo 1148525">
                      <g transform="matrix(1, 0, 0, 1, -9, -6)" filter="url(#Trazado_982547)">
                        <g id="Trazado_982547-2" data-name="Trazado 982547" transform="translate(9 6)" fill="#fcf5f0">
                          <path d="M 47.49999618530273 93.5 C 41.28936767578125 93.5 35.26533126831055 92.28396606445312 29.59518241882324 89.88570404052734 C 24.11771583557129 87.56893157958984 19.19812965393066 84.251953125 14.97308921813965 80.02690124511719 C 10.74803638458252 75.80186462402344 7.431062698364258 70.88227844238281 5.114289283752441 65.40480804443359 C 2.716022968292236 59.73466110229492 1.499996185302734 53.71062469482422 1.499996185302734 47.49999618530273 C 1.499996185302734 41.28936767578125 2.716022968292236 35.26533126831055 5.114289283752441 29.59518241882324 C 7.431062698364258 24.11771583557129 10.74803638458252 19.19812965393066 14.97308921813965 14.97308921813965 C 19.19812965393066 10.74803638458252 24.11771583557129 7.431062698364258 29.59518241882324 5.114289283752441 C 35.26533126831055 2.716022968292236 41.28936767578125 1.499996185302734 47.49999618530273 1.499996185302734 C 53.71062469482422 1.499996185302734 59.73466110229492 2.716022968292236 65.40480804443359 5.114289283752441 C 70.88227844238281 7.431062698364258 75.80186462402344 10.74803638458252 80.02690124511719 14.97308921813965 C 84.251953125 19.19812965393066 87.56893157958984 24.11771583557129 89.88570404052734 29.59518241882324 C 92.28396606445312 35.26533126831055 93.5 41.28936767578125 93.5 47.49999618530273 C 93.5 53.71062469482422 92.28396606445312 59.73466110229492 89.88570404052734 65.40480804443359 C 87.56893157958984 70.88227844238281 84.251953125 75.80186462402344 80.02690124511719 80.02690124511719 C 75.80186462402344 84.251953125 70.88227844238281 87.56893157958984 65.40480804443359 89.88570404052734 C 59.73466110229492 92.28396606445312 53.71062469482422 93.5 47.49999618530273 93.5 Z" stroke="none"/>
                          <path d="M 47.49999618530273 2.999992370605469 C 41.4912109375 2.999992370605469 35.66376495361328 4.1761474609375 30.17950439453125 6.495796203613281 C 24.88084411621094 8.736953735351562 20.12152099609375 11.94598388671875 16.03375244140625 16.03375244140625 C 11.94598388671875 20.12152099609375 8.736953735351562 24.88084411621094 6.495796203613281 30.17950439453125 C 4.1761474609375 35.66376495361328 2.999992370605469 41.4912109375 2.999992370605469 47.49999618530273 C 2.999992370605469 53.50878143310547 4.1761474609375 59.33622741699219 6.495796203613281 64.82048797607422 C 8.736953735351562 70.11914825439453 11.94598388671875 74.87847137451172 16.03375244140625 78.96623992919922 C 20.12152099609375 83.05400848388672 24.88084411621094 86.26304626464844 30.17950439453125 88.50419616699219 C 35.66376495361328 90.82384490966797 41.4912109375 92 47.49999618530273 92 C 53.50878143310547 92 59.33622741699219 90.82384490966797 64.82048797607422 88.50419616699219 C 70.11914825439453 86.26304626464844 74.87847137451172 83.05400848388672 78.96623992919922 78.96623992919922 C 83.05400848388672 74.87847137451172 86.26304626464844 70.11914825439453 88.50419616699219 64.82048797607422 C 90.82384490966797 59.33622741699219 92 53.50878143310547 92 47.49999618530273 C 92 41.4912109375 90.82384490966797 35.66376495361328 88.50419616699219 30.17950439453125 C 86.26304626464844 24.88084411621094 83.05400848388672 20.12152099609375 78.96623992919922 16.03375244140625 C 74.87847137451172 11.94598388671875 70.11914825439453 8.736953735351562 64.82048797607422 6.495796203613281 C 59.33622741699219 4.1761474609375 53.50878143310547 2.999992370605469 47.49999618530273 2.999992370605469 M 47.49999618530273 -7.62939453125e-06 C 73.7335205078125 -7.62939453125e-06 95 21.26647186279297 95 47.49999618530273 C 95 73.7335205078125 73.7335205078125 95 47.49999618530273 95 C 21.26647186279297 95 -7.62939453125e-06 73.7335205078125 -7.62939453125e-06 47.49999618530273 C -7.62939453125e-06 21.26647186279297 21.26647186279297 -7.62939453125e-06 47.49999618530273 -7.62939453125e-06 Z" stroke="none" fill="#eca675"/>
                        </g>
                      </g>
                    </g>
                  </g>
                </g>
              </g>
            </g>
          </g>
        </g>
      </g>
    </g>
    <g id="ideation_18566176" transform="translate(4777.945 4945.616)">
      <g id="Grupo_1223676" data-name="Grupo 1223676" transform="translate(26.738 49.22)">
        <path id="Trazado_1178192" data-name="Trazado 1178192" d="M228.2,388.66H214.62v4.73a3.071,3.071,0,0,0,3.062,3.062h7.459a3.071,3.071,0,0,0,3.062-3.062Z" transform="translate(-206.127 -350.147)" fill="#daeafa" fill-rule="evenodd"/>
        <path id="Trazado_1178193" data-name="Trazado 1178193" d="M178.177,154.1a15.287,15.287,0,0,0-15.287,15.287c0,6.438,2.987,8.754,6,12.293a9.354,9.354,0,0,1,2.322,6.3h13.918a9.351,9.351,0,0,1,2.322-6.3c3.023-3.537,6.008-5.855,6.008-12.293A15.286,15.286,0,0,0,178.177,154.1Z" transform="translate(-162.89 -154.098)" fill="#ffd400" fill-rule="evenodd"/>
        <path id="Trazado_1178194" data-name="Trazado 1178194" d="M213.671,360.2H198.009a2.022,2.022,0,0,1,0-4.044h15.662a2.022,2.022,0,1,1,0,4.044Z" transform="translate(-190.555 -322.983)" fill="#2f5274" fill-rule="evenodd"/>
        <path id="Trazado_1178195" data-name="Trazado 1178195" d="M213.671,380.79H198.009a2.022,2.022,0,0,0,0,4.044h15.662a2.022,2.022,0,1,0,0-4.044Z" transform="translate(-190.555 -343.569)" fill="#223c55" fill-rule="evenodd"/>
        <path id="Trazado_1178196" data-name="Trazado 1178196" d="M199.792,186.4a2.8,2.8,0,0,1,5.592,0,2.739,2.739,0,0,1-.082.678,2.659,2.659,0,0,1,.895-.149,2.793,2.793,0,0,1,2.553,3.944,3.465,3.465,0,0,1,0,6.351,2.767,2.767,0,0,1,.248,1.143,2.794,2.794,0,0,1-3.7,2.652,2.8,2.8,0,1,1-5.51.678,2.8,2.8,0,1,1-5.512-.678,2.833,2.833,0,0,1-.9.149,2.8,2.8,0,0,1-2.8-2.8,2.739,2.739,0,0,1,.245-1.143,3.465,3.465,0,0,1,0-6.351,2.8,2.8,0,0,1,2.551-3.944,2.708,2.708,0,0,1,.9.149,2.8,2.8,0,1,1,5.512-.678Z" transform="translate(-184.504 -178.755)" fill="#ff4646" fill-rule="evenodd"/>
        <path id="Trazado_1178197" data-name="Trazado 1178197" d="M217.782,407.4V405.42H214.62V407.4a3.071,3.071,0,0,0,3.062,3.062h3.162A3.071,3.071,0,0,1,217.782,407.4Z" transform="translate(-206.127 -364.155)" fill="#c4d3e1" fill-rule="evenodd"/>
        <path id="Trazado_1178198" data-name="Trazado 1178198" d="M199.049,384.834h2.123a2.022,2.022,0,1,1,0-4.044h-3.162a2.022,2.022,0,0,0,0,4.044Z" transform="translate(-190.555 -343.569)" fill="#1f364d" fill-rule="evenodd"/>
        <path id="Trazado_1178199" data-name="Trazado 1178199" d="M198.009,360.2h3.162a2.033,2.033,0,0,1-2.024-2.024,2.034,2.034,0,0,1,2.024-2.019h-3.162a2.022,2.022,0,0,0,0,4.044Z" transform="translate(-190.555 -322.983)" fill="#2a4a68" fill-rule="evenodd"/>
        <path id="Trazado_1178200" data-name="Trazado 1178200" d="M171.2,187.267h3.162a9.307,9.307,0,0,0-2.3-5.6c-3.023-3.537-6.008-5.855-6.008-12.293a15.287,15.287,0,0,1,13.706-15.205A15.282,15.282,0,0,0,162.9,169.377c0,6.438,2.987,8.754,6,12.293A9.3,9.3,0,0,1,171.2,187.267Z" transform="translate(-162.898 -154.09)" fill="#e6bf00" fill-rule="evenodd"/>
        <path id="Trazado_1178201" data-name="Trazado 1178201" d="M261.384,186.4a2.8,2.8,0,0,1,2.042-2.693,2.848,2.848,0,0,0-.759-.1,2.784,2.784,0,0,0-2.038.882A2.794,2.794,0,0,1,261.384,186.4Z" transform="translate(-244.583 -178.755)" fill="#e63f3f" fill-rule="evenodd"/>
        <path id="Trazado_1178202" data-name="Trazado 1178202" d="M223.427,186.4a2.8,2.8,0,0,1,2.038-2.693,2.8,2.8,0,0,0-3.555,2.693,2.651,2.651,0,0,0,.054.534c.008.018.023.041.036.064a2.8,2.8,0,0,1,1.514.082A2.856,2.856,0,0,1,223.427,186.4Z" transform="translate(-212.22 -178.755)" fill="#e63f3f" fill-rule="evenodd"/>
        <path id="Trazado_1178203" data-name="Trazado 1178203" d="M192.111,209.4a2.812,2.812,0,0,1,.217-1.089,4.1,4.1,0,0,1-.6-1.166,2.8,2.8,0,0,0-1.138,2.254,2.751,2.751,0,0,0,.245,1.148,3.465,3.465,0,0,0,0,6.351,2.765,2.765,0,0,0-.245,1.143,2.793,2.793,0,0,0,1.138,2.254,4.114,4.114,0,0,1,.6-1.161,2.836,2.836,0,0,1-.217-1.093,2.739,2.739,0,0,1,.245-1.143,3.465,3.465,0,0,1,0-6.351A2.751,2.751,0,0,1,192.111,209.4Z" transform="translate(-184.513 -198.438)" fill="#e63f3f" fill-rule="evenodd"/>
        <path id="Trazado_1178204" data-name="Trazado 1178204" d="M222.614,289.818a3.141,3.141,0,0,1-.614-.067.269.269,0,0,0-.036.064,2.614,2.614,0,0,0-.054.534,2.8,2.8,0,0,0,2.8,2.8,2.766,2.766,0,0,0,.754-.1,2.789,2.789,0,0,1-1.952-3.371,2.868,2.868,0,0,1-.9.148Z" transform="translate(-212.22 -267.41)" fill="#e63f3f" fill-rule="evenodd"/>
        <path id="Trazado_1178205" data-name="Trazado 1178205" d="M261.384,293.79a2.793,2.793,0,0,1-.754,1.916,2.79,2.79,0,0,0,2.038.882,2.829,2.829,0,0,0,.759-.1A2.8,2.8,0,0,1,261.384,293.79Z" transform="translate(-244.583 -270.853)" fill="#e63f3f" fill-rule="evenodd"/>
      </g>
      <path id="Trazado_1178206" data-name="Trazado 1178206" d="M78.355,74.582a37.349,37.349,0,0,1-36.329,28.7A37.326,37.326,0,0,1,4.821,69L2.236,71.584a1.315,1.315,0,0,1-1.859-1.86l4.7-4.7a1.313,1.313,0,0,1,1.859,0l4.7,4.7a1.315,1.315,0,1,1-1.859,1.86L7.487,69.292a34.935,34.935,0,0,0,34.538,31.364,34.564,34.564,0,0,0,33.77-26.68,1.315,1.315,0,0,1,2.56.606Zm5.32-14.26a1.313,1.313,0,0,0-1.859,0L79.236,62.9A37.336,37.336,0,0,0,18.7,36.8,37.5,37.5,0,0,0,5.7,57.32a1.315,1.315,0,0,0,2.56.606A34.557,34.557,0,0,1,42.025,31.249,34.944,34.944,0,0,1,76.568,62.618l-2.3-2.3a1.315,1.315,0,1,0-1.859,1.86l4.7,4.7a1.312,1.312,0,0,0,1.859,0l4.7-4.7A1.315,1.315,0,0,0,83.674,60.323ZM42.025,47.367a17.115,17.115,0,0,1,17.1,17.1c0,6.239-2.558,9.1-5.265,12.125-.409.458-.832.931-1.249,1.419a8.355,8.355,0,0,0-1.873,3.668A3.391,3.391,0,0,1,52.788,87.1a3.393,3.393,0,0,1-2.435,5.476v.745a4.481,4.481,0,0,1-4.479,4.474h-7.7A4.481,4.481,0,0,1,33.7,93.321v-.745a3.393,3.393,0,0,1-2.44-5.476,3.39,3.39,0,0,1,2.057-5.425,8.363,8.363,0,0,0-1.872-3.666c-.417-.489-.841-.962-1.249-1.42-2.707-3.028-5.265-5.886-5.265-12.125a17.116,17.116,0,0,1,17.093-17.1Zm5.7,45.957v-.732H36.331v.732a1.847,1.847,0,0,0,1.845,1.845h7.7A1.85,1.85,0,0,0,47.724,93.324ZM50.88,89.19a.773.773,0,0,0-.77-.775H33.941a.772.772,0,0,0,0,1.545H50.11A.77.77,0,0,0,50.88,89.19Zm0-4.174a.77.77,0,0,0-.77-.77H33.941a.77.77,0,1,0,0,1.54H50.11A.772.772,0,0,0,50.88,85.016ZM27.562,64.463c0,5.234,2.028,7.5,4.6,10.373.419.47.854.954,1.289,1.465a10.809,10.809,0,0,1,2.54,5.315H48.066A10.832,10.832,0,0,1,50.607,76.3c.435-.511.869-.995,1.289-1.465,2.568-2.87,4.6-5.137,4.6-10.373a14.465,14.465,0,1,0-28.93,0Zm3.691-3.84A4.151,4.151,0,0,1,31.207,60a4.207,4.207,0,0,1,3.8-4.18,4.2,4.2,0,0,1,7.021-2.3,4.2,4.2,0,0,1,7.024,2.3A4.206,4.206,0,0,1,52.845,60a4.338,4.338,0,0,1-.044.622,5.311,5.311,0,0,1-.026,8.236,4.2,4.2,0,0,1-3.922,4.97,4.2,4.2,0,0,1-6.824,1.579,4.2,4.2,0,0,1-6.82-1.579,4.2,4.2,0,0,1-3.927-4.972,5.309,5.309,0,0,1-.028-8.232Zm.685,4.106a2.681,2.681,0,0,0,1.492,2.4,1.315,1.315,0,0,1,.58,1.78,1.572,1.572,0,0,0,1.1,2.262,4.209,4.209,0,0,1,4.029-3.019,1.315,1.315,0,1,1,0,2.63,1.573,1.573,0,0,0-1.571,1.571v.023a1.571,1.571,0,0,0,3.143-.023,1.315,1.315,0,1,1,2.63,0,1.573,1.573,0,0,0,3.146.023v-.023a1.572,1.572,0,0,0-1.571-1.571,1.315,1.315,0,1,1,0-2.63,4.206,4.206,0,0,1,4.029,3.018,1.573,1.573,0,0,0,1.1-2.262,1.315,1.315,0,0,1,.581-1.781,2.679,2.679,0,0,0,.048-4.778,1.314,1.314,0,0,1-.591-1.7,1.577,1.577,0,0,0-1.4-2.218,4.2,4.2,0,0,1-3.763,2.34,1.315,1.315,0,1,1,0-2.63,1.573,1.573,0,0,0,1.532-1.231c.008-.038.015-.076.02-.112,0-.015,0-.031.007-.046a1.468,1.468,0,0,0,.011-.187,1.573,1.573,0,0,0-3.146,0,1.315,1.315,0,0,1-2.63,0,1.571,1.571,0,1,0-3.143,0,1.446,1.446,0,0,0,.01.171c0,.043.011.087.02.128l0,.025a1.573,1.573,0,0,0,1.537,1.251,1.315,1.315,0,1,1,0,2.63,4.2,4.2,0,0,1-3.763-2.34,1.568,1.568,0,0,0-1.4,2.218,1.314,1.314,0,0,1-.593,1.7,2.678,2.678,0,0,0-1.445,2.379Zm4.694,2.691a1.314,1.314,0,0,0,1-2.171,1.248,1.248,0,0,1,0-1.573,1.315,1.315,0,0,0-1.995-1.712,3.877,3.877,0,0,0,0,5,1.311,1.311,0,0,0,1,.458ZM46.7,64.463a1.2,1.2,0,0,1-.274.786,1.315,1.315,0,0,0,1.995,1.712,3.893,3.893,0,0,0,0-5,1.315,1.315,0,0,0-1.995,1.712,1.2,1.2,0,0,1,.274.786ZM42.025,45.7a1.315,1.315,0,0,0,1.315-1.315V38.593L44.7,39.954a1.315,1.315,0,1,0,1.859-1.86l-3.607-3.6a1.316,1.316,0,0,0-1.859,0l-3.6,3.6a1.315,1.315,0,0,0,1.859,1.86L40.71,38.6v5.789A1.315,1.315,0,0,0,42.025,45.7Zm15.79-6.728a1.315,1.315,0,0,0-1.609-.929l-4.924,1.317a1.315,1.315,0,1,0,.68,2.542l1.862-.5-2.9,5.016A1.315,1.315,0,0,0,53.2,47.736l2.9-5.014.5,1.859a1.315,1.315,0,0,0,1.269.974,1.286,1.286,0,0,0,.342-.046,1.316,1.316,0,0,0,.929-1.611Zm.46,16.11a1.313,1.313,0,0,0,1.8.479l5.016-2.9-.5,1.862a1.316,1.316,0,0,0,.931,1.611,1.28,1.28,0,0,0,.34.044,1.315,1.315,0,0,0,1.269-.975l1.317-4.924a1.314,1.314,0,0,0-.929-1.609L62.593,47.35a1.315,1.315,0,0,0-.681,2.54l1.859.5-5.014,2.9a1.315,1.315,0,0,0-.481,1.8Zm-35.206-6.8a1.316,1.316,0,0,0-1.611-.929l-4.924,1.322a1.316,1.316,0,0,0-.929,1.611l1.322,4.924a1.315,1.315,0,0,0,1.269.974,1.286,1.286,0,0,0,.342-.046,1.316,1.316,0,0,0,.929-1.611l-.5-1.859,5.013,2.9a1.314,1.314,0,1,0,1.315-2.276l-5.014-2.9,1.859-.5a1.314,1.314,0,0,0,.929-1.611Zm9.7-8.92-4.924-1.317a1.315,1.315,0,0,0-1.611.929L24.917,43.9a1.316,1.316,0,0,0,.931,1.611,1.28,1.28,0,0,0,.34.044,1.315,1.315,0,0,0,1.269-.975l.5-1.857,2.893,5.014a1.314,1.314,0,1,0,2.276-1.313L30.228,41.4l1.857.5a1.316,1.316,0,0,0,.683-2.542Z"/>
    </g>
  </g>
</svg>
