<svg xmlns="http://www.w3.org/2000/svg" xmlns:xlink="http://www.w3.org/1999/xlink" width="113" height="113" viewBox="0 0 113 113">
  <defs>
    <filter id="Trazado_982547" x="0" y="0" width="113" height="113" filterUnits="userSpaceOnUse">
      <feOffset dy="3" input="SourceAlpha"/>
      <feGaussianBlur stdDeviation="3" result="blur"/>
      <feFlood flood-opacity="0.161"/>
      <feComposite operator="in" in2="blur"/>
      <feComposite in="SourceGraphic"/>
    </filter>
  </defs>
  <g id="Grupo_1223679" data-name="Grupo 1223679" transform="translate(-5112.471 -4958.069)">
    <g id="Grupo_1223188" data-name="Grupo 1223188" transform="translate(5121.471 4964.069)">
      <g id="Grupo_1211217" data-name="Grupo 1211217" transform="translate(0)">
        <g id="Grupo_1210736" data-name="Grupo 1210736">
          <g id="Grupo_1210537" data-name="Grupo 1210537">
            <g id="Grupo_1164202" data-name="Grupo 1164202">
              <g id="Grupo_1158168" data-name="Grupo 1158168">
                <g id="Grupo_1152576" data-name="Grupo 1152576">
                  <g id="Grupo_1148633" data-name="Grupo 1148633">
                    <g id="Grupo_1148525" data-name="Grupo 1148525">
                      <g transform="matrix(1, 0, 0, 1, -9, -6)" filter="url(#Trazado_982547)">
                        <g id="Trazado_982547-2" data-name="Trazado 982547" transform="translate(9 6)" fill="#fcf5f0">
                          <path d="M 47.49999618530273 93.5 C 41.28936767578125 93.5 35.26533126831055 92.28396606445312 29.59518241882324 89.88570404052734 C 24.11771583557129 87.56893157958984 19.19812965393066 84.251953125 14.97308921813965 80.02690124511719 C 10.74803638458252 75.80186462402344 7.431062698364258 70.88227844238281 5.114289283752441 65.40480804443359 C 2.716022968292236 59.73466110229492 1.499996185302734 53.71062469482422 1.499996185302734 47.49999618530273 C 1.499996185302734 41.28936767578125 2.716022968292236 35.26533126831055 5.114289283752441 29.59518241882324 C 7.431062698364258 24.11771583557129 10.74803638458252 19.19812965393066 14.97308921813965 14.97308921813965 C 19.19812965393066 10.74803638458252 24.11771583557129 7.431062698364258 29.59518241882324 5.114289283752441 C 35.26533126831055 2.716022968292236 41.28936767578125 1.499996185302734 47.49999618530273 1.499996185302734 C 53.71062469482422 1.499996185302734 59.73466110229492 2.716022968292236 65.40480804443359 5.114289283752441 C 70.88227844238281 7.431062698364258 75.80186462402344 10.74803638458252 80.02690124511719 14.97308921813965 C 84.251953125 19.19812965393066 87.56893157958984 24.11771583557129 89.88570404052734 29.59518241882324 C 92.28396606445312 35.26533126831055 93.5 41.28936767578125 93.5 47.49999618530273 C 93.5 53.71062469482422 92.28396606445312 59.73466110229492 89.88570404052734 65.40480804443359 C 87.56893157958984 70.88227844238281 84.251953125 75.80186462402344 80.02690124511719 80.02690124511719 C 75.80186462402344 84.251953125 70.88227844238281 87.56893157958984 65.40480804443359 89.88570404052734 C 59.73466110229492 92.28396606445312 53.71062469482422 93.5 47.49999618530273 93.5 Z" stroke="none"/>
                          <path d="M 47.49999618530273 2.999992370605469 C 41.4912109375 2.999992370605469 35.66376495361328 4.1761474609375 30.17950439453125 6.495796203613281 C 24.88084411621094 8.736953735351562 20.12152099609375 11.94598388671875 16.03375244140625 16.03375244140625 C 11.94598388671875 20.12152099609375 8.736953735351562 24.88084411621094 6.495796203613281 30.17950439453125 C 4.1761474609375 35.66376495361328 2.999992370605469 41.4912109375 2.999992370605469 47.49999618530273 C 2.999992370605469 53.50878143310547 4.1761474609375 59.33622741699219 6.495796203613281 64.82048797607422 C 8.736953735351562 70.11914825439453 11.94598388671875 74.87847137451172 16.03375244140625 78.96623992919922 C 20.12152099609375 83.05400848388672 24.88084411621094 86.26304626464844 30.17950439453125 88.50419616699219 C 35.66376495361328 90.82384490966797 41.4912109375 92 47.49999618530273 92 C 53.50878143310547 92 59.33622741699219 90.82384490966797 64.82048797607422 88.50419616699219 C 70.11914825439453 86.26304626464844 74.87847137451172 83.05400848388672 78.96623992919922 78.96623992919922 C 83.05400848388672 74.87847137451172 86.26304626464844 70.11914825439453 88.50419616699219 64.82048797607422 C 90.82384490966797 59.33622741699219 92 53.50878143310547 92 47.49999618530273 C 92 41.4912109375 90.82384490966797 35.66376495361328 88.50419616699219 30.17950439453125 C 86.26304626464844 24.88084411621094 83.05400848388672 20.12152099609375 78.96623992919922 16.03375244140625 C 74.87847137451172 11.94598388671875 70.11914825439453 8.736953735351562 64.82048797607422 6.495796203613281 C 59.33622741699219 4.1761474609375 53.50878143310547 2.999992370605469 47.49999618530273 2.999992370605469 M 47.49999618530273 -7.62939453125e-06 C 73.7335205078125 -7.62939453125e-06 95 21.26647186279297 95 47.49999618530273 C 95 73.7335205078125 73.7335205078125 95 47.49999618530273 95 C 21.26647186279297 95 -7.62939453125e-06 73.7335205078125 -7.62939453125e-06 47.49999618530273 C -7.62939453125e-06 21.26647186279297 21.26647186279297 -7.62939453125e-06 47.49999618530273 -7.62939453125e-06 Z" stroke="none" fill="#eca675"/>
                        </g>
                      </g>
                    </g>
                  </g>
                </g>
              </g>
            </g>
          </g>
        </g>
      </g>
    </g>
    <g id="reward_17643507" transform="translate(5120.837 4979.371)">
      <path id="Trazado_1178207" data-name="Trazado 1178207" d="M178.893,157.892l-8.044,2.617-6.018,18.633-2.966-4.546-5.077,1.925,6.019-18.629,8.044,2.617,6.018,18.633,2.97-4.546,5.074,1.925Z" transform="translate(-118.901 -138.034)" fill="#fb4455" fill-rule="evenodd"/>
      <path id="Trazado_1178208" data-name="Trazado 1178208" d="M111.04,353.616a3.611,3.611,0,0,0-2.446-6.8q-5.557,2-11.11,4a3.335,3.335,0,0,0-2.667-5.341H88.436a3.736,3.736,0,0,1-1.633-.356c-9.288-4.257-11.178-3.209-21.061-3.209l.064,15.488c8.275,0,7.1-.146,14.258,3.437a13.032,13.032,0,0,0,11.014.517Z" transform="translate(-39.307 -298.813)" fill="#faba7b" fill-rule="evenodd"/>
      <path id="Trazado_1178209" data-name="Trazado 1178209" d="M27.783,313.684h7.922v23.143H27.783Z" transform="translate(-6.123 -274.23)" fill="#69a7ff"/>
      <g id="Grupo_1223678" data-name="Grupo 1223678" transform="translate(21.66 0.879)">
        <path id="Trazado_1178210" data-name="Trazado 1178210" d="M167.014,21.033A14.5,14.5,0,1,1,153.3,36.286,14.5,14.5,0,0,1,167.014,21.033Z" transform="translate(-137.493 -19.25)" fill="#ffc90d" fill-rule="evenodd"/>
        <path id="Trazado_1178211" data-name="Trazado 1178211" d="M197.924,56.113a10.092,10.092,0,1,1-9.545,10.611A10.092,10.092,0,0,1,197.924,56.113Z" transform="translate(-168.167 -49.924)" fill="#ffab02" fill-rule="evenodd"/>
        <path id="Trazado_1178212" data-name="Trazado 1178212" d="M408.975,196.031l-3.255-2.375-3.255,2.375,1.255-3.829-3.266-2.364,4.029.011,1.237-3.836,1.241,3.836,4.029-.011-3.266,2.364Z" transform="translate(-353.578 -163.496)" fill="#ffc90d" fill-rule="evenodd"/>
        <path id="Trazado_1178213" data-name="Trazado 1178213" d="M408.975,17.023l-3.255-2.375-3.255,2.375,1.255-3.829-3.266-2.364,4.029.007L405.719,7l1.241,3.833,4.029-.007-3.266,2.364Z" transform="translate(-353.578 -7.004)" fill="#ffc90d" fill-rule="evenodd"/>
        <path id="Trazado_1178214" data-name="Trazado 1178214" d="M61.479,17.023l-3.255-2.375-3.255,2.375,1.252-3.829L52.954,10.83l4.033.007L58.224,7l1.237,3.833,4.029-.007-3.262,2.364Z" transform="translate(-49.788 -7.004)" fill="#ffc90d" fill-rule="evenodd"/>
        <path id="Trazado_1178215" data-name="Trazado 1178215" d="M61.479,196.031l-3.255-2.375-3.255,2.375L56.22,192.2l-3.266-2.364,4.033.011,1.237-3.836,1.237,3.836,4.029-.011L60.228,192.2Z" transform="translate(-49.788 -163.496)" fill="#ffc90d" fill-rule="evenodd"/>
        <path id="Trazado_1178216" data-name="Trazado 1178216" d="M30.322,333.782v-20.1H27.783v23.143h7.922v-3.045Z" transform="translate(-27.783 -275.109)" fill="#4c8fed" fill-rule="evenodd"/>
        <path id="Trazado_1178217" data-name="Trazado 1178217" d="M102.11,413.195c-6.183-3.091-6.151-3.4-11.342-3.434v1.847c5.024.036,5.059.374,11.174,3.434a13.032,13.032,0,0,0,11.014.517l19.963-7.744a3.629,3.629,0,0,0,2.335-4.014,3.621,3.621,0,0,1-2.168,2.168l-19.959,7.744a13.027,13.027,0,0,1-11.017-.517Z" transform="translate(-82.846 -353.891)" fill="#f5ad65" fill-rule="evenodd"/>
        <path id="Trazado_1178218" data-name="Trazado 1178218" d="M158.784,227.012l3-9.267a15.281,15.281,0,0,1-1.355-1.234l-3.637,11.256Z" transform="translate(-140.561 -190.16)" fill="#e82e41" fill-rule="evenodd"/>
        <path id="Trazado_1178219" data-name="Trazado 1178219" d="M198.554,286.443l-1.4.535,2.966,4.546.581-1.8Z" transform="translate(-175.85 -251.295)" fill="#e82e41" fill-rule="evenodd"/>
        <path id="Trazado_1178220" data-name="Trazado 1178220" d="M291.431,246.442l3.145,9.744,1.173-1.8-2.706-8.368a14.248,14.248,0,0,1-1.612.421Z" transform="translate(-258.269 -215.957)" fill="#e82e41" fill-rule="evenodd"/>
        <path id="Trazado_1178221" data-name="Trazado 1178221" d="M340.393,286.443l-.346.535,5.074,1.925-.246-.756Z" transform="translate(-300.77 -251.295)" fill="#e82e41" fill-rule="evenodd"/>
        <path id="Trazado_1178222" data-name="Trazado 1178222" d="M155.537,36.292a14.5,14.5,0,0,1,13.374-15.228,14.505,14.505,0,0,0-11.556,24.545,15.274,15.274,0,0,0,1.355,1.234,14.462,14.462,0,0,0,6.2,2.9,14.616,14.616,0,0,0,3.637.264l.342-.021a14.5,14.5,0,0,1-13.352-13.7Z" transform="translate(-137.492 -19.256)" fill="#e8b603" fill-rule="evenodd"/>
        <path id="Trazado_1178223" data-name="Trazado 1178223" d="M260.826,56.147a10.093,10.093,0,0,1-.011,20.091,10.652,10.652,0,0,0,1.512.032,9.537,9.537,0,0,0,.966-.1,10.091,10.091,0,0,0-2.032-20.056l-.435.032Z" transform="translate(-231.504 -49.925)" fill="#ed9e00" fill-rule="evenodd"/>
      </g>
      <path id="Trazado_1178224" data-name="Trazado 1178224" d="M68.02,5.415,70.764,7.4l-1.053,3.22a.879.879,0,0,0,1.353.983l2.737-2,2.738,2a.879.879,0,0,0,1.353-.983L76.841,7.4l2.747-1.988a.879.879,0,0,0-.516-1.591h0l-3.392.006L74.639.607a.879.879,0,0,0-1.673,0L71.926,3.83l-3.388-.006h0a.879.879,0,0,0-.516,1.591Zm4.543.174h0A.879.879,0,0,0,73.4,4.98l.4-1.242.4,1.242a.879.879,0,0,0,.836.609h0l1.311,0-1.061.768a.879.879,0,0,0-.32.985l.406,1.242L74.32,7.812a.879.879,0,0,0-1.036,0l-1.057.771.406-1.242a.879.879,0,0,0-.32-.985l-1.06-.768Zm7.345,21.364a.879.879,0,0,0-.836-.608h0l-3.392.006-1.04-3.226a.879.879,0,0,0-1.673,0l-1.04,3.226-3.388-.006h0a.879.879,0,0,0-.516,1.591l2.743,1.985-1.052,3.22a.879.879,0,0,0,1.353.983l2.737-2,2.738,2a.879.879,0,0,0,1.353-.983l-1.052-3.22,2.746-1.985A.879.879,0,0,0,79.909,26.953Zm-4.938,2.9.406,1.242-1.057-.771a.879.879,0,0,0-1.036,0l-1.057.771.406-1.242a.879.879,0,0,0-.32-.985l-1.057-.764,1.307,0h0A.879.879,0,0,0,73.4,27.5l.4-1.243.4,1.243a.879.879,0,0,0,.836.609h0l1.308,0-1.058.764a.879.879,0,0,0-.321.985ZM24.31,27.936l2.746,1.985L26,33.141a.879.879,0,0,0,1.353.983l2.738-2,2.737,2a.879.879,0,0,0,1.353-.983l-1.052-3.22,2.743-1.985a.879.879,0,0,0-.517-1.591l-3.388.006-1.04-3.226a.879.879,0,0,0-1.673,0l-1.04,3.226-3.392-.006h0a.879.879,0,0,0-.515,1.591Zm4.546.174h0a.879.879,0,0,0,.837-.609l.4-1.243.4,1.243a.879.879,0,0,0,.837.609h0l1.307,0-1.057.764a.879.879,0,0,0-.32.985l.406,1.242-1.057-.771a.879.879,0,0,0-1.036,0L28.52,31.1l.406-1.242a.879.879,0,0,0-.321-.986l-1.058-.764Zm-4.546-22.7L27.056,7.4,26,10.623a.879.879,0,0,0,1.353.983l2.738-2,2.737,2a.879.879,0,0,0,1.353-.983L33.133,7.4l2.743-1.988a.879.879,0,0,0-.516-1.591h0l-3.388.006L30.931.607a.879.879,0,0,0-1.673,0L28.218,3.83l-3.392-.006h0a.879.879,0,0,0-.516,1.591Zm4.546.174h0a.879.879,0,0,0,.836-.609l.4-1.242.4,1.242a.879.879,0,0,0,.836.609h0l1.31,0-1.061.768a.879.879,0,0,0-.32.985l.406,1.242-1.057-.771a.879.879,0,0,0-1.036,0l-1.057.771.406-1.242a.879.879,0,0,0-.32-.985l-1.061-.768ZM40.529,27.444,37.049,38.221A.879.879,0,0,0,38.2,39.313l4.416-1.678,2.58,3.954a.879.879,0,0,0,.736.4.889.889,0,0,0,.117-.008.879.879,0,0,0,.72-.6l2.914-9.015a15.343,15.343,0,0,0,2.258.167c.273,0,.549-.007.824-.022q.736-.039,1.456-.146l2.913,9.016a.879.879,0,0,0,.72.6.889.889,0,0,0,.117.008.879.879,0,0,0,.736-.4l2.58-3.954L65.7,39.313a.879.879,0,0,0,1.149-1.092L63.37,27.452l.017-.019a15.389,15.389,0,1,0-22.857.011Zm5.13,11.642-1.96-3a.879.879,0,0,0-1.048-.341l-3.367,1.279,2.65-8.2A15.4,15.4,0,0,0,47.949,32Zm18.954-2.067-3.366-1.279a.879.879,0,0,0-1.048.341l-1.96,3L55.95,32a15.218,15.218,0,0,0,6.016-3.18ZM41.818,8.034a13.53,13.53,0,0,1,9.41-4.493q.37-.02.738-.02a13.627,13.627,0,0,1,2.747,26.97.892.892,0,0,0-.117.023,13.823,13.823,0,0,1-1.928.239A13.626,13.626,0,0,1,41.818,8.034ZM68.987,47.181l-5.554,2L59.7,50.531a4.265,4.265,0,0,0,.032-.523,4.221,4.221,0,0,0-4.216-4.216H49.128a2.851,2.851,0,0,1-1.267-.277c-7.766-3.56-10.571-3.5-16.716-3.355l-.686.015V39.454a.879.879,0,0,0-.879-.879H21.658a.879.879,0,0,0-.879.879V62.6a.879.879,0,0,0,.879.879h7.923a.879.879,0,0,0,.879-.879V59.488c3.442.063,4.113.4,8.021,2.382.555.281,1.174.595,1.87.943A12.948,12.948,0,0,0,46.563,64.4a16.474,16.474,0,0,0,5.5-1.02l.025-.009,19.955-7.741a4.491,4.491,0,0,0-3.056-8.446ZM28.7,61.72H22.537V40.333H28.7Zm42.734-7.742-.02.007-19.952,7.74c-3.825,1.349-7.193,1.2-10.293-.467l-.023-.012c-.7-.349-1.317-.662-1.873-.944-4.074-2.064-4.929-2.5-8.816-2.571v-13.8l.726-.016c6.044-.138,8.545-.2,15.942,3.195a4.625,4.625,0,0,0,2,.437H55.51a2.457,2.457,0,0,1,1.965,3.934l0,0c-.013.015-.027.029-.039.045a2.435,2.435,0,0,1-1.923.934h-10.4a.879.879,0,0,0,0,1.758h10.4A4.18,4.18,0,0,0,58.7,52.758l5.33-1.922,5.554-2a2.733,2.733,0,1,1,1.853,5.143ZM51.948,28.117c.193,0,.387-.005.582-.015a10.971,10.971,0,1,0-.582.015ZM45.1,10.985a9.147,9.147,0,0,1,6.36-3.037q.252-.013.5-.013a9.209,9.209,0,1,1-6.862,3.05Z"/>
    </g>
  </g>
</svg>
