<svg xmlns="http://www.w3.org/2000/svg" xmlns:xlink="http://www.w3.org/1999/xlink" width="400" height="376" viewBox="0 0 400 376">
  <defs>
    <clipPath id="clip-path">
      <rect id="Rectángulo_421525" data-name="Rectángulo 421525" width="400" height="376" transform="translate(181 5002)" fill="#fff" stroke="#707070" stroke-width="1"/>
    </clipPath>
    <clipPath id="clip-path-2">
      <rect id="Rectángulo_421629" data-name="Rectángulo 421629" width="311.503" height="330.102" fill="none"/>
    </clipPath>
    <clipPath id="clip-path-4">
      <rect id="Rectángulo_421556" data-name="Rectángulo 421556" width="299.158" height="27.021" transform="translate(0 303.081)" fill="none"/>
    </clipPath>
    <clipPath id="clip-path-5">
      <rect id="Rectángulo_421590" data-name="Rectángulo 421590" width="18.068" height="55.759" transform="translate(152.298 18.616)" fill="none"/>
    </clipPath>
    <clipPath id="clip-path-6">
      <rect id="Rectángulo_421591" data-name="Rectángulo 421591" width="42.373" height="42.405" transform="translate(224.407 52.126)" fill="none"/>
    </clipPath>
  </defs>
  <g id="Enmascarar_grupo_1211514" data-name="Enmascarar grupo 1211514" transform="translate(-181 -5002)" clip-path="url(#clip-path)">
    <rect id="Rectángulo_421524" data-name="Rectángulo 421524" width="400" height="232" transform="translate(181 5075)" fill="#e5782d"/>
    <path id="Trazado_1177184" data-name="Trazado 1177184" d="M0,0H230V376H0Z" transform="translate(266 5002)" fill="#134b69"/>
    <g id="Grupo_1223613" data-name="Grupo 1223613" transform="translate(225.249 5020)">
      <g id="Grupo_1223612" data-name="Grupo 1223612" clip-path="url(#clip-path-2)">
        <g id="Grupo_1223611" data-name="Grupo 1223611">
          <g id="Grupo_1223610" data-name="Grupo 1223610" clip-path="url(#clip-path-2)">
            <g id="Grupo_1223603" data-name="Grupo 1223603" style="mix-blend-mode: multiply;isolation: isolate">
              <g id="Grupo_1223602" data-name="Grupo 1223602">
                <g id="Grupo_1223601" data-name="Grupo 1223601" clip-path="url(#clip-path-4)">
                  <path id="Trazado_1177763" data-name="Trazado 1177763" d="M299.158,316.591c0,7.463-66.971,13.511-149.58,13.511S0,324.054,0,316.591s66.967-13.51,149.578-13.51,149.58,6.049,149.58,13.51" fill="#b6b8bf"/>
                </g>
              </g>
            </g>
            <path id="Trazado_1177764" data-name="Trazado 1177764" d="M182.28,17.572a5.837,5.837,0,1,1,5.836,5.837,5.836,5.836,0,0,1-5.836-5.837" fill="#002c51"/>
            <path id="Trazado_1177765" data-name="Trazado 1177765" d="M305.667,102.664a7.852,7.852,0,1,1-7.852-7.851,7.852,7.852,0,0,1,7.852,7.851" fill="#f8d16a"/>
            <path id="Trazado_1177766" data-name="Trazado 1177766" d="M299.829,219.34a5.837,5.837,0,1,1,5.838,5.837,5.836,5.836,0,0,1-5.838-5.837" fill="#129eac"/>
            <path id="Trazado_1177767" data-name="Trazado 1177767" d="M293.729,72.864a46.511,46.511,0,1,1-46.512-46.51,46.511,46.511,0,0,1,46.512,46.51" fill="#f8d16a"/>
            <path id="Trazado_1177768" data-name="Trazado 1177768" d="M170.727,167.819a46.511,46.511,0,1,1-46.512-46.51,46.512,46.512,0,0,1,46.512,46.51" fill="#f8d16a"/>
            <path id="Trazado_1177769" data-name="Trazado 1177769" d="M198.194,46.51A46.512,46.512,0,1,1,151.68,0a46.514,46.514,0,0,1,46.514,46.51" fill="#002c51"/>
            <path id="Trazado_1177770" data-name="Trazado 1177770" d="M247.22,144.691a46.511,46.511,0,1,1-46.514-46.51,46.513,46.513,0,0,1,46.514,46.51" fill="#002c51"/>
            <path id="Trazado_1177771" data-name="Trazado 1177771" d="M181.031,157.517c-8.573,0-13.7-1.744-14.434-4.911-.838-3.609,4.211-7.226,8.594-9.625,5.961-3.262,14.2-6.209,23.2-8.3a101.514,101.514,0,0,1,22-2.819c8.572,0,13.7,1.744,14.434,4.911,1.451,6.265-15.024,14.032-31.793,17.923a101.467,101.467,0,0,1-22,2.818m39.357-24.326a100.23,100.23,0,0,0-21.7,2.784c-8.881,2.062-17,4.963-22.858,8.169-5.462,2.989-8.431,6.041-7.939,8.163.566,2.432,5.477,3.885,13.143,3.885a100.236,100.236,0,0,0,21.7-2.784c19.633-4.555,31.775-12.122,30.8-16.331-.565-2.434-5.477-3.886-13.141-3.886" fill="#fff"/>
            <path id="Trazado_1177772" data-name="Trazado 1177772" d="M222.268,170.586c-6.1,0-17.682-7.487-28.824-18.631-12.172-12.171-22.045-27.478-17.5-32.025a4.339,4.339,0,0,1,3.2-1.133c6.1,0,17.684,7.486,28.826,18.631,12.174,12.171,22.045,27.477,17.5,32.025a4.351,4.351,0,0,1-3.2,1.133m-43.123-50.464a3.075,3.075,0,0,0-2.26.745c-3.056,3.055,3.244,15.9,17.494,30.151,10.743,10.741,22.213,18.241,27.889,18.241a3.1,3.1,0,0,0,2.264-.743c3.054-3.056-3.246-15.9-17.5-30.152-10.741-10.741-22.207-18.242-27.889-18.242" fill="#fff"/>
            <path id="Trazado_1177773" data-name="Trazado 1177773" d="M190.212,177.9h0a3.486,3.486,0,0,1-1.18-.2c-6.062-2.144-3.748-20.211,1.992-36.439,6.1-17.259,14.59-29.786,20.182-29.786a3.535,3.535,0,0,1,1.18.2c6.06,2.145,3.746,20.212-1.992,36.44-6.1,17.259-14.592,29.787-20.182,29.787m20.994-65.1c-4.283,0-12.535,10.811-18.932,28.9-6.72,19-6.873,33.307-2.8,34.747a2.146,2.146,0,0,0,.736.124c4.283,0,12.533-10.81,18.931-28.9,6.721-19,6.874-33.306,2.8-34.748a2.211,2.211,0,0,0-.736-.122" fill="#fff"/>
            <path id="Trazado_1177774" data-name="Trazado 1177774" d="M208.774,144.692a8.065,8.065,0,1,1-8.064-8.064,8.065,8.065,0,0,1,8.064,8.064" fill="#fff"/>
            <path id="Trazado_1177775" data-name="Trazado 1177775" d="M307.013,191.2a46.511,46.511,0,1,1-46.514-46.51,46.512,46.512,0,0,1,46.514,46.51" fill="#129eac"/>
            <path id="Trazado_1177776" data-name="Trazado 1177776" d="M63.214,187.816a8.065,8.065,0,1,1-8.064-8.064,8.064,8.064,0,0,1,8.064,8.064" fill="#f8d16a"/>
            <path id="Trazado_1177777" data-name="Trazado 1177777" d="M126.054,111.479a46.511,46.511,0,1,1-46.512-46.51,46.51,46.51,0,0,1,46.512,46.51" fill="#129eac"/>
            <path id="Trazado_1177778" data-name="Trazado 1177778" d="M4.493,76.046a6,6,0,1,1,6,6,6,6,0,0,1-6-6" fill="#129eac"/>
            <path id="Trazado_1177779" data-name="Trazado 1177779" d="M282.9,196.3l-31.442-31.1-1.24-1.228-8.775-8.682,21.6,70.667,2.555-2.582,2.674-2.7,14.675-14.838,4.743-4.793Zm-16.85,17.034-10.486-34.6,22.593,22.355Z" fill="#002543"/>
            <rect id="Rectángulo_421557" data-name="Rectángulo 421557" width="2.378" height="0.53" transform="translate(249.412 166.511) rotate(-45.23)" fill="#129eac"/>
            <rect id="Rectángulo_421558" data-name="Rectángulo 421558" width="1.19" height="0.531" transform="translate(251.26 166.669) rotate(-45.535)" fill="#129eac"/>
            <rect id="Rectángulo_421559" data-name="Rectángulo 421559" width="1.191" height="0.53" transform="translate(252.27 167.668) rotate(-45.384)" fill="#129eac"/>
            <rect id="Rectángulo_421560" data-name="Rectángulo 421560" width="1.189" height="0.53" transform="translate(253.281 168.668) rotate(-45.462)" fill="#129eac"/>
            <path id="Trazado_1177780" data-name="Trazado 1177780" d="M254.669,170.039l-.379-.373.838-.847.377.374Z" fill="#129eac"/>
            <rect id="Rectángulo_421561" data-name="Rectángulo 421561" width="1.189" height="0.53" transform="translate(256.312 171.666) rotate(-45.384)" fill="#129eac"/>
            <rect id="Rectángulo_421562" data-name="Rectángulo 421562" width="1.191" height="0.53" transform="translate(257.324 172.668) rotate(-45.537)" fill="#129eac"/>
            <rect id="Rectángulo_421563" data-name="Rectángulo 421563" width="1.19" height="0.528" transform="translate(258.333 173.662) rotate(-45.002)" fill="#129eac"/>
            <rect id="Rectángulo_421564" data-name="Rectángulo 421564" width="1.19" height="0.529" transform="matrix(0.704, -0.71, 0.71, 0.704, 259.344, 174.664)" fill="#129eac"/>
            <rect id="Rectángulo_421565" data-name="Rectángulo 421565" width="1.19" height="0.53" transform="translate(260.356 175.666) rotate(-45.537)" fill="#129eac"/>
            <path id="Trazado_1177781" data-name="Trazado 1177781" d="M259.9,176.882l-.377-.372,1.674-1.691.377.372Z" fill="#129eac"/>
            <rect id="Rectángulo_421566" data-name="Rectángulo 421566" width="1.19" height="0.53" transform="translate(261.365 176.665) rotate(-45.384)" fill="#129eac"/>
            <rect id="Rectángulo_421567" data-name="Rectángulo 421567" width="1.189" height="0.53" transform="translate(262.376 177.665) rotate(-45.384)" fill="#129eac"/>
            <path id="Trazado_1177782" data-name="Trazado 1177782" d="M263.765,179.036l-.379-.373.838-.845.377.371Z" fill="#129eac"/>
            <rect id="Rectángulo_421568" data-name="Rectángulo 421568" width="1.189" height="0.531" transform="translate(264.395 179.663) rotate(-45.308)" fill="#129eac"/>
            <rect id="Rectángulo_421569" data-name="Rectángulo 421569" width="1.189" height="0.53" transform="translate(266.418 181.664) rotate(-45.46)" fill="#129eac"/>
            <path id="Trazado_1177783" data-name="Trazado 1177783" d="M267.8,183.035l-.377-.371.836-.847.379.373Z" fill="#129eac"/>
            <path id="Trazado_1177784" data-name="Trazado 1177784" d="M268.815,184.035l-.375-.373.836-.846.375.373Z" fill="#129eac"/>
            <path id="Trazado_1177785" data-name="Trazado 1177785" d="M269.827,185.035l-.379-.374.84-.844.377.371Z" fill="#129eac"/>
            <path id="Trazado_1177786" data-name="Trazado 1177786" d="M270.837,186.034l-.377-.371.836-.846.379.373Z" fill="#129eac"/>
            <path id="Trazado_1177787" data-name="Trazado 1177787" d="M270,186.88l-.375-.373,1.672-1.691.379.373Z" fill="#129eac"/>
            <rect id="Rectángulo_421570" data-name="Rectángulo 421570" width="1.189" height="0.53" transform="translate(271.472 186.663) rotate(-45.384)" fill="#129eac"/>
            <rect id="Rectángulo_421571" data-name="Rectángulo 421571" width="1.19" height="0.53" transform="translate(272.481 187.66) rotate(-45.153)" fill="#129eac"/>
            <rect id="Rectángulo_421572" data-name="Rectángulo 421572" width="1.191" height="0.531" transform="translate(273.491 188.662) rotate(-45.308)" fill="#129eac"/>
            <path id="Trazado_1177788" data-name="Trazado 1177788" d="M274.88,190.035l-.377-.373.836-.847.377.373Z" fill="#129eac"/>
            <rect id="Rectángulo_421573" data-name="Rectángulo 421573" width="1.19" height="0.53" transform="translate(276.523 191.662) rotate(-45.384)" fill="#129eac"/>
            <rect id="Rectángulo_421574" data-name="Rectángulo 421574" width="1.189" height="0.529" transform="translate(277.534 192.661) rotate(-45.308)" fill="#129eac"/>
            <rect id="Rectángulo_421575" data-name="Rectángulo 421575" width="1.19" height="0.531" transform="translate(278.543 193.661) rotate(-45.383)" fill="#129eac"/>
            <rect id="Rectángulo_421576" data-name="Rectángulo 421576" width="1.19" height="0.53" transform="translate(279.554 194.658) rotate(-45.077)" fill="#129eac"/>
            <rect id="Rectángulo_421577" data-name="Rectángulo 421577" width="1.191" height="0.53" transform="translate(281.577 196.662) rotate(-45.537)" fill="#129eac"/>
            <rect id="Rectángulo_421578" data-name="Rectángulo 421578" width="1.191" height="0.531" transform="translate(282.586 197.659) rotate(-45.308)" fill="#129eac"/>
            <path id="Trazado_1177789" data-name="Trazado 1177789" d="M283.974,199.032l-.377-.373.838-.845.375.371Z" fill="#129eac"/>
            <rect id="Rectángulo_421579" data-name="Rectángulo 421579" width="2.378" height="0.531" transform="translate(254.465 171.511) rotate(-45.308)" fill="#129eac"/>
            <rect id="Rectángulo_421580" data-name="Rectángulo 421580" width="2.379" height="0.53" transform="translate(244.359 161.514) rotate(-45.308)" fill="#129eac"/>
            <rect id="Rectángulo_421581" data-name="Rectángulo 421581" width="1.191" height="0.53" transform="translate(246.206 161.669) rotate(-45.308)" fill="#129eac"/>
            <path id="Trazado_1177790" data-name="Trazado 1177790" d="M247.595,163.04l-.375-.372.836-.846.375.373Z" fill="#129eac"/>
            <path id="Trazado_1177791" data-name="Trazado 1177791" d="M248.6,164.04l-.377-.372.838-.846.377.372Z" fill="#129eac"/>
            <rect id="Rectángulo_421582" data-name="Rectángulo 421582" width="1.19" height="0.531" transform="translate(249.239 164.667) rotate(-45.308)" fill="#129eac"/>
            <rect id="Rectángulo_421583" data-name="Rectángulo 421583" width="2.379" height="0.531" transform="translate(264.573 181.513) rotate(-45.537)" fill="#129eac"/>
            <rect id="Rectángulo_421584" data-name="Rectángulo 421584" width="2.379" height="0.53" transform="translate(274.675 191.507) rotate(-45.308)" fill="#129eac"/>
            <rect id="Rectángulo_421585" data-name="Rectángulo 421585" width="1.19" height="0.531" transform="translate(284.608 199.661) rotate(-45.537)" fill="#129eac"/>
            <path id="Trazado_1177792" data-name="Trazado 1177792" d="M280.106,196.878l-.375-.372,1.672-1.692.375.372Z" fill="#129eac"/>
            <rect id="Rectángulo_421586" data-name="Rectángulo 421586" width="2.379" height="0.53" transform="translate(284.783 201.506) rotate(-45.384)" fill="#129eac"/>
            <rect id="Rectángulo_421587" data-name="Rectángulo 421587" width="13.033" height="14.971" transform="translate(96.753 169.904)" fill="#fff"/>
            <rect id="Rectángulo_421588" data-name="Rectángulo 421588" width="13.033" height="26.61" transform="translate(117.7 158.265)" fill="#fff"/>
            <rect id="Rectángulo_421589" data-name="Rectángulo 421589" width="13.035" height="40.109" transform="translate(138.648 144.766)" fill="#fff"/>
            <path id="Trazado_1177793" data-name="Trazado 1177793" d="M160.128,39.071V18.616h-16.9V39.071a18.685,18.685,0,1,0,16.9,0" fill="#cfd1d6"/>
            <path id="Trazado_1177794" data-name="Trazado 1177794" d="M136.093,50.721a16.193,16.193,0,1,0,31.18,0Z" fill="#129eac"/>
            <path id="Trazado_1177795" data-name="Trazado 1177795" d="M160.456,49.933a3.421,3.421,0,1,1-3.422-3.423,3.42,3.42,0,0,1,3.422,3.423" fill="#129eac"/>
            <path id="Trazado_1177796" data-name="Trazado 1177796" d="M153.524,42.037a1.843,1.843,0,1,1-1.842-1.842,1.841,1.841,0,0,1,1.842,1.842" fill="#129eac"/>
            <path id="Trazado_1177797" data-name="Trazado 1177797" d="M157.3,32.367a1.842,1.842,0,1,1-1.842-1.843,1.842,1.842,0,0,1,1.842,1.843" fill="#129eac"/>
            <path id="Trazado_1177798" data-name="Trazado 1177798" d="M153.522,24.669a1.842,1.842,0,1,1-1.842-1.843,1.84,1.84,0,0,1,1.842,1.843" fill="#129eac"/>
            <g id="Grupo_1223606" data-name="Grupo 1223606" style="mix-blend-mode: multiply;isolation: isolate">
              <g id="Grupo_1223605" data-name="Grupo 1223605">
                <g id="Grupo_1223604" data-name="Grupo 1223604" clip-path="url(#clip-path-5)">
                  <path id="Trazado_1177799" data-name="Trazado 1177799" d="M160.128,39.071V18.616H152.3v55.76a18.662,18.662,0,0,0,7.83-35.305" fill="#cfd1d6"/>
                </g>
              </g>
            </g>
            <path id="Trazado_1177800" data-name="Trazado 1177800" d="M229.106,93.232a1.792,1.792,0,0,1-2.533,2.535l-3.4-3.4a1.792,1.792,0,1,1,2.534-2.535Z" fill="#0e0e22"/>
            <path id="Trazado_1177801" data-name="Trazado 1177801" d="M263.272,49.733l8.1-2.172-2.171,8.107-6.506.569Z" fill="#fff"/>
            <path id="Trazado_1177802" data-name="Trazado 1177802" d="M269.646,48.025l1.267,1.268.465-1.732Z" fill="#0e0e22"/>
            <path id="Trazado_1177803" data-name="Trazado 1177803" d="M263.224,49.78l-40.3,40.3,1.483,1.484,39.437-39.437Z" fill="#1d1f3c"/>
            <path id="Trazado_1177804" data-name="Trazado 1177804" d="M266.78,55.124,227.374,94.53l1.486,1.483,40.3-40.3Z" fill="#1d1f3c"/>
            <path id="Trazado_1177805" data-name="Trazado 1177805" d="M266.78,55.124l-.59-2.379-2.346-.619L224.407,91.563l2.967,2.967Z" fill="#1d1f3c"/>
            <g id="Grupo_1223609" data-name="Grupo 1223609" style="mix-blend-mode: multiply;isolation: isolate">
              <g id="Grupo_1223608" data-name="Grupo 1223608">
                <g id="Grupo_1223607" data-name="Grupo 1223607" clip-path="url(#clip-path-6)">
                  <path id="Trazado_1177806" data-name="Trazado 1177806" d="M266.78,55.124l-.59-2.379-2.346-.619L224.407,91.563l2.967,2.967Z" fill="#8a898f"/>
                </g>
              </g>
            </g>
            <path id="Trazado_1177807" data-name="Trazado 1177807" d="M227.642,46.51,219.06,55.1l44.066,44.065,8.584-8.584Zm-4.711,10.924a2.075,2.075,0,1,1,2.986.052,2.114,2.114,0,0,1-2.986-.052" fill="#129eac"/>
            <rect id="Rectángulo_421592" data-name="Rectángulo 421592" width="2.814" height="62.32" transform="translate(225.653 48.5) rotate(-45)" fill="#70b6b2"/>
            <path id="Trazado_1177808" data-name="Trazado 1177808" d="M227.114,49.959l-.443-.441,1.988-1.991.443.444Z" fill="#129eac"/>
            <rect id="Rectángulo_421593" data-name="Rectángulo 421593" width="1.407" height="0.626" transform="matrix(0.706, -0.708, 0.708, 0.706, 228.853, 49.712)" fill="#129eac"/>
            <rect id="Rectángulo_421594" data-name="Rectángulo 421594" width="1.407" height="0.625" transform="matrix(0.706, -0.708, 0.708, 0.706, 230.041, 50.901)" fill="#129eac"/>
            <rect id="Rectángulo_421595" data-name="Rectángulo 421595" width="1.406" height="0.626" transform="matrix(0.706, -0.708, 0.708, 0.706, 231.23, 52.088)" fill="#129eac"/>
            <rect id="Rectángulo_421596" data-name="Rectángulo 421596" width="1.407" height="0.625" transform="translate(232.418 53.276) rotate(-45.001)" fill="#129eac"/>
            <path id="Trazado_1177809" data-name="Trazado 1177809" d="M235.237,56.1l-.441-.443.994-.994.441.442Z" fill="#129eac"/>
            <path id="Trazado_1177810" data-name="Trazado 1177810" d="M236.425,57.284l-.441-.443.994-.994.441.442Z" fill="#129eac"/>
            <rect id="Rectángulo_421597" data-name="Rectángulo 421597" width="1.406" height="0.626" transform="matrix(0.706, -0.708, 0.708, 0.706, 237.172, 58.029)" fill="#129eac"/>
            <rect id="Rectángulo_421598" data-name="Rectángulo 421598" width="1.406" height="0.626" transform="matrix(0.705, -0.709, 0.709, 0.705, 238.359, 59.218)" fill="#129eac"/>
            <rect id="Rectángulo_421599" data-name="Rectángulo 421599" width="1.405" height="0.625" transform="matrix(0.709, -0.706, 0.706, 0.709, 239.547, 60.404)" fill="#129eac"/>
            <rect id="Rectángulo_421600" data-name="Rectángulo 421600" width="2.811" height="0.626" transform="translate(238.553 61.399) rotate(-45.001)" fill="#129eac"/>
            <path id="Trazado_1177811" data-name="Trazado 1177811" d="M241.179,62.035l-.443-.442,1-.994.441.444Z" fill="#129eac"/>
            <path id="Trazado_1177812" data-name="Trazado 1177812" d="M242.366,63.225l-.443-.442,1-.995.441.443Z" fill="#129eac"/>
            <rect id="Rectángulo_421601" data-name="Rectángulo 421601" width="1.408" height="0.626" transform="translate(243.111 63.97) rotate(-44.937)" fill="#129eac"/>
            <rect id="Rectángulo_421602" data-name="Rectángulo 421602" width="1.407" height="0.625" transform="translate(244.301 65.159) rotate(-44.937)" fill="#129eac"/>
            <rect id="Rectángulo_421603" data-name="Rectángulo 421603" width="1.407" height="0.625" transform="translate(246.678 67.535) rotate(-45.001)" fill="#129eac"/>
            <rect id="Rectángulo_421604" data-name="Rectángulo 421604" width="1.406" height="0.625" transform="matrix(0.705, -0.709, 0.709, 0.705, 247.867, 68.725)" fill="#129eac"/>
            <rect id="Rectángulo_421605" data-name="Rectángulo 421605" width="1.406" height="0.625" transform="translate(249.054 69.912) rotate(-45.001)" fill="#129eac"/>
            <rect id="Rectángulo_421606" data-name="Rectángulo 421606" width="1.405" height="0.626" transform="matrix(0.709, -0.706, 0.706, 0.709, 250.242, 71.099)" fill="#129eac"/>
            <rect id="Rectángulo_421607" data-name="Rectángulo 421607" width="1.405" height="0.625" transform="matrix(0.706, -0.708, 0.708, 0.706, 251.431, 72.289)" fill="#129eac"/>
            <rect id="Rectángulo_421608" data-name="Rectángulo 421608" width="2.813" height="0.625" transform="matrix(0.706, -0.708, 0.708, 0.706, 250.436, 73.285)" fill="#129eac"/>
            <rect id="Rectángulo_421609" data-name="Rectángulo 421609" width="1.405" height="0.625" transform="translate(252.619 73.476) rotate(-44.937)" fill="#129eac"/>
            <rect id="Rectángulo_421610" data-name="Rectángulo 421610" width="1.407" height="0.625" transform="translate(253.807 74.665) rotate(-44.937)" fill="#129eac"/>
            <rect id="Rectángulo_421611" data-name="Rectángulo 421611" width="1.405" height="0.626" transform="matrix(0.706, -0.708, 0.708, 0.706, 254.996, 75.854)" fill="#129eac"/>
            <rect id="Rectángulo_421612" data-name="Rectángulo 421612" width="1.405" height="0.625" transform="translate(256.184 77.041) rotate(-44.937)" fill="#129eac"/>
            <rect id="Rectángulo_421613" data-name="Rectángulo 421613" width="1.407" height="0.625" transform="translate(258.561 79.421) rotate(-45.067)" fill="#129eac"/>
            <rect id="Rectángulo_421614" data-name="Rectángulo 421614" width="1.408" height="0.626" transform="translate(259.748 80.607) rotate(-45.002)" fill="#129eac"/>
            <rect id="Rectángulo_421615" data-name="Rectángulo 421615" width="1.407" height="0.625" transform="matrix(0.709, -0.706, 0.706, 0.709, 260.936, 81.794)" fill="#129eac"/>
            <rect id="Rectángulo_421616" data-name="Rectángulo 421616" width="1.408" height="0.625" transform="translate(262.125 82.984) rotate(-45.001)" fill="#129eac"/>
            <rect id="Rectángulo_421617" data-name="Rectángulo 421617" width="1.406" height="0.627" transform="translate(264.503 85.359) rotate(-45.002)" fill="#129eac"/>
            <rect id="Rectángulo_421618" data-name="Rectángulo 421618" width="1.406" height="0.626" transform="translate(265.691 86.548) rotate(-45.067)" fill="#129eac"/>
            <rect id="Rectángulo_421619" data-name="Rectángulo 421619" width="1.405" height="0.625" transform="translate(266.88 87.736) rotate(-45.001)" fill="#129eac"/>
            <rect id="Rectángulo_421620" data-name="Rectángulo 421620" width="2.813" height="0.626" transform="translate(232.611 55.457) rotate(-44.937)" fill="#129eac"/>
            <rect id="Rectángulo_421621" data-name="Rectángulo 421621" width="2.813" height="0.626" transform="translate(244.494 67.34) rotate(-44.937)" fill="#129eac"/>
            <rect id="Rectángulo_421622" data-name="Rectángulo 421622" width="2.814" height="0.626" transform="translate(256.378 79.224) rotate(-45.002)" fill="#129eac"/>
            <rect id="Rectángulo_421623" data-name="Rectángulo 421623" width="1.404" height="0.626" transform="translate(268.068 88.926) rotate(-45.067)" fill="#129eac"/>
            <rect id="Rectángulo_421624" data-name="Rectángulo 421624" width="2.814" height="0.625" transform="translate(262.319 85.166) rotate(-44.937)" fill="#129eac"/>
            <rect id="Rectángulo_421625" data-name="Rectángulo 421625" width="2.813" height="0.626" transform="translate(268.259 91.107) rotate(-45.002)" fill="#129eac"/>
            <path id="Trazado_1177813" data-name="Trazado 1177813" d="M60.38,32.434V49.275a4.757,4.757,0,0,0-2.049-.44c-1.883,0-3.412.979-3.412,2.183S56.448,53.2,58.331,53.2s3.414-.979,3.414-2.183V36.326l12.594-4.219v12.3a4.77,4.77,0,0,0-2.049-.44c-1.885,0-3.414.977-3.414,2.182s1.529,2.183,3.414,2.183,3.412-.979,3.412-2.183V27.3Z" fill="#fff"/>
            <path id="Trazado_1177814" data-name="Trazado 1177814" d="M74.431,15.219,69.107,17V24.03a3.3,3.3,0,0,0-1.422-.305c-1.313,0-2.373.678-2.373,1.516s1.06,1.517,2.373,1.517,2.371-.679,2.371-1.517V19.706l4.375-1.465Z" fill="#fff"/>
            <path id="Trazado_1177815" data-name="Trazado 1177815" d="M56.083,30.01v6.609a4.763,4.763,0,0,0-2.049-.439c-1.885,0-3.414.976-3.414,2.182s1.529,2.182,3.414,2.182,3.412-.976,3.412-2.181V30.01Z" fill="#fff"/>
            <path id="Trazado_1177816" data-name="Trazado 1177816" d="M75.106,86.684s1.3-6.842-5.857-5.687c-4.163-.426-6.957,2.468-6.676,5.8-1.94-.694-6.02,2.114-5.1,5.193,0,0-3.846,1.695-3.123,5.37-1.875.295-2.838,3.322-1.736,4.668a3.339,3.339,0,0,0-1.446,4.167c-1.992-.248-2.974,5-1.039,5.749a3.776,3.776,0,0,0,.444,5.24c-1.41,1.477-1.047,4.873,1.24,5.727-.285,1.192-.887,5.877,3.631,7.587,0,0-1.151,4.1,4.1,5.206-.08,2.06,2.741,3.656,4.871,2.528a8,8,0,0,0,8.522,1.21c2.5-1.585,2.545-2.853,2.545-4.437,2.265-1.275,1.66-6.406,0-6.075a7.357,7.357,0,0,0,.105-10.144c1.551-1.368,1.36-6.285-2.31-7.072,0,0,1.822-1.007.66-3.647,1.082-.673,2.035-4.54-.453-6.23,0,0,3.892-2.429,1.119-7.43,1.826-.383,3.414-5.543.5-7.723" fill="#fff"/>
            <path id="Trazado_1177817" data-name="Trazado 1177817" d="M69.63,140.479a8.5,8.5,0,0,1-5.254-1.892,3.512,3.512,0,0,1-1.478.315,3.967,3.967,0,0,1-2.815-1.179,2.819,2.819,0,0,1-.824-1.782,5.436,5.436,0,0,1-3.621-2.3,4.335,4.335,0,0,1-.531-2.958c-3.766-1.571-4.082-5.377-3.635-7.592a3.584,3.584,0,0,1-1.908-2.526,4.112,4.112,0,0,1,.615-3.37,4.027,4.027,0,0,1-.486-5.147c-.875-.617-1.047-2.1-.8-3.413.23-1.259.9-2.53,1.886-2.718a3.6,3.6,0,0,1,1.42-3.97,3.406,3.406,0,0,1-.07-2.851,3.092,3.092,0,0,1,1.887-1.958c-.444-3.14,2.293-4.861,3.113-5.3a3.876,3.876,0,0,1,.787-3.175,5.561,5.561,0,0,1,3.99-2.264,2.454,2.454,0,0,1,.35.025,5.471,5.471,0,0,1,1.451-3.813A6.518,6.518,0,0,1,69.241,80.7c2.387-.376,4.145.082,5.192,1.345a6.137,6.137,0,0,1,.994,4.514,4.978,4.978,0,0,1,1.432,5.089,4.245,4.245,0,0,1-1.825,2.923c2.1,4.093-.158,6.517-1.052,7.268a4.144,4.144,0,0,1,1.38,3.346,4.5,4.5,0,0,1-1.056,2.978,3.037,3.037,0,0,1-.4,3.42,4.332,4.332,0,0,1,2.722,3.117,4.767,4.767,0,0,1-.631,4.107,7.569,7.569,0,0,1,.076,9.905,2.2,2.2,0,0,1,1.02,1.534c.445,1.7.068,4.013-1.3,4.929,0,1.475-.1,2.882-2.683,4.519a.234.234,0,0,1-.035.018,8.314,8.314,0,0,1-3.438.769m-5.207-2.544a.289.289,0,0,1,.2.081,8.018,8.018,0,0,0,5.006,1.869,7.731,7.731,0,0,0,3.172-.706c2.391-1.519,2.391-2.69,2.391-4.174a.3.3,0,0,1,.15-.258c1.318-.742,1.527-3,1.172-4.352-.209-.795-.576-1.252-.967-1.174a.293.293,0,0,1-.318-.15.3.3,0,0,1,.048-.352,7.006,7.006,0,0,0,.09-9.741.3.3,0,0,1,.03-.414,4.028,4.028,0,0,0,.65-3.715A3.706,3.706,0,0,0,73.224,112a.3.3,0,0,1-.235-.25.3.3,0,0,1,.153-.3c.062-.037,1.564-.923.533-3.269a.3.3,0,0,1,.111-.372,4.039,4.039,0,0,0-.459-5.73.3.3,0,0,1,.008-.5c.149-.092,3.613-2.351,1.018-7.035a.287.287,0,0,1-.01-.267.291.291,0,0,1,.209-.169c.7-.146,1.426-1.236,1.728-2.6.157-.723.532-3.189-1.351-4.6a.3.3,0,0,1-.115-.293c0-.027.476-2.619-.84-4.209-.914-1.1-2.5-1.48-4.676-1.128a.375.375,0,0,1-.082,0,5.936,5.936,0,0,0-5.07,1.715,4.886,4.886,0,0,0-1.278,3.765.3.3,0,0,1-.115.262.3.3,0,0,1-.279.043,1.694,1.694,0,0,0-.569-.091,4.994,4.994,0,0,0-3.513,2.026,3.242,3.242,0,0,0-.635,2.891.3.3,0,0,1-.162.358c-.149.066-3.621,1.65-2.949,5.041a.294.294,0,0,1-.047.228.308.308,0,0,1-.2.125,2.386,2.386,0,0,0-1.719,1.65,2.671,2.671,0,0,0,.162,2.534.3.3,0,0,1,.062.249.3.3,0,0,1-.154.2,3.033,3.033,0,0,0-1.3,3.812.294.294,0,0,1-.054.282.3.3,0,0,1-.264.108c-.836-.1-1.453,1.115-1.662,2.248-.225,1.22-.035,2.618.767,2.927a.3.3,0,0,1,.184.205.309.309,0,0,1-.064.267,3.459,3.459,0,0,0,.429,4.837.294.294,0,0,1,0,.413,3.436,3.436,0,0,0-.644,3.041,2.949,2.949,0,0,0,1.775,2.2.3.3,0,0,1,.184.348c-.135.558-1.174,5.49,3.449,7.239a.294.294,0,0,1,.18.357,3.855,3.855,0,0,0,.418,2.761,5.026,5.026,0,0,0,3.46,2.077.3.3,0,0,1,.237.3,2.189,2.189,0,0,0,.662,1.6,3.365,3.365,0,0,0,2.387,1,2.922,2.922,0,0,0,1.386-.34.3.3,0,0,1,.139-.035" fill="#129eac"/>
            <path id="Trazado_1177818" data-name="Trazado 1177818" d="M69.386,87.168H68.6a.3.3,0,0,1-.221-.1,4.223,4.223,0,0,1-.9-3.488c.312-1.292,1.389-2.3,3.2-2.99a.3.3,0,0,1,.209.554c-1.611.619-2.564,1.484-2.832,2.577a3.627,3.627,0,0,0,.69,2.854h.644a.3.3,0,1,1,0,.594" fill="#129eac"/>
            <path id="Trazado_1177819" data-name="Trazado 1177819" d="M68.6,87.952a.3.3,0,0,1-.3-.3v-.786a.3.3,0,0,1,.6,0v.786a.3.3,0,0,1-.3.3" fill="#129eac"/>
            <path id="Trazado_1177820" data-name="Trazado 1177820" d="M71.755,86.922a.3.3,0,0,1-.227-.1,6.678,6.678,0,0,0-2.255-1.738.3.3,0,0,1,.222-.55,7.094,7.094,0,0,1,2.485,1.9.3.3,0,0,1-.034.42.289.289,0,0,1-.191.072" fill="#129eac"/>
            <path id="Trazado_1177821" data-name="Trazado 1177821" d="M60.806,93.277a6.851,6.851,0,0,1-3.482-1.032.3.3,0,0,1-.106-.407.3.3,0,0,1,.408-.1,5.488,5.488,0,0,0,6.918-.579c2.194-1.933,3.334-5.2,2.891-6.231a.3.3,0,0,1,.547-.235c.584,1.35-.733,4.874-3.043,6.911a6.188,6.188,0,0,1-4.133,1.678" fill="#129eac"/>
            <path id="Trazado_1177822" data-name="Trazado 1177822" d="M63.665,89.243a.293.293,0,0,1-.26-.436l.268-.5a3.39,3.39,0,0,0-1.248-1.255.3.3,0,1,1,.293-.514,3.731,3.731,0,0,1,1.564,1.7.3.3,0,0,1-.021.236l-.334.616a.3.3,0,0,1-.262.154" fill="#129eac"/>
            <path id="Trazado_1177823" data-name="Trazado 1177823" d="M64.444,89.221a.286.286,0,0,1-.234-.119l-.448-.594a.3.3,0,1,1,.475-.354l.443.593a.292.292,0,0,1-.056.413.3.3,0,0,1-.18.061" fill="#129eac"/>
            <path id="Trazado_1177824" data-name="Trazado 1177824" d="M56.991,98.483A5.391,5.391,0,0,1,54.18,97.6a.3.3,0,1,1,.348-.482,3.817,3.817,0,0,0,5.238-.643c2.6-3.125,6.227-1.077,6.26-1.057a.29.29,0,0,1,.149.256v.651a.3.3,0,1,1-.594,0v-.471a4.282,4.282,0,0,0-5.36,1,4.088,4.088,0,0,1-3.23,1.627" fill="#129eac"/>
            <path id="Trazado_1177825" data-name="Trazado 1177825" d="M66.771,95.975h-.892a.3.3,0,1,1,0-.594h.892a.3.3,0,0,1,0,.594" fill="#129eac"/>
            <path id="Trazado_1177826" data-name="Trazado 1177826" d="M66.544,93.009c-.133,0-.217,0-.234,0a.3.3,0,1,1,.033-.595c.025,0,2.742.122,3.787-1.288a.291.291,0,0,1,.412-.061.3.3,0,0,1,.063.415c-1.047,1.413-3.319,1.533-4.061,1.533" fill="#129eac"/>
            <path id="Trazado_1177827" data-name="Trazado 1177827" d="M56.776,103.883a7.639,7.639,0,0,1-4.561-1.937.3.3,0,0,1,.409-.432c.162.152,4.015,3.718,7.277.338a.3.3,0,0,1,.145-.081l.97-.235a.3.3,0,0,1,.139.576l-.885.214a4.791,4.791,0,0,1-3.494,1.557" fill="#129eac"/>
            <path id="Trazado_1177828" data-name="Trazado 1177828" d="M60.116,102.356a.3.3,0,0,1-.3-.3v-1.075a.3.3,0,1,1,.594,0v1.075a.3.3,0,0,1-.3.3" fill="#129eac"/>
            <path id="Trazado_1177829" data-name="Trazado 1177829" d="M64,104.631a.319.319,0,0,1-.145-.037l-.716-.4a.3.3,0,0,1,.289-.519l.568.314c2.342-1.368,2.537-2.338,3.154-5.411a5.774,5.774,0,0,1,2.4-3.953,3.494,3.494,0,0,1,2.58-.394.3.3,0,0,1-.166.571,2.932,2.932,0,0,0-2.121.339,5.25,5.25,0,0,0-2.114,3.56c-.636,3.156-.875,4.34-3.586,5.886a.289.289,0,0,1-.146.04" fill="#129eac"/>
            <path id="Trazado_1177830" data-name="Trazado 1177830" d="M63.7,105.374a.339.339,0,0,1-.113-.022.292.292,0,0,1-.162-.385l.295-.742a.294.294,0,0,1,.386-.165.3.3,0,0,1,.166.384l-.3.743a.3.3,0,0,1-.275.187" fill="#129eac"/>
            <path id="Trazado_1177831" data-name="Trazado 1177831" d="M58.036,109.689a11.578,11.578,0,0,1-5.43-1.228,2.775,2.775,0,0,1-1.734-2.266.3.3,0,0,1,.594,0c0,.615.506,1.235,1.429,1.747,2.53,1.41,7.44,1.689,10.438-.164a5.629,5.629,0,0,0,2.693-5.43.3.3,0,1,1,.594-.027,6.26,6.26,0,0,1-2.975,5.96,10.807,10.807,0,0,1-5.609,1.408" fill="#129eac"/>
            <path id="Trazado_1177832" data-name="Trazado 1177832" d="M70.366,106.574a.282.282,0,0,1-.115-.024l-.983-.416a.3.3,0,0,1-.176-.22c-.814-4.438,2.85-5.4,2.887-5.4a.3.3,0,0,1,.143.576c-.127.031-3.076.821-2.473,4.565l.834.354a.3.3,0,0,1-.117.57" fill="#129eac"/>
            <path id="Trazado_1177833" data-name="Trazado 1177833" d="M69.1,106.882a.282.282,0,0,1-.109-.021.3.3,0,0,1-.166-.384l.289-.728a.3.3,0,0,1,.382-.167.3.3,0,0,1,.168.388l-.287.724a.3.3,0,0,1-.277.188" fill="#129eac"/>
            <path id="Trazado_1177834" data-name="Trazado 1177834" d="M71.376,110.484c-1.082,0-2.691-.249-3.387-1.611a.3.3,0,0,1,.53-.271c.875,1.711,3.791,1.221,3.822,1.215a.3.3,0,0,1,.1.585,6.526,6.526,0,0,1-1.066.082" fill="#129eac"/>
            <path id="Trazado_1177835" data-name="Trazado 1177835" d="M50.575,117.482a.286.286,0,0,1-.176-.062.3.3,0,0,1-.062-.414,4.486,4.486,0,0,1,3.754-1.749.3.3,0,0,1-.069.59,3.909,3.909,0,0,0-3.207,1.516.3.3,0,0,1-.24.119" fill="#129eac"/>
            <path id="Trazado_1177836" data-name="Trazado 1177836" d="M53.237,112.957A7.871,7.871,0,0,1,50,112.208a.3.3,0,0,1,.267-.529,6.682,6.682,0,0,0,4.614.412l.468-.96a.3.3,0,1,1,.532.259l-.52,1.068a.287.287,0,0,1-.158.148,5.443,5.443,0,0,1-1.965.351" fill="#129eac"/>
            <path id="Trazado_1177837" data-name="Trazado 1177837" d="M56.062,113.223a.324.324,0,0,1-.159-.045l-.963-.6a.3.3,0,0,1-.1-.409.3.3,0,0,1,.412-.1l.961.6a.3.3,0,0,1-.151.549" fill="#129eac"/>
            <path id="Trazado_1177838" data-name="Trazado 1177838" d="M57.769,107.11a.375.375,0,0,1-.075-.009,2.271,2.271,0,0,1-1.548-1.122,3.426,3.426,0,0,1-.06-2.488.3.3,0,0,1,.381-.175.3.3,0,0,1,.177.381,2.864,2.864,0,0,0,.026,2.009,1.72,1.72,0,0,0,1.169.82.288.288,0,0,1,.212.358.292.292,0,0,1-.282.226" fill="#129eac"/>
            <path id="Trazado_1177839" data-name="Trazado 1177839" d="M63.345,99.149a.3.3,0,0,1-.281-.2c-.645-1.922-3.305-1.665-3.332-1.662a.3.3,0,1,1-.063-.591c.031,0,3.162-.3,3.959,2.064a.3.3,0,0,1-.189.376.337.337,0,0,1-.094.016" fill="#129eac"/>
            <path id="Trazado_1177840" data-name="Trazado 1177840" d="M66.167,110.97c-2.086,0-3.113-2.6-3.156-2.714a.3.3,0,0,1,.552-.216c.006.025.917,2.318,2.592,2.335l.356-.643a.3.3,0,1,1,.519.286l-.435.793a.3.3,0,0,1-.239.152c-.064.005-.125.007-.189.007" fill="#129eac"/>
            <path id="Trazado_1177841" data-name="Trazado 1177841" d="M66.771,111.558a.3.3,0,0,1-.241-.122l-.436-.593a.3.3,0,0,1,.481-.351l.435.592a.3.3,0,0,1-.239.474" fill="#129eac"/>
            <path id="Trazado_1177842" data-name="Trazado 1177842" d="M68.728,115.741a3.224,3.224,0,0,1-3.171-1.836.36.36,0,0,1-.018-.187l.2-.859a.3.3,0,1,1,.578.135l-.174.756c1.053,2.136,3.963,1.226,4.092,1.185a.3.3,0,0,1,.18.565,6.1,6.1,0,0,1-1.685.241" fill="#129eac"/>
            <path id="Trazado_1177843" data-name="Trazado 1177843" d="M65.831,114.08a.279.279,0,0,1-.143-.038l-.8-.437a.293.293,0,0,1-.119-.4.3.3,0,0,1,.4-.119l.8.436a.3.3,0,0,1-.143.559" fill="#129eac"/>
            <path id="Trazado_1177844" data-name="Trazado 1177844" d="M60.536,117.84a.292.292,0,0,1-.135-.033.3.3,0,0,1-.127-.4c2.436-4.783-.465-7.816-.59-7.943a.3.3,0,0,1,.424-.419c.033.034,3.332,3.456.694,8.634a.3.3,0,0,1-.266.161" fill="#129eac"/>
            <path id="Trazado_1177845" data-name="Trazado 1177845" d="M53.714,123.588a4.862,4.862,0,0,1-2.035-.413.3.3,0,0,1,.273-.528c.11.056,2.672,1.313,5.444-1.2v-1.02a.3.3,0,0,1,.593,0v1.15a.3.3,0,0,1-.095.218,6.024,6.024,0,0,1-4.18,1.8" fill="#129eac"/>
            <path id="Trazado_1177846" data-name="Trazado 1177846" d="M57.692,121.872a.3.3,0,0,1-.064-.587l.816-.185a.3.3,0,0,1,.355.224.3.3,0,0,1-.226.356l-.817.184a.267.267,0,0,1-.064.008" fill="#129eac"/>
            <path id="Trazado_1177847" data-name="Trazado 1177847" d="M54.054,119.275a.291.291,0,0,1-.207-.087.3.3,0,0,1,0-.421c.029-.028,2.846-2.785,5.644-.411a.293.293,0,0,1,.034.419.29.29,0,0,1-.414.032c-2.379-2.016-4.745.283-4.846.381a.3.3,0,0,1-.211.087" fill="#129eac"/>
            <path id="Trazado_1177848" data-name="Trazado 1177848" d="M68.577,119.3a7.8,7.8,0,0,1-7.316-4.315.3.3,0,1,1,.546-.226c.088.209,2.184,5.092,9.086,3.7a.3.3,0,1,1,.12.58,12.152,12.152,0,0,1-2.436.257" fill="#129eac"/>
            <path id="Trazado_1177849" data-name="Trazado 1177849" d="M58.446,131.339a8.767,8.767,0,0,1-3.113-.567.3.3,0,1,1,.228-.548,7.658,7.658,0,0,0,6.713-.63v-1.267a.3.3,0,1,1,.594,0v1.421a.3.3,0,0,1-.123.24,7.225,7.225,0,0,1-4.3,1.351" fill="#129eac"/>
            <path id="Trazado_1177850" data-name="Trazado 1177850" d="M63.7,130.043H62.573a.3.3,0,1,1,0-.594H63.7a.3.3,0,1,1,0,.594" fill="#129eac"/>
            <path id="Trazado_1177851" data-name="Trazado 1177851" d="M59.7,125.953a.3.3,0,0,1-.215-.092.3.3,0,0,1,.01-.42c.049-.046,4.934-4.559,9.967-.358a.3.3,0,0,1-.381.455c-4.631-3.869-8.992.161-9.18.334a.281.281,0,0,1-.2.081" fill="#129eac"/>
            <path id="Trazado_1177852" data-name="Trazado 1177852" d="M60.29,136.037a6.6,6.6,0,0,1-.775-.038.3.3,0,0,1,.072-.589,7.459,7.459,0,0,0,4.992-1.312,5.52,5.52,0,0,0,1.895-4.013.3.3,0,1,1,.591.048,6.088,6.088,0,0,1-2.113,4.428,7.51,7.51,0,0,1-4.662,1.476" fill="#129eac"/>
            <path id="Trazado_1177853" data-name="Trazado 1177853" d="M64.423,138.528a.294.294,0,0,1-.293-.352,2.416,2.416,0,0,1,2.668-1.939,10.238,10.238,0,0,1,2.324.59c1.061.362,1.973.674,2.641.293a.3.3,0,0,1,.295.514c-.9.514-1.981.146-3.127-.244a9.575,9.575,0,0,0-2.186-.561,1.837,1.837,0,0,0-2.031,1.462.3.3,0,0,1-.291.237" fill="#129eac"/>
            <path id="Trazado_1177854" data-name="Trazado 1177854" d="M83.108,86.684s-1.3-6.842,5.859-5.687c4.161-.426,6.955,2.468,6.674,5.8,1.938-.694,6.018,2.114,5.1,5.193,0,0,3.846,1.695,3.119,5.37,1.877.295,2.84,3.322,1.738,4.668a3.342,3.342,0,0,1,1.449,4.167c1.991-.248,2.971,5,1.036,5.749a3.774,3.774,0,0,1-.444,5.24c1.41,1.477.391,5.871-1.24,5.727.285,1.192.887,5.877-3.631,7.587,0,0,1.151,4.1-4.1,5.206.082,2.06-2.739,3.656-4.869,2.528a8,8,0,0,1-8.518,1.21c-2.506-1.585-2.549-2.853-2.549-4.437-2.262-1.275-1.66-6.406,0-6.075a7.363,7.363,0,0,1-.107-10.144c-1.549-1.368-1.358-6.285,2.312-7.072,0,0-1.822-1.007-.662-3.647-1.082-.673-2.033-4.54.453-6.23,0,0-3.89-2.429-1.119-7.43-1.826-.383-3.412-5.543-.494-7.723" fill="#fff"/>
            <path id="Trazado_1177855" data-name="Trazado 1177855" d="M88.585,140.479a8.248,8.248,0,0,1-3.434-.769.268.268,0,0,1-.039-.018c-2.588-1.637-2.681-3.044-2.685-4.519-1.368-.916-1.748-3.23-1.305-4.93a2.212,2.212,0,0,1,1.021-1.533,7.573,7.573,0,0,1,.077-9.905,4.75,4.75,0,0,1-.629-4.107,4.331,4.331,0,0,1,2.722-3.118,3.039,3.039,0,0,1-.4-3.42,4.459,4.459,0,0,1-1.053-2.977,4.13,4.13,0,0,1,1.377-3.346c-.9-.751-3.148-3.176-1.056-7.268a4.256,4.256,0,0,1-1.821-2.923,4.979,4.979,0,0,1,1.43-5.089,6.17,6.17,0,0,1,1-4.514c1.049-1.263,2.8-1.721,5.195-1.345A6.5,6.5,0,0,1,94.5,82.605a5.448,5.448,0,0,1,1.453,3.813,2.478,2.478,0,0,1,.351-.025,5.565,5.565,0,0,1,3.991,2.263,3.877,3.877,0,0,1,.785,3.176c.826.442,3.558,2.162,3.115,5.3a3.087,3.087,0,0,1,1.887,1.958,3.424,3.424,0,0,1-.072,2.851,3.6,3.6,0,0,1,1.419,3.969c.991.189,1.657,1.459,1.889,2.719.246,1.312.074,2.8-.805,3.413a4.019,4.019,0,0,1-.488,5.152c.793,1.1.692,3.14.1,4.52a2.269,2.269,0,0,1-1.373,1.461c.42,2.225.066,5.95-3.649,7.5a4.386,4.386,0,0,1-.533,2.958,5.449,5.449,0,0,1-3.621,2.3,2.85,2.85,0,0,1-.822,1.782,3.982,3.982,0,0,1-2.819,1.179,3.525,3.525,0,0,1-1.478-.315,8.493,8.493,0,0,1-5.252,1.892m-3.174-1.3a7.733,7.733,0,0,0,3.174.706,7.952,7.952,0,0,0,5-1.869.3.3,0,0,1,.34-.046,2.933,2.933,0,0,0,1.386.34,3.364,3.364,0,0,0,2.389-1,2.194,2.194,0,0,0,.662-1.6.3.3,0,0,1,.234-.3,5.045,5.045,0,0,0,3.467-2.077,3.839,3.839,0,0,0,.412-2.762.3.3,0,0,1,.186-.356c4.617-1.749,3.578-6.682,3.441-7.239a.309.309,0,0,1,.067-.264.3.3,0,0,1,.252-.1c.41.034.843-.39,1.16-1.132.56-1.309.631-3.266-.162-4.094a.3.3,0,0,1,0-.413,3.458,3.458,0,0,0,.429-4.837.312.312,0,0,1-.062-.268.306.306,0,0,1,.183-.2c.8-.309,1-1.707.766-2.927-.211-1.133-.826-2.355-1.658-2.249a.3.3,0,0,1-.268-.107.294.294,0,0,1-.052-.282,3.035,3.035,0,0,0-1.3-3.812.3.3,0,0,1-.153-.2.293.293,0,0,1,.059-.249,2.668,2.668,0,0,0,.164-2.534,2.385,2.385,0,0,0-1.721-1.65.286.286,0,0,1-.193-.125.28.28,0,0,1-.049-.228c.67-3.392-2.8-4.976-2.951-5.041a.3.3,0,0,1-.162-.358,3.244,3.244,0,0,0-.635-2.891,4.991,4.991,0,0,0-3.512-2.026,1.705,1.705,0,0,0-.568.09.3.3,0,0,1-.281-.043.3.3,0,0,1-.113-.261,4.906,4.906,0,0,0-1.276-3.765A5.948,5.948,0,0,0,89,81.292a.322.322,0,0,1-.076,0c-2.182-.352-3.764.029-4.676,1.128-1.318,1.59-.848,4.182-.844,4.209a.292.292,0,0,1-.111.293c-1.887,1.406-1.512,3.873-1.354,4.6.3,1.36,1.03,2.45,1.729,2.6a.3.3,0,0,1,.209.169.293.293,0,0,1-.01.267c-2.6,4.684.867,6.942,1.018,7.035a.3.3,0,0,1,.01.5,4.042,4.042,0,0,0-.465,5.73.3.3,0,0,1,.117.372c-1.033,2.345.467,3.232.533,3.268a.3.3,0,0,1-.084.551,3.706,3.706,0,0,0-2.824,2.844,4.04,4.04,0,0,0,.646,3.715.3.3,0,0,1,.034.414,7.007,7.007,0,0,0,.087,9.741.3.3,0,0,1-.267.5c-.395-.078-.76.379-.969,1.174-.355,1.347-.142,3.61,1.172,4.352a.3.3,0,0,1,.15.258c0,1.484,0,2.654,2.391,4.174" fill="#129eac"/>
            <path id="Trazado_1177856" data-name="Trazado 1177856" d="M92.513,91.182a3.673,3.673,0,0,1-.484-.034.293.293,0,0,1-.069-.018L90.9,90.709a.3.3,0,0,1-.166-.384.291.291,0,0,1,.382-.168l1.032.407a2.274,2.274,0,0,0,1.777-.462c1.264-1.023,1.451-3.305,1.453-3.327a.3.3,0,0,1,.592.045,5.989,5.989,0,0,1-1.67,3.742,2.756,2.756,0,0,1-1.785.62" fill="#129eac"/>
            <path id="Trazado_1177857" data-name="Trazado 1177857" d="M91.9,92.041a.309.309,0,0,1-.058-.006.3.3,0,0,1-.234-.349l.176-.891a.291.291,0,0,1,.344-.233.3.3,0,0,1,.236.347l-.172.891a.3.3,0,0,1-.292.241" fill="#129eac"/>
            <path id="Trazado_1177858" data-name="Trazado 1177858" d="M86.354,88.924h-.027c-1.69-.158-3.338-1.966-3.407-2.042a.294.294,0,0,1,.02-.419.3.3,0,0,1,.42.023,6.257,6.257,0,0,0,2.922,1.834l.588-.383a.3.3,0,1,1,.326.5l-.68.443a.291.291,0,0,1-.162.049" fill="#129eac"/>
            <path id="Trazado_1177859" data-name="Trazado 1177859" d="M86.679,89.939a.3.3,0,0,1-.285-.206l-.321-1.016a.3.3,0,0,1,.567-.18l.318,1.015a.294.294,0,0,1-.189.373.335.335,0,0,1-.09.014" fill="#129eac"/>
            <path id="Trazado_1177860" data-name="Trazado 1177860" d="M89.573,98.43a.254.254,0,0,1-.078-.012.292.292,0,0,1-.19-.156c-1.656-3.406-5.695-3.445-5.732-3.445a.3.3,0,1,1,0-.593c.174,0,4.221.04,6.111,3.48l.4-.262a.3.3,0,1,1,.322.5l-.678.442a.286.286,0,0,1-.16.05" fill="#129eac"/>
            <path id="Trazado_1177861" data-name="Trazado 1177861" d="M89.894,99.444a.3.3,0,0,1-.284-.206l-.321-1.016a.3.3,0,0,1,.194-.372.3.3,0,0,1,.373.193l.32,1.014a.294.294,0,0,1-.282.387" fill="#129eac"/>
            <path id="Trazado_1177862" data-name="Trazado 1177862" d="M94.6,95.318a10.555,10.555,0,0,1-6.264-2.388.293.293,0,0,1-.027-.417.3.3,0,0,1,.419-.026c.254.224,6.269,5.41,11.82-.7a.3.3,0,0,1,.42-.019.293.293,0,0,1,.021.418A8.472,8.472,0,0,1,94.6,95.318" fill="#129eac"/>
            <path id="Trazado_1177863" data-name="Trazado 1177863" d="M88.86,102.9a12.671,12.671,0,0,1-4.217-.792.3.3,0,0,1,.217-.553c.049.019,4.623,1.786,7.459-.2,1.6-1.126,2.371-3.25,2.283-6.321a.3.3,0,0,1,.289-.305.3.3,0,0,1,.307.29c.092,3.278-.76,5.576-2.541,6.823a6.544,6.544,0,0,1-3.8,1.062" fill="#129eac"/>
            <path id="Trazado_1177864" data-name="Trazado 1177864" d="M98.526,100.4a.279.279,0,0,1-.064-.007.294.294,0,0,1-.227-.352l.1-.475c-1.881-.957-3.627-4.256-3.7-4.4a.3.3,0,1,1,.524-.274c.021.034,1.865,3.524,3.627,4.229a.3.3,0,0,1,.181.34l-.154.71a.3.3,0,0,1-.289.232" fill="#129eac"/>
            <path id="Trazado_1177865" data-name="Trazado 1177865" d="M99.452,99.982a.28.28,0,0,1-.1-.021l-.771-.288a.3.3,0,0,1-.176-.381.3.3,0,0,1,.383-.174l.773.288a.294.294,0,0,1,.172.384.29.29,0,0,1-.277.192" fill="#129eac"/>
            <path id="Trazado_1177866" data-name="Trazado 1177866" d="M102.177,98.518h-.057a2.66,2.66,0,0,1-2-1.227.309.309,0,0,1-.058-.18v-.784a.3.3,0,0,1,.594,0v.683a2.017,2.017,0,0,0,1.486.913,2.163,2.163,0,0,0,1.521-.754.3.3,0,0,1,.42-.036.3.3,0,0,1,.036.419,2.833,2.833,0,0,1-1.94.966" fill="#129eac"/>
            <path id="Trazado_1177867" data-name="Trazado 1177867" d="M100.356,97.408a.273.273,0,0,1-.076-.009l-.906-.248a.3.3,0,0,1,.158-.573l.9.247a.3.3,0,0,1,.209.366.3.3,0,0,1-.289.217" fill="#129eac"/>
            <path id="Trazado_1177868" data-name="Trazado 1177868" d="M87.079,109.144a6.153,6.153,0,0,1-2.936-.825.3.3,0,0,1,.315-.5,5.238,5.238,0,0,0,3.5.634,3.823,3.823,0,0,0,2.326-1.787l-.326-1.21a.3.3,0,0,1,.576-.156l.359,1.337a.3.3,0,0,1-.035.233,4.438,4.438,0,0,1-2.765,2.16,4.306,4.306,0,0,1-1.018.119" fill="#129eac"/>
            <path id="Trazado_1177869" data-name="Trazado 1177869" d="M90.61,107.006a.3.3,0,0,1-.057-.589l1.286-.247a.3.3,0,1,1,.113.584L90.669,107a.307.307,0,0,1-.059,0" fill="#129eac"/>
            <path id="Trazado_1177870" data-name="Trazado 1177870" d="M100.456,113.7c-.115,0-.219-.005-.318-.014a4.815,4.815,0,0,1-3.981-4.076c-.594-4.134-2.1-10.333-2.117-10.394a.3.3,0,1,1,.578-.141c.012.062,1.529,6.289,2.123,10.434.33,1.651,1.625,3.422,3.449,3.587,2.356.211,4.766-2.345,6.61-7.011a.3.3,0,1,1,.551.219c-2.495,6.312-5.278,7.4-6.895,7.4" fill="#129eac"/>
            <path id="Trazado_1177871" data-name="Trazado 1177871" d="M101.419,108.292a.3.3,0,0,1-.238-.123l-.651-.885a.293.293,0,0,1-.052-.226,6.479,6.479,0,0,1,5.105-5.326.3.3,0,0,1,.094.587,5.78,5.78,0,0,0-4.594,4.718l.576.783a.3.3,0,0,1-.24.472" fill="#129eac"/>
            <path id="Trazado_1177872" data-name="Trazado 1177872" d="M99.913,107.845a.3.3,0,0,1-.266-.16.3.3,0,0,1,.129-.4l.858-.44a.3.3,0,0,1,.4.129.294.294,0,0,1-.129.4l-.859.441a.288.288,0,0,1-.133.031" fill="#129eac"/>
            <path id="Trazado_1177873" data-name="Trazado 1177873" d="M96.556,110.288a.3.3,0,0,1-.3-.284c-.014-.261-.271-6.428,3.32-8.241a.3.3,0,1,1,.268.529c-3.254,1.642-3,7.623-3,7.684a.3.3,0,0,1-.281.312Z" fill="#129eac"/>
            <path id="Trazado_1177874" data-name="Trazado 1177874" d="M87.485,112.926a4.838,4.838,0,0,1-2.709-.98.3.3,0,1,1,.367-.465c.02.013,1.791,1.385,3.451.6l.452-1.226a.3.3,0,0,1,.556.207l-.494,1.335a.3.3,0,0,1-.141.16,3.153,3.153,0,0,1-1.482.364" fill="#129eac"/>
            <path id="Trazado_1177875" data-name="Trazado 1177875" d="M90.249,113.19a.331.331,0,0,1-.115-.023l-1.42-.593a.3.3,0,0,1,.23-.548l1.42.593a.3.3,0,0,1-.115.571" fill="#129eac"/>
            <path id="Trazado_1177876" data-name="Trazado 1177876" d="M86.4,119.5a14.82,14.82,0,0,1-4-.608.294.294,0,0,1-.2-.366.3.3,0,0,1,.367-.206c3.33.939,6.059.748,8.108-.563a8.3,8.3,0,0,0,3.371-5.18.292.292,0,0,1,.34-.245.3.3,0,0,1,.246.338,8.753,8.753,0,0,1-3.629,5.58A8.321,8.321,0,0,1,86.4,119.5" fill="#129eac"/>
            <path id="Trazado_1177877" data-name="Trazado 1177877" d="M95.409,121.848a.3.3,0,0,1-.295-.3v-.938a.3.3,0,0,1,.047-.165c2.955-4.431,1.021-10.739,1-10.8a.291.291,0,0,1,.193-.371.3.3,0,0,1,.375.192c.082.268,2.014,6.576-1.027,11.237v.848a.3.3,0,0,1-.3.3" fill="#129eac"/>
            <path id="Trazado_1177878" data-name="Trazado 1177878" d="M94.329,120.908a.293.293,0,0,1-.293-.257.3.3,0,0,1,.254-.335l1.078-.148a.3.3,0,0,1,.08.59l-1.078.148-.041,0" fill="#129eac"/>
            <path id="Trazado_1177879" data-name="Trazado 1177879" d="M85.688,129.748a9.572,9.572,0,0,1-3.035-.54.3.3,0,1,1,.207-.556c.031.012,3.31,1.205,5.26-.15.98-.682,1.476-1.914,1.476-3.663a.351.351,0,0,1,.014-.09l.355-1.113a.3.3,0,1,1,.567.181l-.34,1.07c-.012,1.931-.592,3.312-1.734,4.1a4.824,4.824,0,0,1-2.77.759" fill="#129eac"/>
            <path id="Trazado_1177880" data-name="Trazado 1177880" d="M89.894,125.136a.289.289,0,0,1-.169-.053l-1.065-.741a.3.3,0,1,1,.338-.488l1.065.743a.3.3,0,0,1,.074.414.293.293,0,0,1-.243.125" fill="#129eac"/>
            <path id="Trazado_1177881" data-name="Trazado 1177881" d="M107.667,117.482a.068.068,0,0,1-.02,0c-.132-.009-3.269-.237-4.23-1.771a.3.3,0,0,1-.029-.243l.22-.729a.3.3,0,1,1,.565.171L104,115.5c.891,1.182,3.664,1.385,3.69,1.386a.3.3,0,0,1,.279.317.3.3,0,0,1-.3.277" fill="#129eac"/>
            <path id="Trazado_1177882" data-name="Trazado 1177882" d="M103.669,115.849a.3.3,0,0,1-.135-.033l-.742-.384a.3.3,0,0,1-.127-.4.3.3,0,0,1,.4-.128l.744.383a.3.3,0,0,1-.139.561" fill="#129eac"/>
            <path id="Trazado_1177883" data-name="Trazado 1177883" d="M106.429,123.208a.3.3,0,0,1-.293-.253c-.436-3.023-4.162-2.754-4.32-2.742a.3.3,0,1,1-.049-.592c.043,0,4.441-.327,4.957,3.248a.3.3,0,0,1-.254.336l-.041,0" fill="#129eac"/>
            <path id="Trazado_1177884" data-name="Trazado 1177884" d="M100.757,131.067a4.756,4.756,0,0,1-2.6-.686,3.84,3.84,0,0,1-1.66-2.293.3.3,0,0,1,.01-.139l.312-1.09a.3.3,0,1,1,.571.167l-.291,1.012a3.3,3.3,0,0,0,1.385,1.847,5.423,5.423,0,0,0,4.246.324.3.3,0,1,1,.138.576,8.9,8.9,0,0,1-2.111.282" fill="#129eac"/>
            <path id="Trazado_1177885" data-name="Trazado 1177885" d="M96.79,128.327a.3.3,0,0,1-.236-.116l-.836-1.087a.3.3,0,0,1,.054-.417.293.293,0,0,1,.414.054l.84,1.089a.3.3,0,0,1-.054.416.306.306,0,0,1-.182.061" fill="#129eac"/>
            <path id="Trazado_1177886" data-name="Trazado 1177886" d="M93.06,135.54a.3.3,0,0,1-.28-.192c-1.785-4.613-1.069-8.705,1.914-10.946a6.178,6.178,0,0,1,7.424-.168.3.3,0,1,1-.36.469,5.585,5.585,0,0,0-6.705.174c-2.758,2.069-3.4,5.9-1.719,10.258a.3.3,0,0,1-.171.384.31.31,0,0,1-.1.021" fill="#129eac"/>
            <path id="Trazado_1177887" data-name="Trazado 1177887" d="M86.565,136.533a7.8,7.8,0,0,1-3.982-1.284.3.3,0,0,1-.071-.415.3.3,0,0,1,.416-.068c.158.112,3.93,2.73,6.752-.165a2.24,2.24,0,0,1,1.625-.659,3.08,3.08,0,0,1,2.225,1.4.294.294,0,0,1-.051.416.3.3,0,0,1-.418-.052,2.529,2.529,0,0,0-1.781-1.174,1.63,1.63,0,0,0-1.168.475,4.8,4.8,0,0,1-3.547,1.522" fill="#129eac"/>
            <path id="Trazado_1177888" data-name="Trazado 1177888" d="M93.821,138.53a.293.293,0,0,1-.262-.163c-.021-.036-1.812-3.682,1.184-5.684a.294.294,0,0,1,.41.08.3.3,0,0,1-.082.412c-2.555,1.709-1.049,4.793-.984,4.925a.3.3,0,0,1-.133.4.33.33,0,0,1-.133.03" fill="#129eac"/>
            <path id="Trazado_1177889" data-name="Trazado 1177889" d="M92.858,127.239a.27.27,0,0,1-.123-.028.3.3,0,0,1-.143-.395c2.407-5.094-2.3-8.1-2.5-8.226a.3.3,0,0,1,.315-.506c.055.035,5.351,3.418,2.721,8.985a.294.294,0,0,1-.27.17" fill="#129eac"/>
            <path id="Rectángulo_421626" data-name="Rectángulo 421626" d="M10.924,0h216.07a10.924,10.924,0,0,1,10.924,10.924V31.666A10.924,10.924,0,0,1,226.994,42.59H10.926A10.926,10.926,0,0,1,0,31.664V10.924A10.924,10.924,0,0,1,10.924,0Z" transform="translate(30.88 278.417)" fill="#153647"/>
            <rect id="Rectángulo_421627" data-name="Rectángulo 421627" width="44.705" height="42.59" transform="translate(202.769 278.417)" fill="#fff"/>
            <path id="Trazado_1177890" data-name="Trazado 1177890" d="M229.8,231.143H71.154a10.921,10.921,0,0,0-10.092,6.744H94.468v35.459H61.939a10.908,10.908,0,0,0,9.215,5.071H229.8a10.923,10.923,0,0,0,10.924-10.923V242.067A10.924,10.924,0,0,0,229.8,231.143" fill="#20a5b7"/>
            <path id="Trazado_1177891" data-name="Trazado 1177891" d="M233.018,273.346H69.778c7.957-14.074,4.943-23.811-.875-35.459H233.018Z" fill="#fff"/>
            <path id="Trazado_1177892" data-name="Trazado 1177892" d="M229.356,287.8l-6.357-5.2-6.356,5.2V257.736h12.713Z" fill="#d44b23"/>
            <path id="Trazado_1177893" data-name="Trazado 1177893" d="M227.475,227.153H72.469c7.135-9.42,4.434-15.939-.787-23.734H227.475Z" fill="#fff"/>
            <path id="Trazado_1177894" data-name="Trazado 1177894" d="M220.6,198.174a2.431,2.431,0,0,0-.779.062l-.094,0H70.849a3.917,3.917,0,1,0,0,7.834H219.722c11.287,4.495,6.5,15.786,0,17.744H70.849a3.918,3.918,0,1,0,0,7.837H219.722c.033,0,.066,0,.1,0a2.381,2.381,0,0,0,.775.063c19.02-1.56,19.02-31.974,0-33.532" fill="#002c51"/>
          </g>
        </g>
      </g>
    </g>
  </g>
</svg>
