<svg xmlns="http://www.w3.org/2000/svg" width="465" height="318" viewBox="0 0 465 318">
  <g id="Grupo_1223622" data-name="Grupo 1223622" transform="translate(-578 -7342.777)">
    <rect id="Rectángulo_421630" data-name="Rectángulo 421630" width="155" height="318" transform="translate(578 7342.777)" fill="#f77712"/>
    <rect id="Rectángulo_421631" data-name="Rectángulo 421631" width="155" height="318" transform="translate(733 7342.777)" fill="#fff"/>
    <rect id="Rectángulo_421632" data-name="Rectángulo 421632" width="155" height="318" transform="translate(888 7342.777)" fill="#008e43"/>
    <g id="Grupo_1223618" data-name="Grupo 1223618" transform="translate(751 7370.875)">
      <circle id="Elipse_11488" data-name="Elipse 11488" cx="19.839" cy="19.839" r="19.839" transform="translate(39.982 39.982)" fill="#219248"/>
      <path id="Trazado_874002" data-name="Trazado 874002" d="M96.721,25.5a59.821,59.821,0,1,0,59.821,59.821A59.873,59.873,0,0,0,96.721,25.5Zm0,110.229a50.408,50.408,0,1,1,50.408-50.408A50.412,50.412,0,0,1,96.721,135.729Z" transform="translate(-36.9 -25.5)" fill="#0b0b0c"/>
      <path id="Trazado_874003" data-name="Trazado 874003" d="M156.338,117.1V165.99A50.413,50.413,0,0,1,105.931,216.4H87.408A50.413,50.413,0,0,1,37,165.99V117.1h2.024a64.327,64.327,0,0,0,37.856,33.2v17.207a6.674,6.674,0,0,0,6.68,6.68h26.317a6.589,6.589,0,0,0,6.579-6.68V150.3a64.072,64.072,0,0,0,38.16-33.3h1.721Z" transform="translate(-36.899 -24.384)" fill="#e5782c"/>
    </g>
    <rect id="Rectángulo_421633" data-name="Rectángulo 421633" width="93" height="30" rx="15" transform="translate(613 7606.777)" fill="#fff"/>
    <rect id="Rectángulo_421634" data-name="Rectángulo 421634" width="93" height="30" rx="15" transform="translate(920 7606.777)" fill="#fff"/>
    <path id="Trazado_1179425" data-name="Trazado 1179425" d="M12.779,0H9.914L4.72-7.919a11.451,11.451,0,0,1-.633-1.046H4.052q.07.668.07,2.039V0H1.441V-12.6H4.5l5,7.673q.343.519.633,1.028h.035a13.476,13.476,0,0,1-.07-1.731V-12.6h2.681Zm10.1,0H20.25V-1.292h-.035A2.933,2.933,0,0,1,17.534.22a2.8,2.8,0,0,1-2.061-.743A2.661,2.661,0,0,1,14.722-2.5q0-2.619,3.1-3.023l2.443-.325q0-1.477-1.6-1.477a5.46,5.46,0,0,0-3.059.958V-8.464A6.881,6.881,0,0,1,17.2-8.991a8.339,8.339,0,0,1,1.833-.229q3.85,0,3.85,3.841Zm-2.61-3.656v-.606l-1.635.211q-1.354.176-1.354,1.222a1.01,1.01,0,0,0,.33.778,1.266,1.266,0,0,0,.892.3,1.644,1.644,0,0,0,1.274-.541A1.952,1.952,0,0,0,20.268-3.656ZM30.946-6.5a2.409,2.409,0,0,0-1.169-.272,1.684,1.684,0,0,0-1.415.664,2.9,2.9,0,0,0-.51,1.806V0H25.075V-9h2.777v1.67h.035a2.4,2.4,0,0,1,2.373-1.828,1.788,1.788,0,0,1,.686.105ZM39.727,0H37.1V-1.292h-.035A2.933,2.933,0,0,1,34.383.22a2.8,2.8,0,0,1-2.061-.743A2.661,2.661,0,0,1,31.57-2.5q0-2.619,3.1-3.023l2.443-.325q0-1.477-1.6-1.477a5.46,5.46,0,0,0-3.059.958V-8.464a6.881,6.881,0,0,1,1.586-.527,8.339,8.339,0,0,1,1.833-.229q3.85,0,3.85,3.841Zm-2.61-3.656v-.606l-1.635.211q-1.354.176-1.354,1.222a1.01,1.01,0,0,0,.33.778,1.266,1.266,0,0,0,.892.3,1.644,1.644,0,0,0,1.274-.541A1.952,1.952,0,0,0,37.116-3.656ZM50.616,0H47.848V-5q0-2.092-1.494-2.092a1.483,1.483,0,0,0-1.187.554A2.109,2.109,0,0,0,44.7-5.133V0H41.924V-9H44.7v1.424h.035A3.183,3.183,0,0,1,47.628-9.22q2.988,0,2.988,3.709Zm3.6-10.424a1.622,1.622,0,0,1-1.151-.417,1.345,1.345,0,0,1-.448-1.024,1.3,1.3,0,0,1,.448-1.02,1.676,1.676,0,0,1,1.151-.4,1.672,1.672,0,0,1,1.156.4,1.3,1.3,0,0,1,.444,1.02,1.34,1.34,0,0,1-.444,1.037A1.65,1.65,0,0,1,54.22-10.424ZM55.591-.158a4.892,4.892,0,0,1-.976,3.19,3.421,3.421,0,0,1-2.812,1.2,3.889,3.889,0,0,1-1.327-.264V1.784a2.163,2.163,0,0,0,1.028.325q1.31,0,1.31-2.057V-9h2.777ZM65.417,0H62.789V-1.292h-.035A2.933,2.933,0,0,1,60.073.22a2.8,2.8,0,0,1-2.061-.743A2.661,2.661,0,0,1,57.261-2.5q0-2.619,3.1-3.023l2.443-.325q0-1.477-1.6-1.477a5.46,5.46,0,0,0-3.059.958V-8.464a6.881,6.881,0,0,1,1.586-.527,8.339,8.339,0,0,1,1.833-.229q3.85,0,3.85,3.841Zm-2.61-3.656v-.606l-1.635.211q-1.354.176-1.354,1.222a1.01,1.01,0,0,0,.33.778,1.266,1.266,0,0,0,.892.3,1.644,1.644,0,0,0,1.274-.541A1.952,1.952,0,0,0,62.807-3.656Z" transform="translate(625 7628.777)" fill="#0b0a0a"/>
    <path id="Trazado_1179427" data-name="Trazado 1179427" d="M11.936-12.6,7.594,0H4.377L.088-12.6H3.146L5.774-3.832a6.282,6.282,0,0,1,.255,1.257h.053a7.1,7.1,0,0,1,.272-1.292L8.965-12.6Zm8.156,8.895H14.221q.141,1.96,2.47,1.96a4.822,4.822,0,0,0,2.61-.7v2A6.858,6.858,0,0,1,16.058.22,4.565,4.565,0,0,1,12.674-.989a4.566,4.566,0,0,1-1.2-3.371,4.816,4.816,0,0,1,1.3-3.551,4.334,4.334,0,0,1,3.2-1.31,3.933,3.933,0,0,1,3.045,1.169,4.5,4.5,0,0,1,1.077,3.173ZM17.517-5.414q0-1.934-1.564-1.934a1.494,1.494,0,0,0-1.156.554,2.513,2.513,0,0,0-.593,1.38ZM27.615-6.5a2.409,2.409,0,0,0-1.169-.272,1.684,1.684,0,0,0-1.415.664,2.9,2.9,0,0,0-.51,1.806V0H21.744V-9h2.777v1.67h.035A2.4,2.4,0,0,1,26.93-9.158a1.788,1.788,0,0,1,.686.105ZM37.644,0H34.866V-1.239h-.035A3.114,3.114,0,0,1,32.045.22,3.412,3.412,0,0,1,29.329-.971,4.93,4.93,0,0,1,28.3-4.3a5.366,5.366,0,0,1,1.134-3.577A3.7,3.7,0,0,1,32.405-9.22a2.527,2.527,0,0,1,2.426,1.248h.035v-5.353h2.777ZM34.919-4.377v-.677a2.13,2.13,0,0,0-.51-1.459,1.683,1.683,0,0,0-1.327-.58,1.673,1.673,0,0,0-1.441.725,3.367,3.367,0,0,0-.519,1.991,2.914,2.914,0,0,0,.5,1.828,1.663,1.663,0,0,0,1.389.642,1.67,1.67,0,0,0,1.375-.677A2.821,2.821,0,0,0,34.919-4.377Zm13.148.668H42.2q.141,1.96,2.47,1.96a4.822,4.822,0,0,0,2.61-.7v2A6.858,6.858,0,0,1,44.033.22,4.565,4.565,0,0,1,40.649-.989a4.566,4.566,0,0,1-1.2-3.371,4.816,4.816,0,0,1,1.3-3.551,4.334,4.334,0,0,1,3.2-1.31,3.933,3.933,0,0,1,3.045,1.169,4.5,4.5,0,0,1,1.077,3.173ZM45.492-5.414q0-1.934-1.564-1.934a1.494,1.494,0,0,0-1.156.554,2.513,2.513,0,0,0-.593,1.38Z" transform="translate(942 7628.777)" fill="#0b0a0a"/>
    <path id="Trazado_1179426" data-name="Trazado 1179426" d="M1.441,0V-12.6H6.029a5.729,5.729,0,0,1,3.243.773,2.488,2.488,0,0,1,1.134,2.18,2.58,2.58,0,0,1-.69,1.784A3.625,3.625,0,0,1,7.954-6.8v.035a3.493,3.493,0,0,1,2.149.993,2.778,2.778,0,0,1,.8,2.013A3.364,3.364,0,0,1,9.668-1.015,5.186,5.186,0,0,1,6.284,0ZM4.28-10.512v2.988H5.528A2.08,2.08,0,0,0,6.913-7.95a1.453,1.453,0,0,0,.505-1.173q0-1.389-2.074-1.389Zm0,5.1v3.322H5.818a2.367,2.367,0,0,0,1.542-.457A1.527,1.527,0,0,0,7.919-3.8,1.425,1.425,0,0,0,7.37-4.983a2.43,2.43,0,0,0-1.534-.431ZM15.486,0H12.709V-13.324h2.777Zm9.826,0H22.685V-1.292h-.035A2.933,2.933,0,0,1,19.969.22a2.8,2.8,0,0,1-2.061-.743A2.661,2.661,0,0,1,17.156-2.5q0-2.619,3.1-3.023L22.7-5.854q0-1.477-1.6-1.477a5.46,5.46,0,0,0-3.059.958V-8.464a6.881,6.881,0,0,1,1.586-.527,8.339,8.339,0,0,1,1.833-.229q3.85,0,3.85,3.841ZM22.7-3.656v-.606l-1.635.211q-1.354.176-1.354,1.222a1.01,1.01,0,0,0,.33.778,1.266,1.266,0,0,0,.892.3A1.644,1.644,0,0,0,22.21-2.29,1.952,1.952,0,0,0,22.7-3.656ZM36.2,0H33.434V-5q0-2.092-1.494-2.092a1.483,1.483,0,0,0-1.187.554,2.109,2.109,0,0,0-.466,1.406V0H27.51V-9h2.777v1.424h.035A3.183,3.183,0,0,1,33.214-9.22q2.988,0,2.988,3.709ZM45.22-.325A5.492,5.492,0,0,1,42.5.22a4.593,4.593,0,0,1-3.357-1.257A4.341,4.341,0,0,1,37.863-4.28,4.782,4.782,0,0,1,39.239-7.9,5.083,5.083,0,0,1,42.917-9.22a4.72,4.72,0,0,1,2.3.422v2.355a3.166,3.166,0,0,0-1.942-.65,2.559,2.559,0,0,0-1.894.7,2.607,2.607,0,0,0-.7,1.929,2.565,2.565,0,0,0,.668,1.876,2.455,2.455,0,0,0,1.837.681,3.666,3.666,0,0,0,2.03-.65ZM51.328.22a4.838,4.838,0,0,1-3.538-1.261A4.573,4.573,0,0,1,46.5-4.465a4.573,4.573,0,0,1,1.336-3.494A5.048,5.048,0,0,1,51.451-9.22a4.78,4.78,0,0,1,3.516,1.261,4.483,4.483,0,0,1,1.274,3.335,4.759,4.759,0,0,1-1.314,3.542A4.892,4.892,0,0,1,51.328.22Zm.07-7.312a1.852,1.852,0,0,0-1.529.677A2.984,2.984,0,0,0,49.324-4.5q0,2.593,2.092,2.593,2,0,2-2.663Q53.411-7.093,51.4-7.093Z" transform="translate(781 7628.777)" fill="#0b0a0a"/>
  </g>
</svg>
