<svg xmlns="http://www.w3.org/2000/svg" xmlns:xlink="http://www.w3.org/1999/xlink" width="98" height="98" viewBox="0 0 98 98">
  <defs>
    <filter id="Trazado_982547" x="0" y="0" width="98" height="98" filterUnits="userSpaceOnUse">
      <feOffset dy="3" input="SourceAlpha"/>
      <feGaussianBlur stdDeviation="3" result="blur"/>
      <feFlood flood-opacity="0.161"/>
      <feComposite operator="in" in2="blur"/>
      <feComposite in="SourceGraphic"/>
    </filter>
  </defs>
  <g id="Grupo_1223597" data-name="Grupo 1223597" transform="translate(-194.13 -1300)">
    <g id="Grupo_1223172" data-name="Grupo 1223172" transform="translate(0 -708)">
      <g id="Grupo_1206686" data-name="Grupo 1206686" transform="translate(203.13 2014)">
        <g id="Grupo_1201889" data-name="Grupo 1201889">
          <g id="Grupo_1201680" data-name="Grupo 1201680">
            <g id="Grupo_1201330" data-name="Grupo 1201330">
              <g id="Grupo_1172010" data-name="Grupo 1172010">
                <g id="Grupo_1171046" data-name="Grupo 1171046">
                  <g id="Grupo_1148525" data-name="Grupo 1148525">
                    <g transform="matrix(1, 0, 0, 1, -9, -6)" filter="url(#Trazado_982547)">
                      <g id="Trazado_982547-2" data-name="Trazado 982547" transform="translate(9 6)" fill="#fcf5f0">
                        <path d="M 40 78.5 C 34.80187606811523 78.5 29.76003265380859 77.48227691650391 25.01452255249023 75.47509765625 C 20.43014526367188 73.53606414794922 16.31264495849609 70.75986480712891 12.77638912200928 67.22360992431641 C 9.240133285522461 63.68735504150391 6.46393346786499 59.56985473632812 4.524899959564209 54.98547744750977 C 2.517722129821777 50.23996734619141 1.5 45.19812393188477 1.5 40 C 1.5 34.80187606811523 2.517722129821777 29.76003265380859 4.524899959564209 25.01452255249023 C 6.46393346786499 20.43014526367188 9.240133285522461 16.31264495849609 12.77638912200928 12.77638912200928 C 16.31264495849609 9.240133285522461 20.43014526367188 6.46393346786499 25.01452255249023 4.524899959564209 C 29.76003265380859 2.517722129821777 34.80187606811523 1.5 40 1.5 C 45.19812393188477 1.5 50.23996734619141 2.517722129821777 54.98547744750977 4.524899959564209 C 59.56985473632812 6.46393346786499 63.68735504150391 9.240133285522461 67.22360992431641 12.77638912200928 C 70.75986480712891 16.31264495849609 73.53606414794922 20.43014526367188 75.47509765625 25.01452255249023 C 77.48227691650391 29.76003265380859 78.5 34.80187606811523 78.5 40 C 78.5 45.19812393188477 77.48227691650391 50.23996734619141 75.47509765625 54.98547744750977 C 73.53606414794922 59.56985473632812 70.75986480712891 63.68735504150391 67.22360992431641 67.22360992431641 C 63.68735504150391 70.75986480712891 59.56985473632812 73.53606414794922 54.98547744750977 75.47509765625 C 50.23996734619141 77.48227691650391 45.19812393188477 78.5 40 78.5 Z" stroke="none"/>
                        <path d="M 40 3 C 35.00370788574219 3 30.15846633911133 3.977851867675781 25.59885406494141 5.906410217285156 C 21.19327926635742 7.769813537597656 17.23603820800781 10.43806457519531 13.83705139160156 13.83705139160156 C 10.43806457519531 17.23603820800781 7.769813537597656 21.19327926635742 5.906410217285156 25.59885406494141 C 3.977851867675781 30.15846633911133 3 35.00370788574219 3 40 C 3 44.99629211425781 3.977851867675781 49.84153366088867 5.906410217285156 54.40114593505859 C 7.769813537597656 58.80672073364258 10.43806457519531 62.76396179199219 13.83705139160156 66.16294860839844 C 17.23603820800781 69.56193542480469 21.19327926635742 72.23018646240234 25.59885406494141 74.09358978271484 C 30.15846633911133 76.02214813232422 35.00370788574219 77 40 77 C 44.99629211425781 77 49.84153366088867 76.02214813232422 54.40114593505859 74.09358978271484 C 58.80672073364258 72.23018646240234 62.76396179199219 69.56193542480469 66.16294860839844 66.16294860839844 C 69.56193542480469 62.76396179199219 72.23018646240234 58.80672073364258 74.09358978271484 54.40114593505859 C 76.02214813232422 49.84153366088867 77 44.99629211425781 77 40 C 77 35.00370788574219 76.02214813232422 30.15846633911133 74.09358978271484 25.59885406494141 C 72.23018646240234 21.19327926635742 69.56193542480469 17.23603820800781 66.16294860839844 13.83705139160156 C 62.76396179199219 10.43806457519531 58.80672073364258 7.769813537597656 54.40114593505859 5.906410217285156 C 49.84153366088867 3.977851867675781 44.99629211425781 3 40 3 M 40 0 C 62.09138488769531 0 80 17.90861511230469 80 40 C 80 62.09138488769531 62.09138488769531 80 40 80 C 17.90861511230469 80 0 62.09138488769531 0 40 C 0 17.90861511230469 17.90861511230469 0 40 0 Z" stroke="none" fill="#eca675"/>
                      </g>
                    </g>
                  </g>
                </g>
              </g>
            </g>
          </g>
        </g>
      </g>
    </g>
    <g id="_x31_0463_-_Judgement" transform="translate(179.714 1282.523)">
      <g id="Grupo_1223596" data-name="Grupo 1223596" transform="translate(35.952 38.871)">
        <g id="Grupo_1223595" data-name="Grupo 1223595" transform="translate(0 0)">
          <g id="XMLID_46_">
            <g id="Grupo_1223580" data-name="Grupo 1223580" transform="translate(0.566 0.565)">
              <g id="Grupo_1223571" data-name="Grupo 1223571" transform="translate(0 24.789)">
                <path id="Trazado_1177697" data-name="Trazado 1177697" d="M49.969,279.887l.8,3-2.551.684a2.649,2.649,0,0,1-3.235-1.868l-3.937-14.691a2.65,2.65,0,0,1,1.868-3.235l2.552-.684.8,3Z" transform="translate(-40.958 -263.09)" fill="#21a1ff"/>
              </g>
              <g id="Grupo_1223572" data-name="Grupo 1223572" transform="translate(5.313 26.394)">
                <path id="Trazado_1177698" data-name="Trazado 1177698" d="M113.7,289.465l13.037-3.493a3.6,3.6,0,1,1,1.861,6.947l-9.263,2.482c-15.208,4.075-10.63,5.758-23.572-1.764-1.259-.732-2.582-1.771-4.122-1.158l-3.7-13.8c7.36-3.471,10.534.209,16.815,3.836l7.478,4.317a2.941,2.941,0,0,1,1.465,2.549c0,.027,0,.054,0,.083Z" transform="translate(-87.94 -277.288)" fill="#ffeac5"/>
              </g>
              <g id="Grupo_1223573" data-name="Grupo 1223573" transform="translate(32.545 1.574)">
                <path id="Trazado_1177699" data-name="Trazado 1177699" d="M342.273,57.79v2.3h-13.5a2.727,2.727,0,0,0,0-2.3Z" transform="translate(-328.77 -57.79)" fill="#1480ae"/>
              </g>
              <g id="Grupo_1223574" data-name="Grupo 1223574" transform="translate(14.106 1.574)">
                <path id="Trazado_1177700" data-name="Trazado 1177700" d="M165.7,57.79h13.5a2.727,2.727,0,0,0,0,2.3H165.7Z" transform="translate(-165.7 -57.79)" fill="#1480ae"/>
              </g>
              <g id="Grupo_1223575" data-name="Grupo 1223575" transform="translate(11.982 17.633)">
                <path id="Trazado_1177701" data-name="Trazado 1177701" d="M158.674,199.81h2.119c0,3.331-3.105,6.032-6.936,6.032s-6.937-2.7-6.937-6.032h11.754Z" transform="translate(-146.92 -199.81)" fill="#fee274"/>
              </g>
              <g id="Grupo_1223576" data-name="Grupo 1223576" transform="translate(34.298 17.633)">
                <path id="Trazado_1177702" data-name="Trazado 1177702" d="M356.024,199.81h2.119c0,3.331-3.106,6.032-6.937,6.032s-6.936-2.7-6.936-6.032h11.754Z" transform="translate(-344.27 -199.81)" fill="#fee274"/>
              </g>
              <g id="Grupo_1223577" data-name="Grupo 1223577" transform="translate(27.355)">
                <path id="Trazado_1177703" data-name="Trazado 1177703" d="M288.06,45.444a2.727,2.727,0,0,1,0,2.3,2.629,2.629,0,0,1-.388.6,2.718,2.718,0,0,1-4.161,0,2.628,2.628,0,0,1-.388-.6,2.722,2.722,0,0,1,4.937-2.3Z" transform="translate(-282.87 -43.87)" fill="#fee274"/>
              </g>
              <g id="Grupo_1223578" data-name="Grupo 1223578" transform="translate(25.22 27.272)">
                <path id="Trazado_1177704" data-name="Trazado 1177704" d="M273.7,285.05V289H263.99v-3.95H273.7Z" transform="translate(-263.99 -285.05)" fill="#047297"/>
              </g>
              <g id="Grupo_1223579" data-name="Grupo 1223579" transform="translate(27.995 4.474)">
                <path id="Trazado_1177705" data-name="Trazado 1177705" d="M292.694,83.441v22.8H288.53v-22.8h0a2.718,2.718,0,0,0,4.161,0Z" transform="translate(-288.53 -83.44)" fill="#1480ae"/>
              </g>
            </g>
            <g id="Grupo_1223594" data-name="Grupo 1223594">
              <g id="Grupo_1223581" data-name="Grupo 1223581" transform="translate(25.221 27.272)">
                <path id="Trazado_1177706" data-name="Trazado 1177706" d="M269.269,285.13h-9.713a.565.565,0,0,1-.565-.565v-3.95a.565.565,0,0,1,.565-.565h9.713a.565.565,0,0,1,.565.565v3.95A.565.565,0,0,1,269.269,285.13ZM260.121,284H268.7V281.18h-8.582Z" transform="translate(-258.99 -280.049)"/>
              </g>
              <g id="Grupo_1223582" data-name="Grupo 1223582" transform="translate(27.996 4.476)">
                <path id="Trazado_1177707" data-name="Trazado 1177707" d="M284.1,102.377a.565.565,0,0,1-.565-.565v-22.8a.565.565,0,1,1,1.131,0v22.8A.565.565,0,0,1,284.1,102.377Z" transform="translate(-283.53 -78.45)"/>
              </g>
              <g id="Grupo_1223583" data-name="Grupo 1223583" transform="translate(32.159 4.476)">
                <path id="Trazado_1177708" data-name="Trazado 1177708" d="M320.915,102.377a.565.565,0,0,1-.565-.565v-22.8a.565.565,0,1,1,1.131,0v22.8A.565.565,0,0,1,320.915,102.377Z" transform="translate(-320.35 -78.45)"/>
              </g>
              <g id="Grupo_1223584" data-name="Grupo 1223584" transform="translate(27.356)">
                <path id="Trazado_1177709" data-name="Trazado 1177709" d="M281.157,45.445a3.275,3.275,0,0,1-2.514-1.171,3.187,3.187,0,0,1-.468-.731,3.292,3.292,0,0,1,0-2.772,3.288,3.288,0,0,1,5.962,0,3.293,3.293,0,0,1,0,2.774,3.191,3.191,0,0,1-.471.734,3.271,3.271,0,0,1-2.51,1.166Zm0-5.444a2.166,2.166,0,0,0-1.956,1.247h0a2.161,2.161,0,0,0,0,1.816,2.068,2.068,0,0,0,.3.477,2.153,2.153,0,0,0,3.3,0,2.079,2.079,0,0,0,.308-.479,2.163,2.163,0,0,0,0-1.818A2.166,2.166,0,0,0,281.157,40Zm-2.469,1.009h0Z" transform="translate(-277.87 -38.871)"/>
              </g>
              <g id="Grupo_1223585" data-name="Grupo 1223585" transform="translate(14.106 1.574)">
                <path id="Trazado_1177710" data-name="Trazado 1177710" d="M174.768,56.216h-13.5a.565.565,0,0,1-.565-.565v-2.3a.565.565,0,0,1,.565-.565h13.5a.565.565,0,0,1,0,1.131H161.831v1.165h12.937a.565.565,0,0,1,0,1.131Z" transform="translate(-160.7 -52.79)"/>
              </g>
              <g id="Grupo_1223586" data-name="Grupo 1223586" transform="translate(32.546 1.574)">
                <path id="Trazado_1177711" data-name="Trazado 1177711" d="M337.839,56.216h-13.5a.565.565,0,0,1,0-1.131h12.937V53.921H324.336a.565.565,0,0,1,0-1.131h13.5a.565.565,0,0,1,.565.565v2.3A.565.565,0,0,1,337.839,56.216Z" transform="translate(-323.771 -52.79)"/>
              </g>
              <g id="Grupo_1223587" data-name="Grupo 1223587" transform="translate(11.983 17.633)">
                <path id="Trazado_1177712" data-name="Trazado 1177712" d="M149.423,201.971c-4.137,0-7.5-2.959-7.5-6.6a.565.565,0,0,1,.565-.565h13.874a.565.565,0,0,1,.565.565C156.924,199.012,153.559,201.971,149.423,201.971Zm-6.338-6.032c.331,2.749,3.047,4.9,6.338,4.9s6.006-2.152,6.337-4.9Z" transform="translate(-141.92 -194.809)"/>
              </g>
              <g id="Grupo_1223588" data-name="Grupo 1223588" transform="translate(14.102 3.869)">
                <path id="Trazado_1177713" data-name="Trazado 1177713" d="M170.861,87.984a.566.566,0,0,1-.534-.379l-4.284-12.239-4.285,12.239a.565.565,0,1,1-1.067-.374l4.818-13.764a.565.565,0,0,1,1.067,0l4.817,13.764a.566.566,0,0,1-.534.752Z" transform="translate(-160.66 -73.089)"/>
              </g>
              <g id="Grupo_1223589" data-name="Grupo 1223589" transform="translate(34.299 17.633)">
                <path id="Trazado_1177714" data-name="Trazado 1177714" d="M346.772,201.971c-4.136,0-7.5-2.959-7.5-6.6a.565.565,0,0,1,.565-.565h13.874a.565.565,0,0,1,.565.565C354.274,199.012,350.909,201.971,346.772,201.971Zm-6.337-6.032c.331,2.749,3.047,4.9,6.337,4.9s6.007-2.152,6.338-4.9Z" transform="translate(-339.27 -194.809)"/>
              </g>
              <g id="Grupo_1223590" data-name="Grupo 1223590" transform="translate(36.417 3.869)">
                <path id="Trazado_1177715" data-name="Trazado 1177715" d="M368.209,87.984a.566.566,0,0,1-.534-.379l-4.285-12.239-4.284,12.239a.565.565,0,0,1-1.067-.374l4.817-13.764a.565.565,0,0,1,1.067,0l4.818,13.764a.566.566,0,0,1-.534.752Z" transform="translate(-358.008 -73.089)"/>
              </g>
              <g id="Grupo_1223591" data-name="Grupo 1223591" transform="translate(5.313 26.404)">
                <path id="Trazado_1177716" data-name="Trazado 1177716" d="M106.318,288.514a3.465,3.465,0,0,1-1.738-.468L97.1,283.729a.565.565,0,1,1,.565-.979l7.479,4.317a2.366,2.366,0,0,0,3.55-1.977c0-.028,0-.047,0-.066a2.381,2.381,0,0,0-1.183-2.059l-7.478-4.317c-1.083-.625-2.058-1.242-3-1.839-4.5-2.843-7.466-4.721-13.289-1.975a.565.565,0,0,1-.482-1.023c6.384-3.011,9.911-.781,14.375,2.042.934.591,1.9,1.2,2.963,1.815l7.478,4.317a3.515,3.515,0,0,1,1.748,3.038c0,.035,0,.07,0,.107a3.487,3.487,0,0,1-2.59,3.262A3.537,3.537,0,0,1,106.318,288.514Z" transform="translate(-82.938 -272.374)"/>
              </g>
              <g id="Grupo_1223592" data-name="Grupo 1223592" transform="translate(9.011 34.956)">
                <path id="Trazado_1177717" data-name="Trazado 1177717" d="M131.252,362.15c-2.16,0-4.048-1.109-8.683-3.83-.761-.447-1.6-.939-2.527-1.478-.168-.1-.337-.2-.507-.3-1.052-.641-2.045-1.246-3.122-.817A.565.565,0,0,1,116,354.67c1.6-.637,2.943.181,4.128.9.164.1.326.2.487.292.929.54,1.769,1.033,2.531,1.481,3.737,2.194,5.613,3.3,7.222,3.59,1.568.286,3.043-.192,5.981-1.145,1.852-.6,4.158-1.348,7.407-2.219l9.263-2.482a3.031,3.031,0,0,0-1.569-5.855l-13.036,3.493a.565.565,0,0,1-.293-1.092l13.037-3.493a4.162,4.162,0,0,1,2.154,8.04l-9.263,2.482c-3.221.863-5.511,1.606-7.351,2.2a18.906,18.906,0,0,1-5.442,1.285Z" transform="translate(-115.639 -348)"/>
              </g>
              <g id="Grupo_1223593" data-name="Grupo 1223593" transform="translate(0 24.789)">
                <path id="Trazado_1177718" data-name="Trazado 1177718" d="M43.1,279.791a3.221,3.221,0,0,1-3.1-2.378l-3.937-14.691a3.211,3.211,0,0,1,2.268-3.928l2.552-.684a.565.565,0,0,1,.692.4l4.5,16.8.8,3a.565.565,0,0,1-.4.692l-2.551.684A3.2,3.2,0,0,1,43.1,279.791Zm-2.468-20.442-2.006.538a2.079,2.079,0,0,0-1.468,2.543l3.937,14.691a2.083,2.083,0,0,0,2.542,1.468l2.005-.538Z" transform="translate(-35.952 -258.091)"/>
              </g>
            </g>
          </g>
        </g>
      </g>
    </g>
  </g>
</svg>
