<svg xmlns="http://www.w3.org/2000/svg" xmlns:xlink="http://www.w3.org/1999/xlink" width="118" height="118" viewBox="0 0 118 118">
  <defs>
    <filter id="Trazado_982547" x="0" y="0" width="118" height="118" filterUnits="userSpaceOnUse">
      <feOffset dy="3" input="SourceAlpha"/>
      <feGaussianBlur stdDeviation="3" result="blur"/>
      <feFlood flood-opacity="0.161"/>
      <feComposite operator="in" in2="blur"/>
      <feComposite in="SourceGraphic"/>
    </filter>
  </defs>
  <g id="Grupo_1223629" data-name="Grupo 1223629" transform="translate(-583.5 -8905.045)">
    <g id="Grupo_1223200" data-name="Grupo 1223200" transform="translate(592.5 8911.045)">
      <g id="Grupo_1211216" data-name="Grupo 1211216" transform="translate(0)">
        <g id="Grupo_1210737" data-name="Grupo 1210737">
          <g id="Grupo_1210537" data-name="Grupo 1210537">
            <g id="Grupo_1164202" data-name="Grupo 1164202">
              <g id="Grupo_1158168" data-name="Grupo 1158168">
                <g id="Grupo_1152576" data-name="Grupo 1152576">
                  <g id="Grupo_1148633" data-name="Grupo 1148633">
                    <g id="Grupo_1148525" data-name="Grupo 1148525">
                      <g transform="matrix(1, 0, 0, 1, -9, -6)" filter="url(#Trazado_982547)">
                        <g id="Trazado_982547-2" data-name="Trazado 982547" transform="translate(9 6)" fill="#fcf5f0">
                          <path d="M 49.99999618530273 98.5 C 43.45188140869141 98.5 37.10042572021484 97.21786499023438 31.12206840515137 94.68923950195312 C 25.34691047668457 92.24655151367188 20.15996742248535 88.74931335449219 15.70532512664795 84.29468536376953 C 11.25068187713623 79.84004211425781 7.753438949584961 74.65309906005859 5.310753345489502 68.87792205810547 C 2.782124757766724 62.89956665039062 1.499996185302734 56.54811096191406 1.499996185302734 49.99999618530273 C 1.499996185302734 43.45188140869141 2.782124757766724 37.10042572021484 5.310753345489502 31.12206840515137 C 7.753438949584961 25.34691047668457 11.25068187713623 20.15996742248535 15.70532512664795 15.70532512664795 C 20.15996742248535 11.25068187713623 25.34691047668457 7.753438949584961 31.12206840515137 5.310753345489502 C 37.10042572021484 2.782124757766724 43.45188140869141 1.499996185302734 49.99999618530273 1.499996185302734 C 56.54811096191406 1.499996185302734 62.89956665039062 2.782124757766724 68.87792205810547 5.310753345489502 C 74.65309906005859 7.753438949584961 79.84004211425781 11.25068187713623 84.29468536376953 15.70532512664795 C 88.74931335449219 20.15996742248535 92.24655151367188 25.34691047668457 94.68923950195312 31.12206840515137 C 97.21786499023438 37.10042572021484 98.5 43.45188140869141 98.5 49.99999618530273 C 98.5 56.54811096191406 97.21786499023438 62.89956665039062 94.68923950195312 68.87792205810547 C 92.24655151367188 74.65309906005859 88.74931335449219 79.84004211425781 84.29468536376953 84.29468536376953 C 79.84004211425781 88.74931335449219 74.65309906005859 92.24655151367188 68.87792205810547 94.68923950195312 C 62.89956665039062 97.21786499023438 56.54811096191406 98.5 49.99999618530273 98.5 Z" stroke="none"/>
                          <path d="M 49.99999618530273 2.999992370605469 C 43.65372085571289 2.999992370605469 37.49885940551758 4.242256164550781 31.70639801025391 6.6922607421875 C 26.11002349853516 9.059318542480469 21.08335113525391 12.4486083984375 16.76598358154297 16.76598358154297 C 12.4486083984375 21.08335113525391 9.059318542480469 26.11002349853516 6.6922607421875 31.70639801025391 C 4.242256164550781 37.49885940551758 2.999992370605469 43.65372085571289 2.999992370605469 49.99999618530273 C 2.999992370605469 56.34627151489258 4.242256164550781 62.50113296508789 6.6922607421875 68.29359436035156 C 9.059318542480469 73.88996887207031 12.4486083984375 78.91664123535156 16.76598358154297 83.2340087890625 C 21.08335113525391 87.55138397216797 26.11002349853516 90.940673828125 31.70639801025391 93.30773162841797 C 37.49885940551758 95.75773620605469 43.65372085571289 97 49.99999618530273 97 C 56.34627151489258 97 62.50113296508789 95.75773620605469 68.29359436035156 93.30773162841797 C 73.88996887207031 90.940673828125 78.91664123535156 87.55138397216797 83.2340087890625 83.2340087890625 C 87.55138397216797 78.91664123535156 90.940673828125 73.88996887207031 93.30773162841797 68.29359436035156 C 95.75773620605469 62.50113296508789 97 56.34627151489258 97 49.99999618530273 C 97 43.65372085571289 95.75773620605469 37.49885940551758 93.30773162841797 31.70639801025391 C 90.940673828125 26.11002349853516 87.55138397216797 21.08335113525391 83.2340087890625 16.76598358154297 C 78.91664123535156 12.4486083984375 73.88996887207031 9.059318542480469 68.29359436035156 6.6922607421875 C 62.50113296508789 4.242256164550781 56.34627151489258 2.999992370605469 49.99999618530273 2.999992370605469 M 49.99999618530273 -7.62939453125e-06 C 77.61422729492188 -7.62939453125e-06 100 22.38576507568359 100 49.99999618530273 C 100 77.61422729492188 77.61422729492188 100 49.99999618530273 100 C 22.38576507568359 100 -7.62939453125e-06 77.61422729492188 -7.62939453125e-06 49.99999618530273 C -7.62939453125e-06 22.38576507568359 22.38576507568359 -7.62939453125e-06 49.99999618530273 -7.62939453125e-06 Z" stroke="none" fill="#eca675"/>
                        </g>
                      </g>
                    </g>
                  </g>
                </g>
              </g>
            </g>
          </g>
        </g>
      </g>
    </g>
    <g id="_26._Sign_Language" data-name="26. Sign Language" transform="translate(602.414 8930.924)">
      <path id="Trazado_1177915" data-name="Trazado 1177915" d="M46.016,125.451v22.526a9.714,9.714,0,0,1-1.026,4.365,9.816,9.816,0,0,0-1.044,4.4v5.971H20.14V156.5l-3.445-5.167a4.14,4.14,0,0,1-.695-2.3V138.907a4.14,4.14,0,0,1,4.14-4.14h1.035V121.382a3.152,3.152,0,0,1,3.044-3.176,3.105,3.105,0,0,1,3.166,3.105v-6.139A3.152,3.152,0,0,1,30.43,112,3.105,3.105,0,0,1,33.6,115.1v3.105a3.105,3.105,0,1,1,6.21,0v7.245a3.105,3.105,0,0,1,6.21,0Z" transform="translate(-6.965 -97.505)" fill="#e0c3aa"/>
      <path id="Trazado_1177916" data-name="Trazado 1177916" d="M48,480H71.806v3.105H48Z" transform="translate(-34.825 -417.898)" fill="#d0a37f"/>
      <path id="Trazado_1177917" data-name="Trazado 1177917" d="M103.245,132.981a1.035,1.035,0,0,1-1.035-1.035V108.14a2.07,2.07,0,0,0-4.14,0v19.666a1.035,1.035,0,1,1-2.07,0V108.14a4.14,4.14,0,1,1,8.28,0v23.806A1.035,1.035,0,0,1,103.245,132.981Z" transform="translate(-76.615 -90.545)"/>
      <path id="Trazado_1177918" data-name="Trazado 1177918" d="M55.245,170.631A1.035,1.035,0,0,1,54.21,169.6V156.14a2.07,2.07,0,0,0-4.14,0V169.6a1.035,1.035,0,1,1-2.07,0V156.14a4.14,4.14,0,1,1,8.28,0V169.6A1.035,1.035,0,0,1,55.245,170.631Z" transform="translate(-34.825 -132.334)"/>
      <path id="Trazado_1177919" data-name="Trazado 1177919" d="M199.245,202.631a1.035,1.035,0,0,1-1.035-1.035V188.14a2.07,2.07,0,0,0-4.14,0V201.6a1.035,1.035,0,1,1-2.07,0V188.14a4.14,4.14,0,1,1,8.28,0V201.6A1.035,1.035,0,0,1,199.245,202.631Z" transform="translate(-160.194 -160.194)"/>
      <path id="Trazado_1177920" data-name="Trazado 1177920" d="M151.245,153.876a1.035,1.035,0,0,1-1.035-1.035v-20.7a2.07,2.07,0,0,0-4.14,0v20.7a1.035,1.035,0,0,1-2.07,0v-20.7a4.14,4.14,0,0,1,8.28,0v20.7A1.035,1.035,0,0,1,151.245,153.876Z" transform="translate(-118.404 -111.439)"/>
      <path id="Trazado_1177921" data-name="Trazado 1177921" d="M13.175,310.016a1.035,1.035,0,0,1-1.035-1.035v-5.9l-3.271-4.906A5.155,5.155,0,0,1,8,295.307V285.175A5.175,5.175,0,0,1,13.175,280h6.857a3.493,3.493,0,0,1,3.493,3.493,5.822,5.822,0,0,1-2.284,4.62,9.328,9.328,0,0,1,5.389,8.447,1.035,1.035,0,0,1-2.07,0,7.253,7.253,0,0,0-7.245-7.245h-2.07a1.035,1.035,0,0,1,0-2.07H17.7a3.752,3.752,0,0,0,3.752-3.752,1.423,1.423,0,0,0-1.423-1.423H13.175a3.105,3.105,0,0,0-3.105,3.105v10.132a3.091,3.091,0,0,0,.518,1.722l3.445,5.167a1.044,1.044,0,0,1,.177.574v6.21a1.035,1.035,0,0,1-1.035,1.035Z" transform="translate(0 -243.774)"/>
      <path id="Trazado_1177922" data-name="Trazado 1177922" d="M225.035,337.876A1.035,1.035,0,0,1,224,336.841v-5.966a10.905,10.905,0,0,1,1.144-4.848,8.8,8.8,0,0,0,.926-3.922v-9.071a1.035,1.035,0,0,1,2.07,0v9.071A10.905,10.905,0,0,1,227,326.954a8.8,8.8,0,0,0-.926,3.922v5.966A1.035,1.035,0,0,1,225.035,337.876Z" transform="translate(-188.054 -271.634)"/>
      <path id="Trazado_1177923" data-name="Trazado 1177923" d="M256,10.07V28.7a2.07,2.07,0,0,0,2.07,2.07h3.105l3.105,4.14,3.105-4.14h17.6a2.07,2.07,0,0,0,2.07-2.07V10.07A2.07,2.07,0,0,0,284.981,8H258.07A2.07,2.07,0,0,0,256,10.07Z" transform="translate(-215.914 -6.965)" fill="#a8edfd"/>
      <path id="Trazado_1177924" data-name="Trazado 1177924" d="M287.051,144v3.105a2.07,2.07,0,0,1-2.07,2.07h-17.6l-3.105,4.14-3.105-4.14H258.07a2.07,2.07,0,0,1-2.07-2.07V144a2.07,2.07,0,0,0,2.07,2.07h26.911A2.07,2.07,0,0,0,287.051,144Z" transform="translate(-215.914 -125.369)" fill="#8bd4de"/>
      <path id="Trazado_1177925" data-name="Trazado 1177925" d="M256.487,28.567l-2.795-3.726h-2.588A3.105,3.105,0,0,1,248,21.736V3.105A3.105,3.105,0,0,1,251.105,0h26.911a3.105,3.105,0,0,1,3.105,3.105V21.736a3.105,3.105,0,0,1-3.105,3.105H264.561a1.035,1.035,0,0,1,0-2.07h13.455a1.035,1.035,0,0,0,1.035-1.035V3.105a1.035,1.035,0,0,0-1.035-1.035H251.105a1.035,1.035,0,0,0-1.035,1.035V21.736a1.035,1.035,0,0,0,1.035,1.035h3.105a1.035,1.035,0,0,1,.828.414l2.277,3.037,2.277-3.037a1.035,1.035,0,1,1,1.656,1.242l-3.105,4.14a1.035,1.035,0,0,1-1.656,0Z" transform="translate(-208.949)"/>
      <path id="Trazado_1177926" data-name="Trazado 1177926" d="M300.42,50.07H289.035a1.035,1.035,0,1,1,0-2.07H300.42a1.035,1.035,0,1,1,0,2.07Z" transform="translate(-243.774 -41.79)"/>
      <path id="Trazado_1177927" data-name="Trazado 1177927" d="M421.175,50.07h-4.14a1.035,1.035,0,1,1,0-2.07h4.14a1.035,1.035,0,1,1,0,2.07Z" transform="translate(-355.213 -41.79)"/>
      <path id="Trazado_1177928" data-name="Trazado 1177928" d="M372.42,90.07H361.035a1.035,1.035,0,0,1,0-2.07H372.42a1.035,1.035,0,0,1,0,2.07Z" transform="translate(-306.459 -76.615)"/>
      <path id="Trazado_1177929" data-name="Trazado 1177929" d="M293.175,90.07h-4.14a1.035,1.035,0,0,1,0-2.07h4.14a1.035,1.035,0,0,1,0,2.07Z" transform="translate(-243.774 -76.615)"/>
      <path id="Trazado_1177930" data-name="Trazado 1177930" d="M300.42,130.07H289.035a1.035,1.035,0,0,1,0-2.07H300.42a1.035,1.035,0,0,1,0,2.07Z" transform="translate(-243.774 -111.439)"/>
      <path id="Trazado_1177931" data-name="Trazado 1177931" d="M421.175,130.07h-4.14a1.035,1.035,0,0,1,0-2.07h4.14a1.035,1.035,0,0,1,0,2.07Z" transform="translate(-355.213 -111.439)"/>
    </g>
  </g>
</svg>
