<svg xmlns="http://www.w3.org/2000/svg" xmlns:xlink="http://www.w3.org/1999/xlink" width="118" height="118" viewBox="0 0 118 118">
  <defs>
    <filter id="Trazado_982547" x="0" y="0" width="118" height="118" filterUnits="userSpaceOnUse">
      <feOffset dy="3" input="SourceAlpha"/>
      <feGaussianBlur stdDeviation="3" result="blur"/>
      <feFlood flood-opacity="0.161"/>
      <feComposite operator="in" in2="blur"/>
      <feComposite in="SourceGraphic"/>
    </filter>
  </defs>
  <g id="Grupo_1223639" data-name="Grupo 1223639" transform="translate(-583.5 -10573.045)">
    <g id="Grupo_1223205" data-name="Grupo 1223205" transform="translate(592.5 10579.045)">
      <g id="Grupo_1211216" data-name="Grupo 1211216" transform="translate(0)">
        <g id="Grupo_1210737" data-name="Grupo 1210737">
          <g id="Grupo_1210537" data-name="Grupo 1210537">
            <g id="Grupo_1164202" data-name="Grupo 1164202">
              <g id="Grupo_1158168" data-name="Grupo 1158168">
                <g id="Grupo_1152576" data-name="Grupo 1152576">
                  <g id="Grupo_1148633" data-name="Grupo 1148633">
                    <g id="Grupo_1148525" data-name="Grupo 1148525">
                      <g transform="matrix(1, 0, 0, 1, -9, -6)" filter="url(#Trazado_982547)">
                        <g id="Trazado_982547-2" data-name="Trazado 982547" transform="translate(9 6)" fill="#fcf5f0">
                          <path d="M 49.99999618530273 98.5 C 43.45188140869141 98.5 37.10042572021484 97.21786499023438 31.12206840515137 94.68923950195312 C 25.34691047668457 92.24655151367188 20.15996742248535 88.74931335449219 15.70532512664795 84.29468536376953 C 11.25068187713623 79.84004211425781 7.753438949584961 74.65309906005859 5.310753345489502 68.87792205810547 C 2.782124757766724 62.89956665039062 1.499996185302734 56.54811096191406 1.499996185302734 49.99999618530273 C 1.499996185302734 43.45188140869141 2.782124757766724 37.10042572021484 5.310753345489502 31.12206840515137 C 7.753438949584961 25.34691047668457 11.25068187713623 20.15996742248535 15.70532512664795 15.70532512664795 C 20.15996742248535 11.25068187713623 25.34691047668457 7.753438949584961 31.12206840515137 5.310753345489502 C 37.10042572021484 2.782124757766724 43.45188140869141 1.499996185302734 49.99999618530273 1.499996185302734 C 56.54811096191406 1.499996185302734 62.89956665039062 2.782124757766724 68.87792205810547 5.310753345489502 C 74.65309906005859 7.753438949584961 79.84004211425781 11.25068187713623 84.29468536376953 15.70532512664795 C 88.74931335449219 20.15996742248535 92.24655151367188 25.34691047668457 94.68923950195312 31.12206840515137 C 97.21786499023438 37.10042572021484 98.5 43.45188140869141 98.5 49.99999618530273 C 98.5 56.54811096191406 97.21786499023438 62.89956665039062 94.68923950195312 68.87792205810547 C 92.24655151367188 74.65309906005859 88.74931335449219 79.84004211425781 84.29468536376953 84.29468536376953 C 79.84004211425781 88.74931335449219 74.65309906005859 92.24655151367188 68.87792205810547 94.68923950195312 C 62.89956665039062 97.21786499023438 56.54811096191406 98.5 49.99999618530273 98.5 Z" stroke="none"/>
                          <path d="M 49.99999618530273 2.999992370605469 C 43.65372085571289 2.999992370605469 37.49885940551758 4.242256164550781 31.70639801025391 6.6922607421875 C 26.11002349853516 9.059318542480469 21.08335113525391 12.4486083984375 16.76598358154297 16.76598358154297 C 12.4486083984375 21.08335113525391 9.059318542480469 26.11002349853516 6.6922607421875 31.70639801025391 C 4.242256164550781 37.49885940551758 2.999992370605469 43.65372085571289 2.999992370605469 49.99999618530273 C 2.999992370605469 56.34627151489258 4.242256164550781 62.50113296508789 6.6922607421875 68.29359436035156 C 9.059318542480469 73.88996887207031 12.4486083984375 78.91664123535156 16.76598358154297 83.2340087890625 C 21.08335113525391 87.55138397216797 26.11002349853516 90.940673828125 31.70639801025391 93.30773162841797 C 37.49885940551758 95.75773620605469 43.65372085571289 97 49.99999618530273 97 C 56.34627151489258 97 62.50113296508789 95.75773620605469 68.29359436035156 93.30773162841797 C 73.88996887207031 90.940673828125 78.91664123535156 87.55138397216797 83.2340087890625 83.2340087890625 C 87.55138397216797 78.91664123535156 90.940673828125 73.88996887207031 93.30773162841797 68.29359436035156 C 95.75773620605469 62.50113296508789 97 56.34627151489258 97 49.99999618530273 C 97 43.65372085571289 95.75773620605469 37.49885940551758 93.30773162841797 31.70639801025391 C 90.940673828125 26.11002349853516 87.55138397216797 21.08335113525391 83.2340087890625 16.76598358154297 C 78.91664123535156 12.4486083984375 73.88996887207031 9.059318542480469 68.29359436035156 6.6922607421875 C 62.50113296508789 4.242256164550781 56.34627151489258 2.999992370605469 49.99999618530273 2.999992370605469 M 49.99999618530273 -7.62939453125e-06 C 77.61422729492188 -7.62939453125e-06 100 22.38576507568359 100 49.99999618530273 C 100 77.61422729492188 77.61422729492188 100 49.99999618530273 100 C 22.38576507568359 100 -7.62939453125e-06 77.61422729492188 -7.62939453125e-06 49.99999618530273 C -7.62939453125e-06 22.38576507568359 22.38576507568359 -7.62939453125e-06 49.99999618530273 -7.62939453125e-06 Z" stroke="none" fill="#eca675"/>
                        </g>
                      </g>
                    </g>
                  </g>
                </g>
              </g>
            </g>
          </g>
        </g>
      </g>
    </g>
    <g id="holding-hands_7361162" transform="translate(612 10598)">
      <g id="Grupo_1223637" data-name="Grupo 1223637">
        <g id="Grupo_1223634" data-name="Grupo 1223634">
          <path id="Trazado_1177971" data-name="Trazado 1177971" d="M39.59,21.59A1.955,1.955,0,0,0,39,23a2.006,2.006,0,0,0-2-2,2.015,2.015,0,0,0-2,2,2.015,2.015,0,0,0-2-2,2.006,2.006,0,0,0-2,2V12a3,3,0,0,0-6,0V8a3,3,0,0,0-.87-2.11A11.751,11.751,0,0,1,28.62,5h.17a11.621,11.621,0,0,1,7.44,2.69L39,10l2.77-2.31A11.621,11.621,0,0,1,49.21,5h.17A11.614,11.614,0,0,1,60.25,20.72a11.462,11.462,0,0,1-2.15,3.57L47,36.91V25a2.006,2.006,0,0,0-2-2,2.015,2.015,0,0,0-2,2V23a2.006,2.006,0,0,0-2-2,1.955,1.955,0,0,0-1.41.59Z" fill="#ef7385"/>
        </g>
        <g id="Grupo_1223635" data-name="Grupo 1223635">
          <path id="Trazado_1177972" data-name="Trazado 1177972" d="M45,23a2.015,2.015,0,0,0-2,2V23a2.006,2.006,0,0,0-2-2,2.015,2.015,0,0,0-2,2,2.006,2.006,0,0,0-2-2,2.015,2.015,0,0,0-2,2,2.015,2.015,0,0,0-2-2,2.006,2.006,0,0,0-2,2v9a3,3,0,0,0-3-3,1,1,0,0,0-1,1v8.34A13.684,13.684,0,0,0,31,48V61H45V47.83A6.835,6.835,0,0,0,47,43V25A2.006,2.006,0,0,0,45,23Z" fill="#f0d0b4"/>
        </g>
        <g id="Grupo_1223636" data-name="Grupo 1223636">
          <path id="Trazado_1177973" data-name="Trazado 1177973" d="M30.12,9.88A3,3,0,0,0,25,12V8a3,3,0,0,0-.87-2.11l-.01-.01A3,3,0,0,0,19,8V4a3,3,0,0,0-6,0V8A3,3,0,0,0,7,8V20a3.995,3.995,0,0,0-4-4,2.006,2.006,0,0,0-2,2V34.79A13.469,13.469,0,0,0,7,46V61H27V46a10.141,10.141,0,0,0,1.52-1.4A13.616,13.616,0,0,1,27,38.34V30a1,1,0,0,1,1-1,3,3,0,0,1,3,3V12a2.993,2.993,0,0,0-.88-2.12Z" fill="#f0d0b4"/>
        </g>
      </g>
      <g id="Grupo_1223638" data-name="Grupo 1223638">
        <path id="Trazado_1177974" data-name="Trazado 1177974" d="M17.02,40.8l1.961.393A6.63,6.63,0,0,1,24.2,35.981L23.8,34.02A8.621,8.621,0,0,0,17.02,40.8Z"/>
        <path id="Trazado_1177975" data-name="Trazado 1177975" d="M37.262,42.24l-.156.313,1.789.9.156-.313a7.954,7.954,0,0,1,5.191-4.165l-.484-1.939a9.946,9.946,0,0,0-6.5,5.209Z"/>
        <path id="Trazado_1177976" data-name="Trazado 1177976" d="M62,16.617A12.63,12.63,0,0,0,49.384,4h-.178A12.639,12.639,0,0,0,41.13,6.924L39,8.7,36.871,6.924A12.644,12.644,0,0,0,28.794,4h-.178a12.548,12.548,0,0,0-4.285.763A3.911,3.911,0,0,0,20,4.556V4a4,4,0,0,0-8,0v.556A3.959,3.959,0,0,0,10,4,4,4,0,0,0,6,8v8.026A4.948,4.948,0,0,0,3,15a3,3,0,0,0-3,3V34.789A14.443,14.443,0,0,0,6,46.523V62H28V46.485c.1-.084.195-.175.293-.262A14.754,14.754,0,0,0,30,48.406V62H46V48.226A7.9,7.9,0,0,0,48,43V37.286L58.855,24.951A12.607,12.607,0,0,0,62,16.617ZM22,6a2,2,0,0,1,2,2V23H20V8a2,2,0,0,1,2-2ZM14,4a2,2,0,0,1,4,0V23H14.236c-.08,0-.157.012-.236.016V4ZM26.4,45.2l-.4.3V60H8V45.465l-.445-.3A12.448,12.448,0,0,1,2,34.789V18a1,1,0,0,1,1-1,3,3,0,0,1,3,3V30.82l.8.161a8.385,8.385,0,0,1,6.161,5.126l.106.266,1.857-.744-.106-.265A10.377,10.377,0,0,0,8,29.214V8a2,2,0,0,1,4,0V23.584a4.6,4.6,0,0,0-1.9,1.969l1.789.9A2.605,2.605,0,0,1,14.236,25H24a2,2,0,0,0,2-2V12a2,2,0,1,1,4,0V28.556A3.959,3.959,0,0,0,28,28a2,2,0,0,0-2,2v8.343A14.6,14.6,0,0,0,27.317,44.4a8.805,8.805,0,0,1-.918.8ZM46,43a5.868,5.868,0,0,1-1.707,4.121L44,47.414V60H32V47.586l-.293-.293A12.573,12.573,0,0,1,28,38.343V30a2,2,0,0,1,2,2v2.618l.553.276a5.752,5.752,0,0,1,2.553,2.553l1.789-.9A7.769,7.769,0,0,0,32,33.411V23a1,1,0,0,1,2,0v7.721a4.511,4.511,0,0,0-.707.571l1.414,1.415A2.4,2.4,0,0,1,36.414,32H42a2,2,0,0,0,2-2V25a1,1,0,0,1,2,0ZM36,23a1,1,0,0,1,2,0v7H36.414c-.141,0-.276.027-.414.04V23Zm4,0a1,1,0,0,1,2,0v7H40V23Zm8,11.259V25a2.99,2.99,0,0,0-4.116-2.78A2.973,2.973,0,0,0,39,20.78a2.954,2.954,0,0,0-4,0,2.908,2.908,0,0,0-3-.6V12a4,4,0,0,0-4-4,3.959,3.959,0,0,0-2,.556V8a3.979,3.979,0,0,0-.327-1.579A10.6,10.6,0,0,1,28.616,6h.178a10.64,10.64,0,0,1,6.8,2.46L39,11.3l3.41-2.841A10.631,10.631,0,0,1,49.206,6h.178a10.617,10.617,0,0,1,7.97,17.63Z"/>
        <path id="Trazado_1177977" data-name="Trazado 1177977" d="M56.052,15.316l1.9-.633A9.761,9.761,0,0,0,48.676,8H47v2h1.676A7.766,7.766,0,0,1,56.052,15.316Z"/>
        <path id="Trazado_1177978" data-name="Trazado 1177978" d="M56,17a6.2,6.2,0,0,1-1.828,4.414l-.879.879,1.414,1.414.879-.879A8.185,8.185,0,0,0,58,17Z"/>
      </g>
    </g>
  </g>
</svg>
