<svg xmlns="http://www.w3.org/2000/svg" xmlns:xlink="http://www.w3.org/1999/xlink" width="1329" height="548" viewBox="0 0 1329 548">
  <defs>
    <clipPath id="clip-path">
      <rect id="Rectángulo_421764" data-name="Rectángulo 421764" width="1175.403" height="338.472" fill="none"/>
    </clipPath>
    <clipPath id="clip-path-4">
      <rect id="Rectángulo_421719" data-name="Rectángulo 421719" width="274.309" height="190.785" fill="none"/>
    </clipPath>
    <clipPath id="clip-path-5">
      <rect id="Rectángulo_421760" data-name="Rectángulo 421760" width="291.609" height="69.338" fill="none"/>
    </clipPath>
  </defs>
  <g id="Grupo_1223726" data-name="Grupo 1223726" transform="translate(-136 -2258)">
    <g id="Grupo_1223697" data-name="Grupo 1223697" transform="translate(0 -428.403)">
      <rect id="Rectángulo_418186" data-name="Rectángulo 418186" width="1329" height="548" transform="translate(136 2686.403)" fill="#eaf2fb"/>
    </g>
    <g id="Grupo_1223716" data-name="Grupo 1223716" transform="translate(212.298 2294.329)" opacity="0.28">
      <g id="Grupo_1223715" data-name="Grupo 1223715" clip-path="url(#clip-path)">
        <rect id="Rectángulo_421686" data-name="Rectángulo 421686" width="11.198" height="38.495" transform="translate(1059.779 292.604)" fill="#f5f5f5"/>
        <g id="Grupo_1223706" data-name="Grupo 1223706">
          <g id="Grupo_1223705" data-name="Grupo 1223705" clip-path="url(#clip-path)">
            <path id="Trazado_1178610" data-name="Trazado 1178610" d="M714.623,220.061s-.55-.367.662-1.954a1.54,1.54,0,0,0-.662-2.445c-5.292,3.055-12.678,0-12.678,0s8.709-2.688,9.811-5.255c.823-1.917-.628-2.128-1.415-2.114.888-.093,2.813-.407,3.4-1.43.773-1.344-2.258-2.933-2.258-2.933a2.366,2.366,0,0,0,0-2.076c-.5-1.344-11.853-3.3-11.853-3.3,3.308.367,4.521-2.933,4.521-2.933s5.623.123,6.946-2.076-.883-2.812-4.631-4.644-12.017-8.675-12.017-8.675,5.182-.49,6.615-1.711.11-1.467.11-1.467c6.173.612,4.079-2.688,4.079-2.688a27.618,27.618,0,0,1-12.68-8.186s3.86-.857,5.844-2.69-1.654-2.321-1.654-2.321,7.277-.977,3.088-3.665c-3.185-2.044-8.279-4.792-9.863-5.618,1.737.638,5.673-.125,5.673-.125,4.631-2.078,0-5.133,0-5.133-5.4-3.055-13.34-10.753-13.34-10.753s3.969,2.076,5.954,1.466-2.206-3.055-2.206-3.055,2.1.61,2.977,0-2.315-3.422-2.315-3.422c-4.753-3.088-10.612-11.193-13.063-14.675-2.451,3.482-8.31,11.587-13.063,14.675,0,0-3.2,2.812-2.315,3.422s2.977,0,2.977,0-4.19,2.445-2.206,3.055,5.954-1.466,5.954-1.466-7.938,7.7-13.34,10.753c0,0-4.631,3.055,0,5.133,0,0,3.936.763,5.672.125-1.583.826-6.677,3.575-9.862,5.618-4.19,2.688,3.086,3.665,3.086,3.665s-3.638.489-1.653,2.321,5.844,2.69,5.844,2.69a27.616,27.616,0,0,1-12.68,8.186s-2.1,3.3,4.079,2.688c0,0-1.323.245.11,1.467s6.615,1.711,6.615,1.711-8.269,6.842-12.017,8.675-5.954,2.445-4.631,4.644,6.946,2.076,6.946,2.076,1.213,3.3,4.519,2.933c0,0-11.355,1.956-11.852,3.3a2.365,2.365,0,0,0,0,2.076s-3.031,1.589-2.26,2.933c.588,1.023,2.513,1.338,3.4,1.43-.787-.015-2.239.2-1.416,2.114,1.1,2.566,9.813,5.255,9.813,5.255s-7.388,3.055-12.68,0a1.54,1.54,0,0,0-.662,2.445c1.214,1.588.662,1.954.662,1.954s-2.756-2.078-1.544,1.1,7.607,5.133,7.607,5.133-3.638.61-2.536,2.566,5.734,4.277,10.8,4.766,11.907-1.344,11.907-1.344-4.63,2.443-1.433,3.787,6.836-1.709,6.836-1.709-.661,3.127,1.985,2.052a18.031,18.031,0,0,0,4.85-3.152s.826,4.609,2.479,3.506c1.653,1.1,2.479-3.506,2.479-3.506a18.028,18.028,0,0,0,4.85,3.152c2.646,1.075,1.985-2.052,1.985-2.052s3.638,3.053,6.836,1.709-1.433-3.787-1.433-3.787,6.836,1.833,11.907,1.344,9.7-2.812,10.8-4.766-2.536-2.566-2.536-2.566,6.394-1.954,7.607-5.133-1.544-1.1-1.544-1.1" transform="translate(393.218 72.416)" fill="#f5f5f5"/>
            <path id="Trazado_1178611" data-name="Trazado 1178611" d="M667.221,135.191l-.174-.08a.6.6,0,0,1,.174.08" transform="translate(415.774 84.215)" fill="#f5f5f5"/>
            <rect id="Rectángulo_421687" data-name="Rectángulo 421687" width="11.198" height="38.495" transform="translate(93.681 292.604)" fill="#f5f5f5"/>
            <path id="Trazado_1178612" data-name="Trazado 1178612" d="M119.481,220.061s-.55-.367.662-1.954a1.54,1.54,0,0,0-.662-2.445c-5.292,3.055-12.68,0-12.68,0s8.711-2.688,9.813-5.255c.823-1.917-.628-2.128-1.416-2.114.888-.093,2.813-.407,3.4-1.43.771-1.344-2.26-2.933-2.26-2.933a2.365,2.365,0,0,0,0-2.076c-.5-1.344-11.853-3.3-11.853-3.3,3.308.367,4.521-2.933,4.521-2.933s5.623.123,6.946-2.076-.883-2.812-4.631-4.644-12.017-8.675-12.017-8.675,5.182-.49,6.615-1.711.11-1.467.11-1.467c6.173.612,4.079-2.688,4.079-2.688a27.617,27.617,0,0,1-12.68-8.186s3.86-.857,5.844-2.69-1.654-2.321-1.654-2.321,7.277-.977,3.088-3.665c-3.185-2.044-8.279-4.792-9.863-5.618,1.737.638,5.673-.125,5.673-.125,4.631-2.078,0-5.133,0-5.133-5.4-3.055-13.34-10.753-13.34-10.753s3.969,2.076,5.954,1.466-2.206-3.055-2.206-3.055,2.1.61,2.977,0-2.315-3.422-2.315-3.422c-4.753-3.088-10.612-11.193-13.063-14.675-2.451,3.482-8.31,11.587-13.063,14.675,0,0-3.2,2.812-2.315,3.422s2.977,0,2.977,0-4.19,2.445-2.206,3.055,5.954-1.466,5.954-1.466-7.938,7.7-13.34,10.753c0,0-4.631,3.055,0,5.133,0,0,3.937.763,5.672.125-1.583.826-6.677,3.575-9.862,5.618-4.19,2.688,3.088,3.665,3.088,3.665s-3.639.489-1.654,2.321,5.844,2.69,5.844,2.69a27.617,27.617,0,0,1-12.68,8.186s-2.1,3.3,4.079,2.688c0,0-1.323.245.11,1.467s6.615,1.711,6.615,1.711-8.269,6.842-12.017,8.675-5.954,2.445-4.631,4.644,6.946,2.076,6.946,2.076,1.213,3.3,4.521,2.933c0,0-11.357,1.956-11.853,3.3a2.365,2.365,0,0,0,0,2.076s-3.031,1.589-2.26,2.933c.588,1.023,2.513,1.338,3.4,1.43-.787-.015-2.239.2-1.416,2.114,1.1,2.566,9.813,5.255,9.813,5.255s-7.388,3.055-12.68,0a1.54,1.54,0,0,0-.662,2.445c1.214,1.588.662,1.954.662,1.954s-2.756-2.078-1.544,1.1,7.607,5.133,7.607,5.133-3.638.61-2.536,2.566,5.734,4.277,10.8,4.766,11.907-1.344,11.907-1.344-4.63,2.443-1.433,3.787,6.836-1.709,6.836-1.709-.661,3.127,1.985,2.052a18.03,18.03,0,0,0,4.85-3.152s.826,4.609,2.479,3.506c1.653,1.1,2.479-3.506,2.479-3.506a18.03,18.03,0,0,0,4.85,3.152c2.646,1.075,1.985-2.052,1.985-2.052s3.638,3.053,6.836,1.709-1.433-3.787-1.433-3.787,6.836,1.833,11.907,1.344,9.7-2.812,10.8-4.766-2.536-2.566-2.536-2.566,6.394-1.954,7.607-5.133-1.544-1.1-1.544-1.1" transform="translate(22.263 72.416)" fill="#f5f5f5"/>
            <path id="Trazado_1178613" data-name="Trazado 1178613" d="M72.079,135.191c-.06-.028-.118-.054-.172-.08a.615.615,0,0,1,.172.08" transform="translate(44.82 84.215)" fill="#f5f5f5"/>
            <rect id="Rectángulo_421688" data-name="Rectángulo 421688" width="13.658" height="46.954" transform="translate(1114.523 284.145)" fill="#ebebeb"/>
            <path id="Trazado_1178614" data-name="Trazado 1178614" d="M761.919,223.6s-.672-.446.807-2.385-.807-2.98-.807-2.98c-6.454,3.725-15.465,0-15.465,0s10.625-3.279,11.969-6.409c1-2.339-.766-2.6-1.727-2.579,1.084-.112,3.432-.5,4.148-1.743.942-1.64-2.756-3.578-2.756-3.578a2.883,2.883,0,0,0,0-2.534c-.6-1.64-14.456-4.024-14.456-4.024,4.034.448,5.513-3.576,5.513-3.576s6.859.148,8.472-2.534-1.076-3.428-5.647-5.664-14.658-10.582-14.658-10.582,6.321-.6,8.068-2.088.135-1.789.135-1.789c7.531.745,4.975-3.277,4.975-3.277a33.679,33.679,0,0,1-15.464-9.987s4.706-1.044,7.128-3.279-2.018-2.833-2.018-2.833,8.875-1.192,3.765-4.471c-3.885-2.493-10.1-5.846-12.029-6.854,2.117.779,6.919-.153,6.919-.153,5.649-2.534,0-6.259,0-6.259-6.589-3.725-16.27-13.116-16.27-13.116s4.841,2.534,7.261,1.789-2.69-3.727-2.69-3.727,2.555.745,3.631,0-2.824-4.172-2.824-4.172c-5.8-3.768-12.943-13.654-15.933-17.9-2.989,4.245-10.134,14.131-15.933,17.9,0,0-3.9,3.427-2.823,4.172s3.631,0,3.631,0-5.11,2.982-2.69,3.727,7.261-1.789,7.261-1.789-9.681,9.391-16.27,13.116c0,0-5.649,3.725,0,6.259,0,0,4.8.932,6.918.153-1.932,1.008-8.146,4.36-12.029,6.854-5.11,3.279,3.765,4.471,3.765,4.471s-4.438.6-2.016,2.833,7.126,3.279,7.126,3.279a33.678,33.678,0,0,1-15.465,9.987s-2.555,4.023,4.977,3.277c0,0-1.615.3.133,1.789s8.069,2.088,8.069,2.088-10.086,8.345-14.658,10.582-7.261,2.98-5.647,5.664,8.472,2.534,8.472,2.534,1.479,4.024,5.513,3.576c0,0-13.852,2.385-14.456,4.024a2.883,2.883,0,0,0,0,2.534s-3.7,1.938-2.756,3.578c.716,1.247,3.063,1.631,4.148,1.743-.961-.018-2.732.24-1.727,2.579,1.344,3.13,11.969,6.409,11.969,6.409s-9.011,3.725-15.465,0c0,0-2.286,1.042-.807,2.98s.807,2.385.807,2.385-3.362-2.534-1.881,1.341S669.4,231.2,669.4,231.2s-4.436.745-3.092,3.13,6.993,5.217,13.178,5.813,14.524-1.64,14.524-1.64-5.647,2.98-1.748,4.62,8.337-2.086,8.337-2.086-.807,3.813,2.42,2.5a21.993,21.993,0,0,0,5.917-3.846s1.008,5.622,3.023,4.277c2.016,1.344,3.024-4.277,3.024-4.277a22,22,0,0,0,5.917,3.846c3.227,1.31,2.42-2.5,2.42-2.5s4.438,3.725,8.337,2.086-1.748-4.62-1.748-4.62,8.337,2.235,14.524,1.64,11.834-3.428,13.178-5.813-3.092-3.13-3.092-3.13,7.8-2.385,9.279-6.261-1.883-1.341-1.883-1.341" transform="translate(411.227 60.395)" fill="#ebebeb"/>
            <path id="Trazado_1178615" data-name="Trazado 1178615" d="M704.1,120.08l-.211-.1a.759.759,0,0,1,.211.1" transform="translate(438.739 74.786)" fill="#ebebeb"/>
            <rect id="Rectángulo_421689" data-name="Rectángulo 421689" width="13.658" height="46.954" transform="translate(43.545 284.145)" fill="#ebebeb"/>
            <path id="Trazado_1178616" data-name="Trazado 1178616" d="M102.168,223.6s-.672-.446.807-2.385-.807-2.98-.807-2.98c-6.454,3.725-15.465,0-15.465,0s10.625-3.279,11.969-6.409c1-2.339-.766-2.6-1.727-2.579,1.084-.112,3.432-.5,4.148-1.743.942-1.64-2.756-3.578-2.756-3.578a2.882,2.882,0,0,0,0-2.534c-.6-1.64-14.456-4.024-14.456-4.024,4.034.448,5.513-3.576,5.513-3.576s6.858.148,8.472-2.534-1.076-3.428-5.647-5.664-14.658-10.582-14.658-10.582,6.321-.6,8.069-2.088.133-1.789.133-1.789c7.531.745,4.977-3.277,4.977-3.277a33.69,33.69,0,0,1-15.465-9.987s4.706-1.044,7.128-3.279-2.018-2.833-2.018-2.833,8.875-1.192,3.764-4.471c-3.883-2.493-10.1-5.846-12.029-6.854,2.117.779,6.919-.153,6.919-.153,5.649-2.534,0-6.259,0-6.259-6.589-3.725-16.27-13.116-16.27-13.116s4.841,2.534,7.261,1.789-2.69-3.727-2.69-3.727,2.557.745,3.631,0-2.825-4.172-2.825-4.172c-5.8-3.768-12.943-13.654-15.933-17.9-2.989,4.245-10.134,14.131-15.931,17.9,0,0-3.9,3.427-2.825,4.172s3.631,0,3.631,0-5.11,2.982-2.69,3.727,7.261-1.789,7.261-1.789-9.681,9.391-16.27,13.116c0,0-5.649,3.725,0,6.259,0,0,4.8.932,6.919.153-1.932,1.008-8.146,4.36-12.029,6.854-5.11,3.279,3.764,4.471,3.764,4.471s-4.438.6-2.016,2.833,7.126,3.279,7.126,3.279a33.678,33.678,0,0,1-15.465,9.987s-2.555,4.023,4.977,3.277c0,0-1.614.3.133,1.789s8.069,2.088,8.069,2.088-10.086,8.345-14.658,10.582-7.261,2.98-5.647,5.664,8.472,2.534,8.472,2.534,1.479,4.024,5.513,3.576c0,0-13.852,2.385-14.456,4.024a2.882,2.882,0,0,0,0,2.534s-3.7,1.938-2.756,3.578c.716,1.247,3.063,1.631,4.148,1.743-.961-.018-2.732.24-1.727,2.579,1.344,3.13,11.969,6.409,11.969,6.409s-9.011,3.725-15.465,0c0,0-2.286,1.042-.807,2.98s.807,2.385.807,2.385S-1.1,221.062.377,224.937,9.654,231.2,9.654,231.2s-4.436.745-3.092,3.13,6.993,5.217,13.178,5.813,14.524-1.64,14.524-1.64-5.647,2.98-1.748,4.62,8.337-2.086,8.337-2.086-.807,3.813,2.42,2.5a21.994,21.994,0,0,0,5.917-3.846s1.008,5.622,3.023,4.277c2.016,1.344,3.024-4.277,3.024-4.277a22.026,22.026,0,0,0,5.917,3.846c3.227,1.31,2.42-2.5,2.42-2.5s4.438,3.725,8.337,2.086-1.748-4.62-1.748-4.62,8.337,2.235,14.524,1.64,11.834-3.428,13.178-5.813-3.092-3.13-3.092-3.13,7.8-2.385,9.279-6.261-1.883-1.341-1.883-1.341" transform="translate(0 60.395)" fill="#ebebeb"/>
            <path id="Trazado_1178617" data-name="Trazado 1178617" d="M44.351,120.08l-.211-.1a.757.757,0,0,1,.211.1" transform="translate(27.513 74.786)" fill="#ebebeb"/>
            <path id="Trazado_1178618" data-name="Trazado 1178618" d="M267.162,70.162c-1.381-3.688-2.79-7.427-5.113-10.607s-5.719-5.784-9.628-6.263-8.24,1.631-9.513,5.357c-.562-8.4-1.752-17.012-5.954-24.3s-12.047-13.017-20.447-12.5c-7.922.484-14.7,6.368-18.47,13.352s-5.063,14.994-6.3,22.832c-3-3.683-9.342-2.526-12.475,1.049s-3.927,8.568-4.594,13.274h94.507Z" transform="translate(108.872 13.594)" fill="#ebebeb"/>
            <path id="Trazado_1178619" data-name="Trazado 1178619" d="M580.608,73.343c-1.381-3.688-2.79-7.427-5.113-10.607s-5.719-5.784-9.628-6.263-8.24,1.631-9.513,5.357c-.562-8.4-1.751-17.012-5.954-24.3s-12.047-13.017-20.447-12.5c-7.922.484-14.7,6.368-18.47,13.352s-5.063,14.994-6.3,22.832c-3-3.683-9.342-2.526-12.475,1.049s-3.927,8.568-4.594,13.274h94.507Z" transform="translate(304.244 15.577)" fill="#ebebeb"/>
            <path id="Trazado_1178620" data-name="Trazado 1178620" d="M288.417,34.383a20.829,20.829,0,0,0-2.461-5.1,7.029,7.029,0,0,0-4.631-3.013,4.3,4.3,0,0,0-4.576,2.576c-.27-4.039-.843-8.185-2.865-11.693s-5.8-6.263-9.837-6.016c-3.81.234-7.073,3.065-8.884,6.423s-2.437,7.214-3.031,10.985c-1.445-1.773-4.495-1.216-6,.5s-1.888,4.122-2.209,6.384h45.467Z" transform="translate(152.036 6.931)" fill="#f5f5f5"/>
            <path id="Trazado_1178621" data-name="Trazado 1178621" d="M721.175,70.139a20.894,20.894,0,0,0-2.463-5.1,7.033,7.033,0,0,0-4.63-3.014A4.306,4.306,0,0,0,709.5,64.6c-.268-4.039-.842-8.185-2.863-11.693s-5.8-6.263-9.837-6.016c-3.812.234-7.074,3.065-8.886,6.423s-2.435,7.214-3.031,10.985c-1.445-1.773-4.493-1.216-6,.5s-1.89,4.122-2.209,6.384h45.469Z" transform="translate(421.776 29.218)" fill="#f5f5f5"/>
          </g>
        </g>
        <rect id="Rectángulo_421691" data-name="Rectángulo 421691" width="126.624" height="235.032" transform="translate(111.096 95.928)" fill="#e0e0e0"/>
        <rect id="Rectángulo_421692" data-name="Rectángulo 421692" width="214.341" height="171.583" transform="translate(236.16 159.376)" fill="#e0e0e0"/>
        <g id="Grupo_1223714" data-name="Grupo 1223714">
          <g id="Grupo_1223713" data-name="Grupo 1223713" clip-path="url(#clip-path)">
            <path id="Trazado_1178622" data-name="Trazado 1178622" d="M146.553,292.669c-.234,0-.422-51.719-.422-115.5,0-63.8.188-115.511.422-115.511s.422,51.707.422,115.511c0,63.783-.188,115.5-.422,115.5" transform="translate(91.084 38.431)" fill="#263238"/>
            <rect id="Rectángulo_421693" data-name="Rectángulo 421693" width="339.407" height="77.287" transform="translate(111.096 253.672)" fill="#ffc09d"/>
            <path id="Trazado_1178623" data-name="Trazado 1178623" d="M200.4,66.027,133.162,31.409,66.268,66.027Z" transform="translate(41.305 19.577)" fill="#ff725e"/>
            <rect id="Rectángulo_421694" data-name="Rectángulo 421694" width="134.135" height="7.738" transform="translate(107.573 85.605)" fill="#e0e0e0"/>
            <rect id="Rectángulo_421695" data-name="Rectángulo 421695" width="130.452" height="2.586" transform="translate(109.201 93.343)" fill="#e0e0e0"/>
            <path id="Trazado_1178624" data-name="Trazado 1178624" d="M66.186,57.664c0-.234,30.059-.422,67.13-.422s67.137.188,67.137.422-30.052.422-67.137.422-67.13-.188-67.13-.422" transform="translate(41.254 35.679)" fill="#263238"/>
            <path id="Trazado_1178625" data-name="Trazado 1178625" d="M67.207,59.257c0-.234,29.229-.422,65.275-.422s65.281.188,65.281.422-29.221.422-65.281.422-65.275-.188-65.275-.422" transform="translate(41.891 36.672)" fill="#263238"/>
            <rect id="Rectángulo_421696" data-name="Rectángulo 421696" width="27.205" height="46.763" transform="translate(184.227 123.527)" fill="#fff"/>
            <rect id="Rectángulo_421697" data-name="Rectángulo 421697" width="21.327" height="40.691" transform="translate(187.24 126.941)" fill="#455a64"/>
            <path id="Trazado_1178626" data-name="Trazado 1178626" d="M122.34,119.111c-.234,0-.422-9.173-.422-20.484s.188-20.488.422-20.488.422,9.17.422,20.488-.188,20.484-.422,20.484" transform="translate(75.992 48.705)" fill="#263238"/>
            <path id="Trazado_1178627" data-name="Trazado 1178627" d="M115.345,85.921c0-.234,4.774-.422,10.662-.422s10.665.188,10.665.422-4.774.422-10.665.422-10.662-.188-10.662-.422" transform="translate(71.895 53.292)" fill="#263238"/>
            <path id="Trazado_1178628" data-name="Trazado 1178628" d="M115.345,94.77c0-.234,4.774-.422,10.662-.422s10.665.188,10.665.422-4.774.422-10.665.422S115.345,95,115.345,94.77" transform="translate(71.895 58.808)" fill="#263238"/>
            <rect id="Rectángulo_421698" data-name="Rectángulo 421698" width="27.205" height="46.763" transform="translate(352.707 179.976)" fill="#fff"/>
            <rect id="Rectángulo_421699" data-name="Rectángulo 421699" width="21.327" height="40.691" transform="translate(355.72 183.391)" fill="#455a64"/>
            <path id="Trazado_1178629" data-name="Trazado 1178629" d="M226.128,153.885c-.234,0-.422-9.173-.422-20.486s.188-20.486.422-20.486.422,9.17.422,20.486-.188,20.486-.422,20.486" transform="translate(140.684 70.379)" fill="#263238"/>
            <path id="Trazado_1178630" data-name="Trazado 1178630" d="M219.133,120.7c0-.234,4.774-.422,10.662-.422s10.665.188,10.665.422-4.774.422-10.665.422-10.662-.188-10.662-.422" transform="translate(136.587 74.967)" fill="#263238"/>
            <path id="Trazado_1178631" data-name="Trazado 1178631" d="M219.133,129.545c0-.234,4.774-.422,10.662-.422s10.665.188,10.665.422-4.774.422-10.665.422-10.662-.188-10.662-.422" transform="translate(136.587 80.483)" fill="#263238"/>
            <rect id="Rectángulo_421700" data-name="Rectángulo 421700" width="27.205" height="46.763" transform="translate(402.367 179.976)" fill="#fff"/>
            <rect id="Rectángulo_421701" data-name="Rectángulo 421701" width="21.327" height="40.691" transform="translate(405.382 183.391)" fill="#455a64"/>
            <path id="Trazado_1178632" data-name="Trazado 1178632" d="M256.721,153.885c-.234,0-.422-9.173-.422-20.486s.188-20.486.422-20.486.422,9.17.422,20.486-.188,20.486-.422,20.486" transform="translate(159.753 70.379)" fill="#263238"/>
            <path id="Trazado_1178633" data-name="Trazado 1178633" d="M249.726,120.7c0-.234,4.774-.422,10.664-.422s10.664.188,10.664.422-4.774.422-10.664.422-10.664-.188-10.664-.422" transform="translate(155.656 74.967)" fill="#263238"/>
            <path id="Trazado_1178634" data-name="Trazado 1178634" d="M249.726,129.545c0-.234,4.774-.422,10.664-.422s10.664.188,10.664.422-4.774.422-10.664.422-10.664-.188-10.664-.422" transform="translate(155.656 80.483)" fill="#263238"/>
            <rect id="Rectángulo_421702" data-name="Rectángulo 421702" width="27.205" height="46.763" transform="translate(308.063 179.43)" fill="#fff"/>
            <rect id="Rectángulo_421703" data-name="Rectángulo 421703" width="21.327" height="40.691" transform="translate(311.077 182.846)" fill="#455a64"/>
            <path id="Trazado_1178635" data-name="Trazado 1178635" d="M198.627,153.549c-.234,0-.422-9.173-.422-20.485s.188-20.488.422-20.488.422,9.17.422,20.488-.188,20.485-.422,20.485" transform="translate(123.542 70.17)" fill="#263238"/>
            <path id="Trazado_1178636" data-name="Trazado 1178636" d="M191.632,120.359c0-.234,4.773-.422,10.66-.422s10.665.188,10.665.422-4.774.422-10.665.422-10.66-.188-10.66-.422" transform="translate(119.445 74.757)" fill="#263238"/>
            <path id="Trazado_1178637" data-name="Trazado 1178637" d="M191.632,129.208c0-.234,4.773-.422,10.66-.422s10.665.188,10.665.422-4.774.422-10.665.422-10.66-.188-10.66-.422" transform="translate(119.445 80.273)" fill="#263238"/>
            <rect id="Rectángulo_421704" data-name="Rectángulo 421704" width="27.205" height="46.763" transform="translate(263.419 178.883)" fill="#fff"/>
            <rect id="Rectángulo_421705" data-name="Rectángulo 421705" width="21.327" height="40.691" transform="translate(266.433 182.299)" fill="#455a64"/>
            <path id="Trazado_1178638" data-name="Trazado 1178638" d="M171.125,153.212c-.234,0-.422-9.173-.422-20.486s.188-20.486.422-20.486.422,9.17.422,20.486-.188,20.486-.422,20.486" transform="translate(106.4 69.96)" fill="#263238"/>
            <path id="Trazado_1178639" data-name="Trazado 1178639" d="M164.13,120.022c0-.234,4.774-.422,10.662-.422s10.665.188,10.665.422-4.774.422-10.665.422-10.662-.188-10.662-.422" transform="translate(102.303 74.547)" fill="#263238"/>
            <path id="Trazado_1178640" data-name="Trazado 1178640" d="M164.13,128.87c0-.234,4.774-.42,10.662-.42s10.665.187,10.665.42-4.774.422-10.665.422-10.662-.187-10.662-.422" transform="translate(102.303 80.064)" fill="#263238"/>
            <rect id="Rectángulo_421706" data-name="Rectángulo 421706" width="27.205" height="46.763" transform="translate(136.194 123.527)" fill="#fff"/>
            <rect id="Rectángulo_421707" data-name="Rectángulo 421707" width="21.327" height="40.691" transform="translate(139.208 126.941)" fill="#455a64"/>
            <path id="Trazado_1178641" data-name="Trazado 1178641" d="M92.751,119.111c-.234,0-.422-9.173-.422-20.484s.188-20.488.422-20.488.422,9.17.422,20.488-.188,20.484-.422,20.484" transform="translate(57.549 48.705)" fill="#263238"/>
            <path id="Trazado_1178642" data-name="Trazado 1178642" d="M85.756,85.921c0-.234,4.774-.422,10.662-.422s10.665.188,10.665.422-4.774.422-10.665.422-10.662-.188-10.662-.422" transform="translate(53.452 53.292)" fill="#263238"/>
            <path id="Trazado_1178643" data-name="Trazado 1178643" d="M85.756,94.77c0-.234,4.774-.422,10.662-.422s10.665.188,10.665.422-4.774.422-10.665.422S85.756,95,85.756,94.77" transform="translate(53.452 58.808)" fill="#263238"/>
            <rect id="Rectángulo_421708" data-name="Rectángulo 421708" width="27.205" height="46.763" transform="translate(184.227 183.408)" fill="#fff"/>
            <rect id="Rectángulo_421709" data-name="Rectángulo 421709" width="21.327" height="40.691" transform="translate(187.24 186.821)" fill="#455a64"/>
            <path id="Trazado_1178644" data-name="Trazado 1178644" d="M122.34,156c-.234,0-.422-9.173-.422-20.485s.188-20.488.422-20.488.422,9.17.422,20.488S122.574,156,122.34,156" transform="translate(75.992 71.696)" fill="#263238"/>
            <path id="Trazado_1178645" data-name="Trazado 1178645" d="M115.345,122.809c0-.234,4.774-.422,10.662-.422s10.665.188,10.665.422-4.774.422-10.665.422-10.662-.188-10.662-.422" transform="translate(71.895 76.285)" fill="#263238"/>
            <path id="Trazado_1178646" data-name="Trazado 1178646" d="M115.345,131.658c0-.234,4.774-.422,10.662-.422s10.665.188,10.665.422-4.774.422-10.665.422-10.662-.188-10.662-.422" transform="translate(71.895 81.8)" fill="#263238"/>
            <rect id="Rectángulo_421710" data-name="Rectángulo 421710" width="27.205" height="46.763" transform="translate(136.194 183.408)" fill="#fff"/>
            <rect id="Rectángulo_421711" data-name="Rectángulo 421711" width="21.327" height="40.691" transform="translate(139.208 186.821)" fill="#455a64"/>
            <path id="Trazado_1178647" data-name="Trazado 1178647" d="M92.751,156c-.234,0-.422-9.173-.422-20.485s.188-20.488.422-20.488.422,9.17.422,20.488S92.985,156,92.751,156" transform="translate(57.549 71.696)" fill="#263238"/>
            <path id="Trazado_1178648" data-name="Trazado 1178648" d="M85.756,122.809c0-.234,4.774-.422,10.662-.422s10.665.188,10.665.422-4.774.422-10.665.422-10.662-.188-10.662-.422" transform="translate(53.452 76.285)" fill="#263238"/>
            <path id="Trazado_1178649" data-name="Trazado 1178649" d="M85.756,131.658c0-.234,4.774-.422,10.662-.422s10.665.188,10.665.422-4.774.422-10.665.422-10.662-.188-10.662-.422" transform="translate(53.452 81.8)" fill="#263238"/>
            <rect id="Rectángulo_421712" data-name="Rectángulo 421712" width="343.871" height="7.914" transform="translate(107.214 240.717)" fill="#e0e0e0"/>
            <rect id="Rectángulo_421713" data-name="Rectángulo 421713" width="341.821" height="5.302" transform="translate(109.266 248.371)" fill="#e0e0e0"/>
            <path id="Trazado_1178650" data-name="Trazado 1178650" d="M409.331,153.557c0,.234-76.643.422-171.163.422-94.554,0-171.179-.188-171.179-.422s76.625-.422,171.179-.422c94.52,0,171.163.188,171.163.422" transform="translate(41.755 95.45)" fill="#263238"/>
            <path id="Trazado_1178651" data-name="Trazado 1178651" d="M409.331,156.431c0,.234-76.643.422-171.163.422-94.554,0-171.179-.188-171.179-.422s76.625-.422,171.179-.422c94.52,0,171.163.188,171.163.422" transform="translate(41.755 97.241)" fill="#263238"/>
            <path id="Trazado_1178652" data-name="Trazado 1178652" d="M409.331,148.45c0,.234-76.643.422-171.163.422-94.554,0-171.179-.188-171.179-.422s76.625-.422,171.179-.422c94.52,0,171.163.188,171.163.422" transform="translate(41.755 92.267)" fill="#263238"/>
            <path id="Trazado_1178653" data-name="Trazado 1178653" d="M202.7,222.236H231.29v-47.86a13.069,13.069,0,0,0-13.069-13.068h-2.458A13.066,13.066,0,0,0,202.7,174.376Z" transform="translate(126.342 100.544)" fill="#fff"/>
            <path id="Trazado_1178654" data-name="Trazado 1178654" d="M205.19,216.149h20.489V173.382a9.364,9.364,0,0,0-9.363-9.365h-1.761a9.365,9.365,0,0,0-9.365,9.365Z" transform="translate(127.896 102.233)" fill="#455a64"/>
            <path id="Trazado_1178655" data-name="Trazado 1178655" d="M211.663,216.149c-.234,0-.422-11.672-.422-26.065s.188-26.067.422-26.067.422,11.668.422,26.067-.188,26.065-.422,26.065" transform="translate(131.668 102.233)" fill="#263238"/>
            <path id="Trazado_1178656" data-name="Trazado 1178656" d="M205.272,174.184c0-.234,4.57-.422,10.206-.422s10.207.188,10.207.422-4.568.422-10.207.422-10.206-.188-10.206-.422" transform="translate(127.947 108.307)" fill="#263238"/>
            <path id="Trazado_1178657" data-name="Trazado 1178657" d="M205.272,184.7c0-.234,4.57-.422,10.206-.422s10.207.188,10.207.422-4.568.422-10.207.422-10.206-.188-10.206-.422" transform="translate(127.947 114.862)" fill="#263238"/>
            <path id="Trazado_1178658" data-name="Trazado 1178658" d="M236.236,222.236h28.593v-47.86a13.067,13.067,0,0,0-13.068-13.068H249.3a13.067,13.067,0,0,0-13.068,13.068Z" transform="translate(147.247 100.544)" fill="#fff"/>
            <path id="Trazado_1178659" data-name="Trazado 1178659" d="M238.73,216.149h20.489V173.382a9.364,9.364,0,0,0-9.363-9.365h-1.761a9.365,9.365,0,0,0-9.365,9.365Z" transform="translate(148.802 102.233)" fill="#455a64"/>
            <path id="Trazado_1178660" data-name="Trazado 1178660" d="M245.2,216.149c-.234,0-.422-11.672-.422-26.065s.188-26.067.422-26.067.422,11.668.422,26.067-.188,26.065-.422,26.065" transform="translate(152.573 102.233)" fill="#263238"/>
            <path id="Trazado_1178661" data-name="Trazado 1178661" d="M238.812,174.184c0-.234,4.57-.422,10.206-.422s10.207.188,10.207.422-4.568.422-10.207.422-10.206-.188-10.206-.422" transform="translate(148.853 108.307)" fill="#263238"/>
            <path id="Trazado_1178662" data-name="Trazado 1178662" d="M238.812,184.7c0-.234,4.57-.422,10.206-.422s10.207.188,10.207.422-4.568.422-10.207.422-10.206-.188-10.206-.422" transform="translate(148.853 114.862)" fill="#263238"/>
            <path id="Trazado_1178663" data-name="Trazado 1178663" d="M163.191,222.236h28.593v-47.86a13.067,13.067,0,0,0-13.068-13.068h-2.458a13.067,13.067,0,0,0-13.068,13.068Z" transform="translate(101.718 100.544)" fill="#fff"/>
            <path id="Trazado_1178664" data-name="Trazado 1178664" d="M165.743,216.541h20.489V173.774a9.364,9.364,0,0,0-9.363-9.365h-1.761a9.365,9.365,0,0,0-9.365,9.365Z" transform="translate(103.309 102.477)" fill="#455a64"/>
            <path id="Trazado_1178665" data-name="Trazado 1178665" d="M172.158,216.149c-.234,0-.422-11.672-.422-26.065s.188-26.067.422-26.067.422,11.668.422,26.067-.188,26.065-.422,26.065" transform="translate(107.044 102.233)" fill="#263238"/>
            <path id="Trazado_1178666" data-name="Trazado 1178666" d="M165.767,174.184c0-.234,4.57-.422,10.206-.422s10.207.188,10.207.422-4.568.422-10.207.422-10.206-.188-10.206-.422" transform="translate(103.324 108.307)" fill="#263238"/>
            <path id="Trazado_1178667" data-name="Trazado 1178667" d="M165.767,184.7c0-.234,4.57-.422,10.206-.422s10.207.188,10.207.422-4.568.422-10.207.422-10.206-.188-10.206-.422" transform="translate(103.324 114.862)" fill="#263238"/>
            <path id="Trazado_1178668" data-name="Trazado 1178668" d="M78.183,222.236h28.593v-47.86a13.067,13.067,0,0,0-13.068-13.068H91.251a13.067,13.067,0,0,0-13.068,13.068Z" transform="translate(48.732 100.544)" fill="#fff"/>
            <path id="Trazado_1178669" data-name="Trazado 1178669" d="M80.735,216.541h20.489V173.774a9.364,9.364,0,0,0-9.363-9.365H90.1a9.365,9.365,0,0,0-9.365,9.365Z" transform="translate(50.323 102.477)" fill="#455a64"/>
            <path id="Trazado_1178670" data-name="Trazado 1178670" d="M87.15,216.149c-.234,0-.422-11.672-.422-26.065s.188-26.067.422-26.067.422,11.668.422,26.067-.188,26.065-.422,26.065" transform="translate(54.058 102.233)" fill="#263238"/>
            <path id="Trazado_1178671" data-name="Trazado 1178671" d="M80.758,174.184c0-.234,4.57-.422,10.206-.422s10.207.188,10.207.422-4.568.422-10.207.422-10.206-.188-10.206-.422" transform="translate(50.337 108.307)" fill="#263238"/>
            <path id="Trazado_1178672" data-name="Trazado 1178672" d="M80.758,184.7c0-.234,4.57-.422,10.206-.422s10.207.188,10.207.422-4.568.422-10.207.422-10.206-.188-10.206-.422" transform="translate(50.337 114.862)" fill="#263238"/>
            <path id="Trazado_1178673" data-name="Trazado 1178673" d="M113.133,222.236h28.593v-47.86a13.067,13.067,0,0,0-13.068-13.068H126.2a13.067,13.067,0,0,0-13.068,13.068Z" transform="translate(70.516 100.544)" fill="#fff"/>
            <path id="Trazado_1178674" data-name="Trazado 1178674" d="M115.685,216.541h20.489V173.774a9.364,9.364,0,0,0-9.363-9.365H125.05a9.365,9.365,0,0,0-9.365,9.365Z" transform="translate(72.107 102.477)" fill="#455a64"/>
            <path id="Trazado_1178675" data-name="Trazado 1178675" d="M122.1,216.149c-.234,0-.422-11.672-.422-26.065s.188-26.067.422-26.067.422,11.668.422,26.067-.188,26.065-.422,26.065" transform="translate(75.843 102.233)" fill="#263238"/>
            <path id="Trazado_1178676" data-name="Trazado 1178676" d="M115.709,174.184c0-.234,4.57-.422,10.206-.422s10.207.188,10.207.422-4.568.422-10.207.422-10.206-.188-10.206-.422" transform="translate(72.122 108.307)" fill="#263238"/>
            <path id="Trazado_1178677" data-name="Trazado 1178677" d="M115.709,184.7c0-.234,4.57-.422,10.206-.422s10.207.188,10.207.422-4.568.422-10.207.422-10.206-.188-10.206-.422" transform="translate(72.122 114.862)" fill="#263238"/>
            <rect id="Rectángulo_421714" data-name="Rectángulo 421714" width="126.624" height="235.032" transform="translate(932.43 95.928)" fill="#e0e0e0"/>
            <rect id="Rectángulo_421715" data-name="Rectángulo 421715" width="214.341" height="171.583" transform="translate(719.647 159.376)" fill="#e0e0e0"/>
            <path id="Trazado_1178678" data-name="Trazado 1178678" d="M574.615,292.669c-.235,0-.422-51.719-.422-115.5,0-63.8.187-115.511.422-115.511s.42,51.707.42,115.511c0,63.783-.188,115.5-.42,115.5" transform="translate(357.898 38.431)" fill="#263238"/>
            <rect id="Rectángulo_421716" data-name="Rectángulo 421716" width="339.407" height="77.287" transform="translate(719.647 253.672)" fill="#ffc09d"/>
            <path id="Trazado_1178679" data-name="Trazado 1178679" d="M324.9,147.027a3.258,3.258,0,0,1-.031-.485c-.008-.359-.018-.808-.031-1.367-.016-1.25-.037-2.987-.065-5.191-.036-4.537-.086-10.99-.148-18.937-.044-7.969-.094-17.429-.149-27.926a12.3,12.3,0,0,0-2.821-7.19,12.5,12.5,0,0,0-6.881-4.157,19.641,19.641,0,0,0-4.24-.274,13.54,13.54,0,0,0-4.248.518,12.424,12.424,0,0,0-6.823,5.141,11.7,11.7,0,0,0-1.635,3.876,17.506,17.506,0,0,0-.323,4.2q0,4.29-.006,8.454c-.008,5.545-.016,10.9-.023,16.017-.033,10.215-.06,19.463-.084,27.32l-.307-.307,20.257.164,5.568.078,1.467.032a3.6,3.6,0,0,1,.523.032,2.217,2.217,0,0,1-.459.032l-1.412.032-5.5.078-20.444.164-.307,0,0-.31c-.024-7.857-.052-17.1-.084-27.32-.006-5.115-.015-10.472-.023-16.017q0-4.161-.006-8.454a14.088,14.088,0,0,1,2.089-8.535,13.239,13.239,0,0,1,7.294-5.488,14.337,14.337,0,0,1,4.488-.549,20.467,20.467,0,0,1,4.414.3,13.3,13.3,0,0,1,7.329,4.451,13.1,13.1,0,0,1,2.977,7.664c.05,10.651-.045,20.187-.08,28.2-.062,7.936-.112,14.381-.148,18.912-.028,2.165-.049,3.872-.065,5.1-.013.537-.023.967-.031,1.31a2.006,2.006,0,0,1-.031.425" transform="translate(184.899 50.277)" fill="#455a64"/>
            <rect id="Rectángulo_421717" data-name="Rectángulo 421717" width="274.309" height="190.784" transform="translate(443.9 95.869)" fill="#e0e0e0"/>
            <g id="Grupo_1223709" data-name="Grupo 1223709" transform="translate(443.9 95.869)" opacity="0.2">
              <g id="Grupo_1223708" data-name="Grupo 1223708">
                <g id="Grupo_1223707" data-name="Grupo 1223707" clip-path="url(#clip-path-4)">
                  <rect id="Rectángulo_421718" data-name="Rectángulo 421718" width="274.309" height="190.784"/>
                </g>
              </g>
            </g>
            <rect id="Rectángulo_421720" data-name="Rectángulo 421720" width="290.528" height="8.717" transform="translate(436.4 98.066)" fill="#e0e0e0"/>
            <rect id="Rectángulo_421721" data-name="Rectángulo 421721" width="288.765" height="2.937" transform="translate(437.53 89.347)" fill="#e0e0e0"/>
            <rect id="Rectángulo_421722" data-name="Rectángulo 421722" width="292.729" height="6.811" transform="translate(436.4 82.535)" fill="#e0e0e0"/>
            <rect id="Rectángulo_421723" data-name="Rectángulo 421723" width="283.265" height="8.771" transform="translate(439.883 89.347)" fill="#e0e0e0"/>
            <path id="Trazado_1178680" data-name="Trazado 1178680" d="M269.523,77.467H561.134L413.787,8.13Z" transform="translate(167.996 5.067)" fill="#e0e0e0"/>
            <rect id="Rectángulo_421724" data-name="Rectángulo 421724" width="282.939" height="4.441" transform="translate(439.883 106.783)" fill="#e0e0e0"/>
            <rect id="Rectángulo_421725" data-name="Rectángulo 421725" width="17.108" height="175.429" transform="translate(443.9 111.224)" fill="#e0e0e0"/>
            <path id="Trazado_1178681" data-name="Trazado 1178681" d="M290.724,244.108s-.02-.32-.029-.917c-.006-.625-.016-1.5-.029-2.639-.013-2.339-.032-5.738-.058-10.113-.029-8.8-.071-21.5-.125-37.276-.045-31.538-.109-75.33-.179-124.483l.42.42c-5.446,0-11.241,0-17.1,0h-.01l.424-.422c-.112,78.229-.208,145.512-.25,175.429l-.174-.174,12.668.1,3.3.041c.745.013,1.143.034,1.143.034s-.354.021-1.081.034l-3.258.041-12.769.1h-.172v-.174c-.042-29.918-.138-97.2-.25-175.429v-.422h.432c5.857,0,11.652,0,17.1,0h.422l0,.42c-.07,49.274-.133,93.175-.179,124.79-.054,15.731-.1,28.4-.125,37.179-.026,4.331-.045,7.7-.058,10.017-.013,1.115-.023,1.972-.029,2.583-.01.58-.029.86-.029.86" transform="translate(170.283 42.545)" fill="#263238"/>
            <rect id="Rectángulo_421726" data-name="Rectángulo 421726" width="17.108" height="175.429" transform="translate(495.689 111.224)" fill="#e0e0e0"/>
            <path id="Trazado_1178682" data-name="Trazado 1178682" d="M322.628,244.108s-.019-.32-.029-.917c-.007-.625-.016-1.5-.029-2.639-.013-2.339-.032-5.738-.058-10.113-.029-8.8-.071-21.5-.125-37.276-.045-31.538-.109-75.33-.179-124.483l.42.42c-5.446,0-11.241,0-17.1,0h-.01l.424-.422c-.112,78.229-.208,145.512-.25,175.429l-.174-.174,12.668.1,3.3.041c.745.013,1.143.034,1.143.034s-.354.021-1.081.034l-3.258.041-12.769.1h-.172v-.174c-.042-29.918-.138-97.2-.25-175.429v-.422h.432c5.857,0,11.652,0,17.1,0h.422l0,.42c-.07,49.274-.133,93.175-.179,124.79-.054,15.731-.1,28.4-.125,37.179-.026,4.331-.045,7.7-.058,10.017-.013,1.115-.023,1.972-.029,2.583-.01.58-.029.86-.029.86" transform="translate(190.169 42.545)" fill="#263238"/>
            <rect id="Rectángulo_421727" data-name="Rectángulo 421727" width="17.108" height="175.429" transform="translate(656.023 111.224)" fill="#e0e0e0"/>
            <path id="Trazado_1178683" data-name="Trazado 1178683" d="M421.4,244.108s-.019-.32-.029-.917c-.006-.625-.016-1.5-.029-2.639-.013-2.339-.032-5.738-.058-10.113-.029-8.8-.071-21.5-.125-37.276-.045-31.538-.109-75.33-.179-124.483l.42.42c-5.446,0-11.241,0-17.1,0h-.01l.424-.422c-.112,78.229-.208,145.512-.25,175.429l-.174-.174,12.668.1,3.3.041c.745.013,1.143.034,1.143.034s-.354.021-1.081.034l-3.258.041-12.769.1h-.172v-.174c-.042-29.918-.138-97.2-.25-175.429v-.422h.432c5.857,0,11.652,0,17.1,0h.422l0,.42c-.07,49.274-.133,93.175-.179,124.79-.054,15.731-.1,28.4-.125,37.179-.026,4.331-.045,7.7-.058,10.017-.013,1.115-.023,1.972-.029,2.583-.01.58-.029.86-.029.86" transform="translate(251.733 42.545)" fill="#263238"/>
            <rect id="Rectángulo_421728" data-name="Rectángulo 421728" width="17.108" height="175.429" transform="translate(702.848 111.224)" fill="#e0e0e0"/>
            <path id="Trazado_1178684" data-name="Trazado 1178684" d="M450.243,244.108s-.019-.32-.029-.917c-.006-.625-.016-1.5-.029-2.639-.013-2.339-.032-5.738-.058-10.113-.029-8.8-.071-21.5-.125-37.276-.045-31.538-.109-75.33-.179-124.483l.42.42c-5.446,0-11.241,0-17.1,0h-.008l.422-.422c-.112,78.229-.208,145.512-.25,175.429l-.172-.174,12.667.1,3.3.041c.745.013,1.143.034,1.143.034s-.354.021-1.081.034l-3.258.041-12.767.1h-.174v-.174c-.042-29.918-.138-97.2-.25-175.429v-.422h.432c5.857,0,11.652,0,17.1,0h.422l0,.42c-.07,49.274-.133,93.175-.179,124.79-.054,15.731-.1,28.4-.125,37.179-.026,4.331-.045,7.7-.058,10.017-.013,1.115-.023,1.972-.029,2.583-.01.58-.029.86-.029.86" transform="translate(269.713 42.545)" fill="#263238"/>
            <path id="Trazado_1178685" data-name="Trazado 1178685" d="M350.863,150.634H323.048V97.4A12.712,12.712,0,0,1,335.76,84.689h2.391A12.712,12.712,0,0,1,350.863,97.4Z" transform="translate(201.358 52.787)" fill="#455a64"/>
            <path id="Trazado_1178686" data-name="Trazado 1178686" d="M351.033,150.8a3.268,3.268,0,0,1-.031-.487c-.008-.357-.018-.807-.031-1.365-.016-1.25-.037-2.987-.065-5.191-.036-4.537-.086-10.99-.148-18.937-.044-7.969-.094-17.429-.149-27.926a12.3,12.3,0,0,0-2.821-7.19,12.487,12.487,0,0,0-6.88-4.157,19.66,19.66,0,0,0-4.242-.274,13.538,13.538,0,0,0-4.248.518,12.423,12.423,0,0,0-6.823,5.141,11.735,11.735,0,0,0-1.635,3.876,17.485,17.485,0,0,0-.323,4.2q0,4.293-.007,8.456c-.008,5.545-.016,10.9-.023,16.017-.032,10.215-.06,19.463-.084,27.32l-.307-.307,20.257.164,5.57.078,1.466.032a3.6,3.6,0,0,1,.523.032,2.22,2.22,0,0,1-.459.032l-1.412.032-5.5.078-20.444.164-.307,0,0-.31c-.024-7.857-.052-17.1-.084-27.32-.007-5.115-.015-10.472-.023-16.017q0-4.161-.006-8.456a14.086,14.086,0,0,1,2.089-8.534,13.239,13.239,0,0,1,7.293-5.488,14.337,14.337,0,0,1,4.488-.549,20.466,20.466,0,0,1,4.414.3,13.3,13.3,0,0,1,7.329,4.451,13.087,13.087,0,0,1,2.977,7.664c.05,10.651-.045,20.187-.08,28.2-.062,7.936-.112,14.381-.148,18.911-.028,2.165-.049,3.872-.065,5.1-.013.537-.023.967-.031,1.31a2.025,2.025,0,0,1-.031.425" transform="translate(201.188 52.626)" fill="#263238"/>
            <path id="Trazado_1178687" data-name="Trazado 1178687" d="M331.777,149.985c-.234,0-.422-14.551-.422-32.5s.188-32.507.422-32.507.422,14.55.422,32.507-.188,32.5-.422,32.5" transform="translate(206.536 52.967)" fill="#263238"/>
            <path id="Trazado_1178688" data-name="Trazado 1178688" d="M350.863,94.091c0,.235-6.227.422-13.907.422s-13.909-.187-13.909-.422,6.225-.42,13.909-.42,13.907.187,13.907.42" transform="translate(201.358 58.386)" fill="#263238"/>
            <path id="Trazado_1178689" data-name="Trazado 1178689" d="M350.863,104.152c0,.234-6.227.422-13.907.422s-13.909-.188-13.909-.422,6.225-.422,13.909-.422,13.907.188,13.907.422" transform="translate(201.358 64.656)" fill="#263238"/>
            <path id="Trazado_1178690" data-name="Trazado 1178690" d="M350.863,114.211c0,.235-6.227.424-13.907.424s-13.909-.188-13.909-.424,6.225-.42,13.909-.42,13.907.188,13.907.42" transform="translate(201.358 70.927)" fill="#263238"/>
            <path id="Trazado_1178691" data-name="Trazado 1178691" d="M380.1,150.634H352.285V97.4A12.712,12.712,0,0,1,365,84.689h2.391A12.712,12.712,0,0,1,380.1,97.4Z" transform="translate(219.581 52.787)" fill="#455a64"/>
            <path id="Trazado_1178692" data-name="Trazado 1178692" d="M380.27,150.8a3.268,3.268,0,0,1-.031-.487c-.008-.357-.018-.807-.031-1.365-.016-1.25-.037-2.987-.065-5.191-.036-4.537-.086-10.99-.148-18.937-.042-7.969-.094-17.429-.149-27.926a12.305,12.305,0,0,0-2.821-7.19,12.482,12.482,0,0,0-6.88-4.157,19.661,19.661,0,0,0-4.242-.274,13.539,13.539,0,0,0-4.248.518,12.424,12.424,0,0,0-6.823,5.141A11.737,11.737,0,0,0,353.2,94.8a17.492,17.492,0,0,0-.323,4.2q0,4.293-.006,8.456c-.008,5.545-.015,10.9-.023,16.017-.031,10.215-.06,19.463-.084,27.32l-.307-.307,20.257.164,5.57.078,1.467.032a3.561,3.561,0,0,1,.521.032,2.222,2.222,0,0,1-.459.032l-1.411.032-5.5.078-20.444.164-.307,0,0-.31c-.024-7.857-.052-17.1-.084-27.32-.006-5.115-.015-10.472-.023-16.017q0-4.161-.007-8.456a14.086,14.086,0,0,1,2.089-8.534,13.242,13.242,0,0,1,7.3-5.488,14.321,14.321,0,0,1,4.487-.549,20.487,20.487,0,0,1,4.415.3,13.3,13.3,0,0,1,7.328,4.451,13.087,13.087,0,0,1,2.977,7.664c.05,10.651-.045,20.187-.08,28.2-.062,7.936-.112,14.381-.148,18.911-.028,2.165-.049,3.872-.065,5.1-.013.537-.023.967-.031,1.31a2.028,2.028,0,0,1-.031.425" transform="translate(219.412 52.626)" fill="#263238"/>
            <path id="Trazado_1178693" data-name="Trazado 1178693" d="M361.014,149.985c-.234,0-.422-14.551-.422-32.5s.188-32.507.422-32.507.422,14.55.422,32.507-.188,32.5-.422,32.5" transform="translate(224.759 52.967)" fill="#263238"/>
            <path id="Trazado_1178694" data-name="Trazado 1178694" d="M380.1,94.091c0,.235-6.227.422-13.907.422s-13.908-.187-13.908-.422,6.225-.42,13.908-.42,13.907.187,13.907.42" transform="translate(219.581 58.386)" fill="#263238"/>
            <path id="Trazado_1178695" data-name="Trazado 1178695" d="M380.1,104.152c0,.234-6.227.422-13.907.422s-13.908-.188-13.908-.422,6.225-.422,13.908-.422,13.907.188,13.907.422" transform="translate(219.581 64.656)" fill="#263238"/>
            <path id="Trazado_1178696" data-name="Trazado 1178696" d="M380.1,114.211c0,.235-6.227.424-13.907.424s-13.908-.188-13.908-.424,6.225-.42,13.908-.42,13.907.188,13.907.42" transform="translate(219.581 70.927)" fill="#263238"/>
            <path id="Trazado_1178697" data-name="Trazado 1178697" d="M409.337,150.634H381.522V97.4a12.712,12.712,0,0,1,12.712-12.712h2.391A12.712,12.712,0,0,1,409.337,97.4Z" transform="translate(237.805 52.787)" fill="#455a64"/>
            <path id="Trazado_1178698" data-name="Trazado 1178698" d="M409.507,150.8a3.268,3.268,0,0,1-.031-.487c-.008-.357-.018-.807-.031-1.365-.016-1.25-.037-2.987-.065-5.191-.036-4.537-.086-10.99-.148-18.937-.042-7.969-.094-17.429-.149-27.926a12.305,12.305,0,0,0-2.821-7.19,12.482,12.482,0,0,0-6.88-4.157,19.66,19.66,0,0,0-4.242-.274,13.538,13.538,0,0,0-4.248.518,12.424,12.424,0,0,0-6.823,5.141,11.738,11.738,0,0,0-1.635,3.876,17.488,17.488,0,0,0-.323,4.2q0,4.293-.007,8.456c-.008,5.545-.016,10.9-.023,16.017-.031,10.215-.06,19.463-.084,27.32l-.307-.307,20.257.164,5.57.078,1.467.032a3.56,3.56,0,0,1,.521.032,2.221,2.221,0,0,1-.459.032l-1.412.032-5.5.078-20.444.164-.307,0,0-.31c-.024-7.857-.052-17.1-.084-27.32-.007-5.115-.015-10.472-.023-16.017q0-4.161-.006-8.456a14.086,14.086,0,0,1,2.089-8.534,13.244,13.244,0,0,1,7.293-5.488,14.337,14.337,0,0,1,4.488-.549,20.488,20.488,0,0,1,4.415.3,13.3,13.3,0,0,1,7.328,4.451,13.088,13.088,0,0,1,2.977,7.664c.05,10.651-.045,20.187-.08,28.2-.062,7.936-.112,14.381-.148,18.911-.028,2.165-.049,3.872-.065,5.1-.013.537-.023.967-.031,1.31a2.025,2.025,0,0,1-.031.425" transform="translate(237.635 52.626)" fill="#263238"/>
            <path id="Trazado_1178699" data-name="Trazado 1178699" d="M390.252,149.985c-.234,0-.422-14.551-.422-32.5s.188-32.507.422-32.507.422,14.55.422,32.507-.188,32.5-.422,32.5" transform="translate(242.983 52.967)" fill="#263238"/>
            <path id="Trazado_1178700" data-name="Trazado 1178700" d="M409.337,94.091c0,.235-6.227.422-13.907.422s-13.909-.187-13.909-.422,6.225-.42,13.909-.42,13.907.187,13.907.42" transform="translate(237.805 58.386)" fill="#263238"/>
            <path id="Trazado_1178701" data-name="Trazado 1178701" d="M409.337,104.152c0,.234-6.227.422-13.907.422s-13.909-.188-13.909-.422,6.225-.422,13.909-.422,13.907.188,13.907.422" transform="translate(237.805 64.656)" fill="#263238"/>
            <path id="Trazado_1178702" data-name="Trazado 1178702" d="M409.337,114.211c0,.235-6.227.424-13.907.424s-13.909-.188-13.909-.424,6.225-.42,13.909-.42,13.907.188,13.907.42" transform="translate(237.805 70.927)" fill="#263238"/>
            <rect id="Rectángulo_421729" data-name="Rectángulo 421729" width="21.782" height="43.198" transform="translate(530.44 240.459)" fill="#263238"/>
            <rect id="Rectángulo_421730" data-name="Rectángulo 421730" width="21.782" height="43.198" transform="translate(573.1 240.459)" fill="#263238"/>
            <rect id="Rectángulo_421731" data-name="Rectángulo 421731" width="21.782" height="43.198" transform="translate(615.761 240.459)" fill="#263238"/>
            <rect id="Rectángulo_421732" data-name="Rectángulo 421732" width="287.28" height="9.102" transform="translate(438.288 283.656)" fill="#e0e0e0"/>
            <rect id="Rectángulo_421733" data-name="Rectángulo 421733" width="295.809" height="9.102" transform="translate(431.989 292.624)" fill="#f5f5f5"/>
            <rect id="Rectángulo_421734" data-name="Rectángulo 421734" width="320.387" height="9.102" transform="translate(418.69 310.826)" fill="#f5f5f5"/>
            <rect id="Rectángulo_421735" data-name="Rectángulo 421735" width="342.505" height="9.102" transform="translate(406.862 328.948)" fill="#f5f5f5"/>
            <rect id="Rectángulo_421736" data-name="Rectángulo 421736" width="308.134" height="9.102" transform="translate(424.907 301.724)" fill="#e0e0e0"/>
            <rect id="Rectángulo_421737" data-name="Rectángulo 421737" width="330.702" height="9.102" transform="translate(412.998 319.926)" fill="#e0e0e0"/>
            <path id="Trazado_1178703" data-name="Trazado 1178703" d="M553.377,68.679c0,.234-62.926.422-140.53.422-77.631,0-140.544-.188-140.544-.422s62.913-.422,140.544-.422c77.6,0,140.53.188,140.53.422" transform="translate(169.728 42.545)" fill="#263238"/>
            <path id="Trazado_1178704" data-name="Trazado 1178704" d="M558.933,65.9c0,.234-64.793.422-144.7.422-79.935,0-144.713-.188-144.713-.422s64.778-.422,144.713-.422c79.907,0,144.7.188,144.7.422" transform="translate(167.993 40.811)" fill="#263238"/>
            <path id="Trazado_1178705" data-name="Trazado 1178705" d="M559.147,60.506c0,.234-64.793.422-144.7.422-79.935,0-144.713-.188-144.713-.422s64.778-.422,144.713-.422c79.907,0,144.7.188,144.7.422" transform="translate(168.127 37.451)" fill="#263238"/>
            <path id="Trazado_1178706" data-name="Trazado 1178706" d="M559.147,57.035c0,.234-64.793.422-144.7.422-79.935,0-144.713-.188-144.713-.422s64.778-.422,144.713-.422c79.907,0,144.7.188,144.7.422" transform="translate(168.127 35.287)" fill="#263238"/>
            <path id="Trazado_1178707" data-name="Trazado 1178707" d="M558.214,55.264c0,.234-64.793.424-144.7.424-79.935,0-144.713-.19-144.713-.424s64.778-.422,144.713-.422c79.907,0,144.7.188,144.7.422" transform="translate(167.545 34.183)" fill="#263238"/>
            <path id="Trazado_1178708" data-name="Trazado 1178708" d="M552.409,174.688c0,.234-63.091.422-140.9.422-77.837,0-140.916-.188-140.916-.422s63.078-.422,140.916-.422c77.81,0,140.9.188,140.9.422" transform="translate(168.662 108.621)" fill="#263238"/>
            <path id="Trazado_1178709" data-name="Trazado 1178709" d="M552.409,180.237c0,.234-63.091.422-140.9.422-77.837,0-140.916-.188-140.916-.422s63.078-.422,140.916-.422c77.81,0,140.9.188,140.9.422" transform="translate(168.662 112.08)" fill="#263238"/>
            <path id="Trazado_1178710" data-name="Trazado 1178710" d="M557.666,185.726c0,.234-66.156.513-147.745.623-81.618.11-147.76.011-147.761-.222s66.143-.511,147.76-.623c81.589-.11,147.747-.011,147.747.222" transform="translate(163.405 115.597)" fill="#263238"/>
            <path id="Trazado_1178711" data-name="Trazado 1178711" d="M559.366,191.639c0,.234-67.486.422-150.714.422-83.258,0-150.729-.188-150.729-.422s67.471-.422,150.729-.422c83.229,0,150.714.188,150.714.422" transform="translate(160.765 119.187)" fill="#263238"/>
            <path id="Trazado_1178712" data-name="Trazado 1178712" d="M562.114,197.246c0,.234-68.75.422-153.537.422-84.818,0-153.553-.188-153.553-.422s68.736-.422,153.553-.422c84.787,0,153.537.188,153.537.422" transform="translate(158.957 122.682)" fill="#263238"/>
            <path id="Trazado_1178713" data-name="Trazado 1178713" d="M564.847,202.852c0,.234-70.344.422-157.1.422-86.784,0-157.113-.188-157.113-.422s70.33-.422,157.113-.422c86.753,0,157.1.188,157.1.422" transform="translate(156.224 126.176)" fill="#263238"/>
            <path id="Trazado_1178714" data-name="Trazado 1178714" d="M552.409,208.41c0,.234-63.091.422-140.9.422-77.837,0-140.916-.188-140.916-.422s63.078-.422,140.916-.422c77.81,0,140.9.188,140.9.422" transform="translate(168.662 129.64)" fill="#263238"/>
            <path id="Trazado_1178715" data-name="Trazado 1178715" d="M571.944,66.027l67.244-34.619,66.892,34.619Z" transform="translate(356.496 19.577)" fill="#ff725e"/>
            <rect id="Rectángulo_421738" data-name="Rectángulo 421738" width="134.135" height="7.738" transform="translate(928.442 85.605)" fill="#e0e0e0"/>
            <rect id="Rectángulo_421739" data-name="Rectángulo 421739" width="130.452" height="2.586" transform="translate(930.497 93.343)" fill="#e0e0e0"/>
            <path id="Trazado_1178716" data-name="Trazado 1178716" d="M706.212,57.664c0,.234-30.059.422-67.13.422s-67.137-.188-67.137-.422,30.052-.422,67.137-.422,67.13.188,67.13.422" transform="translate(356.497 35.679)" fill="#263238"/>
            <path id="Trazado_1178717" data-name="Trazado 1178717" d="M703.767,59.255c0,.235-29.228.424-65.275.424s-65.281-.188-65.281-.424,29.221-.42,65.281-.42,65.275.188,65.275.42" transform="translate(357.286 36.672)" fill="#263238"/>
            <rect id="Rectángulo_421740" data-name="Rectángulo 421740" width="27.205" height="46.763" transform="translate(958.718 123.527)" fill="#fff"/>
            <rect id="Rectángulo_421741" data-name="Rectángulo 421741" width="21.327" height="40.691" transform="translate(961.582 126.941)" fill="#455a64"/>
            <path id="Trazado_1178718" data-name="Trazado 1178718" d="M598.827,119.111c-.234,0-.422-9.173-.422-20.484s.188-20.488.422-20.488.422,9.17.422,20.488-.188,20.484-.422,20.484" transform="translate(372.989 48.705)" fill="#263238"/>
            <path id="Trazado_1178719" data-name="Trazado 1178719" d="M613.687,85.921c0,.234-4.774.422-10.663.422s-10.664-.188-10.664-.422,4.774-.422,10.664-.422,10.663.188,10.663.422" transform="translate(369.222 53.292)" fill="#263238"/>
            <path id="Trazado_1178720" data-name="Trazado 1178720" d="M613.687,94.77c0,.234-4.774.422-10.663.422S592.36,95,592.36,94.77s4.774-.422,10.664-.422,10.663.188,10.663.422" transform="translate(369.222 58.808)" fill="#263238"/>
            <rect id="Rectángulo_421742" data-name="Rectángulo 421742" width="27.205" height="46.763" transform="translate(745.594 180.523)" fill="#fff"/>
            <rect id="Rectángulo_421743" data-name="Rectángulo 421743" width="21.327" height="40.691" transform="translate(748.459 183.938)" fill="#455a64"/>
            <path id="Trazado_1178721" data-name="Trazado 1178721" d="M467.537,154.222c-.234,0-.422-9.173-.422-20.486s.188-20.486.422-20.486.422,9.17.422,20.486-.188,20.486-.422,20.486" transform="translate(291.156 70.589)" fill="#263238"/>
            <path id="Trazado_1178722" data-name="Trazado 1178722" d="M482.4,121.032c0,.234-4.774.422-10.664.422s-10.664-.188-10.664-.422,4.774-.422,10.664-.422,10.664.188,10.664.422" transform="translate(287.388 75.177)" fill="#263238"/>
            <path id="Trazado_1178723" data-name="Trazado 1178723" d="M482.4,129.881c0,.234-4.774.422-10.664.422s-10.664-.188-10.664-.422,4.774-.422,10.664-.422,10.664.188,10.664.422" transform="translate(287.388 80.693)" fill="#263238"/>
            <rect id="Rectángulo_421744" data-name="Rectángulo 421744" width="27.205" height="46.763" transform="translate(790.238 179.976)" fill="#fff"/>
            <rect id="Rectángulo_421745" data-name="Rectángulo 421745" width="21.327" height="40.691" transform="translate(793.102 183.391)" fill="#455a64"/>
            <path id="Trazado_1178724" data-name="Trazado 1178724" d="M495.039,153.885c-.234,0-.422-9.173-.422-20.486s.188-20.486.422-20.486.422,9.17.422,20.486-.188,20.486-.422,20.486" transform="translate(308.298 70.379)" fill="#263238"/>
            <path id="Trazado_1178725" data-name="Trazado 1178725" d="M509.9,120.7c0,.234-4.774.422-10.663.422s-10.664-.188-10.664-.422,4.774-.422,10.664-.422,10.663.188,10.663.422" transform="translate(304.53 74.967)" fill="#263238"/>
            <path id="Trazado_1178726" data-name="Trazado 1178726" d="M509.9,129.545c0,.234-4.774.422-10.663.422s-10.664-.188-10.664-.422,4.774-.422,10.664-.422,10.663.188,10.663.422" transform="translate(304.53 80.483)" fill="#263238"/>
            <rect id="Rectángulo_421746" data-name="Rectángulo 421746" width="27.205" height="46.763" transform="translate(834.883 179.43)" fill="#fff"/>
            <rect id="Rectángulo_421747" data-name="Rectángulo 421747" width="21.327" height="40.691" transform="translate(837.746 182.846)" fill="#455a64"/>
            <path id="Trazado_1178727" data-name="Trazado 1178727" d="M522.541,153.549c-.234,0-.422-9.173-.422-20.485s.188-20.488.422-20.488.422,9.17.422,20.488-.188,20.485-.422,20.485" transform="translate(325.44 70.17)" fill="#263238"/>
            <path id="Trazado_1178728" data-name="Trazado 1178728" d="M537.4,120.359c0,.234-4.774.422-10.662.422s-10.665-.188-10.665-.422,4.774-.422,10.665-.422,10.662.188,10.662.422" transform="translate(321.672 74.757)" fill="#263238"/>
            <path id="Trazado_1178729" data-name="Trazado 1178729" d="M537.4,129.208c0,.234-4.774.422-10.662.422s-10.665-.188-10.665-.422,4.774-.422,10.665-.422,10.662.188,10.662.422" transform="translate(321.672 80.273)" fill="#263238"/>
            <rect id="Rectángulo_421748" data-name="Rectángulo 421748" width="27.205" height="46.763" transform="translate(879.527 178.883)" fill="#fff"/>
            <rect id="Rectángulo_421749" data-name="Rectángulo 421749" width="21.327" height="40.691" transform="translate(882.39 182.299)" fill="#455a64"/>
            <path id="Trazado_1178730" data-name="Trazado 1178730" d="M550.043,153.212c-.234,0-.422-9.173-.422-20.486s.188-20.486.422-20.486.422,9.17.422,20.486-.188,20.486-.422,20.486" transform="translate(342.582 69.96)" fill="#263238"/>
            <path id="Trazado_1178731" data-name="Trazado 1178731" d="M564.9,120.022c0,.234-4.774.422-10.662.422s-10.665-.188-10.665-.422,4.774-.422,10.665-.422,10.662.188,10.662.422" transform="translate(338.814 74.547)" fill="#263238"/>
            <path id="Trazado_1178732" data-name="Trazado 1178732" d="M564.9,128.87c0,.235-4.774.422-10.662.422s-10.665-.187-10.665-.422,4.774-.42,10.665-.42,10.662.187,10.662.42" transform="translate(338.814 80.064)" fill="#263238"/>
            <rect id="Rectángulo_421750" data-name="Rectángulo 421750" width="27.205" height="46.763" transform="translate(1006.75 123.527)" fill="#fff"/>
            <rect id="Rectángulo_421751" data-name="Rectángulo 421751" width="21.327" height="40.691" transform="translate(1009.614 126.941)" fill="#455a64"/>
            <path id="Trazado_1178733" data-name="Trazado 1178733" d="M628.416,119.111c-.234,0-.422-9.173-.422-20.484s.188-20.488.422-20.488.422,9.17.422,20.488-.188,20.484-.422,20.484" transform="translate(391.432 48.705)" fill="#263238"/>
            <path id="Trazado_1178734" data-name="Trazado 1178734" d="M643.276,85.921c0,.234-4.774.422-10.663.422s-10.664-.188-10.664-.422,4.774-.422,10.664-.422,10.663.188,10.663.422" transform="translate(387.665 53.292)" fill="#263238"/>
            <path id="Trazado_1178735" data-name="Trazado 1178735" d="M643.276,94.77c0,.234-4.774.422-10.663.422S621.949,95,621.949,94.77s4.774-.422,10.664-.422,10.663.188,10.663.422" transform="translate(387.665 58.808)" fill="#263238"/>
            <rect id="Rectángulo_421752" data-name="Rectángulo 421752" width="27.205" height="46.763" transform="translate(958.718 183.408)" fill="#fff"/>
            <rect id="Rectángulo_421753" data-name="Rectángulo 421753" width="21.327" height="40.691" transform="translate(961.582 186.821)" fill="#455a64"/>
            <path id="Trazado_1178736" data-name="Trazado 1178736" d="M598.827,156c-.234,0-.422-9.173-.422-20.485s.188-20.488.422-20.488.422,9.17.422,20.488S599.061,156,598.827,156" transform="translate(372.989 71.696)" fill="#263238"/>
            <path id="Trazado_1178737" data-name="Trazado 1178737" d="M613.687,122.809c0,.234-4.774.422-10.663.422s-10.664-.188-10.664-.422,4.774-.422,10.664-.422,10.663.188,10.663.422" transform="translate(369.222 76.285)" fill="#263238"/>
            <path id="Trazado_1178738" data-name="Trazado 1178738" d="M613.687,131.658c0,.234-4.774.422-10.663.422s-10.664-.188-10.664-.422,4.774-.422,10.664-.422,10.663.188,10.663.422" transform="translate(369.222 81.8)" fill="#263238"/>
            <rect id="Rectángulo_421754" data-name="Rectángulo 421754" width="27.205" height="46.763" transform="translate(1006.75 183.408)" fill="#fff"/>
            <rect id="Rectángulo_421755" data-name="Rectángulo 421755" width="21.327" height="40.691" transform="translate(1009.614 186.821)" fill="#455a64"/>
            <path id="Trazado_1178739" data-name="Trazado 1178739" d="M628.416,156c-.234,0-.422-9.173-.422-20.485s.188-20.488.422-20.488.422,9.17.422,20.488S628.65,156,628.416,156" transform="translate(391.432 71.696)" fill="#263238"/>
            <path id="Trazado_1178740" data-name="Trazado 1178740" d="M643.276,122.809c0,.234-4.774.422-10.663.422s-10.664-.188-10.664-.422,4.774-.422,10.664-.422,10.663.188,10.663.422" transform="translate(387.665 76.285)" fill="#263238"/>
            <path id="Trazado_1178741" data-name="Trazado 1178741" d="M643.276,131.658c0,.234-4.774.422-10.663.422s-10.664-.188-10.664-.422,4.774-.422,10.664-.422,10.663.188,10.663.422" transform="translate(387.665 81.8)" fill="#263238"/>
            <rect id="Rectángulo_421756" data-name="Rectángulo 421756" width="343.871" height="7.914" transform="translate(719.063 240.717)" fill="#e0e0e0"/>
            <rect id="Rectángulo_421757" data-name="Rectángulo 421757" width="341.821" height="5.302" transform="translate(719.063 248.371)" fill="#e0e0e0"/>
            <path id="Trazado_1178742" data-name="Trazado 1178742" d="M442.962,153.558c0-.234,76.643-.422,171.163-.422,94.554,0,171.179.188,171.179.422s-76.625.422-171.179.422c-94.52,0-171.163-.188-171.163-.422" transform="translate(276.101 95.451)" fill="#263238"/>
            <path id="Trazado_1178743" data-name="Trazado 1178743" d="M442.962,156.431c0-.234,76.643-.422,171.163-.422,94.554,0,171.179.188,171.179.422s-76.625.422-171.179.422c-94.52,0-171.163-.188-171.163-.422" transform="translate(276.101 97.241)" fill="#263238"/>
            <path id="Trazado_1178744" data-name="Trazado 1178744" d="M442.962,148.45c0-.234,76.643-.422,171.163-.422,94.554,0,171.179.188,171.179.422s-76.625.422-171.179.422c-94.52,0-171.163-.188-171.163-.422" transform="translate(276.101 92.267)" fill="#263238"/>
            <path id="Trazado_1178745" data-name="Trazado 1178745" d="M495.851,222.236H467.258v-47.86a13.067,13.067,0,0,1,13.068-13.068h2.458a13.067,13.067,0,0,1,13.068,13.068Z" transform="translate(291.245 100.544)" fill="#fff"/>
            <path id="Trazado_1178746" data-name="Trazado 1178746" d="M490.246,216.149H469.757V173.382a9.364,9.364,0,0,1,9.363-9.365h1.76a9.366,9.366,0,0,1,9.367,9.365Z" transform="translate(292.802 102.233)" fill="#455a64"/>
            <path id="Trazado_1178747" data-name="Trazado 1178747" d="M476.229,216.149c-.234,0-.422-11.672-.422-26.065s.188-26.067.422-26.067.422,11.668.422,26.067-.188,26.065-.422,26.065" transform="translate(296.573 102.233)" fill="#263238"/>
            <path id="Trazado_1178748" data-name="Trazado 1178748" d="M490.135,174.184c0,.234-4.57.422-10.206.422s-10.207-.188-10.207-.422,4.568-.422,10.207-.422,10.206.188,10.206.422" transform="translate(292.781 108.307)" fill="#263238"/>
            <path id="Trazado_1178749" data-name="Trazado 1178749" d="M490.135,184.7c0,.234-4.57.422-10.206.422s-10.207-.188-10.207-.422,4.568-.422,10.207-.422,10.206.188,10.206.422" transform="translate(292.781 114.862)" fill="#263238"/>
            <path id="Trazado_1178750" data-name="Trazado 1178750" d="M535.439,222.236H506.846v-47.86a13.067,13.067,0,0,1,13.068-13.068h2.458a13.067,13.067,0,0,1,13.068,13.068Z" transform="translate(315.92 100.544)" fill="#fff"/>
            <path id="Trazado_1178751" data-name="Trazado 1178751" d="M529.834,216.149H509.345V173.382a9.364,9.364,0,0,1,9.363-9.365h1.761a9.365,9.365,0,0,1,9.365,9.365Z" transform="translate(317.478 102.233)" fill="#455a64"/>
            <path id="Trazado_1178752" data-name="Trazado 1178752" d="M515.817,216.149c-.234,0-.422-11.672-.422-26.065s.188-26.067.422-26.067.422,11.668.422,26.067-.188,26.065-.422,26.065" transform="translate(321.249 102.233)" fill="#263238"/>
            <path id="Trazado_1178753" data-name="Trazado 1178753" d="M529.723,174.184c0,.234-4.57.422-10.206.422s-10.207-.188-10.207-.422,4.568-.422,10.207-.422,10.206.188,10.206.422" transform="translate(317.456 108.307)" fill="#263238"/>
            <path id="Trazado_1178754" data-name="Trazado 1178754" d="M529.723,184.7c0,.234-4.57.422-10.206.422s-10.207-.188-10.207-.422,4.568-.422,10.207-.422,10.206.188,10.206.422" transform="translate(317.456 114.862)" fill="#263238"/>
            <path id="Trazado_1178755" data-name="Trazado 1178755" d="M572.169,222.236H543.576v-47.86a13.067,13.067,0,0,1,13.068-13.068H559.1a13.067,13.067,0,0,1,13.068,13.068Z" transform="translate(338.814 100.544)" fill="#fff"/>
            <path id="Trazado_1178756" data-name="Trazado 1178756" d="M566.505,216.541H546.016V173.774a9.364,9.364,0,0,1,9.363-9.365h1.761a9.365,9.365,0,0,1,9.365,9.365Z" transform="translate(340.335 102.477)" fill="#455a64"/>
            <path id="Trazado_1178757" data-name="Trazado 1178757" d="M552.547,216.149c-.234,0-.422-11.672-.422-26.065s.188-26.067.422-26.067.422,11.668.422,26.067-.188,26.065-.422,26.065" transform="translate(344.143 102.233)" fill="#263238"/>
            <path id="Trazado_1178758" data-name="Trazado 1178758" d="M566.454,174.184c0,.234-4.571.422-10.207.422s-10.207-.188-10.207-.422,4.57-.422,10.207-.422,10.207.188,10.207.422" transform="translate(340.349 108.307)" fill="#263238"/>
            <path id="Trazado_1178759" data-name="Trazado 1178759" d="M566.454,184.7c0,.234-4.571.422-10.207.422s-10.207-.188-10.207-.422,4.57-.422,10.207-.422,10.207.188,10.207.422" transform="translate(340.349 114.862)" fill="#263238"/>
            <path id="Trazado_1178760" data-name="Trazado 1178760" d="M653.64,222.236H625.047v-47.86a13.067,13.067,0,0,1,13.068-13.068h2.458a13.067,13.067,0,0,1,13.068,13.068Z" transform="translate(389.596 100.544)" fill="#fff"/>
            <path id="Trazado_1178761" data-name="Trazado 1178761" d="M647.976,216.541H627.487V173.774a9.364,9.364,0,0,1,9.363-9.365h1.761a9.365,9.365,0,0,1,9.365,9.365Z" transform="translate(391.116 102.477)" fill="#455a64"/>
            <path id="Trazado_1178762" data-name="Trazado 1178762" d="M634.018,216.149c-.234,0-.422-11.672-.422-26.065s.188-26.067.422-26.067.422,11.668.422,26.067-.188,26.065-.422,26.065" transform="translate(394.924 102.233)" fill="#263238"/>
            <path id="Trazado_1178763" data-name="Trazado 1178763" d="M647.923,174.184c0,.234-4.57.422-10.206.422s-10.207-.188-10.207-.422,4.568-.422,10.207-.422,10.206.188,10.206.422" transform="translate(391.131 108.307)" fill="#263238"/>
            <path id="Trazado_1178764" data-name="Trazado 1178764" d="M647.923,184.7c0,.234-4.57.422-10.206.422s-10.207-.188-10.207-.422,4.568-.422,10.207-.422,10.206.188,10.206.422" transform="translate(391.131 114.862)" fill="#263238"/>
            <path id="Trazado_1178765" data-name="Trazado 1178765" d="M618.759,222.236H590.166v-47.86a13.067,13.067,0,0,1,13.068-13.068h2.458a13.067,13.067,0,0,1,13.068,13.068Z" transform="translate(367.854 100.544)" fill="#fff"/>
            <path id="Trazado_1178766" data-name="Trazado 1178766" d="M613.1,216.541H592.607V173.774a9.363,9.363,0,0,1,9.363-9.365h1.76a9.366,9.366,0,0,1,9.367,9.365Z" transform="translate(369.375 102.477)" fill="#455a64"/>
            <path id="Trazado_1178767" data-name="Trazado 1178767" d="M599.138,216.149c-.235,0-.422-11.672-.422-26.065s.187-26.067.422-26.067.42,11.668.42,26.067-.187,26.065-.42,26.065" transform="translate(373.183 102.233)" fill="#263238"/>
            <path id="Trazado_1178768" data-name="Trazado 1178768" d="M613.043,174.184c0,.234-4.57.422-10.206.422s-10.207-.188-10.207-.422,4.568-.422,10.207-.422,10.206.188,10.206.422" transform="translate(369.39 108.307)" fill="#263238"/>
            <path id="Trazado_1178769" data-name="Trazado 1178769" d="M613.043,184.7c0,.234-4.57.422-10.206.422s-10.207-.188-10.207-.422,4.568-.422,10.207-.422,10.206.188,10.206.422" transform="translate(369.39 114.862)" fill="#263238"/>
            <rect id="Rectángulo_421758" data-name="Rectángulo 421758" width="220.047" height="7.738" transform="translate(715.639 149.052)" fill="#e0e0e0"/>
            <rect id="Rectángulo_421759" data-name="Rectángulo 421759" width="214.004" height="2.586" transform="translate(719.011 156.79)" fill="#e0e0e0"/>
            <path id="Trazado_1178770" data-name="Trazado 1178770" d="M661.061,91.982s-.4.019-1.157.029l-3.339.031-12.795.06-47.024.128L441.017,92.4l.422-.422V99.72l-.422-.422c106.4,0,195.746.135,220.044.318l-.1.1c.026-2.622.047-4.539.06-5.831.018-1.274.044-1.907.044-1.907s.026.581.044,1.847c.013,1.305.032,3.242.06,5.891l0,.1-.106,0c-24.3.182-113.64.318-220.044.318h-.424V91.56h.424l156.042.174,46.927.128,12.694.06,3.284.031c.735.01,1.1.029,1.1.029" transform="translate(274.624 57.07)" fill="#263238"/>
            <path id="Trazado_1178771" data-name="Trazado 1178771" d="M442.966,96.587a3.457,3.457,0,0,1,.045.644c.011.476.026,1.114.044,1.941l-.089-.089c10.578-.192,54.516-.334,107.085-.334s96.509.143,107.091.333l-.089.1c-.037-.828-.065-1.467-.084-1.945a3.46,3.46,0,0,1,0-.646,3.27,3.27,0,0,1,.089.641c.042.474.1,1.112.172,1.938l.008.094-.1,0c-10.582.19-54.51.333-107.091.333s-96.507-.143-107.085-.333l-.093,0,0-.088c.018-.828.032-1.466.044-1.941a3.3,3.3,0,0,1,.045-.644" transform="translate(276.045 60.203)" fill="#263238"/>
            <path id="Trazado_1178772" data-name="Trazado 1178772" d="M660.9,99.356H440.852l4.281-19.626H657.32Z" transform="translate(274.786 49.696)" fill="#ff725e"/>
            <path id="Trazado_1178773" data-name="Trazado 1178773" d="M271.6,82.535l-7.214-7.341L417.117,0,571.93,75.978l-7.6,6.557L416.987,13.2Z" transform="translate(164.796 0)" fill="#ff725e"/>
            <g id="Grupo_1223712" data-name="Grupo 1223712" transform="translate(437.52 13.197)" opacity="0.2">
              <g id="Grupo_1223711" data-name="Grupo 1223711">
                <g id="Grupo_1223710" data-name="Grupo 1223710" clip-path="url(#clip-path-5)">
                  <path id="Trazado_1178774" data-name="Trazado 1178774" d="M269.523,77.467H561.134L413.787,8.13Z" transform="translate(-269.524 -8.13)"/>
                </g>
              </g>
            </g>
            <path id="Trazado_1178775" data-name="Trazado 1178775" d="M387.394,39.889a21.28,21.28,0,1,1-21.28-21.28,21.28,21.28,0,0,1,21.28,21.28" transform="translate(214.937 11.599)" fill="#e0e0e0"/>
            <rect id="Rectángulo_421761" data-name="Rectángulo 421761" width="220.047" height="7.738" transform="translate(234.464 149.052)" fill="#e0e0e0"/>
            <rect id="Rectángulo_421762" data-name="Rectángulo 421762" width="214.004" height="2.586" transform="translate(237.134 156.79)" fill="#e0e0e0"/>
            <path id="Trazado_1178776" data-name="Trazado 1178776" d="M144.477,91.983s.362-.019,1.1-.031l3.284-.029,12.694-.06,46.927-.128c39.786-.045,94.842-.106,156.042-.174l.424,0v8.584h-.424c-106.4,0-195.746-.135-220.044-.318h-.106l0-.1c.026-2.649.047-4.586.06-5.891.018-1.266.044-1.847.044-1.847s.026.633.044,1.907c.013,1.292.034,3.208.06,5.831l-.1-.1c24.3-.183,113.64-.318,220.044-.318l-.422.422V91.983l.422.422-155.729-.174L161.768,92.1l-12.795-.06-3.339-.031c-.755-.01-1.157-.029-1.157-.029" transform="translate(89.987 57.069)" fill="#263238"/>
            <path id="Trazado_1178777" data-name="Trazado 1178777" d="M360.189,96.587a3.46,3.46,0,0,1,.045.644c.011.476.026,1.114.044,1.941l0,.088-.093,0c-10.577.19-54.516.333-107.085.333s-96.509-.143-107.091-.333l-.1,0,.008-.094c.073-.826.13-1.464.172-1.938a3.3,3.3,0,0,1,.089-.641,3.529,3.529,0,0,1,0,.646c-.021.477-.049,1.117-.086,1.945l-.089-.1c10.582-.19,54.511-.333,107.091-.333s96.507.143,107.085.333l-.089.091c.018-.828.032-1.466.044-1.941a3.291,3.291,0,0,1,.045-.644" transform="translate(90.95 60.203)" fill="#263238"/>
            <path id="Trazado_1178778" data-name="Trazado 1178778" d="M144.436,99.356H364.483L360.2,79.73H148.015Z" transform="translate(90.028 49.696)" fill="#ff725e"/>
          </g>
        </g>
      </g>
    </g>
  </g>
</svg>
