<svg xmlns="http://www.w3.org/2000/svg" xmlns:xlink="http://www.w3.org/1999/xlink" width="118" height="118" viewBox="0 0 118 118">
  <defs>
    <filter id="Trazado_982547" x="0" y="0" width="118" height="118" filterUnits="userSpaceOnUse">
      <feOffset dy="3" input="SourceAlpha"/>
      <feGaussianBlur stdDeviation="3" result="blur"/>
      <feFlood flood-opacity="0.161"/>
      <feComposite operator="in" in2="blur"/>
      <feComposite in="SourceGraphic"/>
    </filter>
  </defs>
  <g id="Grupo_1223956" data-name="Grupo 1223956" transform="translate(-268.5 -5763.097)">
    <g id="Grupo_1223786" data-name="Grupo 1223786" transform="translate(0 -3141.948)">
      <g id="Grupo_1223199" data-name="Grupo 1223199" transform="translate(277.5 8911.045)">
        <g id="Grupo_1211216" data-name="Grupo 1211216" transform="translate(0)">
          <g id="Grupo_1210737" data-name="Grupo 1210737">
            <g id="Grupo_1210537" data-name="Grupo 1210537">
              <g id="Grupo_1164202" data-name="Grupo 1164202">
                <g id="Grupo_1158168" data-name="Grupo 1158168">
                  <g id="Grupo_1152576" data-name="Grupo 1152576">
                    <g id="Grupo_1148633" data-name="Grupo 1148633">
                      <g id="Grupo_1148525" data-name="Grupo 1148525">
                        <g transform="matrix(1, 0, 0, 1, -9, -6)" filter="url(#Trazado_982547)">
                          <g id="Trazado_982547-2" data-name="Trazado 982547" transform="translate(9 6)" fill="#fcf5f0">
                            <path d="M 49.99999618530273 98.5 C 43.45188140869141 98.5 37.10042572021484 97.21786499023438 31.12206840515137 94.68923950195312 C 25.34691047668457 92.24655151367188 20.15996742248535 88.74931335449219 15.70532512664795 84.29468536376953 C 11.25068187713623 79.84004211425781 7.753438949584961 74.65309906005859 5.310753345489502 68.87792205810547 C 2.782124757766724 62.89956665039062 1.499996185302734 56.54811096191406 1.499996185302734 49.99999618530273 C 1.499996185302734 43.45188140869141 2.782124757766724 37.10042572021484 5.310753345489502 31.12206840515137 C 7.753438949584961 25.34691047668457 11.25068187713623 20.15996742248535 15.70532512664795 15.70532512664795 C 20.15996742248535 11.25068187713623 25.34691047668457 7.753438949584961 31.12206840515137 5.310753345489502 C 37.10042572021484 2.782124757766724 43.45188140869141 1.499996185302734 49.99999618530273 1.499996185302734 C 56.54811096191406 1.499996185302734 62.89956665039062 2.782124757766724 68.87792205810547 5.310753345489502 C 74.65309906005859 7.753438949584961 79.84004211425781 11.25068187713623 84.29468536376953 15.70532512664795 C 88.74931335449219 20.15996742248535 92.24655151367188 25.34691047668457 94.68923950195312 31.12206840515137 C 97.21786499023438 37.10042572021484 98.5 43.45188140869141 98.5 49.99999618530273 C 98.5 56.54811096191406 97.21786499023438 62.89956665039062 94.68923950195312 68.87792205810547 C 92.24655151367188 74.65309906005859 88.74931335449219 79.84004211425781 84.29468536376953 84.29468536376953 C 79.84004211425781 88.74931335449219 74.65309906005859 92.24655151367188 68.87792205810547 94.68923950195312 C 62.89956665039062 97.21786499023438 56.54811096191406 98.5 49.99999618530273 98.5 Z" stroke="none"/>
                            <path d="M 49.99999618530273 2.999992370605469 C 43.65372085571289 2.999992370605469 37.49885940551758 4.242256164550781 31.70639801025391 6.6922607421875 C 26.11002349853516 9.059318542480469 21.08335113525391 12.4486083984375 16.76598358154297 16.76598358154297 C 12.4486083984375 21.08335113525391 9.059318542480469 26.11002349853516 6.6922607421875 31.70639801025391 C 4.242256164550781 37.49885940551758 2.999992370605469 43.65372085571289 2.999992370605469 49.99999618530273 C 2.999992370605469 56.34627151489258 4.242256164550781 62.50113296508789 6.6922607421875 68.29359436035156 C 9.059318542480469 73.88996887207031 12.4486083984375 78.91664123535156 16.76598358154297 83.2340087890625 C 21.08335113525391 87.55138397216797 26.11002349853516 90.940673828125 31.70639801025391 93.30773162841797 C 37.49885940551758 95.75773620605469 43.65372085571289 97 49.99999618530273 97 C 56.34627151489258 97 62.50113296508789 95.75773620605469 68.29359436035156 93.30773162841797 C 73.88996887207031 90.940673828125 78.91664123535156 87.55138397216797 83.2340087890625 83.2340087890625 C 87.55138397216797 78.91664123535156 90.940673828125 73.88996887207031 93.30773162841797 68.29359436035156 C 95.75773620605469 62.50113296508789 97 56.34627151489258 97 49.99999618530273 C 97 43.65372085571289 95.75773620605469 37.49885940551758 93.30773162841797 31.70639801025391 C 90.940673828125 26.11002349853516 87.55138397216797 21.08335113525391 83.2340087890625 16.76598358154297 C 78.91664123535156 12.4486083984375 73.88996887207031 9.059318542480469 68.29359436035156 6.6922607421875 C 62.50113296508789 4.242256164550781 56.34627151489258 2.999992370605469 49.99999618530273 2.999992370605469 M 49.99999618530273 -7.62939453125e-06 C 77.61422729492188 -7.62939453125e-06 100 22.38576507568359 100 49.99999618530273 C 100 77.61422729492188 77.61422729492188 100 49.99999618530273 100 C 22.38576507568359 100 -7.62939453125e-06 77.61422729492188 -7.62939453125e-06 49.99999618530273 C -7.62939453125e-06 22.38576507568359 22.38576507568359 -7.62939453125e-06 49.99999618530273 -7.62939453125e-06 Z" stroke="none" fill="#eca675"/>
                          </g>
                        </g>
                      </g>
                    </g>
                  </g>
                </g>
              </g>
            </g>
          </g>
        </g>
      </g>
    </g>
    <g id="consulting_5817343" transform="translate(295.3 5786.947)">
      <g id="Grupo_1223942" data-name="Grupo 1223942">
        <g id="Grupo_1223908" data-name="Grupo 1223908">
          <g id="Grupo_1223907" data-name="Grupo 1223907">
            <path id="Trazado_1179217" data-name="Trazado 1179217" d="M22.9,39.6V36.1a2,2,0,0,1,2-2h3.2a1.866,1.866,0,0,0,2-1.9V26.4a.987.987,0,0,1,.9-1h1.5a1.859,1.859,0,0,0,1.8-1.8,1.433,1.433,0,0,0-.4-1l-2.7-3.8a1.284,1.284,0,0,1-.4-1l-.1-1.9A13.743,13.743,0,0,0,16.8,2.3,14.384,14.384,0,0,0,2.3,16.8a10.741,10.741,0,0,0,1.2,4.9l2.2,4.7A27.168,27.168,0,0,1,8.3,38.3v1.3" fill="#d7e8ff"/>
          </g>
        </g>
        <g id="Grupo_1223910" data-name="Grupo 1223910">
          <g id="Grupo_1223909" data-name="Grupo 1223909">
            <path id="Trazado_1179218" data-name="Trazado 1179218" d="M41.1,61.7V58.2a2,2,0,0,0-2-2H35.9a1.866,1.866,0,0,1-2-1.9V48.5a.987.987,0,0,0-.9-1H31.5a1.859,1.859,0,0,1-1.8-1.8,1.433,1.433,0,0,1,.4-1l2.7-3.8a1.284,1.284,0,0,0,.4-1l.1-1.9a14.514,14.514,0,0,1,29,.9,10.741,10.741,0,0,1-1.2,4.9l-2.2,4.7a27.168,27.168,0,0,0-2.6,11.9v1.3" fill="#efeef3"/>
          </g>
        </g>
        <g id="Grupo_1223912" data-name="Grupo 1223912">
          <g id="Grupo_1223911" data-name="Grupo 1223911">
            <path id="Trazado_1179219" data-name="Trazado 1179219" d="M22.9,40.3a.789.789,0,0,1-.8-.8V36a2.862,2.862,0,0,1,2.8-2.8h3.2A1.234,1.234,0,0,0,29.4,32V26.2A1.763,1.763,0,0,1,31,24.4h1.5a1,1,0,0,0,1-1c0-.2,0-.3-.3-.6L30.6,19a2.035,2.035,0,0,1-.6-1.5l-.1-1.9C30,8.8,24,3.1,16.8,3.1A13.532,13.532,0,0,0,3.1,16.8a9.969,9.969,0,0,0,1.1,4.5l2.2,4.8A28.352,28.352,0,0,1,9,38.3v1.3a.8.8,0,0,1-1.6,0V38.3A25.672,25.672,0,0,0,4.9,26.7L2.7,22a11.669,11.669,0,0,1-1.2-5.2A15.067,15.067,0,0,1,16.7,1.6,14.715,14.715,0,0,1,31.5,15.8l.1,1.9a.588.588,0,0,0,.2.5l.1.1,2.7,3.8a2.251,2.251,0,0,1,.5,1.5,2.54,2.54,0,0,1-2.5,2.5H31.1a.438.438,0,0,0-.1.3v5.8a2.712,2.712,0,0,1-2.8,2.7H25a1.4,1.4,0,0,0-1.3,1.3v3.5c0,.3-.4.6-.8.6Z" fill="#151f81"/>
          </g>
        </g>
        <g id="Grupo_1223914" data-name="Grupo 1223914">
          <g id="Grupo_1223913" data-name="Grupo 1223913">
            <path id="Trazado_1179220" data-name="Trazado 1179220" d="M41.1,62.4a.789.789,0,0,1-.8-.8V58.1A1.4,1.4,0,0,0,39,56.8H35.8A2.653,2.653,0,0,1,33,54.1V48.3a.438.438,0,0,0-.1-.3H31.4a2.54,2.54,0,0,1-2.5-2.5,2.168,2.168,0,0,1,.5-1.4l2.7-3.9.1-.1a.764.764,0,0,0,.2-.5l.1-2a15.214,15.214,0,0,1,30.4.9,11.669,11.669,0,0,1-1.2,5.2l-2.2,4.7A25.672,25.672,0,0,0,57,60v1.3a.789.789,0,0,1-.8.8.736.736,0,0,1-.8-.8V60A28.352,28.352,0,0,1,58,47.8l2.2-4.7a10.388,10.388,0,0,0,1.1-4.6,13.712,13.712,0,0,0-27.4-.8l-.1,1.9a2.2,2.2,0,0,1-.6,1.5l-2.7,3.8a.845.845,0,0,0-.2.6,1.071,1.071,0,0,0,1,1h1.5a1.694,1.694,0,0,1,1.6,1.8v5.8a1.234,1.234,0,0,0,1.3,1.2H39a2.862,2.862,0,0,1,2.8,2.8v3.5a.713.713,0,0,1-.7.8Z" fill="#151f81"/>
          </g>
        </g>
        <g id="Grupo_1223927" data-name="Grupo 1223927">
          <g id="Grupo_1223926" data-name="Grupo 1223926">
            <g id="Grupo_1223925" data-name="Grupo 1223925">
              <g id="Grupo_1223915" data-name="Grupo 1223915">
                <circle id="Elipse_14730" data-name="Elipse 14730" cx="10.8" cy="10.8" r="10.8" transform="translate(36.7 27.5)" fill="#fff"/>
              </g>
              <g id="Grupo_1223919" data-name="Grupo 1223919">
                <g id="Grupo_1223916" data-name="Grupo 1223916">
                  <path id="Trazado_1179221" data-name="Trazado 1179221" d="M44.3,31.2c-.3.7-1.3.8-1.7,1.4-.3.6.1,1.3.6,1.9.5.5,1,1.2.8,1.8a1.126,1.126,0,0,1-1.2.8,5.782,5.782,0,0,0-1.4.5,3.907,3.907,0,0,0-1,1.9,3.389,3.389,0,0,1-3.3,1.7,9.246,9.246,0,0,1-.4-2.9,10.855,10.855,0,0,1,5.6-9.5,1.538,1.538,0,0,1,.6.4,4.363,4.363,0,0,1,1,.8,1.148,1.148,0,0,1,.4,1.2Z" fill="#2aabf5"/>
                </g>
                <g id="Grupo_1223917" data-name="Grupo 1223917">
                  <path id="Trazado_1179222" data-name="Trazado 1179222" d="M58.2,37.4c-.8.6-1.4,1.3-2.2,1.9-.4.3-.6.6-1.2.6a2.663,2.663,0,0,1-1.2-.3,2.438,2.438,0,0,0-1.2,0c-.4.4-.3,1.2-.6,1.5a1.284,1.284,0,0,1-1,.4,1.6,1.6,0,0,1-1-.5,3.364,3.364,0,0,1-1.3-2,2.362,2.362,0,0,1,.4-2.3,4.744,4.744,0,0,1,1.7-1.4A12.638,12.638,0,0,1,53.2,34c.8-.3,1.7-.3,2.3-.5a2.425,2.425,0,0,0,1-.6,7.85,7.85,0,0,1,1.7,4.5Z" fill="#34cba0"/>
                </g>
                <g id="Grupo_1223918" data-name="Grupo 1223918">
                  <path id="Trazado_1179223" data-name="Trazado 1179223" d="M50,48.8a10.145,10.145,0,0,1-2.5.2,14.321,14.321,0,0,1-3.7-.6c-.1-.5-.3-1,0-1.4a4.173,4.173,0,0,1,.8-.6,2.2,2.2,0,0,0,.4-1.3,1.957,1.957,0,0,1,.6-1.2c.6-.3,1.3.3,1.5.9a7.714,7.714,0,0,0,.8,1.9,9.428,9.428,0,0,0,1,1A1.981,1.981,0,0,1,50,48.8Z" fill="#34cba0"/>
                </g>
              </g>
              <g id="Grupo_1223920" data-name="Grupo 1223920">
                <path id="Trazado_1179224" data-name="Trazado 1179224" d="M47.5,49.8A11.5,11.5,0,1,1,59,38.3,11.566,11.566,0,0,1,47.5,49.8Zm0-21.5a10,10,0,1,0,10,10A10.029,10.029,0,0,0,47.5,28.3Z" fill="#151f81"/>
              </g>
              <g id="Grupo_1223924" data-name="Grupo 1223924">
                <g id="Grupo_1223921" data-name="Grupo 1223921">
                  <path id="Trazado_1179225" data-name="Trazado 1179225" d="M37.7,41.9h-.4a.752.752,0,0,1,.1-1.5,2.215,2.215,0,0,0,2.3-1.2,1.007,1.007,0,0,0,.1-.3,3.177,3.177,0,0,1,1.1-1.8,5.094,5.094,0,0,1,1.7-.7c.2-.1.6,0,.6-.2v-.1c0-.1,0-.4-.6-1-.4-.6-1.3-1.6-.8-2.7a.1.1,0,0,1,.1-.1,2.326,2.326,0,0,1,1.1-.9c.2-.1.5-.3.5-.4a1.087,1.087,0,0,0-.1-.5,5.547,5.547,0,0,0-.8-.6c-.1,0-.2-.1-.3-.2-.1,0-.1-.1-.2-.1a.738.738,0,0,1,.7-1.3c.2.1.3.2.4.2s.1.1.2.1a.1.1,0,0,1,.1.1,4.811,4.811,0,0,1,1.1.9l.1.1a2.235,2.235,0,0,1,.3,1.9,2.129,2.129,0,0,1-1.2,1.1,1,1,0,0,0-.5.4,1.929,1.929,0,0,0,.5,1.1,2.561,2.561,0,0,1,.9,2.5A1.993,1.993,0,0,1,42.9,38a3.582,3.582,0,0,0-1.1.4c-.3.2-.4.6-.6,1.1-.1.2-.1.3-.2.5a3.825,3.825,0,0,1-3.3,1.9Z" fill="#151f81"/>
                </g>
                <g id="Grupo_1223922" data-name="Grupo 1223922">
                  <path id="Trazado_1179226" data-name="Trazado 1179226" d="M58.2,37.4c-.8.6-1.4,1.3-2.2,1.8-.4.3-.6.6-1.2.6a2.663,2.663,0,0,1-1.2-.3,2.438,2.438,0,0,0-1.2,0c-.4.4-.3,1.2-.6,1.5a1.284,1.284,0,0,1-1,.4,1.6,1.6,0,0,1-1-.5,3.364,3.364,0,0,1-1.3-2,2.362,2.362,0,0,1,.4-2.3,4.744,4.744,0,0,1,1.7-1.4,12.638,12.638,0,0,1,2.6-1.3c.8-.3,1.7-.3,2.3-.5a2.344,2.344,0,0,0,1-.5" fill="#2aabf5"/>
                  <path id="Trazado_1179227" data-name="Trazado 1179227" d="M50.9,42.2a2.981,2.981,0,0,1-1.6-.7,4.452,4.452,0,0,1-1.5-2.4,3.307,3.307,0,0,1,.5-2.9,4.807,4.807,0,0,1,1.9-1.6,11.679,11.679,0,0,1,2.7-1.4l1.2-.3c.4-.1.7-.1,1-.2a6.891,6.891,0,0,0,.8-.3A.778.778,0,0,1,57,33.5a4.15,4.15,0,0,1-1.3.7c-.4.1-.8.2-1.3.3-.4.1-.7.1-1,.2A8.906,8.906,0,0,0,51,35.9a4.213,4.213,0,0,0-1.4,1.2.1.1,0,0,1-.1.1,2.223,2.223,0,0,0-.3,1.6v.1a2.565,2.565,0,0,0,1,1.6,1.546,1.546,0,0,0,.6.3.764.764,0,0,0,.5-.2c0-.1.1-.3.1-.4a2.22,2.22,0,0,1,.5-1.1c.1-.1.2-.1.3-.2a2.208,2.208,0,0,1,1.6,0,3.711,3.711,0,0,0,.9.2c.1,0,.2-.1.4-.2a1.38,1.38,0,0,1,.4-.3,13.444,13.444,0,0,0,1.4-1.1c.2-.2.5-.4.7-.6a.781.781,0,0,1,1,1.2c-.2.2-.5.4-.7.6a15.757,15.757,0,0,1-1.5,1.2c-.1.1-.2.1-.2.2a2.261,2.261,0,0,1-1.3.6,5.768,5.768,0,0,1-1.4-.3.6.6,0,0,0-.4-.1.367.367,0,0,1-.1.3,2.22,2.22,0,0,1-.5,1.1,2.767,2.767,0,0,1-1.6.5Z" fill="#151f81"/>
                </g>
                <g id="Grupo_1223923" data-name="Grupo 1223923">
                  <path id="Trazado_1179228" data-name="Trazado 1179228" d="M43.8,48.4c-.1-.5-.3-1,.1-1.4a4.173,4.173,0,0,1,.8-.6,2.2,2.2,0,0,0,.4-1.3,1.957,1.957,0,0,1,.6-1.2c.6-.3,1.3.3,1.5.9a7.714,7.714,0,0,0,.8,1.9,9.428,9.428,0,0,0,1,1,5.3,5.3,0,0,1,1,1.2" fill="#2aabf5"/>
                  <path id="Trazado_1179229" data-name="Trazado 1179229" d="M50,49.6a.713.713,0,0,1-.6-.3,8.12,8.12,0,0,0-.9-1,1.38,1.38,0,0,0-.4-.3,6.034,6.034,0,0,1-.8-.8,4.714,4.714,0,0,1-.6-1.5c-.1-.2-.1-.4-.2-.6a.738.738,0,0,0-.6-.5,3.932,3.932,0,0,1-.2.6,3.022,3.022,0,0,1-.5,1.6l-.1.1a1.756,1.756,0,0,1-.5.4c-.1.1-.2.1-.3.3-.1.1,0,.3.1.7l-1.4.3.7-.2-.7.2c-.1-.6-.4-1.4.3-2.1a1.756,1.756,0,0,1,.5-.4c.1-.1.2-.1.2-.2a1.345,1.345,0,0,0,.2-.8v-.2c.2-.6.4-1.4,1.1-1.7a2.026,2.026,0,0,1,2.5,1.3,1.854,1.854,0,0,1,.2.7,3.7,3.7,0,0,0,.5,1.1l.5.5.4.4a6.885,6.885,0,0,1,1.1,1.3.775.775,0,0,1-.2,1c0,.1-.1.1-.3.1Z" fill="#151f81"/>
                </g>
              </g>
            </g>
          </g>
        </g>
        <g id="Grupo_1223941" data-name="Grupo 1223941">
          <g id="Grupo_1223940" data-name="Grupo 1223940">
            <g id="Grupo_1223928" data-name="Grupo 1223928">
              <path id="Trazado_1179230" data-name="Trazado 1179230" d="M19.8,32.1v4.5l-3-2V30Z" fill="#ffc408"/>
            </g>
            <g id="Grupo_1223929" data-name="Grupo 1223929">
              <path id="Trazado_1179231" data-name="Trazado 1179231" d="M16.8,34.6V30l-3.1,2.1v4.5Z" fill="#ffc408"/>
            </g>
            <g id="Grupo_1223933" data-name="Grupo 1223933">
              <g id="Grupo_1223930" data-name="Grupo 1223930">
                <path id="Trazado_1179232" data-name="Trazado 1179232" d="M5.9,16.4A10.9,10.9,0,1,1,16.8,27.3,10.926,10.926,0,0,1,5.9,16.4Z" fill="#f3877e"/>
              </g>
              <g id="Grupo_1223931" data-name="Grupo 1223931">
                <path id="Trazado_1179233" data-name="Trazado 1179233" d="M9.3,16.4a7.4,7.4,0,1,1,7.4,7.4,7.514,7.514,0,0,1-7.4-7.4Z" fill="#fff"/>
              </g>
              <g id="Grupo_1223932" data-name="Grupo 1223932">
                <circle id="Elipse_14731" data-name="Elipse 14731" cx="3.8" cy="3.8" r="3.8" transform="translate(13 12.6)" fill="#f3877e"/>
              </g>
            </g>
            <g id="Grupo_1223934" data-name="Grupo 1223934">
              <path id="Trazado_1179234" data-name="Trazado 1179234" d="M16.8,28A11.6,11.6,0,1,1,28.4,16.4,11.608,11.608,0,0,1,16.8,28Zm0-21.7A10.1,10.1,0,1,0,26.9,16.4,10.072,10.072,0,0,0,16.8,6.3Z" fill="#151f81"/>
            </g>
            <g id="Grupo_1223935" data-name="Grupo 1223935">
              <path id="Trazado_1179235" data-name="Trazado 1179235" d="M16.8,24.6A8.2,8.2,0,1,1,25,16.4a8.237,8.237,0,0,1-8.2,8.2Zm0-14.9a6.7,6.7,0,1,0,6.7,6.7,6.832,6.832,0,0,0-6.7-6.7Z" fill="#151f81"/>
            </g>
            <g id="Grupo_1223936" data-name="Grupo 1223936">
              <path id="Trazado_1179236" data-name="Trazado 1179236" d="M16.8,21a4.6,4.6,0,1,1,4.6-4.6A4.653,4.653,0,0,1,16.8,21Zm0-7.7a3.1,3.1,0,1,0,3.1,3.1,3.116,3.116,0,0,0-3.1-3.1Z" fill="#151f81"/>
            </g>
            <g id="Grupo_1223937" data-name="Grupo 1223937">
              <path id="Trazado_1179237" data-name="Trazado 1179237" d="M16.8,37.4a.789.789,0,0,1-.8-.8V16.4a.789.789,0,0,1,.8-.8.736.736,0,0,1,.8.8V36.6C17.5,37,17.2,37.4,16.8,37.4Z" fill="#151f81"/>
            </g>
            <g id="Grupo_1223938" data-name="Grupo 1223938">
              <path id="Trazado_1179238" data-name="Trazado 1179238" d="M19.8,37.4a.6.6,0,0,1-.4-.1l-3.1-2a1.329,1.329,0,0,1-.3-.7V30a1.012,1.012,0,0,1,.4-.7.8.8,0,0,1,.8.1l3.1,2.2a.713.713,0,0,1,.3.6v4.5a1.012,1.012,0,0,1-.4.7C20.1,37.3,20,37.4,19.8,37.4Zm-2.3-3.2,1.6,1V32.5l-1.6-1.1Z" fill="#151f81"/>
            </g>
            <g id="Grupo_1223939" data-name="Grupo 1223939">
              <path id="Trazado_1179239" data-name="Trazado 1179239" d="M13.7,37.4a.756.756,0,0,1-.4-.1.842.842,0,0,1-.4-.7V32.1a.713.713,0,0,1,.3-.6l3.1-2.2a.755.755,0,0,1,.8-.1.842.842,0,0,1,.4.7v4.6a.6.6,0,0,1-.3.6l-3.1,2a.536.536,0,0,1-.4.3Zm.7-4.9v2.7l1.6-1V31.4Z" fill="#151f81"/>
            </g>
          </g>
        </g>
      </g>
      <g id="Grupo_1223949" data-name="Grupo 1223949">
        <g id="Grupo_1223948" data-name="Grupo 1223948">
          <g id="Grupo_1223943" data-name="Grupo 1223943">
            <path id="Trazado_1179240" data-name="Trazado 1179240" d="M59.9,5.6V16.5A1.417,1.417,0,0,1,58.4,18h-17a1.417,1.417,0,0,1-1.5-1.5V13.3l-4.5-2.2L39.8,9V5.6a1.417,1.417,0,0,1,1.5-1.5h17A1.446,1.446,0,0,1,59.9,5.6Z" fill="#ffc408"/>
          </g>
          <g id="Grupo_1223944" data-name="Grupo 1223944">
            <path id="Trazado_1179241" data-name="Trazado 1179241" d="M58.4,18.8h-17a2.263,2.263,0,0,1-2.3-2.3V13.8l-4.1-2a.67.67,0,0,1-.4-.7,1.012,1.012,0,0,1,.4-.7l4.1-2V5.6a2.263,2.263,0,0,1,2.3-2.3h17a2.263,2.263,0,0,1,2.3,2.3V16.5A2.263,2.263,0,0,1,58.4,18.8ZM37,11.1l3.1,1.5a.67.67,0,0,1,.4.7v3.2a.736.736,0,0,0,.8.8h17a.736.736,0,0,0,.8-.8V5.6a.736.736,0,0,0-.8-.8h-17a.736.736,0,0,0-.8.8V9a1.012,1.012,0,0,1-.4.7Z" fill="#151f81"/>
          </g>
          <g id="Grupo_1223945" data-name="Grupo 1223945">
            <path id="Trazado_1179242" data-name="Trazado 1179242" d="M50.8,15.3H43.4a.789.789,0,0,1-.8-.8.736.736,0,0,1,.8-.8h7.4a.8.8,0,0,1,0,1.6Z" fill="#151f81"/>
          </g>
          <g id="Grupo_1223946" data-name="Grupo 1223946">
            <path id="Trazado_1179243" data-name="Trazado 1179243" d="M56.3,11.8H43.4a.789.789,0,0,1-.8-.8.736.736,0,0,1,.8-.8H56.3a.8.8,0,0,1,0,1.6Z" fill="#151f81"/>
          </g>
          <g id="Grupo_1223947" data-name="Grupo 1223947">
            <path id="Trazado_1179244" data-name="Trazado 1179244" d="M56.3,8.3H43.4a.789.789,0,0,1-.8-.8.736.736,0,0,1,.8-.8H56.3a.8.8,0,0,1,0,1.6Z" fill="#151f81"/>
          </g>
        </g>
      </g>
      <g id="Grupo_1223955" data-name="Grupo 1223955">
        <g id="Grupo_1223954" data-name="Grupo 1223954">
          <g id="Grupo_1223950" data-name="Grupo 1223950">
            <path id="Trazado_1179245" data-name="Trazado 1179245" d="M7.2,49.5H4.1V61.8H7.2a1.473,1.473,0,0,0,1.5-1.5V51.1A1.631,1.631,0,0,0,7.2,49.5Z" fill="#34cba0"/>
          </g>
          <g id="Grupo_1223951" data-name="Grupo 1223951">
            <path id="Trazado_1179246" data-name="Trazado 1179246" d="M22.5,56.3H21.2a1.4,1.4,0,0,1,0,2.8h-.6a1.4,1.4,0,0,1,0,2.8H14a3.2,3.2,0,0,1-1.9-.5l-.8-.4a10,10,0,0,0-2.6-.5V50.9h.6a4.471,4.471,0,0,0,3.1-1.2,5.221,5.221,0,0,0,2-4v-.9A1.562,1.562,0,0,1,15.9,43a1.6,1.6,0,0,1,1.4.8c.6,1.2,1.3,3.5-1.2,7h5.1a1.4,1.4,0,0,1,0,2.8h1.3A1.367,1.367,0,0,1,23.9,55a1.347,1.347,0,0,1-1.4,1.3Z" fill="#fff"/>
          </g>
          <g id="Grupo_1223952" data-name="Grupo 1223952">
            <path id="Trazado_1179247" data-name="Trazado 1179247" d="M20.6,62.7H14a4.615,4.615,0,0,1-2.3-.6l-.7-.4a15.693,15.693,0,0,0-1.6-.3c-.3,0-.6-.1-.8-.1a.76.76,0,0,1-.6-.8V50.9a.789.789,0,0,1,.8-.8h.6a3.7,3.7,0,0,0,2.6-1,4.81,4.81,0,0,0,1.8-3.4v-.9a2.107,2.107,0,0,1,.6-1.8,2.289,2.289,0,0,1,1.7-.8,2.467,2.467,0,0,1,2.1,1.2c.7,1.3,1.2,3.5-.5,6.6h3.8a2.22,2.22,0,0,1,2.2,2.2c0,.3-.1.5-.1.8A2.175,2.175,0,0,1,25,55v.2a2.6,2.6,0,0,1-1.5,1.6,1.949,1.949,0,0,1,.1.8,2.43,2.43,0,0,1-.9,1.8,2.016,2.016,0,0,1,.3,1.1,2.557,2.557,0,0,1-2.4,2.2ZM9.5,59.9h.1a4.442,4.442,0,0,1,2,.5l.8.4a.1.1,0,0,1,.1.1,2.982,2.982,0,0,0,1.5.4h6.7a.7.7,0,1,0,0-1.4.789.789,0,0,1-.8-.8.736.736,0,0,1,.8-.8h.6a.7.7,0,1,0,0-1.4.789.789,0,0,1-.8-.8.736.736,0,0,1,.8-.8h1.3a.953.953,0,0,0,.8-.5c-.1-.3-.3-.6-.6-.6H21.5a.789.789,0,0,1-.8-.8c0-.5.3-.4.7-.4a.7.7,0,0,0,0-1.4H16.3a1.012,1.012,0,0,1-.7-.4,1.1,1.1,0,0,1,0-.8c1.7-2.4,2-4.6,1.1-6.3a1.039,1.039,0,0,0-.8-.4.864.864,0,0,0-.6.3.956.956,0,0,0-.2.7v1a6.039,6.039,0,0,1-2.3,4.5,5.078,5.078,0,0,1-3.5,1.3v8.4Z" fill="#151f81"/>
          </g>
          <g id="Grupo_1223953" data-name="Grupo 1223953">
            <path id="Trazado_1179248" data-name="Trazado 1179248" d="M7.2,62.6H4.1a.789.789,0,0,1-.8-.8.736.736,0,0,1,.8-.8H7.2a.789.789,0,0,0,.8-.8V51a.789.789,0,0,0-.8-.8H4.1a.789.789,0,0,1-.8-.8.736.736,0,0,1,.8-.8H7.2a2.326,2.326,0,0,1,2.3,2.3v9.2a2.441,2.441,0,0,1-2.3,2.5Z" fill="#151f81"/>
          </g>
        </g>
      </g>
    </g>
  </g>
</svg>
