<svg xmlns="http://www.w3.org/2000/svg" xmlns:xlink="http://www.w3.org/1999/xlink" width="118" height="118" viewBox="0 0 118 118">
  <defs>
    <filter id="Trazado_982547" x="0" y="0" width="118" height="118" filterUnits="userSpaceOnUse">
      <feOffset dy="3" input="SourceAlpha"/>
      <feGaussianBlur stdDeviation="3" result="blur"/>
      <feFlood flood-opacity="0.161"/>
      <feComposite operator="in" in2="blur"/>
      <feComposite in="SourceGraphic"/>
    </filter>
  </defs>
  <g id="Grupo_1223957" data-name="Grupo 1223957" transform="translate(-583.5 -5763.097)">
    <g id="Grupo_1223785" data-name="Grupo 1223785" transform="translate(0 -3141.948)">
      <g id="Grupo_1223200" data-name="Grupo 1223200" transform="translate(592.5 8911.045)">
        <g id="Grupo_1211216" data-name="Grupo 1211216" transform="translate(0)">
          <g id="Grupo_1210737" data-name="Grupo 1210737">
            <g id="Grupo_1210537" data-name="Grupo 1210537">
              <g id="Grupo_1164202" data-name="Grupo 1164202">
                <g id="Grupo_1158168" data-name="Grupo 1158168">
                  <g id="Grupo_1152576" data-name="Grupo 1152576">
                    <g id="Grupo_1148633" data-name="Grupo 1148633">
                      <g id="Grupo_1148525" data-name="Grupo 1148525">
                        <g transform="matrix(1, 0, 0, 1, -9, -6)" filter="url(#Trazado_982547)">
                          <g id="Trazado_982547-2" data-name="Trazado 982547" transform="translate(9 6)" fill="#fcf5f0">
                            <path d="M 49.99999618530273 98.5 C 43.45188140869141 98.5 37.10042572021484 97.21786499023438 31.12206840515137 94.68923950195312 C 25.34691047668457 92.24655151367188 20.15996742248535 88.74931335449219 15.70532512664795 84.29468536376953 C 11.25068187713623 79.84004211425781 7.753438949584961 74.65309906005859 5.310753345489502 68.87792205810547 C 2.782124757766724 62.89956665039062 1.499996185302734 56.54811096191406 1.499996185302734 49.99999618530273 C 1.499996185302734 43.45188140869141 2.782124757766724 37.10042572021484 5.310753345489502 31.12206840515137 C 7.753438949584961 25.34691047668457 11.25068187713623 20.15996742248535 15.70532512664795 15.70532512664795 C 20.15996742248535 11.25068187713623 25.34691047668457 7.753438949584961 31.12206840515137 5.310753345489502 C 37.10042572021484 2.782124757766724 43.45188140869141 1.499996185302734 49.99999618530273 1.499996185302734 C 56.54811096191406 1.499996185302734 62.89956665039062 2.782124757766724 68.87792205810547 5.310753345489502 C 74.65309906005859 7.753438949584961 79.84004211425781 11.25068187713623 84.29468536376953 15.70532512664795 C 88.74931335449219 20.15996742248535 92.24655151367188 25.34691047668457 94.68923950195312 31.12206840515137 C 97.21786499023438 37.10042572021484 98.5 43.45188140869141 98.5 49.99999618530273 C 98.5 56.54811096191406 97.21786499023438 62.89956665039062 94.68923950195312 68.87792205810547 C 92.24655151367188 74.65309906005859 88.74931335449219 79.84004211425781 84.29468536376953 84.29468536376953 C 79.84004211425781 88.74931335449219 74.65309906005859 92.24655151367188 68.87792205810547 94.68923950195312 C 62.89956665039062 97.21786499023438 56.54811096191406 98.5 49.99999618530273 98.5 Z" stroke="none"/>
                            <path d="M 49.99999618530273 2.999992370605469 C 43.65372085571289 2.999992370605469 37.49885940551758 4.242256164550781 31.70639801025391 6.6922607421875 C 26.11002349853516 9.059318542480469 21.08335113525391 12.4486083984375 16.76598358154297 16.76598358154297 C 12.4486083984375 21.08335113525391 9.059318542480469 26.11002349853516 6.6922607421875 31.70639801025391 C 4.242256164550781 37.49885940551758 2.999992370605469 43.65372085571289 2.999992370605469 49.99999618530273 C 2.999992370605469 56.34627151489258 4.242256164550781 62.50113296508789 6.6922607421875 68.29359436035156 C 9.059318542480469 73.88996887207031 12.4486083984375 78.91664123535156 16.76598358154297 83.2340087890625 C 21.08335113525391 87.55138397216797 26.11002349853516 90.940673828125 31.70639801025391 93.30773162841797 C 37.49885940551758 95.75773620605469 43.65372085571289 97 49.99999618530273 97 C 56.34627151489258 97 62.50113296508789 95.75773620605469 68.29359436035156 93.30773162841797 C 73.88996887207031 90.940673828125 78.91664123535156 87.55138397216797 83.2340087890625 83.2340087890625 C 87.55138397216797 78.91664123535156 90.940673828125 73.88996887207031 93.30773162841797 68.29359436035156 C 95.75773620605469 62.50113296508789 97 56.34627151489258 97 49.99999618530273 C 97 43.65372085571289 95.75773620605469 37.49885940551758 93.30773162841797 31.70639801025391 C 90.940673828125 26.11002349853516 87.55138397216797 21.08335113525391 83.2340087890625 16.76598358154297 C 78.91664123535156 12.4486083984375 73.88996887207031 9.059318542480469 68.29359436035156 6.6922607421875 C 62.50113296508789 4.242256164550781 56.34627151489258 2.999992370605469 49.99999618530273 2.999992370605469 M 49.99999618530273 -7.62939453125e-06 C 77.61422729492188 -7.62939453125e-06 100 22.38576507568359 100 49.99999618530273 C 100 77.61422729492188 77.61422729492188 100 49.99999618530273 100 C 22.38576507568359 100 -7.62939453125e-06 77.61422729492188 -7.62939453125e-06 49.99999618530273 C -7.62939453125e-06 22.38576507568359 22.38576507568359 -7.62939453125e-06 49.99999618530273 -7.62939453125e-06 Z" stroke="none" fill="#eca675"/>
                          </g>
                        </g>
                      </g>
                    </g>
                  </g>
                </g>
              </g>
            </g>
          </g>
        </g>
      </g>
    </g>
    <g id="knowledge_2103429" transform="translate(599.775 5778.209)">
      <path id="Trazado_1179249" data-name="Trazado 1179249" d="M40.991,3.023V52.876c-.257.016-.515.023-.78.023-.343,0-.686-.016-1.021-.023l-2.121-4.9a20.023,20.023,0,0,1-6.089-1.988l-4.6,2.721c-.569-.374-1.115-.78-1.645-1.2L25.9,42.3a20.363,20.363,0,0,1-3.766-5.185l-5.317-.5c-.234-.632-.444-1.279-.624-1.941L20.2,31.154a20.084,20.084,0,0,1,0-6.409L16.19,21.221c.179-.663.39-1.31.624-1.941l5.317-.5A20.363,20.363,0,0,1,25.9,13.6L24.735,8.388c.53-.421,1.076-.826,1.645-1.2l4.6,2.721A20.023,20.023,0,0,1,37.07,7.92l2.121-4.9c.335-.008.678-.023,1.021-.023.265,0,.522.008.78.023Z" transform="translate(-0.245 -0.22)" fill="#63b2b9"/>
      <path id="Trazado_1179250" data-name="Trazado 1179250" d="M44.7,21V42.831h-.78a10.915,10.915,0,1,1,0-21.831Z" transform="translate(-3.949 -4.186)" fill="#f9aa3d"/>
      <path id="Trazado_1179251" data-name="Trazado 1179251" d="M43.593,41.729v3.9h-.78a14.814,14.814,0,1,1,0-29.628h.78v3.9h-.78a10.915,10.915,0,1,0,0,21.831Z" transform="translate(-2.848 -3.085)" fill="#f0f0f0"/>
      <path id="Trazado_1179252" data-name="Trazado 1179252" d="M74.891,22.659a14.541,14.541,0,0,1-2.2,7.688l-3.033,4.881A24.7,24.7,0,0,0,66.1,45.534a9.527,9.527,0,0,1-16.209,5.684L48,49.331V11.907l6.721-2.768a14.609,14.609,0,0,1,20.17,13.52Z" transform="translate(-7.254 -1.33)" fill="#ec2f53"/>
      <path id="Trazado_1179253" data-name="Trazado 1179253" d="M21.068,77.136h47.17V67H21.068a5.068,5.068,0,0,0,0,10.136Z" transform="translate(-0.204 -14.321)" fill="#f0f0f0"/>
      <path id="Trazado_1179254" data-name="Trazado 1179254" d="M21.068,90.136h47.17V80H21.068a5.068,5.068,0,0,0,0,10.136Z" transform="translate(-0.204 -17.186)" fill="#d2d2d2"/>
      <path id="Trazado_1179255" data-name="Trazado 1179255" d="M25,72h7.8V84.475l-3.9-1.559L25,84.475Z" transform="translate(-2.187 -15.423)" fill="#ec2f53"/>
      <path id="Trazado_1179256" data-name="Trazado 1179256" d="M38.78,87a.78.78,0,1,0,0,1.559h7.8a.78.78,0,0,0,0-1.559Z" transform="translate(-5.051 -18.728)"/>
      <path id="Trazado_1179257" data-name="Trazado 1179257" d="M64.475,84.78A.779.779,0,0,0,63.7,84H52.78a.78.78,0,1,0,0,1.559H63.7A.779.779,0,0,0,64.475,84.78Z" transform="translate(-8.135 -18.067)"/>
      <path id="Trazado_1179258" data-name="Trazado 1179258" d="M56.78,89.559H70.814a.78.78,0,0,0,0-1.559H56.78a.78.78,0,0,0,0,1.559Z" transform="translate(-9.017 -18.948)"/>
      <path id="Trazado_1179259" data-name="Trazado 1179259" d="M47.356,75H38.78a.78.78,0,1,0,0,1.559h8.576a.78.78,0,1,0,0-1.559Z" transform="translate(-5.051 -16.084)"/>
      <path id="Trazado_1179260" data-name="Trazado 1179260" d="M53.78,72.559H67.034a.78.78,0,0,0,0-1.559H53.78a.78.78,0,0,0,0,1.559Z" transform="translate(-8.356 -15.203)"/>
      <path id="Trazado_1179261" data-name="Trazado 1179261" d="M73.576,75h-7.8a.78.78,0,1,0,0,1.559h7.8a.78.78,0,0,0,0-1.559Z" transform="translate(-11 -16.084)"/>
      <circle id="Elipse_14732" data-name="Elipse 14732" cx="0.78" cy="0.78" r="0.78" transform="translate(50.882 58.916)"/>
      <circle id="Elipse_14733" data-name="Elipse 14733" cx="0.78" cy="0.78" r="0.78" transform="translate(47.763 58.916)"/>
      <circle id="Elipse_14734" data-name="Elipse 14734" cx="0.78" cy="0.78" r="0.78" transform="translate(44.644 58.916)"/>
      <path id="Trazado_1179262" data-name="Trazado 1179262" d="M43.78,72.559H46.9A.78.78,0,1,0,46.9,71H43.78a.78.78,0,1,0,0,1.559Z" transform="translate(-6.152 -15.203)"/>
      <circle id="Elipse_14735" data-name="Elipse 14735" cx="0.78" cy="0.78" r="0.78" transform="translate(36.848 23.831)"/>
      <circle id="Elipse_14736" data-name="Elipse 14736" cx="0.78" cy="0.78" r="0.78" transform="translate(36.848 30.068)"/>
      <path id="Trazado_1179263" data-name="Trazado 1179263" d="M69.594,63.594a.78.78,0,0,0,0-1.559h-.78V53.458h.78a.78.78,0,0,0,0-1.559H54.824a10.288,10.288,0,0,0,4.791-7.61A24.1,24.1,0,0,1,63.07,34.3l3.029-4.88A15.383,15.383,0,0,0,47.171,7.087L41.545,9.4a6.241,6.241,0,0,1,6.218-5.844.78.78,0,0,0,0-1.559,7.781,7.781,0,0,0-6.237,3.139V2.8a.779.779,0,0,0-.752-.779l-.1,0C40.09,2,39.5,2,38.912,2.027a.778.778,0,0,0-.684.47L36.281,7a20.9,20.9,0,0,0-5.516,1.8l-4.231-2.5a.779.779,0,0,0-.83.023c-.564.376-1.12.783-1.7,1.243a.78.78,0,0,0-.276.782l1.074,4.79a21.084,21.084,0,0,0-3.407,4.692l-4.9.458a.78.78,0,0,0-.658.505c-.232.626-.443,1.281-.645,2a.78.78,0,0,0,.235.8l3.688,3.245a21.335,21.335,0,0,0-.2,2.9,21.111,21.111,0,0,0,.2,2.9l-3.688,3.245a.78.78,0,0,0-.235.8c.2.723.412,1.378.645,2a.78.78,0,0,0,.658.505l4.9.458A21.041,21.041,0,0,0,24.8,42.328l-1.074,4.79A.78.78,0,0,0,24,47.9c.572.453,1.144.872,1.7,1.244a.773.773,0,0,0,.83.023l4.231-2.5a20.874,20.874,0,0,0,5.516,1.8L37.769,51.9H20.924a5.843,5.843,0,0,0-2.905,10.915A5.843,5.843,0,0,0,20.924,73.73h48.67a.78.78,0,0,0,0-1.559h-.78V65.933a.78.78,0,1,0-1.559,0v6.237H20.924a4.288,4.288,0,1,1,0-8.576h1.11v5.458a.78.78,0,0,0,1.069.724l3.609-1.444,3.608,1.444a.78.78,0,0,0,1.07-.724V63.594ZM47.765,8.53A13.824,13.824,0,0,1,64.775,28.6l-3.029,4.88a25.659,25.659,0,0,0-3.679,10.636,8.75,8.75,0,0,1-14.882,5.22l-1.658-1.659V21.492h1.559a.78.78,0,0,0,0-1.559H41.526V17.593h5.458a.78.78,0,1,0,0-1.559H41.526V13.7h9.356a.78.78,0,0,0,0-1.559H41.526V11.1Zm-7.8,18.42h-7.8a.78.78,0,0,0,0,1.559h7.8v9.356a10.136,10.136,0,1,1,0-20.271Zm0-10.915a11.7,11.7,0,1,0,0,23.39v2.339a14.034,14.034,0,0,1,0-28.068Zm1.559,33.849.556.557a10.353,10.353,0,0,0,1.85,1.46H41.526Zm-2.061,2.008-1.92-4.443a.781.781,0,0,0-.6-.462,19.357,19.357,0,0,1-5.859-1.906.776.776,0,0,0-.752.023l-4.17,2.468c-.269-.189-.538-.386-.812-.595l1.06-4.722a.778.778,0,0,0-.211-.723,19.494,19.494,0,0,1-3.621-4.986.781.781,0,0,0-.622-.423l-4.827-.451c-.105-.306-.207-.622-.306-.954l3.636-3.2a.781.781,0,0,0,.255-.708,19.523,19.523,0,0,1,0-6.164.78.78,0,0,0-.255-.708l-3.636-3.2c.1-.331.2-.647.306-.954l4.827-.451a.78.78,0,0,0,.622-.423A19.52,19.52,0,0,1,26.2,13.925a.78.78,0,0,0,.211-.723L25.356,8.48c.274-.209.543-.406.811-.594l4.17,2.468a.774.774,0,0,0,.752.023A19.342,19.342,0,0,1,36.948,8.47a.779.779,0,0,0,.6-.462l1.92-4.443c.167,0,.334-.006.5-.006v8.576a15.593,15.593,0,0,0,0,31.187V51.9c-.168,0-.335,0-.5-.008ZM31.39,57.357h1.559a.78.78,0,1,0,0-1.559H25.932a.78.78,0,1,0,0,1.559h.78v3.119a.78.78,0,1,0,1.559,0V57.357h1.559V67.9L27,66.768a.775.775,0,0,0-.579,0L23.593,67.9V56.577a.779.779,0,0,0-.78-.78H20.474a.78.78,0,0,0,0,1.559h1.559v4.678h-1.11a4.288,4.288,0,1,1,0-8.576H67.255v8.576H31.39Z" transform="translate(0)"/>
      <path id="Trazado_1179264" data-name="Trazado 1179264" d="M74.056,19a.78.78,0,0,0,1.287-.881q-.3-.434-.632-.838a.78.78,0,0,0-1.2,1q.289.349.544.722Z" transform="translate(-12.835 -3.305)"/>
      <path id="Trazado_1179265" data-name="Trazado 1179265" d="M70.9,36.98a.78.78,0,0,0,1.074-.252l3.029-4.88a11.385,11.385,0,0,0,1.363-8.924.779.779,0,1,0-1.509.39,9.838,9.838,0,0,1-1.178,7.713l-3.029,4.88A.779.779,0,0,0,70.9,36.98Z" transform="translate(-12.219 -4.481)"/>
    </g>
  </g>
</svg>
