<svg xmlns="http://www.w3.org/2000/svg" xmlns:xlink="http://www.w3.org/1999/xlink" width="118" height="118" viewBox="0 0 118 118">
  <defs>
    <filter id="Trazado_982547" x="0" y="0" width="118" height="118" filterUnits="userSpaceOnUse">
      <feOffset dy="3" input="SourceAlpha"/>
      <feGaussianBlur stdDeviation="3" result="blur"/>
      <feFlood flood-opacity="0.161"/>
      <feComposite operator="in" in2="blur"/>
      <feComposite in="SourceGraphic"/>
    </filter>
  </defs>
  <g id="Grupo_1223974" data-name="Grupo 1223974" transform="translate(-898.5 -5763.097)">
    <g id="Grupo_1223783" data-name="Grupo 1223783" transform="translate(0 -3141.948)">
      <g id="Grupo_1223201" data-name="Grupo 1223201" transform="translate(907.5 8911.045)">
        <g id="Grupo_1211216" data-name="Grupo 1211216" transform="translate(0)">
          <g id="Grupo_1210737" data-name="Grupo 1210737">
            <g id="Grupo_1210537" data-name="Grupo 1210537">
              <g id="Grupo_1164202" data-name="Grupo 1164202">
                <g id="Grupo_1158168" data-name="Grupo 1158168">
                  <g id="Grupo_1152576" data-name="Grupo 1152576">
                    <g id="Grupo_1148633" data-name="Grupo 1148633">
                      <g id="Grupo_1148525" data-name="Grupo 1148525">
                        <g transform="matrix(1, 0, 0, 1, -9, -6)" filter="url(#Trazado_982547)">
                          <g id="Trazado_982547-2" data-name="Trazado 982547" transform="translate(9 6)" fill="#fcf5f0">
                            <path d="M 49.99999618530273 98.5 C 43.45188140869141 98.5 37.10042572021484 97.21786499023438 31.12206840515137 94.68923950195312 C 25.34691047668457 92.24655151367188 20.15996742248535 88.74931335449219 15.70532512664795 84.29468536376953 C 11.25068187713623 79.84004211425781 7.753438949584961 74.65309906005859 5.310753345489502 68.87792205810547 C 2.782124757766724 62.89956665039062 1.499996185302734 56.54811096191406 1.499996185302734 49.99999618530273 C 1.499996185302734 43.45188140869141 2.782124757766724 37.10042572021484 5.310753345489502 31.12206840515137 C 7.753438949584961 25.34691047668457 11.25068187713623 20.15996742248535 15.70532512664795 15.70532512664795 C 20.15996742248535 11.25068187713623 25.34691047668457 7.753438949584961 31.12206840515137 5.310753345489502 C 37.10042572021484 2.782124757766724 43.45188140869141 1.499996185302734 49.99999618530273 1.499996185302734 C 56.54811096191406 1.499996185302734 62.89956665039062 2.782124757766724 68.87792205810547 5.310753345489502 C 74.65309906005859 7.753438949584961 79.84004211425781 11.25068187713623 84.29468536376953 15.70532512664795 C 88.74931335449219 20.15996742248535 92.24655151367188 25.34691047668457 94.68923950195312 31.12206840515137 C 97.21786499023438 37.10042572021484 98.5 43.45188140869141 98.5 49.99999618530273 C 98.5 56.54811096191406 97.21786499023438 62.89956665039062 94.68923950195312 68.87792205810547 C 92.24655151367188 74.65309906005859 88.74931335449219 79.84004211425781 84.29468536376953 84.29468536376953 C 79.84004211425781 88.74931335449219 74.65309906005859 92.24655151367188 68.87792205810547 94.68923950195312 C 62.89956665039062 97.21786499023438 56.54811096191406 98.5 49.99999618530273 98.5 Z" stroke="none"/>
                            <path d="M 49.99999618530273 2.999992370605469 C 43.65372085571289 2.999992370605469 37.49885940551758 4.242256164550781 31.70639801025391 6.6922607421875 C 26.11002349853516 9.059318542480469 21.08335113525391 12.4486083984375 16.76598358154297 16.76598358154297 C 12.4486083984375 21.08335113525391 9.059318542480469 26.11002349853516 6.6922607421875 31.70639801025391 C 4.242256164550781 37.49885940551758 2.999992370605469 43.65372085571289 2.999992370605469 49.99999618530273 C 2.999992370605469 56.34627151489258 4.242256164550781 62.50113296508789 6.6922607421875 68.29359436035156 C 9.059318542480469 73.88996887207031 12.4486083984375 78.91664123535156 16.76598358154297 83.2340087890625 C 21.08335113525391 87.55138397216797 26.11002349853516 90.940673828125 31.70639801025391 93.30773162841797 C 37.49885940551758 95.75773620605469 43.65372085571289 97 49.99999618530273 97 C 56.34627151489258 97 62.50113296508789 95.75773620605469 68.29359436035156 93.30773162841797 C 73.88996887207031 90.940673828125 78.91664123535156 87.55138397216797 83.2340087890625 83.2340087890625 C 87.55138397216797 78.91664123535156 90.940673828125 73.88996887207031 93.30773162841797 68.29359436035156 C 95.75773620605469 62.50113296508789 97 56.34627151489258 97 49.99999618530273 C 97 43.65372085571289 95.75773620605469 37.49885940551758 93.30773162841797 31.70639801025391 C 90.940673828125 26.11002349853516 87.55138397216797 21.08335113525391 83.2340087890625 16.76598358154297 C 78.91664123535156 12.4486083984375 73.88996887207031 9.059318542480469 68.29359436035156 6.6922607421875 C 62.50113296508789 4.242256164550781 56.34627151489258 2.999992370605469 49.99999618530273 2.999992370605469 M 49.99999618530273 -7.62939453125e-06 C 77.61422729492188 -7.62939453125e-06 100 22.38576507568359 100 49.99999618530273 C 100 77.61422729492188 77.61422729492188 100 49.99999618530273 100 C 22.38576507568359 100 -7.62939453125e-06 77.61422729492188 -7.62939453125e-06 49.99999618530273 C -7.62939453125e-06 22.38576507568359 22.38576507568359 -7.62939453125e-06 49.99999618530273 -7.62939453125e-06 Z" stroke="none" fill="#eca675"/>
                          </g>
                        </g>
                      </g>
                    </g>
                  </g>
                </g>
              </g>
            </g>
          </g>
        </g>
      </g>
    </g>
    <g id="problem-solving_5866082_1_" data-name="problem-solving_5866082 (1)" transform="translate(920.79 5782.387)">
      <g id="Grupo_1223972" data-name="Grupo 1223972" transform="translate(1.184 1.184)">
        <g id="Grupo_1223958" data-name="Grupo 1223958" transform="translate(31.973 31.973)">
          <path id="Trazado_1179266" data-name="Trazado 1179266" d="M228.737,224l2.368,13.026H224L226.368,224Z" transform="translate(-224 -224)" fill="#b4dd7f"/>
        </g>
        <g id="Grupo_1223959" data-name="Grupo 1223959" transform="translate(32.65 26.052)">
          <path id="Trazado_1179267" data-name="Trazado 1179267" d="M234.322,184l-1.692,5.921h-2.368L228.57,184Z" transform="translate(-228.57 -184)" fill="#a0d468"/>
        </g>
        <g id="Grupo_1223960" data-name="Grupo 1223960" transform="translate(36.71 22.664)">
          <path id="Trazado_1179268" data-name="Trazado 1179268" d="M266.658,173.972v9.474h-8.289L256,170.419l1.692-5.921h.677v-.518a1.628,1.628,0,0,1,2.78-1.152l.366.367,2.086-2.086,2.941.981a11.254,11.254,0,0,1,5.816,4.442,11.242,11.242,0,0,0,1.406,1.716v9.869A16.169,16.169,0,0,1,266.658,173.972Z" transform="translate(-256 -161.11)" fill="#ff826e"/>
        </g>
        <g id="Grupo_1223961" data-name="Grupo 1223961" transform="translate(9.474 22.664)">
          <path id="Trazado_1179269" data-name="Trazado 1179269" d="M86.21,173.972a16.172,16.172,0,0,1-11.435,4.737H72V171.6l1.341-.268a11.271,11.271,0,0,0,7.17-4.8,11.254,11.254,0,0,1,5.816-4.442l2.941-.981,2.086,2.086.366-.367a1.629,1.629,0,0,1,2.78,1.152v.518h.676l1.692,5.921L94.5,183.445H86.21Z" transform="translate(-72 -161.11)" fill="#ff826e"/>
        </g>
        <g id="Grupo_1223962" data-name="Grupo 1223962" transform="translate(22.5)">
          <path id="Trazado_1179270" data-name="Trazado 1179270" d="M186.052,17.474v7.105h-.518a1.629,1.629,0,0,0-1.152,2.78l.367.366-2.94,2.94-2.086,2.086-.366-.367a1.629,1.629,0,0,0-2.78,1.152v.518h-7.105v-.518a1.629,1.629,0,0,0-2.78-1.152l-.366.367-2.086-2.086-2.94-2.94.367-.366a1.629,1.629,0,0,0-1.152-2.78H160V17.474h.518a1.629,1.629,0,0,0,1.152-2.78l-.367-.366L166.328,9.3l.366.367a1.629,1.629,0,0,0,2.78-1.152V8h7.105v.518a1.629,1.629,0,0,0,2.78,1.152l.366-.367,5.025,5.025-.367.366a1.629,1.629,0,0,0,1.152,2.78Zm-4.737,3.553a8.289,8.289,0,1,0-8.289,8.289A8.289,8.289,0,0,0,181.316,21.026Z" transform="translate(-160 -8)" fill="#ffc729"/>
        </g>
        <g id="Grupo_1223963" data-name="Grupo 1223963" transform="translate(27.236 4.737)">
          <path id="Trazado_1179271" data-name="Trazado 1179271" d="M200.289,40A8.289,8.289,0,1,1,192,48.289,8.289,8.289,0,0,1,200.289,40Zm3.553,8.289a3.553,3.553,0,1,0-3.553,3.553A3.554,3.554,0,0,0,203.842,48.289Z" transform="translate(-192 -40)" fill="#fcd770"/>
        </g>
        <g id="Grupo_1223964" data-name="Grupo 1223964" transform="translate(20.842 66.315)">
          <path id="Trazado_1179272" data-name="Trazado 1179272" d="M178.168,456l-.271,2.706a2.255,2.255,0,0,1-2.244,2.031H151.315a2.255,2.255,0,0,1-2.244-2.031L148.8,456Z" transform="translate(-148.8 -456)" fill="#aab2bd"/>
        </g>
        <g id="Grupo_1223965" data-name="Grupo 1223965" transform="translate(18.947 44.999)">
          <path id="Trazado_1179273" data-name="Trazado 1179273" d="M169.157,314.256c0,.075,0,.15-.012.225l-1.883,18.835H137.895l-1.883-18.835c-.007-.076-.012-.15-.012-.225A2.254,2.254,0,0,1,138.256,312H166.9A2.255,2.255,0,0,1,169.157,314.256Z" transform="translate(-136 -312)" fill="#ccd1d9"/>
        </g>
        <g id="Grupo_1223966" data-name="Grupo 1223966" transform="translate(2.368 44.999)">
          <path id="Trazado_1179274" data-name="Trazado 1179274" d="M31.105,312v1.184a3.553,3.553,0,0,1-7.105,0V312Z" transform="translate(-24 -312)" fill="#ccd1d9"/>
        </g>
        <g id="Grupo_1223967" data-name="Grupo 1223967" transform="translate(2.368 20.131)">
          <path id="Trazado_1179275" data-name="Trazado 1179275" d="M31.105,152.223v.067H24v-.067a4.747,4.747,0,0,1,.5-2.118l3.052-6.1,3.052,6.1A4.747,4.747,0,0,1,31.105,152.223Z" transform="translate(-24 -144)" fill="#ccd1d9"/>
        </g>
        <g id="Grupo_1223968" data-name="Grupo 1223968" transform="translate(2.368 28.421)">
          <path id="Trazado_1179276" data-name="Trazado 1179276" d="M31.105,211.842v4.737H24v-4.94a3.556,3.556,0,0,0,2.368-3.35v-2.368A3.556,3.556,0,0,0,24,202.571V200h7.105v11.842Z" transform="translate(-24 -200)" fill="#b4dd7f"/>
        </g>
        <g id="Grupo_1223969" data-name="Grupo 1223969" transform="translate(54.473 23.684)">
          <path id="Trazado_1179277" data-name="Trazado 1179277" d="M376,174.119v-4.935A1.184,1.184,0,0,1,377.184,168h9.474a1.184,1.184,0,0,1,1.184,1.184v16.579a1.184,1.184,0,0,1-1.184,1.184h-9.474A1.184,1.184,0,0,1,376,185.763V174.119Z" transform="translate(-376 -168)" fill="#e6e9ed"/>
        </g>
        <g id="Grupo_1223970" data-name="Grupo 1223970" transform="translate(66.315 30.789)">
          <path id="Trazado_1179278" data-name="Trazado 1179278" d="M460.737,217.184v7.105a1.184,1.184,0,0,1-1.184,1.184A3.554,3.554,0,0,1,456,221.921v-2.368A3.553,3.553,0,0,1,459.553,216a1.183,1.183,0,0,1,1.184,1.184Z" transform="translate(-456 -216)" fill="#f0d0b4"/>
        </g>
        <g id="Grupo_1223971" data-name="Grupo 1223971" transform="translate(0 30.789)">
          <path id="Trazado_1179279" data-name="Trazado 1179279" d="M12.737,219.553v2.368a3.551,3.551,0,0,1-3.553,3.553A1.184,1.184,0,0,1,8,224.289v-7.105A1.183,1.183,0,0,1,9.184,216a3.551,3.551,0,0,1,3.553,3.553Z" transform="translate(-8 -216)" fill="#f0d0b4"/>
        </g>
      </g>
      <g id="Grupo_1223973" data-name="Grupo 1223973" transform="translate(0 0)">
        <path id="Trazado_1179280" data-name="Trazado 1179280" d="M240,336h2.368v9.474H240Z" transform="translate(-204.474 -286.264)"/>
        <path id="Trazado_1179281" data-name="Trazado 1179281" d="M240,416h2.368v2.368H240Z" transform="translate(-204.474 -354.422)"/>
        <path id="Trazado_1179282" data-name="Trazado 1179282" d="M220.737,73.474A4.737,4.737,0,1,0,216,68.737,4.742,4.742,0,0,0,220.737,73.474Zm0-7.105a2.368,2.368,0,1,1-2.368,2.368A2.371,2.371,0,0,1,220.737,66.368Z" transform="translate(-184.027 -54.526)"/>
        <path id="Trazado_1179283" data-name="Trazado 1179283" d="M193.474,50.947A9.474,9.474,0,1,0,184,41.474,9.484,9.484,0,0,0,193.474,50.947Zm0-16.579a7.105,7.105,0,1,1-7.105,7.105A7.113,7.113,0,0,1,193.474,34.368Z" transform="translate(-156.764 -27.263)"/>
        <path id="Trazado_1179284" data-name="Trazado 1179284" d="M400,192h4.737v2.368H400Z" transform="translate(-340.79 -163.579)"/>
        <path id="Trazado_1179285" data-name="Trazado 1179285" d="M400,224h4.737v2.368H400Z" transform="translate(-340.79 -190.843)"/>
        <path id="Trazado_1179286" data-name="Trazado 1179286" d="M400,256h4.737v2.368H400Z" transform="translate(-340.79 -218.106)"/>
        <path id="Trazado_1179287" data-name="Trazado 1179287" d="M71.052,30.789a4.706,4.706,0,0,0-2.368.637V26.052a2.371,2.371,0,0,0-2.368-2.368H56.841a2.371,2.371,0,0,0-2.368,2.368v1.542a12.527,12.527,0,0,0-5.664-3.888l-1.123-.374,2.422-2.422-1.2-1.2a.444.444,0,0,1,.314-.758h1.7V9.474h-1.7a.444.444,0,0,1-.314-.758l1.2-1.2-6.7-6.7-1.2,1.2a.444.444,0,0,1-.758-.314V0H31.973V1.7a.444.444,0,0,1-.758.314l-1.2-1.2-6.7,6.7,1.2,1.2a.444.444,0,0,1-.314.758H22.5v9.474h1.7a.444.444,0,0,1,.314.758l-1.2,1.2,2.422,2.422-1.123.374a12.52,12.52,0,0,0-6.427,4.909A10.022,10.022,0,0,1,11.842,32.9V29.539a5.951,5.951,0,0,0-.625-2.648L7.105,18.667,2.993,26.891a5.951,5.951,0,0,0-.625,2.648v1.25A2.371,2.371,0,0,0,0,33.157v7.105a2.371,2.371,0,0,0,2.368,2.368v4.737a4.737,4.737,0,0,0,9.474,0V42.631h1.591a17.227,17.227,0,0,0,10.251-3.347V45h-1.3a3.444,3.444,0,0,0-3.44,3.44c0,.114.006.229.017.342l2.154,21.541a3.429,3.429,0,0,0,3.423,3.1H48.879a3.429,3.429,0,0,0,3.423-3.1l2.154-21.541c.011-.114.017-.229.017-.342A3.444,3.444,0,0,0,51.033,45h-1.3V39.277a17.407,17.407,0,0,0,4.737,2.452v.9A2.371,2.371,0,0,0,56.841,45h9.474a2.371,2.371,0,0,0,2.368-2.368v-.637a4.706,4.706,0,0,0,2.368.637,2.371,2.371,0,0,0,2.368-2.368V33.157a2.371,2.371,0,0,0-2.368-2.368ZM24.868,11.763a2.814,2.814,0,0,0,1.738-4.2l3.461-3.461a2.814,2.814,0,0,0,4.2-1.738h4.895a2.814,2.814,0,0,0,4.2,1.738l3.461,3.461a2.814,2.814,0,0,0,1.738,4.2v4.895a2.814,2.814,0,0,0-1.738,4.2l-3.461,3.461a2.815,2.815,0,0,0-4.2,1.738H34.262a2.815,2.815,0,0,0-4.2-1.738l-3.461-3.461a2.814,2.814,0,0,0-1.738-4.2V11.763ZM36.514,34.342h.392L38.844,45H34.576ZM37,31.973h-.582L35.4,28.421h2.612Zm-29.9-8.01L9.1,27.95a3.527,3.527,0,0,1,.193.471H4.919a3.515,3.515,0,0,1,.193-.471ZM2.368,33.157a2.371,2.371,0,0,1,2.368,2.368v2.368a2.371,2.371,0,0,1-2.368,2.368Zm4.737,4.737V35.526a4.739,4.739,0,0,0-2.368-4.1v-.637H9.474V45H4.737V41.994A4.739,4.739,0,0,0,7.105,37.894Zm0,11.842a2.371,2.371,0,0,1-2.368-2.368H9.474A2.371,2.371,0,0,1,7.105,49.736Zm18.11-19.784a5.193,5.193,0,0,0-1.531,3.7v2.56a14.883,14.883,0,0,1-10.251,4.055H11.842v-4.95l.389-.078a12.379,12.379,0,0,0,7.924-5.306,10.138,10.138,0,0,1,5.205-3.976l2.246-.749,2.4,2.4,1.2-1.2a.444.444,0,0,1,.758.314v1.7h.968l1.371,4.8L32.169,45H26.052V33.648a2.84,2.84,0,0,1,.837-2.021Zm23.664,41.1H24.541a1.068,1.068,0,0,1-1.066-.965l-.14-1.4H50.085l-.14,1.4A1.068,1.068,0,0,1,48.879,71.052ZM52.1,48.439c0,.035,0,.071-.005.107L50.322,66.315H23.1L21.321,48.546c0-.036-.005-.071-.005-.107a1.073,1.073,0,0,1,1.072-1.072H51.033A1.073,1.073,0,0,1,52.1,48.439ZM49.736,36.208V33.648a5.193,5.193,0,0,0-1.531-3.7L46.53,31.626a2.84,2.84,0,0,1,.837,2.021V45H41.251L39.109,33.217l1.37-4.8h.968v-1.7A.444.444,0,0,1,42.2,26.4l1.2,1.2,2.4-2.4,2.247.749a10.14,10.14,0,0,1,5.205,3.976,12.478,12.478,0,0,0,1.208,1.532v7.749A15.021,15.021,0,0,1,49.736,36.208Zm16.579,6.423H56.841V26.052h9.474v9.44c0,.011,0,.023,0,.034v2.368c0,.014,0,.029,0,.043v4.694Zm4.737-2.368a2.371,2.371,0,0,1-2.368-2.368V35.526a2.371,2.371,0,0,1,2.368-2.368v7.105Z" transform="translate(0 0)"/>
      </g>
    </g>
  </g>
</svg>
