<svg xmlns="http://www.w3.org/2000/svg" xmlns:xlink="http://www.w3.org/1999/xlink" width="118" height="118" viewBox="0 0 118 118">
  <defs>
    <filter id="Trazado_982547" x="0" y="0" width="118" height="118" filterUnits="userSpaceOnUse">
      <feOffset dy="3" input="SourceAlpha"/>
      <feGaussianBlur stdDeviation="3" result="blur"/>
      <feFlood flood-opacity="0.161"/>
      <feComposite operator="in" in2="blur"/>
      <feComposite in="SourceGraphic"/>
    </filter>
  </defs>
  <g id="Grupo_1223976" data-name="Grupo 1223976" transform="translate(-1213.5 -5763.097)">
    <g id="Grupo_1223784" data-name="Grupo 1223784" transform="translate(0 -3141.948)">
      <g id="Grupo_1223202" data-name="Grupo 1223202" transform="translate(1222.5 8911.045)">
        <g id="Grupo_1211216" data-name="Grupo 1211216" transform="translate(0)">
          <g id="Grupo_1210737" data-name="Grupo 1210737">
            <g id="Grupo_1210537" data-name="Grupo 1210537">
              <g id="Grupo_1164202" data-name="Grupo 1164202">
                <g id="Grupo_1158168" data-name="Grupo 1158168">
                  <g id="Grupo_1152576" data-name="Grupo 1152576">
                    <g id="Grupo_1148633" data-name="Grupo 1148633">
                      <g id="Grupo_1148525" data-name="Grupo 1148525">
                        <g transform="matrix(1, 0, 0, 1, -9, -6)" filter="url(#Trazado_982547)">
                          <g id="Trazado_982547-2" data-name="Trazado 982547" transform="translate(9 6)" fill="#fcf5f0">
                            <path d="M 49.99999618530273 98.5 C 43.45188140869141 98.5 37.10042572021484 97.21786499023438 31.12206840515137 94.68923950195312 C 25.34691047668457 92.24655151367188 20.15996742248535 88.74931335449219 15.70532512664795 84.29468536376953 C 11.25068187713623 79.84004211425781 7.753438949584961 74.65309906005859 5.310753345489502 68.87792205810547 C 2.782124757766724 62.89956665039062 1.499996185302734 56.54811096191406 1.499996185302734 49.99999618530273 C 1.499996185302734 43.45188140869141 2.782124757766724 37.10042572021484 5.310753345489502 31.12206840515137 C 7.753438949584961 25.34691047668457 11.25068187713623 20.15996742248535 15.70532512664795 15.70532512664795 C 20.15996742248535 11.25068187713623 25.34691047668457 7.753438949584961 31.12206840515137 5.310753345489502 C 37.10042572021484 2.782124757766724 43.45188140869141 1.499996185302734 49.99999618530273 1.499996185302734 C 56.54811096191406 1.499996185302734 62.89956665039062 2.782124757766724 68.87792205810547 5.310753345489502 C 74.65309906005859 7.753438949584961 79.84004211425781 11.25068187713623 84.29468536376953 15.70532512664795 C 88.74931335449219 20.15996742248535 92.24655151367188 25.34691047668457 94.68923950195312 31.12206840515137 C 97.21786499023438 37.10042572021484 98.5 43.45188140869141 98.5 49.99999618530273 C 98.5 56.54811096191406 97.21786499023438 62.89956665039062 94.68923950195312 68.87792205810547 C 92.24655151367188 74.65309906005859 88.74931335449219 79.84004211425781 84.29468536376953 84.29468536376953 C 79.84004211425781 88.74931335449219 74.65309906005859 92.24655151367188 68.87792205810547 94.68923950195312 C 62.89956665039062 97.21786499023438 56.54811096191406 98.5 49.99999618530273 98.5 Z" stroke="none"/>
                            <path d="M 49.99999618530273 2.999992370605469 C 43.65372085571289 2.999992370605469 37.49885940551758 4.242256164550781 31.70639801025391 6.6922607421875 C 26.11002349853516 9.059318542480469 21.08335113525391 12.4486083984375 16.76598358154297 16.76598358154297 C 12.4486083984375 21.08335113525391 9.059318542480469 26.11002349853516 6.6922607421875 31.70639801025391 C 4.242256164550781 37.49885940551758 2.999992370605469 43.65372085571289 2.999992370605469 49.99999618530273 C 2.999992370605469 56.34627151489258 4.242256164550781 62.50113296508789 6.6922607421875 68.29359436035156 C 9.059318542480469 73.88996887207031 12.4486083984375 78.91664123535156 16.76598358154297 83.2340087890625 C 21.08335113525391 87.55138397216797 26.11002349853516 90.940673828125 31.70639801025391 93.30773162841797 C 37.49885940551758 95.75773620605469 43.65372085571289 97 49.99999618530273 97 C 56.34627151489258 97 62.50113296508789 95.75773620605469 68.29359436035156 93.30773162841797 C 73.88996887207031 90.940673828125 78.91664123535156 87.55138397216797 83.2340087890625 83.2340087890625 C 87.55138397216797 78.91664123535156 90.940673828125 73.88996887207031 93.30773162841797 68.29359436035156 C 95.75773620605469 62.50113296508789 97 56.34627151489258 97 49.99999618530273 C 97 43.65372085571289 95.75773620605469 37.49885940551758 93.30773162841797 31.70639801025391 C 90.940673828125 26.11002349853516 87.55138397216797 21.08335113525391 83.2340087890625 16.76598358154297 C 78.91664123535156 12.4486083984375 73.88996887207031 9.059318542480469 68.29359436035156 6.6922607421875 C 62.50113296508789 4.242256164550781 56.34627151489258 2.999992370605469 49.99999618530273 2.999992370605469 M 49.99999618530273 -7.62939453125e-06 C 77.61422729492188 -7.62939453125e-06 100 22.38576507568359 100 49.99999618530273 C 100 77.61422729492188 77.61422729492188 100 49.99999618530273 100 C 22.38576507568359 100 -7.62939453125e-06 77.61422729492188 -7.62939453125e-06 49.99999618530273 C -7.62939453125e-06 22.38576507568359 22.38576507568359 -7.62939453125e-06 49.99999618530273 -7.62939453125e-06 Z" stroke="none" fill="#eca675"/>
                          </g>
                        </g>
                      </g>
                    </g>
                  </g>
                </g>
              </g>
            </g>
          </g>
        </g>
      </g>
    </g>
    <g id="property_2139228" transform="translate(1241.579 5787.176)">
      <path id="Trazado_1179288" data-name="Trazado 1179288" d="M96,8h38.651V67.909H96Z" transform="translate(-84.405 -7.034)" fill="#b71e71"/>
      <path id="Trazado_1179289" data-name="Trazado 1179289" d="M134.651,8,96,67.909h38.651Z" transform="translate(-84.405 -7.034)" fill="#931d5b"/>
      <path id="Trazado_1179290" data-name="Trazado 1179290" d="M18.629,203.865a2.9,2.9,0,0,1-2.9,2.9h-5.8a1.933,1.933,0,0,1,0-3.865,2.9,2.9,0,0,1,2.9-2.9,2.862,2.862,0,0,1,2.222,1.044,3.156,3.156,0,0,1,.676-.077A2.9,2.9,0,0,1,18.629,203.865Z" transform="translate(-7.034 -175.843)" fill="#efeeef"/>
      <path id="Trazado_1179291" data-name="Trazado 1179291" d="M18.629,211.8a2.9,2.9,0,0,1-2.9,2.9h-5.8A1.938,1.938,0,0,1,8,212.771h5.8a2.9,2.9,0,0,0,2.774-3.741,2.893,2.893,0,0,1,2.057,2.774Z" transform="translate(-7.034 -183.782)" fill="#c4d4de"/>
      <path id="Trazado_1179292" data-name="Trazado 1179292" d="M426.629,99.865A1.938,1.938,0,0,1,424.7,101.8h-6.764a1.933,1.933,0,0,1,0-3.865,1.842,1.842,0,0,1,1.044.309,1.639,1.639,0,0,1,.1-.309,2.885,2.885,0,0,1,5.45.01,1.049,1.049,0,0,1,.174-.01,1.938,1.938,0,0,1,1.933,1.933Z" transform="translate(-365.754 -84.405)" fill="#efeeef"/>
      <path id="Trazado_1179293" data-name="Trazado 1179293" d="M426.629,113.933a1.938,1.938,0,0,1-1.933,1.933h-6.764A1.938,1.938,0,0,1,416,113.933h6.764A1.938,1.938,0,0,0,424.7,112,1.938,1.938,0,0,1,426.629,113.933Z" transform="translate(-365.754 -98.472)" fill="#c4d4de"/>
      <path id="Trazado_1179294" data-name="Trazado 1179294" d="M171.6,365.8v11.6H160V365.8l5.8-5.8,3.653,3.653Z" transform="translate(-140.675 -316.518)" fill="#efeeef"/>
      <path id="Trazado_1179295" data-name="Trazado 1179295" d="M225.393,365.8H213.8l-2.145-2.145L208,360h11.6Z" transform="translate(-182.877 -316.518)" fill="#e22526"/>
      <path id="Trazado_1179296" data-name="Trazado 1179296" d="M256,408h11.6v11.6H256Z" transform="translate(-225.079 -358.72)" fill="#c4d4de"/>
      <path id="Trazado_1179297" data-name="Trazado 1179297" d="M289.932,440h0A1.933,1.933,0,0,0,288,441.933v1.933h3.865v-1.933A1.933,1.933,0,0,0,289.932,440Z" transform="translate(-253.214 -386.855)" fill="#00a8e7"/>
      <path id="Trazado_1179298" data-name="Trazado 1179298" d="M298.9,441.933v1.933h-1.933v-1.933a1.932,1.932,0,0,0-.966-1.674,1.933,1.933,0,0,1,2.9,1.674Z" transform="translate(-260.248 -386.855)" fill="#efeeef"/>
      <path id="Trazado_1179299" data-name="Trazado 1179299" d="M184,152h17.393v3.865H184Z" transform="translate(-161.776 -133.641)" fill="#ffec00"/>
      <path id="Trazado_1179300" data-name="Trazado 1179300" d="M184,123.865h.966c3.865,0,5.8-2.681,5.8-3.865h3.865c0,1.184,1.933,3.865,5.8,3.865H184Z" transform="translate(-161.776 -105.506)" fill="#fcc200"/>
      <path id="Trazado_1179301" data-name="Trazado 1179301" d="M242.629,123.865H232l.149-.05A4.022,4.022,0,0,0,234.9,120h1.933a3.669,3.669,0,0,0,1.449,2.377A6.615,6.615,0,0,0,242.629,123.865Z" transform="translate(-203.978 -105.506)" fill="#f98800"/>
      <path id="Trazado_1179302" data-name="Trazado 1179302" d="M192,419.6h3.865v-9.663A1.933,1.933,0,0,0,193.933,408h0A1.933,1.933,0,0,0,192,409.933Z" transform="translate(-168.809 -358.72)" fill="#00a8e7"/>
      <path id="Trazado_1179303" data-name="Trazado 1179303" d="M194.9,408.258a1.954,1.954,0,0,0-.4.307,1.931,1.931,0,0,0-.565,1.367V419.6H192v-9.663a1.933,1.933,0,0,1,2.9-1.674Z" transform="translate(-168.809 -358.72)" fill="#c4d4de"/>
      <path id="Trazado_1179304" data-name="Trazado 1179304" d="M26.359,320.127v15.064H8l2.9-2.9V320.127a3.3,3.3,0,0,1,3.295-3.295H15.73L13.8,312H23.46l-1.933,4.831h1.536a3.3,3.3,0,0,1,3.295,3.295Z" transform="translate(-7.034 -274.315)" fill="#fbe2bc"/>
      <path id="Trazado_1179305" data-name="Trazado 1179305" d="M26.359,355.48v15.064H8l2.9-2.9h2.9a9.663,9.663,0,0,0,9.663-9.663V352.21a3.3,3.3,0,0,1,2.9,3.27Z" transform="translate(-7.034 -309.668)" fill="#f9ce95"/>
      <ellipse id="Elipse_14737" data-name="Elipse 14737" cx="6.425" cy="6.827" rx="6.425" ry="6.827" transform="translate(43.771 39.755)" fill="#ffec00"/>
      <path id="Trazado_1179306" data-name="Trazado 1179306" d="M226.359,218.9,213.8,231.46l-5.8-5.8,2.9-2.9,2.9,2.9L223.46,216Z" transform="translate(-182.877 -189.911)" fill="#e22526"/>
      <path id="Trazado_1179307" data-name="Trazado 1179307" d="M189.258,226.629a10.585,10.585,0,0,1-3.614,7.981l-1.218-1.218h-11.6l-1.218,1.218a10.626,10.626,0,1,1,14.03-15.963l-7.015,7.015-2.9-2.9-2.9,2.9,5.8,5.8,9.537-9.537A10.663,10.663,0,0,1,189.258,226.629Z" transform="translate(-147.708 -189.911)" fill="#ffec00"/>
      <path id="Trazado_1179308" data-name="Trazado 1179308" d="M311.418,235.931c-.066-.146-.135-.29-.208-.431.117.094.233.192.347.292Z" transform="translate(-273.62 -207.055)" fill="#fcc200"/>
      <path id="Trazado_1179309" data-name="Trazado 1179309" d="M189.3,269.746a10.585,10.585,0,0,1-3.614,7.981l-1.218-1.217h-11.6l-1.218,1.217a10.583,10.583,0,0,1-3.608-7.618,9.665,9.665,0,0,0,18.3-3.209l1.86-1.86a10.664,10.664,0,0,1,1.092,4.706Z" transform="translate(-147.752 -233.027)" fill="#fcc200"/>
      <path id="Trazado_1179310" data-name="Trazado 1179310" d="M352,440h15.46v3.865H352Z" transform="translate(-309.484 -386.855)" fill="#ffec00"/>
      <path id="Trazado_1179311" data-name="Trazado 1179311" d="M376,472h15.46v3.865H376Z" transform="translate(-330.585 -414.99)" fill="#ffec00"/>
      <path id="Trazado_1179312" data-name="Trazado 1179312" d="M74.416,394.9h2.416a.966.966,0,0,0,0-1.933h-.966a.966.966,0,1,0-1.933,0v.049a2.416,2.416,0,0,0,.483,4.783h.966a.483.483,0,1,1,0,.966H72.966a.966.966,0,0,0,0,1.933h.966a.966.966,0,1,0,1.933,0v-.049a2.416,2.416,0,0,0-.483-4.783h-.966a.483.483,0,1,1,0-.966Z" transform="translate(-63.304 -344.652)" fill="#387f29"/>
      <ellipse id="Elipse_14738" data-name="Elipse 14738" cx="0.803" cy="1.205" rx="0.803" ry="1.205" transform="translate(6.023 50.999)" fill="#387f29"/>
      <ellipse id="Elipse_14739" data-name="Elipse 14739" cx="0.803" cy="1.205" rx="0.803" ry="1.205" transform="translate(15.661 50.999)" fill="#387f29"/>
      <g id="Grupo_1223975" data-name="Grupo 1223975" transform="translate(22.224 18.359)">
        <path id="Trazado_1179313" data-name="Trazado 1179313" d="M365.528,440h0a1.933,1.933,0,0,1-1.933,1.933H352v1.933h15.46V440Z" transform="translate(-331.708 -405.214)" fill="#fcc200"/>
        <path id="Trazado_1179314" data-name="Trazado 1179314" d="M389.528,472h0a1.933,1.933,0,0,1-1.933,1.933H376v1.933h15.46V472Z" transform="translate(-352.809 -433.349)" fill="#fcc200"/>
        <path id="Trazado_1179315" data-name="Trazado 1179315" d="M199.46,152h0a1.933,1.933,0,0,1-1.933,1.933H184v1.933h17.393V152Z" transform="translate(-184 -152)" fill="#fcc200"/>
        <circle id="Elipse_14740" data-name="Elipse 14740" cx="4.819" cy="4.819" r="4.819" transform="translate(23.153 23.002)" fill="#fcc200"/>
      </g>
      <path id="Trazado_1179316" data-name="Trazado 1179316" d="M395.382,347.865h-.966a.483.483,0,0,1,0-.966h2.416a.966.966,0,0,0,0-1.933h-.966a.966.966,0,0,0-1.933,0v.049a2.416,2.416,0,0,0,.483,4.783h.966a.483.483,0,1,1,0,.966h-2.416a.966.966,0,0,0,0,1.933h.966a.966.966,0,0,0,1.933,0v-.049a2.416,2.416,0,0,0-.483-4.783Z" transform="translate(-344.652 -302.45)" fill="#ffec00"/>
      <path id="Trazado_1179317" data-name="Trazado 1179317" d="M241.933,8h0A1.933,1.933,0,0,0,240,9.933v1.933h2.9V13.8h.966V9.933A1.933,1.933,0,0,0,241.932,8Z" transform="translate(-211.012 -7.034)" fill="#fcc200"/>
      <path id="Trazado_1179318" data-name="Trazado 1179318" d="M257.933,13.8H256V8h0a1.933,1.933,0,0,1,1.933,1.933Z" transform="translate(-225.079 -7.034)" fill="#f98800"/>
      <path id="Trazado_1179319" data-name="Trazado 1179319" d="M239.73,56v7.73H232V59.865h3.865V56Z" transform="translate(-203.978 -49.236)" fill="#fac8b2"/>
      <path id="Trazado_1179320" data-name="Trazado 1179320" d="M186.629,40v5.8h-3.865v3.865H176v-7.73h1.933L179.865,40Z" transform="translate(-154.742 -35.169)" fill="#fac8b2"/>
      <path id="Trazado_1179321" data-name="Trazado 1179321" d="M144,56h3.865v7.73H144Z" transform="translate(-126.607 -49.236)" fill="#efeeef"/>
      <path id="Trazado_1179322" data-name="Trazado 1179322" d="M80,56h7.73v7.73H80Z" transform="translate(-70.337 -49.236)" fill="#00587e"/>
      <path id="Trazado_1179323" data-name="Trazado 1179323" d="M214.764,56v3.865h-2.9v-2.9h-1.933v2.9H208V61.8h1.933V63.73h1.933V61.8H216.7V56Z" transform="translate(-182.877 -49.236)" fill="#eaaa94"/>
      <path id="Trazado_1179324" data-name="Trazado 1179324" d="M93.8,312,88,316.831h3.865Z" transform="translate(-77.371 -274.315)" fill="#f9ce95"/>
      <path id="Trazado_1179325" data-name="Trazado 1179325" d="M76.881,347.907a.956.956,0,0,1-.678-.281l-1.254-1.254-1.254,1.254a.959.959,0,0,1-1.357-1.357l1.933-1.933a.959.959,0,0,1,1.357,0l1.933,1.933a.959.959,0,0,1-.678,1.638Z" transform="translate(-63.353 -302.499)" fill="#683b11"/>
      <path id="Trazado_1179326" data-name="Trazado 1179326" d="M70.814,345.975h-5.8a.959.959,0,0,1,0-1.919h5.8a.959.959,0,1,1,0,1.919Z" transform="translate(-56.32 -302.5)" fill="#914d1a"/>
      <path id="Trazado_1179327" data-name="Trazado 1179327" d="M226.359,218.9l-2.9-2.9L213.8,228.562l-5.8-2.9,5.8,5.8Z" transform="translate(-182.877 -189.911)" fill="#be202e"/>
      <path id="Trazado_1179328" data-name="Trazado 1179328" d="M232,272l2.9,5.8v-2.9Z" transform="translate(-203.978 -239.147)" fill="#f0615f"/>
      <path id="Trazado_1179329" data-name="Trazado 1179329" d="M282.9,432a2.9,2.9,0,0,0-2.9,2.9v1.933a.966.966,0,0,0,.966.966h3.865a.966.966,0,0,0,.966-.966V434.9A2.9,2.9,0,0,0,282.9,432Zm.966,3.865h-1.933V434.9a.966.966,0,1,1,1.933,0Z" transform="translate(-246.18 -379.821)"/>
      <path id="Trazado_1179330" data-name="Trazado 1179330" d="M393.933,344.966v.049a2.416,2.416,0,0,0,.483,4.783h.966a.483.483,0,1,1,0,.966h-2.416a.966.966,0,0,0,0,1.933h.966a.966.966,0,0,0,1.933,0v-.049a2.416,2.416,0,0,0-.483-4.783h-.966a.483.483,0,0,1,0-.966h2.416a.966.966,0,0,0,0-1.933h-.966a.966.966,0,0,0-1.933,0Z" transform="translate(-344.652 -302.45)"/>
      <path id="Trazado_1179331" data-name="Trazado 1179331" d="M60.875,56.044H58.943v-2.9a.966.966,0,0,0-.966-.966H55.351a7.723,7.723,0,0,0-4.139-13.465V18.193a2.885,2.885,0,0,0,.966.166h6.764A2.9,2.9,0,0,0,59.4,12.6a3.856,3.856,0,0,0-6.728,0,2.964,2.964,0,0,0-.5-.042,2.884,2.884,0,0,0-.966.166V.966A.966.966,0,0,0,50.246,0H11.6a.966.966,0,0,0-.966.966V5.8H8.7a.966.966,0,0,0-.966.966v7.73a.966.966,0,0,0,.966.966h1.933v9.216a3.84,3.84,0,0,0-1.933-.52c-.108,0-.217,0-.326.014a3.829,3.829,0,0,0-2.572-.98,3.872,3.872,0,0,0-3.775,3.034A2.9,2.9,0,0,0,2.9,31.887H8.7a3.84,3.84,0,0,0,1.933-.52v5.351H6.764a.966.966,0,0,0-.9,1.325l1.4,3.506H7.16A4.265,4.265,0,0,0,2.9,45.811V57.576L.283,60.192a.966.966,0,0,0,.683,1.65H60.875a.966.966,0,0,0,.966-.966V57.01a.966.966,0,0,0-.966-.966Zm-4.831-9.663a5.8,5.8,0,1,1-5.8-5.8A5.8,5.8,0,0,1,56.044,46.381ZM24.44,42.8l-.547.547A9.659,9.659,0,0,1,36.484,28.822l-5.563,5.563L28.705,32.17a.966.966,0,0,0-1.367,0l-2.9,2.9a.966.966,0,0,0,0,1.367l5.8,5.8a.966.966,0,0,0,1.367,0l8.508-8.508a9.678,9.678,0,0,1-2.164,9.621L37.4,42.8a.966.966,0,0,0-.683-.283h-11.6a.964.964,0,0,0-.683.283Zm6.481-2.616L26.49,35.752l1.532-1.532,2.216,2.216a.966.966,0,0,0,1.367,0l8.979-8.98,1.532,1.532Zm5.4,4.265,3.865,3.865H31.321l-3.865-3.865Zm-4.431,5.8H41.55v9.663H31.887Zm11.6,7.73h.966v1.933h-.966Zm0-7.858a7.781,7.781,0,0,0,1.659,2.061H43.482Zm8.7-35.624a.877.877,0,0,1,.5.143.966.966,0,0,0,1.493-.627.876.876,0,0,1,.043-.124q.009-.023.017-.046a1.919,1.919,0,0,1,3.621.01.966.966,0,0,0,1.05.644h.038a.966.966,0,1,1,0,1.933H52.179a.966.966,0,1,1,0-1.933ZM9.663,7.73h7.73v5.8H9.663ZM8.7,29.955H2.9a.966.966,0,1,1,0-1.933.966.966,0,0,0,.966-.966A1.935,1.935,0,0,1,5.8,25.123a1.893,1.893,0,0,1,1.474.689.967.967,0,0,0,.953.332,2.179,2.179,0,0,1,.471-.055,1.933,1.933,0,1,1,0,3.865ZM12.562,15.46h15a4.26,4.26,0,0,1-.643.673,5.613,5.613,0,0,1-3.724,1.26h-.966a.966.966,0,0,0-.966.966v3.865a.966.966,0,0,0,.966.966H39.617a.966.966,0,0,0,.966-.966V18.359a.966.966,0,0,0-.966-.966h-.966a5.613,5.613,0,0,1-3.724-1.26,4.261,4.261,0,0,1-.643-.673h1.468a.966.966,0,0,0,.966-.966V6.764a.966.966,0,0,0-.966-.966h-2.9V4.831a.966.966,0,0,0-.966-.966h-5.8a.966.966,0,0,0-.683.283L23.757,5.8h-11.2V1.933H49.28V38.714a7.722,7.722,0,0,0-6.566,9.4l-3.4-3.4a11.607,11.607,0,0,0,2.3-12.49l2.552-2.552a.966.966,0,0,0,0-1.366l-2.9-2.9a.966.966,0,0,0-1.367,0l-2.033,2.033A11.591,11.591,0,0,0,22.526,44.713l-2.234,2.234V45.811A4.265,4.265,0,0,0,16.03,41.55h-.109l1.4-3.506a.966.966,0,0,0-.9-1.325H12.562Zm6.764-7.73h1.933v5.8H19.326Zm13.528,2.9V7.73h1.933v5.8h-5.8V11.6h2.9A.966.966,0,0,0,32.853,10.629Zm.588,6.764H28.4a5.374,5.374,0,0,0,1.351-1.933H32.09A5.375,5.375,0,0,0,33.441,17.393Zm-10.25,1.933h15.46v1.933H23.191Zm0-7.73h2.9a.966.966,0,0,0,.683-.283l.283-.283v2.5H23.191Zm7.73-1.933H28.988V8.7a.966.966,0,0,0-1.65-.683l-1.649,1.65h-2.5V7.73h.966a.966.966,0,0,0,.683-.283L26.49,5.8h4.431ZM15,38.651l-1.16,2.9H9.351l-1.16-2.9ZM4.548,58.66a.966.966,0,0,0,.283-.683V45.811A2.333,2.333,0,0,1,7.16,43.483h2.1l-.283.283a.966.966,0,0,0,1.367,1.366L11.6,43.883l1.249,1.249a.966.966,0,0,0,1.367-1.366l-.283-.283h2.1a2.333,2.333,0,0,1,2.329,2.329v14.1H3.3Zm19.609,1.249v-8.7a.966.966,0,1,1,1.933,0v8.7Zm3.865,0v-8.7a2.9,2.9,0,1,0-5.8,0v8.7H20.292V49.68l4.831-4.831,4.831,4.831V59.909Zm15.46-3.865V54.112H57.01v1.933H43.483Zm16.427,3.865H46.381V57.977H59.909Z"/>
      <path id="Trazado_1179332" data-name="Trazado 1179332" d="M74.416,394.9h2.416a.966.966,0,0,0,0-1.933h-.966a.966.966,0,1,0-1.933,0v.049a2.416,2.416,0,0,0,.483,4.783h.966a.483.483,0,1,1,0,.966H72.966a.966.966,0,0,0,0,1.933h.966a.966.966,0,1,0,1.933,0v-.049a2.416,2.416,0,0,0-.483-4.783h-.966a.483.483,0,1,1,0-.966Z" transform="translate(-63.304 -344.652)"/>
      <ellipse id="Elipse_14741" data-name="Elipse 14741" cx="0.803" cy="1.205" rx="0.803" ry="1.205" transform="translate(6.023 50.999)"/>
      <ellipse id="Elipse_14742" data-name="Elipse 14742" cx="0.803" cy="1.205" rx="0.803" ry="1.205" transform="translate(15.661 50.999)"/>
    </g>
  </g>
</svg>
