<svg xmlns="http://www.w3.org/2000/svg" xmlns:xlink="http://www.w3.org/1999/xlink" width="118" height="118" viewBox="0 0 118 118">
  <defs>
    <filter id="Trazado_982547" x="0" y="0" width="118" height="118" filterUnits="userSpaceOnUse">
      <feOffset dy="3" input="SourceAlpha"/>
      <feGaussianBlur stdDeviation="3" result="blur"/>
      <feFlood flood-opacity="0.161"/>
      <feComposite operator="in" in2="blur"/>
      <feComposite in="SourceGraphic"/>
    </filter>
  </defs>
  <g id="Grupo_1223866" data-name="Grupo 1223866" transform="translate(-268.5 -2554.632)">
    <g id="Grupo_1223753" data-name="Grupo 1223753" transform="translate(0 -6350.413)">
      <g id="Grupo_1223199" data-name="Grupo 1223199" transform="translate(277.5 8911.045)">
        <g id="Grupo_1211216" data-name="Grupo 1211216" transform="translate(0)">
          <g id="Grupo_1210737" data-name="Grupo 1210737">
            <g id="Grupo_1210537" data-name="Grupo 1210537">
              <g id="Grupo_1164202" data-name="Grupo 1164202">
                <g id="Grupo_1158168" data-name="Grupo 1158168">
                  <g id="Grupo_1152576" data-name="Grupo 1152576">
                    <g id="Grupo_1148633" data-name="Grupo 1148633">
                      <g id="Grupo_1148525" data-name="Grupo 1148525">
                        <g transform="matrix(1, 0, 0, 1, -9, -6)" filter="url(#Trazado_982547)">
                          <g id="Trazado_982547-2" data-name="Trazado 982547" transform="translate(9 6)" fill="#fcf5f0">
                            <path d="M 49.99999618530273 98.5 C 43.45188140869141 98.5 37.10042572021484 97.21786499023438 31.12206840515137 94.68923950195312 C 25.34691047668457 92.24655151367188 20.15996742248535 88.74931335449219 15.70532512664795 84.29468536376953 C 11.25068187713623 79.84004211425781 7.753438949584961 74.65309906005859 5.310753345489502 68.87792205810547 C 2.782124757766724 62.89956665039062 1.499996185302734 56.54811096191406 1.499996185302734 49.99999618530273 C 1.499996185302734 43.45188140869141 2.782124757766724 37.10042572021484 5.310753345489502 31.12206840515137 C 7.753438949584961 25.34691047668457 11.25068187713623 20.15996742248535 15.70532512664795 15.70532512664795 C 20.15996742248535 11.25068187713623 25.34691047668457 7.753438949584961 31.12206840515137 5.310753345489502 C 37.10042572021484 2.782124757766724 43.45188140869141 1.499996185302734 49.99999618530273 1.499996185302734 C 56.54811096191406 1.499996185302734 62.89956665039062 2.782124757766724 68.87792205810547 5.310753345489502 C 74.65309906005859 7.753438949584961 79.84004211425781 11.25068187713623 84.29468536376953 15.70532512664795 C 88.74931335449219 20.15996742248535 92.24655151367188 25.34691047668457 94.68923950195312 31.12206840515137 C 97.21786499023438 37.10042572021484 98.5 43.45188140869141 98.5 49.99999618530273 C 98.5 56.54811096191406 97.21786499023438 62.89956665039062 94.68923950195312 68.87792205810547 C 92.24655151367188 74.65309906005859 88.74931335449219 79.84004211425781 84.29468536376953 84.29468536376953 C 79.84004211425781 88.74931335449219 74.65309906005859 92.24655151367188 68.87792205810547 94.68923950195312 C 62.89956665039062 97.21786499023438 56.54811096191406 98.5 49.99999618530273 98.5 Z" stroke="none"/>
                            <path d="M 49.99999618530273 2.999992370605469 C 43.65372085571289 2.999992370605469 37.49885940551758 4.242256164550781 31.70639801025391 6.6922607421875 C 26.11002349853516 9.059318542480469 21.08335113525391 12.4486083984375 16.76598358154297 16.76598358154297 C 12.4486083984375 21.08335113525391 9.059318542480469 26.11002349853516 6.6922607421875 31.70639801025391 C 4.242256164550781 37.49885940551758 2.999992370605469 43.65372085571289 2.999992370605469 49.99999618530273 C 2.999992370605469 56.34627151489258 4.242256164550781 62.50113296508789 6.6922607421875 68.29359436035156 C 9.059318542480469 73.88996887207031 12.4486083984375 78.91664123535156 16.76598358154297 83.2340087890625 C 21.08335113525391 87.55138397216797 26.11002349853516 90.940673828125 31.70639801025391 93.30773162841797 C 37.49885940551758 95.75773620605469 43.65372085571289 97 49.99999618530273 97 C 56.34627151489258 97 62.50113296508789 95.75773620605469 68.29359436035156 93.30773162841797 C 73.88996887207031 90.940673828125 78.91664123535156 87.55138397216797 83.2340087890625 83.2340087890625 C 87.55138397216797 78.91664123535156 90.940673828125 73.88996887207031 93.30773162841797 68.29359436035156 C 95.75773620605469 62.50113296508789 97 56.34627151489258 97 49.99999618530273 C 97 43.65372085571289 95.75773620605469 37.49885940551758 93.30773162841797 31.70639801025391 C 90.940673828125 26.11002349853516 87.55138397216797 21.08335113525391 83.2340087890625 16.76598358154297 C 78.91664123535156 12.4486083984375 73.88996887207031 9.059318542480469 68.29359436035156 6.6922607421875 C 62.50113296508789 4.242256164550781 56.34627151489258 2.999992370605469 49.99999618530273 2.999992370605469 M 49.99999618530273 -7.62939453125e-06 C 77.61422729492188 -7.62939453125e-06 100 22.38576507568359 100 49.99999618530273 C 100 77.61422729492188 77.61422729492188 100 49.99999618530273 100 C 22.38576507568359 100 -7.62939453125e-06 77.61422729492188 -7.62939453125e-06 49.99999618530273 C -7.62939453125e-06 22.38576507568359 22.38576507568359 -7.62939453125e-06 49.99999618530273 -7.62939453125e-06 Z" stroke="none" fill="#eca675"/>
                          </g>
                        </g>
                      </g>
                    </g>
                  </g>
                </g>
              </g>
            </g>
          </g>
        </g>
      </g>
    </g>
    <g id="attitude_3201250" transform="translate(295.5 2578.425)">
      <g id="Grupo_1223864" data-name="Grupo 1223864">
        <g id="Grupo_1223853" data-name="Grupo 1223853">
          <path id="Trazado_1179151" data-name="Trazado 1179151" d="M24,48h6v3A10.994,10.994,0,0,1,19,62,13,13,0,0,1,6,49V43.71A10.855,10.855,0,0,1,12,34l1,4,5,3-2,2Z" fill="#b4dd7f"/>
        </g>
        <g id="Grupo_1223854" data-name="Grupo 1223854">
          <path id="Trazado_1179152" data-name="Trazado 1179152" d="M22,43.17A6.835,6.835,0,0,0,24,48l-8-5,2-2-5-3-1-4a16.218,16.218,0,0,1,7.99,3.51,15.641,15.641,0,0,1,2.79,2.9v.01A2,2,0,0,0,22,42Z" fill="#a0d468"/>
        </g>
        <g id="Grupo_1223855" data-name="Grupo 1223855">
          <path id="Trazado_1179153" data-name="Trazado 1179153" d="M20,10H18a6.009,6.009,0,0,0-6,6H11a3,3,0,0,0,0,6h1v8l-1.87-.47a3.987,3.987,0,0,1-2.82-2.61L7,26a4.388,4.388,0,0,1-3-4.16V21l-.77-.77a4.21,4.21,0,0,1,.65-6.48L5,13l-.58-1.17A3.866,3.866,0,0,1,4,10.07,3.926,3.926,0,0,1,6.98,6.26L8,6a5.283,5.283,0,0,1,5.12-4h.02a5.262,5.262,0,0,1,1.67.27L17,3l.9-.45a5.186,5.186,0,0,1,6.64,1.76L25,5l1.45.36A3.371,3.371,0,0,1,26,11.98c-.12.01-.24.02-.37.02H22a2.015,2.015,0,0,1-2-2Z" fill="#656d78"/>
        </g>
        <g id="Grupo_1223856" data-name="Grupo 1223856">
          <path id="Trazado_1179154" data-name="Trazado 1179154" d="M61,10l.1-.1A3.066,3.066,0,0,0,62,7.73a3.139,3.139,0,0,0-.32-1.38A2.447,2.447,0,0,0,59.49,5a3.287,3.287,0,0,0-.54.05A3.287,3.287,0,0,0,59,4.51a2.447,2.447,0,0,0-1.35-2.19A3.139,3.139,0,0,0,56.27,2a3.066,3.066,0,0,0-2.17.9L54,3l-.1-.1A3.066,3.066,0,0,0,51.73,2a3.139,3.139,0,0,0-1.38.32A2.447,2.447,0,0,0,49,4.51a3.072,3.072,0,0,0,.05.53h-.02A4.382,4.382,0,0,0,48.51,5a2.447,2.447,0,0,0-2.19,1.35A3.139,3.139,0,0,0,46,7.73a3.066,3.066,0,0,0,.9,2.17l.1.1-.1.1a3.066,3.066,0,0,0-.9,2.17,3.139,3.139,0,0,0,.32,1.38A2.447,2.447,0,0,0,48.51,15a3.287,3.287,0,0,0,.54-.05,3.287,3.287,0,0,0-.05.54,2.447,2.447,0,0,0,1.35,2.19,3.139,3.139,0,0,0,1.38.32,3.066,3.066,0,0,0,2.17-.9L54,17l.1.1a3.066,3.066,0,0,0,2.17.9,3.139,3.139,0,0,0,1.38-.32A2.447,2.447,0,0,0,59,15.49a3.287,3.287,0,0,0-.05-.54,3.287,3.287,0,0,0,.54.05,2.447,2.447,0,0,0,2.19-1.35A3.139,3.139,0,0,0,62,12.27a3.066,3.066,0,0,0-.9-2.17Z" fill="#ff826e"/>
        </g>
        <g id="Grupo_1223857" data-name="Grupo 1223857">
          <path id="Trazado_1179155" data-name="Trazado 1179155" d="M55.25,8.44A1.993,1.993,0,0,1,56,10a2.021,2.021,0,0,1-.44,1.25A1.993,1.993,0,0,1,54,12a1.962,1.962,0,0,1-1.25-.44A1.993,1.993,0,0,1,52,10a1.962,1.962,0,0,1,.44-1.25A1.993,1.993,0,0,1,54,8,1.962,1.962,0,0,1,55.25,8.44Z" fill="#fc6e51"/>
        </g>
        <g id="Grupo_1223858" data-name="Grupo 1223858">
          <path id="Trazado_1179156" data-name="Trazado 1179156" d="M24,40V38a2.015,2.015,0,0,1,2-2,4,4,0,0,1,4,4v8H24a6.835,6.835,0,0,1-2-4.83V42a2,2,0,0,1,.78-1.58A1.94,1.94,0,0,1,24,40Z" fill="#f0d0b4"/>
        </g>
        <g id="Grupo_1223859" data-name="Grupo 1223859">
          <path id="Trazado_1179157" data-name="Trazado 1179157" d="M27.64,17.45A9.715,9.715,0,0,1,26,12.05v-.07c-.12.01-.24.02-.37.02H22a2.015,2.015,0,0,1-2-2H18a6.009,6.009,0,0,0-6,6H11a3,3,0,0,0,0,6h1V34a16.218,16.218,0,0,1,7.99,3.51L20,37.5V30h2a4,4,0,0,0,4-4V21.62a1,1,0,0,1,.55-.9l.25-.12A2.165,2.165,0,0,0,28,18.66a2.255,2.255,0,0,0-.36-1.21Z" fill="#f0d0b4"/>
        </g>
        <g id="Grupo_1223860" data-name="Grupo 1223860">
          <path id="Trazado_1179158" data-name="Trazado 1179158" d="M57,38v1a3,3,0,0,1-6,0V38Z" fill="#aab2bd"/>
        </g>
        <g id="Grupo_1223861" data-name="Grupo 1223861">
          <path id="Trazado_1179159" data-name="Trazado 1179159" d="M54,24a6,6,0,0,1,6,6c0,4-3,5-3,8H51c0-2.43-1.96-3.55-2.71-6A6.692,6.692,0,0,1,48,30,6,6,0,0,1,54,24Z" fill="#ffeaa7"/>
        </g>
        <g id="Grupo_1223862" data-name="Grupo 1223862">
          <path id="Trazado_1179160" data-name="Trazado 1179160" d="M61.06,51.06A3.218,3.218,0,0,1,62,53.33a4.043,4.043,0,0,1-1.18,2.85L55,62l-5.82-5.82A4.057,4.057,0,0,1,48.06,54a3.71,3.71,0,0,1-.06-.67,3.218,3.218,0,0,1,.94-2.27,3.621,3.621,0,0,1,5.12,0L55,52l.94-.94a3.621,3.621,0,0,1,5.12,0Z" fill="#ff826e"/>
        </g>
        <g id="Grupo_1223863" data-name="Grupo 1223863">
          <path id="Trazado_1179161" data-name="Trazado 1179161" d="M26,22v4H24a4,4,0,0,1-4-4Z" fill="#ff826e"/>
        </g>
      </g>
      <g id="Grupo_1223865" data-name="Grupo 1223865">
        <path id="Trazado_1179162" data-name="Trazado 1179162" d="M26,35a3,3,0,0,0-3,3v1.109a17.393,17.393,0,0,0-2-2.059V31h1a5.006,5.006,0,0,0,5-5V21.618l.246-.123a3.172,3.172,0,0,0,1.221-4.6,8.7,8.7,0,0,1-1.417-4.155,4.356,4.356,0,0,0-.36-8.351l-1.073-.268-.246-.369a6.186,6.186,0,0,0-7.914-2.1l-.534.267-1.794-.6A6.305,6.305,0,0,0,7.208,5.167l-.471.118a4.934,4.934,0,0,0-3.216,6.993l.19.379-.39.26a5.213,5.213,0,0,0-.794,8.024L3,21.414v.424a5.378,5.378,0,0,0,3.2,4.923l.157.472A4.979,4.979,0,0,0,9.888,30.5L11,30.781v2.625a11.779,11.779,0,0,0-6,10.3V49A14.015,14.015,0,0,0,19,63,12.013,12.013,0,0,0,31,51V40a5.006,5.006,0,0,0-5-5Zm0,2a3,3,0,0,1,3,3v7H24.441A5.786,5.786,0,0,1,23,43.171V42a1,1,0,0,1,2,0v1h2V42a3,3,0,0,0-2-2.816V38A1,1,0,0,1,26,37Zm-4.527,3.4A2.973,2.973,0,0,0,21,42v1.171a7.847,7.847,0,0,0,.248,1.929L17.6,42.818,19.613,40.8,13.87,37.355l-.519-2.078a15.166,15.166,0,0,1,8.122,5.12ZM24,25a3.006,3.006,0,0,1-2.829-2H25v2Zm2.352-5.294-.246.123a1.983,1.983,0,0,0-1,1.171H19v1a5.006,5.006,0,0,0,5,5h.816A3,3,0,0,1,22,29H18.243a1.989,1.989,0,0,1-1.415-.586l-1.121-1.121-1.414,1.414,1.121,1.121A3.972,3.972,0,0,0,18.243,31H19v4.561a17.158,17.158,0,0,0-6-2.385V21H11a2,2,0,0,1,0-4h2V16a5.006,5.006,0,0,1,5-5h1.184A3,3,0,0,0,22,13h3.046A10.686,10.686,0,0,0,26.8,18.007a1.172,1.172,0,0,1-.451,1.7ZM10.373,28.563A2.988,2.988,0,0,1,8.254,26.6L7.79,25.21l-.474-.158A3.385,3.385,0,0,1,5,21.838V20.586L3.941,19.527a3.214,3.214,0,0,1,.49-4.946l1.858-1.238-.979-1.96A2.933,2.933,0,0,1,7.222,7.225l1.6-.4.145-.582A4.3,4.3,0,0,1,14.5,3.22l2.58.86,1.275-.638a4.186,4.186,0,0,1,5.355,1.422l.675,1.012,1.823.456A2.369,2.369,0,0,1,25.631,11H22a1,1,0,0,1,0-2h1V7H22a3,3,0,0,0-2.816,2H18a7.011,7.011,0,0,0-6.929,6H11a4,4,0,1,0,0,8v5.719ZM19,61A12.013,12.013,0,0,1,7,49V43.708a9.786,9.786,0,0,1,4.354-8.169l.776,3.1L16.387,41.2,14.4,43.181,23,48.554V49a4,4,0,0,1-4,4,3.911,3.911,0,0,1-4-3.484v-1.49A6.086,6.086,0,0,0,12.6,43.2L11.4,44.8A4.076,4.076,0,0,1,13,48.026v1.49C13,52.438,15.8,55,19,55a6.006,6.006,0,0,0,6-6h4v2A10.011,10.011,0,0,1,19,61Z"/>
        <path id="Trazado_1179163" data-name="Trazado 1179163" d="M21,16a1,1,0,0,1-2,0V15H17v1a3,3,0,0,0,6,0V15H21Z"/>
        <path id="Trazado_1179164" data-name="Trazado 1179164" d="M58.5,49a4.588,4.588,0,0,0-3.268,1.354L55,50.586l-.232-.232a4.622,4.622,0,0,0-6.537,0A4.169,4.169,0,0,0,47.032,53H43V37a2,2,0,0,0-2-2H33v2h8V53a2,2,0,0,0,2,2h4.3a5,5,0,0,0,1.172,1.889L55,63.414l6.525-6.525A5,5,0,0,0,63,53.329a4.181,4.181,0,0,0-1.232-2.975A4.588,4.588,0,0,0,58.5,49Zm1.611,6.475L55,60.586l-5.111-5.111A3.014,3.014,0,0,1,49,53.329a2.194,2.194,0,0,1,.646-1.561A2.641,2.641,0,0,1,51.5,51a2.6,2.6,0,0,1,1.854.768L55,53.414l1.646-1.646a2.685,2.685,0,0,1,3.707,0A2.189,2.189,0,0,1,61,53.329,3.014,3.014,0,0,1,60.111,55.475Z"/>
        <path id="Trazado_1179165" data-name="Trazado 1179165" d="M48.831,35.173A4.934,4.934,0,0,1,50,38v1a4,4,0,0,0,8,0V38a4.934,4.934,0,0,1,1.169-2.827A8.608,8.608,0,0,0,61,30a7,7,0,0,0-14,0,8.1,8.1,0,0,0,.065,1H33v2H47.591A12.483,12.483,0,0,0,48.831,35.173ZM54,41a2,2,0,0,1-2-2h4A2,2,0,0,1,54,41Zm0-16a5.006,5.006,0,0,1,5,5,6.637,6.637,0,0,1-1.491,4.058A7.925,7.925,0,0,0,56.1,37H51.9a7.909,7.909,0,0,0-1.408-2.942A6.637,6.637,0,0,1,49,30a5.006,5.006,0,0,1,5-5Z"/>
        <path id="Trazado_1179166" data-name="Trazado 1179166" d="M53,33h2V31h2V29H55V27H53v2H51v2h2Z"/>
        <path id="Trazado_1179167" data-name="Trazado 1179167" d="M63,7.726A4.109,4.109,0,0,0,62.57,5.9a3.421,3.421,0,0,0-2.6-1.87A3.423,3.423,0,0,0,58.1,1.43a4.15,4.15,0,0,0-4.1.262,4.153,4.153,0,0,0-4.1-.262,3.421,3.421,0,0,0-1.87,2.6A3.423,3.423,0,0,0,45.43,5.9,4.1,4.1,0,0,0,45,7.726,4.059,4.059,0,0,0,45.208,9H43a2,2,0,0,0-2,2V27H33v2h8a2,2,0,0,0,2-2V11h2.208A4.059,4.059,0,0,0,45,12.274a4.109,4.109,0,0,0,.43,1.823,3.421,3.421,0,0,0,2.6,1.87,3.423,3.423,0,0,0,1.871,2.6,4.147,4.147,0,0,0,4.1-.262A4.049,4.049,0,0,0,56.274,19a4.109,4.109,0,0,0,1.823-.43,3.421,3.421,0,0,0,1.87-2.6,3.423,3.423,0,0,0,2.6-1.871A4.1,4.1,0,0,0,63,12.274,4.049,4.049,0,0,0,62.308,10,4.049,4.049,0,0,0,63,7.726ZM50.8,3.219a2.114,2.114,0,0,1,2.4.388L54,4.414l.806-.806a2.11,2.11,0,0,1,2.4-.389,1.424,1.424,0,0,1,.77,1.093,4.062,4.062,0,0,0-1.684,1.227L54.977,7.178A2.938,2.938,0,0,0,54,7a2.969,2.969,0,0,0-1.576.459L50.788,6.15A2.091,2.091,0,0,1,50,4.51a1.437,1.437,0,0,1,.8-1.291ZM53,10a1,1,0,1,1,1,1A1,1,0,0,1,53,10Zm-5.781,3.2A2.1,2.1,0,0,1,47,12.274a2.063,2.063,0,0,1,.607-1.467L48.414,10l-.806-.806A2.064,2.064,0,0,1,47,7.726a2.089,2.089,0,0,1,.219-.928,1.459,1.459,0,0,1,1.1-.763,4.055,4.055,0,0,0,1.224,1.676l1.639,1.311a2.874,2.874,0,0,0,.281,2.554L50.15,13.212A2.091,2.091,0,0,1,48.51,14a1.437,1.437,0,0,1-1.291-.8ZM57.2,16.781a2.109,2.109,0,0,1-2.4-.388L54,15.586l-.806.806a2.111,2.111,0,0,1-2.4.389,1.422,1.422,0,0,1-.77-1.093,4.062,4.062,0,0,0,1.684-1.227l1.311-1.638a2.878,2.878,0,0,0,2.553-.282l1.636,1.309A2.091,2.091,0,0,1,58,15.49a1.437,1.437,0,0,1-.8,1.291Zm3.189-5.975A2.064,2.064,0,0,1,61,12.274a2.089,2.089,0,0,1-.219.928,1.457,1.457,0,0,1-1.1.76,4.061,4.061,0,0,0-1.223-1.674l-1.639-1.311a2.878,2.878,0,0,0-.282-2.553L57.85,6.788A2.091,2.091,0,0,1,59.49,6a1.437,1.437,0,0,1,1.291.8A2.1,2.1,0,0,1,61,7.726a2.063,2.063,0,0,1-.607,1.467L59.586,10Z"/>
      </g>
    </g>
  </g>
</svg>
