<svg xmlns="http://www.w3.org/2000/svg" xmlns:xlink="http://www.w3.org/1999/xlink" width="118" height="118" viewBox="0 0 118 118">
  <defs>
    <filter id="Trazado_982547" x="0" y="0" width="118" height="118" filterUnits="userSpaceOnUse">
      <feOffset dy="3" input="SourceAlpha"/>
      <feGaussianBlur stdDeviation="3" result="blur"/>
      <feFlood flood-opacity="0.161"/>
      <feComposite operator="in" in2="blur"/>
      <feComposite in="SourceGraphic"/>
    </filter>
  </defs>
  <g id="Grupo_1223867" data-name="Grupo 1223867" transform="translate(-583.5 -2554.632)">
    <g id="Grupo_1223754" data-name="Grupo 1223754" transform="translate(0 -6350.413)">
      <g id="Grupo_1223200" data-name="Grupo 1223200" transform="translate(592.5 8911.045)">
        <g id="Grupo_1211216" data-name="Grupo 1211216" transform="translate(0)">
          <g id="Grupo_1210737" data-name="Grupo 1210737">
            <g id="Grupo_1210537" data-name="Grupo 1210537">
              <g id="Grupo_1164202" data-name="Grupo 1164202">
                <g id="Grupo_1158168" data-name="Grupo 1158168">
                  <g id="Grupo_1152576" data-name="Grupo 1152576">
                    <g id="Grupo_1148633" data-name="Grupo 1148633">
                      <g id="Grupo_1148525" data-name="Grupo 1148525">
                        <g transform="matrix(1, 0, 0, 1, -9, -6)" filter="url(#Trazado_982547)">
                          <g id="Trazado_982547-2" data-name="Trazado 982547" transform="translate(9 6)" fill="#fcf5f0">
                            <path d="M 49.99999618530273 98.5 C 43.45188140869141 98.5 37.10042572021484 97.21786499023438 31.12206840515137 94.68923950195312 C 25.34691047668457 92.24655151367188 20.15996742248535 88.74931335449219 15.70532512664795 84.29468536376953 C 11.25068187713623 79.84004211425781 7.753438949584961 74.65309906005859 5.310753345489502 68.87792205810547 C 2.782124757766724 62.89956665039062 1.499996185302734 56.54811096191406 1.499996185302734 49.99999618530273 C 1.499996185302734 43.45188140869141 2.782124757766724 37.10042572021484 5.310753345489502 31.12206840515137 C 7.753438949584961 25.34691047668457 11.25068187713623 20.15996742248535 15.70532512664795 15.70532512664795 C 20.15996742248535 11.25068187713623 25.34691047668457 7.753438949584961 31.12206840515137 5.310753345489502 C 37.10042572021484 2.782124757766724 43.45188140869141 1.499996185302734 49.99999618530273 1.499996185302734 C 56.54811096191406 1.499996185302734 62.89956665039062 2.782124757766724 68.87792205810547 5.310753345489502 C 74.65309906005859 7.753438949584961 79.84004211425781 11.25068187713623 84.29468536376953 15.70532512664795 C 88.74931335449219 20.15996742248535 92.24655151367188 25.34691047668457 94.68923950195312 31.12206840515137 C 97.21786499023438 37.10042572021484 98.5 43.45188140869141 98.5 49.99999618530273 C 98.5 56.54811096191406 97.21786499023438 62.89956665039062 94.68923950195312 68.87792205810547 C 92.24655151367188 74.65309906005859 88.74931335449219 79.84004211425781 84.29468536376953 84.29468536376953 C 79.84004211425781 88.74931335449219 74.65309906005859 92.24655151367188 68.87792205810547 94.68923950195312 C 62.89956665039062 97.21786499023438 56.54811096191406 98.5 49.99999618530273 98.5 Z" stroke="none"/>
                            <path d="M 49.99999618530273 2.999992370605469 C 43.65372085571289 2.999992370605469 37.49885940551758 4.242256164550781 31.70639801025391 6.6922607421875 C 26.11002349853516 9.059318542480469 21.08335113525391 12.4486083984375 16.76598358154297 16.76598358154297 C 12.4486083984375 21.08335113525391 9.059318542480469 26.11002349853516 6.6922607421875 31.70639801025391 C 4.242256164550781 37.49885940551758 2.999992370605469 43.65372085571289 2.999992370605469 49.99999618530273 C 2.999992370605469 56.34627151489258 4.242256164550781 62.50113296508789 6.6922607421875 68.29359436035156 C 9.059318542480469 73.88996887207031 12.4486083984375 78.91664123535156 16.76598358154297 83.2340087890625 C 21.08335113525391 87.55138397216797 26.11002349853516 90.940673828125 31.70639801025391 93.30773162841797 C 37.49885940551758 95.75773620605469 43.65372085571289 97 49.99999618530273 97 C 56.34627151489258 97 62.50113296508789 95.75773620605469 68.29359436035156 93.30773162841797 C 73.88996887207031 90.940673828125 78.91664123535156 87.55138397216797 83.2340087890625 83.2340087890625 C 87.55138397216797 78.91664123535156 90.940673828125 73.88996887207031 93.30773162841797 68.29359436035156 C 95.75773620605469 62.50113296508789 97 56.34627151489258 97 49.99999618530273 C 97 43.65372085571289 95.75773620605469 37.49885940551758 93.30773162841797 31.70639801025391 C 90.940673828125 26.11002349853516 87.55138397216797 21.08335113525391 83.2340087890625 16.76598358154297 C 78.91664123535156 12.4486083984375 73.88996887207031 9.059318542480469 68.29359436035156 6.6922607421875 C 62.50113296508789 4.242256164550781 56.34627151489258 2.999992370605469 49.99999618530273 2.999992370605469 M 49.99999618530273 -7.62939453125e-06 C 77.61422729492188 -7.62939453125e-06 100 22.38576507568359 100 49.99999618530273 C 100 77.61422729492188 77.61422729492188 100 49.99999618530273 100 C 22.38576507568359 100 -7.62939453125e-06 77.61422729492188 -7.62939453125e-06 49.99999618530273 C -7.62939453125e-06 22.38576507568359 22.38576507568359 -7.62939453125e-06 49.99999618530273 -7.62939453125e-06 Z" stroke="none" fill="#eca675"/>
                          </g>
                        </g>
                      </g>
                    </g>
                  </g>
                </g>
              </g>
            </g>
          </g>
        </g>
      </g>
    </g>
    <g id="Layer_x0020_1" transform="translate(609.274 2568.839)">
      <path id="Trazado_1179168" data-name="Trazado 1179168" d="M33.206,39.1a.769.769,0,0,1-.545-.234L28.691,34.9a.78.78,0,0,1-.156-.818.713.713,0,0,1,.7-.467h1.246V28.747a.781.781,0,0,1,.779-.779h3.932a.781.781,0,0,1,.779.779v4.866h1.246a.713.713,0,0,1,.7.467.723.723,0,0,1-.195.818l-3.971,3.971A.769.769,0,0,1,33.206,39.1ZM65.673,71.063H7.9c-4.36,0-7.9-2.92-7.9-6.54v-1.6c0-3.62,3.543-6.54,7.9-6.54h57.81a.733.733,0,0,1,.311.078c.078.078.195.117.234.234a.814.814,0,0,1,.156.234c0,.078.039.195.039.273-.039.117-.039.234-.117.311a.572.572,0,0,1-.195.234.038.038,0,0,1-.039.039c-.156.117-3.465,2.491-3.581,5.761-.078,2.063,1.168,4.126,3.62,6.151h.039a.7.7,0,0,1,.195.273.722.722,0,0,1,.078.273c0,.117-.039.195-.039.273v.039h-.039V70.6a.851.851,0,0,1-.117.195.7.7,0,0,1-.272.195.563.563,0,0,1-.272.078ZM7.9,57.9c-3.5,0-6.384,2.258-6.384,5.022v1.6c0,2.764,2.881,5.022,6.384,5.022H63.688a9.969,9.969,0,0,1-2.063-2.959H33.635a.779.779,0,1,1,0-1.557H61.119A6.83,6.83,0,0,1,61,63.471a9.459,9.459,0,0,1,.311-1.83H23.863v4.866a.7.7,0,0,1-.35.623.785.785,0,0,1-.428.117.663.663,0,0,1-.273-.039l-3.036-1.285-3,1.285a.837.837,0,0,1-.74-.078.793.793,0,0,1-.35-.623V61.642H9.07a.748.748,0,0,1-.74-.779.739.739,0,0,1,.74-.74H62.014A10.25,10.25,0,0,1,63.649,57.9Zm14.443,3.737h-5.1v3.7l2.219-.973a1.265,1.265,0,0,1,.623,0l2.258.973Zm17.674-35.5H27.756a.748.748,0,0,1-.74-.779V19.949L23.357,18.82v2.375a2.135,2.135,0,0,1,1.324,1.985v.039a2.1,2.1,0,1,1-4.2,0V23.18A2.135,2.135,0,0,1,21.8,21.194V17.73l.039-.039v-.156h.039v-.078h.039v-.039c0-.039.039-.039.039-.078a.038.038,0,0,1,.039-.039c.039-.078.117-.117.156-.156h.078v-.039h.039l.039-.039h.078L33.674,13.6a.8.8,0,0,1,.428,0L45.43,17.068a.759.759,0,0,1,.545.74.748.748,0,0,1-.545.7L40.8,19.949V25.36A.781.781,0,0,1,40.019,26.138ZM28.535,20.416v4.2H39.24v-4.2l-5.139,1.6h-.428Zm-3.348-2.608,2.764.856h.039l5.917,1.791,5.878-1.791h.039l2.764-.856-8.681-2.686ZM22.579,22.6a.573.573,0,0,0-.584.584v.039a.584.584,0,1,0,1.168,0V23.18A.573.573,0,0,0,22.579,22.6ZM41.615,43.579H24.8a2.476,2.476,0,0,1-2.453-2.491c0-6.19-1.518-8.564-2.959-10.9a14.014,14.014,0,0,1-2.647-8.72,16.486,16.486,0,0,1,32.973,0,14.264,14.264,0,0,1-2.647,8.72c-1.479,2.336-2.959,4.71-2.959,10.9a2.526,2.526,0,0,1-2.491,2.491ZM33.206,6.518A14.953,14.953,0,0,0,18.258,21.467a12.609,12.609,0,0,0,2.414,7.9c1.518,2.375,3.192,5.1,3.192,11.718a.922.922,0,0,0,.934.934H41.615a.9.9,0,0,0,.934-.934c0-6.618,1.713-9.343,3.231-11.718a12.609,12.609,0,0,0,2.414-7.9A14.986,14.986,0,0,0,33.206,6.518Zm6.229,42.51H27.017a2.433,2.433,0,0,1,0-4.866H39.435a2.433,2.433,0,0,1,0,4.866ZM27.017,45.681a.915.915,0,0,0,0,1.83H39.435a.915.915,0,0,0,0-1.83Zm8.915,8.8H30.52a2.433,2.433,0,1,1,0-4.866h5.411a2.433,2.433,0,1,1,0,4.866ZM30.52,51.131a.915.915,0,1,0,0,1.83h5.411a.915.915,0,0,0,0-1.83Zm.545-16,2.141,2.141,2.141-2.141h-.156a.781.781,0,0,1-.779-.779V29.486H32v4.866a.748.748,0,0,1-.74.779Z" fill-rule="evenodd"/>
      <path id="Trazado_1179169" data-name="Trazado 1179169" d="M487.958,71.095a.741.741,0,0,1,.506,1.285l-3.971,3.971a.753.753,0,0,1-1.09,0l-3.971-3.971a.76.76,0,0,1,.545-1.285h1.246V66.228A.781.781,0,0,1,482,65.45h3.932a.781.781,0,0,1,.779.779v4.866Zm4.4,8.409a.9.9,0,0,0,.934-.934c0-12.224,5.645-10.744,5.645-19.62a14.968,14.968,0,0,0-29.936,0c0,8.876,5.606,7.4,5.606,19.62a.922.922,0,0,0,.934.934Zm-1.6-15.883H478.5a.748.748,0,0,1-.74-.779V57.431L474.1,56.3v2.375a2.155,2.155,0,1,1-1.557,0V55.289l.156-.467.428-.273,11.289-3.465a.8.8,0,0,1,.428,0l11.328,3.465a.756.756,0,0,1,0,1.44l-4.633,1.44v5.411A.781.781,0,0,1,490.761,63.62Z" transform="translate(-450.742 -37.482)" fill="#ffc738" fill-rule="evenodd"/>
      <path id="Trazado_1179170" data-name="Trazado 1179170" d="M98.795,1367.737H61.345v4.866a.772.772,0,0,1-1.051.7l-3.036-1.285-3,1.285a.793.793,0,0,1-1.09-.7v-4.866H46.552a.759.759,0,1,1,0-1.518H99.5a10.247,10.247,0,0,1,1.635-2.219H45.384c-3.5,0-6.384,2.258-6.384,5.022v1.6c0,2.764,2.881,5.022,6.384,5.022H101.17a9.969,9.969,0,0,1-2.063-2.959H71.116a.779.779,0,0,1,0-1.557H98.6A6.665,6.665,0,0,1,98.795,1367.737Z" transform="translate(-37.482 -1306.095)" fill="#1aa1ff" fill-rule="evenodd"/>
      <path id="Trazado_1179171" data-name="Trazado 1179171" d="M448.1,1463.7V1460H443v3.7a16.316,16.316,0,0,1,2.53-1.012A18.371,18.371,0,0,1,448.1,1463.7Z" transform="translate(-425.754 -1398.358)" fill="#fc6559" fill-rule="evenodd"/>
      <path id="Trazado_1179172" data-name="Trazado 1179172" d="M761.655,1191.83h5.411a.915.915,0,0,0,0-1.83h-5.411A.915.915,0,0,0,761.655,1191.83Z" transform="translate(-731.135 -1138.869)" fill="#e4e8eb" fill-rule="evenodd"/>
      <path id="Trazado_1179173" data-name="Trazado 1179173" d="M672.376,1051.83h12.418a.916.916,0,0,0,0-1.83H672.376A.916.916,0,0,0,672.376,1051.83Z" transform="translate(-645.359 -1004.319)" fill="#cad0d7" fill-rule="evenodd"/>
      <path id="Trazado_1179174" data-name="Trazado 1179174" d="M798,639.645l2.141,2.141,2.141-2.141h-.156a.781.781,0,0,1-.779-.779V634h-2.414v4.866a.748.748,0,0,1-.74.779Z" transform="translate(-766.935 -604.514)" fill="#fc6559" fill-rule="evenodd"/>
      <path id="Trazado_1179175" data-name="Trazado 1179175" d="M655.72,270.333l8.681-2.647L655.72,265,647,267.686Z" transform="translate(-621.813 -249.878)" fill="#2c3033" fill-rule="evenodd"/>
      <path id="Trazado_1179176" data-name="Trazado 1179176" d="M743.705,401c-.623.195-5.061,1.6-5.333,1.6s-4.749-1.4-5.372-1.6v4.2h10.705Z" transform="translate(-704.465 -380.584)" fill="#545859" fill-rule="evenodd"/>
      <path id="Trazado_1179177" data-name="Trazado 1179177" d="M565.584,458.207a.6.6,0,0,0,0-1.207A.6.6,0,0,0,565.584,458.207Z" transform="translate(-543.005 -434.404)" fill="#fa762e" fill-rule="evenodd"/>
    </g>
  </g>
</svg>
