<svg xmlns="http://www.w3.org/2000/svg" xmlns:xlink="http://www.w3.org/1999/xlink" width="118" height="118" viewBox="0 0 118 118">
  <defs>
    <filter id="Trazado_982547" x="0" y="0" width="118" height="118" filterUnits="userSpaceOnUse">
      <feOffset dy="3" input="SourceAlpha"/>
      <feGaussianBlur stdDeviation="3" result="blur"/>
      <feFlood flood-opacity="0.161"/>
      <feComposite operator="in" in2="blur"/>
      <feComposite in="SourceGraphic"/>
    </filter>
  </defs>
  <g id="Grupo_1223885" data-name="Grupo 1223885" transform="translate(-898.5 -2554.632)">
    <g id="Grupo_1223751" data-name="Grupo 1223751" transform="translate(0 -6350.413)">
      <g id="Grupo_1223201" data-name="Grupo 1223201" transform="translate(907.5 8911.045)">
        <g id="Grupo_1211216" data-name="Grupo 1211216" transform="translate(0)">
          <g id="Grupo_1210737" data-name="Grupo 1210737">
            <g id="Grupo_1210537" data-name="Grupo 1210537">
              <g id="Grupo_1164202" data-name="Grupo 1164202">
                <g id="Grupo_1158168" data-name="Grupo 1158168">
                  <g id="Grupo_1152576" data-name="Grupo 1152576">
                    <g id="Grupo_1148633" data-name="Grupo 1148633">
                      <g id="Grupo_1148525" data-name="Grupo 1148525">
                        <g transform="matrix(1, 0, 0, 1, -9, -6)" filter="url(#Trazado_982547)">
                          <g id="Trazado_982547-2" data-name="Trazado 982547" transform="translate(9 6)" fill="#fcf5f0">
                            <path d="M 49.99999618530273 98.5 C 43.45188140869141 98.5 37.10042572021484 97.21786499023438 31.12206840515137 94.68923950195312 C 25.34691047668457 92.24655151367188 20.15996742248535 88.74931335449219 15.70532512664795 84.29468536376953 C 11.25068187713623 79.84004211425781 7.753438949584961 74.65309906005859 5.310753345489502 68.87792205810547 C 2.782124757766724 62.89956665039062 1.499996185302734 56.54811096191406 1.499996185302734 49.99999618530273 C 1.499996185302734 43.45188140869141 2.782124757766724 37.10042572021484 5.310753345489502 31.12206840515137 C 7.753438949584961 25.34691047668457 11.25068187713623 20.15996742248535 15.70532512664795 15.70532512664795 C 20.15996742248535 11.25068187713623 25.34691047668457 7.753438949584961 31.12206840515137 5.310753345489502 C 37.10042572021484 2.782124757766724 43.45188140869141 1.499996185302734 49.99999618530273 1.499996185302734 C 56.54811096191406 1.499996185302734 62.89956665039062 2.782124757766724 68.87792205810547 5.310753345489502 C 74.65309906005859 7.753438949584961 79.84004211425781 11.25068187713623 84.29468536376953 15.70532512664795 C 88.74931335449219 20.15996742248535 92.24655151367188 25.34691047668457 94.68923950195312 31.12206840515137 C 97.21786499023438 37.10042572021484 98.5 43.45188140869141 98.5 49.99999618530273 C 98.5 56.54811096191406 97.21786499023438 62.89956665039062 94.68923950195312 68.87792205810547 C 92.24655151367188 74.65309906005859 88.74931335449219 79.84004211425781 84.29468536376953 84.29468536376953 C 79.84004211425781 88.74931335449219 74.65309906005859 92.24655151367188 68.87792205810547 94.68923950195312 C 62.89956665039062 97.21786499023438 56.54811096191406 98.5 49.99999618530273 98.5 Z" stroke="none"/>
                            <path d="M 49.99999618530273 2.999992370605469 C 43.65372085571289 2.999992370605469 37.49885940551758 4.242256164550781 31.70639801025391 6.6922607421875 C 26.11002349853516 9.059318542480469 21.08335113525391 12.4486083984375 16.76598358154297 16.76598358154297 C 12.4486083984375 21.08335113525391 9.059318542480469 26.11002349853516 6.6922607421875 31.70639801025391 C 4.242256164550781 37.49885940551758 2.999992370605469 43.65372085571289 2.999992370605469 49.99999618530273 C 2.999992370605469 56.34627151489258 4.242256164550781 62.50113296508789 6.6922607421875 68.29359436035156 C 9.059318542480469 73.88996887207031 12.4486083984375 78.91664123535156 16.76598358154297 83.2340087890625 C 21.08335113525391 87.55138397216797 26.11002349853516 90.940673828125 31.70639801025391 93.30773162841797 C 37.49885940551758 95.75773620605469 43.65372085571289 97 49.99999618530273 97 C 56.34627151489258 97 62.50113296508789 95.75773620605469 68.29359436035156 93.30773162841797 C 73.88996887207031 90.940673828125 78.91664123535156 87.55138397216797 83.2340087890625 83.2340087890625 C 87.55138397216797 78.91664123535156 90.940673828125 73.88996887207031 93.30773162841797 68.29359436035156 C 95.75773620605469 62.50113296508789 97 56.34627151489258 97 49.99999618530273 C 97 43.65372085571289 95.75773620605469 37.49885940551758 93.30773162841797 31.70639801025391 C 90.940673828125 26.11002349853516 87.55138397216797 21.08335113525391 83.2340087890625 16.76598358154297 C 78.91664123535156 12.4486083984375 73.88996887207031 9.059318542480469 68.29359436035156 6.6922607421875 C 62.50113296508789 4.242256164550781 56.34627151489258 2.999992370605469 49.99999618530273 2.999992370605469 M 49.99999618530273 -7.62939453125e-06 C 77.61422729492188 -7.62939453125e-06 100 22.38576507568359 100 49.99999618530273 C 100 77.61422729492188 77.61422729492188 100 49.99999618530273 100 C 22.38576507568359 100 -7.62939453125e-06 77.61422729492188 -7.62939453125e-06 49.99999618530273 C -7.62939453125e-06 22.38576507568359 22.38576507568359 -7.62939453125e-06 49.99999618530273 -7.62939453125e-06 Z" stroke="none" fill="#eca675"/>
                          </g>
                        </g>
                      </g>
                    </g>
                  </g>
                </g>
              </g>
            </g>
          </g>
        </g>
      </g>
    </g>
    <g id="advertisement_2464376" transform="translate(922.962 2575.962)">
      <g id="Grupo_1223883" data-name="Grupo 1223883" transform="translate(2.098 2.098)">
        <g id="Grupo_1223868" data-name="Grupo 1223868" transform="translate(3.294 30.338)">
          <path id="Trazado_1179178" data-name="Trazado 1179178" d="M30.254,57.223a20.8,20.8,0,0,0,8.784-.472A20.85,20.85,0,0,0,49.9,49.592,26.573,26.573,0,0,1,54.41,52v1.1a2.225,2.225,0,0,0,1.12,1.921l-4.9,4.9-3.426-2.053a25.094,25.094,0,0,1-8.3,3.448l-.966,3.865H29.156l-.966-3.865a25.094,25.094,0,0,1-8.3-3.448l-3.426,2.053-6.2-6.2,2.053-3.426a25.094,25.094,0,0,1-3.448-8.3L5,41.016V32.232l3.865-.966c.121-.56.285-1.087.439-1.636a16.143,16.143,0,0,0,4.041,1.878A20.773,20.773,0,0,0,30.254,57.223Z" transform="translate(-5 -29.63)" fill="#fcd770"/>
        </g>
        <g id="Grupo_1223869" data-name="Grupo 1223869" transform="translate(31.04 8.784)">
          <path id="Trazado_1179179" data-name="Trazado 1179179" d="M48.156,15.259l4.9,4.9a2.225,2.225,0,0,0-1.12,1.921v1.1a25.912,25.912,0,0,1-4.524,2.4,20.858,20.858,0,0,0-15.24-7.84v-.055A16.454,16.454,0,0,0,30.27,10h5.194l.966,3.865a25.094,25.094,0,0,1,8.3,3.448Z" transform="translate(-30.27 -10)" fill="#fcd770"/>
        </g>
        <g id="Grupo_1223870" data-name="Grupo 1223870" transform="translate(28.548 48.312)">
          <path id="Trazado_1179180" data-name="Trazado 1179180" d="M36.784,46v9.146A20.8,20.8,0,0,1,28,55.618V46h8.784Z" transform="translate(-28 -46)" fill="#969faa"/>
        </g>
        <g id="Grupo_1223871" data-name="Grupo 1223871" transform="translate(21.96 26.352)">
          <path id="Trazado_1179181" data-name="Trazado 1179181" d="M22.384,43.568h-.011a6.635,6.635,0,0,1-.373-2.2V32.588a6.887,6.887,0,0,1,.077-.966,16.485,16.485,0,0,0,6.511-4.315c.384-.417.747-.856,1.1-1.307h1.1V47.96h-2.2A6.567,6.567,0,0,1,22.384,43.568Z" transform="translate(-22 -26)" fill="#ccd1d9"/>
        </g>
        <g id="Grupo_1223872" data-name="Grupo 1223872" transform="translate(35.136 21.96)">
          <path id="Trazado_1179182" data-name="Trazado 1179182" d="M47.044,24.4A25.911,25.911,0,0,0,51.568,22V52.744a26.2,26.2,0,0,0-8.784-3.755V41.764a2.2,2.2,0,0,0-2.2-2.2h-2.2A4.391,4.391,0,0,1,34,35.176V26.392h3.063A26.067,26.067,0,0,0,47.044,24.4Z" transform="translate(-34 -22)" fill="#ccd1d9"/>
        </g>
        <g id="Grupo_1223873" data-name="Grupo 1223873" transform="translate(30.744 26.352)">
          <path id="Trazado_1179183" data-name="Trazado 1179183" d="M43.176,41.372V48.6a26.251,26.251,0,0,0-5.721-.637H30V26h4.392v8.784a4.391,4.391,0,0,0,4.392,4.392h2.2A2.2,2.2,0,0,1,43.176,41.372Z" transform="translate(-30 -26)" fill="#ff826e"/>
        </g>
        <g id="Grupo_1223874" data-name="Grupo 1223874" transform="translate(52.704 18.666)">
          <path id="Trazado_1179184" data-name="Trazado 1179184" d="M51.12,19.274A2.207,2.207,0,0,1,52.2,19h2.2a2.2,2.2,0,0,1,2.2,2.2v32.94a2.2,2.2,0,0,1-2.2,2.2H52.2a2.179,2.179,0,0,1-2.2-2.2V21.2A2.225,2.225,0,0,1,51.12,19.274Z" transform="translate(-50 -19)" fill="#ff826e"/>
        </g>
        <g id="Grupo_1223875" data-name="Grupo 1223875" transform="translate(59.292 29.646)">
          <path id="Trazado_1179185" data-name="Trazado 1179185" d="M62.588,31.2v10.98L56,44.372V29Z" transform="translate(-56 -29)" fill="#fcd770"/>
        </g>
        <g id="Grupo_1223876" data-name="Grupo 1223876">
          <circle id="Elipse_14727" data-name="Elipse 14727" cx="16.5" cy="16.5" r="16.5" transform="translate(-0.06 -0.06)" fill="#e6e9ed"/>
        </g>
        <g id="Grupo_1223877" data-name="Grupo 1223877" transform="translate(4.392 21.927)">
          <path id="Trazado_1179186" data-name="Trazado 1179186" d="M23.645,32.017a16.495,16.495,0,0,1-10.4.242,16.143,16.143,0,0,1-4.041-1.878A15.631,15.631,0,0,1,6,27.7l.011-.011a4.383,4.383,0,0,1,3.514-4.205l3.964-.8a3.254,3.254,0,0,0,1.3-.714V22a3.294,3.294,0,0,0,6.588,0V21.97a3.254,3.254,0,0,0,1.3.714l3.964.8a4.383,4.383,0,0,1,3.514,4.205l.011.011a16.485,16.485,0,0,1-6.511,4.315Z" transform="translate(-6 -21.97)" fill="#a0d468"/>
        </g>
        <g id="Grupo_1223878" data-name="Grupo 1223878" transform="translate(7.686 4.392)">
          <path id="Trazado_1179187" data-name="Trazado 1179187" d="M26.568,11.38a3.778,3.778,0,0,1-.033.505,3.87,3.87,0,0,1-1.329,2.383l-.878.791a2.123,2.123,0,0,0-1.054-.274h-3.03a10.4,10.4,0,0,1-4.655-1.1,2.192,2.192,0,0,0-1.9,1.1H12.294a2.123,2.123,0,0,0-1.054.274l-.878-.791a3.87,3.87,0,0,1-1.329-2.383A3.777,3.777,0,0,1,9,11.38a4.176,4.176,0,0,1,1.669-3.338l1.7-1.274A3.775,3.775,0,0,1,14.666,6H15.1a3.826,3.826,0,0,1,2.679,1.1A3.826,3.826,0,0,1,20.463,6H20.9a3.775,3.775,0,0,1,2.295.769l1.7,1.274A4.176,4.176,0,0,1,26.568,11.38Z" transform="translate(-9 -6)" fill="#b27946"/>
        </g>
        <g id="Grupo_1223879" data-name="Grupo 1223879" transform="translate(20.719 13.176)">
          <path id="Trazado_1179188" data-name="Trazado 1179188" d="M23.659,14.648a2.147,2.147,0,0,1,.648,1.548,2.2,2.2,0,0,1-2.2,2.2H20.87a4.015,4.015,0,0,0,.143-1.1V14h1.1a2.123,2.123,0,0,1,1.054.274A1.832,1.832,0,0,1,23.659,14.648Z" transform="translate(-20.87 -14)" fill="#f0d0b4"/>
        </g>
        <g id="Grupo_1223880" data-name="Grupo 1223880" transform="translate(12.078 12.078)">
          <path id="Trazado_1179189" data-name="Trazado 1179189" d="M21.641,18.49a4.338,4.338,0,0,1-1.965,2.646,4.35,4.35,0,0,1-4.568,0,4.588,4.588,0,0,1-.823-.637,4.478,4.478,0,0,1-1.142-2.009,4.015,4.015,0,0,1-.143-1.1V15.2A2.2,2.2,0,0,1,15.2,13a10.4,10.4,0,0,0,4.655,1.1h1.932v3.294a4.015,4.015,0,0,1-.143,1.1Z" transform="translate(-13 -13)" fill="#f0d0b4"/>
        </g>
        <g id="Grupo_1223881" data-name="Grupo 1223881" transform="translate(13.176 20.214)">
          <path id="Trazado_1179190" data-name="Trazado 1179190" d="M20.588,22.123v.033a3.294,3.294,0,1,1-6.588,0v-.033a3.23,3.23,0,0,0,1.01-1.7V20.41a4.35,4.35,0,0,0,4.568,0v.011a3.23,3.23,0,0,0,1.01,1.7Z" transform="translate(-14 -20.41)" fill="#f0d0b4"/>
        </g>
        <g id="Grupo_1223882" data-name="Grupo 1223882" transform="translate(8.784 13.176)">
          <path id="Trazado_1179191" data-name="Trazado 1179191" d="M12.2,14H13.59a2.19,2.19,0,0,0-.3,1.1v2.2a4.015,4.015,0,0,0,.143,1.1H12.2A2.212,2.212,0,0,1,10,16.2a2.2,2.2,0,0,1,1.142-1.921A2.123,2.123,0,0,1,12.2,14Z" transform="translate(-10 -14)" fill="#f0d0b4"/>
        </g>
      </g>
      <g id="Grupo_1223884" data-name="Grupo 1223884" transform="translate(1 1)">
        <path id="Trazado_1179192" data-name="Trazado 1179192" d="M37,41h2.2v2.2H37Z" transform="translate(2.528 2.92)"/>
        <path id="Trazado_1179193" data-name="Trazado 1179193" d="M33,41h2.2v2.2H33Z" transform="translate(2.136 2.92)"/>
        <path id="Trazado_1179194" data-name="Trazado 1179194" d="M69.076,33.148l-6.588-2.2V22.96a3.3,3.3,0,0,0-3.294-3.294H57a3.245,3.245,0,0,0-.791.107l-5.016-5.018L47.608,16.9A26.082,26.082,0,0,0,40.2,13.832L39.189,9.784H33.759A17.552,17.552,0,1,0,8.428,32.889c-.025.093-.054.184-.078.278L4.294,34.18v10.5l4.049,1.011A26.083,26.083,0,0,0,11.416,53.1L9.267,56.682,16.689,64.1l3.583-2.149a26.065,26.065,0,0,0,7.408,3.072l1.01,4.048h10.5L40.2,65.026a26.051,26.051,0,0,0,7.408-3.072L51.193,64.1l5.017-5.017a3.162,3.162,0,0,0,.788.108h2.2A3.3,3.3,0,0,0,62.488,55.9V47.906l6.588-2.2ZM14.562,35.657a16.976,16.976,0,0,0,8.4-.1v8.265a7.692,7.692,0,0,0,6.588,7.6v7.264A19.785,19.785,0,0,1,14.176,39.43a19.421,19.421,0,0,1,.386-3.773Zm21.51-15.821a19.743,19.743,0,0,1,12.318,6.159A25.007,25.007,0,0,1,40.3,27.352H33.759a17.435,17.435,0,0,0,2.313-7.516Zm5.554,22.888h2.2a1.1,1.1,0,0,1,1.1,1.1v5.9a27.358,27.358,0,0,0-4.624-.408H33.94V29.548h2.2v7.686A5.5,5.5,0,0,0,41.626,42.724ZM31.744,30.148V49.312h-1.1a5.464,5.464,0,0,1-4.363-2.2h3.265v-2.2H25.267a5.485,5.485,0,0,1-.111-1.1v-1.1h4.392v-2.2H25.156v-2.2h4.392v-2.2H25.156v-1.1c0-.064.005-.133.009-.2A17.622,17.622,0,0,0,31.744,30.148Zm0,21.359h6.588v7.2a19.5,19.5,0,0,1-6.588.36Zm8.784.009a25.012,25.012,0,0,1,7.89,1.358,19.648,19.648,0,0,1-7.89,5.2Zm6.588-1.323V43.822a3.3,3.3,0,0,0-3.294-3.294h-2.2a3.3,3.3,0,0,1-3.294-3.294V29.548H40.3A27.151,27.151,0,0,0,53.7,26.021V52.839A27.114,27.114,0,0,0,47.116,50.193ZM37.474,11.98l.926,3.7.668.144A23.936,23.936,0,0,1,47,19.115l.574.369,3.274-1.964,3.5,3.5A3.27,3.27,0,0,0,53.7,22.96v.485a25.151,25.151,0,0,1-3.117,1.685,21.973,21.973,0,0,0-14.5-7.526,17.416,17.416,0,0,0-1.245-5.625ZM18.568,3.2A15.351,15.351,0,0,1,31.141,27.384a5.431,5.431,0,0,0-3.8-2.917l-3.887-.782a2.189,2.189,0,0,1-1.285-1.007,5.5,5.5,0,0,0,1.423-1.914h.464a3.3,3.3,0,0,0,3.294-3.294,3.262,3.262,0,0,0-.617-1.905,4.977,4.977,0,0,0,1.677-3.058,5.271,5.271,0,0,0-2.074-4.855l-1.7-1.274a4.952,4.952,0,0,0-2.955-.986H21.25a4.89,4.89,0,0,0-2.682.794,4.89,4.89,0,0,0-2.682-.794h-.434a4.958,4.958,0,0,0-2.955.985L10.8,7.651A5.282,5.282,0,0,0,8.723,12.5,4.978,4.978,0,0,0,10.4,15.565a3.284,3.284,0,0,0,2.678,5.2h.466a5.5,5.5,0,0,0,1.424,1.915,2.108,2.108,0,0,1-1.2.985l-3.97.8A5.43,5.43,0,0,0,6,27.384,15.349,15.349,0,0,1,18.568,3.2Zm-5.49,15.372a1.1,1.1,0,1,1,0-2.2Zm.856-4.392h-.856a3.254,3.254,0,0,0-.813.113l-.389-.348a2.8,2.8,0,0,1-.974-1.705,3.02,3.02,0,0,1-.021-.36,3.1,3.1,0,0,1,1.233-2.468l1.7-1.274a2.754,2.754,0,0,1,1.638-.546h.434a2.714,2.714,0,0,1,1.913.783l.77.757.77-.755a2.71,2.71,0,0,1,1.913-.784h.434a2.754,2.754,0,0,1,1.638.546l1.7,1.274a3.1,3.1,0,0,1,1.233,2.468,2.6,2.6,0,0,1-1,2.066l-.389.347a3.236,3.236,0,0,0-.81-.113H21.023a9.335,9.335,0,0,1-4.16-.983l-.232-.115h-.259a3.277,3.277,0,0,0-2.438,1.1Zm10.124,2.2a1.1,1.1,0,1,1,0,2.2Zm-8.784,2.2v-2.2a1.1,1.1,0,0,1,.889-1.078,11.556,11.556,0,0,0,4.86,1.078h.839v2.2a3.294,3.294,0,1,1-6.588,0Zm1.6,5.2a5.005,5.005,0,0,0,3.382,0,4.331,4.331,0,0,0,.469.651,2.188,2.188,0,0,1-4.32.007,4.435,4.435,0,0,0,.469-.658Zm-9.237,5.6a3.263,3.263,0,0,1,2.589-2.745l4.054-.822c.076-.022.147-.054.222-.08a4.381,4.381,0,0,0,8.123-.008c.1.036.2.079.306.109l3.97.8a3.26,3.26,0,0,1,2.589,2.745,15.334,15.334,0,0,1-21.853,0ZM50.85,61.339l-3.273-1.965-.574.37a23.914,23.914,0,0,1-7.935,3.291l-.668.145-.926,3.7H30.405l-.926-3.7-.668-.145a23.924,23.924,0,0,1-7.935-3.291l-.574-.37L17.03,61.339l-5-5L14,53.066l-.37-.574a23.89,23.89,0,0,1-3.291-7.934l-.145-.668-3.7-.926V35.9l3.7-.925.144-.668c.014-.068.037-.133.053-.2a17.421,17.421,0,0,0,2.069.915,21.661,21.661,0,0,0-.477,4.412,21.954,21.954,0,0,0,38.614,14.3,25.034,25.034,0,0,1,3.11,1.682V55.9a3.264,3.264,0,0,0,.646,1.94ZM60.292,55.9a1.1,1.1,0,0,1-1.1,1.1H57a1.1,1.1,0,0,1-1.1-1.1V22.96a1.1,1.1,0,0,1,1.1-1.1h2.2a1.1,1.1,0,0,1,1.1,1.1ZM66.88,44.128l-4.392,1.465V33.268l4.392,1.464Z" transform="translate(-1 -1)"/>
      </g>
    </g>
  </g>
</svg>
