<svg xmlns="http://www.w3.org/2000/svg" width="38.275" height="38.276" viewBox="0 0 38.275 38.276">
  <g id="social_6016457" transform="translate(-1 -0.997)">
    <path id="Trazado_1177190" data-name="Trazado 1177190" d="M12.881,36.732c-.851-.346-.9-.63-5.026-4.23a2.339,2.339,0,0,0-2.719-.3l-.315-4.1A2.3,2.3,0,0,0,2.543,26,1.543,1.543,0,0,0,1,27.543V35.26C1,37.286,7.914,44.7,8.4,46.125v2.1a.617.617,0,1,0,1.235,0V46.082c0-1.353-7.357-9.371-7.4-10.822V27.543a.309.309,0,0,1,.309-.309,1.054,1.054,0,0,1,1.045.967l.456,5.892a2.1,2.1,0,0,0,.365,1.127l4.8,4.8a.617.617,0,1,0,.873-.873L5.352,34.418a.9.9,0,0,1,.417-1.161,1.131,1.131,0,0,1,1.266.167c3.92,3.4,4.216,3.976,5.379,4.451a6.822,6.822,0,0,1,4.02,4.792c0,1.888-.614,2.482-.614,3.777v1.779a.617.617,0,1,0,1.235,0V46.445c0-1.043.614-1.713.614-3.777C17.668,41.279,16.023,38.016,12.881,36.732Z" transform="translate(0 -9.568)" fill="#248abf"/>
    <path id="Trazado_1177191" data-name="Trazado 1177191" d="M51.125,26a2.3,2.3,0,0,0-2.276,2.107l-.317,4.1a2.34,2.34,0,0,0-2.716.3c-4.136,3.606-4.176,3.884-5.025,4.231C37.645,38.016,36,41.279,36,42.668c0,2.061.614,2.753.614,3.777v1.779a.617.617,0,1,0,1.235,0V46.445c0-1.29-.614-1.89-.614-3.777a6.816,6.816,0,0,1,4.02-4.792c1.146-.469,1.293-.911,5.379-4.451.817-.727,2.112.024,1.682.994l-4.726,4.726a.617.617,0,1,0,.873.873l4.8-4.8a1.867,1.867,0,0,0,.357-.992L50.08,28.2c.076-.968,1.354-1.248,1.354-.659V35.26c-.02.757-2.669,4.136-4.253,6.155-2.511,3.2-3.143,4.086-3.143,4.668v2.142a.617.617,0,1,0,1.235,0v-2.1a33.495,33.495,0,0,1,2.88-3.951c2.809-3.581,4.515-5.834,4.515-6.914V27.543A1.543,1.543,0,0,0,51.125,26Z" transform="translate(-13.393 -9.568)" fill="#248abf"/>
    <path id="Trazado_1177192" data-name="Trazado 1177192" d="M30.467,6.556a2.64,2.64,0,0,0,2.469-2.778A2.64,2.64,0,0,0,30.467,1,2.64,2.64,0,0,0,28,3.778a2.64,2.64,0,0,0,2.469,2.778Zm0-4.321A1.42,1.42,0,0,1,31.7,3.778a1.42,1.42,0,0,1-1.235,1.543,1.42,1.42,0,0,1-1.235-1.543,1.42,1.42,0,0,1,1.235-1.543Z" transform="translate(-10.33 -0.001)" fill="#248abf"/>
    <path id="Trazado_1177193" data-name="Trazado 1177193" d="M31.877,29.289c0-.513-.134-3.144-.277-5.813a1.762,1.762,0,0,0,2.747-1.59,31.155,31.155,0,0,0-1.573-7.778c-.586-1.358-2.222-2.1-4.6-2.1s-4.013.746-4.6,2.1A31.155,31.155,0,0,0,22,21.886a1.76,1.76,0,0,0,2.747,1.59c-.143,2.669-.277,5.3-.277,5.813,0,1.719,1.1,1.852,1.436,1.852,1.667,0,1.875-1.111,2.142-2.524l.123-.773.123.773c.272,1.413.483,2.524,2.147,2.524C30.778,31.141,31.877,31.007,31.877,29.289Zm-1.436.617c-.581,0-.641,0-.93-1.52l-.717-4.692a.562.562,0,0,0-.236-.38.585.585,0,0,0-.414-.144.617.617,0,0,0-.594.525l-.675,4.469-.042.223c-.288,1.52-.349,1.52-.93,1.52-.181,0-.2-.432-.2-.617,0-1.045.61-11.816.617-11.924a.619.619,0,1,0-1.235-.091,40.3,40.3,0,0,1-.6,4.388c-.324,1.164-1.255,1.073-1.255.225A30.723,30.723,0,0,1,24.706,14.6c.37-.864,1.637-1.358,3.467-1.358s3.094.494,3.467,1.358a30.751,30.751,0,0,1,1.472,7.291c0,.994-.964.822-1.258-.225a40.3,40.3,0,0,1-.594-4.388.619.619,0,0,0-1.235.091c.007.109.617,10.879.617,11.924C30.643,29.474,30.623,29.906,30.441,29.906Z" transform="translate(-8.036 -4.214)" fill="#248abf"/>
    <path id="Trazado_1177194" data-name="Trazado 1177194" d="M43.562,5.937a2.4,2.4,0,0,0,2.315-2.469,2.32,2.32,0,1,0-4.63,0,2.4,2.4,0,0,0,2.315,2.469Zm0-3.7a1.167,1.167,0,0,1,1.08,1.235,1.09,1.09,0,1,1-2.161,0,1.167,1.167,0,0,1,1.08-1.235Z" transform="translate(-15.399 0)" fill="#248abf"/>
    <path id="Trazado_1177195" data-name="Trazado 1177195" d="M17.564,5.939a2.4,2.4,0,0,0,2.315-2.469,2.32,2.32,0,1,0-4.63,0A2.4,2.4,0,0,0,17.564,5.939Zm0-3.7a1.167,1.167,0,0,1,1.08,1.235,1.09,1.09,0,1,1-2.161,0A1.167,1.167,0,0,1,17.564,2.235Z" transform="translate(-5.452 -0.001)" fill="#248abf"/>
    <path id="Trazado_1177196" data-name="Trazado 1177196" d="M40.021,11.963a3.766,3.766,0,0,1,2.662-.728c1.6,0,2.666.4,2.871,1.123C46.9,17.062,47,18.1,47,18.3c0,.735-.569.728-.888-.409-.259-.926-.625-3.169-.63-3.192a.617.617,0,0,0-1.225.139c.189,2.959.547,8.753.547,9.493,0,.322-.066.462-.11.48-.475,0-.513,0-.759-1.3l-.64-3.631a.63.63,0,0,0-1.235,0l-.6,3.434-.038.2c-.247,1.3-.285,1.3-.78,1.3a.568.568,0,0,1-.08-.294.617.617,0,0,0-1.228.123c.129,1.3,1.049,1.4,1.33,1.4,1.536,0,1.738-1.066,1.975-2.3l.04-.232.044.234c.235,1.235.436,2.3,1.975,2.3.65,0,1.345-.451,1.345-1.715,0-.453-.117-2.519-.243-4.617a1.705,1.705,0,0,0,1.049.3c.642,0,1.391-.448,1.391-1.71a38.51,38.51,0,0,0-1.51-6.33C46.365,10.7,44.928,10,42.683,10A4.915,4.915,0,0,0,39.1,11.138a.617.617,0,1,0,.919.824Z" transform="translate(-14.52 -3.445)" fill="#248abf"/>
    <path id="Trazado_1177197" data-name="Trazado 1177197" d="M11.391,20.014a1.705,1.705,0,0,0,1.049-.3c-.123,2.1-.243,4.164-.243,4.617,0,1.264.694,1.715,1.345,1.715,1.554,0,1.732-1.053,2.013-2.531.283,1.488.456,2.531,2.016,2.531.279,0,1.2-.1,1.33-1.4a.617.617,0,1,0-1.228-.123c-.023.229-.079.3-.1.288-.475,0-.513,0-.759-1.3l-.64-3.629a.63.63,0,0,0-1.235,0l-.6,3.434c-.317,1.467-.247,1.493-.818,1.5a.885.885,0,0,1-.089-.486c0-.741.358-6.534.547-9.493a.617.617,0,0,0-1.225-.139c0,.023-.37,2.267-.63,3.192-.325,1.157-.888,1.137-.888.409,0-.206.1-1.242,1.462-5.988.193-.678,1.262-1.082,2.859-1.082a3.766,3.766,0,0,1,2.662.728.617.617,0,1,0,.919-.824A4.915,4.915,0,0,0,15.556,10c-2.245,0-3.682.7-4.059,2.019A38.243,38.243,0,0,0,10,18.3C10,19.569,10.749,20.014,11.391,20.014Z" transform="translate(-3.444 -3.445)" fill="#248abf"/>
  </g>
</svg>
