<svg xmlns="http://www.w3.org/2000/svg" xmlns:xlink="http://www.w3.org/1999/xlink" width="113" height="113" viewBox="0 0 113 113">
  <defs>
    <filter id="Trazado_982547" x="0" y="0" width="113" height="113" filterUnits="userSpaceOnUse">
      <feOffset dy="3" input="SourceAlpha"/>
      <feGaussianBlur stdDeviation="3" result="blur"/>
      <feFlood flood-opacity="0.161"/>
      <feComposite operator="in" in2="blur"/>
      <feComposite in="SourceGraphic"/>
    </filter>
  </defs>
  <g id="Grupo_1223233" data-name="Grupo 1223233" transform="translate(-793.98 -5331.026)">
    <g id="Grupo_1211415" data-name="Grupo 1211415" transform="translate(802.98 5337.026)">
      <g id="Grupo_1211217" data-name="Grupo 1211217" transform="translate(0)">
        <g id="Grupo_1210736" data-name="Grupo 1210736">
          <g id="Grupo_1210537" data-name="Grupo 1210537">
            <g id="Grupo_1164202" data-name="Grupo 1164202">
              <g id="Grupo_1158168" data-name="Grupo 1158168">
                <g id="Grupo_1152576" data-name="Grupo 1152576">
                  <g id="Grupo_1148633" data-name="Grupo 1148633">
                    <g id="Grupo_1148525" data-name="Grupo 1148525">
                      <g transform="matrix(1, 0, 0, 1, -9, -6)" filter="url(#Trazado_982547)">
                        <g id="Trazado_982547-2" data-name="Trazado 982547" transform="translate(9 6)" fill="#fcf5f0">
                          <path d="M 47.49999618530273 93.5 C 41.28936767578125 93.5 35.26533126831055 92.28396606445312 29.59518241882324 89.88570404052734 C 24.11771583557129 87.56893157958984 19.19812965393066 84.251953125 14.97308921813965 80.02690124511719 C 10.74803638458252 75.80186462402344 7.431062698364258 70.88227844238281 5.114289283752441 65.40480804443359 C 2.716022968292236 59.73466110229492 1.499996185302734 53.71062469482422 1.499996185302734 47.49999618530273 C 1.499996185302734 41.28936767578125 2.716022968292236 35.26533126831055 5.114289283752441 29.59518241882324 C 7.431062698364258 24.11771583557129 10.74803638458252 19.19812965393066 14.97308921813965 14.97308921813965 C 19.19812965393066 10.74803638458252 24.11771583557129 7.431062698364258 29.59518241882324 5.114289283752441 C 35.26533126831055 2.716022968292236 41.28936767578125 1.499996185302734 47.49999618530273 1.499996185302734 C 53.71062469482422 1.499996185302734 59.73466110229492 2.716022968292236 65.40480804443359 5.114289283752441 C 70.88227844238281 7.431062698364258 75.80186462402344 10.74803638458252 80.02690124511719 14.97308921813965 C 84.251953125 19.19812965393066 87.56893157958984 24.11771583557129 89.88570404052734 29.59518241882324 C 92.28396606445312 35.26533126831055 93.5 41.28936767578125 93.5 47.49999618530273 C 93.5 53.71062469482422 92.28396606445312 59.73466110229492 89.88570404052734 65.40480804443359 C 87.56893157958984 70.88227844238281 84.251953125 75.80186462402344 80.02690124511719 80.02690124511719 C 75.80186462402344 84.251953125 70.88227844238281 87.56893157958984 65.40480804443359 89.88570404052734 C 59.73466110229492 92.28396606445312 53.71062469482422 93.5 47.49999618530273 93.5 Z" stroke="none"/>
                          <path d="M 47.49999618530273 2.999992370605469 C 41.4912109375 2.999992370605469 35.66376495361328 4.1761474609375 30.17950439453125 6.495796203613281 C 24.88084411621094 8.736953735351562 20.12152099609375 11.94598388671875 16.03375244140625 16.03375244140625 C 11.94598388671875 20.12152099609375 8.736953735351562 24.88084411621094 6.495796203613281 30.17950439453125 C 4.1761474609375 35.66376495361328 2.999992370605469 41.4912109375 2.999992370605469 47.49999618530273 C 2.999992370605469 53.50878143310547 4.1761474609375 59.33622741699219 6.495796203613281 64.82048797607422 C 8.736953735351562 70.11914825439453 11.94598388671875 74.87847137451172 16.03375244140625 78.96623992919922 C 20.12152099609375 83.05400848388672 24.88084411621094 86.26304626464844 30.17950439453125 88.50419616699219 C 35.66376495361328 90.82384490966797 41.4912109375 92 47.49999618530273 92 C 53.50878143310547 92 59.33622741699219 90.82384490966797 64.82048797607422 88.50419616699219 C 70.11914825439453 86.26304626464844 74.87847137451172 83.05400848388672 78.96623992919922 78.96623992919922 C 83.05400848388672 74.87847137451172 86.26304626464844 70.11914825439453 88.50419616699219 64.82048797607422 C 90.82384490966797 59.33622741699219 92 53.50878143310547 92 47.49999618530273 C 92 41.4912109375 90.82384490966797 35.66376495361328 88.50419616699219 30.17950439453125 C 86.26304626464844 24.88084411621094 83.05400848388672 20.12152099609375 78.96623992919922 16.03375244140625 C 74.87847137451172 11.94598388671875 70.11914825439453 8.736953735351562 64.82048797607422 6.495796203613281 C 59.33622741699219 4.1761474609375 53.50878143310547 2.999992370605469 47.49999618530273 2.999992370605469 M 47.49999618530273 -7.62939453125e-06 C 73.7335205078125 -7.62939453125e-06 95 21.26647186279297 95 47.49999618530273 C 95 73.7335205078125 73.7335205078125 95 47.49999618530273 95 C 21.26647186279297 95 -7.62939453125e-06 73.7335205078125 -7.62939453125e-06 47.49999618530273 C -7.62939453125e-06 21.26647186279297 21.26647186279297 -7.62939453125e-06 47.49999618530273 -7.62939453125e-06 Z" stroke="none" fill="#eca675"/>
                        </g>
                      </g>
                    </g>
                  </g>
                </g>
              </g>
            </g>
          </g>
        </g>
      </g>
    </g>
    <g id="brand-awareness_17226239" transform="translate(814.867 5345.425)">
      <path id="Trazado_1177198" data-name="Trazado 1177198" d="M27.394,204.086H81.021a2.667,2.667,0,0,0,2.655-2.659V171.565a2.665,2.665,0,0,0-2.655-2.659H27.394a2.666,2.666,0,0,0-2.659,2.659v29.863a2.668,2.668,0,0,0,2.659,2.659Z" transform="translate(-18.102 -143.904)" fill="#4b4359" fill-rule="evenodd"/>
      <path id="Trazado_1177199" data-name="Trazado 1177199" d="M27.394,204.086H78.247a2.668,2.668,0,0,0,2.659-2.659V171.565a2.666,2.666,0,0,0-2.659-2.659H27.394a2.666,2.666,0,0,0-2.659,2.659v29.863a2.668,2.668,0,0,0,2.659,2.659Z" transform="translate(-18.102 -143.904)" fill="#574e66" fill-rule="evenodd"/>
      <path id="Trazado_1177200" data-name="Trazado 1177200" d="M55.463,199.661h51.11V227H55.463Z" transform="translate(-44.914 -170.74)" fill="#96d3ff"/>
      <path id="Trazado_1177201" data-name="Trazado 1177201" d="M13.633,452.24H69.059a3.646,3.646,0,0,0,3.634-3.634v-3.634H9.995v3.634a3.647,3.647,0,0,0,3.638,3.634Z" transform="translate(-5.241 -384.79)" fill="#e1dae7" fill-rule="evenodd"/>
      <path id="Trazado_1177202" data-name="Trazado 1177202" d="M13.633,452.24H66.285a3.647,3.647,0,0,0,3.638-3.634v-3.634H10v3.634a3.647,3.647,0,0,0,3.638,3.634Z" transform="translate(-5.241 -384.79)" fill="#ebe6ef" fill-rule="evenodd"/>
      <path id="Trazado_1177203" data-name="Trazado 1177203" d="M194.024,448.606h12.625a1.823,1.823,0,0,0,1.817-1.817v-1.817H192.207v1.817A1.823,1.823,0,0,0,194.024,448.606Z" transform="translate(-164.233 -384.79)" fill="#40374f" fill-rule="evenodd"/>
      <path id="Trazado_1177204" data-name="Trazado 1177204" d="M194.024,448.606h9.565a1.824,1.824,0,0,0,1.821-1.817v-1.817h-13.2v1.817A1.821,1.821,0,0,0,194.024,448.606Z" transform="translate(-164.233 -384.79)" fill="#4b4359" fill-rule="evenodd"/>
      <path id="Trazado_1177205" data-name="Trazado 1177205" d="M432.953,199.661h3.005V227h-3.005Z" transform="translate(-374.3 -170.74)" fill="#74c3fc"/>
      <g id="Grupo_1223232" data-name="Grupo 1223232" transform="translate(16.103 4.755)">
        <path id="Trazado_1177206" data-name="Trazado 1177206" d="M268.115,374.9h-10.7a1.407,1.407,0,0,0-1.405,1.405v2.2a1.41,1.41,0,0,0,1.405,1.409h10.7a1.41,1.41,0,0,0,1.405-1.409v-2.2A1.409,1.409,0,0,0,268.115,374.9Z" transform="translate(-236.012 -328.402)" fill="#3198fc" fill-rule="evenodd"/>
        <path id="Trazado_1177207" data-name="Trazado 1177207" d="M265.817,374.9h-8.4a1.407,1.407,0,0,0-1.405,1.405v2.2a1.41,1.41,0,0,0,1.405,1.409h8.391C265.809,378.273,265.809,376.163,265.817,374.9Z" transform="translate(-236.011 -328.402)" fill="#4bb3fd" fill-rule="evenodd"/>
        <path id="Trazado_1177208" data-name="Trazado 1177208" d="M280.907,158.169c-.087-2.547,1.607-3.569,3.233-5.129,2.6-2.5,4.851-4.92,5.194-7.167.21-1.362.061-13.615-.831-16.562-.553-1.828-1.43-3.1-2.778-2.731-.9.2-1.691,1.268-1.68,3.251.022,3.374.148,8.868-.69,12.1-1.821-3.168-9.255,3.822-10.577,5.624-1.557,2.117-1.463,6.365-1.34,10.609h9.468Z" transform="translate(-249.418 -111.672)" fill="#f6b4a8" fill-rule="evenodd"/>
        <path id="Trazado_1177209" data-name="Trazado 1177209" d="M285.7,127.065c-.885.21-1.662,1.282-1.651,3.244.022,3.374.148,8.868-.69,12.1-1.821-3.168-9.255,3.822-10.577,5.624-1.557,2.117-1.463,6.365-1.34,10.609h7.784c0-.636,0-1.058.007-1.1.173-2.124,1.727-3.107,3.219-4.541,2.6-2.5,4.851-4.916,5.194-7.163.21-1.365.061-13.615-.827-16.566a5.672,5.672,0,0,0-1.12-2.214Z" transform="translate(-249.418 -112.15)" fill="#f9c9c0" fill-rule="evenodd"/>
        <path id="Trazado_1177210" data-name="Trazado 1177210" d="M151.4,374.9h10.7a1.412,1.412,0,0,1,1.409,1.405l0,2.2a1.41,1.41,0,0,1-1.405,1.409H151.4A1.41,1.41,0,0,1,150,378.5v-2.2A1.409,1.409,0,0,1,151.4,374.9Z" transform="translate(-143.506 -328.402)" fill="#3198fc" fill-rule="evenodd"/>
        <path id="Trazado_1177211" data-name="Trazado 1177211" d="M179.053,374.9h8.4a1.412,1.412,0,0,1,1.409,1.405l0,2.2a1.41,1.41,0,0,1-1.405,1.409H179.06c0-1.636,0-3.746-.007-5.01Z" transform="translate(-168.858 -328.402)" fill="#4bb3fd" fill-rule="evenodd"/>
        <path id="Trazado_1177212" data-name="Trazado 1177212" d="M107.563,158.169c.087-2.547-1.607-3.569-3.233-5.129-2.6-2.5-4.851-4.92-5.194-7.167-.209-1.362-.061-13.615.831-16.562.553-1.828,1.43-3.1,2.778-2.731.9.2,1.691,1.268,1.68,3.251-.022,3.374-.148,8.868.69,12.1,1.821-3.168,9.255,3.822,10.577,5.624,1.557,2.117,1.463,6.365,1.34,10.609h-9.468Z" transform="translate(-99.052 -111.672)" fill="#f6b4a8" fill-rule="evenodd"/>
        <path id="Trazado_1177213" data-name="Trazado 1177213" d="M114.348,127.065c.885.21,1.662,1.282,1.651,3.244-.022,3.374-.148,8.868.69,12.1,1.821-3.168,9.255,3.822,10.577,5.624,1.557,2.117,1.463,6.365,1.34,10.609h-7.784c0-.636,0-1.058-.007-1.1-.173-2.124-1.727-3.107-3.219-4.541-2.6-2.5-4.851-4.916-5.194-7.163-.209-1.365-.061-13.615.827-16.566a5.672,5.672,0,0,1,1.12-2.214Z" transform="translate(-110.626 -112.15)" fill="#f9c9c0" fill-rule="evenodd"/>
        <path id="Trazado_1177214" data-name="Trazado 1177214" d="M186.581,122.276l-3.19,11.9,3.771-1.008,2.76,2.76,3.186-11.9Z" transform="translate(-172.643 -107.971)" fill="#eb3100" fill-rule="evenodd"/>
        <path id="Trazado_1177215" data-name="Trazado 1177215" d="M186.581,122.276l-3.19,11.9,3.771-1.008,2.684-10.017Z" transform="translate(-172.643 -107.971)" fill="#f24c00" fill-rule="evenodd"/>
        <path id="Trazado_1177216" data-name="Trazado 1177216" d="M258.577,121.2l3.226,12.036-3.771-1.008-2.76,2.76-3.226-12.04Z" transform="translate(-232.55 -107.031)" fill="#eb3100" fill-rule="evenodd"/>
        <path id="Trazado_1177217" data-name="Trazado 1177217" d="M258.031,138.212l-2.76,2.76-3.226-12.04,3.265-.874Z" transform="translate(-232.55 -113.017)" fill="#f24c00" fill-rule="evenodd"/>
        <path id="Trazado_1177218" data-name="Trazado 1177218" d="M188.145,10.631a2.168,2.168,0,0,1,3.009,0,1.806,1.806,0,0,0,1.734.462A2.172,2.172,0,0,1,195.5,12.6a1.812,1.812,0,0,0,1.264,1.268,2.138,2.138,0,0,1,1.279,1,2.163,2.163,0,0,1,.228,1.607,1.813,1.813,0,0,0,.466,1.73,2.173,2.173,0,0,1,0,3.013,1.81,1.81,0,0,0-.466,1.73,2.172,2.172,0,0,1-1.506,2.608,1.8,1.8,0,0,0-1.264,1.268,2.175,2.175,0,0,1-1,1.279,2.149,2.149,0,0,1-1.607.224,1.817,1.817,0,0,0-1.734.466,2.168,2.168,0,0,1-3.009,0,1.813,1.813,0,0,0-1.73-.466,2.167,2.167,0,0,1-2.612-1.5,1.8,1.8,0,0,0-1.264-1.268,2.172,2.172,0,0,1-1.506-2.608,1.8,1.8,0,0,0-.466-1.73,2.173,2.173,0,0,1,0-3.013,1.8,1.8,0,0,0,.466-1.73,2.172,2.172,0,0,1,1.506-2.608A1.812,1.812,0,0,0,183.8,12.6a2.173,2.173,0,0,1,2.612-1.506,1.8,1.8,0,0,0,1.73-.462Z" transform="translate(-169.65 -10.024)" fill="#ffb122" fill-rule="evenodd"/>
        <path id="Trazado_1177219" data-name="Trazado 1177219" d="M188.146,14.638l.018-.022a2.059,2.059,0,0,1,1.044.538,1.7,1.7,0,0,0,1.629.437,2.052,2.052,0,0,1,2.46,1.42,1.707,1.707,0,0,0,1.2,1.2,2.044,2.044,0,0,1,1.42,2.46,1.706,1.706,0,0,0,.437,1.633,2.042,2.042,0,0,1,0,2.839,1.7,1.7,0,0,0-.437,1.633,2.043,2.043,0,0,1-1.42,2.456,1.72,1.72,0,0,0-1.2,1.2,2.044,2.044,0,0,1-2.46,1.42,1.705,1.705,0,0,0-1.629.437,2.007,2.007,0,0,1-1.044.538l-.018-.018a1.813,1.813,0,0,0-1.73-.466,2.167,2.167,0,0,1-2.612-1.5,1.8,1.8,0,0,0-1.264-1.268,2.172,2.172,0,0,1-1.506-2.608,1.8,1.8,0,0,0-.466-1.73,2.173,2.173,0,0,1,0-3.013,1.8,1.8,0,0,0,.466-1.73,2.172,2.172,0,0,1,1.506-2.608,1.812,1.812,0,0,0,1.264-1.268,2.173,2.173,0,0,1,2.612-1.506,1.8,1.8,0,0,0,1.73-.462Z" transform="translate(-169.65 -14.031)" fill="#ffc738" fill-rule="evenodd"/>
        <path id="Trazado_1177220" data-name="Trazado 1177220" d="M229.87,63.744a3.815,3.815,0,1,0-3.818-3.815A3.823,3.823,0,0,0,229.87,63.744Z" transform="translate(-209.868 -50.242)" fill="#f28d00" fill-rule="evenodd"/>
        <path id="Trazado_1177221" data-name="Trazado 1177221" d="M228.9,64.462a3.817,3.817,0,1,1,2.846-3.692,3.818,3.818,0,0,1-2.846,3.692Z" transform="translate(-209.868 -51.083)" fill="#ff9b0d" fill-rule="evenodd"/>
      </g>
      <path id="Trazado_1177222" data-name="Trazado 1177222" d="M36.105,11.391a3.051,3.051,0,1,1-3.052,3.049A3.054,3.054,0,0,1,36.105,11.391Zm0,7.633a4.582,4.582,0,1,0-4.584-4.584A4.587,4.587,0,0,0,36.105,19.024ZM66.687,63.816a2.87,2.87,0,0,1-2.868,2.868H8.392A2.874,2.874,0,0,1,5.52,63.816V60.944H27.208V62a2.588,2.588,0,0,0,2.583,2.586H42.416A2.588,2.588,0,0,0,45,62V60.944H66.687v2.872ZM28.74,60.944H43.467V62a1.053,1.053,0,0,1-1.051,1.055H29.791A1.055,1.055,0,0,1,28.74,62V60.944ZM7.4,57.52V27.657a1.9,1.9,0,0,1,1.893-1.893h6.444c-.069.748-.126,1.553-.177,2.388h-5.01a.766.766,0,0,0-.766.766V56.259a.764.764,0,0,0,.766.766h51.11a.764.764,0,0,0,.766-.766V28.918a.766.766,0,0,0-.766-.766h-5.01c-.047-.834-.1-1.64-.173-2.388h6.444a1.894,1.894,0,0,1,1.889,1.893V57.52a1.894,1.894,0,0,1-1.889,1.893H9.291A1.9,1.9,0,0,1,7.4,57.52ZM17.751,22.614c.347-1.145.946-2.456,1.846-2.214a.107.107,0,0,0,.032.007c.545.123,1.091.943,1.08,2.5,0,.274,0,.564-.007.863-.029,3.424-.069,8.077.654,11.155-.82,1.943,1.582,4.555,3.515,6.39a.765.765,0,1,0,1.055-1.109c-3.562-3.385-3.284-4.512-3.114-4.779a.077.077,0,0,0,.011-.018s0-.007.007-.011a.79.79,0,0,1,.715-.426c2.341-.13,7.42,4.537,8.579,6.119,1.34,1.817,1.315,5.747,1.214,9.388H25.355c-.206-1.983-1.459-3.114-2.677-4.212-.253-.228-.513-.459-.766-.7-2.236-2.149-4.645-4.616-4.967-6.73-.123-.795-.112-5.577.1-9.836a.7.7,0,0,0,0-.087v0c.072-1.362.163-2.666.278-3.768.007-.04.011-.083.014-.126a14.782,14.782,0,0,1,.4-2.406Zm9.7,3.15-.639,2.388H22.245c-.018-.813-.022-1.622-.022-2.388Zm.928-6.863a1.388,1.388,0,0,1-.148-1.037,2.582,2.582,0,0,0-.657-2.449,1.4,1.4,0,0,1,0-1.947,2.577,2.577,0,0,0,.657-2.449,1.405,1.405,0,0,1,.975-1.687,2.564,2.564,0,0,0,1.788-1.788,1.389,1.389,0,0,1,.647-.827,1.413,1.413,0,0,1,1.047-.148,2.57,2.57,0,0,0,2.442-.657,1.4,1.4,0,0,1,1.947,0,2.59,2.59,0,0,0,2.449.657,1.41,1.41,0,0,1,1.044.148,1.384,1.384,0,0,1,.643.827A2.571,2.571,0,0,0,43,9.332a1.407,1.407,0,0,1,.975,1.691,2.583,2.583,0,0,0,.657,2.445,1.4,1.4,0,0,1,0,1.947,2.585,2.585,0,0,0-.657,2.445,1.408,1.408,0,0,1-.148,1.044,1.373,1.373,0,0,1-.831.647,2.561,2.561,0,0,0-1.781,1.788,1.413,1.413,0,0,1-1.691.979,2.58,2.58,0,0,0-2.453.654,1.367,1.367,0,0,1-.968.394,1.392,1.392,0,0,1-.979-.4,2.569,2.569,0,0,0-1.792-.733,2.526,2.526,0,0,0-.65.083,1.407,1.407,0,0,1-1.691-.975A2.612,2.612,0,0,0,30.5,20.4l-.011-.011a2.621,2.621,0,0,0-1.29-.842,1.366,1.366,0,0,1-.824-.647Zm21.6,6.863c0,.766,0,1.575-.018,2.388H45.4l-.639-2.388Zm2.594-5.357a.1.1,0,0,0,.032-.007c.9-.242,1.5,1.069,1.846,2.214a14.777,14.777,0,0,1,.4,2.406c0,.043.007.083.014.126.116,1.1.206,2.406.278,3.768v0c0,.029,0,.058,0,.087.22,4.262.231,9.041.108,9.836-.325,2.113-2.734,4.58-4.971,6.726-.253.246-.513.477-.766.7-1.214,1.1-2.471,2.229-2.677,4.212H38.868c-.1-3.641-.123-7.571,1.214-9.388,1.16-1.582,6.242-6.253,8.579-6.119a.791.791,0,0,1,.715.426s.007.007.007.011a.078.078,0,0,0,.011.018c.17.267.448,1.394-3.114,4.779a.765.765,0,0,0,1.055,1.109c3.023-2.868,4.15-4.916,3.518-6.394a47.735,47.735,0,0,0,.661-9.89V25a.15.15,0,0,0,0-.04c0-.4,0-.788-.007-1.16,0-.307,0-.607-.007-.889-.007-1.561.538-2.38,1.08-2.5ZM48.4,50.494c.188-1.308,1.04-2.077,2.157-3.085.26-.235.531-.477.8-.737,3.081-2.962,5.064-5.267,5.422-7.6a93.15,93.15,0,0,0-.051-9.388h4.165v25.81H50.28a2.077,2.077,0,0,0,.1-.639v-2.2a2.173,2.173,0,0,0-1.98-2.164ZM34.722,24.749c-.011.036-.022.072-.029.108L32.984,31.23l-1.821-1.821a.769.769,0,0,0-.741-.2l-2.489.665.191-.715a.944.944,0,0,0,.025-.1l1.741-6.5A2.943,2.943,0,0,0,33.056,23.8a1.041,1.041,0,0,1,1.008.267,2.9,2.9,0,0,0,.7.506l-.047.173Zm1.315,1.015h.137l.639,2.388h-1.42Zm6.278-3.2,1.741,6.5a.979.979,0,0,0,.025.1l.191.715-2.489-.665a.768.768,0,0,0-.741.2L39.226,31.23l-1.712-6.376c-.007-.032-.014-.069-.025-.1l-.047-.177a2.839,2.839,0,0,0,.694-.5,1.054,1.054,0,0,1,1.022-.274,2.93,2.93,0,0,0,3.157-1.235ZM22.657,33.617a33.8,33.8,0,0,1-.365-3.934H26.4l-.289,1.08a.77.77,0,0,0,.2.737.762.762,0,0,0,.741.2l3.345-.892,2.446,2.442a.763.763,0,0,0,.542.224.753.753,0,0,0,.2-.025.774.774,0,0,0,.542-.542l.863-3.222h2.24l.863,3.222a.768.768,0,0,0,.542.542.774.774,0,0,0,.741-.2l2.446-2.442,3.341.892a.762.762,0,0,0,.741-.2.753.753,0,0,0,.2-.737l-.289-1.08h4.107a33.8,33.8,0,0,1-.365,3.934,2.5,2.5,0,0,0-.8-.17c-3.28-.184-8.843,5.3-9.9,6.741-1.636,2.222-1.622,6.271-1.51,10.306A2.154,2.154,0,0,0,36.105,51a2.154,2.154,0,0,0-1.235-.509c.112-4.035.126-8.084-1.51-10.306-1.055-1.438-6.625-6.921-9.9-6.741a2.5,2.5,0,0,0-.8.17Zm-7.228,5.454c.358,2.334,2.341,4.638,5.422,7.6.271.26.542.5.8.737,1.116,1.008,1.969,1.777,2.157,3.085a2.176,2.176,0,0,0-1.98,2.164v2.2a2.077,2.077,0,0,0,.1.639H11.314V29.684h4.165a93.15,93.15,0,0,0-.051,9.388ZM24,55.493a.638.638,0,0,1-.639-.639v-2.2A.641.641,0,0,1,24,52.015H34.7a.644.644,0,0,1,.643.643V54.85a.642.642,0,0,1-.643.643Zm13.51,0a.638.638,0,0,1-.639-.639v-2.2a.648.648,0,0,1,.639-.639h10.7a.641.641,0,0,1,.639.643v2.2a.638.638,0,0,1-.639.639H37.51Zm29.942,3.919H65.769a3.4,3.4,0,0,0,.571-1.893V27.657a3.429,3.429,0,0,0-3.421-3.424h-6.61a13.616,13.616,0,0,0-.387-2.063c-1.03-3.4-2.749-3.5-3.7-3.255-1.105.256-2.276,1.441-2.261,4.006,0,.282,0,.582.007.892,0,.137,0,.278,0,.419H44.349L43.482,21A2.929,2.929,0,0,0,45.465,17.5a1.045,1.045,0,0,1,.274-1.019,2.936,2.936,0,0,0,0-4.071,1.043,1.043,0,0,1-.274-1.019,2.932,2.932,0,0,0-2.037-3.526,1.037,1.037,0,0,1-.741-.744,2.936,2.936,0,0,0-3.526-2.037,1.056,1.056,0,0,1-1.022-.271,2.927,2.927,0,0,0-4.071,0,1.045,1.045,0,0,1-1.015.271A2.942,2.942,0,0,0,29.52,7.121a1.032,1.032,0,0,1-.741.741,2.936,2.936,0,0,0-2.037,3.526,1.037,1.037,0,0,1-.274,1.019,2.936,2.936,0,0,0,0,4.071,1.037,1.037,0,0,1,.274,1.019A2.933,2.933,0,0,0,28.726,21l-.867,3.229H22.231c0-.152,0-.3,0-.444,0-.3.007-.592.007-.867.014-2.568-1.156-3.75-2.261-4.006-.946-.249-2.666-.145-3.7,3.255a13.615,13.615,0,0,0-.387,2.063H9.292a3.429,3.429,0,0,0-3.424,3.424V57.52a3.373,3.373,0,0,0,.574,1.893H4.755a.766.766,0,0,0-.766.766v3.638a4.406,4.406,0,0,0,4.4,4.4H63.819a4.4,4.4,0,0,0,4.4-4.4V60.178a.766.766,0,0,0-.766-.766Z" fill="#070202"/>
    </g>
  </g>
</svg>
