<svg xmlns="http://www.w3.org/2000/svg" xmlns:xlink="http://www.w3.org/1999/xlink" width="113" height="113" viewBox="0 0 113 113">
  <defs>
    <filter id="Trazado_982547" x="0" y="0" width="113" height="113" filterUnits="userSpaceOnUse">
      <feOffset dy="3" input="SourceAlpha"/>
      <feGaussianBlur stdDeviation="3" result="blur"/>
      <feFlood flood-opacity="0.161"/>
      <feComposite operator="in" in2="blur"/>
      <feComposite in="SourceGraphic"/>
    </filter>
  </defs>
  <g id="Grupo_1223660" data-name="Grupo 1223660" transform="translate(-4770.49 -3848.71)">
    <g id="Grupo_1223178" data-name="Grupo 1223178" transform="translate(4779.49 3854.71)">
      <g id="Grupo_1211216" data-name="Grupo 1211216" transform="translate(0)">
        <g id="Grupo_1210737" data-name="Grupo 1210737">
          <g id="Grupo_1210537" data-name="Grupo 1210537">
            <g id="Grupo_1164202" data-name="Grupo 1164202">
              <g id="Grupo_1158168" data-name="Grupo 1158168">
                <g id="Grupo_1152576" data-name="Grupo 1152576">
                  <g id="Grupo_1148633" data-name="Grupo 1148633">
                    <g id="Grupo_1148525" data-name="Grupo 1148525">
                      <g transform="matrix(1, 0, 0, 1, -9, -6)" filter="url(#Trazado_982547)">
                        <g id="Trazado_982547-2" data-name="Trazado 982547" transform="translate(9 6)" fill="#fcf5f0">
                          <path d="M 47.49999618530273 93.5 C 41.28936767578125 93.5 35.26533126831055 92.28396606445312 29.59518241882324 89.88570404052734 C 24.11771583557129 87.56893157958984 19.19812965393066 84.251953125 14.97308921813965 80.02690124511719 C 10.74803638458252 75.80186462402344 7.431062698364258 70.88227844238281 5.114289283752441 65.40480804443359 C 2.716022968292236 59.73466110229492 1.499996185302734 53.71062469482422 1.499996185302734 47.49999618530273 C 1.499996185302734 41.28936767578125 2.716022968292236 35.26533126831055 5.114289283752441 29.59518241882324 C 7.431062698364258 24.11771583557129 10.74803638458252 19.19812965393066 14.97308921813965 14.97308921813965 C 19.19812965393066 10.74803638458252 24.11771583557129 7.431062698364258 29.59518241882324 5.114289283752441 C 35.26533126831055 2.716022968292236 41.28936767578125 1.499996185302734 47.49999618530273 1.499996185302734 C 53.71062469482422 1.499996185302734 59.73466110229492 2.716022968292236 65.40480804443359 5.114289283752441 C 70.88227844238281 7.431062698364258 75.80186462402344 10.74803638458252 80.02690124511719 14.97308921813965 C 84.251953125 19.19812965393066 87.56893157958984 24.11771583557129 89.88570404052734 29.59518241882324 C 92.28396606445312 35.26533126831055 93.5 41.28936767578125 93.5 47.49999618530273 C 93.5 53.71062469482422 92.28396606445312 59.73466110229492 89.88570404052734 65.40480804443359 C 87.56893157958984 70.88227844238281 84.251953125 75.80186462402344 80.02690124511719 80.02690124511719 C 75.80186462402344 84.251953125 70.88227844238281 87.56893157958984 65.40480804443359 89.88570404052734 C 59.73466110229492 92.28396606445312 53.71062469482422 93.5 47.49999618530273 93.5 Z" stroke="none"/>
                          <path d="M 47.49999618530273 2.999992370605469 C 41.4912109375 2.999992370605469 35.66376495361328 4.1761474609375 30.17950439453125 6.495796203613281 C 24.88084411621094 8.736953735351562 20.12152099609375 11.94598388671875 16.03375244140625 16.03375244140625 C 11.94598388671875 20.12152099609375 8.736953735351562 24.88084411621094 6.495796203613281 30.17950439453125 C 4.1761474609375 35.66376495361328 2.999992370605469 41.4912109375 2.999992370605469 47.49999618530273 C 2.999992370605469 53.50878143310547 4.1761474609375 59.33622741699219 6.495796203613281 64.82048797607422 C 8.736953735351562 70.11914825439453 11.94598388671875 74.87847137451172 16.03375244140625 78.96623992919922 C 20.12152099609375 83.05400848388672 24.88084411621094 86.26304626464844 30.17950439453125 88.50419616699219 C 35.66376495361328 90.82384490966797 41.4912109375 92 47.49999618530273 92 C 53.50878143310547 92 59.33622741699219 90.82384490966797 64.82048797607422 88.50419616699219 C 70.11914825439453 86.26304626464844 74.87847137451172 83.05400848388672 78.96623992919922 78.96623992919922 C 83.05400848388672 74.87847137451172 86.26304626464844 70.11914825439453 88.50419616699219 64.82048797607422 C 90.82384490966797 59.33622741699219 92 53.50878143310547 92 47.49999618530273 C 92 41.4912109375 90.82384490966797 35.66376495361328 88.50419616699219 30.17950439453125 C 86.26304626464844 24.88084411621094 83.05400848388672 20.12152099609375 78.96623992919922 16.03375244140625 C 74.87847137451172 11.94598388671875 70.11914825439453 8.736953735351562 64.82048797607422 6.495796203613281 C 59.33622741699219 4.1761474609375 53.50878143310547 2.999992370605469 47.49999618530273 2.999992370605469 M 47.49999618530273 -7.62939453125e-06 C 73.7335205078125 -7.62939453125e-06 95 21.26647186279297 95 47.49999618530273 C 95 73.7335205078125 73.7335205078125 95 47.49999618530273 95 C 21.26647186279297 95 -7.62939453125e-06 73.7335205078125 -7.62939453125e-06 47.49999618530273 C -7.62939453125e-06 21.26647186279297 21.26647186279297 -7.62939453125e-06 47.49999618530273 -7.62939453125e-06 Z" stroke="none" fill="#eca675"/>
                        </g>
                      </g>
                    </g>
                  </g>
                </g>
              </g>
            </g>
          </g>
        </g>
      </g>
    </g>
    <g id="Layer_x0020_1" transform="translate(4737.765 3868.803)">
      <path id="Trazado_1178114" data-name="Trazado 1178114" d="M86.7,59.471v7.6l1.88-1.75a.971.971,0,0,1,1.313,0l1.88,1.75v-7.6A10.735,10.735,0,0,1,86.7,59.471Zm27.321-2.787H96.565a10.228,10.228,0,0,1-2.884,2.074V69.291a.972.972,0,0,1-1.62.7L89.24,67.33,86.4,69.987a.972.972,0,0,1-1.62-.7V58.758A10.228,10.228,0,0,1,81.9,56.683H64.447a7.13,7.13,0,1,1,0-14.26H81.9a10.28,10.28,0,0,1,14.665,0h17.452a7.13,7.13,0,1,1,0,14.26ZM97,52.486a8.311,8.311,0,1,0-15.54.032A8.328,8.328,0,0,0,97,52.486Zm1.037,2.269h15.978a5.21,5.21,0,1,0,0-10.42H98.039A10.331,10.331,0,0,1,98.039,54.755ZM64.447,44.336a5.21,5.21,0,1,0,0,10.42H80.425a10.293,10.293,0,0,1,0-10.42ZM88.122,24.777c-1.021-.178-11.408-3.954-15.167-5.3L71.8,24.712c3.241,0,9.4.794,16.318,5.72,6.936-4.926,13.093-5.72,16.334-5.72l-1.151-5.234C99.53,20.823,89.175,24.6,88.122,24.777Zm-17-5.947c-7.114-2.544-14.066-5.04-15.492-5.542a.956.956,0,0,1,0-1.8L87.814.049a1.051,1.051,0,0,1,.632,0c3.079,1.1,32.1,11.295,32.458,11.6a.913.913,0,0,1,.356.729V25.068c3.371,1.345,2.69,8.005-.956,8.005-3.662,0-4.343-6.66-.972-8.005V13.741c-1.313.47-7.616,2.739-14.2,5.088l2.852,13.028a.963.963,0,0,1-1.183.94c-3.759-.762-11.068.356-18.1,5.574a1,1,0,0,1-1.151,0C80.522,33.138,73.23,32.036,69.438,32.8A.963.963,0,0,1,68.3,31.647ZM120.3,26.8c-.6,0-1.248.924-1.248,2.171s.648,2.171,1.248,2.171c.583,0,1.248-.924,1.248-2.171S120.888,26.8,120.3,26.8Zm-5.574-13.45H93.615c-1.588,4.229-11.149,3.533-11.149-.972,0-4.489,9.561-5.185,11.149-.956H114.73L88.122,1.977l-29.3,10.4,29.3,10.42ZM88.122,10.5c-2.139,0-3.727,1-3.727,1.88,0,.891,1.588,1.88,3.727,1.88,2.155,0,3.743-.988,3.743-1.88C91.865,11.505,90.277,10.5,88.122,10.5Zm-.567,21.892C80.49,27.159,74.3,26.559,71.367,26.64l-.891,4.084c3.84-.275,10.468.583,17.647,5.688,7.195-5.121,13.822-5.963,17.663-5.688l-.891-4.084c-2.917-.081-9.123.519-16.188,5.753A.948.948,0,0,1,87.555,32.393ZM87.36,54.172a1.759,1.759,0,0,1-1.718-2.042l.211-1.183c-.745-.713-1.685-1.442-1.313-2.609.389-1.183,1.572-1.215,2.593-1.361.47-.94.859-2.058,2.09-2.058,1.248,0,1.637,1.118,2.09,2.058,1.037.146,2.22.178,2.609,1.345.373,1.183-.567,1.912-1.313,2.625.178,1.021.519,2.171-.486,2.884-.988.729-1.977.065-2.9-.421A4.181,4.181,0,0,1,87.36,54.172Zm-.778-5.185c1.442,1.41,1.361,1.134,1.021,3.111,1.766-.94,1.491-.94,3.257,0-.34-1.977-.421-1.7,1.021-3.111-1.993-.275-1.766-.113-2.658-1.912C88.349,48.873,88.576,48.711,86.583,48.986Z" transform="translate(0 0)" fill-rule="evenodd"/>
      <path id="Trazado_1178115" data-name="Trazado 1178115" d="M2005.021,2910.023c1.766-.94,1.491-.94,3.257,0-.34-1.977-.421-1.7,1.021-3.111-1.993-.275-1.766-.113-2.657-1.912-.875,1.8-.648,1.637-2.641,1.912C2005.442,2908.322,2005.361,2908.046,2005.021,2910.023Z" transform="translate(-1917.417 -2857.926)" fill="#ffa721" fill-rule="evenodd"/>
      <path id="Trazado_1178116" data-name="Trazado 1178116" d="M1663.342,2548.678c1.248,0,1.637,1.118,2.09,2.058,1.037.146,2.22.178,2.609,1.345.373,1.183-.567,1.912-1.313,2.625.178,1.021.519,2.172-.486,2.885-.989.729-1.977.065-2.9-.421a4.181,4.181,0,0,1-1.864.762,1.76,1.76,0,0,1-1.718-2.042l.211-1.183c-.745-.713-1.685-1.442-1.312-2.609.389-1.183,1.572-1.215,2.593-1.361C1661.721,2549.8,1662.11,2548.678,1663.342,2548.678Zm-7.762,7.6a8.311,8.311,0,1,0,7.762-11.278A8.329,8.329,0,0,0,1655.58,2556.278Z" transform="translate(-1574.118 -2503.76)" fill="#ff3131" fill-rule="evenodd"/>
      <path id="Trazado_1178117" data-name="Trazado 1178117" d="M2016.072,3670a10.731,10.731,0,0,1-5.072,0v7.6l1.88-1.75a.971.971,0,0,1,1.313,0l1.88,1.75Z" transform="translate(-1924.304 -3610.53)" fill="#ff3131" fill-rule="evenodd"/>
      <path id="Trazado_1178118" data-name="Trazado 1178118" d="M2711,2746.419h15.978a5.21,5.21,0,1,0,0-10.419H2711A10.33,10.33,0,0,1,2711,2746.419Z" transform="translate(-2612.961 -2691.665)" fill="#ccc" fill-rule="evenodd"/>
      <path id="Trazado_1178119" data-name="Trazado 1178119" d="M337.2,2746.419a10.293,10.293,0,0,1,0-10.419H321.218a5.21,5.21,0,1,0,0,10.419Z" transform="translate(-256.771 -2691.665)" fill="#ccc" fill-rule="evenodd"/>
      <path id="Trazado_1178120" data-name="Trazado 1178120" d="M1027.647,1653.373c7.195-5.121,13.822-5.963,17.663-5.688l-.891-4.083c-2.917-.081-9.123.519-16.188,5.753a.948.948,0,0,1-1.151,0c-7.065-5.234-13.255-5.834-16.188-5.753l-.891,4.083C1013.84,1647.41,1020.468,1648.268,1027.647,1653.373Z" transform="translate(-939.525 -1616.961)" fill="#ffa721" fill-rule="evenodd"/>
      <path id="Trazado_1178121" data-name="Trazado 1178121" d="M1108.318,1212.954c6.936-4.926,13.093-5.72,16.334-5.72L1123.5,1202c-3.776,1.345-14.13,5.121-15.184,5.3-1.021-.178-11.408-3.954-15.167-5.3l-1.151,5.234C1095.241,1207.234,1101.4,1208.028,1108.318,1212.954Z" transform="translate(-1020.196 -1182.522)" fill="#58535a" fill-rule="evenodd"/>
      <path id="Trazado_1178122" data-name="Trazado 1178122" d="M320.3,142.823l26.608-9.447H325.791c-1.588,4.229-11.149,3.533-11.149-.972,0-4.489,9.561-5.185,11.149-.956h21.115L320.3,122,291,132.4Z" transform="translate(-232.176 -120.023)" fill="#58535a" fill-rule="evenodd"/>
      <g id="Grupo_1223659" data-name="Grupo 1223659" transform="translate(84.395 10.501)">
        <path id="Trazado_1178123" data-name="Trazado 1178123" d="M1872.727,651.759c2.155,0,3.743-.988,3.743-1.88,0-.875-1.588-1.88-3.743-1.88-2.139,0-3.727,1-3.727,1.88C1869,650.771,1870.588,651.759,1872.727,651.759Z" transform="translate(-1869 -648)" fill="#ffa721" fill-rule="evenodd"/>
        <path id="Trazado_1178124" data-name="Trazado 1178124" d="M4009.248,1654c-.6,0-1.248.924-1.248,2.171s.648,2.171,1.248,2.171c.583,0,1.248-.924,1.248-2.171S4009.831,1654,4009.248,1654Z" transform="translate(-3973.339 -1637.698)" fill="#ffa721" fill-rule="evenodd"/>
      </g>
    </g>
  </g>
</svg>
