<svg xmlns="http://www.w3.org/2000/svg" xmlns:xlink="http://www.w3.org/1999/xlink" width="118" height="118" viewBox="0 0 118 118">
  <defs>
    <filter id="Trazado_982547" x="0" y="0" width="118" height="118" filterUnits="userSpaceOnUse">
      <feOffset dy="3" input="SourceAlpha"/>
      <feGaussianBlur stdDeviation="3" result="blur"/>
      <feFlood flood-opacity="0.161"/>
      <feComposite operator="in" in2="blur"/>
      <feComposite in="SourceGraphic"/>
    </filter>
  </defs>
  <g id="Grupo_1223815" data-name="Grupo 1223815" transform="translate(-583.5 -4258.933)">
    <g id="Grupo_1223738" data-name="Grupo 1223738" transform="translate(0 -4646.112)">
      <g id="Grupo_1223200" data-name="Grupo 1223200" transform="translate(592.5 8911.045)">
        <g id="Grupo_1211216" data-name="Grupo 1211216" transform="translate(0)">
          <g id="Grupo_1210737" data-name="Grupo 1210737">
            <g id="Grupo_1210537" data-name="Grupo 1210537">
              <g id="Grupo_1164202" data-name="Grupo 1164202">
                <g id="Grupo_1158168" data-name="Grupo 1158168">
                  <g id="Grupo_1152576" data-name="Grupo 1152576">
                    <g id="Grupo_1148633" data-name="Grupo 1148633">
                      <g id="Grupo_1148525" data-name="Grupo 1148525">
                        <g transform="matrix(1, 0, 0, 1, -9, -6)" filter="url(#Trazado_982547)">
                          <g id="Trazado_982547-2" data-name="Trazado 982547" transform="translate(9 6)" fill="#fcf5f0">
                            <path d="M 49.99999618530273 98.5 C 43.45188140869141 98.5 37.10042572021484 97.21786499023438 31.12206840515137 94.68923950195312 C 25.34691047668457 92.24655151367188 20.15996742248535 88.74931335449219 15.70532512664795 84.29468536376953 C 11.25068187713623 79.84004211425781 7.753438949584961 74.65309906005859 5.310753345489502 68.87792205810547 C 2.782124757766724 62.89956665039062 1.499996185302734 56.54811096191406 1.499996185302734 49.99999618530273 C 1.499996185302734 43.45188140869141 2.782124757766724 37.10042572021484 5.310753345489502 31.12206840515137 C 7.753438949584961 25.34691047668457 11.25068187713623 20.15996742248535 15.70532512664795 15.70532512664795 C 20.15996742248535 11.25068187713623 25.34691047668457 7.753438949584961 31.12206840515137 5.310753345489502 C 37.10042572021484 2.782124757766724 43.45188140869141 1.499996185302734 49.99999618530273 1.499996185302734 C 56.54811096191406 1.499996185302734 62.89956665039062 2.782124757766724 68.87792205810547 5.310753345489502 C 74.65309906005859 7.753438949584961 79.84004211425781 11.25068187713623 84.29468536376953 15.70532512664795 C 88.74931335449219 20.15996742248535 92.24655151367188 25.34691047668457 94.68923950195312 31.12206840515137 C 97.21786499023438 37.10042572021484 98.5 43.45188140869141 98.5 49.99999618530273 C 98.5 56.54811096191406 97.21786499023438 62.89956665039062 94.68923950195312 68.87792205810547 C 92.24655151367188 74.65309906005859 88.74931335449219 79.84004211425781 84.29468536376953 84.29468536376953 C 79.84004211425781 88.74931335449219 74.65309906005859 92.24655151367188 68.87792205810547 94.68923950195312 C 62.89956665039062 97.21786499023438 56.54811096191406 98.5 49.99999618530273 98.5 Z" stroke="none"/>
                            <path d="M 49.99999618530273 2.999992370605469 C 43.65372085571289 2.999992370605469 37.49885940551758 4.242256164550781 31.70639801025391 6.6922607421875 C 26.11002349853516 9.059318542480469 21.08335113525391 12.4486083984375 16.76598358154297 16.76598358154297 C 12.4486083984375 21.08335113525391 9.059318542480469 26.11002349853516 6.6922607421875 31.70639801025391 C 4.242256164550781 37.49885940551758 2.999992370605469 43.65372085571289 2.999992370605469 49.99999618530273 C 2.999992370605469 56.34627151489258 4.242256164550781 62.50113296508789 6.6922607421875 68.29359436035156 C 9.059318542480469 73.88996887207031 12.4486083984375 78.91664123535156 16.76598358154297 83.2340087890625 C 21.08335113525391 87.55138397216797 26.11002349853516 90.940673828125 31.70639801025391 93.30773162841797 C 37.49885940551758 95.75773620605469 43.65372085571289 97 49.99999618530273 97 C 56.34627151489258 97 62.50113296508789 95.75773620605469 68.29359436035156 93.30773162841797 C 73.88996887207031 90.940673828125 78.91664123535156 87.55138397216797 83.2340087890625 83.2340087890625 C 87.55138397216797 78.91664123535156 90.940673828125 73.88996887207031 93.30773162841797 68.29359436035156 C 95.75773620605469 62.50113296508789 97 56.34627151489258 97 49.99999618530273 C 97 43.65372085571289 95.75773620605469 37.49885940551758 93.30773162841797 31.70639801025391 C 90.940673828125 26.11002349853516 87.55138397216797 21.08335113525391 83.2340087890625 16.76598358154297 C 78.91664123535156 12.4486083984375 73.88996887207031 9.059318542480469 68.29359436035156 6.6922607421875 C 62.50113296508789 4.242256164550781 56.34627151489258 2.999992370605469 49.99999618530273 2.999992370605469 M 49.99999618530273 -7.62939453125e-06 C 77.61422729492188 -7.62939453125e-06 100 22.38576507568359 100 49.99999618530273 C 100 77.61422729492188 77.61422729492188 100 49.99999618530273 100 C 22.38576507568359 100 -7.62939453125e-06 77.61422729492188 -7.62939453125e-06 49.99999618530273 C -7.62939453125e-06 22.38576507568359 22.38576507568359 -7.62939453125e-06 49.99999618530273 -7.62939453125e-06 Z" stroke="none" fill="#eca675"/>
                          </g>
                        </g>
                      </g>
                    </g>
                  </g>
                </g>
              </g>
            </g>
          </g>
        </g>
      </g>
    </g>
    <g id="Innovation-thingking-brain-network-idea" transform="translate(606.55 4283.992)">
      <path id="Trazado_1178991" data-name="Trazado 1178991" d="M58.725,3H31.23A4.23,4.23,0,0,0,27,7.23V60.1a4.23,4.23,0,0,0,4.23,4.23H58.725a4.23,4.23,0,0,0,4.23-4.23V7.23A4.23,4.23,0,0,0,58.725,3Z" transform="translate(1.437 0.057)" fill="#46f8ff"/>
      <path id="Trazado_1178992" data-name="Trazado 1178992" d="M61.517,7.23V60.1a4.23,4.23,0,0,1-4.23,4.23H52a4.23,4.23,0,0,0,4.23-4.23V7.23A4.23,4.23,0,0,0,52,3h5.287A4.23,4.23,0,0,1,61.517,7.23Z" transform="translate(2.875 0.057)" fill="#00d7df"/>
      <path id="Trazado_1178993" data-name="Trazado 1178993" d="M56.213,46.718l-4.494,4.494-6.726-8.227L42,45.978V37h8.978l-2.993,2.993Z" transform="translate(2.3 2.012)" fill="#ff3051"/>
      <path id="Trazado_1178994" data-name="Trazado 1178994" d="M48.863,39.115H42V37h8.978Z" transform="translate(2.3 2.012)" fill="#cd2a00"/>
      <path id="Trazado_1178995" data-name="Trazado 1178995" d="M56,46.556l-2.115,2.115L45.66,41.945l2.115-2.115Z" transform="translate(2.51 2.175)" fill="#cd2a00"/>
      <circle id="Elipse_14718" data-name="Elipse 14718" cx="3.5" cy="3.5" r="3.5" transform="translate(51.45 9.008)" fill="#2488ff"/>
      <ellipse id="Elipse_14719" data-name="Elipse 14719" cx="3.5" cy="3" rx="3.5" ry="3" transform="translate(51.45 22.008)" fill="#9cdd05"/>
      <path id="Trazado_1178996" data-name="Trazado 1178996" d="M33.341,11.272a6.345,6.345,0,0,1,5.636,6.3,6.249,6.249,0,0,1-.423,2.274,6.265,6.265,0,0,1,1.48,4.071,6.345,6.345,0,0,1-5.647,6.3,5.051,5.051,0,0,1-.7.042,6.345,6.345,0,0,1-12.69,0V13.345a6.345,6.345,0,0,1,12.341-2.073Z" transform="translate(1.092 0.288)" fill="#fee9ab"/>
      <path id="Trazado_1178997" data-name="Trazado 1178997" d="M39.8,23.92a6.345,6.345,0,0,1-5.647,6.3,5.051,5.051,0,0,1-.7.042,6.345,6.345,0,0,1-6.345,6.345A6.134,6.134,0,0,1,25,36.24a6.325,6.325,0,0,0,4.23-5.975,5.051,5.051,0,0,0,.7-.042,6.345,6.345,0,0,0,5.647-6.3,6.265,6.265,0,0,0-1.48-4.071,6.249,6.249,0,0,0,.423-2.274,6.345,6.345,0,0,0-5.636-6.3A6.316,6.316,0,0,0,25,7.37,6.133,6.133,0,0,1,27.115,7a6.345,6.345,0,0,1,6,4.271,6.345,6.345,0,0,1,5.637,6.3,6.249,6.249,0,0,1-.423,2.274A6.265,6.265,0,0,1,39.8,23.92Z" transform="translate(1.322 0.287)" fill="#ffd422"/>
      <path id="Trazado_1178998" data-name="Trazado 1178998" d="M35.192,28.96a14.644,14.644,0,0,1,1.417,6.3,15.463,15.463,0,0,1-6.091,12.246,5.823,5.823,0,0,0-2.369,4.759v2.115H15.459V52.267a5.888,5.888,0,0,0-2.432-4.8,15.325,15.325,0,0,1-4.9-17.9c.085-.2.169-.4.275-.6A5.2,5.2,0,0,0,9.114,29,6.345,6.345,0,1,0,21.8,29a6.345,6.345,0,1,0,12.69,0A5.051,5.051,0,0,0,35.192,28.96Z" transform="translate(0.288 1.55)" fill="#ffcd00"/>
      <path id="Trazado_1178999" data-name="Trazado 1178999" d="M27.8,53a2.115,2.115,0,1,1,0,4.23H15.115a2.115,2.115,0,0,1,0-4.23Z" transform="translate(0.632 2.932)" fill="#b39a7c"/>
      <path id="Trazado_1179000" data-name="Trazado 1179000" d="M35.69,35.263A15.463,15.463,0,0,1,29.6,47.508a5.823,5.823,0,0,0-2.369,4.759v2.115H23V52.267a5.823,5.823,0,0,1,2.369-4.759A15.463,15.463,0,0,0,31.46,35.263a13.547,13.547,0,0,0-.074-1.47A6.315,6.315,0,0,0,33.575,29a5.051,5.051,0,0,0,.7-.042,14.644,14.644,0,0,1,1.417,6.3Z" transform="translate(1.207 1.55)" fill="#ddb200"/>
      <path id="Trazado_1179001" data-name="Trazado 1179001" d="M29.345,55.115A2.131,2.131,0,0,1,27.23,57.23H23A2.115,2.115,0,1,0,23,53h4.23A2.121,2.121,0,0,1,29.345,55.115Z" transform="translate(1.207 2.932)" fill="#957856"/>
      <path id="Trazado_1179002" data-name="Trazado 1179002" d="M9.694,11.272a6.345,6.345,0,0,1,12.341,2.073v16.92a6.345,6.345,0,0,1-12.69,0,5.2,5.2,0,0,1-.709-.042A6.345,6.345,0,0,1,3,23.92a6.265,6.265,0,0,1,1.48-4.071,6.249,6.249,0,0,1-.423-2.274,6.345,6.345,0,0,1,5.636-6.3Z" transform="translate(0.058 0.288)" fill="#fee9ab"/>
      <path id="Trazado_1179003" data-name="Trazado 1179003" d="M60.162,2H32.667a5.287,5.287,0,0,0-5.192,4.3,7.411,7.411,0,0,0-5.383,3.532A7.387,7.387,0,0,0,9,10.608a7.408,7.408,0,0,0-5.943,7.254,7.286,7.286,0,0,0,.307,2.1,7.36,7.36,0,0,0,3.87,11.315,16.257,16.257,0,0,0,5.446,18.58,4.848,4.848,0,0,1,2.009,3.955v1.248a3.172,3.172,0,0,0,1.057,6.155H27.486a5.305,5.305,0,0,0,5.182,4.23H60.162a5.287,5.287,0,0,0,5.287-5.287V7.287A5.287,5.287,0,0,0,60.162,2ZM23.15,13.632a5.279,5.279,0,0,1,9.56-3.1,7.418,7.418,0,0,0-6.387,7.328h2.115a5.287,5.287,0,0,1,5.182-5.277,5.667,5.667,0,0,1,.106,1.047,5.287,5.287,0,0,1-5.287,5.287v2.115a7.411,7.411,0,0,0,7.4-7.4,6.009,6.009,0,0,0-.032-.624A5.287,5.287,0,0,1,33.725,23.15v2.115a7.379,7.379,0,0,0,5.954-3.024,5.1,5.1,0,0,1,.391,1.967,5.287,5.287,0,1,1-10.575,0H27.38a7.416,7.416,0,0,0,6.25,7.307,5.287,5.287,0,0,1-10.48-.962ZM4.115,24.207a5.1,5.1,0,0,1,.391-1.967,7.379,7.379,0,0,0,5.954,3.024V23.15A5.287,5.287,0,0,1,8.377,13.009a6.009,6.009,0,0,0-.032.624,7.411,7.411,0,0,0,7.4,7.4V18.92a5.287,5.287,0,0,1-5.287-5.287,5.667,5.667,0,0,1,.106-1.047,5.287,5.287,0,0,1,5.182,5.277h2.115a7.418,7.418,0,0,0-6.387-7.328,5.279,5.279,0,0,1,9.56,3.1v16.92a5.287,5.287,0,0,1-10.48.962,7.416,7.416,0,0,0,6.25-7.307H14.69a5.287,5.287,0,0,1-10.575,0ZM13.95,48.17A14.449,14.449,0,0,1,8.842,33.186a7.384,7.384,0,0,0,13.25,1.163,7.391,7.391,0,0,0,13.25-1.142,13.738,13.738,0,0,1,.5,3.606,14.3,14.3,0,0,1-5.667,11.4,6.908,6.908,0,0,0-2.792,5.605v1.057H16.8V53.817A6.916,6.916,0,0,0,13.95,48.17ZM28.437,59.1H15.747a1.057,1.057,0,1,1,0-2.115h12.69a1.057,1.057,0,1,1,0,2.115Zm34.9,1.057a3.182,3.182,0,0,1-3.172,3.172H32.667a3.166,3.166,0,0,1-3.046-2.348,3.189,3.189,0,0,0,1.8-1.882H56.99V56.99H31.42a3.209,3.209,0,0,0-1.925-1.925V53.817A4.752,4.752,0,0,1,31.441,49.9a16.428,16.428,0,0,0,6.514-13.092,16.1,16.1,0,0,0-.137-2.03h7.54a1.058,1.058,0,0,0,1.057-1.057v-7.4h4.378a4.23,4.23,0,1,0,0-2.115H46.415V13.632h4.378a4.23,4.23,0,1,0,0-2.115H45.357A1.057,1.057,0,0,0,44.3,12.575V32.667H37.384c-.127-.465-.275-.931-.444-1.385a7.357,7.357,0,0,0,3.881-11.315,7.286,7.286,0,0,0,.307-2.1,7.408,7.408,0,0,0-5.943-7.254,7.4,7.4,0,0,0-5.531-4.272,3.172,3.172,0,0,1,3.014-2.221H60.162a3.182,3.182,0,0,1,3.172,3.172ZM52.76,25.265a2.115,2.115,0,1,1,2.115,2.115A2.115,2.115,0,0,1,52.76,25.265Zm0-12.69a2.115,2.115,0,1,1,2.115,2.115A2.115,2.115,0,0,1,52.76,12.575Z" transform="translate(0 0)"/>
      <path id="Trazado_1179004" data-name="Trazado 1179004" d="M56.936,45.962l-7.318-6,2.157-2.157A1.057,1.057,0,0,0,51.036,36H42.057A1.057,1.057,0,0,0,41,37.057v8.978a1.057,1.057,0,0,0,1.808.74l2.157-2.157,6,7.318a1.028,1.028,0,0,0,.761.381.458.458,0,0,1,.053.011,1.058,1.058,0,0,0,.751-.317l4.484-4.484a1.043,1.043,0,0,0,.307-.8,1.028,1.028,0,0,0-.381-.761ZM51.86,49.695l-6-7.328a1.028,1.028,0,0,0-.761-.381H45.05a1.047,1.047,0,0,0-.751.307l-1.184,1.184V38.115h5.362L47.292,39.3a1.043,1.043,0,0,0-.307.8,1.028,1.028,0,0,0,.381.761l7.328,6Z" transform="translate(2.242 1.955)"/>
    </g>
  </g>
</svg>
