<svg xmlns="http://www.w3.org/2000/svg" xmlns:xlink="http://www.w3.org/1999/xlink" width="113" height="113" viewBox="0 0 113 113">
  <defs>
    <filter id="Trazado_982547" x="0" y="0" width="113" height="113" filterUnits="userSpaceOnUse">
      <feOffset dy="3" input="SourceAlpha"/>
      <feGaussianBlur stdDeviation="3" result="blur"/>
      <feFlood flood-opacity="0.161"/>
      <feComposite operator="in" in2="blur"/>
      <feComposite in="SourceGraphic"/>
    </filter>
  </defs>
  <g id="Grupo_1223341" data-name="Grupo 1223341" transform="translate(-1112.49 -5331.026)">
    <g id="Grupo_1211416" data-name="Grupo 1211416" transform="translate(1121.49 5337.026)">
      <g id="Grupo_1211216" data-name="Grupo 1211216" transform="translate(0)">
        <g id="Grupo_1210737" data-name="Grupo 1210737">
          <g id="Grupo_1210537" data-name="Grupo 1210537">
            <g id="Grupo_1164202" data-name="Grupo 1164202">
              <g id="Grupo_1158168" data-name="Grupo 1158168">
                <g id="Grupo_1152576" data-name="Grupo 1152576">
                  <g id="Grupo_1148633" data-name="Grupo 1148633">
                    <g id="Grupo_1148525" data-name="Grupo 1148525">
                      <g transform="matrix(1, 0, 0, 1, -9, -6)" filter="url(#Trazado_982547)">
                        <g id="Trazado_982547-2" data-name="Trazado 982547" transform="translate(9 6)" fill="#fcf5f0">
                          <path d="M 47.49999618530273 93.5 C 41.28936767578125 93.5 35.26533126831055 92.28396606445312 29.59518241882324 89.88570404052734 C 24.11771583557129 87.56893157958984 19.19812965393066 84.251953125 14.97308921813965 80.02690124511719 C 10.74803638458252 75.80186462402344 7.431062698364258 70.88227844238281 5.114289283752441 65.40480804443359 C 2.716022968292236 59.73466110229492 1.499996185302734 53.71062469482422 1.499996185302734 47.49999618530273 C 1.499996185302734 41.28936767578125 2.716022968292236 35.26533126831055 5.114289283752441 29.59518241882324 C 7.431062698364258 24.11771583557129 10.74803638458252 19.19812965393066 14.97308921813965 14.97308921813965 C 19.19812965393066 10.74803638458252 24.11771583557129 7.431062698364258 29.59518241882324 5.114289283752441 C 35.26533126831055 2.716022968292236 41.28936767578125 1.499996185302734 47.49999618530273 1.499996185302734 C 53.71062469482422 1.499996185302734 59.73466110229492 2.716022968292236 65.40480804443359 5.114289283752441 C 70.88227844238281 7.431062698364258 75.80186462402344 10.74803638458252 80.02690124511719 14.97308921813965 C 84.251953125 19.19812965393066 87.56893157958984 24.11771583557129 89.88570404052734 29.59518241882324 C 92.28396606445312 35.26533126831055 93.5 41.28936767578125 93.5 47.49999618530273 C 93.5 53.71062469482422 92.28396606445312 59.73466110229492 89.88570404052734 65.40480804443359 C 87.56893157958984 70.88227844238281 84.251953125 75.80186462402344 80.02690124511719 80.02690124511719 C 75.80186462402344 84.251953125 70.88227844238281 87.56893157958984 65.40480804443359 89.88570404052734 C 59.73466110229492 92.28396606445312 53.71062469482422 93.5 47.49999618530273 93.5 Z" stroke="none"/>
                          <path d="M 47.49999618530273 2.999992370605469 C 41.4912109375 2.999992370605469 35.66376495361328 4.1761474609375 30.17950439453125 6.495796203613281 C 24.88084411621094 8.736953735351562 20.12152099609375 11.94598388671875 16.03375244140625 16.03375244140625 C 11.94598388671875 20.12152099609375 8.736953735351562 24.88084411621094 6.495796203613281 30.17950439453125 C 4.1761474609375 35.66376495361328 2.999992370605469 41.4912109375 2.999992370605469 47.49999618530273 C 2.999992370605469 53.50878143310547 4.1761474609375 59.33622741699219 6.495796203613281 64.82048797607422 C 8.736953735351562 70.11914825439453 11.94598388671875 74.87847137451172 16.03375244140625 78.96623992919922 C 20.12152099609375 83.05400848388672 24.88084411621094 86.26304626464844 30.17950439453125 88.50419616699219 C 35.66376495361328 90.82384490966797 41.4912109375 92 47.49999618530273 92 C 53.50878143310547 92 59.33622741699219 90.82384490966797 64.82048797607422 88.50419616699219 C 70.11914825439453 86.26304626464844 74.87847137451172 83.05400848388672 78.96623992919922 78.96623992919922 C 83.05400848388672 74.87847137451172 86.26304626464844 70.11914825439453 88.50419616699219 64.82048797607422 C 90.82384490966797 59.33622741699219 92 53.50878143310547 92 47.49999618530273 C 92 41.4912109375 90.82384490966797 35.66376495361328 88.50419616699219 30.17950439453125 C 86.26304626464844 24.88084411621094 83.05400848388672 20.12152099609375 78.96623992919922 16.03375244140625 C 74.87847137451172 11.94598388671875 70.11914825439453 8.736953735351562 64.82048797607422 6.495796203613281 C 59.33622741699219 4.1761474609375 53.50878143310547 2.999992370605469 47.49999618530273 2.999992370605469 M 47.49999618530273 -7.62939453125e-06 C 73.7335205078125 -7.62939453125e-06 95 21.26647186279297 95 47.49999618530273 C 95 73.7335205078125 73.7335205078125 95 47.49999618530273 95 C 21.26647186279297 95 -7.62939453125e-06 73.7335205078125 -7.62939453125e-06 47.49999618530273 C -7.62939453125e-06 21.26647186279297 21.26647186279297 -7.62939453125e-06 47.49999618530273 -7.62939453125e-06 Z" stroke="none" fill="#eca675"/>
                        </g>
                      </g>
                    </g>
                  </g>
                </g>
              </g>
            </g>
          </g>
        </g>
      </g>
    </g>
    <g id="visitors_2714768" transform="translate(1137.48 5352.526)">
      <g id="Grupo_1223262" data-name="Grupo 1223262">
        <g id="Grupo_1223234" data-name="Grupo 1223234">
          <path id="Trazado_1177223" data-name="Trazado 1177223" d="M48,7V2H16V7a4,4,0,0,1,0,8v5H48V15a4,4,0,0,1,0-8Z" fill="#5d9cec"/>
        </g>
        <g id="Grupo_1223235" data-name="Grupo 1223235">
          <path id="Trazado_1177224" data-name="Trazado 1177224" d="M62,47v4H44V47a3,3,0,0,1,3-3h3l3,1.99L56,44h3A3,3,0,0,1,62,47Z" fill="#a0d468"/>
        </g>
        <g id="Grupo_1223236" data-name="Grupo 1223236">
          <path id="Trazado_1177225" data-name="Trazado 1177225" d="M56,41.32V44l-3,1.99L50,44V41.31a6.948,6.948,0,0,0,6,0Z" fill="#eac6bb"/>
        </g>
        <g id="Grupo_1223237" data-name="Grupo 1223237">
          <path id="Trazado_1177226" data-name="Trazado 1177226" d="M54,32a7.975,7.975,0,0,1,6,2.71V35a6.956,6.956,0,0,1-4,6.31,6.948,6.948,0,0,1-6,0A6.955,6.955,0,0,1,46,35V32a3,3,0,0,0,3-3,3,3,0,0,0,3,3Z" fill="#eac6bb"/>
        </g>
        <g id="Grupo_1223238" data-name="Grupo 1223238">
          <path id="Trazado_1177227" data-name="Trazado 1177227" d="M49,29a3,3,0,0,1-3,3V27a2.994,2.994,0,0,1,3-2.99Z" fill="#e9573f"/>
        </g>
        <g id="Grupo_1223239" data-name="Grupo 1223239">
          <path id="Trazado_1177228" data-name="Trazado 1177228" d="M62,30V40a8,8,0,0,0-8-8H52a3,3,0,0,1-3-3V24a8.187,8.187,0,0,1,5-2A8,8,0,0,1,62,30Z" fill="#fc6e51"/>
        </g>
        <g id="Grupo_1223240" data-name="Grupo 1223240">
          <path id="Trazado_1177229" data-name="Trazado 1177229" d="M54,22a6.316,6.316,0,0,0-1.4.161A8,8,0,0,1,59,30v3.765A7.895,7.895,0,0,1,62,40V30A8,8,0,0,0,54,22Z" fill="#e9573f"/>
        </g>
        <g id="Grupo_1223241" data-name="Grupo 1223241">
          <path id="Trazado_1177230" data-name="Trazado 1177230" d="M37.5,13.99v3h-11v-3h11Z" fill="#e6e9ed"/>
        </g>
        <g id="Grupo_1223242" data-name="Grupo 1223242">
          <path id="Trazado_1177231" data-name="Trazado 1177231" d="M37.5,6.99v2h-11v-2L32,5Z" fill="#e6e9ed"/>
        </g>
        <g id="Grupo_1223243" data-name="Grupo 1223243">
          <path id="Trazado_1177232" data-name="Trazado 1177232" d="M18,30.5v1.37c-1.72-2.24-2.76-2.65-4-2.39l1.99-4.07A7.42,7.42,0,0,1,18,30.5Z" fill="#f6bb42"/>
        </g>
        <g id="Grupo_1223244" data-name="Grupo 1223244">
          <path id="Trazado_1177233" data-name="Trazado 1177233" d="M8,44c0,1.1,1.34,2,3,2s3-.9,3-2h3a3,3,0,0,1,3,3v4H2V47a3,3,0,0,1,3-3Z" fill="#e6e9ed"/>
        </g>
        <g id="Grupo_1223246" data-name="Grupo 1223246">
          <g id="Grupo_1223245" data-name="Grupo 1223245">
            <path id="Trazado_1177234" data-name="Trazado 1177234" d="M17,44H14a3,3,0,0,1,3,3v4h3V47A3,3,0,0,0,17,44Z" fill="#ccd1d9"/>
          </g>
        </g>
        <g id="Grupo_1223248" data-name="Grupo 1223248">
          <g id="Grupo_1223247" data-name="Grupo 1223247">
            <path id="Trazado_1177235" data-name="Trazado 1177235" d="M59,44H56a3,3,0,0,1,3,3v4h3V47A3,3,0,0,0,59,44Z" fill="#8cc152"/>
          </g>
        </g>
        <g id="Grupo_1223249" data-name="Grupo 1223249">
          <path id="Trazado_1177236" data-name="Trazado 1177236" d="M18,31.87V35a6.956,6.956,0,0,1-4,6.31,6.948,6.948,0,0,1-6,0A6.956,6.956,0,0,1,4,35V31.14c5.81.67,8.13-1.27,10-1.659,1.24-.261,2.28.149,4,2.389Z" fill="#eac6bb"/>
        </g>
        <g id="Grupo_1223250" data-name="Grupo 1223250">
          <path id="Trazado_1177237" data-name="Trazado 1177237" d="M15,29.449V35a6.956,6.956,0,0,1-4,6.31,6.811,6.811,0,0,1-1.5.516,7.007,7.007,0,0,0,1.5.165,6.831,6.831,0,0,0,3-.681A6.955,6.955,0,0,0,18,35V31.87C16.754,30.246,15.864,29.592,15,29.449Z" fill="#d3b1a9"/>
        </g>
        <g id="Grupo_1223251" data-name="Grupo 1223251">
          <path id="Trazado_1177238" data-name="Trazado 1177238" d="M4,31.14c-.32-.04-.65-.08-1-.14v-.5a7.487,7.487,0,0,1,12.99-5.09L14,29.48C12.13,29.87,9.81,31.81,4,31.14Z" fill="#ffce54"/>
        </g>
        <g id="Grupo_1223252" data-name="Grupo 1223252">
          <path id="Trazado_1177239" data-name="Trazado 1177239" d="M14,41.32V44c0,1.1-1.34,2-3,2s-3-.9-3-2V41.31a6.948,6.948,0,0,0,6,0Z" fill="#eac6bb"/>
        </g>
        <g id="Grupo_1223253" data-name="Grupo 1223253">
          <path id="Trazado_1177240" data-name="Trazado 1177240" d="M32,50a8.956,8.956,0,0,0,4-.94V53l-2,.99L32,53l-2,.99L28,53V49.06A8.956,8.956,0,0,0,32,50Z" fill="#87bcf4"/>
        </g>
        <g id="Grupo_1223254" data-name="Grupo 1223254">
          <path id="Trazado_1177241" data-name="Trazado 1177241" d="M41,38.03V41a9,9,0,0,1-18,.05V38.03L26,36a23.1,23.1,0,0,0,6.5,1A13.324,13.324,0,0,0,38,36Z" fill="#eac6bb"/>
        </g>
        <g id="Grupo_1223255" data-name="Grupo 1223255">
          <path id="Trazado_1177242" data-name="Trazado 1177242" d="M38,36h0v5a8.948,8.948,0,0,1-7.5,8.86A9.089,9.089,0,0,0,32,50a9.006,9.006,0,0,0,9-9V38.03Z" fill="#d3b1a9"/>
        </g>
        <g id="Grupo_1223256" data-name="Grupo 1223256">
          <path id="Trazado_1177243" data-name="Trazado 1177243" d="M23,35a8,8,0,0,1,7.59-7.99H37V31a4,4,0,0,1,4,4v3.03L38,36a13.323,13.323,0,0,1-5.5,1A23.1,23.1,0,0,1,26,36l-3,2.03Z" fill="#965353"/>
        </g>
        <g id="Grupo_1223257" data-name="Grupo 1223257">
          <path id="Trazado_1177244" data-name="Trazado 1177244" d="M37,34a1,1,0,0,1,1,1v1l3,2.03V35a4,4,0,0,0-4-4V27.01H34V31A3,3,0,0,0,37,34Z" fill="#844747"/>
        </g>
        <g id="Grupo_1223258" data-name="Grupo 1223258">
          <path id="Trazado_1177245" data-name="Trazado 1177245" d="M34,53.99,36,53h3a5,5,0,0,1,5,5v4H20V58a5,5,0,0,1,5-5h3l2,.99L32,53Z" fill="#5d9cec"/>
        </g>
        <g id="Grupo_1223260" data-name="Grupo 1223260">
          <g id="Grupo_1223259" data-name="Grupo 1223259">
            <path id="Trazado_1177246" data-name="Trazado 1177246" d="M39,53H36a5,5,0,0,1,5,5v4h3V58A5,5,0,0,0,39,53Z" fill="#4a89dc"/>
          </g>
        </g>
        <g id="Grupo_1223261" data-name="Grupo 1223261">
          <path id="Trazado_1177247" data-name="Trazado 1177247" d="M57,32.6V35a6.956,6.956,0,0,1-4,6.31,6.827,6.827,0,0,1-1.5.516,7.025,7.025,0,0,0,1.5.165,6.863,6.863,0,0,0,3-.681A6.955,6.955,0,0,0,60,35v-.29A7.972,7.972,0,0,0,57,32.6Z" fill="#d3b1a9"/>
        </g>
      </g>
      <g id="Grupo_1223340" data-name="Grupo 1223340">
        <g id="Grupo_1223263" data-name="Grupo 1223263">
          <path id="Trazado_1177248" data-name="Trazado 1177248" d="M4,36a1,1,0,0,1-1-1V31.133a1,1,0,1,1,2,0V35A1,1,0,0,1,4,36Z"/>
        </g>
        <g id="Grupo_1223264" data-name="Grupo 1223264">
          <path id="Trazado_1177249" data-name="Trazado 1177249" d="M18,36a1,1,0,0,1-1-1V30.5a1,1,0,0,1,2,0V35A1,1,0,0,1,18,36Z"/>
        </g>
        <g id="Grupo_1223265" data-name="Grupo 1223265">
          <path id="Trazado_1177250" data-name="Trazado 1177250" d="M18,31.5a1,1,0,0,1-1-1,6.5,6.5,0,1,0-13,0,1,1,0,0,1-2,0,8.5,8.5,0,1,1,17,0A1,1,0,0,1,18,31.5Z"/>
        </g>
        <g id="Grupo_1223266" data-name="Grupo 1223266">
          <path id="Trazado_1177251" data-name="Trazado 1177251" d="M18,32.871a1,1,0,0,1-.8-.392c-1.931-2.523-2.457-2.313-4.414-1.538a16.857,16.857,0,0,1-9.948,1.042,1,1,0,1,1,.313-1.974,14.88,14.88,0,0,0,8.9-.927c2.408-.954,4.024-1.362,6.738,2.181A1,1,0,0,1,18,32.871Z"/>
        </g>
        <g id="Grupo_1223267" data-name="Grupo 1223267">
          <path id="Trazado_1177252" data-name="Trazado 1177252" d="M14,30.477a.988.988,0,0,1-.439-.1,1,1,0,0,1-.457-1.338l2-4.072a1,1,0,1,1,1.8.881l-2,4.072a1,1,0,0,1-.9.56Z"/>
        </g>
        <g id="Grupo_1223268" data-name="Grupo 1223268">
          <path id="Trazado_1177253" data-name="Trazado 1177253" d="M2,48a1,1,0,0,1-1-1,4,4,0,0,1,4-4,1,1,0,0,1,0,2,2,2,0,0,0-2,2A1,1,0,0,1,2,48Z"/>
        </g>
        <g id="Grupo_1223269" data-name="Grupo 1223269">
          <path id="Trazado_1177254" data-name="Trazado 1177254" d="M8,45H5a1,1,0,0,1,0-2H8a1,1,0,0,1,0,2Z"/>
        </g>
        <g id="Grupo_1223270" data-name="Grupo 1223270">
          <path id="Trazado_1177255" data-name="Trazado 1177255" d="M2,52a1,1,0,0,1-1-1V47a1,1,0,0,1,2,0v4A1,1,0,0,1,2,52Z"/>
        </g>
        <g id="Grupo_1223271" data-name="Grupo 1223271">
          <path id="Trazado_1177256" data-name="Trazado 1177256" d="M20,48a1,1,0,0,1-1-1,2,2,0,0,0-2-2,1,1,0,0,1,0-2,4,4,0,0,1,4,4A1,1,0,0,1,20,48Z"/>
        </g>
        <g id="Grupo_1223272" data-name="Grupo 1223272">
          <path id="Trazado_1177257" data-name="Trazado 1177257" d="M17,45H14a1,1,0,0,1,0-2h3a1,1,0,1,1,0,2Z"/>
        </g>
        <g id="Grupo_1223273" data-name="Grupo 1223273">
          <path id="Trazado_1177258" data-name="Trazado 1177258" d="M20,52a1,1,0,0,1-1-1V47a1,1,0,0,1,2,0v4A1,1,0,0,1,20,52Z"/>
        </g>
        <g id="Grupo_1223274" data-name="Grupo 1223274">
          <path id="Trazado_1177259" data-name="Trazado 1177259" d="M8,45a1,1,0,0,1-1-1V41.318a1,1,0,0,1,2,0V44A1,1,0,0,1,8,45Z"/>
        </g>
        <g id="Grupo_1223275" data-name="Grupo 1223275">
          <path id="Trazado_1177260" data-name="Trazado 1177260" d="M14,45a1,1,0,0,1-1-1V41.318a1,1,0,0,1,2,0V44A1,1,0,0,1,14,45Z"/>
        </g>
        <g id="Grupo_1223276" data-name="Grupo 1223276">
          <path id="Trazado_1177261" data-name="Trazado 1177261" d="M11,42.992a8.007,8.007,0,0,1-8-8,1,1,0,0,1,2,0,6,6,0,0,0,12,0,1,1,0,0,1,2,0,8.007,8.007,0,0,1-8,8Z"/>
        </g>
        <g id="Grupo_1223277" data-name="Grupo 1223277">
          <path id="Trazado_1177262" data-name="Trazado 1177262" d="M46,36a1,1,0,0,1-1-1V27a1,1,0,1,1,2,0v8A1,1,0,0,1,46,36Z"/>
        </g>
        <g id="Grupo_1223278" data-name="Grupo 1223278">
          <path id="Trazado_1177263" data-name="Trazado 1177263" d="M60,36a1,1,0,0,1-1-1v-.293a1,1,0,0,1,2,0V35A1,1,0,0,1,60,36Z"/>
        </g>
        <g id="Grupo_1223279" data-name="Grupo 1223279">
          <path id="Trazado_1177264" data-name="Trazado 1177264" d="M44,48a1,1,0,0,1-1-1,4,4,0,0,1,4-4,1,1,0,0,1,0,2,2,2,0,0,0-2,2A1,1,0,0,1,44,48Z"/>
        </g>
        <g id="Grupo_1223280" data-name="Grupo 1223280">
          <path id="Trazado_1177265" data-name="Trazado 1177265" d="M50,45H47a1,1,0,1,1,0-2h3a1,1,0,0,1,0,2Z"/>
        </g>
        <g id="Grupo_1223281" data-name="Grupo 1223281">
          <path id="Trazado_1177266" data-name="Trazado 1177266" d="M44,52a1,1,0,0,1-1-1V47a1,1,0,0,1,2,0v4A1,1,0,0,1,44,52Z"/>
        </g>
        <g id="Grupo_1223282" data-name="Grupo 1223282">
          <path id="Trazado_1177267" data-name="Trazado 1177267" d="M62,48a1,1,0,0,1-1-1,2,2,0,0,0-2-2,1,1,0,1,1,0-2,4,4,0,0,1,4,4A1,1,0,0,1,62,48Z"/>
        </g>
        <g id="Grupo_1223283" data-name="Grupo 1223283">
          <path id="Trazado_1177268" data-name="Trazado 1177268" d="M59,45H56a1,1,0,1,1,0-2h3a1,1,0,0,1,0,2Z"/>
        </g>
        <g id="Grupo_1223284" data-name="Grupo 1223284">
          <path id="Trazado_1177269" data-name="Trazado 1177269" d="M62,52a1,1,0,0,1-1-1V47a1,1,0,0,1,2,0v4A1,1,0,0,1,62,52Z"/>
        </g>
        <g id="Grupo_1223285" data-name="Grupo 1223285">
          <path id="Trazado_1177270" data-name="Trazado 1177270" d="M50,45a1,1,0,0,1-1-1V41.318a1,1,0,0,1,2,0V44A1,1,0,0,1,50,45Z"/>
        </g>
        <g id="Grupo_1223286" data-name="Grupo 1223286">
          <path id="Trazado_1177271" data-name="Trazado 1177271" d="M56,45a1,1,0,0,1-1-1V41.318a1,1,0,0,1,2,0V44A1,1,0,0,1,56,45Z"/>
        </g>
        <g id="Grupo_1223287" data-name="Grupo 1223287">
          <path id="Trazado_1177272" data-name="Trazado 1177272" d="M53,42.992a8.007,8.007,0,0,1-8-8,1,1,0,0,1,2,0,6,6,0,0,0,12,0,1,1,0,0,1,2,0A8.007,8.007,0,0,1,53,42.992Z"/>
        </g>
        <g id="Grupo_1223288" data-name="Grupo 1223288">
          <path id="Trazado_1177273" data-name="Trazado 1177273" d="M20,59a1,1,0,0,1-1-1,6.006,6.006,0,0,1,6-6,1,1,0,0,1,0,2,4,4,0,0,0-4,4A1,1,0,0,1,20,59Z"/>
        </g>
        <g id="Grupo_1223289" data-name="Grupo 1223289">
          <path id="Trazado_1177274" data-name="Trazado 1177274" d="M28,54H25a1,1,0,0,1,0-2h3a1,1,0,0,1,0,2Z"/>
        </g>
        <g id="Grupo_1223290" data-name="Grupo 1223290">
          <path id="Trazado_1177275" data-name="Trazado 1177275" d="M20,63a1,1,0,0,1-1-1V58a1,1,0,0,1,2,0v4A1,1,0,0,1,20,63Z"/>
        </g>
        <g id="Grupo_1223291" data-name="Grupo 1223291">
          <path id="Trazado_1177276" data-name="Trazado 1177276" d="M44,59a1,1,0,0,1-1-1,4,4,0,0,0-4-4,1,1,0,0,1,0-2,6.006,6.006,0,0,1,6,6A1,1,0,0,1,44,59Z"/>
        </g>
        <g id="Grupo_1223292" data-name="Grupo 1223292">
          <path id="Trazado_1177277" data-name="Trazado 1177277" d="M39,54H36a1,1,0,0,1,0-2h3a1,1,0,0,1,0,2Z"/>
        </g>
        <g id="Grupo_1223293" data-name="Grupo 1223293">
          <path id="Trazado_1177278" data-name="Trazado 1177278" d="M44,63a1,1,0,0,1-1-1V58a1,1,0,0,1,2,0v4A1,1,0,0,1,44,63Z"/>
        </g>
        <g id="Grupo_1223294" data-name="Grupo 1223294">
          <path id="Trazado_1177279" data-name="Trazado 1177279" d="M28,54a1,1,0,0,1-1-1V49.064a1,1,0,0,1,2,0V53A1,1,0,0,1,28,54Z"/>
        </g>
        <g id="Grupo_1223295" data-name="Grupo 1223295">
          <path id="Trazado_1177280" data-name="Trazado 1177280" d="M36,54a1,1,0,0,1-1-1V49.064a1,1,0,0,1,2,0V53A1,1,0,0,1,36,54Z"/>
        </g>
        <g id="Grupo_1223296" data-name="Grupo 1223296">
          <path id="Trazado_1177281" data-name="Trazado 1177281" d="M32,51A10.009,10.009,0,0,1,22,41a1,1,0,0,1,2,0,8,8,0,0,0,16,0,1,1,0,0,1,2,0A10.01,10.01,0,0,1,32,51Z"/>
        </g>
        <g id="Grupo_1223297" data-name="Grupo 1223297">
          <path id="Trazado_1177282" data-name="Trazado 1177282" d="M23,42.051a1,1,0,0,1-1-1V35a1,1,0,0,1,2,0v6.051A1,1,0,0,1,23,42.051Z"/>
        </g>
        <g id="Grupo_1223298" data-name="Grupo 1223298">
          <path id="Trazado_1177283" data-name="Trazado 1177283" d="M41,42a1,1,0,0,1-1-1V35a1,1,0,0,1,2,0v6A1,1,0,0,1,41,42Z"/>
        </g>
        <g id="Grupo_1223299" data-name="Grupo 1223299">
          <path id="Trazado_1177284" data-name="Trazado 1177284" d="M41,36a1,1,0,0,1-1-1,3,3,0,0,0-3-3,1,1,0,0,1,0-2,5.006,5.006,0,0,1,5,5A1,1,0,0,1,41,36Z"/>
        </g>
        <g id="Grupo_1223300" data-name="Grupo 1223300">
          <path id="Trazado_1177285" data-name="Trazado 1177285" d="M37,32a1,1,0,0,1-1-1V27a1,1,0,0,1,2,0v4A1,1,0,0,1,37,32Z"/>
        </g>
        <g id="Grupo_1223301" data-name="Grupo 1223301">
          <path id="Trazado_1177286" data-name="Trazado 1177286" d="M37,28.014H31a1,1,0,0,1,0-2h6a1,1,0,0,1,0,2Z"/>
        </g>
        <g id="Grupo_1223302" data-name="Grupo 1223302">
          <path id="Trazado_1177287" data-name="Trazado 1177287" d="M23,36a1,1,0,0,1-1-1,9.01,9.01,0,0,1,9-9,1,1,0,0,1,0,2,7.009,7.009,0,0,0-7,7A1,1,0,0,1,23,36Z"/>
        </g>
        <g id="Grupo_1223306" data-name="Grupo 1223306">
          <g id="Grupo_1223303" data-name="Grupo 1223303">
            <path id="Trazado_1177288" data-name="Trazado 1177288" d="M41,39.025a1,1,0,0,1-.559-.171l-3-2.025a1,1,0,1,1,1.119-1.659l3,2.025a1,1,0,0,1-.56,1.83Z"/>
          </g>
          <g id="Grupo_1223304" data-name="Grupo 1223304">
            <path id="Trazado_1177289" data-name="Trazado 1177289" d="M32.5,38a23.917,23.917,0,0,1-6.815-1.051,1,1,0,0,1,.63-1.9A22.2,22.2,0,0,0,32.5,36a12.628,12.628,0,0,0,5.059-.9,1,1,0,0,1,.888,1.793A14.3,14.3,0,0,1,32.5,38Z"/>
          </g>
          <g id="Grupo_1223305" data-name="Grupo 1223305">
            <path id="Trazado_1177290" data-name="Trazado 1177290" d="M23,39.025a1,1,0,0,1-.56-1.829l3-2.025A1,1,0,1,1,26.56,36.83l-3,2.025A1,1,0,0,1,23,39.025Z"/>
          </g>
        </g>
        <g id="Grupo_1223307" data-name="Grupo 1223307">
          <path id="Trazado_1177291" data-name="Trazado 1177291" d="M62,31a1,1,0,0,1-1-1,7.009,7.009,0,0,0-7-7,7.3,7.3,0,0,0-4.374,1.78,1,1,0,0,1-1.252-1.56A9.109,9.109,0,0,1,54,21a9.01,9.01,0,0,1,9,9,1,1,0,0,1-1,1Z"/>
        </g>
        <g id="Grupo_1223308" data-name="Grupo 1223308">
          <path id="Trazado_1177292" data-name="Trazado 1177292" d="M62,41a1,1,0,0,1-1-1,7.009,7.009,0,0,0-7-7,1,1,0,1,1,0-2,9.01,9.01,0,0,1,9,9A1,1,0,0,1,62,41Z"/>
        </g>
        <g id="Grupo_1223309" data-name="Grupo 1223309">
          <path id="Trazado_1177293" data-name="Trazado 1177293" d="M46,33a1,1,0,1,1,0-2,2,2,0,0,0,2-2,1,1,0,1,1,2,0A4,4,0,0,1,46,33Z"/>
        </g>
        <g id="Grupo_1223310" data-name="Grupo 1223310">
          <path id="Trazado_1177294" data-name="Trazado 1177294" d="M46,28.01a1,1,0,0,1-1-1,4,4,0,0,1,4-4,1,1,0,0,1,0,2,2,2,0,0,0-2,2A1,1,0,0,1,46,28.01Z"/>
        </g>
        <g id="Grupo_1223311" data-name="Grupo 1223311">
          <path id="Trazado_1177295" data-name="Trazado 1177295" d="M52,33a4,4,0,0,1-4-4,1,1,0,1,1,2,0,2,2,0,0,0,2,2,1,1,0,0,1,0,2Z"/>
        </g>
        <g id="Grupo_1223312" data-name="Grupo 1223312">
          <path id="Trazado_1177296" data-name="Trazado 1177296" d="M49,30a1,1,0,0,1-1-1V24a1,1,0,1,1,2,0v5A1,1,0,0,1,49,30Z"/>
        </g>
        <g id="Grupo_1223313" data-name="Grupo 1223313">
          <path id="Trazado_1177297" data-name="Trazado 1177297" d="M62,41a1,1,0,0,1-1-1V30a1,1,0,1,1,2,0V40A1,1,0,0,1,62,41Z"/>
        </g>
        <g id="Grupo_1223314" data-name="Grupo 1223314">
          <path id="Trazado_1177298" data-name="Trazado 1177298" d="M54,33H52a1,1,0,1,1,0-2h2a1,1,0,0,1,0,2Z"/>
        </g>
        <g id="Grupo_1223315" data-name="Grupo 1223315">
          <path id="Trazado_1177299" data-name="Trazado 1177299" d="M3,32a1,1,0,0,1-1-1v-.5a1,1,0,0,1,2,0V31A1,1,0,0,1,3,32Z"/>
        </g>
        <g id="Grupo_1223316" data-name="Grupo 1223316">
          <path id="Trazado_1177300" data-name="Trazado 1177300" d="M30,54.994a1,1,0,0,1-.444-.1l-2-.994a1,1,0,1,1,.891-1.791l2,.994a1,1,0,0,1-.447,1.9Z"/>
        </g>
        <g id="Grupo_1223317" data-name="Grupo 1223317">
          <path id="Trazado_1177301" data-name="Trazado 1177301" d="M30,54.994a1,1,0,0,1-.448-1.9l2-1a1,1,0,1,1,.893,1.789l-2,1A.977.977,0,0,1,30,54.994Z"/>
        </g>
        <g id="Grupo_1223318" data-name="Grupo 1223318">
          <path id="Trazado_1177302" data-name="Trazado 1177302" d="M34,54.994a1,1,0,0,1-.446-1.9l2-.994a1,1,0,0,1,.891,1.791l-2,.994A.991.991,0,0,1,34,54.994Z"/>
        </g>
        <g id="Grupo_1223319" data-name="Grupo 1223319">
          <path id="Trazado_1177303" data-name="Trazado 1177303" d="M34,54.994a.988.988,0,0,1-.445-.1l-2-1a1,1,0,0,1,.893-1.789l2,1A1,1,0,0,1,34,54.994Z"/>
        </g>
        <g id="Grupo_1223320" data-name="Grupo 1223320">
          <path id="Trazado_1177304" data-name="Trazado 1177304" d="M53,46.994a1,1,0,0,1-.552-.167l-3-1.992a1,1,0,0,1,1.106-1.666l3,1.992A1,1,0,0,1,53,46.994Z"/>
        </g>
        <g id="Grupo_1223321" data-name="Grupo 1223321">
          <path id="Trazado_1177305" data-name="Trazado 1177305" d="M53,46.994a1,1,0,0,1-.554-1.833l3-1.992a1,1,0,1,1,1.106,1.666l-3,1.992a.994.994,0,0,1-.552.167Z"/>
        </g>
        <g id="Grupo_1223322" data-name="Grupo 1223322">
          <path id="Trazado_1177306" data-name="Trazado 1177306" d="M11,47c-2.242,0-4-1.317-4-3a1,1,0,1,1,2,0c0,.408.778,1,2,1s2-.592,2-1a1,1,0,0,1,2,0c0,1.683-1.757,3-4,3Z"/>
        </g>
        <g id="Grupo_1223339" data-name="Grupo 1223339">
          <g id="Grupo_1223329" data-name="Grupo 1223329">
            <g id="Grupo_1223323" data-name="Grupo 1223323">
              <path id="Trazado_1177307" data-name="Trazado 1177307" d="M37.5,9.986h-11a1,1,0,0,1-1-1v-2a1,1,0,0,1,.66-.94l5.5-1.988a.993.993,0,0,1,.68,0l5.5,1.988a1,1,0,0,1,.66.94v2A1,1,0,0,1,37.5,9.986Zm-10-2h9v-.3L32,6.063,27.5,7.69Z"/>
            </g>
            <g id="Grupo_1223324" data-name="Grupo 1223324">
              <path id="Trazado_1177308" data-name="Trazado 1177308" d="M37.5,17.986h-11a1,1,0,0,1-1-1v-3a1,1,0,0,1,1-1h11a1,1,0,0,1,1,1v3A1,1,0,0,1,37.5,17.986Zm-10-2h9v-1h-9Z"/>
            </g>
            <g id="Grupo_1223325" data-name="Grupo 1223325">
              <path id="Trazado_1177309" data-name="Trazado 1177309" d="M27.5,14.986a1,1,0,0,1-1-1v-5a1,1,0,0,1,2,0v5A1,1,0,0,1,27.5,14.986Z"/>
            </g>
            <g id="Grupo_1223326" data-name="Grupo 1223326">
              <path id="Trazado_1177310" data-name="Trazado 1177310" d="M33.5,14.986a1,1,0,0,1-1-1v-5a1,1,0,0,1,2,0v5A1,1,0,0,1,33.5,14.986Z"/>
            </g>
            <g id="Grupo_1223327" data-name="Grupo 1223327">
              <path id="Trazado_1177311" data-name="Trazado 1177311" d="M30.5,14.986a1,1,0,0,1-1-1v-5a1,1,0,0,1,2,0v5A1,1,0,0,1,30.5,14.986Z"/>
            </g>
            <g id="Grupo_1223328" data-name="Grupo 1223328">
              <path id="Trazado_1177312" data-name="Trazado 1177312" d="M36.5,14.986a1,1,0,0,1-1-1v-5a1,1,0,0,1,2,0v5A1,1,0,0,1,36.5,14.986Z"/>
            </g>
          </g>
          <g id="Grupo_1223338" data-name="Grupo 1223338">
            <g id="Grupo_1223330" data-name="Grupo 1223330">
              <path id="Trazado_1177313" data-name="Trazado 1177313" d="M48,3H16a1,1,0,0,1,0-2H48a1,1,0,0,1,0,2Z"/>
            </g>
            <g id="Grupo_1223331" data-name="Grupo 1223331">
              <path id="Trazado_1177314" data-name="Trazado 1177314" d="M48,21H16a1,1,0,0,1,0-2H48a1,1,0,0,1,0,2Z"/>
            </g>
            <g id="Grupo_1223332" data-name="Grupo 1223332">
              <path id="Trazado_1177315" data-name="Trazado 1177315" d="M48,16A5,5,0,0,1,48,6a1,1,0,0,1,0,2,3,3,0,0,0,0,6,1,1,0,0,1,0,2Z"/>
            </g>
            <g id="Grupo_1223333" data-name="Grupo 1223333">
              <path id="Trazado_1177316" data-name="Trazado 1177316" d="M48,21a1,1,0,0,1-1-1V15a1,1,0,0,1,2,0v5A1,1,0,0,1,48,21Z"/>
            </g>
            <g id="Grupo_1223334" data-name="Grupo 1223334">
              <path id="Trazado_1177317" data-name="Trazado 1177317" d="M48,8a1,1,0,0,1-1-1V2a1,1,0,0,1,2,0V7A1,1,0,0,1,48,8Z"/>
            </g>
            <g id="Grupo_1223335" data-name="Grupo 1223335">
              <path id="Trazado_1177318" data-name="Trazado 1177318" d="M16,16a1,1,0,0,1,0-2,3,3,0,0,0,0-6,1,1,0,0,1,0-2,5,5,0,0,1,0,10Z"/>
            </g>
            <g id="Grupo_1223336" data-name="Grupo 1223336">
              <path id="Trazado_1177319" data-name="Trazado 1177319" d="M16,21a1,1,0,0,1-1-1V15a1,1,0,0,1,2,0v5A1,1,0,0,1,16,21Z"/>
            </g>
            <g id="Grupo_1223337" data-name="Grupo 1223337">
              <path id="Trazado_1177320" data-name="Trazado 1177320" d="M16,8a1,1,0,0,1-1-1V2a1,1,0,0,1,2,0V7A1,1,0,0,1,16,8Z"/>
            </g>
          </g>
        </g>
      </g>
    </g>
  </g>
</svg>
