<svg xmlns="http://www.w3.org/2000/svg" xmlns:xlink="http://www.w3.org/1999/xlink" width="113" height="113" viewBox="0 0 113 113">
  <defs>
    <filter id="Trazado_982547" x="0" y="0" width="113" height="113" filterUnits="userSpaceOnUse">
      <feOffset dy="3" input="SourceAlpha"/>
      <feGaussianBlur stdDeviation="3" result="blur"/>
      <feFlood flood-opacity="0.161"/>
      <feComposite operator="in" in2="blur"/>
      <feComposite in="SourceGraphic"/>
    </filter>
  </defs>
  <g id="Grupo_1223668" data-name="Grupo 1223668" transform="translate(-5436.49 -3846.423)">
    <g id="Grupo_1223180" data-name="Grupo 1223180" transform="translate(5445.49 3852.423)">
      <g id="Grupo_1211216" data-name="Grupo 1211216" transform="translate(0)">
        <g id="Grupo_1210737" data-name="Grupo 1210737">
          <g id="Grupo_1210537" data-name="Grupo 1210537">
            <g id="Grupo_1164202" data-name="Grupo 1164202">
              <g id="Grupo_1158168" data-name="Grupo 1158168">
                <g id="Grupo_1152576" data-name="Grupo 1152576">
                  <g id="Grupo_1148633" data-name="Grupo 1148633">
                    <g id="Grupo_1148525" data-name="Grupo 1148525">
                      <g transform="matrix(1, 0, 0, 1, -9, -6)" filter="url(#Trazado_982547)">
                        <g id="Trazado_982547-2" data-name="Trazado 982547" transform="translate(9 6)" fill="#fcf5f0">
                          <path d="M 47.49999618530273 93.5 C 41.28936767578125 93.5 35.26533126831055 92.28396606445312 29.59518241882324 89.88570404052734 C 24.11771583557129 87.56893157958984 19.19812965393066 84.251953125 14.97308921813965 80.02690124511719 C 10.74803638458252 75.80186462402344 7.431062698364258 70.88227844238281 5.114289283752441 65.40480804443359 C 2.716022968292236 59.73466110229492 1.499996185302734 53.71062469482422 1.499996185302734 47.49999618530273 C 1.499996185302734 41.28936767578125 2.716022968292236 35.26533126831055 5.114289283752441 29.59518241882324 C 7.431062698364258 24.11771583557129 10.74803638458252 19.19812965393066 14.97308921813965 14.97308921813965 C 19.19812965393066 10.74803638458252 24.11771583557129 7.431062698364258 29.59518241882324 5.114289283752441 C 35.26533126831055 2.716022968292236 41.28936767578125 1.499996185302734 47.49999618530273 1.499996185302734 C 53.71062469482422 1.499996185302734 59.73466110229492 2.716022968292236 65.40480804443359 5.114289283752441 C 70.88227844238281 7.431062698364258 75.80186462402344 10.74803638458252 80.02690124511719 14.97308921813965 C 84.251953125 19.19812965393066 87.56893157958984 24.11771583557129 89.88570404052734 29.59518241882324 C 92.28396606445312 35.26533126831055 93.5 41.28936767578125 93.5 47.49999618530273 C 93.5 53.71062469482422 92.28396606445312 59.73466110229492 89.88570404052734 65.40480804443359 C 87.56893157958984 70.88227844238281 84.251953125 75.80186462402344 80.02690124511719 80.02690124511719 C 75.80186462402344 84.251953125 70.88227844238281 87.56893157958984 65.40480804443359 89.88570404052734 C 59.73466110229492 92.28396606445312 53.71062469482422 93.5 47.49999618530273 93.5 Z" stroke="none"/>
                          <path d="M 47.49999618530273 2.999992370605469 C 41.4912109375 2.999992370605469 35.66376495361328 4.1761474609375 30.17950439453125 6.495796203613281 C 24.88084411621094 8.736953735351562 20.12152099609375 11.94598388671875 16.03375244140625 16.03375244140625 C 11.94598388671875 20.12152099609375 8.736953735351562 24.88084411621094 6.495796203613281 30.17950439453125 C 4.1761474609375 35.66376495361328 2.999992370605469 41.4912109375 2.999992370605469 47.49999618530273 C 2.999992370605469 53.50878143310547 4.1761474609375 59.33622741699219 6.495796203613281 64.82048797607422 C 8.736953735351562 70.11914825439453 11.94598388671875 74.87847137451172 16.03375244140625 78.96623992919922 C 20.12152099609375 83.05400848388672 24.88084411621094 86.26304626464844 30.17950439453125 88.50419616699219 C 35.66376495361328 90.82384490966797 41.4912109375 92 47.49999618530273 92 C 53.50878143310547 92 59.33622741699219 90.82384490966797 64.82048797607422 88.50419616699219 C 70.11914825439453 86.26304626464844 74.87847137451172 83.05400848388672 78.96623992919922 78.96623992919922 C 83.05400848388672 74.87847137451172 86.26304626464844 70.11914825439453 88.50419616699219 64.82048797607422 C 90.82384490966797 59.33622741699219 92 53.50878143310547 92 47.49999618530273 C 92 41.4912109375 90.82384490966797 35.66376495361328 88.50419616699219 30.17950439453125 C 86.26304626464844 24.88084411621094 83.05400848388672 20.12152099609375 78.96623992919922 16.03375244140625 C 74.87847137451172 11.94598388671875 70.11914825439453 8.736953735351562 64.82048797607422 6.495796203613281 C 59.33622741699219 4.1761474609375 53.50878143310547 2.999992370605469 47.49999618530273 2.999992370605469 M 47.49999618530273 -7.62939453125e-06 C 73.7335205078125 -7.62939453125e-06 95 21.26647186279297 95 47.49999618530273 C 95 73.7335205078125 73.7335205078125 95 47.49999618530273 95 C 21.26647186279297 95 -7.62939453125e-06 73.7335205078125 -7.62939453125e-06 47.49999618530273 C -7.62939453125e-06 21.26647186279297 21.26647186279297 -7.62939453125e-06 47.49999618530273 -7.62939453125e-06 Z" stroke="none" fill="#eca675"/>
                        </g>
                      </g>
                    </g>
                  </g>
                </g>
              </g>
            </g>
          </g>
        </g>
      </g>
    </g>
    <g id="caring_15912627" transform="translate(5418.221 3861.35)">
      <g id="Grupo_1223665" data-name="Grupo 1223665" transform="translate(48.635 7.5)">
        <path id="Trazado_1178134" data-name="Trazado 1178134" d="M98.439,11.525a13.743,13.743,0,0,0-19.435,0l-3.239,3.239-3.239-3.239a13.743,13.743,0,0,0-19.435,0c-6.038,5.956-4.836,15.368,1.444,20.879l21.23,21.23L98.439,30.96A13.743,13.743,0,0,0,98.439,11.525Z" transform="translate(-49.141 -7.5)" fill="#f696c3"/>
        <path id="Trazado_1178135" data-name="Trazado 1178135" d="M54.123,31.53a13.882,13.882,0,0,0-1.032.933c-6.038,5.956-4.836,15.368,1.444,20.879l21.23,21.23L77.8,72.538l-21.23-21.23C50.664,46.126,49.249,37.494,54.123,31.53Z" transform="translate(-49.141 -28.438)" fill="#f072ae"/>
        <path id="Trazado_1178136" data-name="Trazado 1178136" d="M223.273,281.425l-5.791,5.873-5.791-5.667v-5.963h11.582Z" transform="translate(-190.776 -241.163)" fill="#57758d"/>
        <path id="Trazado_1178137" data-name="Trazado 1178137" d="M214.5,280.253v-4.585h-2.809v5.963l5.791,5.667,2.071-2.1Z" transform="translate(-190.776 -241.163)" fill="#4b6276"/>
        <path id="Trazado_1178138" data-name="Trazado 1178138" d="M194.432,141.042l-7.574.02a6.786,6.786,0,0,0-5.79,6.712v12.57l3.876,3.983v-5.992h11.517l3.907-3.982v-6.579A6.786,6.786,0,0,0,194.432,141.042Z" transform="translate(-164.093 -123.859)" fill="#ffdaaa"/>
        <g id="Grupo_1223662" data-name="Grupo 1223662" transform="translate(16.975 32.272)">
          <path id="Trazado_1178139" data-name="Trazado 1178139" d="M181.068,262.528l3.876,3.983V262.3l-3.876-3.983Z" transform="translate(-181.068 -258.316)" fill="#ffb680"/>
        </g>
        <path id="Trazado_1178140" data-name="Trazado 1178140" d="M194.432,141.042l-7.574.02a6.786,6.786,0,0,0-5.79,6.712v2.84h3.941v7.72h11.453l.722-.8-6.176-6.213a1.93,1.93,0,0,1,.016-2.738h0a1.93,1.93,0,0,1,2.747.042l2.006,1.986h4.593l0-2.84A6.785,6.785,0,0,0,194.432,141.042Z" transform="translate(-164.093 -123.859)" fill="#8ad8f6"/>
        <path id="Trazado_1178141" data-name="Trazado 1178141" d="M185.008,158.42H196.46l.722-.8-2.086-2.1H187.9v-8.636H184.04V145.8a3.839,3.839,0,0,1,3.238-3.848l.432.065,1.84-.878-2.693.007a6.786,6.786,0,0,0-5.79,6.712v2.84h3.941v7.72Z" transform="translate(-164.092 -123.946)" fill="#54c9f3"/>
        <circle id="Elipse_14708" data-name="Elipse 14708" cx="4.828" cy="4.828" r="4.828" transform="translate(21.797 9.287)" fill="#ffdaaa"/>
        <path id="Trazado_1178142" data-name="Trazado 1178142" d="M225.452,90.9a4.827,4.827,0,0,1-4.29-7.041,4.827,4.827,0,1,0,6.5,6.5A4.8,4.8,0,0,1,225.452,90.9Z" transform="translate(-196.75 -74.031)" fill="#ffb680"/>
        <path id="Trazado_1178143" data-name="Trazado 1178143" d="M95.946,272.5V262.258l-4.881-7.72V248.31A1.93,1.93,0,0,1,93,246.38h0a1.93,1.93,0,0,1,1.93,1.93v-9.65a1.927,1.927,0,0,1,.78-1.55L112.3,253.7l-4.769,8.557V272.5H95.946Z" transform="translate(-85.671 -207.566)" fill="#ffdaaa"/>
        <g id="Grupo_1223663" data-name="Grupo 1223663" transform="translate(5.394 38.813)">
          <path id="Trazado_1178144" data-name="Trazado 1178144" d="M95.946,335.271h11.58v-1.866H98.841v-9.211l-4.881-7.72v-5.39h.965a1.93,1.93,0,1,0-3.86,0v6.228l4.881,7.72Z" transform="translate(-91.065 -309.155)" fill="#ffb680"/>
        </g>
        <path id="Trazado_1178145" data-name="Trazado 1178145" d="M271.017,272.5V262.258l4.881-7.72V248.31a1.93,1.93,0,0,0-1.93-1.93h0a1.93,1.93,0,0,0-1.93,1.93v-9.65a1.927,1.927,0,0,0-.78-1.55l-16.8,16.8,4.975,8.351V272.5h11.58Z" transform="translate(-228.043 -207.566)" fill="#ffdaaa"/>
        <g id="Grupo_1223664" data-name="Grupo 1223664" transform="translate(26.418 44.181)">
          <path id="Trazado_1178146" data-name="Trazado 1178146" d="M271.017,371.622v-1.866h-8.685V360.6l-5.711-9.723-2.159,2.159,4.975,8.351v10.238Z" transform="translate(-254.461 -350.873)" fill="#ffb680"/>
        </g>
        <path id="Trazado_1178147" data-name="Trazado 1178147" d="M89.314,47.053a9.754,9.754,0,0,1,5.106-4.295" transform="translate(-84.145 -38.221)" fill="none" stroke="#fff" stroke-miterlimit="10" stroke-width="1" stroke-dasharray="15"/>
      </g>
      <g id="Grupo_1223667" data-name="Grupo 1223667" transform="translate(48.561 7.5)">
        <line id="Línea_3736" data-name="Línea 3736" y2="3.988" transform="translate(43.048 60.942)" fill="none" stroke="#000" stroke-miterlimit="10" stroke-width="1"/>
        <path id="Trazado_1178148" data-name="Trazado 1178148" d="M383.371,237.11a1.927,1.927,0,0,1,.78,1.55v9.65a1.93,1.93,0,0,1,1.93-1.93h0a1.93,1.93,0,0,1,1.93,1.93v6.228l-4.881,7.72v4.32" transform="translate(-340.082 -207.566)" fill="none" stroke="#000" stroke-miterlimit="10" stroke-width="1"/>
        <path id="Trazado_1178149" data-name="Trazado 1178149" d="M260.834,387.552V377.314l-4.769-8.158" transform="translate(-229.366 -322.622)" fill="none" stroke="#000" stroke-miterlimit="10" stroke-width="1"/>
        <path id="Trazado_1178150" data-name="Trazado 1178150" d="M365.88,354.179h0a4.815,4.815,0,0,0-4.815,4.816v1.87" transform="translate(-320.856 -309.572)" fill="none" stroke="#000" stroke-miterlimit="10" stroke-width="1"/>
        <path id="Trazado_1178151" data-name="Trazado 1178151" d="M95.7,237.11a1.927,1.927,0,0,0-.78,1.55v9.65a1.93,1.93,0,0,0-1.93-1.93h0a1.93,1.93,0,0,0-1.93,1.93v6.228l4.881,7.72V272.5" transform="translate(-85.595 -207.566)" fill="none" stroke="#000" stroke-miterlimit="10" stroke-width="1"/>
        <path id="Trazado_1178152" data-name="Trazado 1178152" d="M219,387.552V377.314l4.769-8.158" transform="translate(-197.07 -322.622)" fill="none" stroke="#000" stroke-miterlimit="10" stroke-width="1"/>
        <path id="Trazado_1178153" data-name="Trazado 1178153" d="M113.639,354.179h0a4.816,4.816,0,0,1,4.816,4.816v1.87" transform="translate(-105.265 -309.572)" fill="none" stroke="#000" stroke-miterlimit="10" stroke-width="1"/>
        <path id="Trazado_1178154" data-name="Trazado 1178154" d="M55.485,33.859,75.26,53.634,97.934,30.96a13.743,13.743,0,0,0,0-19.435h0a13.743,13.743,0,0,0-19.435,0L75.26,14.764l-3.239-3.239A13.743,13.743,0,0,0,52.586,30.96L54.03,32.4" transform="translate(-48.561 -7.5)" fill="none" stroke="#000" stroke-miterlimit="10" stroke-width="1"/>
        <line id="Línea_3737" data-name="Línea 3737" y1="9.018" transform="translate(40.209 32.624)" fill="none" stroke="#000" stroke-miterlimit="10" stroke-width="1"/>
        <line id="Línea_3738" data-name="Línea 3738" y1="5.158" transform="translate(36.349 36.484)" fill="none" stroke="#000" stroke-miterlimit="10" stroke-width="1"/>
        <line id="Línea_3739" data-name="Línea 3739" y1="9.018" transform="translate(13.189 32.624)" fill="none" stroke="#000" stroke-miterlimit="10" stroke-width="1"/>
        <line id="Línea_3740" data-name="Línea 3740" y1="5.158" transform="translate(17.049 36.484)" fill="none" stroke="#000" stroke-miterlimit="10" stroke-width="1"/>
        <g id="Grupo_1223666" data-name="Grupo 1223666" transform="translate(17.049 9.473)">
          <circle id="Elipse_14709" data-name="Elipse 14709" cx="4.828" cy="4.828" r="4.828" transform="translate(4.822)" fill="none" stroke="#000" stroke-miterlimit="10" stroke-width="1"/>
          <path id="Trazado_1178155" data-name="Trazado 1178155" d="M257.51,142.485a6.785,6.785,0,0,1,5.937,6.732V155.8l-3.185,3.185-6.235-6.235a1.93,1.93,0,0,1,0-2.729h0a1.93,1.93,0,0,1,2.729,0l3.176,3.176" transform="translate(-244.146 -134.589)" fill="none" stroke="#000" stroke-miterlimit="10" stroke-width="1"/>
          <path id="Trazado_1178156" data-name="Trazado 1178156" d="M181.065,161.736V149.352a6.786,6.786,0,0,1,5.79-6.712" transform="translate(-181.065 -134.724)" fill="none" stroke="#000" stroke-miterlimit="10" stroke-width="1"/>
          <line id="Línea_3741" data-name="Línea 3741" x1="0.001" y1="4.868" transform="translate(15.52 13.471)" fill="none" stroke="#000" stroke-miterlimit="10" stroke-width="1"/>
          <line id="Línea_3742" data-name="Línea 3742" x1="0.001" y1="7.197" transform="translate(15.521 23.797)" fill="none" stroke="#000" stroke-miterlimit="10" stroke-width="1"/>
          <line id="Línea_3743" data-name="Línea 3743" y1="17.524" transform="translate(3.941 13.471)" fill="none" stroke="#000" stroke-miterlimit="10" stroke-width="1"/>
          <line id="Línea_3744" data-name="Línea 3744" x1="11.581" transform="translate(3.941 25.188)" fill="none" stroke="#000" stroke-miterlimit="10" stroke-width="1"/>
          <line id="Línea_3745" data-name="Línea 3745" x1="3.863" transform="translate(0.077 17.468)" fill="none" stroke="#000" stroke-miterlimit="10" stroke-width="1"/>
          <line id="Línea_3746" data-name="Línea 3746" x1="3.863" transform="translate(15.439 17.468)" fill="none" stroke="#000" stroke-miterlimit="10" stroke-width="1"/>
        </g>
      </g>
    </g>
  </g>
</svg>
