<svg xmlns="http://www.w3.org/2000/svg" xmlns:xlink="http://www.w3.org/1999/xlink" width="118" height="118" viewBox="0 0 118 118">
  <defs>
    <filter id="Trazado_982547" x="0" y="0" width="118" height="118" filterUnits="userSpaceOnUse">
      <feOffset dy="3" input="SourceAlpha"/>
      <feGaussianBlur stdDeviation="3" result="blur"/>
      <feFlood flood-opacity="0.161"/>
      <feComposite operator="in" in2="blur"/>
      <feComposite in="SourceGraphic"/>
    </filter>
  </defs>
  <g id="Grupo_1223818" data-name="Grupo 1223818" transform="translate(-1213.5 -4258.933)">
    <g id="Grupo_1223740" data-name="Grupo 1223740" transform="translate(0 -4646.112)">
      <g id="Grupo_1223202" data-name="Grupo 1223202" transform="translate(1222.5 8911.045)">
        <g id="Grupo_1211216" data-name="Grupo 1211216" transform="translate(0)">
          <g id="Grupo_1210737" data-name="Grupo 1210737">
            <g id="Grupo_1210537" data-name="Grupo 1210537">
              <g id="Grupo_1164202" data-name="Grupo 1164202">
                <g id="Grupo_1158168" data-name="Grupo 1158168">
                  <g id="Grupo_1152576" data-name="Grupo 1152576">
                    <g id="Grupo_1148633" data-name="Grupo 1148633">
                      <g id="Grupo_1148525" data-name="Grupo 1148525">
                        <g transform="matrix(1, 0, 0, 1, -9, -6)" filter="url(#Trazado_982547)">
                          <g id="Trazado_982547-2" data-name="Trazado 982547" transform="translate(9 6)" fill="#fcf5f0">
                            <path d="M 49.99999618530273 98.5 C 43.45188140869141 98.5 37.10042572021484 97.21786499023438 31.12206840515137 94.68923950195312 C 25.34691047668457 92.24655151367188 20.15996742248535 88.74931335449219 15.70532512664795 84.29468536376953 C 11.25068187713623 79.84004211425781 7.753438949584961 74.65309906005859 5.310753345489502 68.87792205810547 C 2.782124757766724 62.89956665039062 1.499996185302734 56.54811096191406 1.499996185302734 49.99999618530273 C 1.499996185302734 43.45188140869141 2.782124757766724 37.10042572021484 5.310753345489502 31.12206840515137 C 7.753438949584961 25.34691047668457 11.25068187713623 20.15996742248535 15.70532512664795 15.70532512664795 C 20.15996742248535 11.25068187713623 25.34691047668457 7.753438949584961 31.12206840515137 5.310753345489502 C 37.10042572021484 2.782124757766724 43.45188140869141 1.499996185302734 49.99999618530273 1.499996185302734 C 56.54811096191406 1.499996185302734 62.89956665039062 2.782124757766724 68.87792205810547 5.310753345489502 C 74.65309906005859 7.753438949584961 79.84004211425781 11.25068187713623 84.29468536376953 15.70532512664795 C 88.74931335449219 20.15996742248535 92.24655151367188 25.34691047668457 94.68923950195312 31.12206840515137 C 97.21786499023438 37.10042572021484 98.5 43.45188140869141 98.5 49.99999618530273 C 98.5 56.54811096191406 97.21786499023438 62.89956665039062 94.68923950195312 68.87792205810547 C 92.24655151367188 74.65309906005859 88.74931335449219 79.84004211425781 84.29468536376953 84.29468536376953 C 79.84004211425781 88.74931335449219 74.65309906005859 92.24655151367188 68.87792205810547 94.68923950195312 C 62.89956665039062 97.21786499023438 56.54811096191406 98.5 49.99999618530273 98.5 Z" stroke="none"/>
                            <path d="M 49.99999618530273 2.999992370605469 C 43.65372085571289 2.999992370605469 37.49885940551758 4.242256164550781 31.70639801025391 6.6922607421875 C 26.11002349853516 9.059318542480469 21.08335113525391 12.4486083984375 16.76598358154297 16.76598358154297 C 12.4486083984375 21.08335113525391 9.059318542480469 26.11002349853516 6.6922607421875 31.70639801025391 C 4.242256164550781 37.49885940551758 2.999992370605469 43.65372085571289 2.999992370605469 49.99999618530273 C 2.999992370605469 56.34627151489258 4.242256164550781 62.50113296508789 6.6922607421875 68.29359436035156 C 9.059318542480469 73.88996887207031 12.4486083984375 78.91664123535156 16.76598358154297 83.2340087890625 C 21.08335113525391 87.55138397216797 26.11002349853516 90.940673828125 31.70639801025391 93.30773162841797 C 37.49885940551758 95.75773620605469 43.65372085571289 97 49.99999618530273 97 C 56.34627151489258 97 62.50113296508789 95.75773620605469 68.29359436035156 93.30773162841797 C 73.88996887207031 90.940673828125 78.91664123535156 87.55138397216797 83.2340087890625 83.2340087890625 C 87.55138397216797 78.91664123535156 90.940673828125 73.88996887207031 93.30773162841797 68.29359436035156 C 95.75773620605469 62.50113296508789 97 56.34627151489258 97 49.99999618530273 C 97 43.65372085571289 95.75773620605469 37.49885940551758 93.30773162841797 31.70639801025391 C 90.940673828125 26.11002349853516 87.55138397216797 21.08335113525391 83.2340087890625 16.76598358154297 C 78.91664123535156 12.4486083984375 73.88996887207031 9.059318542480469 68.29359436035156 6.6922607421875 C 62.50113296508789 4.242256164550781 56.34627151489258 2.999992370605469 49.99999618530273 2.999992370605469 M 49.99999618530273 -7.62939453125e-06 C 77.61422729492188 -7.62939453125e-06 100 22.38576507568359 100 49.99999618530273 C 100 77.61422729492188 77.61422729492188 100 49.99999618530273 100 C 22.38576507568359 100 -7.62939453125e-06 77.61422729492188 -7.62939453125e-06 49.99999618530273 C -7.62939453125e-06 22.38576507568359 22.38576507568359 -7.62939453125e-06 49.99999618530273 -7.62939453125e-06 Z" stroke="none" fill="#eca675"/>
                          </g>
                        </g>
                      </g>
                    </g>
                  </g>
                </g>
              </g>
            </g>
          </g>
        </g>
      </g>
    </g>
    <g id="cooperation_18290480" transform="translate(1209.149 4252.345)">
      <g id="Grupo_1223817" data-name="Grupo 1223817" transform="translate(31.862 30.392)">
        <path id="Trazado_1179017" data-name="Trazado 1179017" d="M96.28,59.78h46.266v4.259H96.28Z" transform="translate(-87.92 -56.433)" fill="#66f" fill-rule="evenodd"/>
        <path id="Trazado_1179018" data-name="Trazado 1179018" d="M238.83,60.17H244.3v31.3H238.83Z" transform="translate(-210.072 -56.767)" fill="#66f" fill-rule="evenodd"/>
        <path id="Trazado_1179019" data-name="Trazado 1179019" d="M147.8,187.312l-11.276,5.9,2.125-12.547-9.094-8.9,12.591-1.853,5.654-11.4v13.933a3.5,3.5,0,0,0-.929-.126,3.542,3.542,0,0,0,0,7.083,3.5,3.5,0,0,0,.929-.122Z" transform="translate(-116.438 -141.035)" fill="#fde01b" fill-rule="evenodd"/>
        <path id="Trazado_1179020" data-name="Trazado 1179020" d="M230.29,158.51l5.654,11.4,12.591,1.853-9.094,8.9,2.125,12.547-11.276-5.9v-8.035a3.5,3.5,0,0,1-.929.122,3.541,3.541,0,1,1,0-7.082,3.5,3.5,0,0,1,.929.126Z" transform="translate(-198.924 -141.035)" fill="#0ed2b3" fill-rule="evenodd"/>
        <path id="Trazado_1179021" data-name="Trazado 1179021" d="M67.179,293.255l-10.3-.568.969-16.294a6.741,6.741,0,0,1,4.276-5.967l9.122-3.708L72.2,265.7c2.1-2.357,6.137.369,4.665,3.135l-4.669,8.6c-.515,3.14-.986,6.814-4.336,9.306Z" transform="translate(-54.158 -232.118)" fill="#ffcebf" fill-rule="evenodd"/>
        <path id="Trazado_1179022" data-name="Trazado 1179022" d="M113.28,293.259l-2.6-.146.628-6.056c3.489-2.591,3.979-6.421,4.519-9.69l4.855-8.948a2.718,2.718,0,0,0-.933-3.562c2.056-.4,4.389,1.777,3.212,3.984l-4.669,8.6c-.515,3.14-.986,6.814-4.336,9.306Z" transform="translate(-100.26 -232.123)" fill="#ffb09e" fill-rule="evenodd"/>
        <path id="Trazado_1179023" data-name="Trazado 1179023" d="M38.4,445.413H53.261a.546.546,0,0,0,.544-.544v-5.755a.549.549,0,0,0-.544-.544H38.4a.546.546,0,0,0-.544.544v5.755A.544.544,0,0,0,38.4,445.413Z" transform="translate(-37.86 -381.02)" fill="#0593fc" fill-rule="evenodd"/>
        <path id="Trazado_1179024" data-name="Trazado 1179024" d="M38.4,445.413H48.512a.544.544,0,0,0,.544-.544v-5.755a.546.546,0,0,0-.544-.544H38.4a.546.546,0,0,0-.544.544v5.755A.544.544,0,0,0,38.4,445.413Z" transform="translate(-37.86 -381.02)" fill="#26a6fe" fill-rule="evenodd"/>
        <path id="Trazado_1179025" data-name="Trazado 1179025" d="M327.151,293.255l10.3-.568-.969-16.294a6.745,6.745,0,0,0-4.276-5.967l-9.127-3.708-.949-1.017c-2.1-2.357-6.137.369-4.661,3.135l4.665,8.6c.519,3.14.99,6.814,4.34,9.306Z" transform="translate(-277.187 -232.118)" fill="#f89580" fill-rule="evenodd"/>
        <path id="Trazado_1179026" data-name="Trazado 1179026" d="M327.154,293.259l2.6-.146-.628-6.056c-3.489-2.591-3.979-6.421-4.519-9.69l-4.86-8.948a2.719,2.719,0,0,1,.937-3.562c-2.061-.4-4.389,1.777-3.213,3.984l4.665,8.6c.519,3.14.99,6.814,4.34,9.306Z" transform="translate(-277.189 -232.123)" fill="#ec806b" fill-rule="evenodd"/>
        <path id="Trazado_1179027" data-name="Trazado 1179027" d="M381.987,445.413H367.134a.544.544,0,0,1-.544-.544v-5.755a.546.546,0,0,1,.544-.544h14.853a.546.546,0,0,1,.544.544v5.755A.544.544,0,0,1,381.987,445.413Z" transform="translate(-319.55 -381.02)" fill="#0593fc" fill-rule="evenodd"/>
        <path id="Trazado_1179028" data-name="Trazado 1179028" d="M410.4,445.413H400.3a.547.547,0,0,1-.548-.544v-5.755a.55.55,0,0,1,.548-.544h10.1a.546.546,0,0,1,.544.544v5.755A.544.544,0,0,1,410.4,445.413Z" transform="translate(-347.965 -381.02)" fill="#26a6fe" fill-rule="evenodd"/>
        <path id="Trazado_1179029" data-name="Trazado 1179029" d="M85.546,161.793H97.893l2.534-4.393H83.01Z" transform="translate(-76.549 -140.084)" fill="#fdcb0f" fill-rule="evenodd"/>
        <path id="Trazado_1179030" data-name="Trazado 1179030" d="M104.349,161.793H114l2.534-4.393H101.81Z" transform="translate(-92.659 -140.084)" fill="#fde01b" fill-rule="evenodd"/>
        <path id="Trazado_1179031" data-name="Trazado 1179031" d="M313.659,161.793H326l2.54-4.393H311.12Z" transform="translate(-272.018 -140.084)" fill="#fdcb0f" fill-rule="evenodd"/>
        <path id="Trazado_1179032" data-name="Trazado 1179032" d="M332.476,161.793h9.653l2.54-4.393H329.94Z" transform="translate(-288.145 -140.084)" fill="#fde01b" fill-rule="evenodd"/>
        <path id="Trazado_1179033" data-name="Trazado 1179033" d="M225.146,36.39a5.476,5.476,0,1,1-5.476,5.476A5.476,5.476,0,0,1,225.146,36.39Z" transform="translate(-193.654 -36.39)" fill="#fdcb0f" fill-rule="evenodd"/>
        <path id="Trazado_1179034" data-name="Trazado 1179034" d="M235.249,36.39A5.475,5.475,0,0,1,240.1,44.4a5.477,5.477,0,0,1-8.023-7A5.466,5.466,0,0,1,235.249,36.39Z" transform="translate(-203.757 -36.39)" fill="#fde01b" fill-rule="evenodd"/>
      </g>
      <path id="Trazado_1179035" data-name="Trazado 1179035" d="M63.354,29.39a6.471,6.471,0,0,1,5.671,3.347H86.487a1,1,0,0,1,1,1V38a1,1,0,0,1-1,1H81.778l6.27,7.707h.336a1,1,0,0,1,.864,1.5l-2.5,4.332a1.007,1.007,0,0,1-.9.564H73.5v0a1.011,1.011,0,0,1-.869-.5l-2.487-4.307a1,1,0,0,1,.816-1.583H71.3L77.569,39H69.022a6.494,6.494,0,0,1-1.939,2.162V53.394l2.458,4.953,12.072,1.78a1,1,0,0,1,.515,1.744l-2.755,2.7,7.877,3.2a7.74,7.74,0,0,1,4.9,6.834l.734,12.335H94.3a1.556,1.556,0,0,1,1.545,1.545V94.24A1.548,1.548,0,0,1,94.3,95.785H79.442A1.556,1.556,0,0,1,77.9,94.24V88.484a1.548,1.548,0,0,1,1.545-1.545h.9l-.146-1.408c-3.221-2.6-3.8-6.149-4.307-9.277l-.037-.228-2.093-3.858L75.486,82.4a1,1,0,0,1-1.505,1.017L63.224,77.789,52.41,83.447a1,1,0,0,1-1.448-1.05l1.618-9.56-1.729,3.188-.04.228c-.507,3.127-1.088,6.673-4.307,9.277l-.146,1.408c.8,0,1.428-.106,1.992.458a1.535,1.535,0,0,1,.454,1.088v5.755a1.548,1.548,0,0,1-1.545,1.545H32.405a1.554,1.554,0,0,1-1.545-1.545V88.483a1.548,1.548,0,0,1,1.545-1.545h1.415L34.555,74.6a7.738,7.738,0,0,1,4.9-6.834l7.7-3.127-2.872-2.81a1,1,0,0,1,.555-1.7v0l12.072-1.78,2.71-5.459V41.161A6.54,6.54,0,0,1,57.679,39H49.132l6.275,7.707h.332a1,1,0,0,1,.864,1.5l-2.5,4.332a1,1,0,0,1-.9.564H40.857v0a1,1,0,0,1-.864-.5L37.5,48.289a1,1,0,0,1,.82-1.583h.332L44.929,39H40.217a1,1,0,0,1-1-1V33.739a1,1,0,0,1,1-1H57.679a6.476,6.476,0,0,1,5.675-3.347Zm6.381,5.346a6.583,6.583,0,0,1,0,2.259H85.485V34.736ZM65.086,42.11a6.529,6.529,0,0,1-3.464,0v6.741c.122-.243.661-1.4.807-1.59a1,1,0,0,1,1.7.159l.962,1.939ZM56.974,37a6.583,6.583,0,0,1,0-2.259H41.219V37ZM66.518,32.7a4.475,4.475,0,1,0-3.164,7.638A4.481,4.481,0,0,0,66.518,32.7ZM74.075,51.1h11.2l1.384-2.39H72.7Zm-.2-4.393h4.8V40.812Zm6.8,0h4.8l-4.8-5.894ZM41.43,51.1h11.2l1.379-2.39H40.051Zm-.2-4.393h4.8V40.812Zm6.8,0h4.8l-4.8-5.894ZM82.353,86.94h8.53l-.725-12.218A5.744,5.744,0,0,0,86.5,69.629l-6.429-2.616,3.119,5.408a1,1,0,1,1-1.727.993L76.955,65.6l-.9-.957c-1.322-1.488-3.951.288-3.038,1.992l4.665,8.6a.938.938,0,0,1,.11.316c.491,3,.949,6.438,3.947,8.664a.981.981,0,0,1,.4.7h0ZM79.9,93.783H93.841v-4.84H79.9ZM72.023,68.97l-.758-1.4c-2.036-3.785,3.4-7.513,6.292-4.267h0l.122.13,1.658-1.623L68.737,60.254v0a.99.99,0,0,1-.75-.544l-3.756-7.577V61.8a1,1,0,0,1-1.311.953,2.58,2.58,0,0,0-2.417.665,2.546,2.546,0,0,0,2.138,4.316,2.264,2.264,0,0,0,.329-.069,1,1,0,0,1,1.258.969h0v7.431l8.952,4.685L71.4,70.184c-.1-.584.265-.86.627-1.213ZM32.863,93.783H46.805v-4.84H32.863ZM35.82,86.94h8.534l.21-2.032a.988.988,0,0,1,.4-.7c3-2.227,3.456-5.662,3.947-8.664a1.109,1.109,0,0,1,.11-.316l4.669-8.6c.909-1.7-1.716-3.48-3.042-1.992l-.893.957-4.515,7.816a1,1,0,1,1-1.729-.993l3.119-5.408L40.2,69.627a5.743,5.743,0,0,0-3.659,5.094ZM48.914,63.568l.239-.259c2.888-3.245,8.328.482,6.292,4.267L54.6,69.135a1.093,1.093,0,0,1,.466,1.05L53.276,80.751l8.952-4.685V69.759a4.544,4.544,0,0,1,0-9.087V52.129l-3.736,7.533a1.009,1.009,0,0,1-.774.592L47.123,61.816Z" transform="translate(0)"/>
    </g>
  </g>
</svg>
