<svg xmlns="http://www.w3.org/2000/svg" xmlns:xlink="http://www.w3.org/1999/xlink" width="113" height="113" viewBox="0 0 113 113">
  <defs>
    <filter id="Trazado_982547" x="0" y="0" width="113" height="113" filterUnits="userSpaceOnUse">
      <feOffset dy="3" input="SourceAlpha"/>
      <feGaussianBlur stdDeviation="3" result="blur"/>
      <feFlood flood-opacity="0.161"/>
      <feComposite operator="in" in2="blur"/>
      <feComposite in="SourceGraphic"/>
    </filter>
  </defs>
  <g id="Grupo_1223670" data-name="Grupo 1223670" transform="translate(-355.49 -4575.069)">
    <g id="Grupo_1223183" data-name="Grupo 1223183" transform="translate(364.49 4581.069)">
      <g id="Grupo_1211217" data-name="Grupo 1211217" transform="translate(0)">
        <g id="Grupo_1210736" data-name="Grupo 1210736">
          <g id="Grupo_1210537" data-name="Grupo 1210537">
            <g id="Grupo_1164202" data-name="Grupo 1164202">
              <g id="Grupo_1158168" data-name="Grupo 1158168">
                <g id="Grupo_1152576" data-name="Grupo 1152576">
                  <g id="Grupo_1148633" data-name="Grupo 1148633">
                    <g id="Grupo_1148525" data-name="Grupo 1148525">
                      <g transform="matrix(1, 0, 0, 1, -9, -6)" filter="url(#Trazado_982547)">
                        <g id="Trazado_982547-2" data-name="Trazado 982547" transform="translate(9 6)" fill="#fcf5f0">
                          <path d="M 47.49999618530273 93.5 C 41.28936767578125 93.5 35.26533126831055 92.28396606445312 29.59518241882324 89.88570404052734 C 24.11771583557129 87.56893157958984 19.19812965393066 84.251953125 14.97308921813965 80.02690124511719 C 10.74803638458252 75.80186462402344 7.431062698364258 70.88227844238281 5.114289283752441 65.40480804443359 C 2.716022968292236 59.73466110229492 1.499996185302734 53.71062469482422 1.499996185302734 47.49999618530273 C 1.499996185302734 41.28936767578125 2.716022968292236 35.26533126831055 5.114289283752441 29.59518241882324 C 7.431062698364258 24.11771583557129 10.74803638458252 19.19812965393066 14.97308921813965 14.97308921813965 C 19.19812965393066 10.74803638458252 24.11771583557129 7.431062698364258 29.59518241882324 5.114289283752441 C 35.26533126831055 2.716022968292236 41.28936767578125 1.499996185302734 47.49999618530273 1.499996185302734 C 53.71062469482422 1.499996185302734 59.73466110229492 2.716022968292236 65.40480804443359 5.114289283752441 C 70.88227844238281 7.431062698364258 75.80186462402344 10.74803638458252 80.02690124511719 14.97308921813965 C 84.251953125 19.19812965393066 87.56893157958984 24.11771583557129 89.88570404052734 29.59518241882324 C 92.28396606445312 35.26533126831055 93.5 41.28936767578125 93.5 47.49999618530273 C 93.5 53.71062469482422 92.28396606445312 59.73466110229492 89.88570404052734 65.40480804443359 C 87.56893157958984 70.88227844238281 84.251953125 75.80186462402344 80.02690124511719 80.02690124511719 C 75.80186462402344 84.251953125 70.88227844238281 87.56893157958984 65.40480804443359 89.88570404052734 C 59.73466110229492 92.28396606445312 53.71062469482422 93.5 47.49999618530273 93.5 Z" stroke="none"/>
                          <path d="M 47.49999618530273 2.999992370605469 C 41.4912109375 2.999992370605469 35.66376495361328 4.1761474609375 30.17950439453125 6.495796203613281 C 24.88084411621094 8.736953735351562 20.12152099609375 11.94598388671875 16.03375244140625 16.03375244140625 C 11.94598388671875 20.12152099609375 8.736953735351562 24.88084411621094 6.495796203613281 30.17950439453125 C 4.1761474609375 35.66376495361328 2.999992370605469 41.4912109375 2.999992370605469 47.49999618530273 C 2.999992370605469 53.50878143310547 4.1761474609375 59.33622741699219 6.495796203613281 64.82048797607422 C 8.736953735351562 70.11914825439453 11.94598388671875 74.87847137451172 16.03375244140625 78.96623992919922 C 20.12152099609375 83.05400848388672 24.88084411621094 86.26304626464844 30.17950439453125 88.50419616699219 C 35.66376495361328 90.82384490966797 41.4912109375 92 47.49999618530273 92 C 53.50878143310547 92 59.33622741699219 90.82384490966797 64.82048797607422 88.50419616699219 C 70.11914825439453 86.26304626464844 74.87847137451172 83.05400848388672 78.96623992919922 78.96623992919922 C 83.05400848388672 74.87847137451172 86.26304626464844 70.11914825439453 88.50419616699219 64.82048797607422 C 90.82384490966797 59.33622741699219 92 53.50878143310547 92 47.49999618530273 C 92 41.4912109375 90.82384490966797 35.66376495361328 88.50419616699219 30.17950439453125 C 86.26304626464844 24.88084411621094 83.05400848388672 20.12152099609375 78.96623992919922 16.03375244140625 C 74.87847137451172 11.94598388671875 70.11914825439453 8.736953735351562 64.82048797607422 6.495796203613281 C 59.33622741699219 4.1761474609375 53.50878143310547 2.999992370605469 47.49999618530273 2.999992370605469 M 47.49999618530273 -7.62939453125e-06 C 73.7335205078125 -7.62939453125e-06 95 21.26647186279297 95 47.49999618530273 C 95 73.7335205078125 73.7335205078125 95 47.49999618530273 95 C 21.26647186279297 95 -7.62939453125e-06 73.7335205078125 -7.62939453125e-06 47.49999618530273 C -7.62939453125e-06 21.26647186279297 21.26647186279297 -7.62939453125e-06 47.49999618530273 -7.62939453125e-06 Z" stroke="none" fill="#eca675"/>
                        </g>
                      </g>
                    </g>
                  </g>
                </g>
              </g>
            </g>
          </g>
        </g>
      </g>
    </g>
    <g id="multicultural_17773107_1_" data-name="multicultural_17773107 (1)" transform="translate(351.931 4554.094)">
      <g id="Grupo_1223669" data-name="Grupo 1223669" transform="translate(23.935 46.578)">
        <path id="Trazado_1178157" data-name="Trazado 1178157" d="M128.108,52.61A25.26,25.26,0,1,1,102.85,77.873,25.264,25.264,0,0,1,128.108,52.61Z" transform="translate(-92.593 -52.61)" fill="#bad2d6" fill-rule="evenodd"/>
        <path id="Trazado_1178158" data-name="Trazado 1178158" d="M162.353,52.61a25.26,25.26,0,0,1,15.561,45.159A25.263,25.263,0,0,1,152.4,54.647,25.222,25.222,0,0,1,162.353,52.61Z" transform="translate(-126.838 -52.61)" fill="#e3f3f4" fill-rule="evenodd"/>
        <path id="Trazado_1178159" data-name="Trazado 1178159" d="M209.565,52.61a25.192,25.192,0,0,1,18.457,8.018q-7.25,1.747-13.373,3.429a12.81,12.81,0,0,1-5.148.582,2.694,2.694,0,0,1-2.328-2.675,2.572,2.572,0,0,0-2.245-2.736q-6.435.059-7.289-3.629A25.159,25.159,0,0,1,209.565,52.61Z" transform="translate(-174.05 -52.61)" fill="#3d9f93" fill-rule="evenodd"/>
        <path id="Trazado_1178160" data-name="Trazado 1178160" d="M266.286,81.268a24.989,24.989,0,0,1,2.564,2.393q-7.25,1.747-13.373,3.429a12.81,12.81,0,0,1-5.148.582A2.694,2.694,0,0,1,248,85a2.572,2.572,0,0,0-2.245-2.736c-.207,0-.411,0-.606,0a25.433,25.433,0,0,1,6.283-2.265A25.16,25.16,0,0,1,266.286,81.268Z" transform="translate(-214.877 -75.643)" fill="#4bbbab" fill-rule="evenodd"/>
        <path id="Trazado_1178161" data-name="Trazado 1178161" d="M230.516,96.57l-4.692,3.512c-6.451-.9-13.07,1.81-14.561,5.829a1.443,1.443,0,0,0,1.687,1.91c1.8-.426,4.442-4.218,6.431-2.289l-11.017,10.773c-3.668,3.262-.682,6.9,2.58,3.549l-2.221,2.571c-2.564,3.266.43,5.546,3.434,2.895l2.225-2.568c-2.3,2.839.231,4.953,2.862,2.763l2.832-2.831c-1.556,2.452.861,3.56,3.106,1.241l9.262-9.684q1.418-1.333,2.006-4.948l4.449-3.6Z" transform="translate(-181.815 -90.387)" fill="#fcccb1" fill-rule="evenodd"/>
        <path id="Trazado_1178162" data-name="Trazado 1178162" d="M260.363,98.78l-4.633,3.464c-6.451-.9-13.066,1.815-14.561,5.833a1.123,1.123,0,0,0,1.34,1.643,2.787,2.787,0,0,0,.674-.279c2.173-3.41,8.161-5.57,14.02-4.749l5.024-3.888Z" transform="translate(-211.375 -92.286)" fill="#eab295" fill-rule="evenodd"/>
        <path id="Trazado_1178163" data-name="Trazado 1178163" d="M143.83,212.861l5.064-4.227c5.3,2.121,12.181-1.575,14.752-5.442.639-.961-.563-2.173-1.687-1.91-1.806.426-4.442,4.218-6.435,2.289L166.541,192.8c3.668-3.262.682-6.9-2.58-3.549l2.221-2.571c2.564-3.266-.43-5.546-3.434-2.895l-2.225,2.568c2.3-2.839-.231-4.953-2.858-2.763l-2.834,2.831c1.556-2.447-.861-3.56-3.106-1.241l-9.262,9.684q-1.418,1.333-2.006,4.948l-5.347,4.33Z" transform="translate(-120.316 -164.333)" fill="#fdcc9a" fill-rule="evenodd"/>
        <path id="Trazado_1178164" data-name="Trazado 1178164" d="M137.856,216.806l5.1-4.1q.587-3.612,2.006-4.944l9.677-10.08c1.973-2.839-.446-3.947-2.691-1.63l-9.258,9.689a3.239,3.239,0,0,0-.255.263A10.813,10.813,0,0,0,141,210.275l-.283.231c-.008.06-.02.115-.028.18l-4.948,4Z" transform="translate(-120.857 -174.798)" fill="#f5b381" fill-rule="evenodd"/>
        <path id="Trazado_1178165" data-name="Trazado 1178165" d="M97.67,333.857l2.851-2.847a1.257,1.257,0,0,1,1.771,0l9.175,9.178a1.249,1.249,0,0,1,0,1.771l-2.847,2.847a1.256,1.256,0,0,1-1.771,0l-9.179-9.179A1.255,1.255,0,0,1,97.67,333.857Z" transform="translate(-87.828 -291.537)" fill="#157d7e" fill-rule="evenodd"/>
        <path id="Trazado_1178166" data-name="Trazado 1178166" d="M122.176,350.744l6.511,6.515a1.249,1.249,0,0,1,0,1.771l-2.847,2.847a1.255,1.255,0,0,1-1.619.128l-6.511-6.511a1.256,1.256,0,0,1,0-1.771l2.847-2.847A1.261,1.261,0,0,1,122.176,350.744Z" transform="translate(-105.05 -308.607)" fill="#00989f" fill-rule="evenodd"/>
        <path id="Trazado_1178167" data-name="Trazado 1178167" d="M371.808,62.7l2.967-2.723a1.254,1.254,0,0,1,1.771.076l8.78,9.558a1.252,1.252,0,0,1-.072,1.767L382.287,74.1a1.258,1.258,0,0,1-1.771-.076l-8.78-9.558A1.259,1.259,0,0,1,371.808,62.7Z" transform="translate(-323.375 -58.656)" fill="#4185b0" fill-rule="evenodd"/>
        <path id="Trazado_1178168" data-name="Trazado 1178168" d="M396.6,80.945l6.311,6.874a1.252,1.252,0,0,1-.072,1.767l-2.967,2.727a1.26,1.26,0,0,1-1.36.219l-6.316-6.87a1.262,1.262,0,0,1,.076-1.771l2.967-2.727a1.266,1.266,0,0,1,1.36-.219Z" transform="translate(-340.958 -76.868)" fill="#41ade2" fill-rule="evenodd"/>
        <path id="Trazado_1178169" data-name="Trazado 1178169" d="M73.17,138.95H89.107v7.62c0,2.779-15.937,2.779-15.937,0Z" transform="translate(-67.088 -126.805)" fill="#157d7e" fill-rule="evenodd"/>
        <path id="Trazado_1178170" data-name="Trazado 1178170" d="M86.061,138.95h14.122v7.62c0,.011,0,.024,0,.039-4.179,1.272-14.119.809-14.119-1.384V138.95Z" transform="translate(-78.165 -126.805)" fill="#00989f" fill-rule="evenodd"/>
        <path id="Trazado_1178171" data-name="Trazado 1178171" d="M51.57,104.3l11-4.948L73.583,104.3l-11.009,4.944Z" transform="translate(-48.526 -92.776)" fill="#157d7e" fill-rule="evenodd"/>
        <path id="Trazado_1178172" data-name="Trazado 1178172" d="M87.029,109.02l7.987,3.588L84.5,117.333l-7.987-3.588Z" transform="translate(-69.958 -101.085)" fill="#00989f" fill-rule="evenodd"/>
        <path id="Trazado_1178173" data-name="Trazado 1178173" d="M31.95,158.57l1.221,3.436c.2.574-.187,1.193-.706,1.117l-1.938-.287a.846.846,0,0,1-.459-1.288Z" transform="translate(-29.932 -143.666)" fill="#ffc908" fill-rule="evenodd"/>
        <path id="Trazado_1178174" data-name="Trazado 1178174" d="M325.427,382.348,323.41,369.9a21.2,21.2,0,0,1,11.008,0v14.541A18.255,18.255,0,0,0,325.427,382.348Z" transform="translate(-282.129 -324.645)" fill="#ffecca" fill-rule="evenodd"/>
        <path id="Trazado_1178175" data-name="Trazado 1178175" d="M410.671,382.348l2.017-12.448a21.2,21.2,0,0,0-11.008,0v14.541A18.255,18.255,0,0,1,410.671,382.348Z" transform="translate(-349.39 -324.645)" fill="#ffecca" fill-rule="evenodd"/>
        <path id="Trazado_1178176" data-name="Trazado 1178176" d="M325.715,388.181,323.67,375.96a30.431,30.431,0,0,1,4.088,3.334,25.351,25.351,0,0,1,6.885,10.81A19.334,19.334,0,0,0,325.715,388.181Z" transform="translate(-282.353 -330.478)" fill="#ffddaf" fill-rule="evenodd"/>
        <path id="Trazado_1178177" data-name="Trazado 1178177" d="M410.662,386.737l2.017-12.448-.028-.008a29.323,29.323,0,0,0-4.3,3.569,25.443,25.443,0,0,0-6.683,10.829v.152A18.264,18.264,0,0,1,410.662,386.737Z" transform="translate(-349.381 -329.034)" fill="#ffddaf" fill-rule="evenodd"/>
      </g>
      <path id="Trazado_1178178" data-name="Trazado 1178178" d="M76.739,107.211a.977.977,0,0,1-1.056-.011,17.338,17.338,0,0,0-8.424-1.937.984.984,0,0,1-.993-.83l-1.128-6.97a26.309,26.309,0,0,1-16.224-1.582,2.239,2.239,0,0,1-.641,1.815l-2.847,2.851a2.243,2.243,0,0,1-3.162,0l-9.178-9.178a2.235,2.235,0,0,1,0-3.162l2.847-2.851a2.271,2.271,0,0,1,.737-.487,26.235,26.235,0,0,1-3.314-15.8c-2.508-.435-4.322-1.328-4.322-2.723V60.1L27.6,59.458l-.6,2.049L28.1,64.594a1.759,1.759,0,0,1-1.774,2.417l-1.938-.287a1.82,1.82,0,0,1-1.145-2.784l1.878-2.975.933-3.194a.98.98,0,0,1,.53-.57l11-4.944a1,1,0,0,1,.8,0l2.44,1.1A26.237,26.237,0,0,1,72.57,49.107L74.643,47.2a2.246,2.246,0,0,1,3.158.076h0c.024.024.048.052.068.076l8.741,9.513a2.244,2.244,0,0,1-.135,3.158L83.935,62.36a26.256,26.256,0,0,1-5.972,28.086,22.188,22.188,0,0,1,9.53.439v0a.978.978,0,0,1,.713,1.1l-2.017,12.444a.984.984,0,0,1-.993.83,17.341,17.341,0,0,0-8.456,1.948Zm7.643-3.916,1.739-10.721a20.182,20.182,0,0,0-8.911.028v12.216a19.214,19.214,0,0,1,7.172-1.523Zm-9.143,1.523V92.6a20.17,20.17,0,0,0-8.908-.028l1.734,10.721a19.2,19.2,0,0,1,7.174,1.523Zm-10.417-9.3-.574-3.532a.977.977,0,0,1,.717-1.1l0,0a22.133,22.133,0,0,1,9.988-.354A24.292,24.292,0,0,0,82.2,63.325a2.218,2.218,0,0,1-1.148-.2l-3.573,2.895a14.863,14.863,0,0,1-.789,2.882,6.23,6.23,0,0,1-1.432,2.232L71.7,74.842a7.377,7.377,0,0,1-.889.933L61.3,85.085c1.291-.658,2.675-2.189,4.059-2.516,1.95-.459,3.888,1.667,2.727,3.41a15.925,15.925,0,0,1-7.5,5.61,12.024,12.024,0,0,1-7.874.4l-2.671,2.232a24.372,24.372,0,0,0,14.778,1.3ZM26.157,64.995,25.7,63.719l-.7,1.108Zm11.483-8.217a.982.982,0,0,1,.059,1.962l-6.448.207,6.731,3.023L46.6,58.1l-8.617-3.872L31.906,56.96Zm5.112-2.56L49.392,57.2a.981.981,0,0,1,0,1.791L46.94,60.1v6.244c0,1.623-2.456,2.567-5.594,2.9a33.175,33.175,0,0,1-6.04.063A24.3,24.3,0,0,0,38.99,84.911l4.183-3.386a14.948,14.948,0,0,1,.789-2.882,6.288,6.288,0,0,1,1.432-2.232l9.25-9.673a5.838,5.838,0,0,1,1.483-1.128l3.221-3.154c-1.774.9-3.421,3.186-5.459,2.428a2.424,2.424,0,0,1-1.428-3.123,8.858,8.858,0,0,1,3.94-4.322c-.57-1.276-.08-1.973-.678-2.7a1.8,1.8,0,0,0-1.013-.563,12.026,12.026,0,0,1-5.375-.976A5.008,5.008,0,0,1,47,50.992a24.271,24.271,0,0,0-4.251,3.225Zm2.217,6.766-6.583,2.958a.983.983,0,0,1-.8,0L31,60.983v5.359c0,.422,2.03.75,3.823.945a32.271,32.271,0,0,0,6.32,0c2.145-.228,3.823-.567,3.823-.945V60.983Zm34.616.793-7.074-7.7-2.424,1.815c.176.1.347.2.515.307a.982.982,0,0,1-1.069,1.647,6.13,6.13,0,0,0-.741-.411c-.18-.084-.363-.159-.554-.228a.993.993,0,0,1-.43.037v0a17.122,17.122,0,0,0-8.6.993c-2.145.857-4.194,2.289-4.908,4.207a.462.462,0,0,0,.546.61,6.563,6.563,0,0,0,1.723-1.089c1.715-1.3,3.588-2.715,5.442-1.1a16.479,16.479,0,0,0,3.389.793,8.667,8.667,0,0,0,2.851-.111.98.98,0,0,1,.43,1.913,13.346,13.346,0,0,1-6.926-.615l-2.732,2.675a1.927,1.927,0,0,1,.587.591l.976-.976,0,0c.02-.02.039-.039.063-.06,1.511-1.256,3.434-1.571,4.621-.426a2.427,2.427,0,0,1,.467.622c3.832-3.358,7.922-.076,5.04,3.979a2.6,2.6,0,0,1,1.89,1.734l1.217-1.272a4.372,4.372,0,0,0,.973-1.556,12.359,12.359,0,0,0,.658-2.388,4.323,4.323,0,0,0-.454-1.076,4.421,4.421,0,0,0-.861-1.045.981.981,0,1,1,1.3-1.468,6.215,6.215,0,0,1,1.4,1.771Zm-8.35-9.194a2.256,2.256,0,0,1-.037-2,24.342,24.342,0,0,0-22.468-.539,3.166,3.166,0,0,0,1.48,1.391,10.236,10.236,0,0,0,4.557.778.982.982,0,0,1,.239.02,3.538,3.538,0,0,1,3.03,3.692,1.773,1.773,0,0,0,.111.622,19.352,19.352,0,0,1,9.526-1.3ZM76,48.619l-2.923,2.688-.011.011a.274.274,0,0,0-.048.407l8.78,9.558a.275.275,0,0,0,.383.02l2.967-2.727a.27.27,0,0,0,.015-.378l-8.741-9.517-.015-.013h0A.279.279,0,0,0,76,48.619ZM40.2,86.458l7.317,7.317,4.37-3.653a.989.989,0,0,1,1.032-.143,9.874,9.874,0,0,0,6.994-.235A13.885,13.885,0,0,0,66.445,84.9c.08-.12-.307-.491-.641-.411a6.48,6.48,0,0,0-1.726,1.089c-1.767,1.339-3.7,2.8-5.614.949a.983.983,0,0,1-.02-1.391l10.941-10.7.845-.885c.682-.789.956-2.189.1-2.376-.539-.12-1.2.183-2.065,1.028L61.9,78.541a.982.982,0,1,1-1.387-1.391l6.355-6.328,2.189-2.528c.722-.881,1.169-2.26.128-2.428a2.786,2.786,0,0,0-2.11.854L64.891,69.24c-.011.013-.02.024-.028.032l-5.614,6.674a.979.979,0,0,1-1.5-1.26l5.61-6.674a2.223,2.223,0,0,0,.689-1.682c-.152-.741-1.419-.378-2.073.207l-2.827,2.827c-.011.008-.02.02-.032.028l-4.849,5.355a.978.978,0,1,1-1.452-1.312l4.836-5.346a1.4,1.4,0,0,0,.3-.921c-.2-.128-.67.068-.909.172a3.953,3.953,0,0,0-.985.761L46.8,77.788a4.258,4.258,0,0,0-1.009,1.6,11.566,11.566,0,0,0-.567,1.9,11.636,11.636,0,0,0,.407,4.131.982.982,0,1,1-1.906.475,18.148,18.148,0,0,1-.391-1.965Zm-2.875.287L34.475,89.6a.268.268,0,0,0,0,.378l9.178,9.175a.263.263,0,0,0,.374,0L46.878,96.3a.268.268,0,0,0,0-.378L37.7,86.746A.275.275,0,0,0,37.322,86.745Z" transform="translate(0 0)"/>
    </g>
  </g>
</svg>
