<svg xmlns="http://www.w3.org/2000/svg" xmlns:xlink="http://www.w3.org/1999/xlink" width="400" height="433" viewBox="0 0 400 433">
  <defs>
    <clipPath id="clip-path">
      <rect id="Rectángulo_420913" data-name="Rectángulo 420913" width="400" height="433" fill="#fff" stroke="#707070" stroke-width="1"/>
    </clipPath>
    <clipPath id="clip-path-2">
      <rect id="Rectángulo_421555" data-name="Rectángulo 421555" width="379.197" height="379.196" fill="none"/>
    </clipPath>
  </defs>
  <g id="Enmascarar_grupo_1159118" data-name="Enmascarar grupo 1159118" clip-path="url(#clip-path)">
    <rect id="Rectángulo_420901" data-name="Rectángulo 420901" width="400" height="292" rx="17" transform="translate(-1 73)" fill="#e5782d"/>
    <path id="Trazado_1057277" data-name="Trazado 1057277" d="M230,0H0V433H230Z" transform="translate(92)" fill="#134b69"/>
    <g id="Grupo_1223385" data-name="Grupo 1223385" transform="translate(10.401 26.902)">
      <g id="Grupo_1223386" data-name="Grupo 1223386">
        <g id="Grupo_1223385-2" data-name="Grupo 1223385" clip-path="url(#clip-path-2)">
          <path id="Trazado_1177393" data-name="Trazado 1177393" d="M79.351,140.639c-30.295,49.393-11.261,101.177,43.786,123.983,50.919,21.1,74.591,65.105,111.962,79.478,58.261,22.408,100-24.261,111.855-73.991,24.373-102.25-63.478-207.137-174.368-189.376-39.842,6.383-71.536,27.724-93.235,59.906" transform="translate(-15.701 -19.027)" fill="#9fb1c7" fill-rule="evenodd"/>
          <path id="Trazado_1177394" data-name="Trazado 1177394" d="M228.23,389.241c0,2.657,14.268,22.6,27.143,2.594,10.577-16.439,10.811-34.937,14.819-57.6l-28.885-9.746-9.374,28.194Z" transform="translate(-55.142 -78.399)" fill="#e5b3a0" fill-rule="evenodd"/>
          <path id="Trazado_1177395" data-name="Trazado 1177395" d="M262.968,388.937a91.938,91.938,0,0,0,3.965-14.31c-11.625-6.769-35.716-19.4-30.571-11.471,8.966,3.985,20.595,11.89,26.606,25.782" transform="translate(-56.935 -87.129)" fill="#0f2238" fill-rule="evenodd"/>
          <path id="Trazado_1177396" data-name="Trazado 1177396" d="M264.183,353.351c.292,1.854,2.685-10.694,2.956-8.793,3.217,22.662,4.65,48.663-.887,76.631l132.821,2.494c-2.754-72.162-13.588-147.9-48.232-170.7-6.728-.929-13.057-1.97-19.064-2.885-1.235-.188-1.753-8.462-10.7-8.462-13.656,0-18.4,4.936-29.718,7.756-1.543.385-5.35,8.024-6.841,8.495-15.916,5.025-22.087,6.276-31.593,23.887-6.14,11.374-13.7,31.181-20.484,49.55,9.11,3.3,23.573,8.4,31.742,22.03" transform="translate(-56.159 -58.38)" fill="#e19f25" fill-rule="evenodd"/>
          <path id="Trazado_1177397" data-name="Trazado 1177397" d="M433.519,413.046a531.742,531.742,0,0,0-7.811-63.459c-9.725-.5-24.968-7.249-34.725-40.9.79,6.578,7.893,60.516-7.893,71.04-12.306,8.2,30.383,27.117,50.43,33.315" transform="translate(-92.027 -74.581)" fill="#d38928" fill-rule="evenodd"/>
          <path id="Trazado_1177398" data-name="Trazado 1177398" d="M302.128,260.442c-1.084,1.625-.912,1.4-1.527,1.595l-1.124.353c-2.836,17.191,8.046,34.055,8.046,34.055l11.052-10.788,3.158,4.474,1.578,77.091,3.947-.263-1.316-78.933,1.579-2.632,11.314,11.841S349.227,278.421,349.49,270s-1.183-11.183-1.183-11.183a39.943,39.943,0,0,1-.369,9.837c-1.255,7.092-4.256,15.412-6.34,18.579l-3.552,5.394-9.735-11.708-3.288-2.764-5.131-.658L309.76,291.445c-5.66-10.12-9.4-19.248-7.632-31" transform="translate(-72.241 -62.532)" fill="#d38928" fill-rule="evenodd"/>
          <path id="Trazado_1177399" data-name="Trazado 1177399" d="M265.653,364.477c.292,1.854,2.685-10.694,2.956-8.793,3.217,22.662,4.65,48.663-.887,76.631l132.821,2.494c-.992-26.011-3.036-52.486-6.864-76.78-25.145,11.623-55.053,15.627-81.823-6.989-61.042-51.569-33.152-68.409-45.781-62.094-11.354,5.677-18.88,31.341-27.549,55.2,8.859,3.4,20.235,8.825,27.129,20.328" transform="translate(-57.629 -69.506)" fill="#d38928" fill-rule="evenodd"/>
          <path id="Trazado_1177400" data-name="Trazado 1177400" d="M430.367,415.672q-.744-7.626-1.671-15.1L384.446,405s-13.722-5.1-8.794,12.489a52.513,52.513,0,0,1,6.86-4.926s29.3,2.373,47.855,3.109" transform="translate(-90.502 -96.781)" fill="#0f2238" fill-rule="evenodd"/>
          <path id="Trazado_1177401" data-name="Trazado 1177401" d="M180.943,312.774l43.5,45.3c16.823,17.517,16.436,33.134,7.747,37.775-24.239,12.945-41.2-14.749-49.5-32.751l-24.32-41.307Z" transform="translate(-38.264 -75.568)" fill="#e5b3a0" fill-rule="evenodd"/>
          <path id="Trazado_1177402" data-name="Trazado 1177402" d="M185.963,308.638c.639,6.951-1.434,12.739-10.913,15.758s-18.206-5.854-22.665-10.454c-2.927-9.239,3.647-20.092,15.213-21.647s18.366,16.343,18.366,16.343" transform="translate(-36.649 -70.597)" fill="#e5b3a0" fill-rule="evenodd"/>
          <path id="Trazado_1177403" data-name="Trazado 1177403" d="M168.28,280.218a2.981,2.981,0,1,1,5.944-.466l3.147,38.529a2.981,2.981,0,0,1-5.944.467Z" transform="translate(-40.655 -66.925)" fill="#2f445d" fill-rule="evenodd"/>
          <path id="Trazado_1177404" data-name="Trazado 1177404" d="M152.776,289.155c2.328-.748,9.425-1.615,14.124,1.868,5.752,4.262-1.745,5.088-1.745,5.088,4.625,1.99,4.878,6.564-1.3,6.985,3.853.631,5.978,5.809.094,6.244,7.211,5.894-17.971,7.417-12.513-.17-3.368-1.132-3.722-5.914.8-6.341-5.075-.9-4.048-7.17.06-7.318-2.383-1.609-2.882-5.275.48-6.355" transform="translate(-35.953 -69.698)" fill="#e5b3a0" fill-rule="evenodd"/>
          <path id="Trazado_1177405" data-name="Trazado 1177405" d="M190.08,306.667c.071-7.558-1.817-17.871-8.8-21.818-4.251-2.4-9.577.851-10.391,5.848q-1.078,6.606-2.159,13.211c4.959,1.479,6.936-1.8,9.747-7.814-1.489,9.1-1.441,21.192,11.6,10.574" transform="translate(-40.767 -68.626)" fill="#e5b3a0" fill-rule="evenodd"/>
          <path id="Trazado_1177406" data-name="Trazado 1177406" d="M164.288,223.469c-6.5.531-11,10.392-10.049,22.027s6.989,20.636,13.49,20.105,11-10.392,10.049-22.027-6.99-20.635-13.49-20.105" transform="translate(-37.234 -53.986)" fill="#d2e5f6" fill-rule="evenodd"/>
          <path id="Trazado_1177407" data-name="Trazado 1177407" d="M163.074,218.325c-2.778.226-5.222,2.651-6.926,6.388A36.054,36.054,0,0,0,158.7,256c2.287,3.41,5.1,5.405,7.882,5.178s5.222-2.651,6.927-6.388a36.048,36.048,0,0,0-2.557-31.285c-2.287-3.41-5.1-5.405-7.882-5.178m-10.982,4.536c2.378-5.215,6.111-8.624,10.631-8.993s8.744,2.391,11.939,7.152a40.355,40.355,0,0,1,2.907,35.62c-2.381,5.214-6.111,8.624-10.633,8.992s-8.744-2.391-11.938-7.152a40.346,40.346,0,0,1-2.905-35.62" transform="translate(-36.057 -51.664)" fill="#2f445d" fill-rule="evenodd"/>
          <path id="Trazado_1177408" data-name="Trazado 1177408" d="M157.285,289.016a.559.559,0,0,1-.136-1.11,21.154,21.154,0,0,1,6.676.224,13.378,13.378,0,0,1,5.3,2.266c4.958,3.676,1.758,5.213-.442,5.788a5.715,5.715,0,0,1,1.932,2.055,3.288,3.288,0,0,1,.372,1.976,3.022,3.022,0,0,1-.978,1.791,5.242,5.242,0,0,1-2.157,1.127,5.09,5.09,0,0,1,1.7,1.726,3.5,3.5,0,0,1,.5,1.644,2.6,2.6,0,0,1-.5,1.64,4.028,4.028,0,0,1-2.5,1.414,3.274,3.274,0,0,1,.491.793,1.95,1.95,0,0,1-.084,1.806,3.45,3.45,0,0,1-1.4,1.25,12.71,12.71,0,0,1-4.666,1.211.557.557,0,1,1-.1-1.11,11.569,11.569,0,0,0,4.231-1.08,2.384,2.384,0,0,0,.959-.822.887.887,0,0,0,.027-.822,3.328,3.328,0,0,0-.991-1.17.558.558,0,0,1,.29-1.008,3.739,3.739,0,0,0,2.841-1.122,1.507,1.507,0,0,0,.29-.949,2.4,2.4,0,0,0-.346-1.116,4.21,4.21,0,0,0-2.909-1.946.558.558,0,0,1,.032-1.111,5.78,5.78,0,0,0,3.544-1.176,1.91,1.91,0,0,0,.629-1.127,2.183,2.183,0,0,0-.259-1.307,5.483,5.483,0,0,0-2.788-2.3.559.559,0,0,1,.146-1.072c.017,0,6.085-.671,1.48-4.085a12.275,12.275,0,0,0-4.862-2.07,20.029,20.029,0,0,0-6.318-.206" transform="translate(-37.85 -69.52)" fill="#c87868" fill-rule="evenodd"/>
          <path id="Trazado_1177409" data-name="Trazado 1177409" d="M156.78,297.159a.558.558,0,0,1-.078-1.114,29.242,29.242,0,0,1,6.769.273,15.472,15.472,0,0,1,5.253,1.745.557.557,0,0,1-.563.962,14.373,14.373,0,0,0-4.868-1.606,28.23,28.23,0,0,0-6.512-.259" transform="translate(-37.734 -71.507)" fill="#c87868" fill-rule="evenodd"/>
          <path id="Trazado_1177410" data-name="Trazado 1177410" d="M166.5,306.408a.558.558,0,1,1-.267,1.084,44.67,44.67,0,0,0-5-.915,23.785,23.785,0,0,0-4.107-.241.558.558,0,1,1-.078-1.113,24.868,24.868,0,0,1,4.326.249,45.918,45.918,0,0,1,5.125.937" transform="translate(-37.818 -73.738)" fill="#c87868" fill-rule="evenodd"/>
          <path id="Trazado_1177411" data-name="Trazado 1177411" d="M166.964,315.694a.557.557,0,1,1-.681.883,7.923,7.923,0,0,0-3.382-1.067,22.256,22.256,0,0,0-5.261-.117.559.559,0,0,1-.123-1.11,23.414,23.414,0,0,1,5.541.121,8.894,8.894,0,0,1,3.906,1.29" transform="translate(-37.937 -75.906)" fill="#c87868" fill-rule="evenodd"/>
          <path id="Trazado_1177412" data-name="Trazado 1177412" d="M180.229,296.338a.559.559,0,1,1,1.058.359,48.933,48.933,0,0,1-4.434,9.374.558.558,0,0,1-.943-.595,47.652,47.652,0,0,0,4.32-9.139" transform="translate(-42.48 -71.505)" fill="#c87868" fill-rule="evenodd"/>
          <path id="Trazado_1177413" data-name="Trazado 1177413" d="M278.047,361.892a.559.559,0,0,1-1.111.131c-.014-.128-5.394-44.466-3.61-55.181a.558.558,0,0,1,1.1.183c-1.757,10.55,3.6,54.739,3.619,54.867" transform="translate(-65.949 -74.022)" fill="#0f2238" fill-rule="evenodd"/>
          <path id="Trazado_1177414" data-name="Trazado 1177414" d="M335,217.4s4.16,11.552,8.366,22.584c.218.019.438.039.657.062l-.255.987,0,.005c-2.75,10.495-5.563,19.4-15.729,25.791-1.719.547-2.119,7.077-3.985,7.509-.458-.175-2.3-6.4-2.735-6.59-9.78-4.306-9.533-9.391-11.544-18.568l-2.326-11.046A37.767,37.767,0,0,1,335,217.4" transform="translate(-74.28 -52.524)" fill="#c87868" fill-rule="evenodd"/>
          <path id="Trazado_1177415" data-name="Trazado 1177415" d="M348.816,395.857c34.2-18.244,79.457-30.492,88.379-13.283,5.04,23.909-13.271,22.267-63.453,20.7-6-.187-22.605-2.195-24.925-7.419" transform="translate(-84.276 -90.436)" fill="#e5b3a0" fill-rule="evenodd"/>
          <path id="Trazado_1177416" data-name="Trazado 1177416" d="M369.655,402.549c-8.716-4.612-18.66-2.912-24.562-.574s-11.687,31.774-11.687,31.774c2.681,2.2,4.622,1.049,7.612-5.684l3.542-7.974c-.654,4.019,5.722,7.457,7.745,2.774,1.684,2.772,5.592,4.556,8.366,1.957,4.868,5.332,12.562-7,5.14-6.5L366.6,416c3.472-2.388,5.932-8.711,3.058-13.45" transform="translate(-80.553 -96.555)" fill="#e5b3a0" fill-rule="evenodd"/>
          <path id="Trazado_1177417" data-name="Trazado 1177417" d="M355.688,426.563a.559.559,0,0,1,.612.935,8.842,8.842,0,0,1-2.5,1.178,5.2,5.2,0,0,1-2.383.118,5.5,5.5,0,0,1-.854-.238,5.365,5.365,0,0,1-3.3-4.241,16.189,16.189,0,0,1,.151-6.284,25.835,25.835,0,0,1,1.1-3.913.559.559,0,1,1,1.05.385,24.443,24.443,0,0,0-1.054,3.741,15.088,15.088,0,0,0-.156,5.836,4.318,4.318,0,0,0,2.6,3.427,4.231,4.231,0,0,0,.684.19,4.086,4.086,0,0,0,1.876-.1,7.727,7.727,0,0,0,2.186-1.033" transform="translate(-83.84 -99.965)" fill="#c87868" fill-rule="evenodd"/>
          <path id="Trazado_1177418" data-name="Trazado 1177418" d="M366.027,428.049a.558.558,0,1,1,.463,1.015,10.01,10.01,0,0,1-2.864.866,6.081,6.081,0,0,1-2.591-.187,6.4,6.4,0,0,1-.7-.258c-2.26-1-3.341-3.108-3.687-5.5a16.646,16.646,0,0,1,.668-6.955,14.972,14.972,0,0,1,.6-1.624.558.558,0,0,1,1.022.451,13.643,13.643,0,0,0-.555,1.5,15.492,15.492,0,0,0-.629,6.471,5.565,5.565,0,0,0,3.031,4.637,5.152,5.152,0,0,0,.573.215,4.977,4.977,0,0,0,2.122.147,8.82,8.82,0,0,0,2.542-.774" transform="translate(-86.139 -100.283)" fill="#c87868" fill-rule="evenodd"/>
          <path id="Trazado_1177419" data-name="Trazado 1177419" d="M367.39,415.741a.558.558,0,0,1,1.067.328,20.75,20.75,0,0,0-.647,8.574c.33,2.015,1.108,3.713,2.575,4.366a2.5,2.5,0,0,0,1.508.146l.017,0a5.237,5.237,0,0,0,1.877-.849,6.372,6.372,0,0,0,2.09-2.249,3.07,3.07,0,0,0,.281-2.243,1.278,1.278,0,0,0-.794-.947,2.237,2.237,0,0,0-1.1-.048.559.559,0,0,1-.193-1.1,3.317,3.317,0,0,1,1.665.1,2.336,2.336,0,0,1,1.5,1.7,4.144,4.144,0,0,1-.36,3.046,7.484,7.484,0,0,1-2.46,2.669,6.35,6.35,0,0,1-2.288,1.018l-.022,0a3.575,3.575,0,0,1-2.171-.224c-1.869-.833-2.836-2.845-3.223-5.2a22.031,22.031,0,0,1,.682-9.083" transform="translate(-88.548 -100.35)" fill="#c87868" fill-rule="evenodd"/>
          <path id="Trazado_1177420" data-name="Trazado 1177420" d="M375.81,426.131a.558.558,0,1,1-1-.485,12.179,12.179,0,0,0,.977-3.511.558.558,0,0,1,1.11.118,13.407,13.407,0,0,1-1.082,3.878" transform="translate(-90.541 -101.869)" fill="#c87868" fill-rule="evenodd"/>
          <path id="Trazado_1177421" data-name="Trazado 1177421" d="M448.551,366.315c-4.439-22.718-14.166-46.061-21.112-59.294l-31.621,12.637,16.037,40.4c6.735,10.633,30.214,15.773,36.7,6.257" transform="translate(-95.632 -74.178)" fill="#e5b3a0" fill-rule="evenodd"/>
          <path id="Trazado_1177422" data-name="Trazado 1177422" d="M415.913,377.161a.557.557,0,0,1-.1-1.11c2.32-.217,5.124-.29,7.88-.268,3.369.024,6.667.187,8.924.391a.557.557,0,0,1-.1,1.11c-2.235-.2-5.5-.363-8.829-.388-2.723-.02-5.49.052-7.775.265" transform="translate(-100.34 -90.79)" fill="#c87868" fill-rule="evenodd"/>
          <path id="Trazado_1177423" data-name="Trazado 1177423" d="M377.1,418.917a.558.558,0,0,1-.594-.944,9.819,9.819,0,0,0,4.136-10.086.558.558,0,1,1,1.1-.209,10.963,10.963,0,0,1-4.639,11.239" transform="translate(-90.902 -98.387)" fill="#c87868" fill-rule="evenodd"/>
          <path id="Trazado_1177424" data-name="Trazado 1177424" d="M448.744,361.629c-.953-3.328-1.981-6.615-3.06-9.827L412.2,361.78l.883,2.224c8.514,1.614,24.749,1.593,35.66-2.375" transform="translate(-99.59 -84.997)" fill="#0f2238" fill-rule="evenodd"/>
          <path id="Trazado_1177425" data-name="Trazado 1177425" d="M232.457,359.543a.556.556,0,1,1,.808-.764c1.081,1.142,2.33,2.43,3.6,3.736,4.513,4.654,9.259,9.55,12.778,14.66a.557.557,0,1,1-.917.634c-3.465-5.033-8.179-9.894-12.661-14.516-1.189-1.225-2.361-2.434-3.6-3.749" transform="translate(-56.126 -86.641)" fill="#c87868" fill-rule="evenodd"/>
          <path id="Trazado_1177426" data-name="Trazado 1177426" d="M309,255.024a.557.557,0,0,1,1.114-.04c.185,4.942.737,8.73,2.535,12.064s4.868,6.26,10.089,9.492a.548.548,0,0,1,.239.309l2.284,7.238a.558.558,0,0,1-1.066.332l-2.221-7.041c-5.292-3.3-8.432-6.327-10.306-9.8-1.9-3.515-2.478-7.446-2.668-12.553" transform="translate(-74.656 -61.476)" fill="#0f2238" fill-rule="evenodd"/>
          <path id="Trazado_1177427" data-name="Trazado 1177427" d="M348.148,247.69a.559.559,0,0,1,1.106.167c-.843,5.618-2.064,10.493-4.518,15.007-2.437,4.481-6.079,8.58-11.76,12.661l-2.9,7.188a.558.558,0,1,1-1.035-.416L332,274.96a.558.558,0,0,1,.195-.246c5.607-4.007,9.184-8.013,11.559-12.382s3.565-9.134,4.392-14.642" transform="translate(-79.489 -59.728)" fill="#0f2238" fill-rule="evenodd"/>
          <path id="Trazado_1177428" data-name="Trazado 1177428" d="M317.534,281.472a.558.558,0,1,1,.883.682l-7.72,10.032a.557.557,0,0,1-.781.1.572.572,0,0,1-.12-.127,46.05,46.05,0,0,1-6.8-14.5,40.205,40.205,0,0,1-.78-16,.558.558,0,0,1,1.1.157,39.158,39.158,0,0,0,.754,15.558,44.523,44.523,0,0,0,6.214,13.509Z" transform="translate(-72.906 -63.104)" fill="#0f2238" fill-rule="evenodd"/>
          <path id="Trazado_1177429" data-name="Trazado 1177429" d="M337.678,279.989a.557.557,0,1,1,.838-.735l8.806,10.095c4.527-7.745,7.207-13.468,8.533-19.134,1.359-5.814,1.3-11.6.34-19.506a.56.56,0,1,1,1.112-.13c.97,8.028,1.029,13.929-.365,19.89-1.389,5.944-4.223,11.916-9.042,20.1a.554.554,0,0,1-.909.1Z" transform="translate(-81.551 -60.422)" fill="#0f2238" fill-rule="evenodd"/>
          <path id="Trazado_1177430" data-name="Trazado 1177430" d="M328.825,293.527a.622.622,0,0,1,1.242.049c0,.062-.909,21.828.452,43.385.652,10.3.91,27.312.868,44.84-.046,19.2-.45,39-1.094,51.253a.622.622,0,0,1-1.242-.064c.643-12.259,1.05-32.033,1.094-51.189.041-17.484-.217-34.465-.867-44.763-1.366-21.605-.456-43.447-.454-43.51" transform="translate(-79.374 -70.773)" fill="#0f2238" fill-rule="evenodd"/>
          <path id="Trazado_1177431" data-name="Trazado 1177431" d="M450.679,326.533c-12.806-30.25-18.513-44.121-28.825-54.569-7.334-7.431-17.354-12.915-33.311-15.37-.688,19.856,5.718,60.539,17.536,82.9,18.147.463,37.556-5.676,44.6-12.962" transform="translate(-93.862 -61.995)" fill="#e19f25" fill-rule="evenodd"/>
          <path id="Trazado_1177432" data-name="Trazado 1177432" d="M392.935,308.506a.559.559,0,0,1,1.1-.188A189.02,189.02,0,0,0,399.8,332.5a109.347,109.347,0,0,0,7.689,18.826,86.809,86.809,0,0,0,25.426-3.4c8.156-2.37,14.9-5.743,18.436-9.4a.558.558,0,0,1,.8.774c-3.668,3.8-10.594,7.274-18.93,9.7a87.86,87.86,0,0,1-26.083,3.436.556.556,0,0,1-.478-.291,109.553,109.553,0,0,1-7.931-19.31,190.324,190.324,0,0,1-5.8-24.33" transform="translate(-94.933 -74.379)" fill="#0f2238" fill-rule="evenodd"/>
          <path id="Trazado_1177433" data-name="Trazado 1177433" d="M235.5,351.276a108.311,108.311,0,0,1,20.907,9.155c6.272,3.623,11.38,7.676,12.759,11.329a.622.622,0,1,1-1.164.438c-.033-.09-.069-.18-.108-.271l-.123-.878c-.045-.306-.144-.236-.28.087-1.788-3.087-6.286-6.5-11.707-9.629a106.794,106.794,0,0,0-20.72-9.064Z" transform="translate(-56.794 -84.87)" fill="#0f2238" fill-rule="evenodd"/>
          <path id="Trazado_1177434" data-name="Trazado 1177434" d="M405.854,348.957a.615.615,0,0,1,.333-.03c3.931.724,15.966-.49,27.725-4.339a59.755,59.755,0,0,0,16.94-8.288l.5,1.176a61.508,61.508,0,0,1-17.055,8.3c-11.589,3.793-23.531,5.05-27.947,4.438q-.25-.621-.5-1.254" transform="translate(-98.057 -81.252)" fill="#0f2238" fill-rule="evenodd"/>
          <path id="Trazado_1177435" data-name="Trazado 1177435" d="M347.779,153.739s4.738-6.2,6.831-12.024,5.737,5.639,1.188,15.116-8.018-3.092-8.018-3.092" transform="translate(-84.025 -33.858)" fill="#0f2238" fill-rule="evenodd"/>
          <path id="Trazado_1177436" data-name="Trazado 1177436" d="M350.607,159.4s3.405-5.2,8.318-5.1c21.277.428-2.631,6-2.911,6.22-3.913,3.115-5.407-1.119-5.407-1.119" transform="translate(-84.709 -37.279)" fill="#0f2238" fill-rule="evenodd"/>
          <path id="Trazado_1177437" data-name="Trazado 1177437" d="M349.128,208.995s.356,5.935,4.253,8.948c2.529,1.953,15.049,2.949,5.273,6.823a17.016,17.016,0,0,1-4.121,1.107c1.041,2.775,6.958,6.209-1.284,5.848-5.052-.221-9.457-1.385-12.583-8.2s8.461-14.53,8.461-14.53" transform="translate(-82.178 -50.494)" fill="#0f2238" fill-rule="evenodd"/>
          <path id="Trazado_1177438" data-name="Trazado 1177438" d="M310.113,250.912c-.275-1.413-.517-2.814-.764-3.991,7.943-5.471,18.478-11.51,21.184-21.416.152-.557,2.023.845,2.212.306,1.755,11.492-10.809,22.567-22.632,25.1" transform="translate(-74.74 -54.451)" fill="#0f2238" fill-rule="evenodd"/>
          <path id="Trazado_1177439" data-name="Trazado 1177439" d="M269.674,199.762c3.11-2.759,1.094-22.113,2.064-29.156,2.014-14.663,30.29-22.3,41.756-12.689,12.156,10.184,1.3,26.187,8.019,26.842,2.823-1.461,8.572-4.363,11.159,3.471,3.576,10.827-6.273,22.624-13.186,19.843-.375,2.713-.088,10.3-20.954,21.51-2.867,1.542-16.953,5.96-23.672-2.115-2.9-3.48-4.336-10.383-4.9-18.416-.078,0-.155,0-.232-.006-2.991-.13-5.328-2.315-5.218-4.876.108-2.428,2.376-4.329,5.16-4.409" transform="translate(-63.907 -37.122)" fill="#e5b3a0" fill-rule="evenodd"/>
          <path id="Trazado_1177440" data-name="Trazado 1177440" d="M273.7,174.416a36.219,36.219,0,0,1,.258-3.809c2.016-14.663,30.291-22.3,41.757-12.689,4.767,3.994,6,8.882,6.131,13.388a39.164,39.164,0,0,1-5.137-1.128c-1.143,1.778,3.109,18.725.412,20.031-.633.306-7.965-14.627-8.612-14.374-5.972,2.343-12.062,2.287-7.969-3.988-4.412,2.745-25.177,8.609-17.931-.209a80.975,80.975,0,0,1-8.908,2.778" transform="translate(-66.127 -37.122)" fill="#c87868" fill-rule="evenodd"/>
          <path id="Trazado_1177441" data-name="Trazado 1177441" d="M273.276,221.984c-1.037,1-6.035,1.373-8.546-.019a5.383,5.383,0,0,0,5.055,3.558c.077,0,.155.005.232.006l.009.1c3.237-1.037,4.164-4.533,3.25-3.648" transform="translate(-63.96 -53.598)" fill="#c87868" fill-rule="evenodd"/>
          <path id="Trazado_1177442" data-name="Trazado 1177442" d="M343.926,218.525c-2.394-2.612-7.53-12.36-11.223-18.6-1.51-2.554-12.679-26.775-12.368-27.77,3.131-10.023,16.437-19.231,27.723-13.292,13.141,6.917,14.9,23.705,10.348,31.6-4.808,8.326-10.514,12.122-14.479,28.069" transform="translate(-77.393 -37.929)" fill="#0f2238" fill-rule="evenodd"/>
          <path id="Trazado_1177443" data-name="Trazado 1177443" d="M337.288,193.94c2.2-1.952,9.114-4.268,11.7,3.566,3.575,10.827-6.274,22.624-13.187,19.843-5.738-3.8-4.645-17.963,1.486-23.409" transform="translate(-80.223 -46.397)" fill="#e5b3a0" fill-rule="evenodd"/>
          <path id="Trazado_1177444" data-name="Trazado 1177444" d="M343.761,202.3a.992.992,0,0,0,.319-1.957l-.155-.02a5.177,5.177,0,0,0-4.71,1.653,10.168,10.168,0,0,0-2.32,5.307c-.012.079-.026.156-.036.236-.816,5.274.883,5.307.887,5.307a.99.99,0,0,0,.934-.586c.006-.01,1.62-3.632,3.9-2.719a.989.989,0,1,0,.736-1.836,4.143,4.143,0,0,0-4.7,1.226c.067-.31.134-.67.2-1.088l.036-.212a8.278,8.278,0,0,1,1.807-4.283,3.3,3.3,0,0,1,2.98-1.052Z" transform="translate(-81.333 -48.384)" fill="#c87868" fill-rule="evenodd"/>
          <path id="Trazado_1177445" data-name="Trazado 1177445" d="M314.016,161.071c-3.878,6.033-22.6,11.531-16.17,1.669-4.413,2.744-25.176,8.608-17.932-.209-2.465.968-24.022,8.646-16.775-1.464-5.581-.026-12.589-7.808-3.47-8.891-29.559-12.824,78.76-34.637,70.45-.418-3.47,14.287-12.329,10.13-16.1,9.313" transform="translate(-61.499 -32.237)" fill="#0f2238" fill-rule="evenodd"/>
          <path id="Trazado_1177446" data-name="Trazado 1177446" d="M264.328,141.439a74.909,74.909,0,0,1,14.54-4.5c10.6,8.141,29.776,13.2,54.789,15.627,1.97.191,4.853,3.141,4.34,4.124-28.132-.384-58.935-3.775-73.668-15.247" transform="translate(-63.863 -33.084)" fill="#2f445d" fill-rule="evenodd"/>
          <path id="Trazado_1177447" data-name="Trazado 1177447" d="M277.81,232.491a.99.99,0,0,0-.96,1.732,6.787,6.787,0,0,0,3.1.764,9.479,9.479,0,0,0,4.472-1.038,8.684,8.684,0,0,0,3.682-3.542,9.916,9.916,0,0,0,1.177-4.631.989.989,0,1,0-1.977-.042,7.963,7.963,0,0,1-.931,3.712,6.731,6.731,0,0,1-2.851,2.736,7.5,7.5,0,0,1-3.53.826,4.817,4.817,0,0,1-2.184-.518" transform="translate(-66.765 -54.305)" fill="#0f2238" fill-rule="evenodd"/>
          <path id="Trazado_1177448" data-name="Trazado 1177448" d="M284.888,187.883c-1.958,1.774,12.313,5.252,12.313,5.252a9.57,9.57,0,0,0-2.572-4.613c-2.4-2.237-6.562-3.517-9.742-.639" transform="translate(-68.786 -44.992)" fill="#0f2238" fill-rule="evenodd"/>
          <path id="Trazado_1177449" data-name="Trazado 1177449" d="M292.748,203.329a.991.991,0,0,0,1.92-.493,7.281,7.281,0,0,0-3.143-4.113,5.289,5.289,0,0,0-2.442-.819,3.734,3.734,0,0,0-2.563.785,6.82,6.82,0,0,0-2.208,4.346.988.988,0,1,0,1.945.356,4.977,4.977,0,0,1,1.475-3.131,1.809,1.809,0,0,1,1.242-.379,3.313,3.313,0,0,1,1.511.529,5.2,5.2,0,0,1,2.263,2.919" transform="translate(-68.688 -47.813)" fill="#0f2238" fill-rule="evenodd"/>
          <path id="Trazado_1177450" data-name="Trazado 1177450" d="M294.986,215.9c-.049-2.5,2.349-4.633,5.351-4.763s5.479,1.794,5.527,4.293-2.348,4.632-5.35,4.763-5.48-1.794-5.529-4.293" transform="translate(-71.27 -51.011)" fill="#c87868" fill-rule="evenodd"/>
          <path id="Trazado_1177451" data-name="Trazado 1177451" d="M158.042,231.453c1.5-4.461,4.809-7.374,7.388-6.506s3.454,5.188,1.952,9.649-4.807,7.372-7.387,6.505-3.454-5.187-1.953-9.648" transform="translate(-38.007 -54.311)" fill="#fff" fill-rule="evenodd"/>
          <path id="Trazado_1177452" data-name="Trazado 1177452" d="M170.65,259.384c4.8-.895,7.812-10.637,5.787-18.292-.241-.915-.99-2.985-1.273-3.792l1.152,1.292c1.856,2.852,2.361,8,1.863,12.137-.83,6.911-3.576,11.45-7.416,12.62-.608.058-1.127-.785-1.159-1.88s.437-2.029,1.045-2.086" transform="translate(-40.977 -57.333)" fill="#fff" fill-rule="evenodd"/>
          <path id="Trazado_1177453" data-name="Trazado 1177453" d="M333.787,295.769a.557.557,0,0,1,1.114-.013l1.316,95.772a.557.557,0,1,1-1.115.013Z" transform="translate(-80.645 -71.323)" fill="#0f2238" fill-rule="evenodd"/>
          <rect id="Rectángulo_421551" data-name="Rectángulo 421551" width="33.587" height="222.304" transform="translate(22.379 124.955)" fill="#557a7a"/>
          <path id="Trazado_1177454" data-name="Trazado 1177454" d="M63.1,174.146a72.973,72.973,0,0,0-33.587,0V188.39a73,73,0,0,1,33.587,0Z" transform="translate(-7.13 -41.601)" fill="#b6362e" fill-rule="evenodd"/>
          <path id="Trazado_1177455" data-name="Trazado 1177455" d="M29.46,193.3a.559.559,0,0,1-.257-1.088,71.968,71.968,0,0,1,16.922-1.971,76.747,76.747,0,0,1,16.914,1.971A.558.558,0,0,1,62.8,193.3a75.593,75.593,0,0,0-16.67-1.945A70.891,70.891,0,0,0,29.46,193.3" transform="translate(-6.952 -45.962)" fill="#0f2238" fill-rule="evenodd"/>
          <path id="Trazado_1177456" data-name="Trazado 1177456" d="M63.1,441.013a72.973,72.973,0,0,1-33.587,0V426.768a72.994,72.994,0,0,0,33.587,0Z" transform="translate(-7.13 -103.109)" fill="#b6362e" fill-rule="evenodd"/>
          <path id="Trazado_1177457" data-name="Trazado 1177457" d="M29.2,427.134a.559.559,0,0,1,.257-1.088,70.89,70.89,0,0,0,16.664,1.945,75.674,75.674,0,0,0,16.67-1.945.557.557,0,1,1,.245,1.088,76.751,76.751,0,0,1-16.915,1.972A71.966,71.966,0,0,1,29.2,427.134" transform="translate(-6.952 -102.931)" fill="#0f2238" fill-rule="evenodd"/>
          <path id="Trazado_1177458" data-name="Trazado 1177458" d="M29.89,386.889a.56.56,0,0,1-1.119,0v-222.3a.56.56,0,0,1,1.119,0Z" transform="translate(-6.951 -39.63)" fill="#0f2238" fill-rule="evenodd"/>
          <path id="Trazado_1177459" data-name="Trazado 1177459" d="M36,358.122V227.964a.809.809,0,0,1,.808-.808h1.446a.81.81,0,0,1,.808.808V358.122a.81.81,0,0,1-.808.808H36.811a.809.809,0,0,1-.808-.808" transform="translate(-8.699 -54.882)" fill="#e19f25" fill-rule="evenodd"/>
          <path id="Trazado_1177460" data-name="Trazado 1177460" d="M44.9,358.122V227.964a.81.81,0,0,1,.808-.808h1.446a.81.81,0,0,1,.808.808V358.122a.81.81,0,0,1-.808.808H45.708a.81.81,0,0,1-.808-.808" transform="translate(-10.848 -54.882)" fill="#e19f25" fill-rule="evenodd"/>
          <path id="Trazado_1177461" data-name="Trazado 1177461" d="M53.8,358.122V227.964a.81.81,0,0,1,.808-.808H56.05a.809.809,0,0,1,.808.808V358.122a.809.809,0,0,1-.808.808H54.6a.81.81,0,0,1-.808-.808" transform="translate(-12.997 -54.882)" fill="#e19f25" fill-rule="evenodd"/>
          <path id="Trazado_1177462" data-name="Trazado 1177462" d="M62.694,358.122V227.964a.809.809,0,0,1,.808-.808h1.445a.81.81,0,0,1,.808.808V358.122a.81.81,0,0,1-.808.808H63.5a.809.809,0,0,1-.808-.808" transform="translate(-15.147 -54.882)" fill="#e19f25" fill-rule="evenodd"/>
          <path id="Trazado_1177463" data-name="Trazado 1177463" d="M109.049,167.691l-12.734,7.252c-17.1-29.831,33.577-56.563,47.24-17.492,4.367,12.488.089,20.084,9.681,27.575l-9.026.353-.012,11.2c-16.761-13.092-7.955-27.939-14.717-42.719-4.437-9.7-10.252-12.323-14.491-12.156-7.925.313-12.893,13.858-5.94,25.984" transform="translate(-22.428 -33.32)" fill="#e19f25" fill-rule="evenodd"/>
          <path id="Trazado_1177464" data-name="Trazado 1177464" d="M110.233,155.427a.558.558,0,1,1-1.11.1,12.25,12.25,0,0,1,3.413-10.146,14.452,14.452,0,0,1,6.995-3.757,19.145,19.145,0,0,1,8.637.046,21.187,21.187,0,0,1,14.012,11.1.557.557,0,1,1-.988.516,20.08,20.08,0,0,0-13.273-10.531,18.021,18.021,0,0,0-8.135-.046,13.35,13.35,0,0,0-6.458,3.455,11.167,11.167,0,0,0-3.093,9.255" transform="translate(-26.348 -34.105)" fill="#0f2238" fill-rule="evenodd"/>
          <rect id="Rectángulo_421552" data-name="Rectángulo 421552" width="33.586" height="222.304" transform="translate(55.966 124.955)" fill="#b6362e"/>
          <path id="Trazado_1177465" data-name="Trazado 1177465" d="M82.391,356.524V227.533a4.587,4.587,0,0,1,4.574-4.572h8.181a4.587,4.587,0,0,1,4.573,4.572V356.524a4.586,4.586,0,0,1-4.573,4.572H86.965a4.586,4.586,0,0,1-4.574-4.572" transform="translate(-19.906 -53.869)" fill="#e19f25" fill-rule="evenodd"/>
          <path id="Trazado_1177466" data-name="Trazado 1177466" d="M107.381,190.033a72.959,72.959,0,0,0-33.586,0v14.244a73.012,73.012,0,0,1,33.586,0Z" transform="translate(-17.829 -45.44)" fill="#e19f25" fill-rule="evenodd"/>
          <path id="Trazado_1177467" data-name="Trazado 1177467" d="M73.746,209.182a.559.559,0,1,1-.258-1.088,71.974,71.974,0,0,1,16.922-1.971,76.71,76.71,0,0,1,16.915,1.971.558.558,0,1,1-.244,1.088,75.6,75.6,0,0,0-16.671-1.945,70.846,70.846,0,0,0-16.664,1.945" transform="translate(-17.651 -49.8)" fill="#0f2238" fill-rule="evenodd"/>
          <path id="Trazado_1177468" data-name="Trazado 1177468" d="M107.381,431.481a72.981,72.981,0,0,1-33.586,0V417.236a73,73,0,0,0,33.586,0Z" transform="translate(-17.829 -100.806)" fill="#e19f25" fill-rule="evenodd"/>
          <path id="Trazado_1177469" data-name="Trazado 1177469" d="M73.489,417.6a.559.559,0,1,1,.257-1.088,70.885,70.885,0,0,0,16.664,1.945,75.6,75.6,0,0,0,16.671-1.945.558.558,0,0,1,.245,1.088,76.756,76.756,0,0,1-16.916,1.972A71.963,71.963,0,0,1,73.489,417.6" transform="translate(-17.651 -100.628)" fill="#0f2238" fill-rule="evenodd"/>
          <path id="Trazado_1177470" data-name="Trazado 1177470" d="M74.177,386.889a.559.559,0,0,1-1.118,0v-222.3a.559.559,0,0,1,1.118,0Z" transform="translate(-17.651 -39.63)" fill="#0f2238" fill-rule="evenodd"/>
          <path id="Trazado_1177471" data-name="Trazado 1177471" d="M265.389,445.382l-113.423.389s36.495-18.795,79.654-16.6c19.072.968,28.824,8.315,33.769,16.215" transform="translate(-36.716 -103.646)" fill="#fff" fill-rule="evenodd"/>
          <path id="Trazado_1177472" data-name="Trazado 1177472" d="M301.523,445.382l113.424.389s-36.494-18.795-79.654-16.6c-19.072.968-28.823,8.315-33.77,16.215" transform="translate(-72.85 -103.646)" fill="#fff" fill-rule="evenodd"/>
          <path id="Trazado_1177473" data-name="Trazado 1177473" d="M150.477,441.8a.745.745,0,0,1-.56-1.381c15.324-6.227,49.328-17.122,76.9-16.284,17.619.535,32.642,5.849,38.655,20.166a.745.745,0,0,1-1.374.577c-5.74-13.662-20.257-18.738-37.321-19.257-27.314-.83-61.077,9.993-76.3,16.18" transform="translate(-36.109 -102.462)" fill="#fff" fill-rule="evenodd"/>
          <path id="Trazado_1177474" data-name="Trazado 1177474" d="M159.439,434.568a.744.744,0,0,1-.489-1.4,276.285,276.285,0,0,1,34.595-9.857c22.052-4.615,38.891-4.429,50.932-1.092,12.19,3.378,19.5,9.988,22.364,18.142a23.9,23.9,0,0,1,.843,3.035.743.743,0,1,1-1.455.3,22.636,22.636,0,0,0-.793-2.848c-2.7-7.7-9.681-13.964-21.357-17.2-11.826-3.278-28.428-3.448-50.231,1.115a274.7,274.7,0,0,0-34.41,9.805" transform="translate(-38.283 -101.419)" fill="#fff" fill-rule="evenodd"/>
          <path id="Trazado_1177475" data-name="Trazado 1177475" d="M416.153,440.417a.745.745,0,0,1-.56,1.381c-15.222-6.186-48.984-17.009-76.3-16.18-17.063.519-31.581,5.595-37.321,19.257a.746.746,0,0,1-1.375-.577c6.014-14.316,21.036-19.631,38.656-20.166,27.568-.837,61.574,10.057,76.9,16.284" transform="translate(-72.612 -102.462)" fill="#fff" fill-rule="evenodd"/>
          <path id="Trazado_1177476" data-name="Trazado 1177476" d="M409.295,433.165a.744.744,0,1,1-.491,1.4,274.519,274.519,0,0,0-34.409-9.805c-21.8-4.563-38.4-4.393-50.23-1.116-11.676,3.235-18.656,9.5-21.356,17.2a22.6,22.6,0,0,0-.793,2.848.743.743,0,1,1-1.455-.3,24.081,24.081,0,0,1,.844-3.035c2.86-8.154,10.172-14.764,22.365-18.142,12.04-3.337,28.878-3.522,50.93,1.093a276.069,276.069,0,0,1,34.6,9.857" transform="translate(-72.613 -101.419)" fill="#fff" fill-rule="evenodd"/>
          <path id="Trazado_1177477" data-name="Trazado 1177477" d="M274.279,447.672l-85.52.234s27.517-11.289,60.058-9.974c14.381.582,21.733,5,25.462,9.741" transform="translate(-45.605 -105.781)" fill="#9fb1c7" fill-rule="evenodd"/>
          <path id="Trazado_1177478" data-name="Trazado 1177478" d="M301.523,447.672l85.522.234s-27.518-11.289-60.06-9.974c-14.381.582-21.733,5-25.462,9.741" transform="translate(-72.85 -105.781)" fill="#9fb1c7" fill-rule="evenodd"/>
          <rect id="Rectángulo_421553" data-name="Rectángulo 421553" width="238.608" height="6.46" transform="translate(109.37 340.8)" fill="#2f445d"/>
          <path id="Trazado_1177479" data-name="Trazado 1177479" d="M140.18,360.542c-8.673-18.6.595-48.984,28.359-52.03-14.236,17.151-8.069,37.34-28.359,52.03" transform="translate(-33.11 -74.538)" fill="#557a7a" fill-rule="evenodd"/>
          <path id="Trazado_1177480" data-name="Trazado 1177480" d="M138.767,404.243a.558.558,0,1,1-1.114.048c-.009-.217-3.793-75.541,24.811-92.053a.557.557,0,1,1,.555.965c-28.008,16.169-24.261,90.825-24.252,91.041" transform="translate(-33.217 -75.42)" fill="#304a4a" fill-rule="evenodd"/>
          <path id="Trazado_1177481" data-name="Trazado 1177481" d="M126.252,375.99c6.151-12.962-2.89-38.9-24.815-34.91,14.208,11.2,13.973,32.427,24.815,34.91" transform="translate(-24.508 -82.307)" fill="#557a7a" fill-rule="evenodd"/>
          <path id="Trazado_1177482" data-name="Trazado 1177482" d="M131.382,412.257a.558.558,0,0,1-1.116-.052c.008-.156,2.8-54-18.047-66.039a.556.556,0,0,1,.555-.965c21.445,12.38,18.613,66.9,18.607,67.056" transform="translate(-27.046 -83.385)" fill="#304a4a" fill-rule="evenodd"/>
          <path id="Trazado_1177483" data-name="Trazado 1177483" d="M146.795,387.042c-2.557-15.876,9.892-28.968,26.011-28.937-5.866,9.1-8.676,27.433-26.011,28.937" transform="translate(-35.386 -86.52)" fill="#557a7a" fill-rule="evenodd"/>
          <path id="Trazado_1177484" data-name="Trazado 1177484" d="M166.406,360.929a.557.557,0,1,1,.646.909,60.444,60.444,0,0,0-17.133,18.287,53.2,53.2,0,0,0-7.252,22.85.559.559,0,0,1-1.114-.092,54.32,54.32,0,0,1,7.4-23.327,61.552,61.552,0,0,1,17.448-18.627" transform="translate(-34.2 -87.177)" fill="#304a4a" fill-rule="evenodd"/>
          <path id="Trazado_1177485" data-name="Trazado 1177485" d="M99.466,380.771c4.936.11,9.745-.491,16.34,2.855s6.4,12.206,6.4,12.206c-8.525,3.009-16.569-9.2-22.738-15.062" transform="translate(-24.032 -91.996)" fill="#557a7a" fill-rule="evenodd"/>
          <path id="Trazado_1177486" data-name="Trazado 1177486" d="M106.47,383.9a.559.559,0,0,1,.429-1.031c5.037,2.107,10.106,4.6,13.785,8.588,3.706,4.014,5.98,9.506,5.36,17.563a.559.559,0,0,1-1.115-.083c.592-7.7-1.559-12.923-5.068-16.725-3.534-3.83-8.473-6.255-13.392-8.312" transform="translate(-25.641 -92.493)" fill="#304a4a" fill-rule="evenodd"/>
          <path id="Trazado_1177487" data-name="Trazado 1177487" d="M109.5,411.219h46.067a160.168,160.168,0,0,1-4.021,35.434h-37.28c-2.718-10.68-4.147-22.652-4.766-35.434" transform="translate(-26.455 -99.353)" fill="#4e628e" fill-rule="evenodd"/>
          <path id="Trazado_1177488" data-name="Trazado 1177488" d="M155.5,422.19H110.2q.262,3.272.614,6.457l44.131.855q.364-3.7.551-7.312" transform="translate(-26.625 -102.003)" fill="#0f2238" fill-rule="evenodd"/>
          <path id="Trazado_1177489" data-name="Trazado 1177489" d="M112.063,438.733a3.977,3.977,0,0,1,2.189,1.487A23.168,23.168,0,0,1,116,442.649a15.983,15.983,0,0,0,1.084,1.536.6.6,0,0,0,.989.08,14.711,14.711,0,0,0,2.221-2.76l0,0,0,0a10.147,10.147,0,0,1,2.481-2.861c1.438-.918,2.771-.789,4.043,1.2.453.709.8,1.323,1.15,1.93.367.64.729,1.274,1.01,1.716.724,1.133,1.41,1.949,2.043,1.545a15.9,15.9,0,0,0,2.855-3.011,23.25,23.25,0,0,1,2.555-2.818c1.595-1.37,3.12-1.768,4.549-.105.523.608,1.061,1.3,1.628,2.03a48.707,48.707,0,0,0,3.3,4.05c.946-.22,5.889-6.126,5.9-6.144a1.572,1.572,0,0,1,2.214-.2,1.54,1.54,0,0,1,.156.149l.491.514q-.269,1.945-.6,3.925l-1-1.046c-1.756,1.989-5.053,5.545-6.464,5.873-2.075.482-4.446-2.565-6.487-5.19-.572-.736-1.114-1.434-1.53-1.916-.129-.151.056.3-.116.446a21.3,21.3,0,0,0-2.164,2.419,17.587,17.587,0,0,1-3.6,3.671c-2.862,1.825-4.711.11-6.379-2.5-.427-.669-.761-1.253-1.1-1.844-.372-.652-.75-1.312-1.057-1.8a16.865,16.865,0,0,0-1.292,1.746l0,0a17.033,17.033,0,0,1-2.761,3.369c-2.35,2.006-3.924,1.334-5.421-.42a18.527,18.527,0,0,1-1.328-1.869c-.17-.259-.343-.526-.523-.791q-.422-2.387-.778-4.838m12.4,2.553a1.092,1.092,0,0,0-.142.111c.124-.094.26-.187.142-.111" transform="translate(-27.075 -105.825)" fill="#0f2238" fill-rule="evenodd"/>
          <path id="Trazado_1177490" data-name="Trazado 1177490" d="M111.279,411.545a.559.559,0,0,1,0-1.119H155.86a.559.559,0,0,1,0,1.119Z" transform="translate(-26.751 -99.161)" fill="#0f2238" fill-rule="evenodd"/>
          <path id="Trazado_1177491" data-name="Trazado 1177491" d="M199.665,199.848c4.54,5.278,17.6,11.057,26.432,5.87,11.612-6.817,17.6-26.994,3.131-35.588-13.217-7.852-31.625-.911-33.912,14.626a18.472,18.472,0,0,0,4.349,15.092" transform="translate(-47.137 -40.319)" fill="#fff" fill-rule="evenodd"/>
          <path id="Trazado_1177492" data-name="Trazado 1177492" d="M198.941,232.508c1.337,1.555,5.182,3.257,7.784,1.73,3.42-2.008,5.182-7.95.922-10.482-3.892-2.312-9.314-.268-9.987,4.308a5.437,5.437,0,0,0,1.28,4.444" transform="translate(-47.74 -53.829)" fill="#fff" fill-rule="evenodd"/>
          <path id="Trazado_1177493" data-name="Trazado 1177493" d="M357.231,64.3c-8.2,14.967-2.238,29.265,15.616,39.539,25.18,14.488,43.368-11.688,33.933-36.861-3.467-9.254-7.611-15.279-11.874-18.938-12.94-11.1-28.949.331-37.675,16.26" transform="translate(-85.435 -10.539)" fill="#9fb1c7" fill-rule="evenodd"/>
          <path id="Trazado_1177494" data-name="Trazado 1177494" d="M411.166,133.693c-5.615,6.786-3.592,12.142,5.134,14.88,12.306,3.863,24.19-8.323,21.194-17.837-1.1-3.5-2.829-5.621-4.814-6.769-6.025-3.48-15.536,2.5-21.513,9.726" transform="translate(-98.58 -29.705)" fill="#9fb1c7" fill-rule="evenodd"/>
          <path id="Trazado_1177495" data-name="Trazado 1177495" d="M244.788,39.443c-18.533-4.86-33.589,2.337-41.8,19.161-16.775,34.371,51.07,41.6,69.985,17.13,13.254-17.145-8.461-31.118-28.186-36.291" transform="translate(-48.405 -9.17)" fill="#fff" fill-rule="evenodd"/>
          <path id="Trazado_1177496" data-name="Trazado 1177496" d="M209.419,108.007c-4.824-2.784-7.951-.956-8.735,4.774-1.107,8.081,7.746,14.2,13.362,11.328a7.126,7.126,0,0,0,3.711-3.717c1.533-4.123-3.2-9.422-8.338-12.385" transform="translate(-48.463 -25.786)" fill="#fff" fill-rule="evenodd"/>
          <rect id="Rectángulo_421554" data-name="Rectángulo 421554" width="352.568" height="22.867" transform="translate(13.563 356.329)" fill="#6c463b"/>
          <path id="Trazado_1177497" data-name="Trazado 1177497" d="M370.452,469.846H17.885v4.607l352.568,6.826Z" transform="translate(-4.321 -113.517)" fill="#0f2238" fill-rule="evenodd"/>
          <path id="Trazado_1177498" data-name="Trazado 1177498" d="M373.408,457.941H9.375a2.752,2.752,0,0,0-2.984,2.412v5.385a2.752,2.752,0,0,0,2.984,2.412H373.408a2.752,2.752,0,0,0,2.983-2.412v-5.385a2.753,2.753,0,0,0-2.983-2.412" transform="translate(-1.544 -110.641)" fill="#6c463b" fill-rule="evenodd"/>
          <path id="Trazado_1177499" data-name="Trazado 1177499" d="M17.884,490.115c95.285-.559,258.908-1.249,352.568-.11v-.9c-93.686-1.138-257.279-.449-352.568.111Zm234.672,7.1H217.427c-70.956-1.8-145.939-3.6-199.543-4.863v-.9c62.548,1.474,154.235,3.675,234.672,5.765" transform="translate(-4.321 -118.022)" fill="#52332b" fill-rule="evenodd"/>
          <path id="Trazado_1177500" data-name="Trazado 1177500" d="M106.747,0h1.72l-.122.161A1.046,1.046,0,0,1,106.911.3a.508.508,0,0,1-.164-.3M0,90.019V88.681c.894-.415,1.778-.838,2.657-1.272a1.138,1.138,0,0,1,.37-.108c.913-.095,1.285.781.508,1.172q-1.5.743-3.028,1.444a1.163,1.163,0,0,1-.3.09A1.323,1.323,0,0,1,0,90.019M7,85.14c-.811.457-.225,1.372.729,1.116a1.169,1.169,0,0,0,.229-.093q1.447-.8,2.862-1.631c.731-.445.263-1.273-.635-1.128a1.086,1.086,0,0,0-.369.133c-.93.546-1.865,1.079-2.816,1.6M13.907,81a.569.569,0,0,0-.253.774.993.993,0,0,0,1.328.177q1.361-.884,2.685-1.8a.681.681,0,0,0,.281-.369c.168-.615-.767-.984-1.4-.551-.865.6-1.748,1.19-2.638,1.768m6.46-4.534c-.7.542.076,1.361.973,1a1.017,1.017,0,0,0,.212-.123q1.265-.962,2.491-1.946c.537-.438.167-1.1-.607-1.068a1.059,1.059,0,0,0-.614.223c-.808.648-1.624,1.285-2.456,1.918m5.989-4.893a.625.625,0,0,0-.218.376c-.082.626.928.911,1.495.422.756-.7,1.539-1.377,2.292-2.08a.534.534,0,0,0,.1-.735,1.028,1.028,0,0,0-1.412-.03c-.742.691-1.511,1.361-2.255,2.046m5.482-5.2c-.57.589.307,1.3,1.147.875a.855.855,0,0,0,.222-.165q1.06-1.089,2.08-2.2c.555-.611-.393-1.311-1.221-.826a.894.894,0,0,0-.18.149q-1,1.093-2.048,2.163m4.956-5.486c-.394.492.1,1.051.833.947a.976.976,0,0,0,.61-.32c.635-.76,1.25-1.528,1.854-2.3a.524.524,0,0,0,.115-.438c-.131-.591-1.159-.689-1.587-.153-.594.761-1.2,1.517-1.825,2.265m4.383-5.73a.509.509,0,0,0,.067.691,1.043,1.043,0,0,0,1.447-.158c.555-.79,1.094-1.593,1.609-2.4.406-.626-.577-1.2-1.334-.7a.756.756,0,0,0-.209.214c-.509.789-1.036,1.577-1.58,2.354m3.753-5.948c-.375.671.728,1.176,1.4.635a.738.738,0,0,0,.177-.206q.7-1.231,1.332-2.479a.548.548,0,0,0-.348-.764,1.036,1.036,0,0,0-1.258.381Q45.615,48,44.93,49.209m3.036-6.135a.48.48,0,0,0,.061.507l-.559.077-.434.053-.432.048-.425.043-.423.038-.41.031c-1.006.095-1.132,1.165-.148,1.284a1.08,1.08,0,0,0,.216,0l.408-.032.45-.04.454-.045.457-.052.459-.057.463-.062.465-.067.368-.058a.845.845,0,0,0,.728-.58.527.527,0,0,0-.24-.538l.041-.038a.645.645,0,0,0,.141-.207c.359-.846.692-1.7,1-2.552a.5.5,0,0,0-.14-.55,1.011,1.011,0,0,0-1.521.3c-.306.837-.632,1.669-.984,2.5m2.174-6.283c-.178.67.969,1.013,1.537.428a.62.62,0,0,0,.154-.266c.232-.868.427-1.739.595-2.612.133-.689-1.091-.97-1.592-.337a.59.59,0,0,0-.114.247c-.164.848-.353,1.7-.579,2.541m1.069-6.355c-.033.729,1.32.87,1.673.151a.538.538,0,0,0,.049-.193,25.419,25.419,0,0,0,.03-2.632c-.053-.765-1.517-.767-1.71.011a.515.515,0,0,0-.011.131,22.408,22.408,0,0,1-.03,2.532m-.471-6.263c.179.7,1.561.621,1.7-.133a.492.492,0,0,0-.009-.194,8.962,8.962,0,0,0-1.021-2.56.9.9,0,0,0-.918-.328c-.566.1-.883.552-.658.935a8.048,8.048,0,0,1,.9,2.281M47.07,19.139c.769.458,1.87-.328,1.261-.938a.664.664,0,0,0-.118-.089,12.941,12.941,0,0,0-3.075-1.354,1.1,1.1,0,0,0-1.011.214.562.562,0,0,0,.284,1,11.2,11.2,0,0,1,2.66,1.172M39.744,17.35c.959-.027,1.257-1.01.384-1.258a1.1,1.1,0,0,0-.3-.036,21.077,21.077,0,0,0-3.629.365c-.928.18-.965,1.185.027,1.272a1.238,1.238,0,0,0,.28-.018,18.71,18.71,0,0,1,3.237-.324m-7.78,1.818c.548-.276.568-.859.036-1.1a1.118,1.118,0,0,0-.912.033,16.276,16.276,0,0,0-2.9,1.821c-.7.572.162,1.379,1.048.956a.935.935,0,0,0,.171-.109,14.358,14.358,0,0,1,2.56-1.6M26.51,23.889c.434-.623-.538-1.213-1.289-.746a.793.793,0,0,0-.231.217l-.093.131-.173.256L24.56,24l-.161.257-.153.259-.146.258-.141.259-.135.26-.127.259-.159.345a.522.522,0,0,0,.23.66,1.031,1.031,0,0,0,1.409-.345l.137-.3.118-.238.124-.238.128-.237.134-.237.142-.237.146-.236.152-.235.161-.235Zm-2.3,6c.055-.683-1.182-.895-1.63-.24a.547.547,0,0,0-.09.259l-.025.353-.011.259-.005.259,0,.259.006.257.014.257.018.256.025.256.03.253.041.285a.707.707,0,0,0,.662.51c.592.066,1.12-.323,1.048-.769l-.035-.243-.029-.231-.023-.234L24.19,31.4l-.012-.235-.007-.236v-.235l0-.237.01-.237Zm1.3,5.972a.981.981,0,0,0-1.645.2.489.489,0,0,0,.046.37l.14.249.136.228.141.226.146.224.152.221.157.22.162.217.166.215.173.214.259.3c.507.567,1.75.138,1.571-.559a.523.523,0,0,0-.118-.214l-.23-.268-.157-.2-.153-.2-.148-.2-.144-.2-.137-.2-.133-.2-.13-.207-.124-.208Zm4.625,4.8c-.679-.433-1.739.179-1.38.8a.625.625,0,0,0,.206.208l.272.172.265.161.27.158.275.155.28.151.282.148.289.144.293.142.3.137.318.141c.792.328,1.707-.435,1.154-.99a.753.753,0,0,0-.234-.152l-.273-.121-.273-.126-.268-.129-.265-.133-.261-.136-.256-.138-.252-.142-.248-.145-.243-.149Zm-1.174,1.009,3.758.366L31.8,43.178Zm8.212,1.746c-.906-.168-1.562.74-.8,1.166a.957.957,0,0,0,.256.089l.2.039.369.07.374.064.376.06.382.055.385.052.388.046.393.042.4.037.2.015a1.12,1.12,0,0,0,.664-.157c.6-.373.368-1.075-.375-1.131l-.169-.014-.369-.034-.363-.039-.362-.043-.356-.047-.353-.052-.35-.056-.345-.059-.341-.064ZM53.6,42.4a.978.978,0,0,0-.443.259c-.485.534.159,1.169.947.949l.294-.082.506-.146.508-.152.511-.159.514-.165.516-.171.471-.162a.719.719,0,0,0,.547-.657c-.029-.446-.619-.7-1.176-.511l-.452.154-.5.165-.494.159-.489.152-.487.146-.484.14Zm7.814-2.822c-.764.334-.529,1.2.337,1.2a1.135,1.135,0,0,0,.46-.1l.6-.271.548-.253.551-.259.553-.267.554-.274.247-.123a.618.618,0,0,0,.382-.748.937.937,0,0,0-1.276-.308l-.231.115-.541.265-.536.259-.535.252L62,39.317Zm7.227-3.721c-.8.485-.147,1.378.789,1.091a1.019,1.019,0,0,0,.221-.1l.479-.282.579-.348.582-.356.583-.362.565-.359c.71-.457.2-1.279-.7-1.1a1.108,1.108,0,0,0-.362.143l-.554.351-.572.355-.567.347-.567.339Zm6.677-4.334a.562.562,0,0,0-.224.746,1,1,0,0,0,1.364.161l.763-.548.6-.442.605-.451.6-.45c.722-.557-.105-1.386-1.007-.981a.941.941,0,0,0-.174.1l-.588.443-.6.444-.593.435Zm6.172-4.755c-.675.585.191,1.36,1.062.944a.969.969,0,0,0,.186-.121l.611-.51.623-.527.625-.535.513-.446a.648.648,0,0,0,.216-.349c.121-.64-.913-.952-1.489-.453l-.5.438-.617.529-.615.52Zm5.74-5.068c-.487.472-.037,1.1.73,1.019a1.014,1.014,0,0,0,.59-.26l.469-.439.637-.607L90.3,20.8l.464-.454c.569-.552-.2-1.277-1.059-.924a.909.909,0,0,0-.281.186l-.458.447-.633.609-.631.6ZM92.6,16.4c-.553.573.274,1.281,1.119.889a.9.9,0,0,0,.256-.183l.846-.886.651-.692.571-.614c.518-.569-.249-1.229-1.06-.909a.9.9,0,0,0-.331.222l-.565.608-.645.685Zm5.032-5.474c-.553.648.483,1.317,1.276.785a.822.822,0,0,0,.144-.13l.355-.4.661-.759.662-.769.268-.316a.519.519,0,0,0-.03-.745,1.052,1.052,0,0,0-1.406.108l-.264.31-.657.764-.655.753Zm4.745-5.614c-.518.646.518,1.282,1.285.768a.8.8,0,0,0,.171-.155l.891-1.1.669-.841.276-.351c.46-.575-.363-1.206-1.161-.836a.833.833,0,0,0-.307.24l-.273.345-.664.835Z" fill="#fff" fill-rule="evenodd"/>
          <path id="Trazado_1177501" data-name="Trazado 1177501" d="M414.418,252.165A2.322,2.322,0,1,0,415.6,249.1a2.321,2.321,0,0,0-1.182,3.063" transform="translate(-100.077 -60.136)" fill="#d2e5f6" fill-rule="evenodd"/>
          <path id="Trazado_1177502" data-name="Trazado 1177502" d="M424.379,255.7a1.29,1.29,0,1,0,.656-1.7,1.291,1.291,0,0,0-.656,1.7" transform="translate(-102.505 -61.341)" fill="#d2e5f6" fill-rule="evenodd"/>
          <path id="Trazado_1177503" data-name="Trazado 1177503" d="M424.536,265.714a2.064,2.064,0,1,0,1.05-2.723,2.064,2.064,0,0,0-1.05,2.723" transform="translate(-102.527 -63.497)" fill="#d2e5f6" fill-rule="evenodd"/>
          <path id="Trazado_1177504" data-name="Trazado 1177504" d="M388.9,245.51a2.322,2.322,0,1,0,1.182-3.064,2.32,2.32,0,0,0-1.182,3.064" transform="translate(-93.911 -58.528)" fill="#d2e5f6" fill-rule="evenodd"/>
          <path id="Trazado_1177505" data-name="Trazado 1177505" d="M405.859,238.255a1.29,1.29,0,1,0,.657-1.7,1.29,1.29,0,0,0-.657,1.7" transform="translate(-98.031 -57.126)" fill="#d2e5f6" fill-rule="evenodd"/>
          <path id="Trazado_1177506" data-name="Trazado 1177506" d="M212.14,318.84a1.29,1.29,0,1,0-.047-1.824,1.29,1.29,0,0,0,.047,1.824" transform="translate(-51.157 -76.496)" fill="#d2e5f6" fill-rule="evenodd"/>
          <path id="Trazado_1177507" data-name="Trazado 1177507" d="M224.357,336.4a2.219,2.219,0,1,0-.08-3.137,2.221,2.221,0,0,0,.08,3.137" transform="translate(-54.039 -80.351)" fill="#d2e5f6" fill-rule="evenodd"/>
          <path id="Trazado_1177508" data-name="Trazado 1177508" d="M179.729,398.888a2.322,2.322,0,1,0,3.254-.444,2.321,2.321,0,0,0-3.254.444" transform="translate(-43.309 -96.152)" fill="#fff" fill-rule="evenodd"/>
          <path id="Trazado_1177509" data-name="Trazado 1177509" d="M185.37,414.056a1.29,1.29,0,1,0,1.808-.246,1.29,1.29,0,0,0-1.808.246" transform="translate(-44.723 -99.915)" fill="#fff" fill-rule="evenodd"/>
          <path id="Trazado_1177510" data-name="Trazado 1177510" d="M176.338,419.117a2.064,2.064,0,1,0,2.893-.394,2.065,2.065,0,0,0-2.893.394" transform="translate(-42.503 -101.064)" fill="#fff" fill-rule="evenodd"/>
          <path id="Trazado_1177511" data-name="Trazado 1177511" d="M167.33,396.568a2.322,2.322,0,1,0,3.254-.444,2.323,2.323,0,0,0-3.254.444" transform="translate(-40.314 -95.591)" fill="#fff" fill-rule="evenodd"/>
          <path id="Trazado_1177512" data-name="Trazado 1177512" d="M191.7,389.412a1.29,1.29,0,1,0,1.808-.246,1.291,1.291,0,0,0-1.808.246" transform="translate(-46.253 -93.961)" fill="#fff" fill-rule="evenodd"/>
          <path id="Trazado_1177513" data-name="Trazado 1177513" d="M221.417,321.685a2.322,2.322,0,1,0,3.253-.444,2.322,2.322,0,0,0-3.253.444" transform="translate(-53.381 -77.499)" fill="#d2e5f6" fill-rule="evenodd"/>
        </g>
      </g>
      <text id="GLOSSARY" transform="translate(75.935 279.679) rotate(-90)" fill="#0f2238" font-size="15" font-family="OpenSans-Extrabold, Open Sans" font-weight="800"><tspan x="0" y="0">GLOSSARY</tspan></text>
      <text id="A" transform="translate(158.686 154.569)" fill="#78849c" font-size="28" font-family="OpenSans-Extrabold, Open Sans" font-weight="800"><tspan x="0" y="0">A</tspan></text>
      <text id="Z" transform="translate(176.987 67.372)" fill="#78849c" font-size="33" font-family="OpenSans-Extrabold, Open Sans" font-weight="800"><tspan x="0" y="0">Z</tspan></text>
    </g>
  </g>
</svg>
