<svg xmlns="http://www.w3.org/2000/svg" xmlns:xlink="http://www.w3.org/1999/xlink" width="99.544" height="99.544" viewBox="0 0 99.544 99.544">
  <defs>
    <filter id="Trazado_904820" x="0" y="0" width="99.544" height="99.544" filterUnits="userSpaceOnUse">
      <feOffset dy="3" input="SourceAlpha"/>
      <feGaussianBlur stdDeviation="3" result="blur"/>
      <feFlood flood-opacity="0.161"/>
      <feComposite operator="in" in2="blur"/>
      <feComposite in="SourceGraphic"/>
    </filter>
  </defs>
  <g id="Grupo_1223981" data-name="Grupo 1223981" transform="translate(-171 -7343.148)">
    <g id="Grupo_1223788" data-name="Grupo 1223788" transform="translate(180 7349.148)">
      <g id="Grupo_1173585" data-name="Grupo 1173585" transform="translate(0 0)">
        <g id="Grupo_1173428" data-name="Grupo 1173428">
          <g id="Grupo_1171958" data-name="Grupo 1171958">
            <g id="Grupo_1167341" data-name="Grupo 1167341">
              <g id="Grupo_1166792" data-name="Grupo 1166792">
                <g transform="matrix(1, 0, 0, 1, -9, -6)" filter="url(#Trazado_904820)">
                  <g id="Trazado_904820-2" data-name="Trazado 904820" transform="translate(9 6)" fill="#f2f4f0">
                    <path d="M 40.77218246459961 80.04439544677734 C 35.46981811523438 80.04439544677734 30.32684135437012 79.00625610351562 25.48614692687988 76.95880889892578 C 20.80981826782227 74.98088836669922 16.6097354888916 72.14900970458984 13.00255870819092 68.54183197021484 C 9.395394325256348 64.93465423583984 6.563511848449707 60.73457336425781 4.585594177246094 56.05824661254883 C 2.538147211074829 51.2175407409668 1.500005960464478 46.0745735168457 1.500005960464478 40.77219772338867 C 1.500005960464478 35.46982192993164 2.538147211074829 30.32685661315918 4.585594177246094 25.48615074157715 C 6.563511848449707 20.80982208251953 9.395394325256348 16.60973930358887 13.00255870819092 13.00256252288818 C 16.6097354888916 9.3953857421875 20.80981826782227 6.563503742218018 25.48614692687988 4.585586071014404 C 30.32684135437012 2.538138866424561 35.46981811523438 1.499997735023499 40.77218246459961 1.499997735023499 C 46.07455825805664 1.499997735023499 51.21752548217773 2.538138866424561 56.05823135375977 4.585586071014404 C 60.73455810546875 6.563503742218018 64.93463897705078 9.3953857421875 68.54181671142578 13.00256252288818 C 72.14897918701172 16.60973930358887 74.98086547851562 20.80982208251953 76.95878601074219 25.48615074157715 C 79.00623321533203 30.32685661315918 80.04437255859375 35.46982192993164 80.04437255859375 40.77219772338867 C 80.04437255859375 46.0745735168457 79.00623321533203 51.2175407409668 76.95878601074219 56.05824661254883 C 74.98086547851562 60.73457336425781 72.14897918701172 64.93465423583984 68.54181671142578 68.54183197021484 C 64.93463897705078 72.14900970458984 60.73455810546875 74.98088836669922 56.05823135375977 76.95880889892578 C 51.21752548217773 79.00625610351562 46.07455825805664 80.04439544677734 40.77218246459961 80.04439544677734 Z" stroke="none"/>
                    <path d="M 40.77218246459961 3 C 35.67164993286133 3 30.72527694702148 3.998275756835938 26.07046127319336 5.967094421386719 C 21.57294082641602 7.869384765625 17.53311920166016 10.59331512451172 14.06320953369141 14.06322479248047 C 10.59331512451172 17.53311920166016 7.869384765625 21.57294464111328 5.967086791992188 26.07047653198242 C 3.998275756835938 30.72529220581055 2.999992370605469 35.67166519165039 2.999992370605469 40.77219772338867 C 2.999992370605469 45.87273025512695 3.998275756835938 50.81910705566406 5.967086791992188 55.47391510009766 C 7.869384765625 59.97145080566406 10.59331512451172 64.01126098632812 14.06320953369141 67.48117065429688 C 17.53311920166016 70.95108032226562 21.57294082641602 73.67501068115234 26.07046127319336 75.57730102539062 C 30.72527694702148 77.54611968994141 35.67164993286133 78.54439544677734 40.77218246459961 78.54439544677734 C 45.87271499633789 78.54439544677734 50.819091796875 77.54611968994141 55.47389984130859 75.57730102539062 C 59.97142028808594 73.67501068115234 64.01124572753906 70.95108032226562 67.48115539550781 67.48117065429688 C 70.9510498046875 64.01126098632812 73.67498016357422 59.97145080566406 75.57727813720703 55.47391510009766 C 77.54608917236328 50.81910705566406 78.54437255859375 45.87273025512695 78.54437255859375 40.77219772338867 C 78.54437255859375 35.67166519165039 77.54608917236328 30.72529220581055 75.57727813720703 26.07047653198242 C 73.67498016357422 21.57294464111328 70.9510498046875 17.53311920166016 67.48115539550781 14.06322479248047 C 64.01124572753906 10.59331512451172 59.97142028808594 7.869384765625 55.47389984130859 5.967094421386719 C 50.819091796875 3.998275756835938 45.87271499633789 3 40.77218246459961 3 M 40.77218246459961 0 C 63.29003524780273 0 81.54437255859375 18.25432968139648 81.54437255859375 40.77219772338867 C 81.54437255859375 63.2900505065918 63.29003524780273 81.54439544677734 40.77218246459961 81.54439544677734 C 18.25432968139648 81.54439544677734 -7.62939453125e-06 63.2900505065918 -7.62939453125e-06 40.77219772338867 C -7.62939453125e-06 18.25432968139648 18.25432968139648 0 40.77218246459961 0 Z" stroke="none" fill="#899e78"/>
                  </g>
                </g>
              </g>
            </g>
          </g>
        </g>
      </g>
    </g>
    <g id="period_11689989" transform="translate(192.007 7364.304)">
      <g id="Grupo_1223980" data-name="Grupo 1223980" transform="translate(5.258 1.772)">
        <g id="Grupo_1223977" data-name="Grupo 1223977" transform="translate(0 0)">
          <path id="Trazado_1179333" data-name="Trazado 1179333" d="M43.973,54.624H14.114A1.631,1.631,0,0,1,12.486,53V18.115a1.572,1.572,0,0,1,.477-1.151L20.45,9.477A1.572,1.572,0,0,1,21.6,9H43.973A1.631,1.631,0,0,1,45.6,10.628V53a1.632,1.632,0,0,1-1.628,1.628Z" transform="translate(-12.486 -9)" fill="#eff4f7" fill-rule="evenodd"/>
          <path id="Trazado_1179334" data-name="Trazado 1179334" d="M21.771,10.8l-7.487,7.487a1.632,1.632,0,0,0-.336.477h6.83a1.473,1.473,0,0,0,1.47-1.47v-6.83a1.632,1.632,0,0,0-.477.336Z" transform="translate(-13.807 -10.321)" fill="#e2e3e3" fill-rule="evenodd"/>
        </g>
        <g id="Grupo_1223978" data-name="Grupo 1223978" transform="translate(3.691 9.994)">
          <path id="Trazado_1179335" data-name="Trazado 1179335" d="M51.144,229.867h3.289a.419.419,0,0,1,.418.418v6.209a.419.419,0,0,1-.418.418H51.144a.419.419,0,0,1-.418-.418v-6.209A.419.419,0,0,1,51.144,229.867Z" transform="translate(-50.726 -218.54)" fill="#fc685b" fill-rule="evenodd"/>
          <path id="Trazado_1179336" data-name="Trazado 1179336" d="M125.759,190.755h3.289a.419.419,0,0,1,.418.418v9.985a.419.419,0,0,1-.418.418h-3.289a.419.419,0,0,1-.418-.418v-9.985A.419.419,0,0,1,125.759,190.755Z" transform="translate(-118.138 -183.204)" fill="#ffda2d" fill-rule="evenodd"/>
          <path id="Trazado_1179337" data-name="Trazado 1179337" d="M200.373,151.641h3.289a.419.419,0,0,1,.418.418V165.82a.419.419,0,0,1-.418.418h-3.289a.419.419,0,0,1-.418-.418V152.059A.419.419,0,0,1,200.373,151.641Z" transform="translate(-185.55 -147.865)" fill="#72d561" fill-rule="evenodd"/>
          <path id="Trazado_1179338" data-name="Trazado 1179338" d="M274.986,112.529h3.289a.419.419,0,0,1,.418.418v17.536a.419.419,0,0,1-.418.418h-3.289a.419.419,0,0,1-.418-.418V112.947A.419.419,0,0,1,274.986,112.529Z" transform="translate(-252.96 -112.529)" fill="#64b5f6" fill-rule="evenodd"/>
        </g>
        <g id="Grupo_1223979" data-name="Grupo 1223979" transform="translate(18.097 20.771)">
          <path id="Trazado_1179339" data-name="Trazado 1179339" d="M200.878,247.512a.926.926,0,0,0-.924.924v22.815a.926.926,0,0,0,.924.924h27.069a.926.926,0,0,0,.924-.924V248.436a.926.926,0,0,0-.924-.924Z" transform="translate(-199.954 -245.259)" fill="#ffda2d" fill-rule="evenodd"/>
          <path id="Trazado_1179340" data-name="Trazado 1179340" d="M230.186,340.543h-2.315a.407.407,0,0,1-.406-.406v-2.315a.407.407,0,0,1,.406-.406h2.315a.407.407,0,0,1,.406.406v2.315A.407.407,0,0,1,230.186,340.543Zm5.12-5.488h-2.315a.407.407,0,0,1-.406-.406v-2.315a.407.407,0,0,1,.406-.406h2.315a.407.407,0,0,1,.406.406v2.315A.407.407,0,0,1,235.306,335.055Zm-5.12,0h-2.315a.407.407,0,0,1-.406-.406v-2.315a.407.407,0,0,1,.406-.406h2.315a.407.407,0,0,1,.406.406v2.315A.407.407,0,0,1,230.186,335.055Zm20.479-5.488h-2.315a.407.407,0,0,1-.406-.406v-2.315a.407.407,0,0,1,.406-.406h2.315a.407.407,0,0,1,.406.406v2.315A.407.407,0,0,1,250.666,329.566Zm-5.12,0h-2.315a.407.407,0,0,1-.406-.406v-2.315a.407.407,0,0,1,.406-.406h2.315a.407.407,0,0,1,.406.406v2.315A.407.407,0,0,1,245.546,329.566Zm-5.12,0h-2.315a.407.407,0,0,1-.406-.406v-2.315a.407.407,0,0,1,.406-.406h2.315a.407.407,0,0,1,.406.406v2.315A.407.407,0,0,1,240.426,329.566Zm-5.12,0h-2.315a.407.407,0,0,1-.406-.406v-2.315a.407.407,0,0,1,.406-.406h2.315a.407.407,0,0,1,.406.406v2.315A.407.407,0,0,1,235.306,329.566Zm-5.12,0h-2.315a.407.407,0,0,1-.406-.406v-2.315a.407.407,0,0,1,.406-.406h2.315a.407.407,0,0,1,.406.406v2.315A.407.407,0,0,1,230.186,329.566Z" transform="translate(-224.81 -316.568)" fill="#64b5f6" fill-rule="evenodd"/>
          <path id="Trazado_1179341" data-name="Trazado 1179341" d="M283.225,391.91H280.91a.407.407,0,0,1-.406-.406v-2.315a.407.407,0,0,1,.406-.406h2.315a.407.407,0,0,1,.406.406V391.5A.407.407,0,0,1,283.225,391.91Zm10.24,0H291.15a.407.407,0,0,1-.406-.406v-2.315a.407.407,0,0,1,.406-.406h2.315a.407.407,0,0,1,.406.406V391.5A.407.407,0,0,1,293.464,391.91Zm-5.12,0H286.03a.407.407,0,0,1-.406-.406v-2.315a.407.407,0,0,1,.406-.406h2.315a.407.407,0,0,1,.406.406V391.5A.407.407,0,0,1,288.344,391.91Zm5.12-5.488H291.15a.407.407,0,0,1-.406-.406V383.7a.407.407,0,0,1,.406-.406h2.315a.407.407,0,0,1,.406.406v2.315A.407.407,0,0,1,293.464,386.421Zm-5.12,0H286.03a.407.407,0,0,1-.406-.406V383.7a.407.407,0,0,1,.406-.406h2.315a.407.407,0,0,1,.406.406v2.315A.407.407,0,0,1,288.344,386.421Zm10.24,0h-2.315a.407.407,0,0,1-.406-.406V383.7a.407.407,0,0,1,.406-.406h2.315a.407.407,0,0,1,.406.406v2.315A.407.407,0,0,1,298.584,386.421Zm0,5.488h-2.315a.407.407,0,0,1-.406-.406v-2.315a.407.407,0,0,1,.406-.406h2.315a.407.407,0,0,1,.406.406V391.5A.407.407,0,0,1,298.584,391.91Z" transform="translate(-272.728 -367.935)" fill="#fc685b" fill-rule="evenodd"/>
          <path id="Trazado_1179342" data-name="Trazado 1179342" d="M199.954,252.19h28.917v-3.755a.926.926,0,0,0-.924-.924h-27.07a.926.926,0,0,0-.924.924Z" transform="translate(-199.954 -245.258)" fill="#fdb800" fill-rule="evenodd"/>
          <path id="Trazado_1179343" data-name="Trazado 1179343" d="M229.783,224.173h1.21a.58.58,0,0,1,.578.578v3.35a.58.58,0,0,1-.578.578h-1.21a.58.58,0,0,1-.578-.578v-3.35A.58.58,0,0,1,229.783,224.173Zm20.9,0h1.21a.58.58,0,0,1,.578.578v3.35a.58.58,0,0,1-.578.578h-1.21a.58.58,0,0,1-.578-.578v-3.35A.58.58,0,0,1,250.686,224.173Zm-6.968,0h1.21a.58.58,0,0,1,.578.578v3.35a.58.58,0,0,1-.578.578h-1.21a.58.58,0,0,1-.578-.578v-3.35A.58.58,0,0,1,243.719,224.173Zm-6.968,0h1.21a.58.58,0,0,1,.578.578v3.35a.58.58,0,0,1-.578.578h-1.21a.58.58,0,0,1-.578-.578v-3.35A.58.58,0,0,1,236.751,224.173Z" transform="translate(-226.381 -224.173)" fill="#b4d2d7" fill-rule="evenodd"/>
        </g>
      </g>
      <path id="Trazado_1179344" data-name="Trazado 1179344" d="M43.724,44.164H42.143v1.582h1.581Zm1.545-.772v3.126a.772.772,0,0,1-.772.773H41.371a.772.772,0,0,1-.772-.773V43.392a.772.772,0,0,1,.772-.772H44.5A.772.772,0,0,1,45.269,43.392Zm-6.664.772H37.023v1.582h1.582Zm1.545-.772v3.126a.773.773,0,0,1-.773.773H36.251a.772.772,0,0,1-.772-.773V43.392a.772.772,0,0,1,.772-.772h3.126A.773.773,0,0,1,40.15,43.392Zm-6.664.772H31.9v1.582h1.582Zm1.544-.772v3.126a.772.772,0,0,1-.772.773H31.131a.772.772,0,0,1-.772-.773V43.392a.772.772,0,0,1,.772-.772h3.127A.772.772,0,0,1,35.03,43.392Zm-6.664.772H26.783v1.582h1.582Zm1.545-.772v3.126a.772.772,0,0,1-.772.773H26.011a.773.773,0,0,1-.772-.773V43.392a.773.773,0,0,1,.772-.772h3.126A.772.772,0,0,1,29.91,43.392Zm13.815-4.716H42.143v1.581h1.581Zm1.545-.772V41.03a.772.772,0,0,1-.772.772H41.371a.772.772,0,0,1-.772-.772V37.9a.772.772,0,0,1,.772-.773H44.5A.772.772,0,0,1,45.269,37.9Zm-6.664.772H37.023v1.581h1.582ZM40.15,37.9V41.03a.773.773,0,0,1-.773.772H36.251a.772.772,0,0,1-.772-.772V37.9a.772.772,0,0,1,.772-.773h3.126A.773.773,0,0,1,40.15,37.9Zm-6.664.772H31.9v1.581h1.582ZM35.03,37.9V41.03a.772.772,0,0,1-.772.772H31.131a.772.772,0,0,1-.772-.772V37.9a.772.772,0,0,1,.772-.773h3.127A.772.772,0,0,1,35.03,37.9Zm-6.664.772H26.783v1.581h1.582ZM29.91,37.9V41.03a.772.772,0,0,1-.772.772H26.011a.772.772,0,0,1-.772-.772V37.9a.773.773,0,0,1,.772-.773h3.126A.772.772,0,0,1,29.91,37.9Zm18.935-4.717H47.262V34.77h1.582Zm1.545-.773v3.126a.772.772,0,0,1-.772.773H46.49a.773.773,0,0,1-.773-.773V32.415a.773.773,0,0,1,.773-.772h3.126A.772.772,0,0,1,50.389,32.415Zm-1.545,6.261H47.262v1.581h1.582Zm1.545-.772V41.03a.772.772,0,0,1-.772.772H46.49a.773.773,0,0,1-.773-.772V37.9a.773.773,0,0,1,.773-.773h3.126A.772.772,0,0,1,50.389,37.9Zm-6.665-4.717H42.143V34.77h1.581Zm1.545-.773v3.126a.773.773,0,0,1-.772.773H41.371a.773.773,0,0,1-.772-.773V32.415a.772.772,0,0,1,.772-.772H44.5A.772.772,0,0,1,45.269,32.415Zm-6.664.773H37.023V34.77h1.582Zm1.545-.773v3.126a.774.774,0,0,1-.773.773H36.251a.773.773,0,0,1-.772-.773V32.415a.772.772,0,0,1,.772-.772h3.126A.773.773,0,0,1,40.15,32.415Zm-6.664.773H31.9V34.77h1.582Zm1.544-.773v3.126a.773.773,0,0,1-.772.773H31.131a.773.773,0,0,1-.772-.773V32.415a.772.772,0,0,1,.772-.772h3.127A.772.772,0,0,1,35.03,32.415ZM48.844,44.164H47.262v1.582h1.582Zm1.545-.772v3.126a.772.772,0,0,1-.772.773H46.49a.773.773,0,0,1-.773-.773V43.392a.773.773,0,0,1,.773-.772h3.126A.772.772,0,0,1,50.389,43.392Zm-22.024-10.2H26.783V34.77h1.582Zm1.545-.773v3.126a.772.772,0,0,1-.772.773H26.011a.773.773,0,0,1-.772-.773V32.415a.772.772,0,0,1,.772-.772h3.126A.772.772,0,0,1,29.91,32.415ZM51.5,48.535a.154.154,0,0,1-.152.152H24.279a.154.154,0,0,1-.152-.152V30.247H51.5ZM22.583,46.624H6.887a.858.858,0,0,1-.856-.856V10.985h6.2a2.244,2.244,0,0,0,2.241-2.242v-6.2H36.746A.856.856,0,0,1,37.6,3.4V24.024H36.286v-.9a1.353,1.353,0,0,0-.831-1.246V11.766a.772.772,0,0,0-.772-.772H30.558a.772.772,0,0,0-.773.772V24.024h-.468v-.9a1.353,1.353,0,0,0-1.066-1.32v-6.26a.772.772,0,0,0-.773-.773H23.355a.772.772,0,0,0-.772.773V34.236H14.936a.772.772,0,0,0,0,1.545h7.646V38H14.936a.772.772,0,0,0,0,1.545h7.646v2.214H14.936a.772.772,0,0,0,0,1.545h7.646v3.326ZM7.123,9.441H12.23a.7.7,0,0,0,.7-.7V3.636Zm26.787,3.1H31.331V24.024h1.044v-.9a1.353,1.353,0,0,1,1.35-1.351h.185Zm.009,10.777v2.962h.822V23.315Zm-7.211-7h-2.58v7.718c.05,0,.1-.008.152-.008h1.127v-.9a1.351,1.351,0,0,1,1.3-1.347v-5.46Zm.243,7v2.962h.823V23.315Zm12.391,3.156v-.9H36.286v.9a1.351,1.351,0,0,1-1.351,1.351h-1.21a1.351,1.351,0,0,1-1.35-1.351v-.9H29.318v.9a1.352,1.352,0,0,1-1.351,1.351h-1.21a1.352,1.352,0,0,1-1.351-1.351v-.9H24.279a.153.153,0,0,0-.152.152V28.7H51.5V25.72a.153.153,0,0,0-.152-.152H50.221v.9a1.351,1.351,0,0,1-1.35,1.351H47.66a1.352,1.352,0,0,1-1.35-1.351v-.9H43.253v.9a1.351,1.351,0,0,1-1.35,1.351h-1.21a1.352,1.352,0,0,1-1.351-1.351Zm1.545-.194V23.315h.822v2.962Zm6.968,0V23.315h.823v2.962Zm5.19-.557V48.535a1.7,1.7,0,0,1-1.7,1.7H24.279a1.7,1.7,0,0,1-1.7-1.7v-.367H6.887a2.4,2.4,0,0,1-2.4-2.4V10.888a2.348,2.348,0,0,1,.7-1.7L12.677,1.7a2.351,2.351,0,0,1,1.7-.7H36.746a2.4,2.4,0,0,1,2.4,2.4V24.024h.2v-.9a1.353,1.353,0,0,1,1.351-1.351H41.9a1.352,1.352,0,0,1,1.35,1.351v.9H46.31v-.9a1.353,1.353,0,0,1,1.35-1.351h1.211a1.352,1.352,0,0,1,1.35,1.351v.9h1.128a1.7,1.7,0,0,1,1.7,1.7ZM11.358,38H9.478a.772.772,0,0,0,0,1.545h1.88a.772.772,0,1,0,0-1.545Zm0-3.759H9.478a.772.772,0,0,0,0,1.545h1.88a.772.772,0,1,0,0-1.545Zm0,7.518H9.478a.772.772,0,0,0,0,1.545h1.88a.772.772,0,1,0,0-1.545ZM12.3,23.865H9.722v5.5H12.3Zm1.545-.772a.772.772,0,0,0-.772-.773H8.949a.772.772,0,0,0-.772.773v7.046a.772.772,0,0,0,.772.772h4.125a.772.772,0,0,0,.772-.772V23.093Zm5.658-3H16.925v9.277H19.5Zm1.545-.772a.772.772,0,0,0-.772-.772H16.153a.772.772,0,0,0-.773.772V30.139a.772.772,0,0,0,.773.772h4.124a.772.772,0,0,0,.772-.772ZM10.411,18.04a.773.773,0,0,0,1.055.283L29.232,8.065l-.518,1.523a.772.772,0,1,0,1.462.5l1.18-3.467a.773.773,0,0,0-.581-1.007L27.182,4.9a.772.772,0,0,0-.3,1.515l1.578.312L10.694,16.985A.772.772,0,0,0,10.411,18.04Z" fill-rule="evenodd"/>
    </g>
  </g>
</svg>
