<svg xmlns="http://www.w3.org/2000/svg" xmlns:xlink="http://www.w3.org/1999/xlink" width="113" height="113" viewBox="0 0 113 113">
  <defs>
    <filter id="Trazado_982547" x="0" y="0" width="113" height="113" filterUnits="userSpaceOnUse">
      <feOffset dy="3" input="SourceAlpha"/>
      <feGaussianBlur stdDeviation="3" result="blur"/>
      <feFlood flood-opacity="0.161"/>
      <feComposite operator="in" in2="blur"/>
      <feComposite in="SourceGraphic"/>
    </filter>
    <clipPath id="clip-path">
      <path id="path3744" d="M0-682.665H74.346v74.346H0Z" transform="translate(0 682.665)"/>
    </clipPath>
  </defs>
  <g id="Grupo_1223675" data-name="Grupo 1223675" transform="translate(-4770.98 -4575.069)">
    <g id="Grupo_1223673" data-name="Grupo 1223673">
      <g id="Grupo_1223185" data-name="Grupo 1223185" transform="translate(4779.98 4581.069)">
        <g id="Grupo_1211217" data-name="Grupo 1211217" transform="translate(0)">
          <g id="Grupo_1210736" data-name="Grupo 1210736">
            <g id="Grupo_1210537" data-name="Grupo 1210537">
              <g id="Grupo_1164202" data-name="Grupo 1164202">
                <g id="Grupo_1158168" data-name="Grupo 1158168">
                  <g id="Grupo_1152576" data-name="Grupo 1152576">
                    <g id="Grupo_1148633" data-name="Grupo 1148633">
                      <g id="Grupo_1148525" data-name="Grupo 1148525">
                        <g transform="matrix(1, 0, 0, 1, -9, -6)" filter="url(#Trazado_982547)">
                          <g id="Trazado_982547-2" data-name="Trazado 982547" transform="translate(9 6)" fill="#fcf5f0">
                            <path d="M 47.49999618530273 93.5 C 41.28936767578125 93.5 35.26533126831055 92.28396606445312 29.59518241882324 89.88570404052734 C 24.11771583557129 87.56893157958984 19.19812965393066 84.251953125 14.97308921813965 80.02690124511719 C 10.74803638458252 75.80186462402344 7.431062698364258 70.88227844238281 5.114289283752441 65.40480804443359 C 2.716022968292236 59.73466110229492 1.499996185302734 53.71062469482422 1.499996185302734 47.49999618530273 C 1.499996185302734 41.28936767578125 2.716022968292236 35.26533126831055 5.114289283752441 29.59518241882324 C 7.431062698364258 24.11771583557129 10.74803638458252 19.19812965393066 14.97308921813965 14.97308921813965 C 19.19812965393066 10.74803638458252 24.11771583557129 7.431062698364258 29.59518241882324 5.114289283752441 C 35.26533126831055 2.716022968292236 41.28936767578125 1.499996185302734 47.49999618530273 1.499996185302734 C 53.71062469482422 1.499996185302734 59.73466110229492 2.716022968292236 65.40480804443359 5.114289283752441 C 70.88227844238281 7.431062698364258 75.80186462402344 10.74803638458252 80.02690124511719 14.97308921813965 C 84.251953125 19.19812965393066 87.56893157958984 24.11771583557129 89.88570404052734 29.59518241882324 C 92.28396606445312 35.26533126831055 93.5 41.28936767578125 93.5 47.49999618530273 C 93.5 53.71062469482422 92.28396606445312 59.73466110229492 89.88570404052734 65.40480804443359 C 87.56893157958984 70.88227844238281 84.251953125 75.80186462402344 80.02690124511719 80.02690124511719 C 75.80186462402344 84.251953125 70.88227844238281 87.56893157958984 65.40480804443359 89.88570404052734 C 59.73466110229492 92.28396606445312 53.71062469482422 93.5 47.49999618530273 93.5 Z" stroke="none"/>
                            <path d="M 47.49999618530273 2.999992370605469 C 41.4912109375 2.999992370605469 35.66376495361328 4.1761474609375 30.17950439453125 6.495796203613281 C 24.88084411621094 8.736953735351562 20.12152099609375 11.94598388671875 16.03375244140625 16.03375244140625 C 11.94598388671875 20.12152099609375 8.736953735351562 24.88084411621094 6.495796203613281 30.17950439453125 C 4.1761474609375 35.66376495361328 2.999992370605469 41.4912109375 2.999992370605469 47.49999618530273 C 2.999992370605469 53.50878143310547 4.1761474609375 59.33622741699219 6.495796203613281 64.82048797607422 C 8.736953735351562 70.11914825439453 11.94598388671875 74.87847137451172 16.03375244140625 78.96623992919922 C 20.12152099609375 83.05400848388672 24.88084411621094 86.26304626464844 30.17950439453125 88.50419616699219 C 35.66376495361328 90.82384490966797 41.4912109375 92 47.49999618530273 92 C 53.50878143310547 92 59.33622741699219 90.82384490966797 64.82048797607422 88.50419616699219 C 70.11914825439453 86.26304626464844 74.87847137451172 83.05400848388672 78.96623992919922 78.96623992919922 C 83.05400848388672 74.87847137451172 86.26304626464844 70.11914825439453 88.50419616699219 64.82048797607422 C 90.82384490966797 59.33622741699219 92 53.50878143310547 92 47.49999618530273 C 92 41.4912109375 90.82384490966797 35.66376495361328 88.50419616699219 30.17950439453125 C 86.26304626464844 24.88084411621094 83.05400848388672 20.12152099609375 78.96623992919922 16.03375244140625 C 74.87847137451172 11.94598388671875 70.11914825439453 8.736953735351562 64.82048797607422 6.495796203613281 C 59.33622741699219 4.1761474609375 53.50878143310547 2.999992370605469 47.49999618530273 2.999992370605469 M 47.49999618530273 -7.62939453125e-06 C 73.7335205078125 -7.62939453125e-06 95 21.26647186279297 95 47.49999618530273 C 95 73.7335205078125 73.7335205078125 95 47.49999618530273 95 C 21.26647186279297 95 -7.62939453125e-06 73.7335205078125 -7.62939453125e-06 47.49999618530273 C -7.62939453125e-06 21.26647186279297 21.26647186279297 -7.62939453125e-06 47.49999618530273 -7.62939453125e-06 Z" stroke="none" fill="#eca675"/>
                          </g>
                        </g>
                      </g>
                    </g>
                  </g>
                </g>
              </g>
            </g>
          </g>
        </g>
      </g>
    </g>
    <g id="g3738" transform="translate(4790.308 5274.061)">
      <g id="g3740" transform="translate(0 -682.665)">
        <g id="g3742" clip-path="url(#clip-path)">
          <g id="g3748" transform="translate(34.238 5.859)">
            <path id="path3750" d="M-34.313,0h0a4.206,4.206,0,0,1,4.194,4.194v8.646a4.206,4.206,0,0,1-4.194,4.194,4.206,4.206,0,0,1-4.194-4.194V4.194A4.206,4.206,0,0,1-34.313,0" transform="translate(38.507 0)" fill="#e1ac9a"/>
          </g>
          <g id="g3752" transform="translate(26.83 27.478)">
            <path id="path3754" d="M-185.031,0l-22.614,22.614a20.243,20.243,0,0,0,14.851,5.933,5.361,5.361,0,0,1,3.934,1.558l4.9,4.9,16.963-16.963Z" transform="translate(207.645)" fill="#e7beaf"/>
          </g>
          <g id="g3756" transform="translate(26.83 44.437)">
            <path id="path3758" d="M-155.818-48.418a20.234,20.234,0,0,1-13.389-5.917l-5.654,5.654a20.243,20.243,0,0,0,14.841,5.933,5.375,5.375,0,0,1,3.944,1.558l4.9,4.9,5.654-5.654-3.371-3.371a10.525,10.525,0,0,0-6.928-3.105" transform="translate(174.861 54.336)" fill="#e1ac9a"/>
          </g>
          <g id="g3760" transform="translate(44.756 39.746)">
            <path id="path3762" d="M-4.791-189.854l4.712,4.712a2,2,0,0,0,2.827,0l19.79-19.79a2,2,0,0,0,0-2.827l-4.712-4.712a2,2,0,0,0-2.827,0l-19.79,19.79a2,2,0,0,0,0,2.827" transform="translate(5.377 213.056)" fill="#a4e7ff"/>
          </g>
          <g id="g3764" transform="translate(44.756 53.054)">
            <path id="path3766" d="M-62.623-23.133l4.712,4.712a2,2,0,0,0,2.827,0l-7.068,7.068a2,2,0,0,1-2.827,0l-4.712-4.712a2,2,0,0,1,0-2.827l7.068-7.068a2,2,0,0,0,0,2.827" transform="translate(70.277 25.96)" fill="#5ad6ff"/>
          </g>
          <g id="g3768" transform="translate(6.865 7.192)">
            <path id="path3770" d="M-213.533-55.681h0a4,4,0,0,1,0,5.654l11.25-11.25a4.052,4.052,0,0,1,5.633-.137,4,4,0,0,1,.081,5.733l2.768-2.768a4.052,4.052,0,0,1,5.633-.137,4,4,0,0,1,.081,5.733l-3.77,3.77a4,4,0,0,1,5.733.081,4.052,4.052,0,0,1-.137,5.633l-3.77,3.77a4.052,4.052,0,0,1,5.633-.137,4,4,0,0,1,.08,5.733l-14.66,14.66a20.243,20.243,0,0,1-14.841,5.933,5.375,5.375,0,0,0-3.944,1.558l-4.9,4.9L-239.63-23.915l4.841-4.841a5.385,5.385,0,0,0,1.557-3.982,19.934,19.934,0,0,1,5.846-14.744l8.2-8.2a4,4,0,0,1,5.654,0" transform="translate(239.63 62.486)" fill="#ffeee5"/>
          </g>
          <g id="g3772" transform="translate(8.003 25.268)">
            <path id="path3774" d="M-94.687-94.687h0a4.206,4.206,0,0,1-5.931,0l-4.418-4.418a4.206,4.206,0,0,1,0-5.931,4.206,4.206,0,0,1,5.931,0l4.418,4.418a4.206,4.206,0,0,1,0,5.931" transform="translate(106.26 106.26)" fill="#e7beaf"/>
          </g>
          <g id="g3776" transform="translate(13.65 19.053)">
            <path id="path3778" d="M-119.965-119.965h0a4.206,4.206,0,0,1-5.931,0l-7.508-7.508a4.206,4.206,0,0,1,0-5.931,4.206,4.206,0,0,1,5.931,0l7.508,7.508a4.206,4.206,0,0,1,0,5.931" transform="translate(134.626 134.626)" fill="#e7beaf"/>
          </g>
          <g id="g3780" transform="translate(19.58 13.122)">
            <path id="path3782" d="M-139.8-139.8h0a4.206,4.206,0,0,1-5.931,0l-9.932-9.932a4.206,4.206,0,0,1,0-5.931,4.206,4.206,0,0,1,5.931,0l9.932,9.932a4.206,4.206,0,0,1,0,5.931" transform="translate(156.885 156.885)" fill="#e7beaf"/>
          </g>
          <g id="g3784" transform="translate(25.511 7.192)">
            <path id="path3786" d="M-108.556-108.556h0a4.206,4.206,0,0,1-5.931,0l-6.113-6.113a4.206,4.206,0,0,1,0-5.931,4.206,4.206,0,0,1,5.931,0l6.113,6.113a4.206,4.206,0,0,1,0,5.931" transform="translate(121.824 121.824)" fill="#e7beaf"/>
          </g>
          <g id="g3788" transform="translate(18.174 28.867)">
            <path id="path3790" d="M-313.294-9.9-327.9,4.7a20.232,20.232,0,0,1-13.389,5.917,10.525,10.525,0,0,0-6.928,3.105l-3.371,3.371,5.654,5.654,4.9-4.9a5.376,5.376,0,0,1,3.944-1.558,20.243,20.243,0,0,0,14.841-5.933l14.66-14.66a4,4,0,0,0-.081-5.733,4.052,4.052,0,0,0-5.633.137" transform="translate(351.583 11.106)" fill="#ffdecf"/>
          </g>
          <g id="g3792" transform="translate(1.089 39.986)">
            <path id="path3794" d="M-228.408-189.854l-4.712,4.712a2,2,0,0,1-2.827,0l-19.79-19.79a2,2,0,0,1,0-2.827l4.712-4.712a2,2,0,0,1,2.827,0l19.79,19.79a2,2,0,0,1,0,2.827" transform="translate(256.323 213.056)" fill="#ff938a"/>
          </g>
          <g id="g3796" transform="translate(14.397 53.294)">
            <path id="path3798" d="M-61.687-23.133-66.4-18.421a2,2,0,0,1-2.827,0l7.068,7.068a2,2,0,0,0,2.827,0l4.712-4.712a2,2,0,0,0,0-2.827l-7.068-7.068a2,2,0,0,1,0,2.827" transform="translate(69.226 25.96)" fill="#fb695b"/>
          </g>
          <g id="g3800" transform="translate(34.241 5.859)">
            <path id="path3802" d="M0-32.915a4.207,4.207,0,0,1,4.19-4.023A4.207,4.207,0,0,1,8.38-32.931" transform="translate(0 36.937)" fill="none" stroke="#000" stroke-linecap="round" stroke-linejoin="round" stroke-miterlimit="10" stroke-width="1.5"/>
          </g>
          <g id="g3804" transform="translate(60.03 38.068)">
            <path id="path3806" d="M-29.419-29.431l-3.6-3.6" transform="translate(33.015 33.028)" fill="none" stroke="#000" stroke-linecap="round" stroke-linejoin="round" stroke-miterlimit="10" stroke-width="1.5"/>
          </g>
          <g id="g3808" transform="translate(37.985 55.78)">
            <path id="path3810" d="M0,0A20.323,20.323,0,0,0,3.7.244,5.362,5.362,0,0,1,7.631,1.8L8.72,2.892" fill="none" stroke="#000" stroke-linecap="round" stroke-linejoin="round" stroke-miterlimit="10" stroke-width="1.5"/>
          </g>
          <g id="g3812" transform="translate(44.756 39.746)">
            <path id="path3814" d="M-99.635-71.876l-11.591,11.591a2,2,0,0,0,0,2.827l4.712,4.712a2,2,0,0,0,2.827,0l19.79-19.79a2,2,0,0,0,0-2.827l-4.712-4.712a2,2,0,0,0-2.827,0l-5.119,5.119" transform="translate(111.811 80.661)" fill="none" stroke="#000" stroke-linecap="round" stroke-linejoin="round" stroke-miterlimit="10" stroke-width="1.5"/>
          </g>
          <g id="g3816" transform="translate(10.712 36.651)">
            <path id="path3818" d="M0-43.08l.995-.995a5.385,5.385,0,0,0,1.557-3.982q0-.144-.007-.289" transform="translate(0 48.345)" fill="none" stroke="#000" stroke-linecap="round" stroke-linejoin="round" stroke-miterlimit="10" stroke-width="1.5"/>
          </g>
          <g id="g3820" transform="translate(27.777 7.192)">
            <path id="path3822" d="M-88.354-56.02l5.637-5.637a4.052,4.052,0,0,1,5.633-.137A4,4,0,0,1-77-56.062l2.768-2.768a4.053,4.053,0,0,1,5.633-.137,4,4,0,0,1,.08,5.733l-3.77,3.77a4,4,0,0,1,5.733.08,4.053,4.053,0,0,1-.137,5.633l-3.77,3.77a4.052,4.052,0,0,1,5.633-.137,4,4,0,0,1,.08,5.733l-14.66,14.66a20.243,20.243,0,0,1-14.841,5.933A5.375,5.375,0,0,0-98.2-12.235l-.954.954" transform="translate(99.152 62.867)" fill="none" stroke="#000" stroke-linecap="round" stroke-linejoin="round" stroke-miterlimit="10" stroke-width="1.5"/>
          </g>
          <g id="g3824" transform="translate(8.003 7.192)">
            <path id="path3826" d="M-251.813-60.03l-6.113-6.113a4.206,4.206,0,0,0-5.931,0,4.206,4.206,0,0,0,0,5.931,4.206,4.206,0,0,0-5.931,0,4.206,4.206,0,0,0,0,5.931,4.206,4.206,0,0,0-5.931,0,4.206,4.206,0,0,0,0,5.931l.284.284a4.206,4.206,0,0,0-5.931,0,4.206,4.206,0,0,0,0,5.931l4.418,4.418a4.206,4.206,0,0,0,5.931,0,4.206,4.206,0,0,0,0-5.931l2.805,2.805a4.206,4.206,0,0,0,5.931,0,4.206,4.206,0,0,0,0-5.931l2.424,2.424a4.206,4.206,0,0,0,5.931,0,4.206,4.206,0,0,0,0-5.931l-3.818-3.818a4.206,4.206,0,0,0,5.931,0A4.206,4.206,0,0,0-251.813-60.03Z" transform="translate(282.589 67.366)" fill="none" stroke="#000" stroke-linecap="round" stroke-linejoin="round" stroke-miterlimit="10" stroke-width="1.5"/>
          </g>
          <g id="g3828" transform="translate(1.089 39.986)">
            <path id="path3830" d="M-228.408-189.854l-4.712,4.712a2,2,0,0,1-2.827,0l-19.79-19.79a2,2,0,0,1,0-2.827l4.712-4.712a2,2,0,0,1,2.827,0l19.79,19.79A2,2,0,0,1-228.408-189.854Z" transform="translate(256.323 213.056)" fill="none" stroke="#000" stroke-linecap="round" stroke-linejoin="round" stroke-miterlimit="10" stroke-width="1.5"/>
          </g>
          <g id="g3832" transform="translate(26.734 14.345)">
            <path id="path3834" d="M0,0,6.113,6.113" fill="none" stroke="#000" stroke-linecap="round" stroke-linejoin="round" stroke-miterlimit="10" stroke-width="1.5"/>
          </g>
          <g id="g3836" transform="translate(24.837 24.31)">
            <path id="path3838" d="M0,0,3.474,3.474" fill="none" stroke="#000" stroke-linecap="round" stroke-linejoin="round" stroke-miterlimit="10" stroke-width="1.5"/>
          </g>
          <g id="g3840" transform="translate(20.804 20.276)">
            <path id="path3842" d="M0,0,.953.953" fill="none" stroke="#000" stroke-linecap="round" stroke-linejoin="round" stroke-miterlimit="10" stroke-width="1.5"/>
          </g>
          <g id="g3844" transform="translate(15.157 26.491)">
            <path id="path3846" d="M0,0,4.418,4.418" fill="none" stroke="#000" stroke-linecap="round" stroke-linejoin="round" stroke-miterlimit="10" stroke-width="1.5"/>
          </g>
          <g id="g3848" transform="translate(45.154 13.997)">
            <path id="path3850" d="M-39.035,0l-4.771,4.771" transform="translate(43.805)" fill="none" stroke="#000" stroke-linecap="round" stroke-linejoin="round" stroke-miterlimit="10" stroke-width="1.5"/>
          </g>
          <g id="g3852" transform="translate(50.809 20.593)">
            <path id="path3854" d="M-31.325,0l-3.828,3.828" transform="translate(35.153)" fill="none" stroke="#000" stroke-linecap="round" stroke-linejoin="round" stroke-miterlimit="10" stroke-width="1.5"/>
          </g>
        </g>
      </g>
    </g>
  </g>
</svg>
