<svg xmlns="http://www.w3.org/2000/svg" xmlns:xlink="http://www.w3.org/1999/xlink" width="113" height="113" viewBox="0 0 113 113">
  <defs>
    <filter id="Trazado_982547" x="0" y="0" width="113" height="113" filterUnits="userSpaceOnUse">
      <feOffset dy="3" input="SourceAlpha"/>
      <feGaussianBlur stdDeviation="3" result="blur"/>
      <feFlood flood-opacity="0.161"/>
      <feComposite operator="in" in2="blur"/>
      <feComposite in="SourceGraphic"/>
    </filter>
    <clipPath id="clip-path">
      <path id="path1071" d="M0-682.665H65.972v65.972H0Z" transform="translate(0 682.665)"/>
    </clipPath>
  </defs>
  <g id="Grupo_1223830" data-name="Grupo 1223830" transform="translate(-1769.49 -5381.547)">
    <g id="Grupo_1223746" data-name="Grupo 1223746" transform="translate(657 1532.837)">
      <g id="Grupo_1223177" data-name="Grupo 1223177" transform="translate(1121.49 3854.71)">
        <g id="Grupo_1211216" data-name="Grupo 1211216" transform="translate(0)">
          <g id="Grupo_1210737" data-name="Grupo 1210737">
            <g id="Grupo_1210537" data-name="Grupo 1210537">
              <g id="Grupo_1164202" data-name="Grupo 1164202">
                <g id="Grupo_1158168" data-name="Grupo 1158168">
                  <g id="Grupo_1152576" data-name="Grupo 1152576">
                    <g id="Grupo_1148633" data-name="Grupo 1148633">
                      <g id="Grupo_1148525" data-name="Grupo 1148525">
                        <g transform="matrix(1, 0, 0, 1, -9, -6)" filter="url(#Trazado_982547)">
                          <g id="Trazado_982547-2" data-name="Trazado 982547" transform="translate(9 6)" fill="#fcf5f0">
                            <path d="M 47.49999618530273 93.5 C 41.28936767578125 93.5 35.26533126831055 92.28396606445312 29.59518241882324 89.88570404052734 C 24.11771583557129 87.56893157958984 19.19812965393066 84.251953125 14.97308921813965 80.02690124511719 C 10.74803638458252 75.80186462402344 7.431062698364258 70.88227844238281 5.114289283752441 65.40480804443359 C 2.716022968292236 59.73466110229492 1.499996185302734 53.71062469482422 1.499996185302734 47.49999618530273 C 1.499996185302734 41.28936767578125 2.716022968292236 35.26533126831055 5.114289283752441 29.59518241882324 C 7.431062698364258 24.11771583557129 10.74803638458252 19.19812965393066 14.97308921813965 14.97308921813965 C 19.19812965393066 10.74803638458252 24.11771583557129 7.431062698364258 29.59518241882324 5.114289283752441 C 35.26533126831055 2.716022968292236 41.28936767578125 1.499996185302734 47.49999618530273 1.499996185302734 C 53.71062469482422 1.499996185302734 59.73466110229492 2.716022968292236 65.40480804443359 5.114289283752441 C 70.88227844238281 7.431062698364258 75.80186462402344 10.74803638458252 80.02690124511719 14.97308921813965 C 84.251953125 19.19812965393066 87.56893157958984 24.11771583557129 89.88570404052734 29.59518241882324 C 92.28396606445312 35.26533126831055 93.5 41.28936767578125 93.5 47.49999618530273 C 93.5 53.71062469482422 92.28396606445312 59.73466110229492 89.88570404052734 65.40480804443359 C 87.56893157958984 70.88227844238281 84.251953125 75.80186462402344 80.02690124511719 80.02690124511719 C 75.80186462402344 84.251953125 70.88227844238281 87.56893157958984 65.40480804443359 89.88570404052734 C 59.73466110229492 92.28396606445312 53.71062469482422 93.5 47.49999618530273 93.5 Z" stroke="none"/>
                            <path d="M 47.49999618530273 2.999992370605469 C 41.4912109375 2.999992370605469 35.66376495361328 4.1761474609375 30.17950439453125 6.495796203613281 C 24.88084411621094 8.736953735351562 20.12152099609375 11.94598388671875 16.03375244140625 16.03375244140625 C 11.94598388671875 20.12152099609375 8.736953735351562 24.88084411621094 6.495796203613281 30.17950439453125 C 4.1761474609375 35.66376495361328 2.999992370605469 41.4912109375 2.999992370605469 47.49999618530273 C 2.999992370605469 53.50878143310547 4.1761474609375 59.33622741699219 6.495796203613281 64.82048797607422 C 8.736953735351562 70.11914825439453 11.94598388671875 74.87847137451172 16.03375244140625 78.96623992919922 C 20.12152099609375 83.05400848388672 24.88084411621094 86.26304626464844 30.17950439453125 88.50419616699219 C 35.66376495361328 90.82384490966797 41.4912109375 92 47.49999618530273 92 C 53.50878143310547 92 59.33622741699219 90.82384490966797 64.82048797607422 88.50419616699219 C 70.11914825439453 86.26304626464844 74.87847137451172 83.05400848388672 78.96623992919922 78.96623992919922 C 83.05400848388672 74.87847137451172 86.26304626464844 70.11914825439453 88.50419616699219 64.82048797607422 C 90.82384490966797 59.33622741699219 92 53.50878143310547 92 47.49999618530273 C 92 41.4912109375 90.82384490966797 35.66376495361328 88.50419616699219 30.17950439453125 C 86.26304626464844 24.88084411621094 83.05400848388672 20.12152099609375 78.96623992919922 16.03375244140625 C 74.87847137451172 11.94598388671875 70.11914825439453 8.736953735351562 64.82048797607422 6.495796203613281 C 59.33622741699219 4.1761474609375 53.50878143310547 2.999992370605469 47.49999618530273 2.999992370605469 M 47.49999618530273 -7.62939453125e-06 C 73.7335205078125 -7.62939453125e-06 95 21.26647186279297 95 47.49999618530273 C 95 73.7335205078125 73.7335205078125 95 47.49999618530273 95 C 21.26647186279297 95 -7.62939453125e-06 73.7335205078125 -7.62939453125e-06 47.49999618530273 C -7.62939453125e-06 21.26647186279297 21.26647186279297 -7.62939453125e-06 47.49999618530273 -7.62939453125e-06 Z" stroke="none" fill="#eca675"/>
                          </g>
                        </g>
                      </g>
                    </g>
                  </g>
                </g>
              </g>
            </g>
          </g>
        </g>
      </g>
    </g>
    <g id="g1065" transform="translate(1793.494 6084.726)">
      <g id="g1067" transform="translate(0 -682.665)">
        <g id="g1069" transform="translate(0 0)" clip-path="url(#clip-path)">
          <g id="g1075" transform="translate(22.871 0.966)">
            <path id="path1077" d="M-326.525-163.61a17.484,17.484,0,0,1-17.465,17.5,17.484,17.484,0,0,1-17.465-17.5,17.484,17.484,0,0,1,17.465-17.5,17.484,17.484,0,0,1,17.465,17.5" transform="translate(361.455 181.113)" fill="#ff8ccc"/>
          </g>
          <g id="g1079" transform="translate(37.759 0.966)">
            <path id="path1081" d="M-24.09,0a17.558,17.558,0,0,0-2.577.189A17.5,17.5,0,0,1-11.778,17.5,17.5,17.5,0,0,1-26.667,34.816a17.575,17.575,0,0,0,2.577.189A17.484,17.484,0,0,0-6.624,17.5,17.484,17.484,0,0,0-24.09,0" transform="translate(26.667)" fill="#ff78c2"/>
          </g>
          <g id="g1083" transform="translate(0.966 22.07)">
            <path id="path1085" d="M-326.525-163.61a17.484,17.484,0,0,1-17.465,17.5,17.484,17.484,0,0,1-17.465-17.5,17.484,17.484,0,0,1,17.465-17.5,17.484,17.484,0,0,1,17.465,17.5" transform="translate(361.455 181.113)" fill="#ffd54d"/>
          </g>
          <g id="g1087" transform="translate(15.855 22.069)">
            <path id="path1089" d="M-24.09,0a17.558,17.558,0,0,0-2.577.189A17.5,17.5,0,0,1-11.778,17.5,17.5,17.5,0,0,1-26.667,34.816a17.575,17.575,0,0,0,2.577.189A17.484,17.484,0,0,0-6.624,17.5,17.484,17.484,0,0,0-24.09,0" transform="translate(26.667)" fill="#ffc919"/>
          </g>
          <g id="g1091" transform="translate(30.075 30)">
            <path id="path1093" d="M-326.525-163.61a17.484,17.484,0,0,1-17.465,17.5,17.484,17.484,0,0,1-17.465-17.5,17.484,17.484,0,0,1,17.465-17.5,17.484,17.484,0,0,1,17.465,17.5" transform="translate(361.455 181.113)" fill="#a6f5cf"/>
          </g>
          <g id="g1095" transform="translate(44.963 30)">
            <path id="path1097" d="M-24.09,0a17.557,17.557,0,0,0-2.577.189A17.5,17.5,0,0,1-11.778,17.5,17.5,17.5,0,0,1-26.667,34.816a17.574,17.574,0,0,0,2.577.189A17.484,17.484,0,0,0-6.624,17.5,17.484,17.484,0,0,0-24.09,0" transform="translate(26.667)" fill="#8aedbd"/>
          </g>
          <g id="g1099" transform="translate(22.871 0.966)">
            <path id="path1101" d="M-5.015-204.012a17.574,17.574,0,0,1-.537-4.322,17.484,17.484,0,0,1,17.465-17.5,17.484,17.484,0,0,1,17.465,17.5,17.466,17.466,0,0,1-5.061,12.321" transform="translate(5.552 225.837)" fill="none" stroke="#000" stroke-linecap="round" stroke-linejoin="round" stroke-miterlimit="10" stroke-width="1"/>
          </g>
          <g id="g1103" transform="translate(33.906 21.978)">
            <path id="path1105" d="M-120.217-24.972a9.075,9.075,0,0,0-12.86,0" transform="translate(133.077 27.643)" fill="none" stroke="#000" stroke-linecap="round" stroke-linejoin="round" stroke-miterlimit="10" stroke-width="1"/>
          </g>
          <g id="g1107" transform="translate(32.215 13.358)">
            <path id="path1109" d="M0,0,4.977,2.86" fill="none" stroke="#000" stroke-linecap="round" stroke-linejoin="round" stroke-miterlimit="10" stroke-width="1"/>
          </g>
          <g id="g1111" transform="translate(43.48 13.358)">
            <path id="path1113" d="M-46.524,0-51.5,2.86" transform="translate(51.501)" fill="none" stroke="#000" stroke-linecap="round" stroke-linejoin="round" stroke-miterlimit="10" stroke-width="1"/>
          </g>
          <g id="g1115" transform="translate(8.358 22.07)">
            <path id="path1117" d="M0-29.943a17.36,17.36,0,0,1,10.074-3.2A17.479,17.479,0,0,1,26.943-20.2" transform="translate(0 33.147)" fill="none" stroke="#000" stroke-linecap="round" stroke-linejoin="round" stroke-miterlimit="10" stroke-width="1"/>
          </g>
          <g id="g1119" transform="translate(0.966 28.748)">
            <path id="path1121" d="M-275.812-219.7a17.386,17.386,0,0,1-12.04,4.824,17.484,17.484,0,0,1-17.465-17.5,17.452,17.452,0,0,1,3.739-10.824" transform="translate(305.318 243.205)" fill="none" stroke="#000" stroke-linecap="round" stroke-linejoin="round" stroke-miterlimit="10" stroke-width="1"/>
          </g>
          <g id="g1123" transform="translate(11.594 34.697)">
            <path id="path1125" d="M-8.726-18.067a.967.967,0,0,0,0-1.933.967.967,0,0,0,0,1.933" transform="translate(9.659 20)"/>
          </g>
          <g id="g1127" transform="translate(23.402 34.697)">
            <path id="path1129" d="M-8.726-18.067a.967.967,0,0,0,0-1.933.967.967,0,0,0,0,1.933" transform="translate(9.66 20)"/>
          </g>
          <g id="g1131" transform="translate(12.528 45.242)">
            <path id="path1133" d="M0,0H11.808" fill="none" stroke="#000" stroke-linecap="round" stroke-linejoin="round" stroke-miterlimit="10" stroke-width="1"/>
          </g>
          <g id="g1135" transform="translate(30.075 30)">
            <path id="path1137" d="M-280.087-277.9a17.4,17.4,0,0,1-12.5,5.276,17.484,17.484,0,0,1-17.465-17.5,17.484,17.484,0,0,1,17.465-17.5,17.484,17.484,0,0,1,17.465,17.5,17.451,17.451,0,0,1-2.281,8.654" transform="translate(310.05 307.63)" fill="none" stroke="#000" stroke-linecap="round" stroke-linejoin="round" stroke-miterlimit="10" stroke-width="1"/>
          </g>
          <g id="g1139" transform="translate(38.664 42.175)">
            <path id="path1141" d="M0-27.181a2.9,2.9,0,0,1,2.9-2.908,2.9,2.9,0,0,1,2.9,2.908" transform="translate(0 30.089)" fill="none" stroke="#000" stroke-linecap="round" stroke-linejoin="round" stroke-miterlimit="10" stroke-width="1"/>
          </g>
          <g id="g1143" transform="translate(50.367 42.175)">
            <path id="path1145" d="M0-27.181a2.9,2.9,0,0,1,2.9-2.908,2.9,2.9,0,0,1,2.9,2.908" transform="translate(0 30.089)" fill="none" stroke="#000" stroke-linecap="round" stroke-linejoin="round" stroke-miterlimit="10" stroke-width="1"/>
          </g>
          <g id="g1147" transform="translate(41.11 53.12)">
            <path id="path1149" d="M0,0A9.075,9.075,0,0,0,12.86,0" fill="none" stroke="#000" stroke-linecap="round" stroke-linejoin="round" stroke-miterlimit="10" stroke-width="1"/>
          </g>
          <g id="g1151" transform="translate(59.405 29.261)">
            <path id="path1153" d="M0,0A18.514,18.514,0,0,1,4.851,4.4" fill="none" stroke="#000" stroke-linecap="round" stroke-linejoin="round" stroke-miterlimit="10" stroke-width="1"/>
          </g>
          <g id="g1155" transform="translate(63.058 27.854)">
            <path id="path1157" d="M0,0A13.726,13.726,0,0,1,1.948,1.788" fill="none" stroke="#000" stroke-linecap="round" stroke-linejoin="round" stroke-miterlimit="10" stroke-width="1"/>
          </g>
          <g id="g1159" transform="translate(3.373 55.644)">
            <path id="path1161" d="M-50.111-35.208a14.338,14.338,0,0,1-5.361-3.766" transform="translate(55.472 38.975)" fill="none" stroke="#000" stroke-linecap="round" stroke-linejoin="round" stroke-miterlimit="10" stroke-width="1"/>
          </g>
          <g id="g1163" transform="translate(3.13 59.729)">
            <path id="path1165" d="M-20.144-14.325A13.722,13.722,0,0,1-22.3-15.857" transform="translate(22.299 15.857)" fill="none" stroke="#000" stroke-linecap="round" stroke-linejoin="round" stroke-miterlimit="10" stroke-width="1"/>
          </g>
          <g id="g1167" transform="translate(20.569 3.687)">
            <path id="path1169" d="M0-50.111a14.338,14.338,0,0,1,3.766-5.361" transform="translate(0 55.472)" fill="none" stroke="#000" stroke-linecap="round" stroke-linejoin="round" stroke-miterlimit="10" stroke-width="1"/>
          </g>
          <g id="g1171" transform="translate(18.718 3.443)">
            <path id="path1173" d="M0-20.144A13.722,13.722,0,0,1,1.532-22.3" transform="translate(0 22.299)" fill="none" stroke="#000" stroke-linecap="round" stroke-linejoin="round" stroke-miterlimit="10" stroke-width="1"/>
          </g>
        </g>
      </g>
    </g>
  </g>
</svg>
