<svg xmlns="http://www.w3.org/2000/svg" xmlns:xlink="http://www.w3.org/1999/xlink" width="113" height="113" viewBox="0 0 113 113">
  <defs>
    <filter id="Trazado_982547" x="0" y="0" width="113" height="113" filterUnits="userSpaceOnUse">
      <feOffset dy="3" input="SourceAlpha"/>
      <feGaussianBlur stdDeviation="3" result="blur"/>
      <feFlood flood-opacity="0.161"/>
      <feComposite operator="in" in2="blur"/>
      <feComposite in="SourceGraphic"/>
    </filter>
    <clipPath id="clip-path">
      <path id="path4017" d="M0-682.665H64.681v64.681H0Z" transform="translate(0 682.665)"/>
    </clipPath>
  </defs>
  <g id="Grupo_1223674" data-name="Grupo 1223674" transform="translate(-5111.98 -4575.069)">
    <g id="Grupo_1223186" data-name="Grupo 1223186" transform="translate(5120.98 4581.069)">
      <g id="Grupo_1211217" data-name="Grupo 1211217" transform="translate(0)">
        <g id="Grupo_1210736" data-name="Grupo 1210736">
          <g id="Grupo_1210537" data-name="Grupo 1210537">
            <g id="Grupo_1164202" data-name="Grupo 1164202">
              <g id="Grupo_1158168" data-name="Grupo 1158168">
                <g id="Grupo_1152576" data-name="Grupo 1152576">
                  <g id="Grupo_1148633" data-name="Grupo 1148633">
                    <g id="Grupo_1148525" data-name="Grupo 1148525">
                      <g transform="matrix(1, 0, 0, 1, -9, -6)" filter="url(#Trazado_982547)">
                        <g id="Trazado_982547-2" data-name="Trazado 982547" transform="translate(9 6)" fill="#fcf5f0">
                          <path d="M 47.49999618530273 93.5 C 41.28936767578125 93.5 35.26533126831055 92.28396606445312 29.59518241882324 89.88570404052734 C 24.11771583557129 87.56893157958984 19.19812965393066 84.251953125 14.97308921813965 80.02690124511719 C 10.74803638458252 75.80186462402344 7.431062698364258 70.88227844238281 5.114289283752441 65.40480804443359 C 2.716022968292236 59.73466110229492 1.499996185302734 53.71062469482422 1.499996185302734 47.49999618530273 C 1.499996185302734 41.28936767578125 2.716022968292236 35.26533126831055 5.114289283752441 29.59518241882324 C 7.431062698364258 24.11771583557129 10.74803638458252 19.19812965393066 14.97308921813965 14.97308921813965 C 19.19812965393066 10.74803638458252 24.11771583557129 7.431062698364258 29.59518241882324 5.114289283752441 C 35.26533126831055 2.716022968292236 41.28936767578125 1.499996185302734 47.49999618530273 1.499996185302734 C 53.71062469482422 1.499996185302734 59.73466110229492 2.716022968292236 65.40480804443359 5.114289283752441 C 70.88227844238281 7.431062698364258 75.80186462402344 10.74803638458252 80.02690124511719 14.97308921813965 C 84.251953125 19.19812965393066 87.56893157958984 24.11771583557129 89.88570404052734 29.59518241882324 C 92.28396606445312 35.26533126831055 93.5 41.28936767578125 93.5 47.49999618530273 C 93.5 53.71062469482422 92.28396606445312 59.73466110229492 89.88570404052734 65.40480804443359 C 87.56893157958984 70.88227844238281 84.251953125 75.80186462402344 80.02690124511719 80.02690124511719 C 75.80186462402344 84.251953125 70.88227844238281 87.56893157958984 65.40480804443359 89.88570404052734 C 59.73466110229492 92.28396606445312 53.71062469482422 93.5 47.49999618530273 93.5 Z" stroke="none"/>
                          <path d="M 47.49999618530273 2.999992370605469 C 41.4912109375 2.999992370605469 35.66376495361328 4.1761474609375 30.17950439453125 6.495796203613281 C 24.88084411621094 8.736953735351562 20.12152099609375 11.94598388671875 16.03375244140625 16.03375244140625 C 11.94598388671875 20.12152099609375 8.736953735351562 24.88084411621094 6.495796203613281 30.17950439453125 C 4.1761474609375 35.66376495361328 2.999992370605469 41.4912109375 2.999992370605469 47.49999618530273 C 2.999992370605469 53.50878143310547 4.1761474609375 59.33622741699219 6.495796203613281 64.82048797607422 C 8.736953735351562 70.11914825439453 11.94598388671875 74.87847137451172 16.03375244140625 78.96623992919922 C 20.12152099609375 83.05400848388672 24.88084411621094 86.26304626464844 30.17950439453125 88.50419616699219 C 35.66376495361328 90.82384490966797 41.4912109375 92 47.49999618530273 92 C 53.50878143310547 92 59.33622741699219 90.82384490966797 64.82048797607422 88.50419616699219 C 70.11914825439453 86.26304626464844 74.87847137451172 83.05400848388672 78.96623992919922 78.96623992919922 C 83.05400848388672 74.87847137451172 86.26304626464844 70.11914825439453 88.50419616699219 64.82048797607422 C 90.82384490966797 59.33622741699219 92 53.50878143310547 92 47.49999618530273 C 92 41.4912109375 90.82384490966797 35.66376495361328 88.50419616699219 30.17950439453125 C 86.26304626464844 24.88084411621094 83.05400848388672 20.12152099609375 78.96623992919922 16.03375244140625 C 74.87847137451172 11.94598388671875 70.11914825439453 8.736953735351562 64.82048797607422 6.495796203613281 C 59.33622741699219 4.1761474609375 53.50878143310547 2.999992370605469 47.49999618530273 2.999992370605469 M 47.49999618530273 -7.62939453125e-06 C 73.7335205078125 -7.62939453125e-06 95 21.26647186279297 95 47.49999618530273 C 95 73.7335205078125 73.7335205078125 95 47.49999618530273 95 C 21.26647186279297 95 -7.62939453125e-06 73.7335205078125 -7.62939453125e-06 47.49999618530273 C -7.62939453125e-06 21.26647186279297 21.26647186279297 -7.62939453125e-06 47.49999618530273 -7.62939453125e-06 Z" stroke="none" fill="#eca675"/>
                        </g>
                      </g>
                    </g>
                  </g>
                </g>
              </g>
            </g>
          </g>
        </g>
      </g>
    </g>
    <g id="g4011" transform="translate(5136.63 5278.894)">
      <g id="g4013" transform="translate(0 -682.665)">
        <g id="g4015" clip-path="url(#clip-path)">
          <g id="g4021" transform="translate(0.947 33.806)">
            <path id="path4023" d="M-188.616-190.125l9.329-9.329a1.845,1.845,0,0,0,0-2.61,1.845,1.845,0,0,0-2.61,0l2.378-2.378a1.845,1.845,0,0,0,0-2.61h0a1.845,1.845,0,0,0-2.61,0l-1.246,1.246a1.845,1.845,0,0,0,0-2.61h0a1.845,1.845,0,0,0-2.61,0l-1.541,1.541a1.845,1.845,0,0,0,0-2.61,1.845,1.845,0,0,0-2.61,0l-10.118,10.118a6.65,6.65,0,0,0-1.884,3.784l-.286,2.056-5.933,5.933,7.154,7.154,5.576-5.576Z" transform="translate(208.357 210.024)" fill="#ffcebf"/>
          </g>
          <g id="g4025" transform="translate(18.467 33.806)">
            <path id="path4027" d="M-110.356-101l-1.39,1.39-8.489-8.489a9.866,9.866,0,0,1-1.671-2.228l.7-.7a1.845,1.845,0,0,1,1.3-.541,1.84,1.84,0,0,1,1.3.541,1.844,1.844,0,0,1,0,2.61l1.541-1.541a1.84,1.84,0,0,1,1.3-.541,1.84,1.84,0,0,1,1.3.541,1.844,1.844,0,0,1,0,2.61l1.247-1.246a1.84,1.84,0,0,1,1.3-.541,1.84,1.84,0,0,1,1.3.541,1.844,1.844,0,0,1,0,2.61l-2.378,2.378a1.835,1.835,0,0,1,1.3-.541,1.835,1.835,0,0,1,1.3.541,1.844,1.844,0,0,1,0,2.61" transform="translate(121.906 111.573)" fill="#ffb09e"/>
          </g>
          <g id="g4029" transform="translate(0.947 41.226)">
            <path id="path4031" d="M-277.743-30.1l-9.328,9.328-7.011,4.111-5.576,5.576-7.154-7.154h0l5.2,5.2,5.576-5.576,7.01-4.109,9.329-9.329a1.833,1.833,0,0,0,.536-1.193c.038,0,.075,0,.112,0a1.835,1.835,0,0,1,1.3.541,1.844,1.844,0,0,1,0,2.61" transform="translate(306.813 33.253)" fill="#ffb09e"/>
          </g>
          <g id="g4033" transform="translate(8.101 33.806)">
            <path id="path4035" d="M0-282.673l5.576-5.576,7.011-4.11,9.329-9.329a1.845,1.845,0,0,0,0-2.61,1.845,1.845,0,0,0-2.61,0l2.378-2.378a1.845,1.845,0,0,0,0-2.61h0a1.845,1.845,0,0,0-2.61,0l-1.246,1.246a1.846,1.846,0,0,0,0-2.61,1.845,1.845,0,0,0-2.61,0l-1.541,1.541a1.845,1.845,0,0,0,0-2.61,1.845,1.845,0,0,0-2.61,0l-2.842,2.842" transform="translate(0 312.259)" fill="none" stroke="#000" stroke-linecap="round" stroke-linejoin="round" stroke-miterlimit="10" stroke-width="1"/>
          </g>
          <g id="g4037" transform="translate(0.948 40.35)">
            <path id="path4039" d="M-116.738,0l-4.115,4.115A6.649,6.649,0,0,0-122.736,7.9l-.287,2.056-5.933,5.933" transform="translate(128.956)" fill="none" stroke="#000" stroke-linecap="round" stroke-linejoin="round" stroke-miterlimit="10" stroke-width="1"/>
          </g>
          <g id="g4041" transform="translate(21.142 41.767)">
            <path id="path4043" d="M-59.864,0l-6.266,6.266" transform="translate(66.129)" fill="none" stroke="#000" stroke-linecap="round" stroke-linejoin="round" stroke-miterlimit="10" stroke-width="1"/>
          </g>
          <g id="g4045" transform="translate(18.477 38.025)">
            <path id="path4047" d="M-71.2,0l-7.453,7.453" transform="translate(78.657)" fill="none" stroke="#000" stroke-linecap="round" stroke-linejoin="round" stroke-miterlimit="10" stroke-width="1"/>
          </g>
          <g id="g4049" transform="translate(16.047 36.956)">
            <path id="path4051" d="M-54.766,0-60.5,5.732" transform="translate(60.499)" fill="none" stroke="#000" stroke-linecap="round" stroke-linejoin="round" stroke-miterlimit="10" stroke-width="1"/>
          </g>
          <g id="g4053" transform="translate(10.764 48.074)">
            <path id="path4055" d="M-171.383-21.963l-5.556,6.048a5.492,5.492,0,0,1-2.248,1.474l-2.642.915a3.182,3.182,0,0,1-2.4-.129l-2.493-1.175-2.6-2.6,3.119-3.119a4.613,4.613,0,0,1,6.524,0l.54.54,3.349-3.349a3.086,3.086,0,0,1,4.364,0,1.018,1.018,0,0,1,.042,1.395" transform="translate(189.321 24.262)" fill="#ffcebf"/>
          </g>
          <g id="g4057" transform="translate(11.524 48.133)">
            <path id="path4059" d="M-166.578-14.955a1.013,1.013,0,0,1-.256.675l-5.556,6.047a5.486,5.486,0,0,1-2.247,1.474l-2.643.916a3.19,3.19,0,0,1-2.4-.129l-2.492-1.176-1.841-1.841,2.492,1.176a3.184,3.184,0,0,0,2.4.128l2.643-.915a5.486,5.486,0,0,0,2.247-1.474l5.556-6.047a1.016,1.016,0,0,0,.217-.4,3.067,3.067,0,0,1,1.582.845,1.015,1.015,0,0,1,.3.72" transform="translate(184.013 16.52)" fill="#ffb09e"/>
          </g>
          <g id="g4061" transform="translate(10.764 48.074)">
            <path id="path4063" d="M-50.383-23.849a4.61,4.61,0,0,1,4.369,1.217l.54.54,3.349-3.349a3.086,3.086,0,0,1,4.364,0,1.018,1.018,0,0,1,.042,1.395L-43.275-18a5.5,5.5,0,0,1-2.248,1.474l-2.642.915a3.184,3.184,0,0,1-2.4-.129l-2.493-1.175-2.6-2.6" transform="translate(55.656 26.345)" fill="none" stroke="#000" stroke-linecap="round" stroke-linejoin="round" stroke-miterlimit="10" stroke-width="1"/>
          </g>
          <g id="g4065" transform="translate(34.123 1.289)">
            <path id="path4067" d="M-94.293-92.548l-9.329,9.329a1.845,1.845,0,0,0,0,2.61,1.845,1.845,0,0,0,2.61,0l-2.378,2.378a1.845,1.845,0,0,0,0,2.61h0a1.845,1.845,0,0,0,2.61,0l1.246-1.246a1.845,1.845,0,0,0,0,2.61h0a1.845,1.845,0,0,0,2.61,0l1.541-1.541a1.845,1.845,0,0,0,0,2.61,1.845,1.845,0,0,0,2.61,0l10.118-10.118a6.65,6.65,0,0,0,1.884-3.784l.286-2.056,5.933-5.933-7.154-7.154-5.576,5.576Z" transform="translate(104.162 102.234)" fill="#d78878"/>
          </g>
          <g id="g4069" transform="translate(42.361 6.447)">
            <path id="path4071" d="M-204.194-19.071l-5.934,5.934-.286,2.055A6.644,6.644,0,0,1-212.3-7.3L-222.416,2.821a1.845,1.845,0,0,1-1.3.541,1.84,1.84,0,0,1-1.3-.541,1.839,1.839,0,0,1-.533-1.463,1.844,1.844,0,0,0,1.147-.533l10.118-10.119a6.652,6.652,0,0,0,1.885-3.784l.286-2.055,5.934-5.934Z" transform="translate(225.566 21.067)" fill="#ca6f59"/>
          </g>
          <g id="g4073" transform="translate(34.123 1.289)">
            <path id="path4075" d="M-214.557,0l-5.576,5.576-7.011,4.11-9.329,9.329a1.845,1.845,0,0,0,0,2.61,1.845,1.845,0,0,0,2.61,0L-236.241,24a1.845,1.845,0,0,0,0,2.61h0a1.845,1.845,0,0,0,2.61,0l1.246-1.246a1.845,1.845,0,0,0,0,2.61h0a1.845,1.845,0,0,0,2.61,0l1.541-1.541a1.845,1.845,0,0,0,0,2.61,1.845,1.845,0,0,0,2.61,0l10.118-10.118a6.65,6.65,0,0,0,1.884-3.784l.287-2.056,5.933-5.933" transform="translate(237.014)" fill="none" stroke="#000" stroke-linecap="round" stroke-linejoin="round" stroke-miterlimit="10" stroke-width="1"/>
          </g>
          <g id="g4077" transform="translate(37.273 16.648)">
            <path id="path4079" d="M0-59.864l6.266-6.266" transform="translate(0 66.129)" fill="none" stroke="#000" stroke-linecap="round" stroke-linejoin="round" stroke-miterlimit="10" stroke-width="1"/>
          </g>
          <g id="g4081" transform="translate(38.751 19.203)">
            <path id="path4083" d="M0-71.2l7.453-7.453" transform="translate(0 78.657)" fill="none" stroke="#000" stroke-linecap="round" stroke-linejoin="round" stroke-miterlimit="10" stroke-width="1"/>
          </g>
          <g id="g4085" transform="translate(42.901 21.992)">
            <path id="path4087" d="M0-54.766,5.732-60.5" transform="translate(0 60.499)" fill="none" stroke="#000" stroke-linecap="round" stroke-linejoin="round" stroke-miterlimit="10" stroke-width="1"/>
          </g>
          <g id="g4089" transform="translate(35.723 5.696)">
            <path id="path4091" d="M-2.445-82.284l5.556-6.048a5.492,5.492,0,0,1,2.248-1.474L8-90.721a3.182,3.182,0,0,1,2.4.129l2.493,1.175,2.6,2.6L12.374-83.7a4.613,4.613,0,0,1-6.524,0l-.54-.54L1.962-80.889a3.086,3.086,0,0,1-4.364,0,1.018,1.018,0,0,1-.042-1.395" transform="translate(2.701 90.896)" fill="#d78878"/>
          </g>
          <g id="g4093" transform="translate(35.723 5.696)">
            <path id="path4095" d="M-123.445-80.4a4.61,4.61,0,0,1-4.369-1.217l-.54-.54-3.349,3.349a3.086,3.086,0,0,1-4.364,0,1.018,1.018,0,0,1-.042-1.395l5.556-6.048a5.5,5.5,0,0,1,2.248-1.474l2.642-.915a3.184,3.184,0,0,1,2.4.129l2.493,1.175,2.6,2.6" transform="translate(136.365 88.813)" fill="none" stroke="#000" stroke-linecap="round" stroke-linejoin="round" stroke-miterlimit="10" stroke-width="1"/>
          </g>
          <g id="g4097" transform="translate(1.289 0.947)">
            <path id="path4099" d="M-92.548-188.616l9.329,9.329a1.845,1.845,0,0,0,2.61,0,1.845,1.845,0,0,0,0-2.61l2.378,2.378a1.845,1.845,0,0,0,2.61,0h0a1.845,1.845,0,0,0,0-2.61l-1.246-1.246a1.845,1.845,0,0,0,2.61,0h0a1.845,1.845,0,0,0,0-2.61l-1.541-1.541a1.845,1.845,0,0,0,2.61,0,1.845,1.845,0,0,0,0-2.61l-10.118-10.118a6.65,6.65,0,0,0-3.784-1.884l-2.056-.286-5.933-5.933-7.154,7.154,5.576,5.576Z" transform="translate(102.234 208.357)" fill="#a54f3e"/>
          </g>
          <g id="g4101" transform="translate(6.184 0.947)">
            <path id="path4103" d="M-235.908-186.566a1.84,1.84,0,0,1-.541,1.3,1.84,1.84,0,0,1-1.781.478,1.835,1.835,0,0,0-.478-.829l-10.119-10.118a6.644,6.644,0,0,0-3.784-1.885l-2.055-.286-5.934-5.934,2.259-2.259,5.934,5.934,2.055.286a6.644,6.644,0,0,1,3.784,1.885l10.119,10.118a1.845,1.845,0,0,1,.541,1.3" transform="translate(260.599 206.093)" fill="#883f2d"/>
          </g>
          <g id="g4105" transform="translate(1.289 8.101)">
            <path id="path4107" d="M0,0,5.576,5.576l4.11,7.011,9.329,9.329a1.845,1.845,0,0,0,2.61-2.61L24,21.684a1.845,1.845,0,0,0,2.61,0h0a1.845,1.845,0,0,0,0-2.61l-1.246-1.246a1.845,1.845,0,1,0,2.61-2.61l-1.541-1.541a1.845,1.845,0,1,0,2.61-2.61L27,9.024" fill="none" stroke="#000" stroke-linecap="round" stroke-linejoin="round" stroke-miterlimit="10" stroke-width="1"/>
          </g>
          <g id="g4109" transform="translate(8.443 0.948)">
            <path id="path4111" d="M-159.416-124.358l-4.912-4.912a6.649,6.649,0,0,0-3.784-1.884l-2.056-.287-5.933-5.933" transform="translate(176.101 137.374)" fill="none" stroke="#000" stroke-linecap="round" stroke-linejoin="round" stroke-miterlimit="10" stroke-width="1"/>
          </g>
          <g id="g4113" transform="translate(16.648 21.142)">
            <path id="path4115" d="M-59.864-59.864l-6.266-6.266" transform="translate(66.129 66.129)" fill="none" stroke="#000" stroke-linecap="round" stroke-linejoin="round" stroke-miterlimit="10" stroke-width="1"/>
          </g>
          <g id="g4117" transform="translate(19.203 18.477)">
            <path id="path4119" d="M-71.2-71.2l-7.453-7.453" transform="translate(78.657 78.657)" fill="none" stroke="#000" stroke-linecap="round" stroke-linejoin="round" stroke-miterlimit="10" stroke-width="1"/>
          </g>
          <g id="g4121" transform="translate(21.992 16.047)">
            <path id="path4123" d="M-54.766-54.766-60.5-60.5" transform="translate(60.499 60.499)" fill="none" stroke="#000" stroke-linecap="round" stroke-linejoin="round" stroke-miterlimit="10" stroke-width="1"/>
          </g>
          <g id="g4125" transform="translate(5.696 10.764)">
            <path id="path4127" d="M-82.284-171.383l-6.048-5.556a5.492,5.492,0,0,1-1.474-2.248l-.915-2.642a3.182,3.182,0,0,1,.129-2.4l1.175-2.493,2.6-2.6L-83.7-186.2a4.613,4.613,0,0,1,0,6.524l-.54.54,3.349,3.349a3.086,3.086,0,0,1,0,4.364,1.018,1.018,0,0,1-1.395.042" transform="translate(90.896 189.321)" fill="#a54f3e"/>
          </g>
          <g id="g4129" transform="translate(5.696 10.764)">
            <path id="path4131" d="M-80.4-50.383a4.61,4.61,0,0,1-1.217,4.369l-.54.54,3.349,3.349a3.086,3.086,0,0,1,0,4.364,1.018,1.018,0,0,1-1.395.042l-6.048-5.556a5.5,5.5,0,0,1-1.474-2.248l-.915-2.642a3.184,3.184,0,0,1,.129-2.4l1.175-2.493,2.6-2.6" transform="translate(88.813 55.656)" fill="none" stroke="#000" stroke-linecap="round" stroke-linejoin="round" stroke-miterlimit="10" stroke-width="1"/>
          </g>
          <g id="g4133" transform="translate(33.806 34.123)">
            <path id="path4135" d="M-190.125-94.293l-9.329-9.329a1.845,1.845,0,0,0-2.61,0,1.845,1.845,0,0,0,0,2.61l-2.378-2.378a1.845,1.845,0,0,0-2.61,0h0a1.845,1.845,0,0,0,0,2.61l1.246,1.246a1.845,1.845,0,0,0-2.61,0h0a1.845,1.845,0,0,0,0,2.61l1.541,1.541a1.845,1.845,0,0,0-2.61,0,1.845,1.845,0,0,0,0,2.61l10.118,10.118a6.65,6.65,0,0,0,3.784,1.884l2.056.286,5.933,5.933,7.154-7.154-5.576-5.576Z" transform="translate(210.024 104.162)" fill="#ffdfcf"/>
          </g>
          <g id="g4137" transform="translate(33.806 34.123)">
            <path id="path4139" d="M-113.241-17.408a9.933,9.933,0,0,1-1.113,1.33l-9.218,9.217-.98-.98a1.844,1.844,0,0,1-.541-1.3,1.84,1.84,0,0,1,.541-1.3,1.844,1.844,0,0,1,2.61,0l-1.541-1.541a1.84,1.84,0,0,1-.541-1.3,1.84,1.84,0,0,1,.541-1.3,1.844,1.844,0,0,1,2.61,0l-1.246-1.247a1.84,1.84,0,0,1-.541-1.3,1.84,1.84,0,0,1,.541-1.3,1.844,1.844,0,0,1,2.61,0l2.378,2.378a1.835,1.835,0,0,1-.541-1.305,1.835,1.835,0,0,1,.541-1.3,1.844,1.844,0,0,1,2.61,0Z" transform="translate(125.093 19.23)" fill="#ffcebf"/>
          </g>
          <g id="g4141" transform="translate(41.226 34.122)">
            <path id="path4143" d="M-143.428-282.912l5.2-5.2-5.576-5.576-4.109-7.01-9.329-9.329a1.833,1.833,0,0,0-1.193-.536c0-.038,0-.075,0-.112a1.835,1.835,0,0,1,.541-1.3,1.844,1.844,0,0,1,2.61,0l9.328,9.328,4.111,7.011,5.576,5.576Z" transform="translate(158.44 312.523)" fill="#ffcebf"/>
          </g>
          <g id="g4145" transform="translate(33.806 34.123)">
            <path id="path4147" d="M-282.673-214.557l-5.576-5.576-4.11-7.011-9.329-9.329a1.845,1.845,0,0,0-2.61,0,1.845,1.845,0,0,0,0,2.61l-2.378-2.378a1.845,1.845,0,0,0-2.61,0h0a1.845,1.845,0,0,0,0,2.61l1.246,1.246a1.845,1.845,0,0,0-2.61,0h0a1.845,1.845,0,0,0,0,2.61l1.541,1.541a1.845,1.845,0,0,0-2.61,0,1.845,1.845,0,0,0,0,2.61l10.118,10.118a6.65,6.65,0,0,0,3.784,1.884l2.056.287,5.933,5.933" transform="translate(312.259 237.014)" fill="none" stroke="#000" stroke-linecap="round" stroke-linejoin="round" stroke-miterlimit="10" stroke-width="1"/>
          </g>
          <g id="g4149" transform="translate(41.767 37.273)">
            <path id="path4151" d="M0,0,6.266,6.266" fill="none" stroke="#000" stroke-linecap="round" stroke-linejoin="round" stroke-miterlimit="10" stroke-width="1"/>
          </g>
          <g id="g4153" transform="translate(38.025 38.751)">
            <path id="path4155" d="M0,0,7.453,7.453" fill="none" stroke="#000" stroke-linecap="round" stroke-linejoin="round" stroke-miterlimit="10" stroke-width="1"/>
          </g>
          <g id="g4157" transform="translate(36.956 42.901)">
            <path id="path4159" d="M0,0,5.732,5.732" fill="none" stroke="#000" stroke-linecap="round" stroke-linejoin="round" stroke-miterlimit="10" stroke-width="1"/>
          </g>
          <g id="g4161" transform="translate(48.074 35.723)">
            <path id="path4163" d="M-21.963-2.445l6.048,5.556a5.493,5.493,0,0,1,1.474,2.248L-13.526,8a3.182,3.182,0,0,1-.129,2.4l-1.175,2.493-2.6,2.6-3.119-3.119a4.613,4.613,0,0,1,0-6.524l.54-.54-3.349-3.349a3.086,3.086,0,0,1,0-4.364,1.018,1.018,0,0,1,1.395-.042" transform="translate(24.262 2.701)" fill="#ffdfcf"/>
          </g>
          <g id="g4165" transform="translate(48.107 35.722)">
            <path id="path4167" d="M-101.026-125.178l-1.176,2.492-1.953,1.953,1.175-2.492a3.178,3.178,0,0,0,.129-2.4l-.915-2.642a5.5,5.5,0,0,0-1.474-2.247l-6.047-5.557a1.01,1.01,0,0,0-.312-.188,3.078,3.078,0,0,1,.87-1.723,1.015,1.015,0,0,1,.72-.3,1.013,1.013,0,0,1,.675.256l6.047,5.556a5.488,5.488,0,0,1,1.474,2.247l.916,2.643a3.19,3.19,0,0,1-.129,2.4" transform="translate(111.6 138.28)" fill="#ffcebf"/>
          </g>
          <g id="g4169" transform="translate(54.906 40.531)">
            <path id="path4171" d="M0-127.887l2.6-2.6,1.175-2.493a3.182,3.182,0,0,0,.129-2.4l-.915-2.642a5.5,5.5,0,0,0-1.474-2.248l-1.092-1" transform="translate(0 141.272)" fill="none" stroke="#000" stroke-linecap="round" stroke-linejoin="round" stroke-miterlimit="10" stroke-width="1"/>
          </g>
          <g id="g4173" transform="translate(48.074 35.723)">
            <path id="path4175" d="M-37.847-17.039l-1.662-1.527a1.018,1.018,0,0,0-1.395.042,3.086,3.086,0,0,0,0,4.364l3.349,3.349-.54.54A4.61,4.61,0,0,0-39.312-5.9" transform="translate(41.808 18.822)" fill="none" stroke="#000" stroke-linecap="round" stroke-linejoin="round" stroke-miterlimit="10" stroke-width="1"/>
          </g>
          <g id="g4177" transform="translate(19.774 22.924)">
            <path id="path4179" d="M-219.576-120.061a7.365,7.365,0,0,0-.006-10.409,7.365,7.365,0,0,0-10.409-.006,7.365,7.365,0,0,0-10.409.006,7.365,7.365,0,0,0-.007,10.409l9.416,9.416a1.414,1.414,0,0,0,2,0Z" transform="translate(242.558 132.627)" fill="#fe76a8"/>
          </g>
          <g id="g4181" transform="translate(30.184 22.928)">
            <path id="path4183" d="M-120.121-120.024l-9.417,9.417a1.413,1.413,0,0,1-2,0l-1.157-1.157,9.189-9.19a7.365,7.365,0,0,0-.006-10.41,7.373,7.373,0,0,0-1.612-1.222,7.338,7.338,0,0,1,4.994,2.154,7.365,7.365,0,0,1,.008,10.408" transform="translate(132.693 132.586)" fill="#ff5795"/>
          </g>
          <g id="g4185" transform="translate(19.774 22.924)">
            <path id="path4187" d="M-219.576-120.061a7.365,7.365,0,0,0-.006-10.409,7.365,7.365,0,0,0-10.409-.006,7.365,7.365,0,0,0-10.409.006,7.365,7.365,0,0,0-.007,10.409l9.416,9.416a1.414,1.414,0,0,0,2,0Z" transform="translate(242.558 132.627)" fill="none" stroke="#000" stroke-linecap="round" stroke-linejoin="round" stroke-miterlimit="10" stroke-width="1"/>
          </g>
        </g>
      </g>
    </g>
  </g>
</svg>
