<svg xmlns="http://www.w3.org/2000/svg" xmlns:xlink="http://www.w3.org/1999/xlink" width="85.895" height="85.895" viewBox="0 0 85.895 85.895">
  <defs>
    <filter id="Trazado_904820" x="0" y="0" width="85.895" height="85.895" filterUnits="userSpaceOnUse">
      <feOffset dy="3" input="SourceAlpha"/>
      <feGaussianBlur stdDeviation="3" result="blur"/>
      <feFlood flood-opacity="0.161"/>
      <feComposite operator="in" in2="blur"/>
      <feComposite in="SourceGraphic"/>
    </filter>
  </defs>
  <g id="Grupo_1223387" data-name="Grupo 1223387" transform="translate(-193.776 -7996.053)">
    <g id="Grupo_1223165" data-name="Grupo 1223165" transform="translate(202.776 8002.053)">
      <g id="Grupo_1173585" data-name="Grupo 1173585" transform="translate(0 0)">
        <g id="Grupo_1173428" data-name="Grupo 1173428">
          <g id="Grupo_1171958" data-name="Grupo 1171958">
            <g id="Grupo_1167341" data-name="Grupo 1167341">
              <g id="Grupo_1166792" data-name="Grupo 1166792">
                <g transform="matrix(1, 0, 0, 1, -9, -6)" filter="url(#Trazado_904820)">
                  <g id="Trazado_904820-2" data-name="Trazado 904820" transform="translate(9 6)" fill="#fcf5f0">
                    <path d="M 33.947265625 66.39455413818359 C 29.56625556945801 66.39455413818359 25.31708526611328 65.536865234375 21.31778526306152 63.84530639648438 C 17.45416641235352 62.21112823486328 13.98396587371826 59.87134552001953 11.00358581542969 56.89096832275391 C 8.023205757141113 53.91057586669922 5.683425426483154 50.44037628173828 4.049255847930908 46.57675552368164 C 2.357695579528809 42.57745742797852 1.500005602836609 38.32828521728516 1.500005602836609 33.9472770690918 C 1.500005602836609 29.56625747680664 2.357695579528809 25.31708717346191 4.049255847930908 21.31778717041016 C 5.683425426483154 17.45416641235352 8.023205757141113 13.98396682739258 11.00358581542969 11.003586769104 C 13.98396587371826 8.023197174072266 17.45416641235352 5.683416843414307 21.31778526306152 4.049247264862061 C 25.31707572937012 2.357686996459961 29.56625556945801 1.499997019767761 33.947265625 1.499997019767761 C 38.32827377319336 1.499997019767761 42.57745742797852 2.357686996459961 46.57674407958984 4.049247264862061 C 50.44036483764648 5.683416843414307 53.91056442260742 8.023197174072266 56.89094543457031 11.003586769104 C 59.87133407592773 13.98396682739258 62.21111679077148 17.45416641235352 63.84528732299805 21.31778717041016 C 65.53684234619141 25.31708717346191 66.39453887939453 29.56625747680664 66.39453887939453 33.9472770690918 C 66.39453887939453 38.32828521728516 65.53684234619141 42.57745742797852 63.84528732299805 46.57675552368164 C 62.21111679077148 50.44037628173828 59.87133407592773 53.91057586669922 56.89094543457031 56.89096832275391 C 53.91056442260742 59.87134552001953 50.44036483764648 62.21112823486328 46.57674407958984 63.84530639648438 C 42.57745742797852 65.536865234375 38.32827377319336 66.39455413818359 33.947265625 66.39455413818359 Z" stroke="none"/>
                    <path d="M 33.947265625 3 C 29.76808929443359 3 25.71552276611328 3.817825317382812 21.9021110534668 5.430755615234375 C 18.21730041503906 6.989311218261719 14.90735626220703 9.221134185791016 12.06424331665039 12.06424331665039 C 9.221134185791016 14.90735626220703 6.989311218261719 18.21730041503906 5.430755615234375 21.90212249755859 C 3.817817687988281 25.71552276611328 3 29.76810073852539 3 33.9472770690918 C 3 38.12645721435547 3.817817687988281 42.17902374267578 5.430755615234375 45.99242401123047 C 6.989311218261719 49.67724609375 9.221134185791016 52.98719024658203 12.06424331665039 55.83029937744141 C 14.90735626220703 58.67340850830078 18.21730041503906 60.90524291992188 21.90212249755859 62.46379852294922 C 25.71552276611328 64.07673645019531 29.76808929443359 64.89455413818359 33.947265625 64.89455413818359 C 38.12644195556641 64.89455413818359 42.17900848388672 64.07673645019531 45.99240875244141 62.46379852294922 C 49.67723083496094 60.90524291992188 52.98717498779297 58.67340850830078 55.83028793334961 55.83029937744141 C 58.67340087890625 52.98719024658203 60.90522003173828 49.67724609375 62.46377563476562 45.99242401123047 C 64.07671356201172 42.17902374267578 64.89453125 38.12645721435547 64.89453125 33.9472770690918 C 64.89453125 29.76810073852539 64.07671356201172 25.71552276611328 62.46377563476562 21.90212249755859 C 60.90522003173828 18.21730041503906 58.67340087890625 14.90735626220703 55.83028793334961 12.06424331665039 C 52.98717498779297 9.221134185791016 49.67723083496094 6.989311218261719 45.99242401123047 5.430755615234375 C 42.17900848388672 3.817825317382812 38.12644195556641 3 33.947265625 3 M 33.947265625 0 C 52.69581985473633 0 67.89453125 15.19871139526367 67.89453125 33.9472770690918 C 67.89453125 52.69582366943359 52.69581985473633 67.89455413818359 33.947265625 67.89455413818359 C 15.19871139526367 67.89455413818359 0 52.69582366943359 0 33.9472770690918 C 0 15.19871139526367 15.19871139526367 0 33.947265625 0 Z" stroke="none" fill="#eca675"/>
                  </g>
                </g>
              </g>
            </g>
          </g>
        </g>
      </g>
    </g>
    <g id="disagree_5201559_1_" data-name="disagree_5201559 (1)" transform="translate(216.822 8015.822)">
      <path id="Trazado_1177514" data-name="Trazado 1177514" d="M62.088,137.709a2.4,2.4,0,0,1-1.2-2.076v-.617a1.446,1.446,0,0,1,.509-1.093,5.762,5.762,0,0,0,1.989-4,.036.036,0,0,1,.036-.034h.022A2.885,2.885,0,0,0,66.329,127a1.468,1.468,0,0,0-1.468-1.468H63.705a.036.036,0,0,1-.036-.038l.068-1.063a6.126,6.126,0,1,0-12.227,0l.068,1.063a.036.036,0,0,1-.036.038H50.386A1.468,1.468,0,0,0,48.918,127a2.885,2.885,0,0,0,2.885,2.885h.022a.036.036,0,0,1,.036.034,5.762,5.762,0,0,0,1.989,4,1.446,1.446,0,0,1,.509,1.093v.617a2.4,2.4,0,0,1-1.2,2.076c1.168.547,2.738,1.971,4.465,1.971S60.921,138.257,62.088,137.709Z" transform="translate(-45.062 -108.622)" fill="#fcd0a3"/>
      <path id="Trazado_1177515" data-name="Trazado 1177515" d="M92.081,131.736a4.276,4.276,0,0,0,1.529-2.985c.129-1.829.274-4.324.274-4.318a6.126,6.126,0,1,0-12.227,0c.134,2.1.217,3.429.272,4.29a4.277,4.277,0,0,0,1.531,3.014,6.732,6.732,0,0,0,8.619,0Z" transform="translate(-75.209 -108.623)" fill="#fd7e42"/>
      <path id="Trazado_1177516" data-name="Trazado 1177516" d="M108.077,119.042a6.108,6.108,0,0,1,1.915,4.851c0-.006-.145,2.489-.274,4.318a4.276,4.276,0,0,1-1.529,2.985h0a6.729,6.729,0,0,1-5.634,1.429q.082.076.168.147a6.732,6.732,0,0,0,8.619,0h0a4.276,4.276,0,0,0,1.529-2.985c.129-1.829.274-4.324.274-4.318A6.128,6.128,0,0,0,108.077,119.042Z" transform="translate(-94.47 -109.659)" fill="#fa6931"/>
      <path id="Trazado_1177517" data-name="Trazado 1177517" d="M260.388,118.862v-7.117a7.617,7.617,0,1,0-15.234,0v7.117a1.588,1.588,0,0,1-1.588,1.588h-.441a.079.079,0,0,0-.065.122l.632.948a4.927,4.927,0,0,0,4.1,2.194h9.96a4.927,4.927,0,0,0,4.1-2.194l.632-.948a.078.078,0,0,0-.065-.122h-.441A1.588,1.588,0,0,1,260.388,118.862Z" transform="translate(-223.889 -95.921)" fill="#fb0363"/>
      <path id="Trazado_1177518" data-name="Trazado 1177518" d="M316.719,333.422c2.086,0,3.829-2.249,4.254-3.964a1.668,1.668,0,0,1-.989-1.524v-1.929a5.777,5.777,0,0,1-6.529,0v1.929a1.668,1.668,0,0,1-.99,1.524C312.89,331.173,314.633,333.422,316.719,333.422Z" transform="translate(-287.837 -300.31)" fill="#ffcbbe"/>
      <path id="Trazado_1177519" data-name="Trazado 1177519" d="M275.89,377.313c3.66,0,6.752-3.368,7.747-6.288a6.3,6.3,0,0,0-1.432-.608l-1.841-.526a1.671,1.671,0,0,1-.221-.08,4.517,4.517,0,0,1-8.508,0,1.673,1.673,0,0,1-.22.08l-1.841.526a6.3,6.3,0,0,0-1.432.609c1,2.919,4.087,6.287,7.747,6.287Z" transform="translate(-247.008 -340.663)" fill="#eff3f5"/>
      <path id="Trazado_1177520" data-name="Trazado 1177520" d="M439.788,377.192a6.558,6.558,0,0,0,.585-1.257,6.3,6.3,0,0,0-1.432-.608l-.652-.186A6.312,6.312,0,0,1,439.788,377.192Z" transform="translate(-403.744 -345.572)" fill="#daeaef"/>
      <path id="Trazado_1177521" data-name="Trazado 1177521" d="M247.008,385.221a8.469,8.469,0,0,1-15.494,0,6.3,6.3,0,0,0-3.134,5.446v3.955h21.684a.08.08,0,0,0,.08-.08v-3.875A6.3,6.3,0,0,0,247.008,385.221Z" transform="translate(-210.378 -354.858)" fill="#62b4fd"/>
      <path id="Trazado_1177522" data-name="Trazado 1177522" d="M247.007,385.221a6.558,6.558,0,0,1-.585,1.257,6.285,6.285,0,0,1,.567,2.612v.715a3.24,3.24,0,0,1-3.24,3.24H228.378v1.576h21.684a.08.08,0,0,0,.08-.08v-3.875A6.3,6.3,0,0,0,247.007,385.221Z" transform="translate(-210.377 -354.858)" fill="#27a2fb"/>
      <path id="Trazado_1177523" data-name="Trazado 1177523" d="M28.13,380.261l-1.122-.28s-5.811.909-7.538.909-7.539-.909-7.539-.909l-1.121.28A4.37,4.37,0,0,0,7.5,384.5v5.2a.094.094,0,0,0,.094.094H31.426a.014.014,0,0,0,.014-.014V384.5A4.37,4.37,0,0,0,28.13,380.261Z" transform="translate(-6.909 -350.031)" fill="#1dd0b0"/>
      <path id="Trazado_1177524" data-name="Trazado 1177524" d="M78.793,369.9l-2.459-.615a2.393,2.393,0,0,1-.614-.248,11.734,11.734,0,0,1-8.93,0,2.4,2.4,0,0,1-.614.247l-2.46.615a14.034,14.034,0,0,0,15.077,0Z" transform="translate(-58.694 -339.952)" fill="#eff3f5"/>
      <path id="Trazado_1177525" data-name="Trazado 1177525" d="M303.981,166.1a5.266,5.266,0,0,0-2.227-2.611,6.526,6.526,0,0,1-1.947-1.73l-1.237-1.649a.086.086,0,0,0-.138,0l-1.237,1.649a6.526,6.526,0,0,1-1.947,1.73,5.266,5.266,0,0,0-2.227,2.611,4.655,4.655,0,0,0-.323,2.025l.04.632a5.775,5.775,0,0,0,11.526,0l.04-.63a4.654,4.654,0,0,0-.323-2.025Z" transform="translate(-269.619 -147.461)" fill="#ffece3"/>
      <path id="Trazado_1177526" data-name="Trazado 1177526" d="M28.13,380.785l-.943-.236a4.365,4.365,0,0,1,1.1,2.9v.945a4.347,4.347,0,0,1-4.348,4.348H7.5v1.483a.094.094,0,0,0,.094.094H31.426a.014.014,0,0,0,.014-.014v-5.278A4.37,4.37,0,0,0,28.13,380.785Z" transform="translate(-6.909 -350.554)" fill="#04b49c"/>
      <path id="Trazado_1177527" data-name="Trazado 1177527" d="M324.763,166.105v0a5.266,5.266,0,0,0-2.227-2.611,6.527,6.527,0,0,1-1.947-1.73l-1.237-1.649a.086.086,0,0,0-.138,0l-.823,1.1a6.52,6.52,0,0,0,.991.706,5.266,5.266,0,0,1,2.227,2.611v0a4.653,4.653,0,0,1,.323,2.025l-.04.63a5.779,5.779,0,0,1-6.645,5.34,5.775,5.775,0,0,0,9.8-3.764l.04-.63a4.654,4.654,0,0,0-.324-2.025Z" transform="translate(-290.4 -147.461)" fill="#ffddce"/>
      <path id="Trazado_1177528" data-name="Trazado 1177528" d="M7.586,7.49H22.648a.086.086,0,0,1,.086.086v10.8a.086.086,0,0,1-.086.086H20.679a.086.086,0,0,0-.086.086v2.971a.086.086,0,0,1-.147.061l-3.093-3.093a.086.086,0,0,0-.061-.025H7.586a.086.086,0,0,1-.086-.086V7.576a.086.086,0,0,1,.086-.086Z" transform="translate(-6.909 -6.9)" fill="#62b4fd"/>
      <path id="Trazado_1177529" data-name="Trazado 1177529" d="M326.359,7.49H311.3a.086.086,0,0,0-.086.086v10.8a.086.086,0,0,0,.086.086h8.62a.086.086,0,0,1,.086.086v2.971a.086.086,0,0,0,.147.061l3.093-3.093a.086.086,0,0,1,.061-.025h3.056a.086.086,0,0,0,.086-.086V7.576a.086.086,0,0,0-.086-.086Z" transform="translate(-286.682 -6.9)" fill="#1dd0b0"/>
      <path id="Trazado_1177530" data-name="Trazado 1177530" d="M22.648,7.49H19.581v5.852a3.539,3.539,0,0,1-3.539,3.539H7.5v1.49a.086.086,0,0,0,.086.086h9.707a.086.086,0,0,1,.061.025l3.093,3.093a.086.086,0,0,0,.147-.061V18.543a.086.086,0,0,1,.086-.086h1.969a.086.086,0,0,0,.086-.086V7.576A.086.086,0,0,0,22.648,7.49Z" transform="translate(-6.909 -6.9)" fill="#27a2fb"/>
      <path id="Trazado_1177531" data-name="Trazado 1177531" d="M326.36,7.49h-3.067v5.852a3.539,3.539,0,0,1-3.539,3.539h-8.542v1.49a.086.086,0,0,0,.086.086h8.62a.086.086,0,0,1,.086.086v2.971a.086.086,0,0,0,.147.061l3.093-3.093a.086.086,0,0,1,.061-.025h3.056a.086.086,0,0,0,.086-.086V7.576a.086.086,0,0,0-.086-.086Z" transform="translate(-286.682 -6.9)" fill="#04b49c"/>
      <path id="Trazado_1177532" data-name="Trazado 1177532" d="M353.125,236.869a.351.351,0,0,1-.351.351h-.147a.591.591,0,1,0,0,1.182h.147a1.534,1.534,0,0,0,1.533-1.533v-1.235a.591.591,0,1,0-1.182,0Z" transform="translate(-324.29 -216.517)"/>
      <path id="Trazado_1177533" data-name="Trazado 1177533" d="M347.477,290.09a.949.949,0,0,1-1.34,0,.591.591,0,0,0-.836.836,2.133,2.133,0,0,0,3.012,0,.591.591,0,0,0-.836-.836Z" transform="translate(-317.925 -267.066)"/>
      <path id="Trazado_1177534" data-name="Trazado 1177534" d="M138.775,331.238a6.419,6.419,0,0,0,2.357,0,.591.591,0,0,0-.218-1.162,5.256,5.256,0,0,1-1.921,0,.591.591,0,0,0-.218,1.162Z" transform="translate(-127.393 -304.051)"/>
      <path id="Trazado_1177535" data-name="Trazado 1177535" d="M57.48,42.774,55.4,44.857a.592.592,0,0,0,0,.836l2.083,2.083a.591.591,0,1,0,.836-.836l-1.074-1.074h5.1a.591.591,0,0,0,0-1.182h-5.1l1.074-1.074a.591.591,0,1,0-.836-.836Z" transform="translate(-50.871 -39.243)"/>
      <path id="Trazado_1177536" data-name="Trazado 1177536" d="M359.526,45.865h5.1l-1.074,1.074a.591.591,0,0,0,.836.836l2.083-2.083a.591.591,0,0,0,0-.836l-2.083-2.083a.591.591,0,0,0-.836.836l1.074,1.074h-5.1a.591.591,0,0,0,0,1.182Z" transform="translate(-330.644 -39.242)"/>
      <path id="Trazado_1177537" data-name="Trazado 1177537" d="M36.926,29.852a6.9,6.9,0,0,0-1.566-.665l-1.841-.526a1.074,1.074,0,0,1-.467-.275h.81a5.507,5.507,0,0,0,4.592-2.457l.632-.948a.67.67,0,0,0-.557-1.041h-.441a1,1,0,0,1-1-1V20.324a.591.591,0,0,0-1.182,0v2.619a2.183,2.183,0,0,0,1.7,2.126l-.136.2A4.327,4.327,0,0,1,33.862,27.2H32.738V25.993a6.361,6.361,0,0,0,2.5-4.655l.04-.63a5.709,5.709,0,0,0-2.845-5.187,5.9,5.9,0,0,1-1.77-1.573L29.424,12.3a.673.673,0,0,0-.154-.148h3.46v2.466a.677.677,0,0,0,1.156.479l1.62-1.62a6.973,6.973,0,0,1,.4,2.351v1.74a.591.591,0,1,0,1.182,0v-1.74a8.127,8.127,0,0,0-.673-3.262l.414-.414h2.847a.678.678,0,0,0,.677-.677V.677A.678.678,0,0,0,39.678,0H24.615a.678.678,0,0,0-.677.677v8.6a8.22,8.22,0,0,0-3.264,6.553v.691a2.047,2.047,0,0,0-.875-.2h-.562c0-.008.023-.386.025-.419l0-.054a6.719,6.719,0,0,0-2.848-5.929V.677A.678.678,0,0,0,15.739,0h-6.4a.591.591,0,1,0,0,1.182h5.9v9.785H13.77a.678.678,0,0,0-.677.677V13.4l-2.231-2.231a.673.673,0,0,0-.478-.2h-9.2V1.182H6.576A.591.591,0,1,0,6.576,0H.677A.678.678,0,0,0,0,.677v10.8a.678.678,0,0,0,.677.677H6.693a6.7,6.7,0,0,0-.835,3.7c.01.164.023.364.03.473H5.324A2.061,2.061,0,0,0,3.265,18.38a3.481,3.481,0,0,0,2.993,3.442A6.314,6.314,0,0,0,8.4,25.75a.857.857,0,0,1,.3.645v.617a1.805,1.805,0,0,1-1.366,1.75l-3.581.9A4.954,4.954,0,0,0,0,34.471v5.2a.686.686,0,0,0,.685.685c29.095,0,18.924,0,39,0a.671.671,0,0,0,.671-.671V35.809A6.908,6.908,0,0,0,36.926,29.852Zm-1.039.79a7.592,7.592,0,0,1-7,4.179,8.367,8.367,0,0,1-3.789-.89,4.953,4.953,0,0,0-2.254-3.638l1.415-.4a5.183,5.183,0,0,0,9.256,0l1.525.436a5.733,5.733,0,0,1,.851.318Zm-18.1-1.88a1.806,1.806,0,0,1-1.366-1.75v-.617a.857.857,0,0,1,.3-.645,6.314,6.314,0,0,0,2.144-3.927,3.464,3.464,0,0,0,1.809-.831v1.951a1,1,0,0,1-1,1h-.441a.67.67,0,0,0-.557,1.041l.632.948A5.508,5.508,0,0,0,23.9,28.386h.81a1.329,1.329,0,0,1-.392.259c-.071.011.011-.006-1.915.542a6.908,6.908,0,0,0-1.151.443l-3.471-.868Zm14.646.648a4,4,0,0,1-7.095,0,2.262,2.262,0,0,0,.874-1.785v-.918a6.342,6.342,0,0,0,5.347,0v.918a2.262,2.262,0,0,0,.873,1.785ZM29.715,14.656a7.081,7.081,0,0,0,2.123,1.887A4.533,4.533,0,0,1,34.1,20.632l-.04.63a5.184,5.184,0,0,1-10.347,0l-.04-.632a4.54,4.54,0,0,1,2.257-4.087,7.08,7.08,0,0,0,2.123-1.887l.833-1.11ZM39.172,1.182v9.785H36.621a.673.673,0,0,0-.479.2l-2.23,2.23V11.644a.678.678,0,0,0-.677-.677H25.121V1.182H39.172ZM23.938,10.833v.639a.678.678,0,0,0,.677.677h3.879a.675.675,0,0,0-.154.148L27.1,13.947a5.9,5.9,0,0,1-1.77,1.573,5.718,5.718,0,0,0-2.844,5.185l.04.632a6.361,6.361,0,0,0,2.5,4.655V27.2H23.9a4.327,4.327,0,0,1-3.608-1.931l-.136-.2a2.183,2.183,0,0,0,1.7-2.126V15.825a7.034,7.034,0,0,1,2.082-4.992Zm-5,9.772q.035-.216.051-.435c.061-.875.127-1.9.174-2.667H19.8C21.258,17.5,20.84,20.129,18.94,20.605ZM10.175,12.15l2.945,2.945a.677.677,0,0,0,1.156-.479V12.15h1.464a.678.678,0,0,0,.677-.677v-.024a5.535,5.535,0,0,1,1.668,4.324l-.068,1.062a.626.626,0,0,0,0,.075c-.054.887-.133,2.139-.206,3.177A3.7,3.7,0,0,1,16.5,22.656l-.006.005a6.14,6.14,0,0,1-7.862,0,3.7,3.7,0,0,1-1.319-2.6c-.147-2.324-.178-2.807-.25-3.946,0-.009-.021-.336-.022-.344A5.515,5.515,0,0,1,8.1,12.15ZM4.447,18.38a.878.878,0,0,1,.877-.877h.639c.058.912.04.629.167,2.635q.015.235.053.466A2.3,2.3,0,0,1,4.447,18.38Zm3.871,5.532a7.321,7.321,0,0,0,8.487,0,5.229,5.229,0,0,1-.857.943,2.038,2.038,0,0,0-.714,1.54v.617a2.992,2.992,0,0,0,.668,1.881,11.711,11.711,0,0,1-6.683,0,2.992,2.992,0,0,0,.668-1.881v-.617a2.038,2.038,0,0,0-.714-1.54,5.231,5.231,0,0,1-.856-.942ZM1.182,34.471A3.773,3.773,0,0,1,4.045,30.8l.874-.218a13.812,13.812,0,0,0,2.049,1.055.591.591,0,0,0,.452-1.092q-.423-.175-.832-.38l1.039-.26a2.991,2.991,0,0,0,.486-.167,12.484,12.484,0,0,0,8.9,0,2.992,2.992,0,0,0,.486.167l1.04.26a13.291,13.291,0,0,1-5.976,1.387,13.765,13.765,0,0,1-2.52-.231.591.591,0,0,0-.217,1.162,14.957,14.957,0,0,0,2.737.251A14.329,14.329,0,0,0,20.2,30.586c1.11.277.87.217.967.243a3.773,3.773,0,0,1,2.766,3.485c0,.177,0-.494,0,4.858H20.769V37.588a.591.591,0,0,0-1.182,0v1.584H5.535V37.588a.591.591,0,0,0-1.182,0v1.584H1.182Zm37.991,4.7H36V37.589a.591.591,0,1,0-1.182,0v1.584h-9.7V35.248a9.623,9.623,0,0,0,3.76.755,9.376,9.376,0,0,0,5.2-1.527,7.947,7.947,0,0,0,2.824-3.22,5.726,5.726,0,0,1,2.267,4.553Z"/>
    </g>
  </g>
</svg>
