<svg xmlns="http://www.w3.org/2000/svg" xmlns:xlink="http://www.w3.org/1999/xlink" width="99.544" height="99.544" viewBox="0 0 99.544 99.544">
  <defs>
    <filter id="Trazado_904820" x="0" y="0" width="99.544" height="99.544" filterUnits="userSpaceOnUse">
      <feOffset dy="3" input="SourceAlpha"/>
      <feGaussianBlur stdDeviation="3" result="blur"/>
      <feFlood flood-opacity="0.161"/>
      <feComposite operator="in" in2="blur"/>
      <feComposite in="SourceGraphic"/>
    </filter>
  </defs>
  <g id="Grupo_1223749" data-name="Grupo 1223749" transform="translate(9 6)">
    <g id="Grupo_1173585" data-name="Grupo 1173585" transform="translate(0 0)">
      <g id="Grupo_1173428" data-name="Grupo 1173428">
        <g id="Grupo_1171958" data-name="Grupo 1171958">
          <g id="Grupo_1167341" data-name="Grupo 1167341">
            <g id="Grupo_1166792" data-name="Grupo 1166792">
              <g transform="matrix(1, 0, 0, 1, -9, -6)" filter="url(#Trazado_904820)">
                <g id="Trazado_904820-2" data-name="Trazado 904820" transform="translate(9 6)" fill="#f2f4f0">
                  <path d="M 40.77218246459961 80.04439544677734 C 35.46981811523438 80.04439544677734 30.32684135437012 79.00625610351562 25.48614692687988 76.95880889892578 C 20.80981826782227 74.98088836669922 16.6097354888916 72.14900970458984 13.00255870819092 68.54183197021484 C 9.395394325256348 64.93465423583984 6.563511848449707 60.73457336425781 4.585594177246094 56.05824661254883 C 2.538147211074829 51.2175407409668 1.500005960464478 46.0745735168457 1.500005960464478 40.77219772338867 C 1.500005960464478 35.46982192993164 2.538147211074829 30.32685661315918 4.585594177246094 25.48615074157715 C 6.563511848449707 20.80982208251953 9.395394325256348 16.60973930358887 13.00255870819092 13.00256252288818 C 16.6097354888916 9.3953857421875 20.80981826782227 6.563503742218018 25.48614692687988 4.585586071014404 C 30.32684135437012 2.538138866424561 35.46981811523438 1.499997735023499 40.77218246459961 1.499997735023499 C 46.07455825805664 1.499997735023499 51.21752548217773 2.538138866424561 56.05823135375977 4.585586071014404 C 60.73455810546875 6.563503742218018 64.93463897705078 9.3953857421875 68.54181671142578 13.00256252288818 C 72.14897918701172 16.60973930358887 74.98086547851562 20.80982208251953 76.95878601074219 25.48615074157715 C 79.00623321533203 30.32685661315918 80.04437255859375 35.46982192993164 80.04437255859375 40.77219772338867 C 80.04437255859375 46.0745735168457 79.00623321533203 51.2175407409668 76.95878601074219 56.05824661254883 C 74.98086547851562 60.73457336425781 72.14897918701172 64.93465423583984 68.54181671142578 68.54183197021484 C 64.93463897705078 72.14900970458984 60.73455810546875 74.98088836669922 56.05823135375977 76.95880889892578 C 51.21752548217773 79.00625610351562 46.07455825805664 80.04439544677734 40.77218246459961 80.04439544677734 Z" stroke="none"/>
                  <path d="M 40.77218246459961 3 C 35.67164993286133 3 30.72527694702148 3.998275756835938 26.07046127319336 5.967094421386719 C 21.57294082641602 7.869384765625 17.53311920166016 10.59331512451172 14.06320953369141 14.06322479248047 C 10.59331512451172 17.53311920166016 7.869384765625 21.57294464111328 5.967086791992188 26.07047653198242 C 3.998275756835938 30.72529220581055 2.999992370605469 35.67166519165039 2.999992370605469 40.77219772338867 C 2.999992370605469 45.87273025512695 3.998275756835938 50.81910705566406 5.967086791992188 55.47391510009766 C 7.869384765625 59.97145080566406 10.59331512451172 64.01126098632812 14.06320953369141 67.48117065429688 C 17.53311920166016 70.95108032226562 21.57294082641602 73.67501068115234 26.07046127319336 75.57730102539062 C 30.72527694702148 77.54611968994141 35.67164993286133 78.54439544677734 40.77218246459961 78.54439544677734 C 45.87271499633789 78.54439544677734 50.819091796875 77.54611968994141 55.47389984130859 75.57730102539062 C 59.97142028808594 73.67501068115234 64.01124572753906 70.95108032226562 67.48115539550781 67.48117065429688 C 70.9510498046875 64.01126098632812 73.67498016357422 59.97145080566406 75.57727813720703 55.47391510009766 C 77.54608917236328 50.81910705566406 78.54437255859375 45.87273025512695 78.54437255859375 40.77219772338867 C 78.54437255859375 35.67166519165039 77.54608917236328 30.72529220581055 75.57727813720703 26.07047653198242 C 73.67498016357422 21.57294464111328 70.9510498046875 17.53311920166016 67.48115539550781 14.06322479248047 C 64.01124572753906 10.59331512451172 59.97142028808594 7.869384765625 55.47389984130859 5.967094421386719 C 50.819091796875 3.998275756835938 45.87271499633789 3 40.77218246459961 3 M 40.77218246459961 0 C 63.29003524780273 0 81.54437255859375 18.25432968139648 81.54437255859375 40.77219772338867 C 81.54437255859375 63.2900505065918 63.29003524780273 81.54439544677734 40.77218246459961 81.54439544677734 C 18.25432968139648 81.54439544677734 -7.62939453125e-06 63.2900505065918 -7.62939453125e-06 40.77219772338867 C -7.62939453125e-06 18.25432968139648 18.25432968139648 0 40.77218246459961 0 Z" stroke="none" fill="#899e78"/>
                </g>
              </g>
            </g>
          </g>
        </g>
      </g>
    </g>
    <g id="XMLID_1_" transform="translate(-36.493 7.814)">
      <g id="XMLID_5931_" transform="translate(56.6 0.7)">
        <path id="XMLID_3864_" d="M173.831,9.885s-1.379-4.773-7.916-4.773V5.1C159.379,5.1,158,9.885,158,9.885Z" transform="translate(-146.366 -5.1)" fill="#35322b"/>
        <path id="XMLID_3844_" d="M311,176.716c3.058,0,4.558-2.015,4.558-4.186s-3.13-2.531-3.6-2.531Z" transform="translate(-281.016 -150.223)" fill="#ffc8bc"/>
        <path id="XMLID_3831_" d="M311,190.118,314.058,187s1.259,3.406-3.058,4.677Z" transform="translate(-281.016 -165.184)" fill="#f9a591"/>
        <path id="XMLID_3821_" d="M103.558,176.716c-3.058,0-4.558-2.015-4.558-4.186S102.13,170,102.6,170Z" transform="translate(-94.442 -150.223)" fill="#ffc8bc"/>
        <path id="XMLID_3820_" d="M113.3,190.118,110.246,187s-1.259,3.406,3.058,4.677Z" transform="translate(-104.189 -165.184)" fill="#f9a591"/>
        <path id="XMLID_3819_" d="M134.186,45.911s2.4-.66,2.4-5.217S133.047,29,122.793,29,109,36.136,109,40.694s2.4,5.217,2.4,5.217" transform="translate(-103.243 -26.134)" fill="#504c43"/>
        <path id="XMLID_3656_" d="M84.148,286.9h-7.2v4.558L63.771,297.61A4.783,4.783,0,0,0,61,301.952v11.334h39.1V301.952a4.814,4.814,0,0,0-2.771-4.354l-13.181-6.141Z" transform="translate(-61 -253.102)" fill="#504c43"/>
        <path id="XMLID_3655_" d="M188.274,302.472c0,2.735-2.039,10.914-2.039,10.914h-7.2S177,305.194,177,302.472s2.039-10.914,2.039-10.914V287h7.2v4.558S188.274,299.749,188.274,302.472Z" transform="translate(-163.087 -253.19)" fill="#ffc8bc"/>
        <path id="XMLID_3956_" d="M194,287v3.514a24.829,24.829,0,0,0,3.6,1.4,24.829,24.829,0,0,0,3.6-1.4V287Z" transform="translate(-178.049 -253.19)" fill="#f9a591"/>
        <path id="XMLID_3654_" d="M177.742,368.7a8.5,8.5,0,0,1-9.571,0L166,374.373v10.914h13.912V374.373Z" transform="translate(-153.407 -325.091)" fill="#d8d6c1"/>
        <path id="XMLID_3653_" d="M144.721,325l-6.7,3.13L140.439,331l-2.423,5.361s-.432,7.2,4.03,10.47h2.675s-2.039-8.192-2.039-10.914S144.721,325,144.721,325Z" transform="translate(-128.77 -286.633)" fill="#6d6759"/>
        <path id="XMLID_1411_" d="M254,325l6.7,3.13L258.282,331l2.423,5.361s.432,7.2-4.03,10.47H254s2.039-8.192,2.039-10.914S254,325,254,325Z" transform="translate(-230.852 -286.633)" fill="#6d6759"/>
        <g id="Grupo_1223791" data-name="Grupo 1223791" transform="translate(2.219 41.222)">
          <path id="XMLID_1410_" d="M134.38,357.435l2.375-5.253a.611.611,0,0,0-.084-.636l-2.315-2.746-1.127.528,2.291,2.711-2.267,5.013a.47.47,0,0,0-.048.216c-.012.288-.372,6.92,3.682,10.506h1.967l-.66-.48C134.308,364.452,134.344,358.323,134.38,357.435Z" transform="translate(-126.752 -348.8)" fill="#35322b"/>
          <path id="XMLID_1409_" d="M272.074,357.435l-2.375-5.253a.611.611,0,0,1,.084-.636L272.1,348.8l1.127.528-2.291,2.711,2.267,5.013a.47.47,0,0,1,.048.216c.012.288.372,6.92-3.682,10.506H267.6l.66-.48C272.146,364.452,272.11,358.323,272.074,357.435Z" transform="translate(-245.04 -348.8)" fill="#35322b"/>
          <path id="XMLID_1407_" d="M79.5,374.652l1.751,7.724,1.175-.264L80.615,374.1l-.552.264A4.14,4.14,0,0,0,79.5,374.652Z" transform="translate(-79.5 -371.066)" fill="#35322b"/>
        </g>
        <path id="XMLID_1383_" d="M151.788,100.475s-.408,8.132-2.878,11.478c-2.519,3.394-8.515,5.073-8.515,5.073s-6-1.679-8.515-5.073c-2.471-3.334-2.878-11.478-2.878-11.478,3.2,0,11.394-9.475,11.394-9.475S148.585,100.475,151.788,100.475Z" transform="translate(-120.844 -80.698)" fill="#ffc8bc"/>
        <g id="XMLID_1382_" transform="translate(9.115 19.166)">
          <path id="XMLID_3858_" d="M150.276,171.319S150.359,176,146.2,176s-4.2-6-4.2-6A22.677,22.677,0,0,1,150.276,171.319Z" transform="translate(-141.4 -169.388)" fill="#d8d6c1"/>
          <path id="XMLID_3859_" d="M141.8,172.108c-3.766,0-4.785-4.318-4.8-6.6a.615.615,0,0,1,.6-.612,23.071,23.071,0,0,1,8.515,1.367.589.589,0,0,1,.36.54,6.252,6.252,0,0,1-1.487,4.054A4.273,4.273,0,0,1,141.8,172.108Zm-3.562-5.985a9.074,9.074,0,0,0,.48,2.219c.612,1.7,1.643,2.567,3.082,2.567a3.111,3.111,0,0,0,2.327-.876,4.661,4.661,0,0,0,1.127-2.794A23.4,23.4,0,0,0,138.235,166.123Z" transform="translate(-137 -164.9)" fill="#d84861"/>
        </g>
        <g id="XMLID_1381_" transform="translate(20.509 19.178)">
          <path id="XMLID_3848_" d="M237,171.319S236.915,176,241.077,176s4.2-6,4.2-6A22.677,22.677,0,0,0,237,171.319Z" transform="translate(-236.399 -169.4)" fill="#d8d6c1"/>
          <path id="XMLID_3850_" d="M236.677,172.2a4.311,4.311,0,0,1-3.19-1.235A6.217,6.217,0,0,1,232,166.907a.589.589,0,0,1,.36-.54A23.071,23.071,0,0,1,240.875,165a.563.563,0,0,1,.42.18.617.617,0,0,1,.18.432C241.463,167.878,240.443,172.2,236.677,172.2Zm-3.454-4.869a4.738,4.738,0,0,0,1.127,2.794,3.158,3.158,0,0,0,2.327.876c1.439,0,2.471-.864,3.082-2.579a9.674,9.674,0,0,0,.48-2.219A23.674,23.674,0,0,0,233.223,167.327Z" transform="translate(-232 -165)" fill="#d84861"/>
        </g>
        <g id="XMLID_1380_" transform="translate(17.99 20.497)">
          <path id="XMLID_3849_" d="M211,176h3.118v1.2H211Z" transform="translate(-211 -176)" fill="#d84861"/>
        </g>
        <path id="XMLID_1379_" d="M326.911,348.212l-7.676,5.745h-1.559L310,348.212V333.1l7.676,5.745h1.559l7.676-5.745Z" transform="translate(-280.136 -293.761)" fill="#d84861"/>
        <path id="XMLID_870_" d="M374,338.757v15.112h1.559l7.676-5.745V333l-7.676,5.757Z" transform="translate(-336.46 -293.673)" fill="#c22945"/>
        <path id="XMLID_1377_" d="M325.064,314c-1.991,0-6.668,2.7-6.668,4.857,0-2.159-4.558-4.857-6.548-4.857L310,316.291l7.676,5.745h1.559l7.676-5.745Z" transform="translate(-280.136 -276.952)" fill="#d8d6c1"/>
        <g id="XMLID_1376_" transform="translate(37.66 41.965)">
          <path id="XMLID_3869_" d="M375,355h1.2v3.118H375Z" transform="translate(-375 -355)" fill="#c5c2a1"/>
        </g>
        <g id="XMLID_1375_" transform="translate(30.57 37.521)">
          <path id="XMLID_3868_" d="M0,0H9.007V1.2H0Z" transform="translate(0.688 0) rotate(35.025)" fill="#c5c2a1"/>
        </g>
        <g id="XMLID_1374_" transform="translate(37.969 37.444)">
          <path id="XMLID_3866_" d="M0,0H1.2V9H0Z" transform="translate(7.331 0) rotate(54.609)" fill="#c5c2a1"/>
        </g>
        <path id="XMLID_1373_" d="M406.078,372.3v3.358L402,378.717v-3.358Z" transform="translate(-361.102 -328.26)" fill="#d8d6c1"/>
        <path id="XMLID_3817_" d="M250.8,181.618a3.878,3.878,0,0,0-2.159-.72,4.632,4.632,0,0,0-2.159.7l-.48,1.463h3.358A1.436,1.436,0,0,0,250.8,181.618Z" transform="translate(-223.812 -159.814)" fill="#ebebdf"/>
        <path id="XMLID_3816_" d="M162,181.618a3.878,3.878,0,0,1,2.159-.72,4.632,4.632,0,0,1,2.159.7l.48,1.463h-3.358A1.436,1.436,0,0,1,162,181.618Z" transform="translate(-149.887 -159.814)" fill="#ebebdf"/>
        <g id="XMLID_3814_" transform="translate(13.313 21.097)">
          <path id="XMLID_3815_" d="M172,181h1.2v2.159H172Z" transform="translate(-172 -181)" fill="#35322b"/>
        </g>
        <g id="XMLID_3812_" transform="translate(14.032 21.097)">
          <path id="XMLID_3813_" d="M178,181h1.2v2.159H178Z" transform="translate(-178 -181)" fill="#35322b"/>
        </g>
        <g id="XMLID_1405_" transform="translate(24.587 21.097)">
          <path id="XMLID_1406_" d="M266,181h1.2v2.159H266Z" transform="translate(-266 -181)" fill="#35322b"/>
        </g>
        <g id="XMLID_1403_" transform="translate(23.867 21.097)">
          <path id="XMLID_1404_" d="M260,181h1.2v2.159H260Z" transform="translate(-260 -181)" fill="#35322b"/>
        </g>
        <g id="XMLID_1401_" transform="translate(11.634 20.497)">
          <path id="XMLID_1402_" d="M158.48,177.919H158v-1.2h.3a4.287,4.287,0,0,1,2.339-.72h.024a4.383,4.383,0,0,1,2.123.612,1.716,1.716,0,0,0,.228.108l-.408,1.127c-.12-.048-.24-.108-.384-.18a3.147,3.147,0,0,0-1.547-.48h-.012a3.2,3.2,0,0,0-1.823.612A.615.615,0,0,1,158.48,177.919Z" transform="translate(-158 -176)" fill="#35322b"/>
        </g>
        <g id="XMLID_1398_" transform="translate(22.464 20.509)">
          <path id="XMLID_1400_" d="M253.3,178.005h-.48a.625.625,0,0,1-.348-.108,3.169,3.169,0,0,0-1.823-.612h-.012a3.105,3.105,0,0,0-1.547.48,2.662,2.662,0,0,1-.384.18l-.408-1.127c.036-.012.144-.072.228-.108a4.119,4.119,0,0,1,4.486.108h.3v1.187Z" transform="translate(-248.3 -176.098)" fill="#35322b"/>
        </g>
        <g id="XMLID_1395_" transform="translate(15.748 28.377)">
          <path id="XMLID_1396_" d="M196.1,244.147a5.187,5.187,0,0,1-3.8-1.643l.9-.8a4.065,4.065,0,0,0,2.914,1.235h.036a3.953,3.953,0,0,0,2.866-1.235l.9.8a5.218,5.218,0,0,1-3.754,1.643Z" transform="translate(-192.3 -241.7)" fill="#d84861"/>
        </g>
        <g id="XMLID_1393_" transform="translate(11.322 16.899)">
          <path id="XMLID_1394_" d="M156.012,147.835,155.4,146.8a5.735,5.735,0,0,1,2.938-.8h.036a5.917,5.917,0,0,1,2.914.8l-.612,1.031a4.55,4.55,0,0,0-2.3-.636A4.6,4.6,0,0,0,156.012,147.835Z" transform="translate(-155.4 -146)" fill="#35322b"/>
        </g>
        <g id="XMLID_1391_" transform="translate(21.888 16.899)">
          <path id="XMLID_1392_" d="M248.777,147.833a4.641,4.641,0,0,0-2.363-.636,4.512,4.512,0,0,0-2.3.636L243.5,146.8a5.877,5.877,0,0,1,2.914-.8,5.73,5.73,0,0,1,2.974.8Z" transform="translate(-243.5 -145.998)" fill="#35322b"/>
        </g>
      </g>
      <g id="XMLID_446_" transform="translate(56 0.1)">
        <g id="XMLID_1253_" transform="translate(9.223 38.346)">
          <path id="XMLID_4361_" d="M140.227,342.875h-2.675a.566.566,0,0,1-.36-.12c-4.677-3.43-4.294-10.686-4.282-11a.7.7,0,0,1,.048-.216l2.267-5.013-2.183-2.579a.6.6,0,0,1,.2-.936l6.7-3.13a.589.589,0,0,1,.636.084.625.625,0,0,1,.2.612c-.024.084-2.027,8.144-2.027,10.77s2,10.686,2.027,10.77a.609.609,0,0,1-.108.516A.533.533,0,0,1,140.227,342.875Zm-2.471-1.2h1.7c-.5-2.1-1.871-8.012-1.871-10.314,0-2.159,1.187-7.436,1.763-9.847l-4.869,2.267,1.919,2.267a.611.611,0,0,1,.084.636l-2.375,5.253C134.086,332.812,134.05,338.8,137.756,341.675Z" transform="translate(-132.899 -319.826)" fill="#272526"/>
        </g>
        <g id="XMLID_1252_" transform="translate(23.152 38.362)">
          <path id="XMLID_4358_" d="M252.309,342.987h-2.675a.591.591,0,0,1-.468-.228.608.608,0,0,1-.108-.516c.024-.084,2.027-8.144,2.027-10.77s-2-10.686-2.027-10.77a.6.6,0,0,1,.2-.612.611.611,0,0,1,.636-.084l6.7,3.13a.628.628,0,0,1,.336.42.621.621,0,0,1-.132.516l-2.183,2.579,2.267,5.013a.47.47,0,0,1,.048.216c.024.312.4,7.568-4.282,11A.6.6,0,0,1,252.309,342.987Zm-1.907-1.2h1.7c3.718-2.89,3.67-8.863,3.646-9.739l-2.375-5.253a.611.611,0,0,1,.084-.636l1.919-2.267-4.869-2.267c.576,2.411,1.763,7.688,1.763,9.847C252.273,333.776,250.906,339.688,250.4,341.787Z" transform="translate(-249.04 -319.954)" fill="#272526"/>
        </g>
        <g id="XMLID_1251_" transform="translate(2.801 44.975)">
          <path id="XMLID_4357_" d="M0,0H8.084V1.2H0Z" transform="matrix(0.221, 0.975, -0.975, 0.221, 1.169, 0)" fill="#272526"/>
        </g>
        <g id="XMLID_1250_" transform="translate(14.98 43.74)">
          <path id="XMLID_4356_" d="M186.069,367.343a8.481,8.481,0,0,1-5.169-1.619l.768-.924-.384.468.384-.468a7.444,7.444,0,0,0,4.4,1.343,7.357,7.357,0,0,0,4.4-1.343l.768.924a8.481,8.481,0,0,1-5.169,1.619Z" transform="translate(-180.9 -364.8)" fill="#272526"/>
        </g>
        <g id="XMLID_1103_" transform="translate(6.222 21.995)">
          <path id="XMLID_4354_" d="M0,0H3.79V1.2H0Z" transform="matrix(0.7, 0.714, -0.714, 0.7, 0.856, 0)" fill="#272526"/>
        </g>
        <g id="XMLID_1102_" transform="translate(30.568 21.987)">
          <path id="XMLID_4353_" d="M0,0H1.2V3.79H0Z" transform="matrix(0.714, 0.7, -0.7, 0.714, 2.653, 0)" fill="#272526"/>
        </g>
        <g id="XMLID_1100_" transform="translate(16.347 28.976)">
          <path id="XMLID_4352_" d="M196.1,244.147a5.187,5.187,0,0,1-3.8-1.643l.9-.8a4.065,4.065,0,0,0,2.914,1.235h.036a3.953,3.953,0,0,0,2.866-1.235l.9.8a5.218,5.218,0,0,1-3.754,1.643Z" transform="translate(-192.3 -241.7)" fill="#272526"/>
        </g>
        <g id="XMLID_1099_" transform="translate(11.922 17.499)">
          <path id="XMLID_4349_" d="M156.012,147.835,155.4,146.8a5.735,5.735,0,0,1,2.938-.8h.036a5.917,5.917,0,0,1,2.914.8l-.612,1.031a4.55,4.55,0,0,0-2.3-.636h-.024A4.7,4.7,0,0,0,156.012,147.835Z" transform="translate(-155.4 -146)" fill="#272526"/>
        </g>
        <g id="XMLID_1098_" transform="translate(13.912 21.696)">
          <path id="XMLID_4348_" d="M172,181h1.2v2.159H172Z" transform="translate(-172 -181)" fill="#272526"/>
        </g>
        <g id="XMLID_1097_" transform="translate(14.632 21.696)">
          <path id="XMLID_4347_" d="M178,181h1.2v2.159H178Z" transform="translate(-178 -181)" fill="#272526"/>
        </g>
        <g id="XMLID_1096_" transform="translate(12.233 21.097)">
          <path id="XMLID_4346_" d="M158.48,177.919H158v-1.2h.3a4.287,4.287,0,0,1,2.339-.72h.024a4.383,4.383,0,0,1,2.123.612,1.716,1.716,0,0,0,.228.108l-.408,1.127c-.12-.048-.24-.108-.384-.18a3.147,3.147,0,0,0-1.547-.48h-.012a3.2,3.2,0,0,0-1.823.612A.615.615,0,0,1,158.48,177.919Z" transform="translate(-158 -176)" fill="#272526"/>
        </g>
        <g id="XMLID_1095_" transform="translate(22.488 17.499)">
          <path id="XMLID_4345_" d="M248.777,147.835a4.764,4.764,0,0,0-2.363-.636,4.475,4.475,0,0,0-2.3.636L243.5,146.8a5.8,5.8,0,0,1,5.889,0Z" transform="translate(-243.5 -146)" fill="#272526"/>
        </g>
        <g id="XMLID_1094_" transform="translate(25.186 21.696)">
          <path id="XMLID_4344_" d="M266,181h1.2v2.159H266Z" transform="translate(-266 -181)" fill="#272526"/>
        </g>
        <g id="XMLID_1093_" transform="translate(24.467 21.696)">
          <path id="XMLID_4343_" d="M260,181h1.2v2.159H260Z" transform="translate(-260 -181)" fill="#272526"/>
        </g>
        <g id="XMLID_1092_" transform="translate(23.064 21.109)">
          <path id="XMLID_4342_" d="M253.3,178.007h-.48a.625.625,0,0,1-.348-.108,3.169,3.169,0,0,0-1.823-.612h-.012a3.105,3.105,0,0,0-1.547.48,2.66,2.66,0,0,1-.384.18l-.408-1.127c.036-.012.144-.072.228-.108a4.383,4.383,0,0,1,2.123-.612h.024a4.288,4.288,0,0,1,2.339.72h.3v1.187Z" transform="translate(-248.3 -176.1)" fill="#272526"/>
        </g>
        <g id="XMLID_1085_" transform="translate(4.558 19.777)">
          <g id="XMLID_1087_">
            <path id="XMLID_4341_" d="M99.157,172.916A4.764,4.764,0,0,1,94,168.13c0-2.579,3.37-3.13,4.2-3.13v1.2c-.036,0-3,.2-3,1.931,0,1.655,1.031,3.586,3.958,3.586Z" transform="translate(-94 -165)" fill="#272526"/>
          </g>
          <g id="XMLID_1086_" transform="translate(26.026)">
            <path id="XMLID_4340_" d="M311,172.916v-1.2c2.926,0,3.958-1.931,3.958-3.586,0-1.727-2.974-1.931-3-1.931V165c.828,0,4.2.552,4.2,3.13A4.765,4.765,0,0,1,311,172.916Z" transform="translate(-311 -165)" fill="#272526"/>
          </g>
        </g>
        <g id="XMLID_1192_" transform="translate(5.757 2.866)">
          <path id="XMLID_4339_" d="M129.942,42.086l-.324-1.151.156.576-.168-.576c.084-.024,1.967-.66,1.967-4.641.012-4.462-3.5-11.094-13.181-11.094S105.2,31.832,105.2,36.293c0,3.982,1.883,4.618,1.967,4.641l-.324,1.151c-.12-.036-2.842-.84-2.842-5.793S107.838,24,118.392,24s14.392,7.352,14.392,12.293-2.723,5.769-2.842,5.793Z" transform="translate(-104 -24)" fill="#272526"/>
        </g>
        <g id="XMLID_1191_" transform="translate(11.658 0)">
          <path id="XMLID_4338_" d="M169.031,5.653c-.048-.18-1.367-4.342-7.34-4.342a.2.2,0,0,1-.084-.012c-5.937.036-7.244,4.306-7.256,4.354L153.2,5.317a6.729,6.729,0,0,1,1.655-2.639A9.124,9.124,0,0,1,161.691.1a.264.264,0,0,1,.1.012,9.15,9.15,0,0,1,6.752,2.567,7,7,0,0,1,1.655,2.639Z" transform="translate(-153.2 -0.1)" fill="#272526"/>
        </g>
        <g id="XMLID_1315_" transform="translate(8.154 10.29)">
          <path id="XMLID_4335_" d="M135.982,113.137a.608.608,0,0,1-.156-.024c-.252-.072-6.225-1.775-8.839-5.3-2.555-3.442-2.974-11.466-3-11.8a.561.561,0,0,1,.168-.444.6.6,0,0,1,.432-.192c2.135,0,7.844-5.685,10.938-9.271a.583.583,0,0,1,.456-.2.6.6,0,0,1,.456.2c3.094,3.586,8.815,9.271,10.938,9.271a.581.581,0,0,1,.432.192.658.658,0,0,1,.168.444c-.012.336-.444,8.359-3,11.8-2.615,3.526-8.587,5.229-8.839,5.3A.608.608,0,0,1,135.982,113.137ZM125.224,96.5c.144,1.859.744,7.928,2.723,10.6,2.147,2.89,7.076,4.51,8.036,4.809.959-.288,5.889-1.919,8.036-4.809,1.979-2.663,2.579-8.743,2.723-10.6-1.511-.36-3.706-1.955-6.68-4.821-1.763-1.7-3.334-3.43-4.078-4.258-.744.828-2.315,2.555-4.078,4.258-2.974,2.866-5.169,4.462-6.68,4.821Z" transform="translate(-123.987 -85.9)" fill="#272526"/>
        </g>
        <g id="XMLID_652_" transform="translate(9.715 19.765)">
          <path id="XMLID_4332_" d="M141.8,172.108c-3.766,0-4.785-4.318-4.8-6.6a.615.615,0,0,1,.6-.612,23.071,23.071,0,0,1,8.515,1.367.589.589,0,0,1,.36.54,6.252,6.252,0,0,1-1.487,4.054A4.273,4.273,0,0,1,141.8,172.108Zm-3.562-5.985a9.074,9.074,0,0,0,.48,2.219c.612,1.7,1.643,2.567,3.082,2.567a3.111,3.111,0,0,0,2.327-.876,4.661,4.661,0,0,0,1.127-2.794A23.4,23.4,0,0,0,138.235,166.123Z" transform="translate(-137 -164.9)" fill="#272526"/>
        </g>
        <g id="XMLID_653_" transform="translate(21.109 19.777)">
          <path id="XMLID_4329_" d="M236.677,172.2a4.311,4.311,0,0,1-3.19-1.235A6.217,6.217,0,0,1,232,166.907a.589.589,0,0,1,.36-.54A23.071,23.071,0,0,1,240.875,165a.563.563,0,0,1,.42.18.617.617,0,0,1,.18.432C241.463,167.878,240.443,172.2,236.677,172.2Zm-3.454-4.869a4.738,4.738,0,0,0,1.127,2.794,3.158,3.158,0,0,0,2.327.876c1.439,0,2.471-.864,3.082-2.579a9.674,9.674,0,0,0,.48-2.219A23.674,23.674,0,0,0,233.223,167.327Z" transform="translate(-232 -165)" fill="#272526"/>
        </g>
        <g id="XMLID_1316_" transform="translate(18.59 21.097)">
          <path id="XMLID_4328_" d="M211,176h3.118v1.2H211Z" transform="translate(-211 -176)" fill="#272526"/>
        </g>
        <g id="XMLID_2466_" transform="translate(29.864 39.926)">
          <path id="XMLID_4327_" d="M314.835,354.468h-1.559a.646.646,0,0,1-.36-.12L305.24,348.6a.575.575,0,0,1-.24-.48V333h1.2v14.824l7.28,5.445h1.163l7.28-5.445V335.4h1.2v12.725a.575.575,0,0,1-.24.48l-7.688,5.745A.566.566,0,0,1,314.835,354.468Z" transform="translate(-305 -333)" fill="#272526"/>
        </g>
        <g id="XMLID_1320_" transform="translate(29.858 37.036)">
          <path id="XMLID_4324_" d="M314.79,318.147h-1.559a.646.646,0,0,1-.36-.12l-7.676-5.745a.6.6,0,0,1-.24-.408.587.587,0,0,1,.132-.456l1.847-2.291a.591.591,0,0,1,.468-.228,8.914,8.914,0,0,1,4.354,1.727,8.616,8.616,0,0,1,2.207,2.075c1.415-2.027,4.941-3.79,6.656-3.79a.609.609,0,0,1,.468.228l1.847,2.291a.6.6,0,0,1-.108.864l-7.676,5.733A.646.646,0,0,1,314.79,318.147Zm-1.355-1.2H314.6l7.016-5.253-1.259-1.559c-1.895.228-5.793,2.627-5.793,4.246a.6.6,0,1,1-1.2,0c0-.744-.864-1.787-2.267-2.747a9.048,9.048,0,0,0-3.406-1.5l-1.259,1.559Z" transform="translate(-304.949 -308.9)" fill="#272526"/>
        </g>
        <g id="XMLID_1317_" transform="translate(38.259 42.565)">
          <path id="XMLID_4323_" d="M375,355h1.2v3.118H375Z" transform="translate(-375 -355)" fill="#272526"/>
        </g>
        <g id="XMLID_1319_" transform="translate(31.169 38.121)">
          <path id="XMLID_4322_" d="M0,0H9.007V1.2H0Z" transform="translate(0.688 0) rotate(35.025)" fill="#272526"/>
        </g>
        <g id="XMLID_1321_" transform="translate(38.569 38.044)">
          <path id="XMLID_4321_" d="M0,0H1.2V9H0Z" transform="translate(7.331 0) rotate(54.609)" fill="#272526"/>
        </g>
        <g id="XMLID_1105_" transform="translate(40.898 44.042)">
          <path id="XMLID_4318_" d="M397.6,374.928a.655.655,0,0,1-.264-.06.6.6,0,0,1-.336-.54V370.97a.575.575,0,0,1,.24-.48l4.078-3.058a.614.614,0,0,1,.624-.06.6.6,0,0,1,.336.54v3.358a.575.575,0,0,1-.24.48l-4.078,3.058A.646.646,0,0,1,397.6,374.928Zm.6-3.658v1.859l2.878-2.159v-1.859Z" transform="translate(-397 -367.313)" fill="#272526"/>
        </g>
        <g id="XMLID_3805_" transform="translate(23.148 35.873)">
          <path id="XMLID_3734_" d="M249,299.2h1.2v3.094H249Z" transform="translate(-249 -299.2)" fill="#272526"/>
        </g>
        <g id="XMLID_3306_" transform="translate(0 35.909)">
          <path id="XMLID_3733_" d="M90.541,324.974H56.6a.594.594,0,0,1-.6-.6V313.041a5.425,5.425,0,0,1,3.118-4.893l12.833-5.985V299.5h1.2v3.046a.591.591,0,0,1-.348.54l-13.181,6.153a4.206,4.206,0,0,0-2.423,3.8v10.734H90.541Z" transform="translate(-56 -299.5)" fill="#272526"/>
        </g>
      </g>
    </g>
  </g>
</svg>
