<svg xmlns="http://www.w3.org/2000/svg" xmlns:xlink="http://www.w3.org/1999/xlink" width="85.895" height="85.895" viewBox="0 0 85.895 85.895">
  <defs>
    <filter id="Trazado_904820" x="0" y="0" width="85.895" height="85.895" filterUnits="userSpaceOnUse">
      <feOffset dy="3" input="SourceAlpha"/>
      <feGaussianBlur stdDeviation="3" result="blur"/>
      <feFlood flood-opacity="0.161"/>
      <feComposite operator="in" in2="blur"/>
      <feComposite in="SourceGraphic"/>
    </filter>
    <clipPath id="clip-path">
      <path id="path21" d="M0-682.665H41.459v41.459H0Z" transform="translate(0 682.665)"/>
    </clipPath>
  </defs>
  <g id="Grupo_1223388" data-name="Grupo 1223388" transform="translate(-613.776 -7996.053)">
    <g id="Grupo_1223166" data-name="Grupo 1223166" transform="translate(622.776 8002.053)">
      <g id="Grupo_1173585" data-name="Grupo 1173585" transform="translate(0 0)">
        <g id="Grupo_1173428" data-name="Grupo 1173428">
          <g id="Grupo_1171958" data-name="Grupo 1171958">
            <g id="Grupo_1167341" data-name="Grupo 1167341">
              <g id="Grupo_1166792" data-name="Grupo 1166792">
                <g transform="matrix(1, 0, 0, 1, -9, -6)" filter="url(#Trazado_904820)">
                  <g id="Trazado_904820-2" data-name="Trazado 904820" transform="translate(9 6)" fill="#fcf5f0">
                    <path d="M 33.947265625 66.39455413818359 C 29.56625556945801 66.39455413818359 25.31708526611328 65.536865234375 21.31778526306152 63.84530639648438 C 17.45416641235352 62.21112823486328 13.98396587371826 59.87134552001953 11.00358581542969 56.89096832275391 C 8.023205757141113 53.91057586669922 5.683425426483154 50.44037628173828 4.049255847930908 46.57675552368164 C 2.357695579528809 42.57745742797852 1.500005602836609 38.32828521728516 1.500005602836609 33.9472770690918 C 1.500005602836609 29.56625747680664 2.357695579528809 25.31708717346191 4.049255847930908 21.31778717041016 C 5.683425426483154 17.45416641235352 8.023205757141113 13.98396682739258 11.00358581542969 11.003586769104 C 13.98396587371826 8.023197174072266 17.45416641235352 5.683416843414307 21.31778526306152 4.049247264862061 C 25.31707572937012 2.357686996459961 29.56625556945801 1.499997019767761 33.947265625 1.499997019767761 C 38.32827377319336 1.499997019767761 42.57745742797852 2.357686996459961 46.57674407958984 4.049247264862061 C 50.44036483764648 5.683416843414307 53.91056442260742 8.023197174072266 56.89094543457031 11.003586769104 C 59.87133407592773 13.98396682739258 62.21111679077148 17.45416641235352 63.84528732299805 21.31778717041016 C 65.53684234619141 25.31708717346191 66.39453887939453 29.56625747680664 66.39453887939453 33.9472770690918 C 66.39453887939453 38.32828521728516 65.53684234619141 42.57745742797852 63.84528732299805 46.57675552368164 C 62.21111679077148 50.44037628173828 59.87133407592773 53.91057586669922 56.89094543457031 56.89096832275391 C 53.91056442260742 59.87134552001953 50.44036483764648 62.21112823486328 46.57674407958984 63.84530639648438 C 42.57745742797852 65.536865234375 38.32827377319336 66.39455413818359 33.947265625 66.39455413818359 Z" stroke="none"/>
                    <path d="M 33.947265625 3 C 29.76808929443359 3 25.71552276611328 3.817825317382812 21.9021110534668 5.430755615234375 C 18.21730041503906 6.989311218261719 14.90735626220703 9.221134185791016 12.06424331665039 12.06424331665039 C 9.221134185791016 14.90735626220703 6.989311218261719 18.21730041503906 5.430755615234375 21.90212249755859 C 3.817817687988281 25.71552276611328 3 29.76810073852539 3 33.9472770690918 C 3 38.12645721435547 3.817817687988281 42.17902374267578 5.430755615234375 45.99242401123047 C 6.989311218261719 49.67724609375 9.221134185791016 52.98719024658203 12.06424331665039 55.83029937744141 C 14.90735626220703 58.67340850830078 18.21730041503906 60.90524291992188 21.90212249755859 62.46379852294922 C 25.71552276611328 64.07673645019531 29.76808929443359 64.89455413818359 33.947265625 64.89455413818359 C 38.12644195556641 64.89455413818359 42.17900848388672 64.07673645019531 45.99240875244141 62.46379852294922 C 49.67723083496094 60.90524291992188 52.98717498779297 58.67340850830078 55.83028793334961 55.83029937744141 C 58.67340087890625 52.98719024658203 60.90522003173828 49.67724609375 62.46377563476562 45.99242401123047 C 64.07671356201172 42.17902374267578 64.89453125 38.12645721435547 64.89453125 33.9472770690918 C 64.89453125 29.76810073852539 64.07671356201172 25.71552276611328 62.46377563476562 21.90212249755859 C 60.90522003173828 18.21730041503906 58.67340087890625 14.90735626220703 55.83028793334961 12.06424331665039 C 52.98717498779297 9.221134185791016 49.67723083496094 6.989311218261719 45.99242401123047 5.430755615234375 C 42.17900848388672 3.817825317382812 38.12644195556641 3 33.947265625 3 M 33.947265625 0 C 52.69581985473633 0 67.89453125 15.19871139526367 67.89453125 33.9472770690918 C 67.89453125 52.69582366943359 52.69581985473633 67.89455413818359 33.947265625 67.89455413818359 C 15.19871139526367 67.89455413818359 0 52.69582366943359 0 33.9472770690918 C 0 15.19871139526367 15.19871139526367 0 33.947265625 0 Z" stroke="none" fill="#eca675"/>
                  </g>
                </g>
              </g>
            </g>
          </g>
        </g>
      </g>
    </g>
    <g id="g15" transform="translate(635.994 8697.936)">
      <g id="g17" transform="translate(0 -682.665)">
        <g id="g19" clip-path="url(#clip-path)">
          <g id="g25" transform="translate(29.877 24.871)">
            <path id="path27" d="M0,0H10.157V14.98a.818.818,0,0,1-.818.818H0Z" fill="#e69642"/>
          </g>
          <g id="g29" transform="translate(29.877 25.846)">
            <path id="path31" d="M-157.09-48.774a3.415,3.415,0,0,0-1.946-.614h-3.472a3.4,3.4,0,0,0-3.287-2.539h-1.453V-37.1h9.339a.818.818,0,0,0,.818-.818Z" transform="translate(167.248 51.928)" fill="#e38523"/>
          </g>
          <g id="g33" transform="translate(29.055 19.963)">
            <path id="path35" d="M-169.8-75.905h-10.161a.818.818,0,0,1-.818-.818V-80a.818.818,0,0,1,.818-.818H-169.8a.818.818,0,0,1,.818.818v3.272a.818.818,0,0,1-.818.818" transform="translate(180.782 80.813)" fill="#e6f7fe"/>
          </g>
          <g id="g37" transform="translate(37.52 19.963)">
            <path id="path39" d="M-38.883,0H-41.4a.818.818,0,0,1,.818.818V4.09a.818.818,0,0,1-.818.818h2.514a.818.818,0,0,0,.818-.818V.818A.818.818,0,0,0-38.883,0" transform="translate(41.397)" fill="#d3effd"/>
          </g>
          <g id="g41" transform="translate(0.79 29.877)">
            <path id="path43" d="M-244.326,0V10.157h-14.98a.818.818,0,0,1-.818-.818V0Z" transform="translate(260.123)" fill="#ad7fdd"/>
          </g>
          <g id="g45" transform="translate(0.79 29.877)">
            <path id="path47" d="M0,0V9.339a.818.818,0,0,0,.818.818H11.67a3.378,3.378,0,0,0,.614-1.946V4.74a3.4,3.4,0,0,0,2.539-3.287V0Z" fill="#9d66d6"/>
          </g>
          <g id="g49" transform="translate(21.496 27.972)">
            <path id="path51" d="M-235.961-177.442a1.27,1.27,0,0,0-1.269-1.316h2.346a1.29,1.29,0,0,0,1.3-1.223,1.27,1.27,0,0,0-1.269-1.316h.873a1.29,1.29,0,0,0,1.3-1.223,1.27,1.27,0,0,0-1.269-1.316h-.707a1.29,1.29,0,0,0,1.3-1.223,1.27,1.27,0,0,0-1.269-1.316h-6.758a1.27,1.27,0,0,0,1.27-1.27,1.27,1.27,0,0,0-1.27-1.27h-3.034a3.809,3.809,0,0,0-2.285.762l-.508.381a3.809,3.809,0,0,1-2.285.762h-1.721v10.157h2.366a5.077,5.077,0,0,1,1.232.152l1.326.332a5.078,5.078,0,0,0,1.232.152h7.8a1.29,1.29,0,0,0,1.3-1.223" transform="translate(251.218 188.916)" fill="#fed2a4"/>
          </g>
          <g id="g53" transform="translate(26.446 30.512)">
            <path id="path55" d="M-210.144-59.625a1.27,1.27,0,0,0-1.269-1.316h-.707a1.29,1.29,0,0,0,1.3-1.223,1.27,1.27,0,0,0-1.269-1.316h-2.59a12.386,12.386,0,0,1-3.61,6.676,13.005,13.005,0,0,1-5.442,3.336,5.077,5.077,0,0,0,1.206.146h7.8a1.29,1.29,0,0,0,1.3-1.223,1.27,1.27,0,0,0-1.269-1.316h2.346a1.29,1.29,0,0,0,1.3-1.223,1.27,1.27,0,0,0-1.269-1.316h.873a1.289,1.289,0,0,0,1.3-1.223" transform="translate(223.731 63.48)" fill="#ffbd86"/>
          </g>
          <g id="g57" transform="translate(16.588 29.055)">
            <path id="path59" d="M0-169.8v-10.161a.818.818,0,0,1,.818-.818H4.09a.818.818,0,0,1,.818.818V-169.8a.818.818,0,0,1-.818.818H.818A.818.818,0,0,1,0-169.8" transform="translate(0 180.782)" fill="#e6f7fe"/>
          </g>
          <g id="g61" transform="translate(16.588 37.52)">
            <path id="path63" d="M-75.905-38.883V-41.4a.818.818,0,0,1-.818.818H-80a.818.818,0,0,1-.818-.818v2.514a.818.818,0,0,0,.818.818h3.272a.818.818,0,0,0,.818-.818" transform="translate(80.813 41.397)" fill="#d3effd"/>
          </g>
          <g id="g65" transform="translate(1.425 0.79)">
            <path id="path67" d="M-157.09-244.326h-10.157v-14.98a.818.818,0,0,1,.818-.818h9.339Z" transform="translate(167.248 260.123)" fill="#a2f5c3"/>
          </g>
          <g id="g69" transform="translate(1.425 0.791)">
            <path id="path71" d="M0-180.479a3.415,3.415,0,0,0,1.946.614H5.418A3.4,3.4,0,0,0,8.7-177.326h1.453v-14.823H.818a.818.818,0,0,0-.818.818Z" transform="translate(0 192.149)" fill="#88f2a9"/>
          </g>
          <g id="g73" transform="translate(0.79 21.496)">
            <path id="path75" d="M-18.921-235.961A1.27,1.27,0,0,0-17.6-237.23v2.346a1.29,1.29,0,0,0,1.223,1.3,1.27,1.27,0,0,0,1.316-1.269v.863a1.29,1.29,0,0,0,1.223,1.3,1.27,1.27,0,0,0,1.316-1.269v-.7a1.29,1.29,0,0,0,1.223,1.3,1.27,1.27,0,0,0,1.316-1.269v-6.758a1.27,1.27,0,0,0,1.27,1.27,1.27,1.27,0,0,0,1.27-1.27v-3.034a3.809,3.809,0,0,0-.762-2.285l-.381-.508a3.809,3.809,0,0,1-.762-2.285v-1.721H-19.509v2.366a5.077,5.077,0,0,1-.152,1.232l-.332,1.326a5.077,5.077,0,0,0-.152,1.232v7.8a1.29,1.29,0,0,0,1.223,1.3" transform="translate(20.144 251.218)" fill="#fed2a4"/>
          </g>
          <g id="g77" transform="translate(3.33 25.23)">
            <path id="path79" d="M-145.308-12.076l-.381-.508q-.1-.133-.186-.273A14.044,14.044,0,0,1-148.6-6.284a13.772,13.772,0,0,1-6.1,4.771V-.256a1.29,1.29,0,0,0,1.223,1.3,1.27,1.27,0,0,0,1.316-1.269V.637a1.29,1.29,0,0,0,1.223,1.3A1.27,1.27,0,0,0-149.625.667v-.7a1.29,1.29,0,0,0,1.223,1.3A1.27,1.27,0,0,0-147.086,0V-6.757a1.27,1.27,0,0,0,1.27,1.27,1.27,1.27,0,0,0,1.27-1.27V-9.791a3.809,3.809,0,0,0-.762-2.285" transform="translate(154.704 12.857)" fill="#ffbd86"/>
          </g>
          <g id="g81" transform="translate(0.607 16.588)">
            <path id="path83" d="M-12.651,0H-2.49a.818.818,0,0,1,.818.818V4.09a.818.818,0,0,1-.818.818H-12.651a.818.818,0,0,1-.818-.818V.818A.818.818,0,0,1-12.651,0" transform="translate(13.469)" fill="#e6f7fe"/>
          </g>
          <g id="g85" transform="translate(9.072 16.588)">
            <path id="path87" d="M-38.883,0H-41.4a.818.818,0,0,1,.818.818V4.09a.818.818,0,0,1-.818.818h2.514a.818.818,0,0,0,.818-.818V.818A.818.818,0,0,0-38.883,0" transform="translate(41.397)" fill="#d3effd"/>
          </g>
          <g id="g89" transform="translate(24.871 1.425)">
            <path id="path91" d="M0-157.09v-10.157H14.98a.818.818,0,0,1,.818.818v9.339Z" transform="translate(0 167.248)" fill="#e175a5"/>
          </g>
          <g id="g93" transform="translate(25.846 1.425)">
            <path id="path95" d="M-229.255-157.09v-9.339a.818.818,0,0,0-.818-.818h-10.852a3.377,3.377,0,0,0-.614,1.946v3.472a3.4,3.4,0,0,0-2.539,3.287v1.453Z" transform="translate(244.078 167.248)" fill="#de5791"/>
          </g>
          <g id="g97" transform="translate(1.425 0.79)">
            <path id="path99" d="M-50.746-18.921A1.27,1.27,0,0,0-49.477-17.6h-2.346a1.29,1.29,0,0,0-1.3,1.223,1.27,1.27,0,0,0,1.269,1.316h-.873a1.29,1.29,0,0,0-1.3,1.223,1.27,1.27,0,0,0,1.269,1.316h.707a1.29,1.29,0,0,0-1.3,1.223,1.27,1.27,0,0,0,1.269,1.316h6.758a1.27,1.27,0,0,0-1.27,1.27,1.27,1.27,0,0,0,1.27,1.27h3.034A3.809,3.809,0,0,0-40-8.209l.508-.381a3.809,3.809,0,0,1,2.285-.762h1.721V-19.509h-2.366a5.077,5.077,0,0,1-1.232-.152l-1.326-.332a5.077,5.077,0,0,0-1.232-.152h-7.8a1.29,1.29,0,0,0-1.3,1.223" transform="translate(54.027 20.144)" fill="#fed2a4"/>
          </g>
          <g id="g101" transform="translate(10.558 0.79)">
            <path id="path103" d="M-52.321-40.176a13.928,13.928,0,0,1,4.207,8.2l.094,0H-46.3V-42.138h-2.366A5.077,5.077,0,0,1-49.9-42.29l-1.326-.332a5.081,5.081,0,0,0-1.232-.152H-55.7a16.047,16.047,0,0,1,3.383,2.6" transform="translate(55.704 42.773)" fill="#ffbd86"/>
          </g>
          <g id="g105" transform="translate(19.963 0.607)">
            <path id="path107" d="M-75.905-12.651V-2.49a.818.818,0,0,1-.818.818H-80a.818.818,0,0,1-.818-.818V-12.651A.818.818,0,0,1-80-13.469h3.272a.818.818,0,0,1,.818.818" transform="translate(80.813 13.469)" fill="#e6f7fe"/>
          </g>
          <g id="g109" transform="translate(19.963 0.607)">
            <path id="path111" d="M0-12.651v2.514a.818.818,0,0,1,.818-.818H4.09a.818.818,0,0,1,.818.818v-2.514a.818.818,0,0,0-.818-.818H.818A.818.818,0,0,0,0-12.651" transform="translate(0 13.469)" fill="#d3effd"/>
          </g>
          <g id="g113" transform="translate(27.972 1.425)">
            <path id="path115" d="M-177.442-50.746a1.27,1.27,0,0,0-1.316,1.269v-2.346a1.29,1.29,0,0,0-1.223-1.3,1.27,1.27,0,0,0-1.316,1.269v-.873a1.29,1.29,0,0,0-1.223-1.3,1.27,1.27,0,0,0-1.316,1.269v.707a1.29,1.29,0,0,0-1.223-1.3,1.27,1.27,0,0,0-1.316,1.269v6.758a1.27,1.27,0,0,0-1.27-1.27,1.27,1.27,0,0,0-1.27,1.27v3.034A3.809,3.809,0,0,0-188.154-40l.381.508a3.809,3.809,0,0,1,.762,2.285v1.721h10.157v-2.366a5.077,5.077,0,0,1,.152-1.232l.332-1.326a5.078,5.078,0,0,0,.152-1.232v-7.8a1.29,1.29,0,0,0-1.223-1.3" transform="translate(188.916 54.027)" fill="#fed2a4"/>
          </g>
          <g id="g117" transform="translate(29.875 10.558)">
            <path id="path119" d="M-126.762-52.321a13.928,13.928,0,0,1-8.2,4.207c0,.031,0,.063,0,.094V-46.3H-124.8v-2.366a5.077,5.077,0,0,1,.152-1.232l.332-1.326a5.081,5.081,0,0,0,.152-1.232V-55.7a16.047,16.047,0,0,1-2.6,3.383" transform="translate(134.958 55.704)" fill="#ffbd86"/>
          </g>
          <g id="g121" transform="translate(15.222 14.905)">
            <path id="path123" d="M-85.174-110.317a1.309,1.309,0,0,1-1.309-1.309,1.309,1.309,0,0,1,1.309-1.309,1.309,1.309,0,0,1,1.309,1.309,1.309,1.309,0,0,1-1.309,1.309m4.089-1.34,1.2-1.3a.818.818,0,0,0,.107-.963l-.707-1.225a.818.818,0,0,0-.887-.389l-1.73.388-.055-.032-.529-1.693a.818.818,0,0,0-.781-.574h-1.415a.818.818,0,0,0-.781.574l-.529,1.693-.055.032-1.73-.388a.818.818,0,0,0-.887.389l-.707,1.225a.818.818,0,0,0,.107.963l1.2,1.3v.063l-1.2,1.3a.818.818,0,0,0-.107.963l.707,1.225a.818.818,0,0,0,.887.389l1.73-.388.055.032.529,1.693a.818.818,0,0,0,.781.574h1.415a.818.818,0,0,0,.781-.574l.529-1.693.055-.032,1.731.388a.818.818,0,0,0,.887-.389l.707-1.225a.818.818,0,0,0-.107-.963l-1.2-1.3Z" transform="translate(90.682 117.45)" fill="#62a4fb"/>
          </g>
          <g id="g125" transform="translate(18.808 16.796)">
            <path id="path127" d="M-92.954-61.327v-.063l1.2-1.3a.818.818,0,0,0,.107-.963l-.707-1.225a.818.818,0,0,0-.887-.389l-.982.22a5.754,5.754,0,0,1,.3,1.841,5.763,5.763,0,0,1-5.043,5.717l.433,1.385a.818.818,0,0,0,.781.574h1.415a.818.818,0,0,0,.781-.574l.529-1.693.055-.032,1.731.388a.818.818,0,0,0,.887-.389l.707-1.225a.818.818,0,0,0-.107-.963Z" transform="translate(98.964 65.292)" fill="#5392f9"/>
          </g>
          <g id="g129" transform="translate(29.877 24.871)">
            <path id="path131" d="M0-47.959v-3.1H10.157v14.98a.818.818,0,0,1-.818.818H5.607" transform="translate(0 51.06)" fill="none" stroke="#000" stroke-linecap="round" stroke-linejoin="round" stroke-miterlimit="10" stroke-width="1"/>
          </g>
          <g id="g133" transform="translate(29.055 19.963)">
            <path id="path135" d="M-12.651,0H-2.49a.818.818,0,0,1,.818.818V4.09a.818.818,0,0,1-.818.818H-12.651a.818.818,0,0,1-.818-.818V.818A.818.818,0,0,1-12.651,0Z" transform="translate(13.469)" fill="none" stroke="#000" stroke-linecap="round" stroke-linejoin="round" stroke-miterlimit="10" stroke-width="1"/>
          </g>
          <g id="g137" transform="translate(30.897 21.804)">
            <path id="path139" d="M0-9.488A.613.613,0,0,1,.613-10.1a.613.613,0,0,1,.613.613.613.613,0,0,1-.613.613A.613.613,0,0,1,0-9.488" transform="translate(0 10.101)"/>
          </g>
          <g id="g141" transform="translate(13.487 29.877)">
            <path id="path143" d="M0,0H3.1V10.157H1.417" fill="none" stroke="#000" stroke-linecap="round" stroke-linejoin="round" stroke-miterlimit="10" stroke-width="1"/>
          </g>
          <g id="g145" transform="translate(0.79 35.453)">
            <path id="path147" d="M0,0V3.763a.818.818,0,0,0,.818.818H11.28" fill="none" stroke="#000" stroke-linecap="round" stroke-linejoin="round" stroke-miterlimit="10" stroke-width="1"/>
          </g>
          <g id="g149" transform="translate(21.496 27.972)">
            <path id="path151" d="M-235.961-177.442a1.27,1.27,0,0,0-1.269-1.316h2.346a1.29,1.29,0,0,0,1.3-1.223,1.27,1.27,0,0,0-1.269-1.316h.873a1.29,1.29,0,0,0,1.3-1.223,1.27,1.27,0,0,0-1.269-1.316h-.707a1.29,1.29,0,0,0,1.3-1.223,1.27,1.27,0,0,0-1.269-1.316h-6.758a1.27,1.27,0,0,0,1.27-1.27,1.27,1.27,0,0,0-1.27-1.27h-3.034a3.809,3.809,0,0,0-2.285.762l-.508.381a3.809,3.809,0,0,1-2.285.762h-1.721v10.157h2.366a5.077,5.077,0,0,1,1.232.152l1.326.332a5.078,5.078,0,0,0,1.232.152h7.8A1.29,1.29,0,0,0-235.961-177.442Z" transform="translate(251.218 188.916)" fill="none" stroke="#000" stroke-linecap="round" stroke-linejoin="round" stroke-miterlimit="10" stroke-width="1"/>
          </g>
          <g id="g153" transform="translate(31.541 33.051)">
            <path id="path155" d="M-100.783,0H-107.3" transform="translate(107.3)" fill="none" stroke="#000" stroke-linecap="round" stroke-linejoin="round" stroke-miterlimit="10" stroke-width="1"/>
          </g>
          <g id="g157" transform="translate(31.541 35.59)">
            <path id="path159" d="M-97.74,0h-6.32" transform="translate(104.06)" fill="none" stroke="#000" stroke-linecap="round" stroke-linejoin="round" stroke-miterlimit="10" stroke-width="1"/>
          </g>
          <g id="g161" transform="translate(31.541 38.129)">
            <path id="path163" d="M-60.978,0h-3.943" transform="translate(64.921)" fill="none" stroke="#000" stroke-linecap="round" stroke-linejoin="round" stroke-miterlimit="10" stroke-width="1"/>
          </g>
          <g id="g165" transform="translate(29.135 30.512)">
            <path id="path167" d="M-33.944,0h-2.195" transform="translate(36.139)" fill="none" stroke="#000" stroke-linecap="round" stroke-linejoin="round" stroke-miterlimit="10" stroke-width="1"/>
          </g>
          <g id="g169" transform="translate(16.588 29.055)">
            <path id="path171" d="M-75.905-12.651V-2.49a.818.818,0,0,1-.818.818H-80a.818.818,0,0,1-.818-.818V-12.651A.818.818,0,0,1-80-13.469h3.272A.818.818,0,0,1-75.905-12.651Z" transform="translate(80.813 13.469)" fill="none" stroke="#000" stroke-linecap="round" stroke-linejoin="round" stroke-miterlimit="10" stroke-width="1"/>
          </g>
          <g id="g173" transform="translate(18.429 30.897)">
            <path id="path175" d="M-9.488,0a.613.613,0,0,1,.613.613.613.613,0,0,1-.613.613A.613.613,0,0,1-10.1.613.613.613,0,0,1-9.488,0" transform="translate(10.101)"/>
          </g>
          <g id="g177" transform="translate(1.425 0.791)">
            <path id="path179" d="M0-244.326v-14.98a.818.818,0,0,1,.818-.818H4.581" transform="translate(0 260.123)" fill="none" stroke="#000" stroke-linecap="round" stroke-linejoin="round" stroke-miterlimit="10" stroke-width="1"/>
          </g>
          <g id="g181" transform="translate(11.582 13.487)">
            <path id="path183" d="M0,0V3.1" fill="none" stroke="#000" stroke-linecap="round" stroke-linejoin="round" stroke-miterlimit="10" stroke-width="1"/>
          </g>
          <g id="g185" transform="translate(0.79 21.496)">
            <path id="path187" d="M-18.921-235.961A1.27,1.27,0,0,0-17.6-237.23v2.346a1.29,1.29,0,0,0,1.223,1.3,1.27,1.27,0,0,0,1.316-1.269v.863a1.29,1.29,0,0,0,1.223,1.3,1.27,1.27,0,0,0,1.316-1.269v-.7a1.29,1.29,0,0,0,1.223,1.3,1.27,1.27,0,0,0,1.316-1.269v-6.758a1.27,1.27,0,0,0,1.27,1.27,1.27,1.27,0,0,0,1.27-1.27v-3.034a3.809,3.809,0,0,0-.762-2.285l-.381-.508a3.809,3.809,0,0,1-.762-2.285v-1.721H-19.509v2.366a5.077,5.077,0,0,1-.152,1.232l-.332,1.326a5.077,5.077,0,0,0-.152,1.232v7.8A1.29,1.29,0,0,0-18.921-235.961Z" transform="translate(20.144 251.218)" fill="none" stroke="#000" stroke-linecap="round" stroke-linejoin="round" stroke-miterlimit="10" stroke-width="1"/>
          </g>
          <g id="g189" transform="translate(8.408 31.541)">
            <path id="path191" d="M0-100.783V-107.3" transform="translate(0 107.3)" fill="none" stroke="#000" stroke-linecap="round" stroke-linejoin="round" stroke-miterlimit="10" stroke-width="1"/>
          </g>
          <g id="g193" transform="translate(5.869 31.541)">
            <path id="path195" d="M0-97.74v-6.32" transform="translate(0 104.06)" fill="none" stroke="#000" stroke-linecap="round" stroke-linejoin="round" stroke-miterlimit="10" stroke-width="1"/>
          </g>
          <g id="g197" transform="translate(3.33 31.541)">
            <path id="path199" d="M0-60.978v-3.943" transform="translate(0 64.921)" fill="none" stroke="#000" stroke-linecap="round" stroke-linejoin="round" stroke-miterlimit="10" stroke-width="1"/>
          </g>
          <g id="g201" transform="translate(10.948 29.135)">
            <path id="path203" d="M0-33.944v-2.195" transform="translate(0 36.139)" fill="none" stroke="#000" stroke-linecap="round" stroke-linejoin="round" stroke-miterlimit="10" stroke-width="1"/>
          </g>
          <g id="g205" transform="translate(0.607 16.588)">
            <path id="path207" d="M-80.777,0h5.757A.818.818,0,0,1-74.2.819V4.09a.818.818,0,0,1-.818.818H-85.182A.818.818,0,0,1-86,4.09V.819A.818.818,0,0,1-85.182,0h1.571" transform="translate(86)" fill="none" stroke="#000" stroke-linecap="round" stroke-linejoin="round" stroke-miterlimit="10" stroke-width="1"/>
          </g>
          <g id="g209" transform="translate(9.335 18.429)">
            <path id="path211" d="M-18.976-9.488a.613.613,0,0,1-.613.613.613.613,0,0,1-.613-.613.613.613,0,0,1,.613-.613.613.613,0,0,1,.613.613" transform="translate(20.203 10.101)"/>
          </g>
          <g id="g213" transform="translate(24.871 1.425)">
            <path id="path215" d="M-47.959-157.085h-3.1v-10.157h14.98a.818.818,0,0,1,.818.818v3.763" transform="translate(51.06 167.242)" fill="none" stroke="#000" stroke-linecap="round" stroke-linejoin="round" stroke-miterlimit="10" stroke-width="1"/>
          </g>
          <g id="g217" transform="translate(1.425 0.79)">
            <path id="path219" d="M-50.746-18.921A1.27,1.27,0,0,0-49.477-17.6h-2.346a1.29,1.29,0,0,0-1.3,1.223,1.27,1.27,0,0,0,1.269,1.316h-.873a1.29,1.29,0,0,0-1.3,1.223,1.27,1.27,0,0,0,1.269,1.316h.707a1.29,1.29,0,0,0-1.3,1.223,1.27,1.27,0,0,0,1.269,1.316h6.758a1.27,1.27,0,0,0-1.27,1.27,1.27,1.27,0,0,0,1.27,1.27h3.034A3.809,3.809,0,0,0-40-8.209l.508-.381a3.809,3.809,0,0,1,2.285-.762h1.721V-19.509h-2.366a5.077,5.077,0,0,1-1.232-.152l-1.326-.332a5.077,5.077,0,0,0-1.232-.152h-7.8A1.29,1.29,0,0,0-50.746-18.921Z" transform="translate(54.027 20.144)" fill="none" stroke="#000" stroke-linecap="round" stroke-linejoin="round" stroke-miterlimit="10" stroke-width="1"/>
          </g>
          <g id="g221" transform="translate(3.402 8.408)">
            <path id="path223" d="M0,0H6.516" fill="none" stroke="#000" stroke-linecap="round" stroke-linejoin="round" stroke-miterlimit="10" stroke-width="1"/>
          </g>
          <g id="g225" transform="translate(3.598 5.869)">
            <path id="path227" d="M0,0H6.32" fill="none" stroke="#000" stroke-linecap="round" stroke-linejoin="round" stroke-miterlimit="10" stroke-width="1"/>
          </g>
          <g id="g229" transform="translate(5.975 3.33)">
            <path id="path231" d="M0,0H3.943" fill="none" stroke="#000" stroke-linecap="round" stroke-linejoin="round" stroke-miterlimit="10" stroke-width="1"/>
          </g>
          <g id="g233" transform="translate(10.13 10.948)">
            <path id="path235" d="M0,0H2.195" fill="none" stroke="#000" stroke-linecap="round" stroke-linejoin="round" stroke-miterlimit="10" stroke-width="1"/>
          </g>
          <g id="g237" transform="translate(19.963 0.607)">
            <path id="path239" d="M0-169.8v-10.161a.818.818,0,0,1,.818-.818H4.09a.818.818,0,0,1,.818.818V-169.8a.818.818,0,0,1-.818.818H.818A.818.818,0,0,1,0-169.8Z" transform="translate(0 180.782)" fill="none" stroke="#000" stroke-linecap="round" stroke-linejoin="round" stroke-miterlimit="10" stroke-width="1"/>
          </g>
          <g id="g241" transform="translate(21.804 9.335)">
            <path id="path243" d="M-9.488-18.976a.613.613,0,0,1-.613-.613.613.613,0,0,1,.613-.613.613.613,0,0,1,.613.613.613.613,0,0,1-.613.613" transform="translate(10.101 20.203)"/>
          </g>
          <g id="g245" transform="translate(27.972 1.425)">
            <path id="path247" d="M-196.369-179.025v.807a5.094,5.094,0,0,1-.151,1.232l-.332,1.326a5.089,5.089,0,0,0-.151,1.232v2.366h-10.158v-1.722a3.81,3.81,0,0,0-.762-2.286l-.381-.508a3.806,3.806,0,0,1-.762-2.285V-181.9a1.269,1.269,0,0,1,.372-.9,1.269,1.269,0,0,1,.9-.372,1.27,1.27,0,0,1,1.27,1.27v-6.759a1.27,1.27,0,0,1,1.316-1.269,1.29,1.29,0,0,1,1.224,1.3v-.707a1.269,1.269,0,0,1,1.316-1.269,1.29,1.29,0,0,1,1.224,1.3v.873a1.269,1.269,0,0,1,1.316-1.269,1.289,1.289,0,0,1,1.224,1.3v2.347a1.269,1.269,0,0,1,1.316-1.269,1.289,1.289,0,0,1,1.224,1.3v4.162" transform="translate(209.066 190.6)" fill="none" stroke="#000" stroke-linecap="round" stroke-linejoin="round" stroke-miterlimit="10" stroke-width="1"/>
          </g>
          <g id="g249" transform="translate(33.051 3.402)">
            <path id="path251" d="M0,0V6.516" fill="none" stroke="#000" stroke-linecap="round" stroke-linejoin="round" stroke-miterlimit="10" stroke-width="1"/>
          </g>
          <g id="g253" transform="translate(35.59 3.598)">
            <path id="path255" d="M0,0V6.32" fill="none" stroke="#000" stroke-linecap="round" stroke-linejoin="round" stroke-miterlimit="10" stroke-width="1"/>
          </g>
          <g id="g257" transform="translate(38.129 5.975)">
            <path id="path259" d="M0,0V3.943" fill="none" stroke="#000" stroke-linecap="round" stroke-linejoin="round" stroke-miterlimit="10" stroke-width="1"/>
          </g>
          <g id="g261" transform="translate(30.512 10.13)">
            <path id="path263" d="M0,0V2.195" fill="none" stroke="#000" stroke-linecap="round" stroke-linejoin="round" stroke-miterlimit="10" stroke-width="1"/>
          </g>
          <g id="g265" transform="translate(15.222 14.905)">
            <path id="path267" d="M-85.174-110.317a1.309,1.309,0,0,1-1.309-1.309,1.309,1.309,0,0,1,1.309-1.309,1.309,1.309,0,0,1,1.309,1.309A1.309,1.309,0,0,1-85.174-110.317Zm4.089-1.34,1.2-1.3a.818.818,0,0,0,.107-.963l-.707-1.225a.818.818,0,0,0-.887-.389l-1.73.388-.055-.032-.529-1.693a.818.818,0,0,0-.781-.574h-1.415a.818.818,0,0,0-.781.574l-.529,1.693-.055.032-1.73-.388a.818.818,0,0,0-.887.389l-.707,1.225a.818.818,0,0,0,.107.963l1.2,1.3v.063l-1.2,1.3a.818.818,0,0,0-.107.963l.707,1.225a.818.818,0,0,0,.887.389l1.73-.388.055.032.529,1.693a.818.818,0,0,0,.781.574h1.415a.818.818,0,0,0,.781-.574l.529-1.693.055-.032,1.731.388a.818.818,0,0,0,.887-.389l.707-1.225a.818.818,0,0,0-.107-.963l-1.2-1.3Z" transform="translate(90.682 117.45)" fill="none" stroke="#000" stroke-linecap="round" stroke-linejoin="round" stroke-miterlimit="10" stroke-width="1"/>
          </g>
        </g>
      </g>
    </g>
  </g>
</svg>
