<svg xmlns="http://www.w3.org/2000/svg" xmlns:xlink="http://www.w3.org/1999/xlink" width="85.895" height="85.895" viewBox="0 0 85.895 85.895">
  <defs>
    <filter id="Trazado_904820" x="0" y="0" width="85.895" height="85.895" filterUnits="userSpaceOnUse">
      <feOffset dy="3" input="SourceAlpha"/>
      <feGaussianBlur stdDeviation="3" result="blur"/>
      <feFlood flood-opacity="0.161"/>
      <feComposite operator="in" in2="blur"/>
      <feComposite in="SourceGraphic"/>
    </filter>
  </defs>
  <g id="Grupo_1223401" data-name="Grupo 1223401" transform="translate(-1033.776 -7996.053)">
    <g id="Grupo_1223167" data-name="Grupo 1223167" transform="translate(1042.776 8002.053)">
      <g id="Grupo_1173585" data-name="Grupo 1173585" transform="translate(0 0)">
        <g id="Grupo_1173428" data-name="Grupo 1173428">
          <g id="Grupo_1171958" data-name="Grupo 1171958">
            <g id="Grupo_1167341" data-name="Grupo 1167341">
              <g id="Grupo_1166792" data-name="Grupo 1166792">
                <g transform="matrix(1, 0, 0, 1, -9, -6)" filter="url(#Trazado_904820)">
                  <g id="Trazado_904820-2" data-name="Trazado 904820" transform="translate(9 6)" fill="#fcf5f0">
                    <path d="M 33.947265625 66.39455413818359 C 29.56625556945801 66.39455413818359 25.31708526611328 65.536865234375 21.31778526306152 63.84530639648438 C 17.45416641235352 62.21112823486328 13.98396587371826 59.87134552001953 11.00358581542969 56.89096832275391 C 8.023205757141113 53.91057586669922 5.683425426483154 50.44037628173828 4.049255847930908 46.57675552368164 C 2.357695579528809 42.57745742797852 1.500005602836609 38.32828521728516 1.500005602836609 33.9472770690918 C 1.500005602836609 29.56625747680664 2.357695579528809 25.31708717346191 4.049255847930908 21.31778717041016 C 5.683425426483154 17.45416641235352 8.023205757141113 13.98396682739258 11.00358581542969 11.003586769104 C 13.98396587371826 8.023197174072266 17.45416641235352 5.683416843414307 21.31778526306152 4.049247264862061 C 25.31707572937012 2.357686996459961 29.56625556945801 1.499997019767761 33.947265625 1.499997019767761 C 38.32827377319336 1.499997019767761 42.57745742797852 2.357686996459961 46.57674407958984 4.049247264862061 C 50.44036483764648 5.683416843414307 53.91056442260742 8.023197174072266 56.89094543457031 11.003586769104 C 59.87133407592773 13.98396682739258 62.21111679077148 17.45416641235352 63.84528732299805 21.31778717041016 C 65.53684234619141 25.31708717346191 66.39453887939453 29.56625747680664 66.39453887939453 33.9472770690918 C 66.39453887939453 38.32828521728516 65.53684234619141 42.57745742797852 63.84528732299805 46.57675552368164 C 62.21111679077148 50.44037628173828 59.87133407592773 53.91057586669922 56.89094543457031 56.89096832275391 C 53.91056442260742 59.87134552001953 50.44036483764648 62.21112823486328 46.57674407958984 63.84530639648438 C 42.57745742797852 65.536865234375 38.32827377319336 66.39455413818359 33.947265625 66.39455413818359 Z" stroke="none"/>
                    <path d="M 33.947265625 3 C 29.76808929443359 3 25.71552276611328 3.817825317382812 21.9021110534668 5.430755615234375 C 18.21730041503906 6.989311218261719 14.90735626220703 9.221134185791016 12.06424331665039 12.06424331665039 C 9.221134185791016 14.90735626220703 6.989311218261719 18.21730041503906 5.430755615234375 21.90212249755859 C 3.817817687988281 25.71552276611328 3 29.76810073852539 3 33.9472770690918 C 3 38.12645721435547 3.817817687988281 42.17902374267578 5.430755615234375 45.99242401123047 C 6.989311218261719 49.67724609375 9.221134185791016 52.98719024658203 12.06424331665039 55.83029937744141 C 14.90735626220703 58.67340850830078 18.21730041503906 60.90524291992188 21.90212249755859 62.46379852294922 C 25.71552276611328 64.07673645019531 29.76808929443359 64.89455413818359 33.947265625 64.89455413818359 C 38.12644195556641 64.89455413818359 42.17900848388672 64.07673645019531 45.99240875244141 62.46379852294922 C 49.67723083496094 60.90524291992188 52.98717498779297 58.67340850830078 55.83028793334961 55.83029937744141 C 58.67340087890625 52.98719024658203 60.90522003173828 49.67724609375 62.46377563476562 45.99242401123047 C 64.07671356201172 42.17902374267578 64.89453125 38.12645721435547 64.89453125 33.9472770690918 C 64.89453125 29.76810073852539 64.07671356201172 25.71552276611328 62.46377563476562 21.90212249755859 C 60.90522003173828 18.21730041503906 58.67340087890625 14.90735626220703 55.83028793334961 12.06424331665039 C 52.98717498779297 9.221134185791016 49.67723083496094 6.989311218261719 45.99242401123047 5.430755615234375 C 42.17900848388672 3.817825317382812 38.12644195556641 3 33.947265625 3 M 33.947265625 0 C 52.69581985473633 0 67.89453125 15.19871139526367 67.89453125 33.9472770690918 C 67.89453125 52.69582366943359 52.69581985473633 67.89455413818359 33.947265625 67.89455413818359 C 15.19871139526367 67.89455413818359 0 52.69582366943359 0 33.9472770690918 C 0 15.19871139526367 15.19871139526367 0 33.947265625 0 Z" stroke="none" fill="#eca675"/>
                  </g>
                </g>
              </g>
            </g>
          </g>
        </g>
      </g>
    </g>
    <g id="goal_12056075" transform="translate(1044.426 8005.918)">
      <g id="Grupo_1223391" data-name="Grupo 1223391" transform="translate(7.5 7.5)">
        <path id="Trazado_1177538" data-name="Trazado 1177538" d="M381.975,80.7a.181.181,0,0,1-.149.284H370.858a.9.9,0,0,1-.684-.311c-.14-.16.1-.57.1-.8l-.32-6.773h11.876a.181.181,0,0,1,.149.284l-2.457,3.554a.183.183,0,0,0,0,.207Z" transform="translate(-337.025 -67.141)" fill="#ffd15b"/>
        <path id="Trazado_1177539" data-name="Trazado 1177539" d="M374.509,101.492l-4.335,3.91a.9.9,0,0,1-.224-.6v-4.5Z" transform="translate(-337.025 -91.87)" fill="#ffc344"/>
        <path id="Trazado_1177540" data-name="Trazado 1177540" d="M261.684,37.357H246.548V29.473h15.136a.908.908,0,0,1,.908.908v6.067A.909.909,0,0,1,261.684,37.357Z" transform="translate(-224.833 -27.477)" fill="#ffe177"/>
        <g id="Grupo_1223389" data-name="Grupo 1223389" transform="translate(0)">
          <path id="Trazado_1177541" data-name="Trazado 1177541" d="M16.855,186.491l-1.42.72c-.516.228-1.052,1.265-1.6,1.391a8.965,8.965,0,0,1-2.055.238H7.788a.287.287,0,0,1-.288-.287V176.3a.288.288,0,0,1,.288-.287h3.993a8.989,8.989,0,0,1,1.867.2c.063.014.125.027.188.043.547.126,1.083,1.6,1.6,1.83l1.348.577Z" transform="translate(-7.5 -160.703)" fill="#0ed2b3"/>
          <path id="Trazado_1177542" data-name="Trazado 1177542" d="M80.269,189.731l-1.42.72a8.931,8.931,0,0,1-1.6.534V178.63a8.858,8.858,0,0,1,1.6.534l1.348.577.07,9.761Z" transform="translate(-70.914 -163.085)" fill="#0cc4ae"/>
          <path id="Trazado_1177543" data-name="Trazado 1177543" d="M142.295,188.241l-1.192-7.224-1.555-.039v-.425a11.345,11.345,0,0,1-1.148-2.368l-5.612.032a4.833,4.833,0,0,1-3.293,1.335H127.7a.444.444,0,0,0-.444.444v8.834a.444.444,0,0,0,.447.444l1.022,0a7.887,7.887,0,0,1,4.01,1.079,8.111,8.111,0,0,0,4.092,1.132l2.044.908,2.9-.908Z" transform="translate(-116.38 -162.681)" fill="#f9c6c6"/>
          <path id="Trazado_1177544" data-name="Trazado 1177544" d="M127.324,265.358l-.06-.255v.255Z" transform="translate(-116.385 -241.703)" fill="#efbbb4"/>
          <path id="Trazado_1177545" data-name="Trazado 1177545" d="M241.39,38.277l1.414-1.987,3.1-3.864-4.514-6.636V7.773a.273.273,0,0,0-.273-.273H238.8a.272.272,0,0,0-.272.273v31.11Z" transform="translate(-217.54 -7.5)" fill="#918291"/>
          <path id="Trazado_1177546" data-name="Trazado 1177546" d="M290.828,178.73l3.572.021a2.051,2.051,0,0,0,1.714-1.492h0a1.714,1.714,0,0,0-1.714-1.714h-2.079l-1.688.405Z" transform="translate(-264.913 -160.281)" fill="#f9c6c6"/>
          <path id="Trazado_1177547" data-name="Trazado 1177547" d="M278.1,208.877l4.906.4h.947a1.714,1.714,0,0,1,1.714,1.714h0a1.941,1.941,0,0,1-1.714,1.492l-5.815.222Z" transform="translate(-253.518 -190.584)" fill="#f9c6c6"/>
          <path id="Trazado_1177548" data-name="Trazado 1177548" d="M279.965,182.4h.891a1.714,1.714,0,0,0,1.714-1.714h-4.263a.476.476,0,0,1-.476-.476v-1.237h2.079a1.714,1.714,0,0,0,1.714-1.714h-3.317a.476.476,0,0,1-.476-.476v-1.238H276.05v1.714h-.024l.024,1.714v1.714h-1.357l.347,1.714,2.731.325Z" transform="translate(-250.421 -160.281)" fill="#f9b1b1"/>
          <path id="Trazado_1177549" data-name="Trazado 1177549" d="M100.326,174.716l-1.454-.182h-.7a.919.919,0,0,0-.919.919v11.414a.919.919,0,0,0,.919.919h.7l1.454-.182a.919.919,0,0,0,.919-.919V175.635A.919.919,0,0,0,100.326,174.716Z" transform="translate(-89.095 -159.361)" fill="#5de1c4"/>
          <path id="Trazado_1177550" data-name="Trazado 1177550" d="M114.943,174.534h-1.817a.919.919,0,0,1,.919.919v11.414a.919.919,0,0,1-.919.919h1.817a.919.919,0,0,0,.919-.919V175.453A.919.919,0,0,0,114.943,174.534Z" transform="translate(-103.531 -159.361)" fill="#0ed2b3"/>
          <path id="Trazado_1177551" data-name="Trazado 1177551" d="M265.242,288.675l-3.513-.009a1.68,1.68,0,0,1-1.2-.392,1.638,1.638,0,0,1-.388-.549c-.078-.182-.305-.21-.305-.419v0a1.487,1.487,0,0,1,.121-.59,1.637,1.637,0,0,1,.388-.549,1.739,1.739,0,0,1,1.2-.466h1l.97-.317,1.725.3a1.692,1.692,0,0,1,1.74,1.627C266.982,288.2,266.2,288.675,265.242,288.675Z" transform="translate(-236.915 -260.138)" fill="#f9c6c6"/>
          <path id="Trazado_1177552" data-name="Trazado 1177552" d="M265.242,308.2h-2.75l-.4.219-.358-.219a2.237,2.237,0,0,1-1.386-.49,1.648,1.648,0,0,1-.388-.553,1.506,1.506,0,0,1-.121-.594h7.145A1.7,1.7,0,0,1,265.242,308.2Z" transform="translate(-236.914 -279.393)" fill="#f9b1b1"/>
          <path id="Trazado_1177553" data-name="Trazado 1177553" d="M274.433,251.237l1.443-.224h2.135a1.72,1.72,0,0,1,1.719,1.72h0a1.729,1.729,0,0,1-1.909,1.511l-3.4-.072c-.905.009-1.872-.494-1.874-1.438A1.7,1.7,0,0,1,274.433,251.237Z" transform="translate(-248.468 -228.892)" fill="#f9c6c6"/>
          <path id="Trazado_1177554" data-name="Trazado 1177554" d="M278.1,252.732a1.718,1.718,0,0,1-1.719,1.719H272.47a1.744,1.744,0,0,1-1.719-1.72,1.721,1.721,0,0,1,1.719-1.719h1.775a2.48,2.48,0,0,1-.3,1.177.364.364,0,0,0,.316.542H278.1Z" transform="translate(-246.837 -228.892)" fill="#f9b1b1"/>
          <path id="Trazado_1177555" data-name="Trazado 1177555" d="M198.052,168.52v5.973a.821.821,0,0,1-.829.818,2.41,2.41,0,0,1-2.383-2.159l-.231-1.721a.436.436,0,0,0-.423-.378H191.2l-.719-.3a2.872,2.872,0,0,1-2.357-2.877h0a4.056,4.056,0,0,1,2.741-1.066H196.3A1.738,1.738,0,0,1,198.052,168.52Z" transform="translate(-171.718 -152.338)" fill="#f9c6c6"/>
        </g>
        <g id="Grupo_1223390" data-name="Grupo 1223390" transform="translate(12.58 28.804)">
          <path id="Trazado_1177556" data-name="Trazado 1177556" d="M405.97,333.79h-3.993a9.028,9.028,0,0,0-3.654.772l-1.349.577-.071,9.99,1.42.72a9.028,9.028,0,0,0,3.654.772h3.993a.288.288,0,0,0,.288-.288V334.078A.288.288,0,0,0,405.97,333.79Z" transform="translate(-374.11 -332.955)" fill="#3c87d0"/>
          <path id="Trazado_1177557" data-name="Trazado 1177557" d="M214.6,346.024l1.192-7.224,1.555-.039v-.425a11.346,11.346,0,0,0,1.148-2.368l5.612.032a4.833,4.833,0,0,0,3.293,1.335h1.792a.444.444,0,0,1,.444.444v8.834a.444.444,0,0,1-.447.444l-1.022,0a7.887,7.887,0,0,0-4.01,1.079,8.111,8.111,0,0,1-4.092,1.132l-3.043-.02Z" transform="translate(-208.368 -334.936)" fill="#c59191"/>
          <path id="Trazado_1177558" data-name="Trazado 1177558" d="M379.462,423.14l.06-.255v.255Z" transform="translate(-358.253 -413.956)" fill="#efbbb4"/>
          <path id="Trazado_1177559" data-name="Trazado 1177559" d="M196.568,359.652v3.192a.272.272,0,0,0,.273.272h2.319a.272.272,0,0,0,.273-.272V348.971l-7.056,7.4Z" transform="translate(-188.162 -346.757)" fill="#918291"/>
          <path id="Trazado_1177560" data-name="Trazado 1177560" d="M161.694,336.513l-3.572.021a2.051,2.051,0,0,1-1.714-1.492h0a1.714,1.714,0,0,1,1.714-1.714H160.2l1.688.405Z" transform="translate(-155.461 -332.535)" fill="#c59191"/>
          <path id="Trazado_1177561" data-name="Trazado 1177561" d="M153.554,366.659l-4.906.4H147.7a1.714,1.714,0,0,0-1.714,1.714h0a1.941,1.941,0,0,0,1.714,1.492l5.815.222Z" transform="translate(-145.988 -362.838)" fill="#c59191"/>
          <path id="Trazado_1177562" data-name="Trazado 1177562" d="M148.592,340.183H147.7a1.714,1.714,0,0,1-1.714-1.714h4.263a.476.476,0,0,0,.476-.476v-1.237h-2.079a1.714,1.714,0,0,1-1.714-1.714h3.317a.476.476,0,0,0,.476-.476v-1.238h1.779v1.714h.024l-.024,1.714v1.714h1.357l-.347,1.714-2.731.325Z" transform="translate(-145.988 -332.535)" fill="#b98080"/>
          <path id="Trazado_1177563" data-name="Trazado 1177563" d="M368.131,333.418a.919.919,0,0,0-.919-.919l-1.454-.182h-.7a.919.919,0,0,0-.919.919v11.414a.919.919,0,0,0,.919.919h.7l1.454-.182a.919.919,0,0,0,.919-.919Z" transform="translate(-344.318 -331.615)" fill="#7bacdf"/>
          <path id="Trazado_1177564" data-name="Trazado 1177564" d="M381.829,332.317h-1.817a.919.919,0,0,1,.919.919v11.414a.919.919,0,0,1-.919.919h1.817a.919.919,0,0,0,.919-.919V333.236A.919.919,0,0,0,381.829,332.317Z" transform="translate(-358.753 -331.615)" fill="#5f99d7"/>
          <path id="Trazado_1177565" data-name="Trazado 1177565" d="M170.627,446.458l3.513-.009a1.681,1.681,0,0,0,1.2-.392,1.638,1.638,0,0,0,.388-.549c.078-.182.305-.21.305-.419v0a1.488,1.488,0,0,0-.121-.59,1.637,1.637,0,0,0-.388-.549,1.739,1.739,0,0,0-1.2-.466h-1l-.97-.317-1.725.3a1.692,1.692,0,0,0-1.74,1.627C168.887,445.978,169.666,446.458,170.627,446.458Z" transform="translate(-166.807 -432.393)" fill="#c59191"/>
          <path id="Trazado_1177566" data-name="Trazado 1177566" d="M170.627,465.969l3.513-.009a2.235,2.235,0,0,0,1.384-.477,1.638,1.638,0,0,0,.388-.549,1.488,1.488,0,0,0,.121-.59h-7.145A1.692,1.692,0,0,0,170.627,465.969Z" transform="translate(-166.807 -451.647)" fill="#b98080"/>
          <path id="Trazado_1177567" data-name="Trazado 1177567" d="M161.025,409.02l-1.443-.224h-2.135a1.719,1.719,0,0,0-1.719,1.719h0a1.729,1.729,0,0,0,1.909,1.511l3.4-.072c.905.009,1.872-.494,1.874-1.438A1.7,1.7,0,0,0,161.025,409.02Z" transform="translate(-154.843 -401.147)" fill="#c59191"/>
          <path id="Trazado_1177568" data-name="Trazado 1177568" d="M155.728,410.515a1.718,1.718,0,0,0,1.719,1.719h3.911a1.744,1.744,0,0,0,1.719-1.72,1.721,1.721,0,0,0-1.719-1.719h-1.775a2.48,2.48,0,0,0,.3,1.177.364.364,0,0,1-.316.542h-3.835Z" transform="translate(-154.843 -401.146)" fill="#b98080"/>
          <path id="Trazado_1177569" data-name="Trazado 1177569" d="M209.979,326.3v5.973a.821.821,0,0,0,.829.818,2.41,2.41,0,0,0,2.383-2.159l.231-1.721a.436.436,0,0,1,.423-.378h2.985l.719-.3a2.872,2.872,0,0,0,2.357-2.876h0a4.056,4.056,0,0,0-2.741-1.066h-5.437A1.738,1.738,0,0,0,209.979,326.3Z" transform="translate(-204.166 -324.593)" fill="#c59191"/>
        </g>
      </g>
      <g id="Grupo_1223400" data-name="Grupo 1223400" transform="translate(7.5 7.5)">
        <path id="Trazado_1177570" data-name="Trazado 1177570" d="M369.95,118.6v2.841a.908.908,0,0,0,.908.908h3.73" transform="translate(-337.025 -108.508)" fill="none" stroke="#000" stroke-linecap="round" stroke-linejoin="round" stroke-miterlimit="10" stroke-width="1.2"/>
        <path id="Trazado_1177571" data-name="Trazado 1177571" d="M426.16,73.1h7.116l-2.725,3.942,2.725,3.942h-4.4" transform="translate(-388.129 -67.141)" fill="none" stroke="#000" stroke-linecap="round" stroke-linejoin="round" stroke-miterlimit="10" stroke-width="1.2"/>
        <path id="Trazado_1177572" data-name="Trazado 1177572" d="M271.932,29.473h12.816a.908.908,0,0,1,.908.908v6.067a.908.908,0,0,1-.908.908H271.917" transform="translate(-247.898 -27.477)" fill="none" stroke="#000" stroke-linecap="round" stroke-linejoin="round" stroke-miterlimit="10" stroke-width="1.2"/>
        <path id="Trazado_1177573" data-name="Trazado 1177573" d="M270.057,371.386c.539,2.147,1.31,3.383,4.246,3.383" transform="translate(-246.206 -338.331)" fill="none" stroke="#000" stroke-linecap="round" stroke-linejoin="round" stroke-miterlimit="10" stroke-width="1.2"/>
        <path id="Trazado_1177574" data-name="Trazado 1177574" d="M280.8,458.32a7.766,7.766,0,0,0-3.862,1.092h0a7.767,7.767,0,0,1-3.973,1.093h-.338" transform="translate(-248.543 -417.368)" fill="none" stroke="#000" stroke-linecap="round" stroke-linejoin="round" stroke-miterlimit="10" stroke-width="1.2"/>
        <path id="Trazado_1177575" data-name="Trazado 1177575" d="M238.526,382.069v2.2h2.864V372.259" transform="translate(-217.54 -339.125)" fill="none" stroke="#000" stroke-linecap="round" stroke-linejoin="round" stroke-miterlimit="10" stroke-width="1.2"/>
        <g id="Grupo_1223392" data-name="Grupo 1223392" transform="translate(14.776 39.756)">
          <path id="Trazado_1177576" data-name="Trazado 1177576" d="M171.853,445.152a1.691,1.691,0,0,0-1.691,1.691h0a1.691,1.691,0,0,0,1.691,1.691h3.41a1.691,1.691,0,0,0,1.691-1.691h0a1.691,1.691,0,0,0-1.691-1.691h-.815" transform="translate(-170.162 -445.152)" fill="none" stroke="#000" stroke-linecap="round" stroke-linejoin="round" stroke-miterlimit="10" stroke-width="1.2"/>
        </g>
        <g id="Grupo_1223393" data-name="Grupo 1223393" transform="translate(13.502 36.375)">
          <path id="Trazado_1177577" data-name="Trazado 1177577" d="M157.823,407.929a1.691,1.691,0,0,0-1.691,1.691h0a1.691,1.691,0,0,0,1.691,1.691h3.87a1.691,1.691,0,0,0,1.691-1.691h0a1.683,1.683,0,0,0-.281-.933" transform="translate(-156.132 -407.929)" fill="none" stroke="#000" stroke-linecap="round" stroke-linejoin="round" stroke-miterlimit="10" stroke-width="1.2"/>
        </g>
        <g id="Grupo_1223394" data-name="Grupo 1223394" transform="translate(12.58 32.993)">
          <path id="Trazado_1177578" data-name="Trazado 1177578" d="M148.531,370.707h-.851a1.691,1.691,0,0,0-1.691,1.691h0a1.691,1.691,0,0,0,1.691,1.691h3.87" transform="translate(-145.989 -370.707)" fill="none" stroke="#000" stroke-linecap="round" stroke-linejoin="round" stroke-miterlimit="10" stroke-width="1.2"/>
        </g>
        <g id="Grupo_1223395" data-name="Grupo 1223395" transform="translate(13.502 29.612)">
          <path id="Trazado_1177579" data-name="Trazado 1177579" d="M161.23,333.484h-3.407a1.691,1.691,0,0,0-1.691,1.691h0a1.691,1.691,0,0,0,1.691,1.691h3.116" transform="translate(-156.132 -333.484)" fill="none" stroke="#000" stroke-linecap="round" stroke-linejoin="round" stroke-miterlimit="10" stroke-width="1.2"/>
        </g>
        <line id="Línea_3722" data-name="Línea 3722" y2="9.851" transform="translate(20.986 18.722)" fill="none" stroke="#000" stroke-linecap="round" stroke-linejoin="round" stroke-miterlimit="10" stroke-width="1.2"/>
        <line id="Línea_3723" data-name="Línea 3723" y1="8.761" transform="translate(20.987 5.461)" fill="none" stroke="#000" stroke-linecap="round" stroke-linejoin="round" stroke-miterlimit="10" stroke-width="1.2"/>
        <path id="Trazado_1177580" data-name="Trazado 1177580" d="M238.53,9.782V7.5h2.864V21.782" transform="translate(-217.543 -7.5)" fill="none" stroke="#000" stroke-linecap="round" stroke-linejoin="round" stroke-miterlimit="10" stroke-width="1.2"/>
        <path id="Trazado_1177581" data-name="Trazado 1177581" d="M411.558,334.574l.112-.054a10.365,10.365,0,0,1,4.506-1.031H420" transform="translate(-374.854 -303.876)" fill="none" stroke="#000" stroke-linecap="round" stroke-linejoin="round" stroke-miterlimit="10" stroke-width="1.2"/>
        <path id="Trazado_1177582" data-name="Trazado 1177582" d="M420.764,464.6h-3.773a10.365,10.365,0,0,1-4.594-1.074h0" transform="translate(-375.616 -422.104)" fill="none" stroke="#000" stroke-linecap="round" stroke-linejoin="round" stroke-miterlimit="10" stroke-width="1.2"/>
        <path id="Trazado_1177583" data-name="Trazado 1177583" d="M364.14,339.686v4.071a.967.967,0,0,0,.966.967h2.246a.967.967,0,0,0,.967-.967v-11.32a.967.967,0,0,0-.967-.966h-2.246a.966.966,0,0,0-.966.966v4.071" transform="translate(-331.743 -302.041)" fill="none" stroke="#000" stroke-linecap="round" stroke-linejoin="round" stroke-miterlimit="10" stroke-width="1.2"/>
        <path id="Trazado_1177584" data-name="Trazado 1177584" d="M196.026,213.6c-.539,2.147-1.31,3.383-4.246,3.383" transform="translate(-175.04 -194.881)" fill="none" stroke="#000" stroke-linecap="round" stroke-linejoin="round" stroke-miterlimit="10" stroke-width="1.2"/>
        <path id="Trazado_1177585" data-name="Trazado 1177585" d="M145.988,300.538a7.766,7.766,0,0,1,3.862,1.092h0a7.767,7.767,0,0,0,3.973,1.093h4.545" transform="translate(-133.408 -273.919)" fill="none" stroke="#000" stroke-linecap="round" stroke-linejoin="round" stroke-miterlimit="10" stroke-width="1.2"/>
        <g id="Grupo_1223396" data-name="Grupo 1223396" transform="translate(23.269 25.423)">
          <path id="Trazado_1177586" data-name="Trazado 1177586" d="M268.758,287.369a1.691,1.691,0,0,1,1.691,1.691h0a1.691,1.691,0,0,1-1.691,1.691h-3.41a1.691,1.691,0,0,1-1.691-1.691h0a1.691,1.691,0,0,1,1.691-1.691h.815" transform="translate(-263.657 -287.369)" fill="none" stroke="#000" stroke-linecap="round" stroke-linejoin="round" stroke-miterlimit="10" stroke-width="1.2"/>
        </g>
        <g id="Grupo_1223397" data-name="Grupo 1223397" transform="translate(24.084 22.042)">
          <path id="Trazado_1177587" data-name="Trazado 1177587" d="M274.319,261.11a1.691,1.691,0,0,1-1.691-1.691h0a1.682,1.682,0,0,1,.281-.933" transform="translate(-272.628 -257.728)" fill="none" stroke="#000" stroke-linecap="round" stroke-linejoin="round" stroke-miterlimit="10" stroke-width="1.2"/>
          <path id="Trazado_1177588" data-name="Trazado 1177588" d="M295.109,250.146a1.691,1.691,0,0,1,1.691,1.691h0a1.691,1.691,0,0,1-1.691,1.691h-3.87" transform="translate(-289.548 -250.146)" fill="none" stroke="#000" stroke-linecap="round" stroke-linejoin="round" stroke-miterlimit="10" stroke-width="1.2"/>
        </g>
        <g id="Grupo_1223398" data-name="Grupo 1223398" transform="translate(26.696 18.661)">
          <path id="Trazado_1177589" data-name="Trazado 1177589" d="M304.4,212.924h.851a1.691,1.691,0,0,1,1.691,1.691h0a1.691,1.691,0,0,1-1.691,1.691h-3.87" transform="translate(-301.382 -212.924)" fill="none" stroke="#000" stroke-linecap="round" stroke-linejoin="round" stroke-miterlimit="10" stroke-width="1.2"/>
        </g>
        <g id="Grupo_1223399" data-name="Grupo 1223399" transform="translate(26.237 15.279)">
          <path id="Trazado_1177590" data-name="Trazado 1177590" d="M296.33,175.7h3.407a1.691,1.691,0,0,1,1.691,1.691h0a1.691,1.691,0,0,1-1.691,1.691h-3.116" transform="translate(-296.33 -175.701)" fill="none" stroke="#000" stroke-linecap="round" stroke-linejoin="round" stroke-miterlimit="10" stroke-width="1.2"/>
        </g>
        <path id="Trazado_1177591" data-name="Trazado 1177591" d="M145.988,169.165h.618a4.914,4.914,0,0,0,3.319-1.29h0a4.059,4.059,0,0,1,2.742-1.066H158.1a1.739,1.739,0,0,1,1.748,1.71c0,.006,0,.012,0,.019v5.958a.815.815,0,0,1-.815.815h0a2.41,2.41,0,0,1-2.4-2.16l-.28-2.091h-1.965" transform="translate(-133.408 -152.337)" fill="none" stroke="#000" stroke-linecap="round" stroke-linejoin="round" stroke-miterlimit="10" stroke-width="1.2"/>
        <path id="Trazado_1177592" data-name="Trazado 1177592" d="M15.632,176.791l-.112-.054a10.364,10.364,0,0,0-4.506-1.031H7.5" transform="translate(-7.5 -160.426)" fill="none" stroke="#000" stroke-linecap="round" stroke-linejoin="round" stroke-miterlimit="10" stroke-width="1.2"/>
        <path id="Trazado_1177593" data-name="Trazado 1177593" d="M7.5,306.82h3.462a10.364,10.364,0,0,0,4.594-1.074h0" transform="translate(-7.5 -278.654)" fill="none" stroke="#000" stroke-linecap="round" stroke-linejoin="round" stroke-miterlimit="10" stroke-width="1.2"/>
        <path id="Trazado_1177594" data-name="Trazado 1177594" d="M98.45,182.484v3.493a.966.966,0,0,0,.967.966h2.246a.966.966,0,0,0,.966-.966v-11.32a.966.966,0,0,0-.966-.967H99.417a.966.966,0,0,0-.967.967V179.3" transform="translate(-90.188 -158.593)" fill="none" stroke="#000" stroke-linecap="round" stroke-linejoin="round" stroke-miterlimit="10" stroke-width="1.2"/>
        <path id="Trazado_1177595" data-name="Trazado 1177595" d="M211.724,324.592a1.739,1.739,0,0,0-1.748,1.71c0,.006,0,.012,0,.019v5.957a.815.815,0,0,0,.815.815h0a2.41,2.41,0,0,0,2.4-2.16l.28-2.091h1.965" transform="translate(-191.583 -295.788)" fill="none" stroke="#000" stroke-linecap="round" stroke-linejoin="round" stroke-miterlimit="10" stroke-width="1.2"/>
        <path id="Trazado_1177596" data-name="Trazado 1177596" d="M295.752,326.947h-.618a4.914,4.914,0,0,1-3.319-1.29h0a4.06,4.06,0,0,0-2.742-1.066" transform="translate(-263.495 -295.787)" fill="none" stroke="#000" stroke-linecap="round" stroke-linejoin="round" stroke-miterlimit="10" stroke-width="1.2"/>
        <line id="Línea_3724" data-name="Línea 3724" x1="3.814" y2="3.44" transform="translate(33.669 9.622)" fill="none" stroke="#000" stroke-linecap="round" stroke-linejoin="round" stroke-miterlimit="10" stroke-width="1.2"/>
      </g>
    </g>
  </g>
</svg>
