<svg xmlns="http://www.w3.org/2000/svg" xmlns:xlink="http://www.w3.org/1999/xlink" width="108" height="108" viewBox="0 0 108 108">
  <defs>
    <filter id="Trazado_904820" x="0" y="0" width="108" height="108" filterUnits="userSpaceOnUse">
      <feOffset dy="3" input="SourceAlpha"/>
      <feGaussianBlur stdDeviation="3" result="blur"/>
      <feFlood flood-opacity="0.161"/>
      <feComposite operator="in" in2="blur"/>
      <feComposite in="SourceGraphic"/>
    </filter>
  </defs>
  <g id="Grupo_1223983" data-name="Grupo 1223983" transform="translate(-200 -10736.086)">
    <g id="Grupo_1223789" data-name="Grupo 1223789" transform="translate(209 10742.086)">
      <g id="Grupo_1222170" data-name="Grupo 1222170" transform="translate(0 0)">
        <g id="Grupo_1173585" data-name="Grupo 1173585">
          <g id="Grupo_1173428" data-name="Grupo 1173428">
            <g id="Grupo_1171958" data-name="Grupo 1171958">
              <g id="Grupo_1167341" data-name="Grupo 1167341">
                <g id="Grupo_1166792" data-name="Grupo 1166792">
                  <g transform="matrix(1, 0, 0, 1, -9, -6)" filter="url(#Trazado_904820)">
                    <g id="Trazado_904820-2" data-name="Trazado 904820" transform="translate(9 6)" fill="#f2f4f0">
                      <path d="M 44.99999618530273 88.50003051757812 C 39.12687301635742 88.50003051757812 33.43022155761719 87.35010528564453 28.06829643249512 85.08219146728516 C 22.88852119445801 82.89134216308594 18.23629570007324 79.75461578369141 14.24084663391113 75.75917053222656 C 10.24540901184082 71.76371765136719 7.108683586120605 67.11149597167969 4.917821407318115 61.93172073364258 C 2.649921178817749 56.56979370117188 1.499996185302734 50.87314224243164 1.499996185302734 45.00001907348633 C 1.499996185302734 39.12689590454102 2.649921178817749 33.43024444580078 4.917821407318115 28.06830596923828 C 7.108683586120605 22.88853073120117 10.24540901184082 18.23631858825684 14.24084663391113 14.24086952209473 C 18.23629570007324 10.2454195022583 22.88852119445801 7.108694076538086 28.06829643249512 4.917831420898438 C 33.43022155761719 2.649931669235229 39.12687301635742 1.500006556510925 44.99999618530273 1.500006556510925 C 50.87311935424805 1.500006556510925 56.56977081298828 2.649931669235229 61.93169784545898 4.917831420898438 C 67.11147308349609 7.108694076538086 71.76369476318359 10.2454195022583 75.75914764404297 14.24086952209473 C 79.75458526611328 18.23631858825684 82.89131164550781 22.88853073120117 85.08216857910156 28.06830596923828 C 87.35007476806641 33.43024444580078 88.5 39.12689590454102 88.5 45.00001907348633 C 88.5 50.87314224243164 87.35007476806641 56.56979370117188 85.08216857910156 61.93172073364258 C 82.89131164550781 67.11149597167969 79.75458526611328 71.76371765136719 75.75914764404297 75.75917053222656 C 71.76369476318359 79.75461578369141 67.11147308349609 82.89134216308594 61.93169784545898 85.08219146728516 C 56.56977081298828 87.35010528564453 50.87311935424805 88.50003051757812 44.99999618530273 88.50003051757812 Z" stroke="none"/>
                      <path d="M 44.99999618530273 3.000007629394531 C 39.32870864868164 3.000007629394531 33.82865142822266 4.110061645507812 28.65262603759766 6.299346923828125 C 23.65165710449219 8.414573669433594 19.15968322753906 11.44334411621094 15.301513671875 15.30152130126953 C 11.44333648681641 19.15969085693359 8.414566040039062 23.65166473388672 6.299339294433594 28.65263366699219 C 4.110054016113281 33.82867431640625 2.999992370605469 39.32873153686523 2.999992370605469 45.00001907348633 C 2.999992370605469 50.67130661010742 4.110054016113281 56.17136383056641 6.299339294433594 61.34738922119141 C 8.414566040039062 66.34837341308594 11.44333648681641 70.84033203125 15.301513671875 74.69850158691406 C 19.15968322753906 78.55668640136719 23.65165710449219 81.58546447753906 28.65262603759766 83.70069122314453 C 33.82865142822266 85.88997650146484 39.32870864868164 87.00003051757812 44.99999618530273 87.00003051757812 C 50.67128372192383 87.00003051757812 56.17134094238281 85.88997650146484 61.34736633300781 83.70069122314453 C 66.34834289550781 81.58546447753906 70.84030914306641 78.55668640136719 74.69847869873047 74.69850158691406 C 78.55665588378906 70.84033203125 81.58542633056641 66.34837341308594 83.70065307617188 61.34738922119141 C 85.88993835449219 56.17136383056641 87 50.67130661010742 87 45.00001907348633 C 87 39.32873153686523 85.88993835449219 33.82867431640625 83.70065307617188 28.65263366699219 C 81.58542633056641 23.65166473388672 78.55665588378906 19.15969085693359 74.69847869873047 15.30152130126953 C 70.84030914306641 11.44334411621094 66.34834289550781 8.414573669433594 61.34736633300781 6.299346923828125 C 56.17134094238281 4.110061645507812 50.67128372192383 3.000007629394531 44.99999618530273 3.000007629394531 M 44.99999618530273 7.62939453125e-06 C 69.85281372070312 7.62939453125e-06 90 20.14719390869141 90 45.00001907348633 C 90 69.85282897949219 69.85281372070312 90.00003051757812 44.99999618530273 90.00003051757812 C 20.14717864990234 90.00003051757812 -7.62939453125e-06 69.85282897949219 -7.62939453125e-06 45.00001907348633 C -7.62939453125e-06 20.14719390869141 20.14717864990234 7.62939453125e-06 44.99999618530273 7.62939453125e-06 Z" stroke="none" fill="#4a5641"/>
                    </g>
                  </g>
                </g>
              </g>
            </g>
          </g>
        </g>
      </g>
    </g>
    <g id="social-equality_18241613" transform="translate(193.034 10726.231)">
      <g id="Grupo_1223982" data-name="Grupo 1223982" transform="translate(30.53 30.788)">
        <path id="Trazado_1179345" data-name="Trazado 1179345" d="M94.42,246.65h12.4v15.734H94.42Z" transform="translate(-86.43 -217.678)" fill="#80d8ff" fill-rule="evenodd"/>
        <path id="Trazado_1179346" data-name="Trazado 1179346" d="M82.548,131.032V116.945c0-2.439-2.724-4.435-6.051-4.435H67.021c-3.326,0-6.051,2-6.051,4.435v14.087Z" transform="translate(-57.599 -102.06)" fill="#00d391" fill-rule="evenodd"/>
        <path id="Trazado_1179347" data-name="Trazado 1179347" d="M105.311,131.032V116.945c0-2.439-2.724-4.435-6.051-4.435H90.042a5.4,5.4,0,0,0-2.662,4.559v13.961h17.931Z" transform="translate(-80.362 -102.06)" fill="#00f4a8" fill-rule="evenodd"/>
        <path id="Trazado_1179348" data-name="Trazado 1179348" d="M102.148,36.83a5.92,5.92,0,1,1-5.918,5.922A5.92,5.92,0,0,1,102.148,36.83Z" transform="translate(-87.99 -36.83)" fill="#ffb1a0" fill-rule="evenodd"/>
        <path id="Trazado_1179349" data-name="Trazado 1179349" d="M118.93,36.83a5.921,5.921,0,0,1,3.957,10.326,5.919,5.919,0,0,1-5.218-10.189A5.858,5.858,0,0,1,118.93,36.83Z" transform="translate(-104.771 -36.83)" fill="#ffcebf" fill-rule="evenodd"/>
        <path id="Trazado_1179350" data-name="Trazado 1179350" d="M327.74,246.65h12.4v15.734h-12.4Z" transform="translate(-287.533 -217.678)" fill="#c9f0fe" fill-rule="evenodd"/>
        <path id="Trazado_1179351" data-name="Trazado 1179351" d="M294.69,131.032V116.945c0-2.439,2.724-4.435,6.051-4.435h9.477c3.326,0,6.051,2,6.051,4.435v14.087Z" transform="translate(-259.046 -102.06)" fill="#bd50b6" fill-rule="evenodd"/>
        <path id="Trazado_1179352" data-name="Trazado 1179352" d="M294.69,131.032V116.945c0-2.439,2.724-4.435,6.051-4.435h9.218a5.4,5.4,0,0,1,2.662,4.559v13.961H294.69Z" transform="translate(-259.046 -102.06)" fill="#e56ab9" fill-rule="evenodd"/>
        <path id="Trazado_1179353" data-name="Trazado 1179353" d="M335.868,36.83a5.92,5.92,0,1,0,5.922,5.922A5.919,5.919,0,0,0,335.868,36.83Z" transform="translate(-289.438 -36.83)" fill="#ffb1a0" fill-rule="evenodd"/>
        <path id="Trazado_1179354" data-name="Trazado 1179354" d="M335.868,36.83a5.92,5.92,0,0,0-3.953,10.326,5.919,5.919,0,0,0,5.218-10.189,5.868,5.868,0,0,0-1.265-.137Z" transform="translate(-289.438 -36.83)" fill="#ffcebf" fill-rule="evenodd"/>
        <path id="Trazado_1179355" data-name="Trazado 1179355" d="M210.41,246.65h12.4v15.734h-12.4Z" transform="translate(-186.404 -217.678)" fill="#8c9eff" fill-rule="evenodd"/>
        <path id="Trazado_1179356" data-name="Trazado 1179356" d="M198.548,131.032V116.945c0-2.439-2.72-4.435-6.051-4.435h-9.477c-3.326,0-6.051,2-6.051,4.435v14.087Z" transform="translate(-157.581 -102.06)" fill="#fbc700" fill-rule="evenodd"/>
        <path id="Trazado_1179357" data-name="Trazado 1179357" d="M221.311,131.032V116.945c0-2.439-2.72-4.435-6.051-4.435h-9.218a5.411,5.411,0,0,0-2.662,4.559v13.961h17.931Z" transform="translate(-180.344 -102.06)" fill="#ffe559" fill-rule="evenodd"/>
        <path id="Trazado_1179358" data-name="Trazado 1179358" d="M218.142,36.83a5.92,5.92,0,1,1-5.922,5.922A5.919,5.919,0,0,1,218.142,36.83Z" transform="translate(-187.964 -36.83)" fill="#ffb1a0" fill-rule="evenodd"/>
        <path id="Trazado_1179359" data-name="Trazado 1179359" d="M234.95,36.83A5.921,5.921,0,0,1,238.9,47.156a5.92,5.92,0,0,1-5.218-10.189A5.887,5.887,0,0,1,234.95,36.83Z" transform="translate(-204.771 -36.83)" fill="#ffcebf" fill-rule="evenodd"/>
        <path id="Trazado_1179360" data-name="Trazado 1179360" d="M345.006,264.544l.145-4.427,7.657-6.682a6.6,6.6,0,0,0,2.208-5.534l-.65-12.3c-.145-2.744-4.367-2.677-4.478.07l-.329,8.039a2.531,2.531,0,0,0-2.7-1.03l-9.692,9.362a5.544,5.544,0,0,0-1.745,4.113v8.384h9.586Z" transform="translate(-294.152 -206.412)" fill="#ffcebe" fill-rule="evenodd"/>
        <path id="Trazado_1179361" data-name="Trazado 1179361" d="M390.3,264.545l.145-4.427,7.657-6.682a6.6,6.6,0,0,0,2.208-5.534l-.65-12.3a2.1,2.1,0,0,0-2.212-2.024c-.07,0-.145,0-.215.011a2.67,2.67,0,0,1,.055.4l.65,12.3a6.6,6.6,0,0,1-2.208,5.534l-7.657,6.682-.1,6.036H390.3Z" transform="translate(-339.446 -206.413)" fill="#ffb1a0" fill-rule="evenodd"/>
        <path id="Trazado_1179362" data-name="Trazado 1179362" d="M46.579,264.544l-.149-4.427-7.652-6.682a6.6,6.6,0,0,1-2.212-5.534l.65-12.3c.149-2.744,4.368-2.677,4.482.07l.329,8.039a2.522,2.522,0,0,1,2.7-1.03l9.692,9.362a5.529,5.529,0,0,1,1.745,4.113v8.384H46.579Z" transform="translate(-36.554 -206.412)" fill="#ffcebe" fill-rule="evenodd"/>
        <path id="Trazado_1179363" data-name="Trazado 1179363" d="M46.579,264.545l-.149-4.427-7.652-6.682a6.6,6.6,0,0,1-2.212-5.534l.65-12.3a2.1,2.1,0,0,1,2.212-2.024c.075,0,.145,0,.22.011a1.918,1.918,0,0,0-.055.4l-.653,12.3a6.6,6.6,0,0,0,2.212,5.534l7.652,6.682.106,6.036H46.579Z" transform="translate(-36.554 -206.413)" fill="#ffb1a0" fill-rule="evenodd"/>
        <path id="Trazado_1179364" data-name="Trazado 1179364" d="M175.727,302.63a12.717,12.717,0,1,1-12.717,12.717,12.719,12.719,0,0,1,12.717-12.717Z" transform="translate(-145.549 -265.928)" fill="#fbc700" fill-rule="evenodd"/>
        <path id="Trazado_1179365" data-name="Trazado 1179365" d="M192.336,302.63a12.717,12.717,0,0,1,9.75,20.882,12.718,12.718,0,0,1-16.839-18.725A12.658,12.658,0,0,1,192.336,302.63Z" transform="translate(-162.158 -265.928)" fill="#ffe559" fill-rule="evenodd"/>
      </g>
      <path id="Trazado_1179366" data-name="Trazado 1179366" d="M55.1,77.647a.967.967,0,0,1,0-1.933H66.31a.967.967,0,1,1,0,1.933Zm0,7.053a.967.967,0,1,1,0-1.933H66.31a.967.967,0,1,1,0,1.933Zm6.6-18.141a13.592,13.592,0,0,1,4.263,1.014V60.727H55.5v6.823a13.593,13.593,0,0,1,4.267-.99v-.924a.967.967,0,0,1,1.933,0Zm6.2,2a14,14,0,0,1,1.871,1.393V60.727H67.9Zm3.8,3.5a13.729,13.729,0,0,1,1.738,3.123l2.528-2.447v-7.1a.967.967,0,1,1,1.933,0v5.237l4.263-4.122V60.728H71.7Zm2.368,5.2a13.782,13.782,0,0,1,.32,2.947,13.616,13.616,0,0,1-1.628,6.475v1.272h7.687l.113-3.492a.978.978,0,0,1,.329-.693l7.657-6.682a5.644,5.644,0,0,0,1.879-4.764l-.65-12.295a1.286,1.286,0,0,0-2.556.059l-.313,7.738a3.3,3.3,0,0,1,.25,2.963,6.932,6.932,0,0,1-1.9,2.532l-3.836,3.938a.963.963,0,1,1-1.381-1.342l3.84-3.941c.019-.023.039-.043.062-.066a5.171,5.171,0,0,0,1.408-1.8,1.642,1.642,0,0,0-.956-2.055,1.56,1.56,0,0,0-.708-.1L74.21,77.118c-.048.051-.1.1-.138.141ZM70.917,89.315a13.685,13.685,0,0,1-20.131.318.955.955,0,0,1-.65.25H40.554a.963.963,0,0,1-.967-1.014l-.13-3.926-7.339-6.407a7.58,7.58,0,0,1-2.541-6.309l.65-12.295a3.006,3.006,0,0,1,2.705-2.908V45.674a4.889,4.889,0,0,1,2.172-3.91,8.019,8.019,0,0,1,3.734-1.421,6.887,6.887,0,1,1,11.7,0c.271.032.536.079.794.133a8.538,8.538,0,0,1,1.366.418,8.568,8.568,0,0,1,2.157-.552,6.888,6.888,0,1,1,11.7,0,8.33,8.33,0,0,1,2.274.6,8.64,8.64,0,0,1,2.278-.6,6.887,6.887,0,1,1,11.7,0,8,8,0,0,1,3.73,1.421,4.881,4.881,0,0,1,2.176,3.91V57A3.03,3.03,0,0,1,91.7,59.933l.65,12.295a7.567,7.567,0,0,1-2.537,6.309l-7.339,6.407-.133,3.926a.96.96,0,0,1-.962,1.014H71.8A.966.966,0,0,1,70.917,89.315ZM49.17,87.565a13.706,13.706,0,0,1-1.73-10.721l-9.2-8.89a1.56,1.56,0,0,0-.708.1,1.643,1.643,0,0,0-.956,2.055,5.256,5.256,0,0,0,1.413,1.8c.019.023.043.043.062.066l3.84,3.941a.963.963,0,0,1-1.381,1.342l-3.84-3.938a7.025,7.025,0,0,1-1.9-2.532,3.3,3.3,0,0,1,.254-2.963l-.318-7.738a1.286,1.286,0,0,0-2.556-.059L31.5,72.321a5.656,5.656,0,0,0,1.882,4.764l7.652,6.682a.944.944,0,0,1,.329.693l.117,3.492h7.683v-.387ZM48.125,74.825a13.506,13.506,0,0,1,1.824-3.068V60.727H39.487v5.75L43.749,70.6V65.635a.967.967,0,0,1,1.933,0v6.829Zm3.753-5.072a14.026,14.026,0,0,1,1.691-1.221v-7.8H51.878ZM72.459,80.207A11.751,11.751,0,1,0,60.708,91.958,11.751,11.751,0,0,0,72.459,80.207ZM34.868,57.313a2.981,2.981,0,0,1,1.491,1.48H37.5V49.439a.967.967,0,1,1,1.933,0v9.355h9.519V45.673A4.662,4.662,0,0,1,50.5,42.287a6.783,6.783,0,0,0-1.073-.083h-.591a6.886,6.886,0,0,1-8.295,0h-.591a6.292,6.292,0,0,0-3.7,1.116,2.994,2.994,0,0,0-1.382,2.353v11.64Zm1.8,3.413.224,5.5a3.52,3.52,0,0,1,.661-.168V60.725h-.885ZM84.1,66.03a3.523,3.523,0,0,1,.947.2l.224-5.5H84.1Zm1.476-7.237a2.95,2.95,0,0,1,1.21-1.331V45.673A3,3,0,0,0,85.4,43.32,6.286,6.286,0,0,0,81.7,42.2h-.591a6.886,6.886,0,0,1-8.295,0h-.591a7.018,7.018,0,0,0-1.276.113,4.636,4.636,0,0,1,1.515,3.354v13.12h9.754V49.439a.967.967,0,1,1,1.933,0v9.355ZM64.854,42.2a6.886,6.886,0,0,1-8.295,0h-.591a6.338,6.338,0,0,0-3.7,1.116,2.994,2.994,0,0,0-1.382,2.353v13.12h2.635V49.439a.967.967,0,1,1,1.933,0v9.355H65.964V49.439a.967.967,0,0,1,1.933,0v9.355h2.63V45.673a3.4,3.4,0,0,0-2.078-2.782,7.044,7.044,0,0,0-3.6-.686Zm-.642-9a4.954,4.954,0,1,0,0,7A4.957,4.957,0,0,0,64.211,33.207ZM76.96,31.755a4.954,4.954,0,1,0,3.5,1.453A4.953,4.953,0,0,0,76.96,31.755ZM48.191,33.207a4.952,4.952,0,1,0,0,7A4.952,4.952,0,0,0,48.191,33.207Z" transform="translate(0)"/>
    </g>
  </g>
</svg>
