<svg xmlns="http://www.w3.org/2000/svg" xmlns:xlink="http://www.w3.org/1999/xlink" width="85.895" height="85.895" viewBox="0 0 85.895 85.895">
  <defs>
    <filter id="Trazado_904820" x="0" y="0" width="85.895" height="85.895" filterUnits="userSpaceOnUse">
      <feOffset dy="3" input="SourceAlpha"/>
      <feGaussianBlur stdDeviation="3" result="blur"/>
      <feFlood flood-opacity="0.161"/>
      <feComposite operator="in" in2="blur"/>
      <feComposite in="SourceGraphic"/>
    </filter>
  </defs>
  <g id="Grupo_1223568" data-name="Grupo 1223568" transform="translate(-613.776 -8130.053)">
    <g id="Grupo_1223169" data-name="Grupo 1223169" transform="translate(622.776 8136.053)">
      <g id="Grupo_1173585" data-name="Grupo 1173585" transform="translate(0 0)">
        <g id="Grupo_1173428" data-name="Grupo 1173428">
          <g id="Grupo_1171958" data-name="Grupo 1171958">
            <g id="Grupo_1167341" data-name="Grupo 1167341">
              <g id="Grupo_1166792" data-name="Grupo 1166792">
                <g transform="matrix(1, 0, 0, 1, -9, -6)" filter="url(#Trazado_904820)">
                  <g id="Trazado_904820-2" data-name="Trazado 904820" transform="translate(9 6)" fill="#fcf5f0">
                    <path d="M 33.947265625 66.39455413818359 C 29.56625556945801 66.39455413818359 25.31708526611328 65.536865234375 21.31778526306152 63.84530639648438 C 17.45416641235352 62.21112823486328 13.98396587371826 59.87134552001953 11.00358581542969 56.89096832275391 C 8.023205757141113 53.91057586669922 5.683425426483154 50.44037628173828 4.049255847930908 46.57675552368164 C 2.357695579528809 42.57745742797852 1.500005602836609 38.32828521728516 1.500005602836609 33.9472770690918 C 1.500005602836609 29.56625747680664 2.357695579528809 25.31708717346191 4.049255847930908 21.31778717041016 C 5.683425426483154 17.45416641235352 8.023205757141113 13.98396682739258 11.00358581542969 11.003586769104 C 13.98396587371826 8.023197174072266 17.45416641235352 5.683416843414307 21.31778526306152 4.049247264862061 C 25.31707572937012 2.357686996459961 29.56625556945801 1.499997019767761 33.947265625 1.499997019767761 C 38.32827377319336 1.499997019767761 42.57745742797852 2.357686996459961 46.57674407958984 4.049247264862061 C 50.44036483764648 5.683416843414307 53.91056442260742 8.023197174072266 56.89094543457031 11.003586769104 C 59.87133407592773 13.98396682739258 62.21111679077148 17.45416641235352 63.84528732299805 21.31778717041016 C 65.53684234619141 25.31708717346191 66.39453887939453 29.56625747680664 66.39453887939453 33.9472770690918 C 66.39453887939453 38.32828521728516 65.53684234619141 42.57745742797852 63.84528732299805 46.57675552368164 C 62.21111679077148 50.44037628173828 59.87133407592773 53.91057586669922 56.89094543457031 56.89096832275391 C 53.91056442260742 59.87134552001953 50.44036483764648 62.21112823486328 46.57674407958984 63.84530639648438 C 42.57745742797852 65.536865234375 38.32827377319336 66.39455413818359 33.947265625 66.39455413818359 Z" stroke="none"/>
                    <path d="M 33.947265625 3 C 29.76808929443359 3 25.71552276611328 3.817825317382812 21.9021110534668 5.430755615234375 C 18.21730041503906 6.989311218261719 14.90735626220703 9.221134185791016 12.06424331665039 12.06424331665039 C 9.221134185791016 14.90735626220703 6.989311218261719 18.21730041503906 5.430755615234375 21.90212249755859 C 3.817817687988281 25.71552276611328 3 29.76810073852539 3 33.9472770690918 C 3 38.12645721435547 3.817817687988281 42.17902374267578 5.430755615234375 45.99242401123047 C 6.989311218261719 49.67724609375 9.221134185791016 52.98719024658203 12.06424331665039 55.83029937744141 C 14.90735626220703 58.67340850830078 18.21730041503906 60.90524291992188 21.90212249755859 62.46379852294922 C 25.71552276611328 64.07673645019531 29.76808929443359 64.89455413818359 33.947265625 64.89455413818359 C 38.12644195556641 64.89455413818359 42.17900848388672 64.07673645019531 45.99240875244141 62.46379852294922 C 49.67723083496094 60.90524291992188 52.98717498779297 58.67340850830078 55.83028793334961 55.83029937744141 C 58.67340087890625 52.98719024658203 60.90522003173828 49.67724609375 62.46377563476562 45.99242401123047 C 64.07671356201172 42.17902374267578 64.89453125 38.12645721435547 64.89453125 33.9472770690918 C 64.89453125 29.76810073852539 64.07671356201172 25.71552276611328 62.46377563476562 21.90212249755859 C 60.90522003173828 18.21730041503906 58.67340087890625 14.90735626220703 55.83028793334961 12.06424331665039 C 52.98717498779297 9.221134185791016 49.67723083496094 6.989311218261719 45.99242401123047 5.430755615234375 C 42.17900848388672 3.817825317382812 38.12644195556641 3 33.947265625 3 M 33.947265625 0 C 52.69581985473633 0 67.89453125 15.19871139526367 67.89453125 33.9472770690918 C 67.89453125 52.69582366943359 52.69581985473633 67.89455413818359 33.947265625 67.89455413818359 C 15.19871139526367 67.89455413818359 0 52.69582366943359 0 33.9472770690918 C 0 15.19871139526367 15.19871139526367 0 33.947265625 0 Z" stroke="none" fill="#eca675"/>
                  </g>
                </g>
              </g>
            </g>
          </g>
        </g>
      </g>
    </g>
    <g id="empathy_6174508" transform="translate(634.949 8149.226)">
      <g id="Grupo_1223566" data-name="Grupo 1223566" transform="translate(0.638 0.638)">
        <path id="Trazado_1177672" data-name="Trazado 1177672" d="M28.636,36.284V8.221a20.893,20.893,0,0,0-5.69-.721C15.185,7.5,7.5,11.294,7.5,21.165c0,8.018,6.1,9.975,6.1,16.424a17.436,17.436,0,0,1-.889,4.6l12.609,6.093Z" transform="translate(-7.5 -7.5)" fill="#ffcdbe"/>
        <path id="Trazado_1177673" data-name="Trazado 1177673" d="M74.365,356.792l-11.63-4.969c-.3.962-.556,1.634-.556,1.634l13.934,5.954,2.552-7.768v-5.719L75.221,356.4a.638.638,0,0,1-.857.387Z" transform="translate(-57.528 -317.139)" fill="#ebae9d"/>
        <path id="Trazado_1177674" data-name="Trazado 1177674" d="M270.189,37.589c0-7.3,6.1-9.256,6.1-16.424a14.517,14.517,0,0,0-5.248-11.388A18.656,18.656,0,0,0,261.69,7.5,20.892,20.892,0,0,0,256,8.221V42l2.02,6.151,13.189-5.017a21.422,21.422,0,0,1-1.02-5.548Z" transform="translate(-234.864 -7.5)" fill="#9d6c6c"/>
        <path id="Trazado_1177675" data-name="Trazado 1177675" d="M298.87,45.662c0-5.636-2.505-9.289-6.1-11.388a16.258,16.258,0,0,1,4.4,11.388c0,7.168-6.1,9.124-6.1,16.424a17.456,17.456,0,0,0,.84,4.747.638.638,0,0,1-.358.777l-11.8,5.042.531,1.617,13.934-5.954a22.634,22.634,0,0,1-1.445-6.229C292.775,55.637,298.87,53.68,298.87,45.662Z" transform="translate(-256.599 -31.997)" fill="#785252"/>
        <path id="Trazado_1177676" data-name="Trazado 1177676" d="M119.88,35.448a19.234,19.234,0,0,1-3.6-2.822c-1.865-1.617-1.207-3.5-1.207-6.162A11.019,11.019,0,0,0,107.2,15.977c-6.23,1.763-8.912,6.54-8.644,11.877a6.822,6.822,0,0,1-.44,3.252c-.952,2.119-4.278,3.007-4.749,4.526,0,1.1,1.75,3.176,1.75,3.176l-.665,1.864a1.7,1.7,0,0,0-.088.776l1.656,1.5a17.828,17.828,0,0,0,2.039,5.679c1.4,1.39,3.624,2.156,9.141.123,6.046,2.43,7.531.455,7.877-.959s.987-5.991.987-5.991l1.066-.885-.445-1.976c2.667-1.272,3.646-2.178,3.2-3.489Z" transform="translate(-86.059 -15.256)" fill="#ecb880"/>
        <g id="Grupo_1223565" data-name="Grupo 1223565" transform="translate(7.214 0.721)">
          <path id="Trazado_1177677" data-name="Trazado 1177677" d="M306.753,250.5a.851.851,0,0,1-.247-1.223.869.869,0,0,1,1.154-.216,6.96,6.96,0,0,0,3.081,1.032.569.569,0,0,0,.449-.7L311,248.383a.638.638,0,0,1,.324-.682l2.628-1.416a1.585,1.585,0,0,0,.8-1.389,1.7,1.7,0,0,1-.133,2.915l-1.967,1.06.312,1.628a1.336,1.336,0,0,1-1.288,1.585A11.7,11.7,0,0,1,306.753,250.5Z" transform="translate(-288.142 -225.426)" fill="#e9a761"/>
          <path id="Trazado_1177678" data-name="Trazado 1177678" d="M265.084,32.626c-2.065-.938-2.255-2.493-2.141-4.771.338-6.747-3.451-10.371-6.943-11.877,6.23,1.763,8.912,6.54,8.644,11.877-.114,2.278-.505,3.532.44,4.771" transform="translate(-242.078 -15.978)" fill="#e9a761"/>
          <path id="Trazado_1177679" data-name="Trazado 1177679" d="M165.543,318.661l-.967,5.541c-.274,1.569-.771,1.732-1.953,1.732a14.169,14.169,0,0,1-4.566-.87,1.276,1.276,0,0,0-.8-.023,22.119,22.119,0,0,1-5.633.978,8.2,8.2,0,0,1-3.1-.455,3.905,3.905,0,0,0,3.438,2.156,20.825,20.825,0,0,0,5.7-1.021,14.368,14.368,0,0,0,4.957,1.021c1.755,0,3.174-.388,3.659-3.167l.869-4.979Z" transform="translate(-143.744 -292.917)" fill="#e9a761"/>
          <path id="Trazado_1177680" data-name="Trazado 1177680" d="M94.183,248.411a3.336,3.336,0,0,1-1.775-1.341c-.564,1.819,1.75,3.176,1.75,3.176l.375-1.05A.625.625,0,0,0,94.183,248.411Z" transform="translate(-92.319 -227.415)" fill="#e9a761"/>
          <path id="Trazado_1177681" data-name="Trazado 1177681" d="M112.457,294.977a10.085,10.085,0,0,1-5.726,1.895,1.7,1.7,0,0,1-1.656-1.5,8.556,8.556,0,0,0,6.213-1.633.851.851,0,1,1,1.169,1.235Z" transform="translate(-103.99 -269.904)" fill="#e9a761"/>
        </g>
        <path id="Trazado_1177682" data-name="Trazado 1177682" d="M198.928,94.573a3.256,3.256,0,0,0-4.11.625,3.256,3.256,0,0,0-5.688,2.166,5.165,5.165,0,0,0,1.133,3.133c1.052,1.2,4.558,2.791,4.558,2.791,3.282-2.189,4.892-4.383,5.052-6.5a3.223,3.223,0,0,0-.946-2.215Z" transform="translate(-173.683 -86.741)" fill="#efa5c4"/>
        <path id="Trazado_1177683" data-name="Trazado 1177683" d="M211.112,99.581a4.614,4.614,0,0,1,.224,1.7c-.16,2.116-1.049,3.8-4.33,5.984a.551.551,0,0,1-.453.072,12.759,12.759,0,0,1-4.106-1.832,17.79,17.79,0,0,0,4.362,3.831.344.344,0,0,0,.386,0c3.884-2.636,5.495-4.7,5.495-6.963a3.254,3.254,0,0,0-1.578-2.791Z" transform="translate(-185.867 -91.749)" fill="#e592b8"/>
      </g>
      <g id="Grupo_1223567" data-name="Grupo 1223567" transform="translate(0 0)">
        <path id="Trazado_1177684" data-name="Trazado 1177684" d="M52.565,59.994l.786-4.5A1.972,1.972,0,0,0,54.844,53.2l-.224-1.168,1.555-.838a2.339,2.339,0,0,0,.184-4.008,16.233,16.233,0,0,1-3.447-2.678c-.57-.747-.537-1.46-.407-3,.034-.4.072-.854.1-1.352A11.633,11.633,0,0,0,47.592,29.5a.638.638,0,1,0-.716,1.056,10.4,10.4,0,0,1,4.451,9.538c-.024.476-.06.9-.094,1.309-.128,1.515-.228,2.711.664,3.881a17.84,17.84,0,0,0,3.756,2.967,1.056,1.056,0,0,1,.475.936,1.041,1.041,0,0,1-.557.886L53.6,51.132a.638.638,0,0,0-.324.682l.312,1.628a.682.682,0,0,1-.141.566.7.7,0,0,1-.534.261,11.127,11.127,0,0,1-4.573-1.491.638.638,0,0,0-.665,1.089,13.722,13.722,0,0,0,4.382,1.607l-.751,4.3c-.426,2.444-1.574,2.638-3.031,2.638a13.831,13.831,0,0,1-4.707-.97.638.638,0,0,0-.455-.017,20.313,20.313,0,0,1-5.5.987c-.86,0-3.094,0-4.684-6.595A10.437,10.437,0,0,0,38.3,53.785a.638.638,0,0,0-.877-.926,9.593,9.593,0,0,1-5.279,1.72,1.038,1.038,0,0,1-.847-.452,1.057,1.057,0,0,1-.129-.969l.665-1.864a.64.64,0,0,0-.277-.764c-.019-.011-1.87-1.127-1.464-2.437.156-.5.983-1.057,1.783-1.592a7.534,7.534,0,0,0,2.939-2.861.638.638,0,1,0-1.164-.523A6.541,6.541,0,0,1,31.17,45.44c-1.03.689-2,1.339-2.292,2.275a2.92,2.92,0,0,0,.8,2.885,5.725,5.725,0,0,0,.8.727l-.5,1.4a2.349,2.349,0,0,0,.283,2.125,2.3,2.3,0,0,0,1.361.935,15.2,15.2,0,0,0,2.559,6.189,4.273,4.273,0,0,0,3.443,1.711,19.421,19.421,0,0,0,4.718-.7l-1.955,5.953L27.641,63.5a20.934,20.934,0,0,0,1.278-5.879c0-3.242-1.478-5.459-2.907-7.6-.427-.641-.869-1.3-1.274-1.995a.638.638,0,0,0-1.1.645c.423.722.875,1.4,1.313,2.057,1.385,2.078,2.693,4.04,2.693,6.9a22.135,22.135,0,0,1-1.4,6,.638.638,0,0,0,.345.815l13.934,5.954A.638.638,0,0,0,41.375,70l2.344-7.136a14.6,14.6,0,0,0,4.558.827c1.892,0,3.721-.448,4.287-3.695Z" transform="translate(-21.546 -26.889)"/>
        <path id="Trazado_1177685" data-name="Trazado 1177685" d="M43.548,14.3c0-4.723-1.752-8.542-5.066-11.044A18.358,18.358,0,0,0,27.463,0a21.7,21.7,0,0,0-5.68.7,21.776,21.776,0,0,0-5.7-.7A18.358,18.358,0,0,0,5.066,3.26C1.752,5.761,0,9.58,0,14.3a13.812,13.812,0,0,0,1,5.29.638.638,0,1,0,1.182-.48A12.561,12.561,0,0,1,1.276,14.3c0-4.369,1.534-7.742,4.559-10.026a17.088,17.088,0,0,1,10.25-3,22.674,22.674,0,0,1,3.391.243A12.134,12.134,0,0,0,15.61,4.207a11.914,11.914,0,0,0-3.118,9.06c.013.249.019.474.018.689a.638.638,0,0,0,.638.638h0a.638.638,0,0,0,.638-.638c0-.236-.007-.482-.02-.753a10.67,10.67,0,0,1,2.768-8.117c2.371-2.493,6.15-3.811,10.929-3.811a17.088,17.088,0,0,1,10.25,3c3.025,2.283,4.559,5.656,4.559,10.026,0,4.034-1.621,6.467-3.189,8.82-1.429,2.144-2.907,4.362-2.907,7.6a20.937,20.937,0,0,0,1.278,5.879L24.714,42.05l-1.029-3.132a.638.638,0,0,0-1.212.4l1.246,3.792a.638.638,0,0,0,.857.387L38.51,37.543a.638.638,0,0,0,.345-.815,22.135,22.135,0,0,1-1.4-6c0-2.856,1.308-4.819,2.692-6.9,1.6-2.394,3.4-5.107,3.4-9.527Z" transform="translate(0 0)"/>
        <path id="Trazado_1177686" data-name="Trazado 1177686" d="M194.281,90.5a3.894,3.894,0,0,0-6.325-3.041A3.894,3.894,0,0,0,181.63,90.5c0,2.5,1.727,4.744,5.774,7.491a.976.976,0,0,0,1.1,0h0C192.554,95.246,194.281,93.006,194.281,90.5Zm-6.491,6.435h0Zm.165-.113c-3.537-2.426-5.05-4.323-5.05-6.322a2.618,2.618,0,0,1,4.574-1.741.638.638,0,0,0,.952,0,2.618,2.618,0,0,1,4.574,1.741C193.005,92.5,191.493,94.4,187.955,96.825Z" transform="translate(-166.182 -79.242)"/>
      </g>
    </g>
  </g>
</svg>
