<svg xmlns="http://www.w3.org/2000/svg" width="400" height="360" viewBox="0 0 400 360">
  <g id="Grupo_1223617" data-name="Grupo 1223617" transform="translate(-181 -6746)">
    <rect id="Rectángulo_421529" data-name="Rectángulo 421529" width="400" height="360" transform="translate(181 6746)" fill="#fff"/>
    <g id="Grupo_1223616" data-name="Grupo 1223616" transform="translate(983.973 3277.82)">
      <g id="Logo" transform="translate(-751.272 3743.566)">
        <g id="Layer_2" transform="translate(0 0)">
          <g id="Grupo_1099336" data-name="Grupo 1099336" transform="translate(0 0)">
            <g id="Grupo_1099335" data-name="Grupo 1099335">
              <g id="Grupo_1099333" data-name="Grupo 1099333">
                <path id="Trazado_874004" data-name="Trazado 874004" d="M200.043,78.314a9.34,9.34,0,0,0-.666-1.756c-.333-.575-.545-.727-1.725-.727h-2.119V86.124c0,1.635.182,1.877,2.18,2v.605h-6.145v-.605c1.968-.121,2.149-.333,2.149-2V75.832h-1.937c-1.15,0-1.514.121-1.847.757a10.507,10.507,0,0,0-.7,1.725H188.6c.121-1.3.242-2.634.3-3.814h.484c.3.515.545.484,1.15.484h8.385a1.094,1.094,0,0,0,1.09-.484h.515c0,1,.091,2.513.182,3.754l-.636.061Z" transform="translate(-188.6 -69.899)" fill="#e5782c"/>
                <path id="Trazado_874005" data-name="Trazado 874005" d="M244.77,86.344c-.121.545-.7,2.724-.908,3.36H233.6V89.1c1.968-.151,2.119-.333,2.119-2.058V78.685c0-1.877-.242-2-1.816-2.149V75.93h6.478c2,0,2.815,0,3.057-.03,0,.515.091,2.119.182,3.239l-.636.091a6.3,6.3,0,0,0-.636-1.6c-.333-.7-.817-.848-2.089-.848h-2c-.666,0-.7.061-.7.666v4.662h2.361c1.574,0,1.7-.3,1.937-1.756h.666v4.359h-.666c-.272-1.514-.454-1.725-1.968-1.725h-2.331v4.208c0,1.483.454,1.6,1.514,1.635h1.968c1.3,0,1.514-.182,1.968-.727a9.923,9.923,0,0,0,1.15-1.937l.636.182Z" transform="translate(-219.978 -70.875)" fill="#e5782c"/>
                <path id="Trazado_874006" data-name="Trazado 874006" d="M288.153,85.856A28.287,28.287,0,0,1,287,89.034a19.588,19.588,0,0,1-3.875.515c-5.055,0-7.628-3.36-7.628-7.053s3.269-7.3,8.022-7.3,3.3.394,4,.484c.091.938.242,2.21.393,3.269l-.666.151a3.683,3.683,0,0,0-2-2.724,6.007,6.007,0,0,0-2.21-.394c-3.481,0-5.328,2.573-5.328,6.054s2.119,6.69,5.54,6.69,3.209-1,4.3-3.118l.636.212Z" transform="translate(-249.194 -70.387)" fill="#e5782c"/>
                <path id="Trazado_874007" data-name="Trazado 874007" d="M337.645,76.775c-1.362.151-1.786.363-1.846,1.332,0,.666-.061,1.574-.061,3.542v8.476h-.817l-9.051-11.049v5.3c0,1.907.061,2.846.091,3.481.03,1.09.575,1.392,2.089,1.514v.605H322.9v-.605c1.3-.091,1.816-.424,1.907-1.453.061-.666.091-1.635.091-3.542V78.985a1.758,1.758,0,0,0-.424-1.392c-.393-.515-.848-.666-1.877-.757V76.23h3.179l8.96,10.625V81.679c0-1.968-.03-2.876-.091-3.511-.061-.938-.545-1.241-2.24-1.362V76.2h5.237v.605Z" transform="translate(-282.036 -71.084)" fill="#e5782c"/>
                <path id="Trazado_874008" data-name="Trazado 874008" d="M384.874,75.1a6.811,6.811,0,0,1,6.841,6.993,7.091,7.091,0,0,1-6.993,7.386,7.175,7.175,0,0,1,.121-14.349Zm-.424.787c-2.361,0-4.51,2-4.51,5.933s2.149,6.841,5.146,6.841,4.48-1.907,4.48-5.994S387.205,75.887,384.451,75.887Z" transform="translate(-320.457 -70.317)" fill="#e5782c"/>
                <path id="Trazado_874009" data-name="Trazado 874009" d="M440.907,86.332c-.121.666-.757,2.846-.969,3.511H430.1v-.605c1.937-.182,2.089-.3,2.089-2.089V78.764c0-1.786-.212-1.907-1.907-2.058V76.1h5.661v.605c-1.7.182-1.937.242-1.937,2.058v8.6c0,1.3.182,1.574,1.362,1.6h1.665c1.09,0,1.393-.121,1.877-.666a7.711,7.711,0,0,0,1.3-2.18l.666.182Z" transform="translate(-356.994 -71.014)" fill="#e5782c"/>
                <path id="Trazado_874010" data-name="Trazado 874010" d="M478.274,64.083a6.811,6.811,0,0,1,6.841,6.993,7.091,7.091,0,0,1-6.993,7.386,7.175,7.175,0,0,1,.121-14.349Zm-.424.787c-2.361,0-4.51,2-4.51,5.933s2.149,6.841,5.146,6.841,4.48-1.907,4.48-5.994S480.605,64.87,477.85,64.87ZM477,62.539l3.511-3.239a3.612,3.612,0,0,1,1.514,1.15v.182l-4.6,2.452L477,62.569Z" transform="translate(-385.583 -59.3)" fill="#e5782c"/>
                <path id="Trazado_874011" data-name="Trazado 874011" d="M539,83.464c-1.3.182-1.393.3-1.393,1.544v1.786a10.1,10.1,0,0,0,.121,2,21.122,21.122,0,0,1-4.813.757c-4.813,0-7.719-2.967-7.719-7.235s3.633-7.114,7.87-7.114,3.754.424,4.389.515c.03.787.151,2.058.3,3.39l-.636.121c-.515-1.786-1.12-2.573-2.452-3a6.721,6.721,0,0,0-1.968-.272c-3.239,0-5.328,2.21-5.328,6.085s1.725,6.69,5.842,6.69,1.362-.151,1.786-.363c.454-.242.727-.484.727-1.362V85.28c0-1.544-.182-1.725-2.21-1.847v-.605h5.449v.605Z" transform="translate(-423.306 -70.387)" fill="#e5782c"/>
                <path id="Trazado_874012" data-name="Trazado 874012" d="M576.2,89.843v-.605c1.725-.182,1.907-.272,1.907-2.058V78.794c0-1.816-.182-1.907-1.907-2.089V76.1h5.661v.605c-1.756.182-1.937.272-1.937,2.089v8.385c0,1.816.182,1.877,1.937,2.058v.605Z" transform="translate(-458.868 -71.014)" fill="#e5782c"/>
                <path id="Trazado_874013" data-name="Trazado 874013" d="M614.253,85.856a28.3,28.3,0,0,1-1.15,3.178,19.59,19.59,0,0,1-3.875.515c-5.055,0-7.628-3.36-7.628-7.053s3.269-7.3,8.022-7.3,3.3.394,4,.484c.091.938.242,2.21.394,3.269l-.666.151a3.683,3.683,0,0,0-2-2.724,6.007,6.007,0,0,0-2.21-.394c-3.481,0-5.328,2.573-5.328,6.054s2.119,6.69,5.54,6.69,3.209-1,4.3-3.118l.636.212Z" transform="translate(-476.579 -70.387)" fill="#e5782c"/>
                <path id="Trazado_874014" data-name="Trazado 874014" d="M656.318,89.146v-.605c1.362-.182,1.544-.394,1.241-1.181-.272-.817-.7-1.877-1.15-3.209h-4.571c-.333.938-.666,1.786-.938,2.634-.454,1.362-.182,1.544,1.574,1.756v.605H647.6v-.605c1.332-.182,1.665-.3,2.422-2.21l4.389-11.11.666-.121c1.332,3.6,2.785,7.6,4.117,11.261.666,1.847.878,2,2.361,2.18v.605h-5.237ZM654.2,77.885c-.666,1.816-1.392,3.754-2.028,5.419h3.966Z" transform="translate(-508.654 -70.317)" fill="#e5782c"/>
                <path id="Trazado_874015" data-name="Trazado 874015" d="M717.573,76.03c2.966,0,4.874.605,6.175,1.847a6.131,6.131,0,0,1,1.786,4.51,7.736,7.736,0,0,1-2.634,5.721,10.035,10.035,0,0,1-6.266,1.665H711.7v-.605c1.816-.182,1.907-.3,1.907-2.058V78.664c0-1.816-.242-1.907-1.907-2.058V76h5.873Zm-2.149,10.928c0,1.574.666,2.028,2.27,2.028,3.814,0,5.752-2.6,5.752-6.3s-.787-4.056-2.452-5.086a6.76,6.76,0,0,0-3.6-.848c-1.393,0-1.453.121-1.665.3-.182.121-.272.363-.272,1.181v8.718Z" transform="translate(-553.35 -70.945)" fill="#e5782c"/>
                <path id="Trazado_874016" data-name="Trazado 874016" d="M774.77,86.344c-.121.545-.7,2.724-.908,3.36H763.6V89.1c1.968-.151,2.119-.333,2.119-2.058V78.685c0-1.877-.242-2-1.816-2.149V75.93h6.478c2,0,2.815,0,3.057-.03,0,.515.091,2.119.182,3.239l-.636.091a6.313,6.313,0,0,0-.636-1.6c-.333-.7-.818-.848-2.089-.848h-2c-.666,0-.7.061-.7.666v4.662h2.361c1.574,0,1.7-.3,1.937-1.756h.666v4.359h-.666c-.272-1.514-.454-1.725-1.968-1.725h-2.331v4.208c0,1.483.454,1.6,1.514,1.635h1.968c1.3,0,1.513-.182,1.968-.727a9.919,9.919,0,0,0,1.15-1.937l.636.182Z" transform="translate(-589.539 -70.875)" fill="#e5782c"/>
                <path id="Trazado_874017" data-name="Trazado 874017" d="M815.507,86.332c-.121.666-.757,2.846-.969,3.511H804.7v-.605c1.937-.182,2.089-.3,2.089-2.089V78.764c0-1.786-.212-1.907-1.907-2.058V76.1h5.661v.605c-1.7.182-1.937.242-1.937,2.058v8.6c0,1.3.182,1.574,1.362,1.6h1.665c1.09,0,1.392-.121,1.877-.666a7.716,7.716,0,0,0,1.3-2.18l.666.182Z" transform="translate(-618.198 -71.014)" fill="#e5782c"/>
                <path id="Trazado_874018" data-name="Trazado 874018" d="M868.474,75.1a6.811,6.811,0,0,1,6.841,6.993,7.091,7.091,0,0,1-6.993,7.386,7.175,7.175,0,0,1,.121-14.349Zm-.424.787c-2.361,0-4.51,2-4.51,5.933s2.149,6.841,5.146,6.841,4.48-1.907,4.48-5.994S870.805,75.887,868.05,75.887Z" transform="translate(-657.664 -70.317)" fill="#e5782c"/>
                <path id="Trazado_874019" data-name="Trazado 874019" d="M926.932,90.025a6.844,6.844,0,0,1-.787-.03,3.749,3.749,0,0,1-3.3-1.816c-.787-1.09-1.544-2.422-2.21-3.481-.424-.666-.7-.817-1.786-.817h-.727v3.33c0,1.786.242,1.907,1.937,2.058v.605H914.4v-.605c1.756-.182,1.907-.272,1.907-2.058V78.764c0-1.786-.242-1.847-1.907-2.058V76.1h5.388a5.886,5.886,0,0,1,3.391.727,3.152,3.152,0,0,1,1.453,2.785,4.519,4.519,0,0,1-2.724,3.633c.393.666,1.3,2.058,1.937,3.027a22.44,22.44,0,0,0,1.665,2.18,3.072,3.072,0,0,0,1.544.969l-.091.605Zm-7.78-6.872a3.579,3.579,0,0,0,2.331-.605,2.967,2.967,0,0,0,1.15-2.6,2.846,2.846,0,0,0-3.118-3.088c-1.6,0-.969.091-1.12.212-.182.151-.242.363-.242.908v5.176h1Z" transform="translate(-694.69 -71.014)" fill="#e5782c"/>
                <path id="Trazado_874020" data-name="Trazado 874020" d="M958.6,89.843v-.605c1.725-.182,1.907-.272,1.907-2.058V78.794c0-1.816-.182-1.907-1.907-2.089V76.1h5.661v.605c-1.756.182-1.937.272-1.937,2.089v8.385c0,1.816.182,1.877,1.937,2.058v.605Z" transform="translate(-725.51 -71.014)" fill="#e5782c"/>
                <path id="Trazado_874021" data-name="Trazado 874021" d="M994.87,86.344c-.121.545-.7,2.724-.908,3.36H983.7V89.1c1.968-.151,2.119-.333,2.119-2.058V78.685c0-1.877-.242-2-1.817-2.149V75.93h6.478c2,0,2.815,0,3.058-.03,0,.515.091,2.119.182,3.239l-.636.091a6.313,6.313,0,0,0-.636-1.6c-.333-.7-.818-.848-2.089-.848h-2c-.666,0-.7.061-.7.666v4.662h2.361c1.574,0,1.7-.3,1.938-1.756h.666v4.359h-.666c-.272-1.514-.454-1.725-1.968-1.725h-2.331v4.208c0,1.483.454,1.6,1.514,1.635h1.968c1.3,0,1.514-.182,1.968-.727a9.931,9.931,0,0,0,1.15-1.937l.636.182Z" transform="translate(-743.012 -70.875)" fill="#e5782c"/>
                <path id="Trazado_874022" data-name="Trazado 874022" d="M1039.145,76.775c-1.362.151-1.786.363-1.846,1.332,0,.666-.06,1.574-.06,3.542v8.476h-.817l-9.051-11.049v5.3c0,1.907.06,2.846.091,3.481.03,1.09.575,1.392,2.089,1.514v.605H1024.4v-.605c1.3-.091,1.816-.424,1.907-1.453.061-.666.091-1.635.091-3.542V78.985a1.758,1.758,0,0,0-.424-1.392c-.394-.515-.847-.666-1.877-.757V76.23h3.178l8.96,10.625V81.679c0-1.968-.03-2.876-.091-3.511-.06-.938-.545-1.241-2.24-1.362V76.2h5.237v.605Z" transform="translate(-771.182 -71.084)" fill="#e5782c"/>
                <path id="Trazado_874023" data-name="Trazado 874023" d="M1090.343,78.314a9.352,9.352,0,0,0-.666-1.756c-.333-.575-.545-.727-1.726-.727h-2.119V86.124c0,1.635.182,1.877,2.179,2v.605h-6.145v-.605c1.968-.121,2.149-.333,2.149-2V75.832h-1.937c-1.15,0-1.514.121-1.847.757a10.534,10.534,0,0,0-.7,1.725h-.636c.121-1.3.242-2.634.3-3.814h.484c.3.515.545.484,1.151.484h8.385a1.094,1.094,0,0,0,1.09-.484h.515c0,1,.091,2.513.182,3.754l-.636.061Z" transform="translate(-809.393 -69.899)" fill="#e5782c"/>
                <path id="Trazado_874024" data-name="Trazado 874024" d="M1134.97,86.344c-.121.545-.7,2.724-.908,3.36H1123.8V89.1c1.968-.151,2.119-.333,2.119-2.058V78.685c0-1.877-.242-2-1.817-2.149V75.93h6.478c2,0,2.815,0,3.057-.03,0,.515.091,2.119.182,3.239l-.635.091a6.307,6.307,0,0,0-.636-1.6c-.333-.7-.817-.848-2.089-.848h-2c-.666,0-.7.061-.7.666v4.662h2.361c1.574,0,1.7-.3,1.937-1.756h.666v4.359h-.666c-.272-1.514-.454-1.725-1.968-1.725h-2.331v4.208c0,1.483.454,1.6,1.514,1.635h1.968c1.3,0,1.513-.182,1.967-.727a9.925,9.925,0,0,0,1.151-1.937l.636.182Z" transform="translate(-840.701 -70.875)" fill="#e5782c"/>
              </g>
              <g id="Grupo_1099334" data-name="Grupo 1099334" transform="translate(23.884 24.338)">
                <path id="Trazado_874025" data-name="Trazado 874025" d="M268.8,147.3v10.141h-1.3V147.3Z" transform="translate(-267.5 -144.999)"/>
                <path id="Trazado_874026" data-name="Trazado 874026" d="M279.261,157.441V147.3h1.423l3.239,5.116a26.214,26.214,0,0,1,1.816,3.3h0c-.121-1.362-.151-2.6-.151-4.177V147.3h1.241v10.141H285.5l-3.209-5.146a31.873,31.873,0,0,1-1.907-3.39h-.03c.061,1.3.091,2.513.091,4.177v4.329H279.2Z" transform="translate(-275.658 -144.999)"/>
                <path id="Trazado_874027" data-name="Trazado 874027" d="M310.633,155.418a4.6,4.6,0,0,0,2.331.666c1.332,0,2.119-.7,2.119-1.726s-.545-1.483-1.907-2.028c-1.665-.575-2.664-1.453-2.664-2.876a3.008,3.008,0,0,1,3.269-2.755c1.968,0,1.786.242,2.24.484l-.363,1.059a4.01,4.01,0,0,0-1.937-.484c-1.392,0-1.907.817-1.907,1.514s.605,1.423,2.028,1.968c1.725.666,2.573,1.483,2.573,2.967s-1.15,2.906-3.542,2.906-2.058-.272-2.573-.636l.333-1.09Z" transform="translate(-297.344 -144.581)"/>
                <path id="Trazado_874028" data-name="Trazado 874028" d="M335.788,148.42H332.7V147.3h7.507v1.12H337.12v9.021h-1.332Z" transform="translate(-312.963 -144.999)"/>
                <path id="Trazado_874029" data-name="Trazado 874029" d="M362.5,147.3v10.141h-1.3V147.3Z" transform="translate(-332.836 -144.999)"/>
                <path id="Trazado_874030" data-name="Trazado 874030" d="M372.288,148.42H369.2V147.3h7.507v1.12H373.62v9.021h-1.332Z" transform="translate(-338.414 -144.999)"/>
                <path id="Trazado_874031" data-name="Trazado 874031" d="M398.932,147.3v5.994c0,2.27,1,3.239,2.361,3.239s2.452-1,2.452-3.239V147.3h1.332v5.9c0,3.118-1.635,4.389-3.844,4.389s-3.633-1.181-3.633-4.329V147.3Z" transform="translate(-358.217 -144.999)"/>
                <path id="Trazado_874032" data-name="Trazado 874032" d="M435.559,156.759a6.481,6.481,0,0,1-2.664.484,4.735,4.735,0,0,1-4.995-5.116,4.982,4.982,0,0,1,5.3-5.328c3.148,0,2.058.272,2.391.454l-.3,1.059a4.746,4.746,0,0,0-2.059-.424c-2.361,0-3.965,1.514-3.965,4.177s1.423,4.087,3.9,4.087,1.6-.151,2.119-.424Z" transform="translate(-379.345 -144.651)"/>
                <path id="Trazado_874033" data-name="Trazado 874033" d="M459.9,147.3v10.141h-1.3V147.3Z" transform="translate(-400.751 -144.999)"/>
                <path id="Trazado_874034" data-name="Trazado 874034" d="M477.833,146.965c0,3.481-2.119,5.328-4.692,5.328s-4.541-2.058-4.541-5.146,2-5.328,4.692-5.328,4.541,2.119,4.541,5.116Zm-7.871.182c0,2.149,1.181,4.117,3.239,4.117s3.239-1.907,3.239-4.208-1.06-4.117-3.239-4.117S469.962,144.937,469.962,147.147Zm5.419-7.447-1.907,1.756h-1.09l1.392-1.756Z" transform="translate(-407.724 -139.7)"/>
                <path id="Trazado_874035" data-name="Trazado 874035" d="M504.56,157.441V147.3h1.423l3.239,5.116a26.2,26.2,0,0,1,1.816,3.3h0c-.121-1.362-.151-2.6-.151-4.177V147.3h1.241v10.141H510.8l-3.209-5.146a31.868,31.868,0,0,1-1.907-3.39h-.03c.06,1.3.091,2.513.091,4.177v4.329H504.5Z" transform="translate(-432.757 -144.999)"/>
                <path id="Trazado_874036" data-name="Trazado 874036" d="M547.9,147.312a18.643,18.643,0,0,1,2.785-.212,5.781,5.781,0,0,1,4.117,1.271A4.623,4.623,0,0,1,556.225,152a5.424,5.424,0,0,1-1.453,3.935,6.269,6.269,0,0,1-4.48,1.453,9.693,9.693,0,0,1-2.361-.121v-9.959Zm1.3,8.96a8.55,8.55,0,0,0,1.332.061c2.785,0,4.3-1.574,4.3-4.3,0-2.391-1.332-3.905-4.117-3.905s-1.181.061-1.544.121v7.992Z" transform="translate(-463.019 -144.86)"/>
                <path id="Trazado_874037" data-name="Trazado 874037" d="M586.137,152.688H582.2v3.663h4.389v1.09H580.9V147.3h5.479v1.09h-4.147V151.6h3.935v1.09Z" transform="translate(-486.029 -144.999)"/>
                <path id="Trazado_874038" data-name="Trazado 874038" d="M621.137,152.688H617.2v3.663h4.389v1.09H615.9V147.3h5.479v1.09h-4.147V151.6h3.935v1.09Z" transform="translate(-510.434 -144.999)"/>
                <path id="Trazado_874039" data-name="Trazado 874039" d="M640.3,147.312a18.646,18.646,0,0,1,2.785-.212,5.781,5.781,0,0,1,4.117,1.271A4.622,4.622,0,0,1,648.624,152a5.424,5.424,0,0,1-1.453,3.935,6.269,6.269,0,0,1-4.48,1.453,9.694,9.694,0,0,1-2.361-.121v-9.959Zm1.3,8.96a8.547,8.547,0,0,0,1.332.061c2.785,0,4.3-1.574,4.3-4.3,0-2.391-1.332-3.905-4.117-3.905s-1.181.061-1.544.121v7.992Z" transform="translate(-527.448 -144.86)"/>
                <path id="Trazado_874040" data-name="Trazado 874040" d="M674.632,147.3v5.994c0,2.27,1,3.239,2.361,3.239s2.452-1,2.452-3.239V147.3h1.332v5.9c0,3.118-1.635,4.389-3.844,4.389s-3.633-1.181-3.633-4.329V147.3Z" transform="translate(-550.458 -144.999)"/>
                <path id="Trazado_874041" data-name="Trazado 874041" d="M711.159,156.759a6.48,6.48,0,0,1-2.664.484,4.735,4.735,0,0,1-4.995-5.116,4.982,4.982,0,0,1,5.3-5.328c3.148,0,2.058.272,2.391.454l-.3,1.059a4.744,4.744,0,0,0-2.058-.424c-2.361,0-3.966,1.514-3.966,4.177s1.423,4.087,3.905,4.087,1.6-.151,2.119-.424Z" transform="translate(-571.517 -144.651)"/>
                <path id="Trazado_874042" data-name="Trazado 874042" d="M734.322,154.262l-1.06,3.178H731.9l3.451-10.141h1.574l3.451,10.141h-1.392l-1.09-3.178h-3.6Zm3.3-1.029-1-2.906c-.212-.666-.363-1.271-.515-1.847h0c-.151.605-.3,1.211-.515,1.847l-1,2.936h3.057Z" transform="translate(-591.319 -144.999)"/>
                <path id="Trazado_874043" data-name="Trazado 874043" d="M769.859,156.759a6.48,6.48,0,0,1-2.664.484,4.735,4.735,0,0,1-4.995-5.116,4.982,4.982,0,0,1,5.3-5.328c3.148,0,2.059.272,2.392.454l-.3,1.059a4.746,4.746,0,0,0-2.059-.424c-2.361,0-3.965,1.514-3.965,4.177s1.423,4.087,3.905,4.087,1.6-.151,2.119-.424l.272,1.029Z" transform="translate(-612.447 -144.651)"/>
                <path id="Trazado_874044" data-name="Trazado 874044" d="M794.2,147.3v10.141h-1.3V147.3Z" transform="translate(-633.854 -144.999)"/>
                <path id="Trazado_874045" data-name="Trazado 874045" d="M812.033,146.965c0,3.481-2.119,5.328-4.692,5.328s-4.541-2.058-4.541-5.146,2-5.328,4.692-5.328,4.541,2.119,4.541,5.116Zm-7.84.182c0,2.149,1.181,4.117,3.239,4.117s3.239-1.907,3.239-4.208-1.059-4.117-3.239-4.117S804.193,144.937,804.193,147.147Zm5.419-7.447-1.907,1.756h-1.09l1.392-1.756Z" transform="translate(-640.757 -139.7)"/>
                <path id="Trazado_874046" data-name="Trazado 874046" d="M838.76,157.441V147.3h1.423l3.239,5.116a26.194,26.194,0,0,1,1.816,3.3h0c-.121-1.362-.151-2.6-.151-4.177V147.3h1.241v10.141H845l-3.209-5.146a31.888,31.888,0,0,1-1.907-3.39h-.03c.06,1.3.091,2.513.091,4.177v4.329H838.7Z" transform="translate(-665.79 -144.999)"/>
                <path id="Trazado_874047" data-name="Trazado 874047" d="M880.733,155.418a4.6,4.6,0,0,0,2.331.666c1.332,0,2.119-.7,2.119-1.726s-.545-1.483-1.907-2.028c-1.665-.575-2.664-1.453-2.664-2.876a3.008,3.008,0,0,1,3.269-2.755c1.968,0,1.786.242,2.24.484l-.363,1.059a4.01,4.01,0,0,0-1.937-.484c-1.392,0-1.907.817-1.907,1.514s.606,1.423,2.028,1.968c1.725.666,2.573,1.483,2.573,2.967s-1.15,2.906-3.542,2.906-2.059-.272-2.573-.636l.333-1.09Z" transform="translate(-694.866 -144.581)"/>
                <path id="Trazado_874048" data-name="Trazado 874048" d="M907.832,147.3v5.994c0,2.27,1,3.239,2.361,3.239s2.452-1,2.452-3.239V147.3h1.332v5.9c0,3.118-1.635,4.389-3.844,4.389s-3.633-1.181-3.633-4.329V147.3Z" transform="translate(-713.065 -144.999)"/>
                <path id="Trazado_874049" data-name="Trazado 874049" d="M938.7,147.282a17.222,17.222,0,0,1,2.513-.182,4.609,4.609,0,0,1,2.845.848,2.751,2.751,0,0,1,.878,2.119,2.928,2.928,0,0,1-.787,2.149,4.238,4.238,0,0,1-3.088,1.12c-1.271,0-.757,0-1.06-.091V157.3h-1.3v-10.02Zm1.3,4.9a5.222,5.222,0,0,0,1.09.091c1.574,0,2.543-.757,2.543-2.149s-.938-2-2.391-2-1,.03-1.241.091v3.966Z" transform="translate(-735.518 -144.86)"/>
                <path id="Trazado_874050" data-name="Trazado 874050" d="M970.337,152.688H966.4v3.663h4.389v1.09H965.1V147.3h5.479v1.09h-4.147V151.6h3.935v1.09Z" transform="translate(-753.926 -144.999)"/>
                <path id="Trazado_874051" data-name="Trazado 874051" d="M989.5,147.312a14.983,14.983,0,0,1,2.512-.212,4.157,4.157,0,0,1,2.936.817,2.53,2.53,0,0,1,.787,1.937,2.66,2.66,0,0,1-1.907,2.573h0a2.628,2.628,0,0,1,1.483,2.089,15.9,15.9,0,0,0,.787,2.785h-1.362a12.963,12.963,0,0,1-.666-2.422c-.3-1.392-.848-1.937-2.028-1.968H990.8V157.3h-1.3Zm1.3,4.6h1.332c1.393,0,2.271-.757,2.271-1.937s-.938-1.877-2.331-1.907a5.418,5.418,0,0,0-1.3.121v3.693Z" transform="translate(-770.94 -144.86)"/>
                <path id="Trazado_874052" data-name="Trazado 874052" d="M1017.6,147.3v10.141h-1.3V147.3Z" transform="translate(-789.628 -144.999)"/>
                <path id="Trazado_874053" data-name="Trazado 874053" d="M1035.433,151.846c0,3.481-2.119,5.328-4.692,5.328s-4.541-2.058-4.541-5.146,2-5.328,4.692-5.328,4.541,2.119,4.541,5.116Zm-7.871.182c0,2.149,1.181,4.117,3.239,4.117s3.239-1.907,3.239-4.208-1.059-4.117-3.239-4.117S1027.562,149.818,1027.562,152.028Z" transform="translate(-796.53 -144.581)"/>
                <path id="Trazado_874054" data-name="Trazado 874054" d="M1062.3,147.312a14.985,14.985,0,0,1,2.512-.212,4.156,4.156,0,0,1,2.936.817,2.529,2.529,0,0,1,.787,1.937,2.66,2.66,0,0,1-1.907,2.573h0a2.628,2.628,0,0,1,1.483,2.089,15.931,15.931,0,0,0,.787,2.785h-1.362a12.98,12.98,0,0,1-.666-2.422c-.3-1.392-.847-1.937-2.028-1.968H1063.6V157.3h-1.3Zm1.3,4.6h1.332c1.392,0,2.27-.757,2.27-1.937s-.938-1.877-2.331-1.907a5.415,5.415,0,0,0-1.3.121v3.693Z" transform="translate(-821.703 -144.86)"/>
              </g>
            </g>
          </g>
        </g>
      </g>
      <g id="Grupo_1223230" data-name="Grupo 1223230" transform="translate(-663.943 3521.991)">
        <circle id="Elipse_11488" data-name="Elipse 11488" cx="19.839" cy="19.839" r="19.839" transform="translate(39.982 39.982)" fill="#219248"/>
        <path id="Trazado_874002" data-name="Trazado 874002" d="M96.721,25.5a59.821,59.821,0,1,0,59.821,59.821A59.873,59.873,0,0,0,96.721,25.5Zm0,110.229a50.408,50.408,0,1,1,50.408-50.408A50.412,50.412,0,0,1,96.721,135.729Z" transform="translate(-36.9 -25.5)" fill="#0b0b0c"/>
        <path id="Trazado_874003" data-name="Trazado 874003" d="M156.338,117.1V165.99A50.413,50.413,0,0,1,105.931,216.4H87.408A50.413,50.413,0,0,1,37,165.99V117.1h2.024a64.327,64.327,0,0,0,37.856,33.2v17.207a6.674,6.674,0,0,0,6.68,6.68h26.317a6.589,6.589,0,0,0,6.579-6.68V150.3a64.072,64.072,0,0,0,38.16-33.3h1.721Z" transform="translate(-36.899 -24.384)" fill="#e5782c"/>
      </g>
    </g>
  </g>
</svg>
