<svg xmlns="http://www.w3.org/2000/svg" xmlns:xlink="http://www.w3.org/1999/xlink" width="118" height="118" viewBox="0 0 118 118">
  <defs>
    <filter id="Trazado_982547" x="0" y="0" width="118" height="118" filterUnits="userSpaceOnUse">
      <feOffset dy="3" input="SourceAlpha"/>
      <feGaussianBlur stdDeviation="3" result="blur"/>
      <feFlood flood-opacity="0.161"/>
      <feComposite operator="in" in2="blur"/>
      <feComposite in="SourceGraphic"/>
    </filter>
  </defs>
  <g id="Grupo_1223628" data-name="Grupo 1223628" transform="translate(-268.5 -8905.045)">
    <g id="Grupo_1223199" data-name="Grupo 1223199" transform="translate(277.5 8911.045)">
      <g id="Grupo_1211216" data-name="Grupo 1211216" transform="translate(0)">
        <g id="Grupo_1210737" data-name="Grupo 1210737">
          <g id="Grupo_1210537" data-name="Grupo 1210537">
            <g id="Grupo_1164202" data-name="Grupo 1164202">
              <g id="Grupo_1158168" data-name="Grupo 1158168">
                <g id="Grupo_1152576" data-name="Grupo 1152576">
                  <g id="Grupo_1148633" data-name="Grupo 1148633">
                    <g id="Grupo_1148525" data-name="Grupo 1148525">
                      <g transform="matrix(1, 0, 0, 1, -9, -6)" filter="url(#Trazado_982547)">
                        <g id="Trazado_982547-2" data-name="Trazado 982547" transform="translate(9 6)" fill="#fcf5f0">
                          <path d="M 49.99999618530273 98.5 C 43.45188140869141 98.5 37.10042572021484 97.21786499023438 31.12206840515137 94.68923950195312 C 25.34691047668457 92.24655151367188 20.15996742248535 88.74931335449219 15.70532512664795 84.29468536376953 C 11.25068187713623 79.84004211425781 7.753438949584961 74.65309906005859 5.310753345489502 68.87792205810547 C 2.782124757766724 62.89956665039062 1.499996185302734 56.54811096191406 1.499996185302734 49.99999618530273 C 1.499996185302734 43.45188140869141 2.782124757766724 37.10042572021484 5.310753345489502 31.12206840515137 C 7.753438949584961 25.34691047668457 11.25068187713623 20.15996742248535 15.70532512664795 15.70532512664795 C 20.15996742248535 11.25068187713623 25.34691047668457 7.753438949584961 31.12206840515137 5.310753345489502 C 37.10042572021484 2.782124757766724 43.45188140869141 1.499996185302734 49.99999618530273 1.499996185302734 C 56.54811096191406 1.499996185302734 62.89956665039062 2.782124757766724 68.87792205810547 5.310753345489502 C 74.65309906005859 7.753438949584961 79.84004211425781 11.25068187713623 84.29468536376953 15.70532512664795 C 88.74931335449219 20.15996742248535 92.24655151367188 25.34691047668457 94.68923950195312 31.12206840515137 C 97.21786499023438 37.10042572021484 98.5 43.45188140869141 98.5 49.99999618530273 C 98.5 56.54811096191406 97.21786499023438 62.89956665039062 94.68923950195312 68.87792205810547 C 92.24655151367188 74.65309906005859 88.74931335449219 79.84004211425781 84.29468536376953 84.29468536376953 C 79.84004211425781 88.74931335449219 74.65309906005859 92.24655151367188 68.87792205810547 94.68923950195312 C 62.89956665039062 97.21786499023438 56.54811096191406 98.5 49.99999618530273 98.5 Z" stroke="none"/>
                          <path d="M 49.99999618530273 2.999992370605469 C 43.65372085571289 2.999992370605469 37.49885940551758 4.242256164550781 31.70639801025391 6.6922607421875 C 26.11002349853516 9.059318542480469 21.08335113525391 12.4486083984375 16.76598358154297 16.76598358154297 C 12.4486083984375 21.08335113525391 9.059318542480469 26.11002349853516 6.6922607421875 31.70639801025391 C 4.242256164550781 37.49885940551758 2.999992370605469 43.65372085571289 2.999992370605469 49.99999618530273 C 2.999992370605469 56.34627151489258 4.242256164550781 62.50113296508789 6.6922607421875 68.29359436035156 C 9.059318542480469 73.88996887207031 12.4486083984375 78.91664123535156 16.76598358154297 83.2340087890625 C 21.08335113525391 87.55138397216797 26.11002349853516 90.940673828125 31.70639801025391 93.30773162841797 C 37.49885940551758 95.75773620605469 43.65372085571289 97 49.99999618530273 97 C 56.34627151489258 97 62.50113296508789 95.75773620605469 68.29359436035156 93.30773162841797 C 73.88996887207031 90.940673828125 78.91664123535156 87.55138397216797 83.2340087890625 83.2340087890625 C 87.55138397216797 78.91664123535156 90.940673828125 73.88996887207031 93.30773162841797 68.29359436035156 C 95.75773620605469 62.50113296508789 97 56.34627151489258 97 49.99999618530273 C 97 43.65372085571289 95.75773620605469 37.49885940551758 93.30773162841797 31.70639801025391 C 90.940673828125 26.11002349853516 87.55138397216797 21.08335113525391 83.2340087890625 16.76598358154297 C 78.91664123535156 12.4486083984375 73.88996887207031 9.059318542480469 68.29359436035156 6.6922607421875 C 62.50113296508789 4.242256164550781 56.34627151489258 2.999992370605469 49.99999618530273 2.999992370605469 M 49.99999618530273 -7.62939453125e-06 C 77.61422729492188 -7.62939453125e-06 100 22.38576507568359 100 49.99999618530273 C 100 77.61422729492188 77.61422729492188 100 49.99999618530273 100 C 22.38576507568359 100 -7.62939453125e-06 77.61422729492188 -7.62939453125e-06 49.99999618530273 C -7.62939453125e-06 22.38576507568359 22.38576507568359 -7.62939453125e-06 49.99999618530273 -7.62939453125e-06 Z" stroke="none" fill="#eca675"/>
                        </g>
                      </g>
                    </g>
                  </g>
                </g>
              </g>
            </g>
          </g>
        </g>
      </g>
    </g>
    <g id="search_530624" transform="translate(296.388 8929.941)">
      <path id="Trazado_1177899" data-name="Trazado 1177899" d="M29.648,384.616l-8.215,8.215a3.645,3.645,0,0,1-5.155,0L27.07,378.6Z" transform="translate(-14.292 -332.602)" fill="#7a888a"/>
      <g id="Grupo_1223627" data-name="Grupo 1223627" transform="translate(0.918 46.859)">
        <path id="Trazado_1177900" data-name="Trazado 1177900" d="M21.071,386.532,8.56,399.043a3.645,3.645,0,0,1,0-5.155l8.215-8.215Z" transform="translate(-7.493 -385.673)" fill="#b6b8b5"/>
        <path id="Trazado_1177901" data-name="Trazado 1177901" d="M110.26,388.25l-2.577-2.577-2.148.43-.43,2.148,2.577,2.577Z" transform="translate(-93.245 -385.673)" fill="#b6b8b5"/>
      </g>
      <rect id="Rect치ngulo_421636" data-name="Rect치ngulo 421636" width="3.645" height="3.645" transform="translate(12.779 49.437) rotate(-135)" fill="#ced0ce"/>
      <path id="Trazado_1177902" data-name="Trazado 1177902" d="M135.957,311.85l-7.92,7.92-1.718-1.718,6.488-9.352Z" transform="translate(-110.962 -271.193)" fill="#e7e7e6"/>
      <rect id="Rect치ngulo_421637" data-name="Rect치ngulo 421637" width="11.201" height="2.43" transform="translate(23.277 38.938) rotate(135)" fill="#fff"/>
      <path id="Trazado_1177903" data-name="Trazado 1177903" d="M189.76,67.542a24.907,24.907,0,0,1-35.224,35.224l7.732-27.492Z" transform="translate(-135.752 -59.336)" fill="#203f49"/>
      <path id="Trazado_1177904" data-name="Trazado 1177904" d="M137.1,14.88,101.871,50.1A24.907,24.907,0,1,1,137.1,14.88Z" transform="translate(-83.087 -6.673)" fill="#2b5c74"/>
      <path id="Trazado_1177905" data-name="Trazado 1177905" d="M306.781,314.49v23.086l-3.645-1.822-3.645-21.264Z" transform="translate(-263.095 -276.28)" fill="#be40ff"/>
      <path id="Trazado_1177906" data-name="Trazado 1177906" d="M276.781,314.49v21.264l-3.645-1.822-3.645-19.441Z" transform="translate(-236.74 -276.28)" fill="#cd6eff"/>
      <path id="Trazado_1177907" data-name="Trazado 1177907" d="M246.781,314.49v19.441l-7.29,3.645V314.49Z" transform="translate(-210.385 -276.28)" fill="#d88cff"/>
      <path id="Trazado_1177908" data-name="Trazado 1177908" d="M158.931,91.38a19.44,19.44,0,1,1,19.44-19.44A19.462,19.462,0,0,1,158.931,91.38Z" transform="translate(-122.535 -46.121)" fill="#e6b5ff"/>
      <path id="Trazado_1177909" data-name="Trazado 1177909" d="M237.934,131.183l-19.76,19.76a13.972,13.972,0,1,0,19.76-19.76Z" transform="translate(-191.658 -115.244)" fill="#be40ff"/>
      <path id="Trazado_1177910" data-name="Trazado 1177910" d="M208.391,101.64c4.027,4.027,2.87,11.735-2.577,17.183s-13.156,6.6-17.183,2.577a13.972,13.972,0,1,1,19.76-19.76Z" transform="translate(-162.115 -85.701)" fill="#cd6eff"/>
      <path id="Trazado_1177911" data-name="Trazado 1177911" d="M228.473,127.5l3.035,6.15,6.787.986-4.911,4.787,1.159,6.759-6.07-3.191-6.07,3.191,1.159-6.759-4.911-4.787,6.787-.986Z" transform="translate(-192.077 -112.009)" fill="#f8ffa7"/>
      <path id="Trazado_1177912" data-name="Trazado 1177912" d="M36.4,0A25.848,25.848,0,0,0,10.577,25.819,25.573,25.573,0,0,0,15.748,41.3c.063.083.127.165.19.248l-2.3,2.3-.215-.215a.911.911,0,0,0-1.289,0L1.342,54.43a4.556,4.556,0,1,0,6.443,6.443L18.577,50.081a.911.911,0,0,0,0-1.289l-.215-.215L20.67,46.27A25.938,25.938,0,0,0,28.195,50.3v11a.911.911,0,0,0,1.319.815L36.4,58.67l6.882,3.441A.911.911,0,0,0,44.6,61.3v-11a26.1,26.1,0,0,0,12.446-9,25.573,25.573,0,0,0,5.171-15.484A25.848,25.848,0,0,0,36.4,0ZM6.5,59.584A2.734,2.734,0,0,1,2.63,55.718L10.2,48.148l3.866,3.866Zm8.859-8.859L11.49,46.859l1.289-1.289.215.215,3.436,3.436.215.215Zm1.718-3.436-2.148-2.148,2.181-2.181A26.039,26.039,0,0,0,19.259,45.1ZM43.337,43l-.009,0a18.516,18.516,0,0,1-13.863,0l-.009,0a18.529,18.529,0,1,1,13.882,0ZM36.8,56.836a.911.911,0,0,0-.815,0l-5.971,2.986V45.145a20.233,20.233,0,0,0,5.467,1v7.858a.911.911,0,1,0,1.822,0V46.148a20.232,20.232,0,0,0,5.467-1V59.822ZM44.6,48.368V44.442a20.351,20.351,0,1,0-16.4,0v3.926a24,24,0,1,1,32.2-22.55A24.2,24.2,0,0,1,44.6,48.368Z"/>
      <path id="Trazado_1177913" data-name="Trazado 1177913" d="M232.573,127.766a.911.911,0,0,0-.736-.62l-6.313-.917-2.823-5.72a.911.911,0,0,0-1.634,0l-2.823,5.72-6.313.917a.911.911,0,0,0-.5,1.554l4.568,4.453-1.078,6.287a.911.911,0,0,0,1.322.961l5.646-2.968,5.646,2.968a.911.911,0,0,0,1.322-.96l-1.078-6.287,4.568-4.453A.912.912,0,0,0,232.573,127.766Zm-6.414,4.416a.911.911,0,0,0-.262.806l.847,4.94-4.436-2.332a.911.911,0,0,0-.848,0l-4.436,2.332.847-4.94a.911.911,0,0,0-.262-.806l-3.589-3.5,4.96-.721a.911.911,0,0,0,.686-.5l2.218-4.494,2.218,4.494a.911.911,0,0,0,.686.5l4.96.721Z" transform="translate(-185.488 -105.42)"/>
      <path id="Trazado_1177914" data-name="Trazado 1177914" d="M191.875,90a14.9,14.9,0,0,0-14.884,14.884,14.733,14.733,0,0,0,3.082,9.058.911.911,0,1,0,1.445-1.111,12.926,12.926,0,0,1-2.7-7.947,13.061,13.061,0,1,1,13.061,13.061,12.925,12.925,0,0,1-7.947-2.7.911.911,0,0,0-1.111,1.445,14.733,14.733,0,0,0,9.058,3.082,14.884,14.884,0,0,0,0-29.767Z" transform="translate(-155.479 -79.065)"/>
    </g>
  </g>
</svg>
