<svg xmlns="http://www.w3.org/2000/svg" xmlns:xlink="http://www.w3.org/1999/xlink" width="118" height="118" viewBox="0 0 118 118">
  <defs>
    <filter id="Trazado_982547" x="0" y="0" width="118" height="118" filterUnits="userSpaceOnUse">
      <feOffset dy="3" input="SourceAlpha"/>
      <feGaussianBlur stdDeviation="3" result="blur"/>
      <feFlood flood-opacity="0.161"/>
      <feComposite operator="in" in2="blur"/>
      <feComposite in="SourceGraphic"/>
    </filter>
  </defs>
  <g id="Grupo_1223630" data-name="Grupo 1223630" transform="translate(-898.5 -8905.045)">
    <g id="Grupo_1223201" data-name="Grupo 1223201" transform="translate(907.5 8911.045)">
      <g id="Grupo_1211216" data-name="Grupo 1211216" transform="translate(0)">
        <g id="Grupo_1210737" data-name="Grupo 1210737">
          <g id="Grupo_1210537" data-name="Grupo 1210537">
            <g id="Grupo_1164202" data-name="Grupo 1164202">
              <g id="Grupo_1158168" data-name="Grupo 1158168">
                <g id="Grupo_1152576" data-name="Grupo 1152576">
                  <g id="Grupo_1148633" data-name="Grupo 1148633">
                    <g id="Grupo_1148525" data-name="Grupo 1148525">
                      <g transform="matrix(1, 0, 0, 1, -9, -6)" filter="url(#Trazado_982547)">
                        <g id="Trazado_982547-2" data-name="Trazado 982547" transform="translate(9 6)" fill="#fcf5f0">
                          <path d="M 49.99999618530273 98.5 C 43.45188140869141 98.5 37.10042572021484 97.21786499023438 31.12206840515137 94.68923950195312 C 25.34691047668457 92.24655151367188 20.15996742248535 88.74931335449219 15.70532512664795 84.29468536376953 C 11.25068187713623 79.84004211425781 7.753438949584961 74.65309906005859 5.310753345489502 68.87792205810547 C 2.782124757766724 62.89956665039062 1.499996185302734 56.54811096191406 1.499996185302734 49.99999618530273 C 1.499996185302734 43.45188140869141 2.782124757766724 37.10042572021484 5.310753345489502 31.12206840515137 C 7.753438949584961 25.34691047668457 11.25068187713623 20.15996742248535 15.70532512664795 15.70532512664795 C 20.15996742248535 11.25068187713623 25.34691047668457 7.753438949584961 31.12206840515137 5.310753345489502 C 37.10042572021484 2.782124757766724 43.45188140869141 1.499996185302734 49.99999618530273 1.499996185302734 C 56.54811096191406 1.499996185302734 62.89956665039062 2.782124757766724 68.87792205810547 5.310753345489502 C 74.65309906005859 7.753438949584961 79.84004211425781 11.25068187713623 84.29468536376953 15.70532512664795 C 88.74931335449219 20.15996742248535 92.24655151367188 25.34691047668457 94.68923950195312 31.12206840515137 C 97.21786499023438 37.10042572021484 98.5 43.45188140869141 98.5 49.99999618530273 C 98.5 56.54811096191406 97.21786499023438 62.89956665039062 94.68923950195312 68.87792205810547 C 92.24655151367188 74.65309906005859 88.74931335449219 79.84004211425781 84.29468536376953 84.29468536376953 C 79.84004211425781 88.74931335449219 74.65309906005859 92.24655151367188 68.87792205810547 94.68923950195312 C 62.89956665039062 97.21786499023438 56.54811096191406 98.5 49.99999618530273 98.5 Z" stroke="none"/>
                          <path d="M 49.99999618530273 2.999992370605469 C 43.65372085571289 2.999992370605469 37.49885940551758 4.242256164550781 31.70639801025391 6.6922607421875 C 26.11002349853516 9.059318542480469 21.08335113525391 12.4486083984375 16.76598358154297 16.76598358154297 C 12.4486083984375 21.08335113525391 9.059318542480469 26.11002349853516 6.6922607421875 31.70639801025391 C 4.242256164550781 37.49885940551758 2.999992370605469 43.65372085571289 2.999992370605469 49.99999618530273 C 2.999992370605469 56.34627151489258 4.242256164550781 62.50113296508789 6.6922607421875 68.29359436035156 C 9.059318542480469 73.88996887207031 12.4486083984375 78.91664123535156 16.76598358154297 83.2340087890625 C 21.08335113525391 87.55138397216797 26.11002349853516 90.940673828125 31.70639801025391 93.30773162841797 C 37.49885940551758 95.75773620605469 43.65372085571289 97 49.99999618530273 97 C 56.34627151489258 97 62.50113296508789 95.75773620605469 68.29359436035156 93.30773162841797 C 73.88996887207031 90.940673828125 78.91664123535156 87.55138397216797 83.2340087890625 83.2340087890625 C 87.55138397216797 78.91664123535156 90.940673828125 73.88996887207031 93.30773162841797 68.29359436035156 C 95.75773620605469 62.50113296508789 97 56.34627151489258 97 49.99999618530273 C 97 43.65372085571289 95.75773620605469 37.49885940551758 93.30773162841797 31.70639801025391 C 90.940673828125 26.11002349853516 87.55138397216797 21.08335113525391 83.2340087890625 16.76598358154297 C 78.91664123535156 12.4486083984375 73.88996887207031 9.059318542480469 68.29359436035156 6.6922607421875 C 62.50113296508789 4.242256164550781 56.34627151489258 2.999992370605469 49.99999618530273 2.999992370605469 M 49.99999618530273 -7.62939453125e-06 C 77.61422729492188 -7.62939453125e-06 100 22.38576507568359 100 49.99999618530273 C 100 77.61422729492188 77.61422729492188 100 49.99999618530273 100 C 22.38576507568359 100 -7.62939453125e-06 77.61422729492188 -7.62939453125e-06 49.99999618530273 C -7.62939453125e-06 22.38576507568359 22.38576507568359 -7.62939453125e-06 49.99999618530273 -7.62939453125e-06 Z" stroke="none" fill="#eca675"/>
                        </g>
                      </g>
                    </g>
                  </g>
                </g>
              </g>
            </g>
          </g>
        </g>
      </g>
    </g>
    <g id="brainstorming_1369270" transform="translate(924.962 8928.516)">
      <path id="Trazado_1177932" data-name="Trazado 1177932" d="M368,222.511a6.507,6.507,0,1,0,8.654-6.138,6.422,6.422,0,0,0-2.147-.369A6.507,6.507,0,0,0,368,222.511Zm0,0" transform="translate(-318.114 -186.727)" fill="#e0bb9d"/>
      <path id="Trazado_1177933" data-name="Trazado 1177933" d="M192.1,221.433a5.911,5.911,0,0,0-.1,1.084,6.507,6.507,0,1,0,13.014,0,5.96,5.96,0,0,0-.1-1.084,6.5,6.5,0,0,0-12.818,0Zm0,0" transform="translate(-165.973 -186.734)" fill="#e0bb9d"/>
      <path id="Trazado_1177934" data-name="Trazado 1177934" d="M376.658,216.373a6.507,6.507,0,0,1-6.485,6.138H368A6.507,6.507,0,0,1,374.511,216,6.421,6.421,0,0,1,376.658,216.373Zm0,0" transform="translate(-318.114 -186.727)" fill="#7d4739"/>
      <path id="Trazado_1177935" data-name="Trazado 1177935" d="M199.132,216a5.422,5.422,0,0,1-5.422,5.422h-.987A6.5,6.5,0,0,1,199.132,216Zm0,0" transform="translate(-166.594 -186.727)" fill="#494342"/>
      <path id="Trazado_1177936" data-name="Trazado 1177936" d="M246.412,221.426h-.987A5.406,5.406,0,0,1,240,216a6.5,6.5,0,0,1,6.409,5.422Zm0,0" transform="translate(-207.465 -186.727)" fill="#494342"/>
      <path id="Trazado_1177937" data-name="Trazado 1177937" d="M29.018,222.511A6.507,6.507,0,1,1,22.511,216,6.507,6.507,0,0,1,29.018,222.511Zm0,0" transform="translate(-13.831 -186.727)" fill="#e0bb9d"/>
      <path id="Trazado_1177938" data-name="Trazado 1177938" d="M69.426,203.257H64a2.169,2.169,0,0,1,2.169-2.169h3.253A1.085,1.085,0,0,0,70.511,200H72.68A3.253,3.253,0,0,1,69.426,203.257Zm0,0" transform="translate(-55.324 -172.896)" fill="#f29a2b"/>
      <path id="Trazado_1177939" data-name="Trazado 1177939" d="M25.724,284.991l1.8,2.711-4.338,6.5v14.532H8v-14.1a3.253,3.253,0,0,1,3.253-3.253h8.6l5.5-8.253v.661a2.186,2.186,0,0,0,.369,1.2Zm0,0" transform="translate(-6.916 -244.749)" fill="#ee3446"/>
      <path id="Trazado_1177940" data-name="Trazado 1177940" d="M330.173,283.125l5.5,8.253h9.685a2.176,2.176,0,0,1,2.169,2.169v15.183H332.342s.011-14.358.032-14.488L328,287.7l1.8-2.711a2.182,2.182,0,0,0,.369-1.2Zm0,0" transform="translate(-283.537 -244.749)" fill="#03aa6f"/>
      <path id="Trazado_1177941" data-name="Trazado 1177941" d="M140.342,202.173v9.1l5.5,8.253h8.524l5.5-8.253v-9.1a2.169,2.169,0,0,1,4.338,0v9.76a2.182,2.182,0,0,1-.369,1.2l-1.8,2.711-4.338,6.5v14.532H142.511v-14.1a2.354,2.354,0,0,1,.032-.39l-4.37-6.539-1.8-2.711a2.186,2.186,0,0,1-.369-1.2v-9.76a2.169,2.169,0,1,1,4.338,0Zm0,0" transform="translate(-117.564 -172.896)" fill="#127bab"/>
      <path id="Trazado_1177942" data-name="Trazado 1177942" d="M248,58.366V47.521l.011-.076a3.518,3.518,0,0,0,.748.076h6.03l-3.177,10.574v.271h-2.853a4.433,4.433,0,0,0-.748.065Zm0,0" transform="translate(-214.381 -41.018)" fill="#494342"/>
      <path id="Trazado_1177943" data-name="Trazado 1177943" d="M278.625,48a2.176,2.176,0,0,1,2.169,2.169V56.68a2.175,2.175,0,0,1-2.169,2.169h-3.98v-.271L277.822,48Zm0,0" transform="translate(-237.411 -41.501)" fill="#4e4e4e"/>
      <path id="Trazado_1177944" data-name="Trazado 1177944" d="M109.651,24.263l.011.065a4.324,4.324,0,0,0-2.538,1.454,10.841,10.841,0,1,1-.022-13.914,4.266,4.266,0,0,0,2.559,1.475l-.011.076Zm0,0" transform="translate(-76.028 -6.915)" fill="#ffcb5a"/>
      <path id="Trazado_1177945" data-name="Trazado 1177945" d="M183.26,38.7a5.5,5.5,0,0,0-2.408-1.647l.7-2.053a7.679,7.679,0,0,1,3.362,2.3Zm0,0" transform="translate(-156.332 -30.256)" fill="#f29a2b"/>
      <path id="Trazado_1177946" data-name="Trazado 1177946" d="M119.46,47.187a7.591,7.591,0,0,1-.779-15.144c.264-.025.528-.038.779-.038v2.169c-.183,0-.375.009-.567.028a5.422,5.422,0,1,0,4.725,8.865l1.661,1.394a7.591,7.591,0,0,1-5.819,2.727Zm0,0" transform="translate(-96.682 -27.67)" fill="#f29a2b"/>
      <path id="Trazado_1177947" data-name="Trazado 1177947" d="M344,56h2.169V64.68H344Zm0,0" transform="translate(-297.368 -48.416)" fill="#4e4e4e"/>
      <path id="Trazado_1177948" data-name="Trazado 1177948" d="M367.6,223.187A7.591,7.591,0,1,0,360,215.6,7.591,7.591,0,0,0,367.6,223.187Zm5.422-7.591a5.423,5.423,0,0,1-10.737,1.084h.976a7.6,7.6,0,0,0,7.319-5.606A5.423,5.423,0,0,1,373.018,215.6Zm-5.422-5.422a5.429,5.429,0,0,1,.948.1,5.422,5.422,0,0,1-5.286,4.242h-.977A5.433,5.433,0,0,1,367.6,210.173Zm0,0" transform="translate(-311.199 -179.811)"/>
      <path id="Trazado_1177949" data-name="Trazado 1177949" d="M184,215.6A7.591,7.591,0,1,0,191.6,208,7.591,7.591,0,0,0,184,215.6Zm6.3-5.25a4.316,4.316,0,0,1-3.644,3.036A5.431,5.431,0,0,1,190.3,210.346Zm1.293,10.672a5.428,5.428,0,0,1-5.422-5.422,6.506,6.506,0,0,0,5.422-2.914,6.506,6.506,0,0,0,5.422,2.914A5.429,5.429,0,0,1,191.6,221.018Zm4.936-7.64a4.317,4.317,0,0,1-3.644-3.036A5.431,5.431,0,0,1,196.532,213.378Zm0,0" transform="translate(-159.057 -179.811)"/>
      <path id="Trazado_1177950" data-name="Trazado 1177950" d="M8,208.68A7.591,7.591,0,1,0,20.9,203.257h.121A3.253,3.253,0,0,0,24.271,200H22.1a1.085,1.085,0,0,1-1.084,1.084H15.6A7.6,7.6,0,0,0,8,208.68Zm13.014,0a5.422,5.422,0,1,1-5.422-5.422A5.422,5.422,0,0,1,21.018,208.68Zm0,0" transform="translate(-6.915 -172.896)"/>
      <path id="Trazado_1177951" data-name="Trazado 1177951" d="M61.819,211.524h-9.11l-4.988-7.5v-8.771a3.253,3.253,0,1,0-6.507,0v8.676l-4.989,7.591H28.862l-5-7.5v-8.771a3.253,3.253,0,1,0-6.507,0v8.771l-4.989,7.5H4.342A4.338,4.338,0,0,0,0,215.862v14.1a1.085,1.085,0,0,0,1.084,1.084H16.271a1.085,1.085,0,0,0,1.084-1.084V215.754l3.253-4.88,3.253,4.88V229.96a1.084,1.084,0,0,0,1.084,1.084H40.129a1.084,1.084,0,0,0,1.084-1.084V215.754l3.253-4.88,3.286,4.916c-.012,1-.023,4.1-.03,14.162a1.085,1.085,0,0,0,1.084,1.084h15.18a1.085,1.085,0,0,0,1.084-1.084V214.778a3.254,3.254,0,0,0-3.253-3.253Zm-46.45,3.3a1.092,1.092,0,0,0-.182.6v13.447H2.173V215.862a2.169,2.169,0,0,1,2.169-2.169h8.6a1.085,1.085,0,0,0,.9-.482l4.162-6.241,1.3,1.952Zm23.858,0a1.092,1.092,0,0,0-.182.6v13.447H26.031V215.862a1.29,1.29,0,0,1,.017-.217,1.083,1.083,0,0,0-.168-.781l-6.17-9.247a1.106,1.106,0,0,1-.186-.6v-9.76a1.085,1.085,0,0,1,1.084-1.084,1.062,1.062,0,0,1,.772.332,1.039,1.039,0,0,1,.312.752v9.1a1.084,1.084,0,0,0,.182.6l5.5,8.254a1.085,1.085,0,0,0,.9.482H36.8a1.085,1.085,0,0,0,.9-.482l5.5-8.254a1.088,1.088,0,0,0,.182-.6v-9.1a1.085,1.085,0,0,1,1.084-1.084,1.062,1.062,0,0,1,.772.332,1.039,1.039,0,0,1,.312.752v9.76a1.109,1.109,0,0,1-.188.605ZM62.9,228.876H49.89c0-5.476.015-12.839.029-13.339a1.083,1.083,0,0,0-.181-.67l-3.969-5.94,1.3-1.957,4.159,6.243a1.084,1.084,0,0,0,.905.48h9.685a1.085,1.085,0,0,1,1.084,1.084Zm0,0" transform="translate(0 -165.98)"/>
      <path id="Trazado_1177952" data-name="Trazado 1177952" d="M113.511,15.179V8.672a3.254,3.254,0,0,0-3.253-3.253h-6.832a3.236,3.236,0,0,1-2.485-1.163,11.929,11.929,0,1,0,.026,15.308,3.188,3.188,0,0,1,2.464-1.131h6.827a3.253,3.253,0,0,0,3.253-3.253Zm-2.169-6.507v6.507a1.085,1.085,0,0,1-1.084,1.084h-2.6l2.6-8.676A1.085,1.085,0,0,1,111.342,8.672Zm-7.591-1.084H108l-2.6,8.676h-1.642ZM99.3,18.175A9.76,9.76,0,1,1,90.838,2.213c.326-.03.639-.047.958-.047A9.781,9.781,0,0,1,99.285,5.65a5.435,5.435,0,0,0,2.3,1.612v9.327A5.287,5.287,0,0,0,99.3,18.175Zm0,0" transform="translate(-69.044 0)"/>
      <path id="Trazado_1177953" data-name="Trazado 1177953" d="M183.209,38.691l1.661-1.4a7.607,7.607,0,0,0-3.362-2.307l-.706,2.053a5.437,5.437,0,0,1,2.408,1.649Zm0,0" transform="translate(-156.289 -30.249)"/>
      <path id="Trazado_1177954" data-name="Trazado 1177954" d="M119.58,45.018a5.422,5.422,0,0,1-.561-10.817c.189-.019.375-.028.561-.028V32c-.255,0-.513.013-.771.038a7.676,7.676,0,0,0-6.771,6.674A7.584,7.584,0,0,0,125.4,44.453l-1.666-1.387a5.4,5.4,0,0,1-4.156,1.952Zm0,0" transform="translate(-96.802 -27.67)"/>
      <path id="Trazado_1177955" data-name="Trazado 1177955" d="M344,48h2.169v9.76H344Zm0,0" transform="translate(-297.368 -41.501)"/>
    </g>
  </g>
</svg>
