<svg xmlns="http://www.w3.org/2000/svg" xmlns:xlink="http://www.w3.org/1999/xlink" width="118" height="118" viewBox="0 0 118 118">
  <defs>
    <filter id="Trazado_982547" x="0" y="0" width="118" height="118" filterUnits="userSpaceOnUse">
      <feOffset dy="3" input="SourceAlpha"/>
      <feGaussianBlur stdDeviation="3" result="blur"/>
      <feFlood flood-opacity="0.161"/>
      <feComposite operator="in" in2="blur"/>
      <feComposite in="SourceGraphic"/>
    </filter>
  </defs>
  <g id="Grupo_1223632" data-name="Grupo 1223632" transform="translate(-1213.5 -8905.045)">
    <g id="Grupo_1223202" data-name="Grupo 1223202" transform="translate(1222.5 8911.045)">
      <g id="Grupo_1211216" data-name="Grupo 1211216" transform="translate(0)">
        <g id="Grupo_1210737" data-name="Grupo 1210737">
          <g id="Grupo_1210537" data-name="Grupo 1210537">
            <g id="Grupo_1164202" data-name="Grupo 1164202">
              <g id="Grupo_1158168" data-name="Grupo 1158168">
                <g id="Grupo_1152576" data-name="Grupo 1152576">
                  <g id="Grupo_1148633" data-name="Grupo 1148633">
                    <g id="Grupo_1148525" data-name="Grupo 1148525">
                      <g transform="matrix(1, 0, 0, 1, -9, -6)" filter="url(#Trazado_982547)">
                        <g id="Trazado_982547-2" data-name="Trazado 982547" transform="translate(9 6)" fill="#fcf5f0">
                          <path d="M 49.99999618530273 98.5 C 43.45188140869141 98.5 37.10042572021484 97.21786499023438 31.12206840515137 94.68923950195312 C 25.34691047668457 92.24655151367188 20.15996742248535 88.74931335449219 15.70532512664795 84.29468536376953 C 11.25068187713623 79.84004211425781 7.753438949584961 74.65309906005859 5.310753345489502 68.87792205810547 C 2.782124757766724 62.89956665039062 1.499996185302734 56.54811096191406 1.499996185302734 49.99999618530273 C 1.499996185302734 43.45188140869141 2.782124757766724 37.10042572021484 5.310753345489502 31.12206840515137 C 7.753438949584961 25.34691047668457 11.25068187713623 20.15996742248535 15.70532512664795 15.70532512664795 C 20.15996742248535 11.25068187713623 25.34691047668457 7.753438949584961 31.12206840515137 5.310753345489502 C 37.10042572021484 2.782124757766724 43.45188140869141 1.499996185302734 49.99999618530273 1.499996185302734 C 56.54811096191406 1.499996185302734 62.89956665039062 2.782124757766724 68.87792205810547 5.310753345489502 C 74.65309906005859 7.753438949584961 79.84004211425781 11.25068187713623 84.29468536376953 15.70532512664795 C 88.74931335449219 20.15996742248535 92.24655151367188 25.34691047668457 94.68923950195312 31.12206840515137 C 97.21786499023438 37.10042572021484 98.5 43.45188140869141 98.5 49.99999618530273 C 98.5 56.54811096191406 97.21786499023438 62.89956665039062 94.68923950195312 68.87792205810547 C 92.24655151367188 74.65309906005859 88.74931335449219 79.84004211425781 84.29468536376953 84.29468536376953 C 79.84004211425781 88.74931335449219 74.65309906005859 92.24655151367188 68.87792205810547 94.68923950195312 C 62.89956665039062 97.21786499023438 56.54811096191406 98.5 49.99999618530273 98.5 Z" stroke="none"/>
                          <path d="M 49.99999618530273 2.999992370605469 C 43.65372085571289 2.999992370605469 37.49885940551758 4.242256164550781 31.70639801025391 6.6922607421875 C 26.11002349853516 9.059318542480469 21.08335113525391 12.4486083984375 16.76598358154297 16.76598358154297 C 12.4486083984375 21.08335113525391 9.059318542480469 26.11002349853516 6.6922607421875 31.70639801025391 C 4.242256164550781 37.49885940551758 2.999992370605469 43.65372085571289 2.999992370605469 49.99999618530273 C 2.999992370605469 56.34627151489258 4.242256164550781 62.50113296508789 6.6922607421875 68.29359436035156 C 9.059318542480469 73.88996887207031 12.4486083984375 78.91664123535156 16.76598358154297 83.2340087890625 C 21.08335113525391 87.55138397216797 26.11002349853516 90.940673828125 31.70639801025391 93.30773162841797 C 37.49885940551758 95.75773620605469 43.65372085571289 97 49.99999618530273 97 C 56.34627151489258 97 62.50113296508789 95.75773620605469 68.29359436035156 93.30773162841797 C 73.88996887207031 90.940673828125 78.91664123535156 87.55138397216797 83.2340087890625 83.2340087890625 C 87.55138397216797 78.91664123535156 90.940673828125 73.88996887207031 93.30773162841797 68.29359436035156 C 95.75773620605469 62.50113296508789 97 56.34627151489258 97 49.99999618530273 C 97 43.65372085571289 95.75773620605469 37.49885940551758 93.30773162841797 31.70639801025391 C 90.940673828125 26.11002349853516 87.55138397216797 21.08335113525391 83.2340087890625 16.76598358154297 C 78.91664123535156 12.4486083984375 73.88996887207031 9.059318542480469 68.29359436035156 6.6922607421875 C 62.50113296508789 4.242256164550781 56.34627151489258 2.999992370605469 49.99999618530273 2.999992370605469 M 49.99999618530273 -7.62939453125e-06 C 77.61422729492188 -7.62939453125e-06 100 22.38576507568359 100 49.99999618530273 C 100 77.61422729492188 77.61422729492188 100 49.99999618530273 100 C 22.38576507568359 100 -7.62939453125e-06 77.61422729492188 -7.62939453125e-06 49.99999618530273 C -7.62939453125e-06 22.38576507568359 22.38576507568359 -7.62939453125e-06 49.99999618530273 -7.62939453125e-06 Z" stroke="none" fill="#eca675"/>
                        </g>
                      </g>
                    </g>
                  </g>
                </g>
              </g>
            </g>
          </g>
        </g>
      </g>
    </g>
    <g id="Layer_24" data-name="Layer 24" transform="translate(1239.625 8926.182)">
      <path id="Trazado_1177956" data-name="Trazado 1177956" d="M14.679,21.45,14,22.056l.679.607a6.1,6.1,0,0,0,7.9,0l.679-.607-.679-.607a6.1,6.1,0,0,0-7.9,0Z" transform="translate(0.367 0.537)" fill="#6bc148"/>
      <path id="Trazado_1177957" data-name="Trazado 1177957" d="M49.576,21.45l.679.607-.679.607a6.1,6.1,0,0,1-7.9,0L41,22.056l.679-.607a6.1,6.1,0,0,1,7.9,0Z" transform="translate(1.13 0.537)" fill="#6bc148"/>
      <circle id="Elipse_14701" data-name="Elipse 14701" cx="9.254" cy="9.254" r="9.254" transform="translate(23.621 3.057)" fill="#3079e6"/>
      <g id="Grupo_1223631" data-name="Grupo 1223631" transform="translate(14.552 2.029)">
        <path id="Trazado_1177958" data-name="Trazado 1177958" d="M19.643,2.607,19.056,2l-.6.607a4.952,4.952,0,0,0-.011,7.012l.607.607.6-.607a4.928,4.928,0,0,0-.01-7.013Z" transform="translate(-14.1 -2)" fill="#6bc148"/>
        <path id="Trazado_1177959" data-name="Trazado 1177959" d="M18.108,12.428A4.894,4.894,0,0,0,15.023,11.4H14.18v.853a4.956,4.956,0,0,0,1.532,3.465,4.894,4.894,0,0,0,3.342,1.44,14.591,14.591,0,0,1-.946-4.73Z" transform="translate(-14.18 -1.735)" fill="#6bc148"/>
        <path id="Trazado_1177960" data-name="Trazado 1177960" d="M49.295,11.4a4.956,4.956,0,0,0-3.27,1.172A14.282,14.282,0,0,1,45.11,17.1a4.864,4.864,0,0,0,3.5-1.357,4.925,4.925,0,0,0,1.532-3.465v-.853Z" transform="translate(-13.306 -1.735)" fill="#6bc148"/>
        <path id="Trazado_1177961" data-name="Trazado 1177961" d="M44.47,2.607,45.056,2l.6.607a4.952,4.952,0,0,1,.011,7.012l-.607.607-.6-.607a4.928,4.928,0,0,1,.01-7.013Z" transform="translate(-13.366 -2)" fill="#6bc148"/>
      </g>
      <path id="Trazado_1177962" data-name="Trazado 1177962" d="M33.88,56H51.36v6.169H33.88Z" transform="translate(0.929 1.554)" fill="#f3a845"/>
      <path id="Trazado_1177963" data-name="Trazado 1177963" d="M33.88,59.085H46.342A3.085,3.085,0,0,0,49.427,56H33.88Z" transform="translate(0.929 1.554)" fill="#eecc61"/>
      <path id="Trazado_1177964" data-name="Trazado 1177964" d="M13,56H30.48v6.169H13Z" transform="translate(0.339 1.554)" fill="#f3a845"/>
      <path id="Trazado_1177965" data-name="Trazado 1177965" d="M13,59.085H25.462A3.085,3.085,0,0,0,28.547,56H13Z" transform="translate(0.339 1.554)" fill="#eecc61"/>
      <path id="Trazado_1177966" data-name="Trazado 1177966" d="M4.638,40.881a2.18,2.18,0,0,1,3.085,0l1.542,1.542V31.113a2.056,2.056,0,0,1,4.113,0V29.056a2.056,2.056,0,1,1,4.113,0v2.056a2.056,2.056,0,0,1,4.113,0v2.056a2.056,2.056,0,1,1,4.113,0V45.508h1.028L28.8,47.565v9.254H15.434V52.706H13.378l-8.74-8.74a2.18,2.18,0,0,1,0-3.085Z" transform="translate(0.085 0.735)" fill="#fddfb1"/>
      <path id="Trazado_1177967" data-name="Trazado 1177967" d="M60.044,40.881a2.18,2.18,0,0,0-3.085,0l-1.542,1.542V31.113a2.056,2.056,0,0,0-4.113,0V29.056a2.056,2.056,0,1,0-4.113,0v2.056a2.056,2.056,0,0,0-4.113,0v2.056a2.056,2.056,0,1,0-4.113,0V45.508H37.936L35.88,47.565v9.254H49.247V52.706H51.3l8.74-8.74a2.18,2.18,0,0,0,0-3.085Z" transform="translate(0.985 0.735)" fill="#fddfb1"/>
      <path id="Trazado_1177968" data-name="Trazado 1177968" d="M53.317,61.987V56.846a1.028,1.028,0,0,0-1.028-1.028H51.26V53.761h1.028a1.08,1.08,0,0,0,.73-.3l8.74-8.74A3.208,3.208,0,0,0,57.43,40V31.14a3.085,3.085,0,0,0-4.236-2.859,3.085,3.085,0,0,0-5.933,0,3.013,3.013,0,0,0-1.141-.226,3.085,3.085,0,0,0-2.961,2.283,3.013,3.013,0,0,0-1.152-.226A3.085,3.085,0,0,0,38.922,33.2V44.507a1.028,1.028,0,0,0-.73.3l-2.056,2.056a1.028,1.028,0,0,0-.3.73v8.226H34.809a1.028,1.028,0,0,0-1.028,1.028v5.141H31.847V56.846a1.028,1.028,0,0,0-1.028-1.028H29.791V47.592a1.028,1.028,0,0,0-.3-.73l-2.056-2.056a1.028,1.028,0,0,0-.73-.3V33.2a3.085,3.085,0,0,0-4.236-2.859,3.085,3.085,0,0,0-4.113-2.056,3.085,3.085,0,0,0-5.923,0A3.085,3.085,0,0,0,8.2,31.14V40a3.208,3.208,0,0,0-4.329,4.72l8.74,8.74a1.028,1.028,0,0,0,.73.3h1.028v2.056H13.339a1.028,1.028,0,0,0-1.028,1.028v5.141H1v2.056H64.751V61.987Zm1.028-31.875a1.028,1.028,0,0,1,1.028,1.028V42.029l-2.056,2.056V31.14A1.028,1.028,0,0,1,54.345,30.112ZM49.2,29.084a1.028,1.028,0,1,1,2.056,0V44.507H49.2ZM45.091,31.14a1.028,1.028,0,1,1,2.056,0V44.507H45.091ZM40.978,33.2a1.028,1.028,0,0,1,2.056,0V44.507H40.978ZM37.893,48.013l1.45-1.45H53.317a1.028,1.028,0,0,0,.72-.3l4.637-4.627A1.152,1.152,0,1,1,60.3,43.263L51.857,51.7H45.091v2.056H49.2v2.056H37.893Zm-2.056,9.861H51.26v4.113H35.837ZM23.621,32.168A1.028,1.028,0,0,1,24.65,33.2V44.507H22.593V33.2A1.028,1.028,0,0,1,23.621,32.168Zm-4.113-2.056a1.028,1.028,0,0,1,1.028,1.028V44.507H18.48V31.14A1.028,1.028,0,0,1,19.508,30.112Zm-5.141-1.028a1.028,1.028,0,1,1,2.056,0V44.507H14.367Zm-3.085,1.028a1.028,1.028,0,0,1,1.028,1.028V44.086l-2.056-2.056V31.14A1.028,1.028,0,0,1,11.282,30.112Zm5.141,23.65h4.113V51.7H13.76L5.329,43.263a1.1,1.1,0,0,1-.339-.812,1.152,1.152,0,0,1,1.964-.812l4.627,4.627a1.028,1.028,0,0,0,.73.3H26.284l1.45,1.45v7.8H16.424Zm-2.056,4.113H29.791v4.113H14.367Z" transform="translate(0 0.708)"/>
      <path id="Trazado_1177969" data-name="Trazado 1177969" d="M18.645,19.509A6.971,6.971,0,0,0,14.028,21.2l-.679.607a1.028,1.028,0,0,0,0,1.532l.679.607a7.136,7.136,0,0,0,9.254,0l.37-.339a14.344,14.344,0,0,0,17.747,0l.38.339a7.136,7.136,0,0,0,9.254,0l.679-.607a1.028,1.028,0,0,0,0-1.532l-.668-.607a6.982,6.982,0,0,0-4.637-1.686,7.712,7.712,0,0,0-1.542.185,13.7,13.7,0,0,0,.679-1.275h.535a6.036,6.036,0,0,0,4.113-1.645,5.974,5.974,0,0,0,1.882-4.206v-.853a1.028,1.028,0,0,0-1.028-1.028h-.853a6.077,6.077,0,0,0-3.29.895v-.915l.308-.319a6,6,0,0,0,0-8.462l-.6-.607a1.028,1.028,0,0,0-1.46,0l-.6.6a6,6,0,0,0,0,8.473l.288.3v1.666a12.339,12.339,0,0,1-24.678,0V10.656l.3-.308a6,6,0,0,0,0-8.473l-.6-.6a1.028,1.028,0,0,0-1.46,0l-.6.6a6,6,0,0,0,0,8.473l.3.308v.812a6.169,6.169,0,0,0-3.085-.781h-.853a1.028,1.028,0,0,0-1.028,1.028v.853a5.964,5.964,0,0,0,6.025,5.912h.319c.2.411.422.823.658,1.213a7.712,7.712,0,0,0-1.5-.185Zm30.847,3.085a5.265,5.265,0,0,1-6.169,0,5.3,5.3,0,0,1,6.159,0Zm.494-9.871a3.866,3.866,0,0,1-3.64,3.619,13.655,13.655,0,0,0,.38-1.707,4.3,4.3,0,0,1,.648-.833,3.9,3.9,0,0,1,2.643-1.111ZM45.873,3.469a3.9,3.9,0,0,1,1.059,2.673A3.99,3.99,0,0,1,45.9,8.795a3.99,3.99,0,0,1-1.028-2.653A3.9,3.9,0,0,1,45.9,3.469ZM15.581,22.594a5.3,5.3,0,0,1,6.169,0,5.265,5.265,0,0,1-6.169,0ZM19.169,3.469A3.9,3.9,0,0,1,20.2,6.142a3.99,3.99,0,0,1-1.028,2.653,3.99,3.99,0,0,1-1.028-2.653,3.9,3.9,0,0,1,1.028-2.673ZM16.516,15.314a3.969,3.969,0,0,1-1.2-2.571,3.9,3.9,0,0,1,2.612,1.08,4.011,4.011,0,0,1,.339.391,14.622,14.622,0,0,0,.452,2.139,3.856,3.856,0,0,1-2.2-1.039Z" transform="translate(0.339)"/>
      <path id="Trazado_1177970" data-name="Trazado 1177970" d="M32.282,22.565A10.282,10.282,0,1,0,22,12.282,10.282,10.282,0,0,0,32.282,22.565Zm1.028-5.141a10.725,10.725,0,0,1,1.995.288,5.45,5.45,0,0,1-1.995,2.468Zm0-2.056V13.311H36.4a14.58,14.58,0,0,1-.38,2.478,13.747,13.747,0,0,0-2.7-.422Zm0-4.113V9.2a13.018,13.018,0,0,0,2.673-.4,14.91,14.91,0,0,1,.411,2.457Zm0-4.113V4.334A5.45,5.45,0,0,1,35.305,6.8a10.725,10.725,0,0,1-1.995.339Zm-2.056,0a10.982,10.982,0,0,1-1.995-.288,5.511,5.511,0,0,1,1.995-2.519Zm0,2.056v2.056H28.169a13.028,13.028,0,0,1,.38-2.478,12.822,12.822,0,0,0,2.7.422Zm0,4.113v2.056a13.532,13.532,0,0,0-2.663.391,12.781,12.781,0,0,1-.422-2.447Zm0,4.113v2.756a5.511,5.511,0,0,1-1.995-2.468,10.982,10.982,0,0,1,1.995-.288ZM27.6,19.017c-.216-.154-.422-.319-.627-.483a3.218,3.218,0,0,1,.329-.154c.082.216.185.432.288.638Zm9.665-.638c.1.051.216.093.319.154-.2.165-.411.329-.627.483.1-.206.2-.422.3-.638Zm.668-1.954a15.629,15.629,0,0,0,.514-3.116h2.056A8.226,8.226,0,0,1,39.1,16.992c-.442-.226-.8-.4-1.172-.6Zm.514-5.172a15.855,15.855,0,0,0-.483-3.146,11.753,11.753,0,0,0,1.09-.524,8.226,8.226,0,0,1,1.368,3.671ZM37.259,6.113c-.1-.216-.2-.432-.308-.638.216.154.432.319.627.483Zm-9.964,0-.329-.154c.206-.165.411-.329.627-.483C27.491,5.7,27.388,5.918,27.3,6.113Zm-.679,1.943a16.647,16.647,0,0,0-.5,3.2H24.056a8.226,8.226,0,0,1,1.481-3.7,11.578,11.578,0,0,0,1.08.524Zm-.5,5.254a16.39,16.39,0,0,0,.5,3.085,8.024,8.024,0,0,0-1.028.535,8.226,8.226,0,0,1-1.47-3.619Z" transform="translate(0.593 0.029)"/>
    </g>
  </g>
</svg>
