<svg xmlns="http://www.w3.org/2000/svg" xmlns:xlink="http://www.w3.org/1999/xlink" width="118" height="118" viewBox="0 0 118 118">
  <defs>
    <filter id="Trazado_982547" x="0" y="0" width="118" height="118" filterUnits="userSpaceOnUse">
      <feOffset dy="3" input="SourceAlpha"/>
      <feGaussianBlur stdDeviation="3" result="blur"/>
      <feFlood flood-opacity="0.161"/>
      <feComposite operator="in" in2="blur"/>
      <feComposite in="SourceGraphic"/>
    </filter>
    <clipPath id="clip-path">
      <path id="path9180" d="M0-682.665H66.335v66.335H0Z" transform="translate(0 682.665)"/>
    </clipPath>
  </defs>
  <g id="Grupo_1223633" data-name="Grupo 1223633" transform="translate(-268.5 -10573.045)">
    <g id="Grupo_1223208" data-name="Grupo 1223208" transform="translate(277.5 10579.045)">
      <g id="Grupo_1211216" data-name="Grupo 1211216" transform="translate(0)">
        <g id="Grupo_1210737" data-name="Grupo 1210737">
          <g id="Grupo_1210537" data-name="Grupo 1210537">
            <g id="Grupo_1164202" data-name="Grupo 1164202">
              <g id="Grupo_1158168" data-name="Grupo 1158168">
                <g id="Grupo_1152576" data-name="Grupo 1152576">
                  <g id="Grupo_1148633" data-name="Grupo 1148633">
                    <g id="Grupo_1148525" data-name="Grupo 1148525">
                      <g transform="matrix(1, 0, 0, 1, -9, -6)" filter="url(#Trazado_982547)">
                        <g id="Trazado_982547-2" data-name="Trazado 982547" transform="translate(9 6)" fill="#fcf5f0">
                          <path d="M 49.99999618530273 98.5 C 43.45188140869141 98.5 37.10042572021484 97.21786499023438 31.12206840515137 94.68923950195312 C 25.34691047668457 92.24655151367188 20.15996742248535 88.74931335449219 15.70532512664795 84.29468536376953 C 11.25068187713623 79.84004211425781 7.753438949584961 74.65309906005859 5.310753345489502 68.87792205810547 C 2.782124757766724 62.89956665039062 1.499996185302734 56.54811096191406 1.499996185302734 49.99999618530273 C 1.499996185302734 43.45188140869141 2.782124757766724 37.10042572021484 5.310753345489502 31.12206840515137 C 7.753438949584961 25.34691047668457 11.25068187713623 20.15996742248535 15.70532512664795 15.70532512664795 C 20.15996742248535 11.25068187713623 25.34691047668457 7.753438949584961 31.12206840515137 5.310753345489502 C 37.10042572021484 2.782124757766724 43.45188140869141 1.499996185302734 49.99999618530273 1.499996185302734 C 56.54811096191406 1.499996185302734 62.89956665039062 2.782124757766724 68.87792205810547 5.310753345489502 C 74.65309906005859 7.753438949584961 79.84004211425781 11.25068187713623 84.29468536376953 15.70532512664795 C 88.74931335449219 20.15996742248535 92.24655151367188 25.34691047668457 94.68923950195312 31.12206840515137 C 97.21786499023438 37.10042572021484 98.5 43.45188140869141 98.5 49.99999618530273 C 98.5 56.54811096191406 97.21786499023438 62.89956665039062 94.68923950195312 68.87792205810547 C 92.24655151367188 74.65309906005859 88.74931335449219 79.84004211425781 84.29468536376953 84.29468536376953 C 79.84004211425781 88.74931335449219 74.65309906005859 92.24655151367188 68.87792205810547 94.68923950195312 C 62.89956665039062 97.21786499023438 56.54811096191406 98.5 49.99999618530273 98.5 Z" stroke="none"/>
                          <path d="M 49.99999618530273 2.999992370605469 C 43.65372085571289 2.999992370605469 37.49885940551758 4.242256164550781 31.70639801025391 6.6922607421875 C 26.11002349853516 9.059318542480469 21.08335113525391 12.4486083984375 16.76598358154297 16.76598358154297 C 12.4486083984375 21.08335113525391 9.059318542480469 26.11002349853516 6.6922607421875 31.70639801025391 C 4.242256164550781 37.49885940551758 2.999992370605469 43.65372085571289 2.999992370605469 49.99999618530273 C 2.999992370605469 56.34627151489258 4.242256164550781 62.50113296508789 6.6922607421875 68.29359436035156 C 9.059318542480469 73.88996887207031 12.4486083984375 78.91664123535156 16.76598358154297 83.2340087890625 C 21.08335113525391 87.55138397216797 26.11002349853516 90.940673828125 31.70639801025391 93.30773162841797 C 37.49885940551758 95.75773620605469 43.65372085571289 97 49.99999618530273 97 C 56.34627151489258 97 62.50113296508789 95.75773620605469 68.29359436035156 93.30773162841797 C 73.88996887207031 90.940673828125 78.91664123535156 87.55138397216797 83.2340087890625 83.2340087890625 C 87.55138397216797 78.91664123535156 90.940673828125 73.88996887207031 93.30773162841797 68.29359436035156 C 95.75773620605469 62.50113296508789 97 56.34627151489258 97 49.99999618530273 C 97 43.65372085571289 95.75773620605469 37.49885940551758 93.30773162841797 31.70639801025391 C 90.940673828125 26.11002349853516 87.55138397216797 21.08335113525391 83.2340087890625 16.76598358154297 C 78.91664123535156 12.4486083984375 73.88996887207031 9.059318542480469 68.29359436035156 6.6922607421875 C 62.50113296508789 4.242256164550781 56.34627151489258 2.999992370605469 49.99999618530273 2.999992370605469 M 49.99999618530273 -7.62939453125e-06 C 77.61422729492188 -7.62939453125e-06 100 22.38576507568359 100 49.99999618530273 C 100 77.61422729492188 77.61422729492188 100 49.99999618530273 100 C 22.38576507568359 100 -7.62939453125e-06 77.61422729492188 -7.62939453125e-06 49.99999618530273 C -7.62939453125e-06 22.38576507568359 22.38576507568359 -7.62939453125e-06 49.99999618530273 -7.62939453125e-06 Z" stroke="none" fill="#eca675"/>
                        </g>
                      </g>
                    </g>
                  </g>
                </g>
              </g>
            </g>
          </g>
        </g>
      </g>
    </g>
    <g id="g9174" transform="translate(297.333 11278.543)">
      <g id="g9176" transform="translate(0 -682.665)">
        <g id="g9178" clip-path="url(#clip-path)">
          <g id="g9184" transform="translate(45.145 26.161)">
            <path id="path9186" d="M-128.688-.1a5.02,5.02,0,0,0-4.823,2.772l-1.855,3.724-7.173,4.105,5.4,5.4,7.429-5.222a3.347,3.347,0,0,0,1.331-1.963l1.512-6.348A2.008,2.008,0,0,0-128.688-.1" transform="translate(142.538 0.112)" fill="#fdb0a0"/>
          </g>
          <g id="g9188" transform="translate(55.333 26.161)">
            <path id="path9190" d="M-50.956-23.047-52.468-16.7A3.348,3.348,0,0,1-53.8-14.737L-56.44-12.88c.009-.031.017-.062.025-.093l2.149-9.3a2.009,2.009,0,0,0-1.586-2.44,5.006,5.006,0,0,1,3.074-.807,2.007,2.007,0,0,1,1.822,2.469" transform="translate(56.44 25.527)" fill="#f69583"/>
          </g>
          <g id="g9192" transform="translate(54.173 26.161)">
            <path id="path9194" d="M-55.139-50.755l.71-2.983a2.008,2.008,0,0,0-1.822-2.469,5.02,5.02,0,0,0-4.823,2.771" transform="translate(61.073 56.217)" fill="none" stroke="#000" stroke-linecap="round" stroke-linejoin="round" stroke-miterlimit="10" stroke-width="1"/>
          </g>
          <g id="g9196" transform="translate(6.85 0.972)">
            <path id="path9198" d="M-450.227-225.113a24.229,24.229,0,0,1-24.229,24.229,24.229,24.229,0,0,1-24.229-24.229,24.229,24.229,0,0,1,24.229-24.229,24.229,24.229,0,0,1,24.229,24.229" transform="translate(498.684 249.342)" fill="#8dcafc"/>
          </g>
          <g id="g9200" transform="translate(28.413 0.972)">
            <path id="path9202" d="M-249.891-225.11a24.23,24.23,0,0,1-24.23,24.23,24.5,24.5,0,0,1-2.666-.145,24.233,24.233,0,0,0,21.564-24.085,24.233,24.233,0,0,0-21.564-24.083,24.5,24.5,0,0,1,2.666-.145,24.229,24.229,0,0,1,24.23,24.228" transform="translate(276.786 249.338)" fill="#64b9fc"/>
          </g>
          <g id="g9204" transform="translate(7.054 5.866)">
            <path id="path9206" d="M-310.819-65.535l-2.169-1.1a1.068,1.068,0,0,0-1.136.108l-3.609,2.8a1.067,1.067,0,0,0-.414.844v1.039a1.068,1.068,0,0,1-.785,1.03l-1.473.4a1.068,1.068,0,0,1-1.11-.354l-1.285-1.574a1.067,1.067,0,0,1-.236-.778l.6-6.16a1.068,1.068,0,0,0-.426-.96l-2.881-2.14a1.068,1.068,0,0,0-1.117-.1l-3.187,1.605a1.068,1.068,0,0,0-.576,1.107l.3,2.068a1.068,1.068,0,0,1-.119.664l-2.284,4.2a1.069,1.069,0,0,1-.478.454l-1.4.669a1.068,1.068,0,0,0-.608.964v.717a1.068,1.068,0,0,0,.509.91l4.145,2.544a1.068,1.068,0,0,1,.337,1.491l-2.326,3.586a1.068,1.068,0,0,1-1,.481l-7.012-.713a1.066,1.066,0,0,0-.578.1l-3.125,1.53a24.255,24.255,0,0,0,15.938,19.686l-1.565-6.734a1.068,1.068,0,0,1,.331-1.04l1.742-1.547a1.068,1.068,0,0,1,1.091-.2l1.663.637a1.067,1.067,0,0,1,.545.467l1.219,2.131a1.067,1.067,0,0,0,.68.509l.948.225a1.068,1.068,0,0,1,.778.738l1.81,6.167a24.094,24.094,0,0,0,9.021-2.21V-64.317a1.365,1.365,0,0,0-.748-1.217" transform="translate(344.272 72.588)" fill="#72f4c3"/>
          </g>
          <g id="g9208" transform="translate(7.054 5.866)">
            <path id="path9210" d="M-317.773-76.847a1.364,1.364,0,0,0-.748-1.217l-2.169-1.1a1.068,1.068,0,0,0-1.136.109l-3.609,2.8a1.068,1.068,0,0,0-.414.844v1.039a1.068,1.068,0,0,1-.785,1.03l-1.473.4a1.068,1.068,0,0,1-1.11-.354L-330.5-74.87a1.067,1.067,0,0,1-.236-.778l.6-6.16a1.067,1.067,0,0,0-.426-.96l-2.881-2.14a1.068,1.068,0,0,0-1.117-.1l-3.187,1.605a1.068,1.068,0,0,0-.576,1.108l.3,2.068a1.069,1.069,0,0,1-.119.664l-2.284,4.2a1.068,1.068,0,0,1-.478.454l-1.4.669a1.068,1.068,0,0,0-.608.964v.717a1.068,1.068,0,0,0,.509.91l4.145,2.544a1.068,1.068,0,0,1,.337,1.491l-2.326,3.586a1.067,1.067,0,0,1-1,.481l-7.012-.713a1.069,1.069,0,0,0-.578.1l-3.125,1.53" transform="translate(351.975 85.118)" fill="none" stroke="#000" stroke-linecap="round" stroke-linejoin="round" stroke-miterlimit="10" stroke-width="1"/>
          </g>
          <g id="g9212" transform="translate(21.399 38.456)">
            <path id="path9214" d="M-100.668-101.694l-1.81-6.167a1.068,1.068,0,0,0-.778-.738l-.948-.225a1.068,1.068,0,0,1-.68-.509l-1.219-2.131a1.068,1.068,0,0,0-.545-.467l-1.663-.637a1.068,1.068,0,0,0-1.091.2l-1.742,1.547a1.068,1.068,0,0,0-.331,1.04l1.565,6.734" transform="translate(111.503 112.639)" fill="none" stroke="#000" stroke-linecap="round" stroke-linejoin="round" stroke-miterlimit="10" stroke-width="1"/>
          </g>
          <g id="g9216" transform="translate(6.85 0.972)">
            <path id="path9218" d="M-402.382-86.351a24.186,24.186,0,0,0-19.079-9.294A24.229,24.229,0,0,0-445.69-71.416a24.229,24.229,0,0,0,24.229,24.229,24.229,24.229,0,0,0,24.229-24.229A24.125,24.125,0,0,0-399.9-82.471" transform="translate(445.69 95.645)" fill="none" stroke="#000" stroke-linecap="round" stroke-linejoin="round" stroke-miterlimit="10" stroke-width="1"/>
          </g>
          <g id="g9220" transform="translate(15.44 11.628)">
            <path id="path9222" d="M-77.438-38.719a4.167,4.167,0,0,1-4.167,4.167,4.167,4.167,0,0,1-4.167-4.167,4.167,4.167,0,0,1,4.167-4.167,4.167,4.167,0,0,1,4.167,4.167" transform="translate(85.773 42.887)" fill="#ffcec0"/>
          </g>
          <g id="g9224" transform="translate(17.815 11.629)">
            <path id="path9226" d="M-55.372-38.72a4.168,4.168,0,0,1-4.167,4.167,4.137,4.137,0,0,1-1.792-.4,4.169,4.169,0,0,0,2.374-3.763,4.169,4.169,0,0,0-2.374-3.763,4.137,4.137,0,0,1,1.792-.4,4.168,4.168,0,0,1,4.167,4.167" transform="translate(61.332 42.888)" fill="#fdb0a0"/>
          </g>
          <g id="g9228" transform="translate(12.834 19.963)">
            <path id="path9230" d="M-125.832-94.552l-.573-6.434a4.107,4.107,0,0,0-4.09-3.742h-4.213a4.107,4.107,0,0,0-4.09,3.742l-.573,6.434a.821.821,0,0,0,.818.894h1.95v8.317a1.643,1.643,0,0,0,1.643,1.643h4.719a1.643,1.643,0,0,0,1.643-1.643v-8.317h1.95a.821.821,0,0,0,.818-.894" transform="translate(139.375 104.729)" fill="#fcb44d"/>
          </g>
          <g id="g9232" transform="translate(17.546 19.963)">
            <path id="path9234" d="M-74.451-102.854H-76.4v8.317a1.643,1.643,0,0,1-1.643,1.643h-4.167a1.642,1.642,0,0,0,1.643-1.643v-8.317h1.95a.821.821,0,0,0,.818-.894l-.572-6.434a4.107,4.107,0,0,0-4.092-3.742H-78.3a4.107,4.107,0,0,1,4.092,3.742l.572,6.434a.821.821,0,0,1-.818.894" transform="translate(82.464 113.924)" fill="#fb9927"/>
          </g>
          <g id="g9236" transform="translate(19.608 30.957)">
            <path id="path9238" d="M0,0V10.036" transform="translate(0 0)" fill="none" stroke="#000" stroke-linecap="round" stroke-linejoin="round" stroke-miterlimit="10" stroke-width="1"/>
          </g>
          <g id="g9240" transform="translate(15.44 11.628)">
            <path id="path9242" d="M-77.438-38.719a4.167,4.167,0,0,1-4.167,4.167,4.167,4.167,0,0,1-4.167-4.167,4.167,4.167,0,0,1,4.167-4.167A4.167,4.167,0,0,1-77.438-38.719Z" transform="translate(85.773 42.887)" fill="none" stroke="#000" stroke-linecap="round" stroke-linejoin="round" stroke-miterlimit="10" stroke-width="1"/>
          </g>
          <g id="g9244" transform="translate(12.834 19.963)">
            <path id="path9246" d="M-125.832-94.552l-.573-6.434a4.107,4.107,0,0,0-4.09-3.742h-4.213a4.107,4.107,0,0,0-4.09,3.742l-.573,6.434a.821.821,0,0,0,.818.894h1.95v8.317a1.643,1.643,0,0,0,1.643,1.643h4.719a1.643,1.643,0,0,0,1.643-1.643v-8.317h1.95A.821.821,0,0,0-125.832-94.552Z" transform="translate(139.375 104.729)" fill="none" stroke="#000" stroke-linecap="round" stroke-linejoin="round" stroke-miterlimit="10" stroke-width="1"/>
          </g>
          <g id="g9248" transform="translate(39.035 14.21)">
            <path id="path9250" d="M-77.438-38.719a4.167,4.167,0,0,1-4.167,4.167,4.167,4.167,0,0,1-4.167-4.167,4.167,4.167,0,0,1,4.167-4.167,4.167,4.167,0,0,1,4.167,4.167" transform="translate(85.773 42.887)" fill="#ffcec0"/>
          </g>
          <g id="g9252" transform="translate(41.41 14.21)">
            <path id="path9254" d="M-55.372-38.72a4.168,4.168,0,0,1-4.167,4.167,4.137,4.137,0,0,1-1.792-.4,4.169,4.169,0,0,0,2.374-3.763,4.169,4.169,0,0,0-2.374-3.763,4.137,4.137,0,0,1,1.792-.4,4.168,4.168,0,0,1,4.167,4.167" transform="translate(61.332 42.888)" fill="#fdb0a0"/>
          </g>
          <g id="g9256" transform="translate(36.429 22.545)">
            <path id="path9258" d="M-125.832-94.552l-.573-6.434a4.107,4.107,0,0,0-4.091-3.742h-4.213a4.107,4.107,0,0,0-4.09,3.742l-.573,6.434a.821.821,0,0,0,.818.894h1.95v8.317a1.643,1.643,0,0,0,1.643,1.643h4.719a1.643,1.643,0,0,0,1.643-1.643v-8.317h1.95a.821.821,0,0,0,.818-.894" transform="translate(139.375 104.729)" fill="#fb3a82"/>
          </g>
          <g id="g9260" transform="translate(41.14 22.545)">
            <path id="path9262" d="M-74.451-102.854H-76.4v8.317a1.643,1.643,0,0,1-1.643,1.643h-4.167a1.642,1.642,0,0,0,1.643-1.643v-8.317h1.95a.821.821,0,0,0,.818-.894l-.572-6.434a4.107,4.107,0,0,0-4.092-3.742H-78.3a4.107,4.107,0,0,1,4.092,3.742l.572,6.434a.821.821,0,0,1-.818.894" transform="translate(82.464 113.924)" fill="#fb1466"/>
          </g>
          <g id="g9264" transform="translate(43.202 33.538)">
            <path id="path9266" d="M0,0V10.036" transform="translate(0 0)" fill="none" stroke="#000" stroke-linecap="round" stroke-linejoin="round" stroke-miterlimit="10" stroke-width="1"/>
          </g>
          <g id="g9268" transform="translate(39.035 14.21)">
            <path id="path9270" d="M-77.438-38.719a4.167,4.167,0,0,1-4.167,4.167,4.167,4.167,0,0,1-4.167-4.167,4.167,4.167,0,0,1,4.167-4.167A4.167,4.167,0,0,1-77.438-38.719Z" transform="translate(85.773 42.887)" fill="none" stroke="#000" stroke-linecap="round" stroke-linejoin="round" stroke-miterlimit="10" stroke-width="1"/>
          </g>
          <g id="g9272" transform="translate(36.429 22.545)">
            <path id="path9274" d="M-125.832-94.552l-.573-6.434a4.107,4.107,0,0,0-4.091-3.742h-4.213a4.107,4.107,0,0,0-4.09,3.742l-.573,6.434a.821.821,0,0,0,.818.894h1.95v8.317a1.643,1.643,0,0,0,1.643,1.643h4.719a1.643,1.643,0,0,0,1.643-1.643v-8.317h1.95A.821.821,0,0,0-125.832-94.552Z" transform="translate(139.375 104.729)" fill="none" stroke="#000" stroke-linecap="round" stroke-linejoin="round" stroke-miterlimit="10" stroke-width="1"/>
          </g>
          <g id="g9276" transform="translate(1.087 28.212)">
            <path id="path9278" d="M0-345.178l4.769-15.63a12.541,12.541,0,0,1,7.727-8.141c5.206-1.88,12.887-5.44,18.538-11.441a6.114,6.114,0,0,1,7.825-.933h0a1.964,1.964,0,0,1,.431,2.891,83.956,83.956,0,0,1-7.229,7.746,1.743,1.743,0,0,0,1.4,3.012l9.94-1.269,11.218-4.321,2.5-3.542a5.229,5.229,0,0,1,5.4-2.092h0a2.092,2.092,0,0,1,1.486,2.83l-2.559,6.3a3.486,3.486,0,0,1-1.68,1.81l-13.1,6.5a3.5,3.5,0,0,1-1.157.342c-3.9.446-25.725,3.5-25.725,15.944Z" transform="translate(0 382.329)" fill="#ffcec0"/>
          </g>
          <g id="g9280" transform="translate(16.077 31.521)">
            <path id="path9282" d="M-456.843-20.135a2.092,2.092,0,0,1-.154.786l-2.559,6.3a3.489,3.489,0,0,1-1.68,1.81l-13.1,6.5a3.477,3.477,0,0,1-1.157.342c-3.9.446-25.726,3.5-25.726,15.944h-4.8c0-15.933,23.548-18.97,27.446-19.416a3.478,3.478,0,0,0,1.157-.342l13.1-6.5a3.479,3.479,0,0,0,1.68-1.81l2.329-5.732a5.2,5.2,0,0,1,1.82.078,2.092,2.092,0,0,1,1.64,2.043" transform="translate(506.012 22.303)" fill="#fdb0a0"/>
          </g>
          <g id="g9284" transform="translate(20.875 46.371)">
            <path id="path9286" d="M0-176.461c0-12.447,21.827-15.5,25.725-15.944a3.5,3.5,0,0,0,1.157-.343l5.4-2.68-.012-.026" transform="translate(0 195.453)" fill="none" stroke="#000" stroke-linecap="round" stroke-linejoin="round" stroke-miterlimit="10" stroke-width="1"/>
          </g>
          <g id="g9288" transform="translate(1.087 58.433)">
            <path id="path9290" d="M-19.646,0-21.76,6.93" transform="translate(21.76)" fill="none" stroke="#000" stroke-linecap="round" stroke-linejoin="round" stroke-miterlimit="10" stroke-width="1"/>
          </g>
          <g id="g9292" transform="translate(4.546 28.212)">
            <path id="path9294" d="M-489.851-150.029l3.585-1.778a3.486,3.486,0,0,0,1.681-1.81l2.559-6.3a2.092,2.092,0,0,0-1.486-2.83,5.229,5.229,0,0,0-5.4,2.092l-2.5,3.542-11.218,4.321-9.94,1.269a1.743,1.743,0,0,1-1.4-3.012,83.973,83.973,0,0,0,7.229-7.746,1.964,1.964,0,0,0-.431-2.891h0a6.114,6.114,0,0,0-7.825.933c-5.651,6-13.332,9.561-18.538,11.441a12.541,12.541,0,0,0-7.727,8.141l-1.31,4.293" transform="translate(542.573 166.176)" fill="none" stroke="#000" stroke-linecap="round" stroke-linejoin="round" stroke-miterlimit="10" stroke-width="1"/>
          </g>
          <g id="g9296" transform="translate(28.544 39.856)">
            <path id="path9298" d="M-42.777,0a60.4,60.4,0,0,0-4.6,4.9" transform="translate(47.381)" fill="none" stroke="#000" stroke-linecap="round" stroke-linejoin="round" stroke-miterlimit="10" stroke-width="1"/>
          </g>
        </g>
      </g>
    </g>
  </g>
</svg>
