<svg xmlns="http://www.w3.org/2000/svg" xmlns:xlink="http://www.w3.org/1999/xlink" width="98" height="98" viewBox="0 0 98 98">
  <defs>
    <filter id="Trazado_982547" x="0" y="0" width="98" height="98" filterUnits="userSpaceOnUse">
      <feOffset dy="3" input="SourceAlpha"/>
      <feGaussianBlur stdDeviation="3" result="blur"/>
      <feFlood flood-opacity="0.161"/>
      <feComposite operator="in" in2="blur"/>
      <feComposite in="SourceGraphic"/>
    </filter>
  </defs>
  <g id="Grupo_1223599" data-name="Grupo 1223599" transform="translate(-613.625 -1300)">
    <g id="Grupo_1223173" data-name="Grupo 1223173" transform="translate(419.495 -708)">
      <g id="Grupo_1206686" data-name="Grupo 1206686" transform="translate(203.13 2014)">
        <g id="Grupo_1201889" data-name="Grupo 1201889">
          <g id="Grupo_1201680" data-name="Grupo 1201680">
            <g id="Grupo_1201330" data-name="Grupo 1201330">
              <g id="Grupo_1172010" data-name="Grupo 1172010">
                <g id="Grupo_1171046" data-name="Grupo 1171046">
                  <g id="Grupo_1148525" data-name="Grupo 1148525">
                    <g transform="matrix(1, 0, 0, 1, -9, -6)" filter="url(#Trazado_982547)">
                      <g id="Trazado_982547-2" data-name="Trazado 982547" transform="translate(9 6)" fill="#fcf5f0">
                        <path d="M 40 78.5 C 34.80187606811523 78.5 29.76003265380859 77.48227691650391 25.01452255249023 75.47509765625 C 20.43014526367188 73.53606414794922 16.31264495849609 70.75986480712891 12.77638912200928 67.22360992431641 C 9.240133285522461 63.68735504150391 6.46393346786499 59.56985473632812 4.524899959564209 54.98547744750977 C 2.517722129821777 50.23996734619141 1.5 45.19812393188477 1.5 40 C 1.5 34.80187606811523 2.517722129821777 29.76003265380859 4.524899959564209 25.01452255249023 C 6.46393346786499 20.43014526367188 9.240133285522461 16.31264495849609 12.77638912200928 12.77638912200928 C 16.31264495849609 9.240133285522461 20.43014526367188 6.46393346786499 25.01452255249023 4.524899959564209 C 29.76003265380859 2.517722129821777 34.80187606811523 1.5 40 1.5 C 45.19812393188477 1.5 50.23996734619141 2.517722129821777 54.98547744750977 4.524899959564209 C 59.56985473632812 6.46393346786499 63.68735504150391 9.240133285522461 67.22360992431641 12.77638912200928 C 70.75986480712891 16.31264495849609 73.53606414794922 20.43014526367188 75.47509765625 25.01452255249023 C 77.48227691650391 29.76003265380859 78.5 34.80187606811523 78.5 40 C 78.5 45.19812393188477 77.48227691650391 50.23996734619141 75.47509765625 54.98547744750977 C 73.53606414794922 59.56985473632812 70.75986480712891 63.68735504150391 67.22360992431641 67.22360992431641 C 63.68735504150391 70.75986480712891 59.56985473632812 73.53606414794922 54.98547744750977 75.47509765625 C 50.23996734619141 77.48227691650391 45.19812393188477 78.5 40 78.5 Z" stroke="none"/>
                        <path d="M 40 3 C 35.00370788574219 3 30.15846633911133 3.977851867675781 25.59885406494141 5.906410217285156 C 21.19327926635742 7.769813537597656 17.23603820800781 10.43806457519531 13.83705139160156 13.83705139160156 C 10.43806457519531 17.23603820800781 7.769813537597656 21.19327926635742 5.906410217285156 25.59885406494141 C 3.977851867675781 30.15846633911133 3 35.00370788574219 3 40 C 3 44.99629211425781 3.977851867675781 49.84153366088867 5.906410217285156 54.40114593505859 C 7.769813537597656 58.80672073364258 10.43806457519531 62.76396179199219 13.83705139160156 66.16294860839844 C 17.23603820800781 69.56193542480469 21.19327926635742 72.23018646240234 25.59885406494141 74.09358978271484 C 30.15846633911133 76.02214813232422 35.00370788574219 77 40 77 C 44.99629211425781 77 49.84153366088867 76.02214813232422 54.40114593505859 74.09358978271484 C 58.80672073364258 72.23018646240234 62.76396179199219 69.56193542480469 66.16294860839844 66.16294860839844 C 69.56193542480469 62.76396179199219 72.23018646240234 58.80672073364258 74.09358978271484 54.40114593505859 C 76.02214813232422 49.84153366088867 77 44.99629211425781 77 40 C 77 35.00370788574219 76.02214813232422 30.15846633911133 74.09358978271484 25.59885406494141 C 72.23018646240234 21.19327926635742 69.56193542480469 17.23603820800781 66.16294860839844 13.83705139160156 C 62.76396179199219 10.43806457519531 58.80672073364258 7.769813537597656 54.40114593505859 5.906410217285156 C 49.84153366088867 3.977851867675781 44.99629211425781 3 40 3 M 40 0 C 62.09138488769531 0 80 17.90861511230469 80 40 C 80 62.09138488769531 62.09138488769531 80 40 80 C 17.90861511230469 80 0 62.09138488769531 0 40 C 0 17.90861511230469 17.90861511230469 0 40 0 Z" stroke="none" fill="#eca675"/>
                      </g>
                    </g>
                  </g>
                </g>
              </g>
            </g>
          </g>
        </g>
      </g>
    </g>
    <g id="partnership_2254998" transform="translate(634.043 1320.532)">
      <g id="Layer_33" data-name="Layer 33" transform="translate(2.886 2.886)">
        <path id="Trazado_1177719" data-name="Trazado 1177719" d="M33.743,45.11c.789-.337,18.829-8.2,19.086-8.24v-.009a2.292,2.292,0,0,1,2.7,2.251v.009A2.288,2.288,0,0,1,54.538,41l-24.7,17.039L13,50.949v-12.4L20.974,35l6.645,3.544,6.645,3.544v1.772A1.732,1.732,0,0,1,33.743,45.11Z" transform="translate(-4.139 -6.646)" fill="#ffdaaa"/>
        <path id="Trazado_1177720" data-name="Trazado 1177720" d="M57.554,39.346v.009a2.288,2.288,0,0,1-.992,1.878l-24.7,17.039-1.1-.461L54.79,41.233a2.288,2.288,0,0,0,.992-1.878v-.009a2.245,2.245,0,0,0-1.338-2.073c.248-.106.39-.168.408-.168V37.1a2.292,2.292,0,0,1,2.7,2.251Z" transform="translate(-6.163 -6.881)" fill="#ffc477"/>
        <path id="Trazado_1177721" data-name="Trazado 1177721" d="M60.658,13.886v.886a.886.886,0,0,1-.886.886H58V13h1.772A.886.886,0,0,1,60.658,13.886Z" transform="translate(-9.267 -4.139)" fill="#ffb655"/>
        <path id="Trazado_1177722" data-name="Trazado 1177722" d="M58.949,8.316V9.2l-2.658,2.658H45.658L43,9.2V8.316A5.316,5.316,0,0,1,48.316,3h5.316A5.316,5.316,0,0,1,58.949,8.316Z" transform="translate(-7.558 -3)" fill="#a78966"/>
        <path id="Trazado_1177723" data-name="Trazado 1177723" d="M60.088,8.316V9.2L57.43,11.861H55.658L58.316,9.2V8.316A5.316,5.316,0,0,0,53,3h1.772A5.316,5.316,0,0,1,60.088,8.316Z" transform="translate(-8.697 -3)" fill="#957856"/>
        <path id="Trazado_1177724" data-name="Trazado 1177724" d="M18.949,8.316V9.2l-2.658,2.658H5.658L3,9.2V8.316A5.316,5.316,0,0,1,8.316,3h5.316A5.316,5.316,0,0,1,18.949,8.316Z" transform="translate(-3 -3)" fill="#a78966"/>
        <path id="Trazado_1177725" data-name="Trazado 1177725" d="M20.088,8.316V9.2L17.43,11.861H15.658L18.316,9.2V8.316A5.316,5.316,0,0,0,13,3h1.772A5.316,5.316,0,0,1,20.088,8.316Z" transform="translate(-4.139 -3)" fill="#957856"/>
        <path id="Trazado_1177726" data-name="Trazado 1177726" d="M57.4,27.224l-6.2,3.544L45,27.224l3.544-2.658V21.19a5.282,5.282,0,0,0,5.316,0v3.376Z" transform="translate(-7.786 -5.073)" fill="#ffdaaa"/>
        <path id="Trazado_1177727" data-name="Trazado 1177727" d="M56.633,12.43v2.658a5.316,5.316,0,0,1-10.633,0V9.772L49.544,8l7.088,1.772Z" transform="translate(-7.9 -3.57)" fill="#ffdaaa"/>
        <path id="Trazado_1177728" data-name="Trazado 1177728" d="M57.012,9.772v5.316a5.3,5.3,0,0,1-2.658,4.6A5.19,5.19,0,0,1,51.7,20.4a5.786,5.786,0,0,1-.886-.071,5.13,5.13,0,0,0,1.772-.647,5.3,5.3,0,0,0,2.658-4.6V9.772l-5.91-1.48L49.924,8Z" transform="translate(-8.279 -3.57)" fill="#ffc477"/>
        <path id="Trazado_1177729" data-name="Trazado 1177729" d="M45.658,13v2.658H43.886a.8.8,0,0,1-.354-.08A11.062,11.062,0,0,0,43,14.054v-.168A.886.886,0,0,1,43.886,13Z" transform="translate(-7.558 -4.139)" fill="#ffb655"/>
        <path id="Trazado_1177730" data-name="Trazado 1177730" d="M42.037,21.175H19l.8-2.383a1.75,1.75,0,0,0,.089-.558v-.6a10.686,10.686,0,0,1,.354-2.738,11.062,11.062,0,0,1,.532-1.524,10.633,10.633,0,0,1,19.493,0,11.062,11.062,0,0,1,.532,1.524,10.686,10.686,0,0,1,.354,2.738v.6a1.75,1.75,0,0,0,.089.558Z" transform="translate(-4.823 -3.454)" fill="#ffde55"/>
        <path id="Trazado_1177731" data-name="Trazado 1177731" d="M43.4,21.177H41.63l-.8-2.383a1.75,1.75,0,0,1-.089-.558v-.6a10.686,10.686,0,0,0-.354-2.738,11.063,11.063,0,0,0-.532-1.524A10.618,10.618,0,0,0,30.98,7.035c.292-.027.594-.035.9-.035a10.62,10.62,0,0,1,9.747,6.371,11.063,11.063,0,0,1,.532,1.524,10.686,10.686,0,0,1,.354,2.738v.6a1.75,1.75,0,0,0,.089.558Z" transform="translate(-6.188 -3.456)" fill="#ebbf00"/>
        <path id="Trazado_1177732" data-name="Trazado 1177732" d="M40.658,17.886v.886a.886.886,0,0,1-.886.886H38V17h1.772A.886.886,0,0,1,40.658,17.886Z" transform="translate(-6.988 -4.595)" fill="#ffb655"/>
        <path id="Trazado_1177733" data-name="Trazado 1177733" d="M37.4,31.224l-6.2,3.544L25,31.224l3.544-2.658V25.19a5.282,5.282,0,0,0,5.316,0v3.376Z" transform="translate(-5.507 -5.528)" fill="#ffdaaa"/>
        <path id="Trazado_1177734" data-name="Trazado 1177734" d="M36.633,16.43v2.658a5.316,5.316,0,0,1-10.633,0V13.772L29.544,12l7.088,1.772Z" transform="translate(-5.621 -4.026)" fill="#ffdaaa"/>
        <path id="Trazado_1177735" data-name="Trazado 1177735" d="M38.088,31.224l-6.2,3.544L31,34.263l5.316-3.039-3.544-2.658V25.837a5.13,5.13,0,0,0,1.772-.647v3.376Z" transform="translate(-6.191 -5.528)" fill="#ffc477"/>
        <path id="Trazado_1177736" data-name="Trazado 1177736" d="M37.012,13.772v5.316A5.33,5.33,0,0,1,31.7,24.4a5.787,5.787,0,0,1-.886-.071,5.13,5.13,0,0,0,1.772-.647,5.33,5.33,0,0,0,2.658-4.6V13.772l-5.91-1.48L29.924,12Z" transform="translate(-6 -4.026)" fill="#ffc477"/>
        <path id="Trazado_1177737" data-name="Trazado 1177737" d="M25.658,17v2.658H23.886A.886.886,0,0,1,23,18.772v-.886A.886.886,0,0,1,23.886,17Z" transform="translate(-5.279 -4.595)" fill="#ffb655"/>
        <path id="Trazado_1177738" data-name="Trazado 1177738" d="M20.658,13.886v.168a11.063,11.063,0,0,0-.532,1.524.8.8,0,0,1-.354.08H18V13h1.772A.886.886,0,0,1,20.658,13.886Z" transform="translate(-4.709 -4.139)" fill="#ffb655"/>
        <path id="Trazado_1177739" data-name="Trazado 1177739" d="M17.4,27.224l-6.2,3.544L5,27.224l3.544-2.658V21.19a5.282,5.282,0,0,0,5.316,0v3.376Z" transform="translate(-3.228 -5.073)" fill="#ffdaaa"/>
        <path id="Trazado_1177740" data-name="Trazado 1177740" d="M16.633,12.43v2.658A5.316,5.316,0,0,1,6,15.088V9.772L13.088,8l3.544,1.772Z" transform="translate(-3.342 -3.57)" fill="#ffdaaa"/>
        <path id="Trazado_1177741" data-name="Trazado 1177741" d="M17.2,9.772v5.316a5.3,5.3,0,0,1-2.658,4.6,5.19,5.19,0,0,1-2.658.718A5.787,5.787,0,0,1,11,20.334a5.13,5.13,0,0,0,1.772-.647,5.3,5.3,0,0,0,2.658-4.6V9.772L12.48,8.292,13.658,8Z" transform="translate(-3.912 -3.57)" fill="#ffc477"/>
        <path id="Trazado_1177742" data-name="Trazado 1177742" d="M12.544,51.177v1.772H9V37h3.544V51.177Z" transform="translate(-3.684 -6.874)" fill="#57a4ff"/>
        <path id="Trazado_1177743" data-name="Trazado 1177743" d="M3,39H8.316V51.4H3Z" transform="translate(-3 -7.102)" fill="#ffdaaa"/>
        <path id="Trazado_1177744" data-name="Trazado 1177744" d="M11,37h1.772V52.949H11Z" transform="translate(-3.912 -6.874)" fill="#2488ff"/>
        <path id="Trazado_1177745" data-name="Trazado 1177745" d="M7,39H8.772V51.4H7Z" transform="translate(-3.456 -7.102)" fill="#ffc477"/>
        <path id="Trazado_1177746" data-name="Trazado 1177746" d="M5.658,13v2.658H3.886A.886.886,0,0,1,3,14.772v-.886A.886.886,0,0,1,3.886,13Z" transform="translate(-3 -4.139)" fill="#ffb655"/>
        <g id="Grupo_1223598" data-name="Grupo 1223598" transform="translate(7.088 16.117)">
          <path id="Trazado_1177747" data-name="Trazado 1177747" d="M18.088,27.224l-6.2,3.544L11,30.263l5.316-3.039-3.544-2.658V21.837a5.13,5.13,0,0,0,1.772-.647v3.376Z" transform="translate(-11 -21.19)" fill="#ffc477"/>
          <path id="Trazado_1177748" data-name="Trazado 1177748" d="M58.088,27.224l-6.2,3.544L51,30.263l5.316-3.039-3.544-2.658V21.837a5.13,5.13,0,0,0,1.772-.647v3.376Z" transform="translate(-15.558 -21.19)" fill="#ffc477"/>
        </g>
      </g>
      <g id="Layer_34" data-name="Layer 34" transform="translate(2 2)">
        <g id="partnership">
          <path id="Trazado_1177749" data-name="Trazado 1177749" d="M51.414,35.875a.886.886,0,0,0-.3.117c-.828.328-4.019,1.684-17.215,7.43V41.974a.886.886,0,0,0-.469-.782L20.138,34.1a.886.886,0,0,0-.777-.027l-6.729,2.99v-.408a.886.886,0,0,0-.886-.886H8.2a.886.886,0,0,0-.886.886v.886H2.886A.886.886,0,0,0,2,38.43v12.4a.886.886,0,0,0,.886.886h4.43v.886a.886.886,0,0,0,.886.886h3.544a.886.886,0,0,0,.886-.886v-.438L28.238,58.74a.873.873,0,0,0,.344.069.886.886,0,0,0,.5-.157l24.7-17.033a3.176,3.176,0,0,0-2.371-5.741ZM3.772,49.949V39.316H7.316V49.949Zm7.088,1.772H9.088V37.544h1.772ZM52.781,40.154l-24.3,16.764L12.633,50.247V39.006l7.053-3.135,12.44,6.635v1.24a.886.886,0,0,1-.886.886H19.721V46.4H31.24a2.632,2.632,0,0,0,1.7-.634c7.278-3.171,18.177-7.9,18.891-8.168a1.392,1.392,0,0,1,1.063.325,1.368,1.368,0,0,1,.5,1.077,1.411,1.411,0,0,1-.61,1.148Z" transform="translate(-2 -5.646)"/>
          <path id="Trazado_1177750" data-name="Trazado 1177750" d="M55.163,9.088V8.2a6.21,6.21,0,0,0-6.2-6.2H43.645a6.21,6.21,0,0,0-6.2,6.2v.886a.886.886,0,0,0,.259.626l1.179,1.179a1.72,1.72,0,0,0-.471.169,11.5,11.5,0,0,0-19.646.005,1.742,1.742,0,0,0-.482-.177l1.179-1.179a.886.886,0,0,0,.26-.624V8.2a6.21,6.21,0,0,0-6.2-6.2H8.2A6.21,6.21,0,0,0,2,8.2v.886a.886.886,0,0,0,.259.626l1.179,1.179A1.772,1.772,0,0,0,2,12.633v.886a1.772,1.772,0,0,0,1.772,1.772h.957a6.2,6.2,0,0,0,2.587,4.2v2.449l-3.19,2.392a.886.886,0,0,0,.089,1.478l6.2,3.544a.886.886,0,0,0,.879,0l6.2-3.544a.886.886,0,0,0,.089-1.478L14.4,21.936V19.487a6.2,6.2,0,0,0,2.587-4.2h.222a11.568,11.568,0,0,0-.151,1.772v.6a.869.869,0,0,1-.043.276l-.8,2.384a.886.886,0,0,0,.84,1.167H23.5a6.248,6.248,0,0,0,1.538,1.538V25.48l-3.19,2.392a.886.886,0,0,0,.089,1.478l6.2,3.544a.886.886,0,0,0,.879,0l6.2-3.544a.886.886,0,0,0,.089-1.478L32.126,25.48V23.031a6.249,6.249,0,0,0,1.538-1.538H40.1a.886.886,0,0,0,.84-1.167l-.8-2.377a.886.886,0,0,1-.043-.284v-.6a11.646,11.646,0,0,0-.148-1.772h.219a6.2,6.2,0,0,0,2.587,4.2v2.449l-3.19,2.392a.886.886,0,0,0,.089,1.478l6.2,3.544a.886.886,0,0,0,.879,0l6.2-3.544a.886.886,0,0,0,.089-1.478l-3.183-2.392V19.487a6.2,6.2,0,0,0,2.587-4.2h.957a1.772,1.772,0,0,0,1.772-1.772v-.886a1.772,1.772,0,0,0-1.439-1.738L54.9,9.715A.886.886,0,0,0,55.163,9.088ZM39.214,8.2a4.436,4.436,0,0,1,4.43-4.43h5.316a4.436,4.436,0,0,1,4.43,4.43v.519l-.886.886V9.088a.886.886,0,0,0-.672-.859L44.745,6.457a.878.878,0,0,0-.61.066L40.59,8.3a.886.886,0,0,0-.49.793v.519l-.886-.886ZM3.772,8.2A4.436,4.436,0,0,1,8.2,3.772h5.316a4.436,4.436,0,0,1,4.43,4.43v.519l-.886.886V9.088a.886.886,0,0,0-.49-.793L13.029,6.523a.879.879,0,0,0-.61-.066L5.33,8.229a.886.886,0,0,0-.672.859v.519l-.886-.886Zm0,4.43h.886v.886H3.772Zm9.215,10.455,2.466,1.849-4.592,2.624L6.268,24.937l2.466-1.849a.886.886,0,0,0,.354-.709V20.341a6.138,6.138,0,0,0,3.544,0v2.038a.886.886,0,0,0,.354.709Zm2.3-8.683a4.43,4.43,0,0,1-8.861,0V9.78l6.1-1.525,2.761,1.38Zm1.772-.886v-.886h.886v.007c-.12.287-.226.581-.323.879Zm4.43,3.544v-.886h.886v.886Zm9.215,9.569,2.466,1.849-4.592,2.624-4.592-2.624,2.466-1.849a.886.886,0,0,0,.354-.709V23.886a6.138,6.138,0,0,0,3.544,0v2.038a.886.886,0,0,0,.354.709Zm2.3-8.683a4.43,4.43,0,0,1-8.861,0V13.18l2.761-1.38,6.1,1.525Zm1.772-1.772h.886v.886h-.886Zm-.266,3.544a6.127,6.127,0,0,0,.191-.886h.961a1.772,1.772,0,0,0,1.772-1.772v-.886A1.772,1.772,0,0,0,35.67,14.4h-.886V12.633a.886.886,0,0,0-.672-.859L27.024,10a.886.886,0,0,0-.61.066L22.869,11.84a.886.886,0,0,0-.49.793V14.4h-.886a1.772,1.772,0,0,0-1.772,1.772v.886a1.772,1.772,0,0,0,1.772,1.772h.957a6.127,6.127,0,0,0,.191.886H18.295L18.7,18.5a2.677,2.677,0,0,0,.133-.836v-.6a9.747,9.747,0,0,1,19.493,0v.6a2.691,2.691,0,0,0,.134.839l.407,1.217Zm4.7-7.088H40.1v.886h-.559c-.1-.3-.2-.6-.318-.886Zm9.211,10.455L50.9,24.937,46.3,27.562,41.71,24.937l2.466-1.849a.886.886,0,0,0,.354-.709V20.341a6.138,6.138,0,0,0,3.544,0v2.038a.886.886,0,0,0,.354.709Zm2.3-8.683a4.43,4.43,0,1,1-8.861,0V9.636l2.761-1.38,6.1,1.525Zm2.658-.886h-.886v-.886h.886Z" transform="translate(-2 -2)"/>
        </g>
      </g>
    </g>
  </g>
</svg>
