<svg xmlns="http://www.w3.org/2000/svg" xmlns:xlink="http://www.w3.org/1999/xlink" width="118" height="118" viewBox="0 0 118 118">
  <defs>
    <filter id="Trazado_982547" x="0" y="0" width="118" height="118" filterUnits="userSpaceOnUse">
      <feOffset dy="3" input="SourceAlpha"/>
      <feGaussianBlur stdDeviation="3" result="blur"/>
      <feFlood flood-opacity="0.161"/>
      <feComposite operator="in" in2="blur"/>
      <feComposite in="SourceGraphic"/>
    </filter>
  </defs>
  <g id="Grupo_1223652" data-name="Grupo 1223652" transform="translate(-1213.5 -10573.045)">
    <g id="Grupo_1223207" data-name="Grupo 1223207" transform="translate(1222.5 10579.045)">
      <g id="Grupo_1211216" data-name="Grupo 1211216" transform="translate(0)">
        <g id="Grupo_1210737" data-name="Grupo 1210737">
          <g id="Grupo_1210537" data-name="Grupo 1210537">
            <g id="Grupo_1164202" data-name="Grupo 1164202">
              <g id="Grupo_1158168" data-name="Grupo 1158168">
                <g id="Grupo_1152576" data-name="Grupo 1152576">
                  <g id="Grupo_1148633" data-name="Grupo 1148633">
                    <g id="Grupo_1148525" data-name="Grupo 1148525">
                      <g transform="matrix(1, 0, 0, 1, -9, -6)" filter="url(#Trazado_982547)">
                        <g id="Trazado_982547-2" data-name="Trazado 982547" transform="translate(9 6)" fill="#fcf5f0">
                          <path d="M 49.99999618530273 98.5 C 43.45188140869141 98.5 37.10042572021484 97.21786499023438 31.12206840515137 94.68923950195312 C 25.34691047668457 92.24655151367188 20.15996742248535 88.74931335449219 15.70532512664795 84.29468536376953 C 11.25068187713623 79.84004211425781 7.753438949584961 74.65309906005859 5.310753345489502 68.87792205810547 C 2.782124757766724 62.89956665039062 1.499996185302734 56.54811096191406 1.499996185302734 49.99999618530273 C 1.499996185302734 43.45188140869141 2.782124757766724 37.10042572021484 5.310753345489502 31.12206840515137 C 7.753438949584961 25.34691047668457 11.25068187713623 20.15996742248535 15.70532512664795 15.70532512664795 C 20.15996742248535 11.25068187713623 25.34691047668457 7.753438949584961 31.12206840515137 5.310753345489502 C 37.10042572021484 2.782124757766724 43.45188140869141 1.499996185302734 49.99999618530273 1.499996185302734 C 56.54811096191406 1.499996185302734 62.89956665039062 2.782124757766724 68.87792205810547 5.310753345489502 C 74.65309906005859 7.753438949584961 79.84004211425781 11.25068187713623 84.29468536376953 15.70532512664795 C 88.74931335449219 20.15996742248535 92.24655151367188 25.34691047668457 94.68923950195312 31.12206840515137 C 97.21786499023438 37.10042572021484 98.5 43.45188140869141 98.5 49.99999618530273 C 98.5 56.54811096191406 97.21786499023438 62.89956665039062 94.68923950195312 68.87792205810547 C 92.24655151367188 74.65309906005859 88.74931335449219 79.84004211425781 84.29468536376953 84.29468536376953 C 79.84004211425781 88.74931335449219 74.65309906005859 92.24655151367188 68.87792205810547 94.68923950195312 C 62.89956665039062 97.21786499023438 56.54811096191406 98.5 49.99999618530273 98.5 Z" stroke="none"/>
                          <path d="M 49.99999618530273 2.999992370605469 C 43.65372085571289 2.999992370605469 37.49885940551758 4.242256164550781 31.70639801025391 6.6922607421875 C 26.11002349853516 9.059318542480469 21.08335113525391 12.4486083984375 16.76598358154297 16.76598358154297 C 12.4486083984375 21.08335113525391 9.059318542480469 26.11002349853516 6.6922607421875 31.70639801025391 C 4.242256164550781 37.49885940551758 2.999992370605469 43.65372085571289 2.999992370605469 49.99999618530273 C 2.999992370605469 56.34627151489258 4.242256164550781 62.50113296508789 6.6922607421875 68.29359436035156 C 9.059318542480469 73.88996887207031 12.4486083984375 78.91664123535156 16.76598358154297 83.2340087890625 C 21.08335113525391 87.55138397216797 26.11002349853516 90.940673828125 31.70639801025391 93.30773162841797 C 37.49885940551758 95.75773620605469 43.65372085571289 97 49.99999618530273 97 C 56.34627151489258 97 62.50113296508789 95.75773620605469 68.29359436035156 93.30773162841797 C 73.88996887207031 90.940673828125 78.91664123535156 87.55138397216797 83.2340087890625 83.2340087890625 C 87.55138397216797 78.91664123535156 90.940673828125 73.88996887207031 93.30773162841797 68.29359436035156 C 95.75773620605469 62.50113296508789 97 56.34627151489258 97 49.99999618530273 C 97 43.65372085571289 95.75773620605469 37.49885940551758 93.30773162841797 31.70639801025391 C 90.940673828125 26.11002349853516 87.55138397216797 21.08335113525391 83.2340087890625 16.76598358154297 C 78.91664123535156 12.4486083984375 73.88996887207031 9.059318542480469 68.29359436035156 6.6922607421875 C 62.50113296508789 4.242256164550781 56.34627151489258 2.999992370605469 49.99999618530273 2.999992370605469 M 49.99999618530273 -7.62939453125e-06 C 77.61422729492188 -7.62939453125e-06 100 22.38576507568359 100 49.99999618530273 C 100 77.61422729492188 77.61422729492188 100 49.99999618530273 100 C 22.38576507568359 100 -7.62939453125e-06 77.61422729492188 -7.62939453125e-06 49.99999618530273 C -7.62939453125e-06 22.38576507568359 22.38576507568359 -7.62939453125e-06 49.99999618530273 -7.62939453125e-06 Z" stroke="none" fill="#eca675"/>
                        </g>
                      </g>
                    </g>
                  </g>
                </g>
              </g>
            </g>
          </g>
        </g>
      </g>
    </g>
    <g id="Layer_32" data-name="Layer 32" transform="translate(1240.085 10596.517)">
      <path id="Trazado_1178004" data-name="Trazado 1178004" d="M54.609,29.374V19.235l-2.757-.25a20.115,20.115,0,0,0-1.961-4.745l1.769-2.123L44.492,4.948,42.369,6.717a20.115,20.115,0,0,0-4.745-1.961L37.374,2H27.235l-.25,2.757A20.115,20.115,0,0,0,22.24,6.717L20.117,4.948l-7.169,7.169,1.769,2.123a20.115,20.115,0,0,0-1.961,4.745L10,19.235V29.374l2.757.25a20.115,20.115,0,0,0,1.961,4.745l-1.769,2.123,7.169,7.169,2.123-1.769a20.115,20.115,0,0,0,4.745,1.961l.25,2.757H37.374l.25-2.757a20.115,20.115,0,0,0,4.745-1.961l2.123,1.769,7.169-7.169-1.769-2.123a20.114,20.114,0,0,0,1.961-4.745Z" transform="translate(0.111 0.014)" fill="#f79b31"/>
      <path id="Trazado_1178005" data-name="Trazado 1178005" d="M49.822,14.24l1.769-2.123L44.423,4.948,42.3,6.717a20.115,20.115,0,0,0-4.745-1.961L37.3,2H32.12a5.849,5.849,0,0,1-4.336,5.655,17.235,17.235,0,0,0,0,33.3,5.849,5.849,0,0,1,4.336,5.655H37.3l.25-2.757A20.115,20.115,0,0,0,42.3,41.892l2.123,1.769,7.169-7.169-1.769-2.123a20.114,20.114,0,0,0,1.961-4.745l2.757-.25V19.235l-2.757-.25a20.115,20.115,0,0,0-1.961-4.745Z" transform="translate(0.18 0.014)" fill="#fcb732"/>
      <circle id="Elipse_14706" data-name="Elipse 14706" cx="15.208" cy="15.208" r="15.208" transform="translate(17.208 9.111)" fill="#66c3e9"/>
      <path id="Trazado_1178006" data-name="Trazado 1178006" d="M32.166,9a15.117,15.117,0,0,0-9.114,3.055A15.186,15.186,0,0,0,44.32,33.32,15.186,15.186,0,0,0,32.166,9Z" transform="translate(0.249 0.111)" fill="#8adef9"/>
      <path id="Trazado_1178007" data-name="Trazado 1178007" d="M25.3,56.948v6.509H15.977l.122-.629a4,4,0,0,0,.081-.781,3.945,3.945,0,0,0-1.156-2.788L8.069,52.3,4.815,45.8A17.165,17.165,0,0,1,3,38.111v-5.9a2.213,2.213,0,0,1,4.39-.4l1.156,6.407a2.044,2.044,0,0,1,.659-.112,2.148,2.148,0,0,1,1.521.629l4.1,4.1a6.894,6.894,0,0,0,3.224,1.825,6.959,6.959,0,0,1,3.64,2.281A15.613,15.613,0,0,1,25.3,56.948Z" transform="translate(0.014 0.401)" fill="#fec99c"/>
      <path id="Trazado_1178008" data-name="Trazado 1178008" d="M21.657,46.938a6.959,6.959,0,0,0-3.64-2.281,6.894,6.894,0,0,1-3.224-1.825l-4.1-4.1a2.148,2.148,0,0,0-1.521-.629,2.044,2.044,0,0,0-.659.112L7.362,31.811A2.2,2.2,0,0,0,6.2,30.252,2.166,2.166,0,0,0,5,32.207v5.9A17.169,17.169,0,0,0,6.816,45.8L10.069,52.3l6.955,6.955a3.945,3.945,0,0,1,1.156,2.788,4,4,0,0,1-.081.781l-.122.629h7.3V56.944A15.613,15.613,0,0,0,21.657,46.938Z" transform="translate(0.042 0.405)" fill="#fedab6"/>
      <path id="Trazado_1178009" data-name="Trazado 1178009" d="M15.154,53.464a14.032,14.032,0,0,0-3.707-6.543L6.926,42.4A3.143,3.143,0,0,1,6,40.161a3.187,3.187,0,0,1,.926-2.238,3.088,3.088,0,0,1,1.285-.771l.588,1.94a1.056,1.056,0,0,0-.439.264,1.144,1.144,0,0,0-.332.8,1.129,1.129,0,0,0,.332.8l4.522,4.522a16.072,16.072,0,0,1,4.242,7.488Z" transform="translate(0.055 0.5)" fill="#fec99c"/>
      <path id="Trazado_1178010" data-name="Trazado 1178010" d="M39,56.948v6.509h9.327l-.122-.629a4,4,0,0,1-.081-.781A3.945,3.945,0,0,1,49.28,59.26L56.235,52.3,59.49,45.8A17.165,17.165,0,0,0,61.3,38.111v-5.9a2.213,2.213,0,0,0-4.39-.4l-1.156,6.407a2.044,2.044,0,0,0-.659-.112,2.148,2.148,0,0,0-1.521.629l-4.1,4.1a6.894,6.894,0,0,1-3.224,1.825,6.959,6.959,0,0,0-3.64,2.281A15.613,15.613,0,0,0,39,56.948Z" transform="translate(0.512 0.401)" fill="#fec99c"/>
      <path id="Trazado_1178011" data-name="Trazado 1178011" d="M42.619,46.938a6.959,6.959,0,0,1,3.64-2.281,6.894,6.894,0,0,0,3.224-1.825l4.1-4.1a2.148,2.148,0,0,1,1.521-.629,2.044,2.044,0,0,1,.659.112l1.156-6.407a2.2,2.2,0,0,1,1.161-1.559,2.166,2.166,0,0,1,1.2,1.955v5.9A17.169,17.169,0,0,1,57.461,45.8L54.208,52.3l-6.955,6.955A3.945,3.945,0,0,0,46.1,62.044a4,4,0,0,0,.081.781l.122.629H39V56.944a15.613,15.613,0,0,1,3.619-10.007Z" transform="translate(0.512 0.405)" fill="#fedab6"/>
      <path id="Trazado_1178012" data-name="Trazado 1178012" d="M49,53.464A14.032,14.032,0,0,1,52.7,46.92L57.226,42.4a3.143,3.143,0,0,0,.926-2.238,3.187,3.187,0,0,0-.926-2.238,3.088,3.088,0,0,0-1.285-.771l-.588,1.94a1.056,1.056,0,0,1,.439.264,1.144,1.144,0,0,1,.332.8,1.129,1.129,0,0,1-.332.8l-4.522,4.522a16.072,16.072,0,0,0-4.242,7.488Z" transform="translate(0.623 0.5)" fill="#fec99c"/>
      <path id="Trazado_1178013" data-name="Trazado 1178013" d="M29.27,17.111a5.36,5.36,0,0,1,5.085,3.666,3.535,3.535,0,0,0,6.894-1.115h0a2.548,2.548,0,0,1,2.543-2.551h1.773A15.182,15.182,0,0,0,23.345,11.8l.011.09A5.959,5.959,0,0,0,29.27,17.111Z" transform="translate(0.295 0.111)" fill="#a6d305"/>
      <path id="Trazado_1178014" data-name="Trazado 1178014" d="M24.149,29.006a4.22,4.22,0,0,1,4-2.885,2.028,2.028,0,0,0,0-4.055,11.819,11.819,0,0,1-9.514-4.808A15.106,15.106,0,0,0,19.359,32.2h.353a4.676,4.676,0,0,0,4.437-3.2Z" transform="translate(0.208 0.225)" fill="#8dbf00"/>
      <path id="Trazado_1178015" data-name="Trazado 1178015" d="M37.307,27a6.882,6.882,0,0,0-6.617,4.991,4.342,4.342,0,0,1-2.652,2.874l-4.461,1.674a15.193,15.193,0,0,0,22.079-5.678L40.85,27.977A6.881,6.881,0,0,0,37.307,27Z" transform="translate(0.299 0.36)" fill="#8dbf00"/>
      <path id="Trazado_1178016" data-name="Trazado 1178016" d="M28.111,26.1a2.028,2.028,0,0,0,0-4.055,11.8,11.8,0,0,1-7.952-3.1A15.365,15.365,0,0,0,20,21.028a15.126,15.126,0,0,0,3.286,9.429,4.618,4.618,0,0,0,.821-1.469,4.22,4.22,0,0,1,4-2.89Z" transform="translate(0.249 0.248)" fill="#a6d305"/>
      <path id="Trazado_1178017" data-name="Trazado 1178017" d="M40.78,27.98a6.882,6.882,0,0,0-10.158,4.011A4.323,4.323,0,0,1,28.486,34.6a15.1,15.1,0,0,0,15.706-1.521,15.324,15.324,0,0,0,1.394-2.214Z" transform="translate(0.367 0.36)" fill="#a6d305"/>
      <path id="Trazado_1178018" data-name="Trazado 1178018" d="M7.176,52.772a1.042,1.042,0,0,0,.191.264l6.953,6.953a2.917,2.917,0,0,1,.861,2.077,2.957,2.957,0,0,1-.057.576L15,63.272l1.988.4.127-.63a4.992,4.992,0,0,0,.1-.974,4.929,4.929,0,0,0-1.455-3.511L8.916,51.718,5.735,45.353a16.229,16.229,0,0,1-1.707-7.229v-5.9A1.2,1.2,0,0,1,6.4,32.01L7.43,37.669a3.16,3.16,0,0,0-.448,4.843l4.525,4.526a14.076,14.076,0,0,1,3.7,6.54l1.967-.493A16.12,16.12,0,0,0,12.941,45.6L8.416,41.079a1.137,1.137,0,0,1,1.608-1.608l4.1,4.1a7.93,7.93,0,0,0,3.688,2.089,5.871,5.871,0,0,1,3.109,1.952A14.644,14.644,0,0,1,24.3,56.962v6.509h2.028V56.962A16.674,16.674,0,0,0,22.48,46.309a7.894,7.894,0,0,0-4.174-2.62,5.919,5.919,0,0,1-2.748-1.555l-4.1-4.1A3.13,3.13,0,0,0,9.4,37.125l-1-5.477a3.225,3.225,0,0,0-6.4.576v5.9a18.273,18.273,0,0,0,1.926,8.136Z" transform="translate(0 0.388)"/>
      <path id="Trazado_1178019" data-name="Trazado 1178019" d="M55.935,31.648l-1,5.48a3.13,3.13,0,0,0-2.064.912l-4.1,4.1a5.919,5.919,0,0,1-2.748,1.555,7.894,7.894,0,0,0-4.178,2.617A16.674,16.674,0,0,0,38,56.962v6.509h2.028V56.962a14.644,14.644,0,0,1,3.386-9.354,5.871,5.871,0,0,1,3.109-1.952,7.93,7.93,0,0,0,3.688-2.089l4.1-4.1a1.137,1.137,0,0,1,1.608,1.608L51.391,45.6a16.12,16.12,0,0,0-4.236,7.482l1.967.493a14.076,14.076,0,0,1,3.7-6.54l4.525-4.526a3.16,3.16,0,0,0-.448-4.843L57.93,32.01a1.2,1.2,0,0,1,2.374.214v5.9A16.229,16.229,0,0,1,58.6,45.353l-3.181,6.365-6.836,6.836a4.929,4.929,0,0,0-1.455,3.511,4.992,4.992,0,0,0,.1.974l.127.63,1.988-.4-.127-.631a2.957,2.957,0,0,1-.057-.576,2.917,2.917,0,0,1,.861-2.077l6.953-6.953a1.042,1.042,0,0,0,.191-.264l3.254-6.511a18.273,18.273,0,0,0,1.921-8.136v-5.9a3.225,3.225,0,0,0-6.4-.576Z" transform="translate(0.498 0.388)"/>
      <path id="Trazado_1178020" data-name="Trazado 1178020" d="M12.244,37.223l7.17,7.17a1.014,1.014,0,0,0,1.366.062l1.592-1.326a21.135,21.135,0,0,0,3.68,1.521l.184,2.065a1.014,1.014,0,0,0,1.014.923H37.388a1.014,1.014,0,0,0,1.014-.923l.188-2.067a21.135,21.135,0,0,0,3.68-1.521l1.592,1.326a1.014,1.014,0,0,0,1.366-.062l7.166-7.168a1.014,1.014,0,0,0,.062-1.366l-1.326-1.592a21.135,21.135,0,0,0,1.521-3.68l2.065-.184a1.014,1.014,0,0,0,.923-1.014V19.249a1.014,1.014,0,0,0-.923-1.014l-2.067-.188a21.135,21.135,0,0,0-1.521-3.68l1.326-1.592a1.014,1.014,0,0,0-.062-1.366L45.223,4.244a1.014,1.014,0,0,0-1.366-.062L42.265,5.509a21.057,21.057,0,0,0-3.68-1.521L38.4,1.923A1.014,1.014,0,0,0,37.388,1H27.249a1.014,1.014,0,0,0-1.014.923L26.048,3.99a21.056,21.056,0,0,0-3.68,1.521L20.78,4.183a1.014,1.014,0,0,0-1.366.062l-7.17,7.169a1.014,1.014,0,0,0-.062,1.366l1.326,1.592a21.135,21.135,0,0,0-1.521,3.68l-2.065.184A1.014,1.014,0,0,0,9,19.249V29.388A1.014,1.014,0,0,0,9.923,30.4l2.067.188a21.135,21.135,0,0,0,1.521,3.68l-1.326,1.592A1.014,1.014,0,0,0,12.244,37.223Zm.617-8.594-1.834-.166V20.175l1.835-.166a1.014,1.014,0,0,0,.886-.744,19.127,19.127,0,0,1,1.862-4.506,1.014,1.014,0,0,0-.1-1.154l-1.176-1.411,5.86-5.86L21.605,7.51a1.014,1.014,0,0,0,1.154.1,19.145,19.145,0,0,1,4.506-1.862,1.014,1.014,0,0,0,.744-.886l.166-1.835h8.287l.166,1.835a1.014,1.014,0,0,0,.744.886,19.145,19.145,0,0,1,4.506,1.862,1.014,1.014,0,0,0,1.154-.1l1.411-1.176,5.86,5.86-1.176,1.411a1.014,1.014,0,0,0-.1,1.154,19.127,19.127,0,0,1,1.862,4.506,1.014,1.014,0,0,0,.886.744l1.835.166v8.287l-1.835.166a1.014,1.014,0,0,0-.886.744,19.127,19.127,0,0,1-1.862,4.506,1.014,1.014,0,0,0,.1,1.154L50.3,36.443l-5.86,5.86-1.411-1.176a1.014,1.014,0,0,0-1.154-.1,19.127,19.127,0,0,1-4.506,1.862,1.014,1.014,0,0,0-.744.886l-.166,1.835H28.175l-.166-1.835a1.014,1.014,0,0,0-.744-.886,19.128,19.128,0,0,1-4.506-1.862,1.014,1.014,0,0,0-1.154.1L20.194,42.3l-5.86-5.86,1.176-1.411a1.014,1.014,0,0,0,.1-1.154,19.127,19.127,0,0,1-1.862-4.506,1.014,1.014,0,0,0-.886-.744Z" transform="translate(0.097 0)"/>
      <path id="Trazado_1178021" data-name="Trazado 1178021" d="M32.221,40.443A16.221,16.221,0,1,0,16,24.221,16.221,16.221,0,0,0,32.221,40.443Zm0-2.028A14.078,14.078,0,0,1,26.065,37l2.433-.912a5.381,5.381,0,0,0,3.271-3.548,5.868,5.868,0,0,1,8.664-3.422l3.954,2.375a14.185,14.185,0,0,1-12.166,6.927Zm11.635-22.3a3.564,3.564,0,0,0-3.524,3.562,2.521,2.521,0,0,1-4.913.8,6.369,6.369,0,0,0-6.049-4.359,4.939,4.939,0,0,1-4.8-3.828,14.138,14.138,0,0,1,19.281,3.828ZM22.843,13.6a6.982,6.982,0,0,0,6.527,4.543,4.34,4.34,0,0,1,4.124,2.973,4.549,4.549,0,0,0,8.865-1.439,1.536,1.536,0,0,1,1.534-1.534h1.132a14.084,14.084,0,0,1,.294,11.544l-3.847-2.308a7.895,7.895,0,0,0-11.653,4.6,3.346,3.346,0,0,1-2.034,2.2l-3.939,1.477a14.307,14.307,0,0,1-2.655-2.513,5.67,5.67,0,0,0,3.932-3.688,3.2,3.2,0,0,1,3.042-2.192,3.042,3.042,0,1,0,0-6.083,10.832,10.832,0,0,1-8.3-3.918A14.279,14.279,0,0,1,22.843,13.6Zm-3.9,5.679a12.883,12.883,0,0,0,9.226,3.934,1.014,1.014,0,1,1,0,2.028A5.224,5.224,0,0,0,23.2,28.814,3.65,3.65,0,0,1,19.935,31.3a14.021,14.021,0,0,1-.995-12.027Z" transform="translate(0.194 0.097)"/>
    </g>
  </g>
</svg>
