<svg xmlns="http://www.w3.org/2000/svg" xmlns:xlink="http://www.w3.org/1999/xlink" width="98" height="98" viewBox="0 0 98 98">
  <defs>
    <filter id="Trazado_982547" x="0" y="0" width="98" height="98" filterUnits="userSpaceOnUse">
      <feOffset dy="3" input="SourceAlpha"/>
      <feGaussianBlur stdDeviation="3" result="blur"/>
      <feFlood flood-opacity="0.161"/>
      <feComposite operator="in" in2="blur"/>
      <feComposite in="SourceGraphic"/>
    </filter>
  </defs>
  <g id="Grupo_1223600" data-name="Grupo 1223600" transform="translate(-1034 -1300)">
    <g id="Grupo_1223174" data-name="Grupo 1223174" transform="translate(839.87 -708)">
      <g id="Grupo_1206686" data-name="Grupo 1206686" transform="translate(203.13 2014)">
        <g id="Grupo_1201889" data-name="Grupo 1201889">
          <g id="Grupo_1201680" data-name="Grupo 1201680">
            <g id="Grupo_1201330" data-name="Grupo 1201330">
              <g id="Grupo_1172010" data-name="Grupo 1172010">
                <g id="Grupo_1171046" data-name="Grupo 1171046">
                  <g id="Grupo_1148525" data-name="Grupo 1148525">
                    <g transform="matrix(1, 0, 0, 1, -9, -6)" filter="url(#Trazado_982547)">
                      <g id="Trazado_982547-2" data-name="Trazado 982547" transform="translate(9 6)" fill="#fcf5f0">
                        <path d="M 40 78.5 C 34.80187606811523 78.5 29.76003265380859 77.48227691650391 25.01452255249023 75.47509765625 C 20.43014526367188 73.53606414794922 16.31264495849609 70.75986480712891 12.77638912200928 67.22360992431641 C 9.240133285522461 63.68735504150391 6.46393346786499 59.56985473632812 4.524899959564209 54.98547744750977 C 2.517722129821777 50.23996734619141 1.5 45.19812393188477 1.5 40 C 1.5 34.80187606811523 2.517722129821777 29.76003265380859 4.524899959564209 25.01452255249023 C 6.46393346786499 20.43014526367188 9.240133285522461 16.31264495849609 12.77638912200928 12.77638912200928 C 16.31264495849609 9.240133285522461 20.43014526367188 6.46393346786499 25.01452255249023 4.524899959564209 C 29.76003265380859 2.517722129821777 34.80187606811523 1.5 40 1.5 C 45.19812393188477 1.5 50.23996734619141 2.517722129821777 54.98547744750977 4.524899959564209 C 59.56985473632812 6.46393346786499 63.68735504150391 9.240133285522461 67.22360992431641 12.77638912200928 C 70.75986480712891 16.31264495849609 73.53606414794922 20.43014526367188 75.47509765625 25.01452255249023 C 77.48227691650391 29.76003265380859 78.5 34.80187606811523 78.5 40 C 78.5 45.19812393188477 77.48227691650391 50.23996734619141 75.47509765625 54.98547744750977 C 73.53606414794922 59.56985473632812 70.75986480712891 63.68735504150391 67.22360992431641 67.22360992431641 C 63.68735504150391 70.75986480712891 59.56985473632812 73.53606414794922 54.98547744750977 75.47509765625 C 50.23996734619141 77.48227691650391 45.19812393188477 78.5 40 78.5 Z" stroke="none"/>
                        <path d="M 40 3 C 35.00370788574219 3 30.15846633911133 3.977851867675781 25.59885406494141 5.906410217285156 C 21.19327926635742 7.769813537597656 17.23603820800781 10.43806457519531 13.83705139160156 13.83705139160156 C 10.43806457519531 17.23603820800781 7.769813537597656 21.19327926635742 5.906410217285156 25.59885406494141 C 3.977851867675781 30.15846633911133 3 35.00370788574219 3 40 C 3 44.99629211425781 3.977851867675781 49.84153366088867 5.906410217285156 54.40114593505859 C 7.769813537597656 58.80672073364258 10.43806457519531 62.76396179199219 13.83705139160156 66.16294860839844 C 17.23603820800781 69.56193542480469 21.19327926635742 72.23018646240234 25.59885406494141 74.09358978271484 C 30.15846633911133 76.02214813232422 35.00370788574219 77 40 77 C 44.99629211425781 77 49.84153366088867 76.02214813232422 54.40114593505859 74.09358978271484 C 58.80672073364258 72.23018646240234 62.76396179199219 69.56193542480469 66.16294860839844 66.16294860839844 C 69.56193542480469 62.76396179199219 72.23018646240234 58.80672073364258 74.09358978271484 54.40114593505859 C 76.02214813232422 49.84153366088867 77 44.99629211425781 77 40 C 77 35.00370788574219 76.02214813232422 30.15846633911133 74.09358978271484 25.59885406494141 C 72.23018646240234 21.19327926635742 69.56193542480469 17.23603820800781 66.16294860839844 13.83705139160156 C 62.76396179199219 10.43806457519531 58.80672073364258 7.769813537597656 54.40114593505859 5.906410217285156 C 49.84153366088867 3.977851867675781 44.99629211425781 3 40 3 M 40 0 C 62.09138488769531 0 80 17.90861511230469 80 40 C 80 62.09138488769531 62.09138488769531 80 40 80 C 17.90861511230469 80 0 62.09138488769531 0 40 C 0 17.90861511230469 17.90861511230469 0 40 0 Z" stroke="none" fill="#eca675"/>
                      </g>
                    </g>
                  </g>
                </g>
              </g>
            </g>
          </g>
        </g>
      </g>
    </g>
    <g id="_16_Eco_industry" data-name="16 Eco industry" transform="translate(1051 1312)">
      <path id="Trazado_1177751" data-name="Trazado 1177751" d="M56,42V34l-5.549-.462A18.859,18.859,0,0,0,48.2,28.11l3.6-4.253L46.142,18.2,41.89,21.8a18.859,18.859,0,0,0-5.427-2.25L36,14H28l-.462,5.549A18.859,18.859,0,0,0,22.11,21.8l-4.253-3.6L12.2,23.858l3.6,4.253a18.859,18.859,0,0,0-2.25,5.427L8,34v8l5.549.462A18.859,18.859,0,0,0,15.8,47.89l-3.6,4.253L17.858,57.8l4.253-3.6a18.858,18.858,0,0,0,5.427,2.25L28,62h8l.462-5.549A18.858,18.858,0,0,0,41.89,54.2l4.253,3.6L51.8,52.142,48.2,47.89a18.859,18.859,0,0,0,2.25-5.427ZM32,46a8,8,0,1,1,8-8A8,8,0,0,1,32,46Z" fill="#fbb040"/>
      <path id="Trazado_1177752" data-name="Trazado 1177752" d="M30.76,59l-.413-4.957-2.106-.508a15.863,15.863,0,0,1-4.564-1.893l-1.849-1.131-3.8,3.215-1.753-1.753,3.214-3.8-1.13-1.849a15.893,15.893,0,0,1-1.894-4.565l-.508-2.106L11,39.24V36.76l4.957-.413.508-2.106a15.893,15.893,0,0,1,1.894-4.565l1.13-1.849-3.214-3.8,1.753-1.753,3.8,3.215,1.849-1.131a15.863,15.863,0,0,1,4.564-1.893l2.106-.508L30.76,17h2.48l.413,4.957,2.106.508a15.863,15.863,0,0,1,4.564,1.893l1.849,1.131,3.8-3.215,1.753,1.753-3.214,3.8,1.13,1.849a15.893,15.893,0,0,1,1.894,4.565l.508,2.106L53,36.76v2.48l-4.957.413-.508,2.106a15.893,15.893,0,0,1-1.894,4.565l-1.13,1.849,3.214,3.8-1.753,1.753-3.8-3.215-1.849,1.131a15.863,15.863,0,0,1-4.564,1.893l-2.106.508L33.24,59ZM32,27A11,11,0,1,0,43,38,11,11,0,0,0,32,27Z" fill="#bc8430"/>
      <path id="Trazado_1177753" data-name="Trazado 1177753" d="M32,26A12,12,0,1,0,44,38,12,12,0,0,0,32,26Zm0,20a8,8,0,1,1,8-8A8,8,0,0,1,32,46Z" fill="#fbb040"/>
      <path id="Trazado_1177754" data-name="Trazado 1177754" d="M21,20C21,11.163,32,2,32,2s11,9.163,11,18S32,34,32,34,21,28.837,21,20Z" fill="#d7df23"/>
      <path id="Trazado_1177755" data-name="Trazado 1177755" d="M32,2s11,9.163,11,18S32,34,32,34Z" fill="#6a952f"/>
      <path id="Trazado_1177756" data-name="Trazado 1177756" d="M36,63H28a1,1,0,0,1-1-.917l-.4-4.843a19.719,19.719,0,0,1-4.387-1.817l-3.708,3.141a1,1,0,0,1-1.354-.056l-5.66-5.66a1,1,0,0,1-.056-1.354l3.141-3.708A19.712,19.712,0,0,1,12.761,43.4L7.917,43A1,1,0,0,1,7,42V34a1,1,0,0,1,.917-1l4.844-.4a19.712,19.712,0,0,1,1.817-4.388L11.437,24.5a1,1,0,0,1,.056-1.354l5.66-5.66a1,1,0,0,1,1.353-.057l3.18,2.69a1,1,0,1,1-1.291,1.527l-2.478-2.1-4.358,4.358,3,3.547a1,1,0,0,1,.09,1.17,17.73,17.73,0,0,0-2.13,5.141,1,1,0,0,1-.89.762L9,34.92v6.16l4.633.384a1,1,0,0,1,.89.762,17.73,17.73,0,0,0,2.13,5.141,1,1,0,0,1-.09,1.17l-3,3.547,4.357,4.358,3.548-3a1,1,0,0,1,1.17-.089,17.719,17.719,0,0,0,5.141,2.13,1,1,0,0,1,.762.89L28.921,61h6.158l.385-4.632a1,1,0,0,1,.762-.89,17.719,17.719,0,0,0,5.141-2.13,1,1,0,0,1,1.17.089l3.548,3,4.357-4.358-3-3.547a1,1,0,0,1-.09-1.17,17.73,17.73,0,0,0,2.13-5.141,1,1,0,0,1,.89-.762L55,41.08V34.92l-4.633-.384a1,1,0,0,1-.89-.762,17.73,17.73,0,0,0-2.13-5.141,1,1,0,0,1,.09-1.17l3-3.547-4.358-4.358-2.478,2.1a1,1,0,1,1-1.291-1.527l3.18-2.69a1,1,0,0,1,1.353.057l5.66,5.66a1,1,0,0,1,.056,1.354L49.418,28.22a19.712,19.712,0,0,1,1.821,4.38l4.844.4A1,1,0,0,1,57,34v8a1,1,0,0,1-.917,1l-4.844.4a19.712,19.712,0,0,1-1.817,4.388L52.563,51.5a1,1,0,0,1-.056,1.354l-5.66,5.66a1,1,0,0,1-1.354.056l-3.708-3.141A19.719,19.719,0,0,1,37.4,57.239L37,62.083A1,1,0,0,1,36,63Z"/>
      <path id="Trazado_1177757" data-name="Trazado 1177757" d="M32,47a9,9,0,0,1-4.859-16.572,1,1,0,0,1,1.078,1.685,7,7,0,1,0,7.563,0,1,1,0,1,1,1.078-1.685A9,9,0,0,1,32,47Z"/>
      <path id="Trazado_1177758" data-name="Trazado 1177758" d="M32,35a1,1,0,0,1-.425-.1C31.1,34.684,20,29.364,20,20,20,10.8,30.9,1.618,31.36,1.231a1,1,0,0,1,1.279,0C33.1,1.618,44,10.8,44,20c0,9.364-11.1,14.684-11.575,14.9A1,1,0,0,1,32,35ZM32,3.333C29.7,5.42,22,12.938,22,20c0,7.139,8.041,11.839,10,12.878C33.959,31.839,42,27.139,42,20,42,12.938,34.3,5.42,32,3.333Z"/>
      <path id="Trazado_1177759" data-name="Trazado 1177759" d="M32,39a1,1,0,0,1-1-1V12a1,1,0,0,1,2,0V38A1,1,0,0,1,32,39Z"/>
      <path id="Trazado_1177760" data-name="Trazado 1177760" d="M32,26a1,1,0,0,1-.707-.293l-5-5a1,1,0,1,1,1.414-1.414l5,5A1,1,0,0,1,32,26Z"/>
      <path id="Trazado_1177761" data-name="Trazado 1177761" d="M32,21a1,1,0,0,1-.707-1.707l5-5a1,1,0,1,1,1.414,1.414l-5,5A1,1,0,0,1,32,21Z"/>
      <path id="Trazado_1177762" data-name="Trazado 1177762" d="M32,51a13,13,0,0,1-7.962-23.281A1,1,0,1,1,25.263,29.3a11,11,0,1,0,13.475,0,1,1,0,1,1,1.225-1.582A13,13,0,0,1,32,51Z"/>
    </g>
  </g>
</svg>
