<svg xmlns="http://www.w3.org/2000/svg" xmlns:xlink="http://www.w3.org/1999/xlink" width="108" height="108" viewBox="0 0 108 108">
  <defs>
    <filter id="Trazado_904820" x="0" y="0" width="108" height="108" filterUnits="userSpaceOnUse">
      <feOffset dy="3" input="SourceAlpha"/>
      <feGaussianBlur stdDeviation="3" result="blur"/>
      <feFlood flood-opacity="0.161"/>
      <feComposite operator="in" in2="blur"/>
      <feComposite in="SourceGraphic"/>
    </filter>
  </defs>
  <g id="Grupo_1223654" data-name="Grupo 1223654" transform="translate(-200 -13115.756)">
    <g id="Grupo_1223228" data-name="Grupo 1223228" transform="translate(209 13121.756)">
      <g id="Grupo_1174741" data-name="Grupo 1174741" transform="translate(0 0)">
        <g id="Grupo_1173585" data-name="Grupo 1173585" transform="translate(0 0)">
          <g id="Grupo_1173428" data-name="Grupo 1173428">
            <g id="Grupo_1171958" data-name="Grupo 1171958">
              <g id="Grupo_1167341" data-name="Grupo 1167341">
                <g id="Grupo_1166792" data-name="Grupo 1166792">
                  <g transform="matrix(1, 0, 0, 1, -9, -6)" filter="url(#Trazado_904820)">
                    <g id="Trazado_904820-2" data-name="Trazado 904820" transform="translate(9 6)" fill="#f2f4f0">
                      <path d="M 44.99999618530273 88.50007629394531 C 39.12687301635742 88.50007629394531 33.43022155761719 87.35015106201172 28.06829643249512 85.08223724365234 C 22.88852119445801 82.89137268066406 18.23629570007324 79.75466156005859 14.24084663391113 75.75920104980469 C 10.24540901184082 71.76374816894531 7.108683586120605 67.11152648925781 4.917821407318115 61.9317512512207 C 2.649921178817749 56.5698127746582 1.499996185302734 50.87316131591797 1.499996185302734 45.00003814697266 C 1.499996185302734 39.12691497802734 2.649921178817749 33.43025207519531 4.917821407318115 28.06831359863281 C 7.108683586120605 22.8885383605957 10.24540901184082 18.23631286621094 14.24084663391113 14.24086284637451 C 18.23629570007324 10.24541282653809 22.88852119445801 7.108688354492188 28.06829643249512 4.917838096618652 C 33.43022155761719 2.649925708770752 39.12687301635742 1.500000596046448 44.99999618530273 1.500000596046448 C 50.87311935424805 1.500000596046448 56.56977081298828 2.649925708770752 61.93169784545898 4.917838096618652 C 67.11147308349609 7.108688354492188 71.76369476318359 10.24541282653809 75.75914764404297 14.24086284637451 C 79.75458526611328 18.23631286621094 82.89131164550781 22.8885383605957 85.08216857910156 28.06831359863281 C 87.35007476806641 33.43025207519531 88.5 39.12691497802734 88.5 45.00003814697266 C 88.5 50.87316131591797 87.35007476806641 56.5698127746582 85.08216857910156 61.9317512512207 C 82.89131164550781 67.11152648925781 79.75458526611328 71.76374816894531 75.75914764404297 75.75920104980469 C 71.76369476318359 79.75466156005859 67.11147308349609 82.89137268066406 61.93169784545898 85.08223724365234 C 56.56977081298828 87.35015106201172 50.87311935424805 88.50007629394531 44.99999618530273 88.50007629394531 Z" stroke="none"/>
                      <path d="M 44.99999618530273 2.999992370605469 C 39.32870864868164 2.999992370605469 33.82865142822266 4.110054016113281 28.65262603759766 6.299339294433594 C 23.65165710449219 8.414566040039062 19.15968322753906 11.44333648681641 15.301513671875 15.30152130126953 C 11.44333648681641 19.15969848632812 8.414566040039062 23.65166473388672 6.299339294433594 28.65263748168945 C 4.110054016113281 33.82868194580078 2.999992370605469 39.32873916625977 2.999992370605469 45.00003814697266 C 2.999992370605469 50.67132568359375 4.110054016113281 56.17138290405273 6.299339294433594 61.3474235534668 C 8.414566040039062 66.34841156005859 11.44333648681641 70.84036254882812 15.301513671875 74.69855499267578 C 19.15968322753906 78.55672454833984 23.65165710449219 81.58551025390625 28.65262603759766 83.70073699951172 C 33.82865142822266 85.89002227783203 39.32870864868164 87.00008392333984 44.99999618530273 87.00008392333984 C 50.67128372192383 87.00008392333984 56.17134094238281 85.89002227783203 61.34736633300781 83.70073699951172 C 66.34834289550781 81.58551025390625 70.84030914306641 78.55672454833984 74.69847869873047 74.69855499267578 C 78.55665588378906 70.84036254882812 81.58542633056641 66.34841156005859 83.70065307617188 61.3474235534668 C 85.88993835449219 56.17138290405273 87 50.67132568359375 87 45.00003814697266 C 87 39.32873916625977 85.88993835449219 33.82868194580078 83.70065307617188 28.65263748168945 C 81.58542633056641 23.65166473388672 78.55665588378906 19.15969848632812 74.69847869873047 15.30152130126953 C 70.84030914306641 11.44333648681641 66.34834289550781 8.414566040039062 61.34736633300781 6.299339294433594 C 56.17134094238281 4.110054016113281 50.67128372192383 2.999992370605469 44.99999618530273 2.999992370605469 M 44.99999618530273 -7.62939453125e-06 C 69.85281372070312 -7.62939453125e-06 90 20.14719390869141 90 45.00003814697266 C 90 69.85286712646484 69.85281372070312 90.00008392333984 44.99999618530273 90.00008392333984 C 20.14717864990234 90.00008392333984 -7.62939453125e-06 69.85286712646484 -7.62939453125e-06 45.00003814697266 C -7.62939453125e-06 20.14719390869141 20.14717864990234 -7.62939453125e-06 44.99999618530273 -7.62939453125e-06 Z" stroke="none" fill="#4a5641"/>
                    </g>
                  </g>
                </g>
              </g>
            </g>
          </g>
        </g>
      </g>
    </g>
    <g id="idea-computer-wifi-online-graduate" transform="translate(217.542 13138.596)">
      <rect id="Rectángulo_421640" data-name="Rectángulo 421640" width="29.648" height="19.184" rx="2" transform="translate(2.872 25.544)" fill="#46f8ff"/>
      <path id="Trazado_1178022" data-name="Trazado 1178022" d="M36.232,30.744v15.7a1.749,1.749,0,0,1-1.744,1.744H31a1.749,1.749,0,0,0,1.744-1.744v-15.7A1.749,1.749,0,0,0,31,29h3.488a1.749,1.749,0,0,1,1.744,1.744Z" transform="translate(-3.712 -3.456)" fill="#00e7f0"/>
      <path id="Trazado_1178023" data-name="Trazado 1178023" d="M28.184,18.592a9.249,9.249,0,0,1-4.36,7.848H13.36A9.249,9.249,0,0,1,9,18.592a9.592,9.592,0,0,1,19.184,0Z" transform="translate(-0.896 -0.896)" fill="#ffd422"/>
      <path id="Trazado_1178024" data-name="Trazado 1178024" d="M29.336,18.592a9.249,9.249,0,0,1-4.36,7.848H21.488a9.249,9.249,0,0,0,4.36-7.848A9.592,9.592,0,0,0,18,9.157a9.607,9.607,0,0,1,11.336,9.435Z" transform="translate(-2.048 -0.896)" fill="#ebbf00"/>
      <path id="Trazado_1178025" data-name="Trazado 1178025" d="M25.208,58.744v1.744H13V58.744A1.749,1.749,0,0,1,14.744,57h8.72A1.749,1.749,0,0,1,25.208,58.744Z" transform="translate(-1.408 -7.04)" fill="#898890"/>
      <path id="Trazado_1178026" data-name="Trazado 1178026" d="M26.232,58.744v1.744H22.744V58.744A1.749,1.749,0,0,0,21,57h3.488A1.749,1.749,0,0,1,26.232,58.744Z" transform="translate(-2.432 -7.04)" fill="#787680"/>
      <path id="Trazado_1178027" data-name="Trazado 1178027" d="M24.464,29v3.488H14V29H24.464Z" transform="translate(-1.536 -3.456)" fill="#c0ab91"/>
      <path id="Trazado_1178028" data-name="Trazado 1178028" d="M22.976,33v1.744a3.488,3.488,0,1,1-6.976,0V33Z" transform="translate(-1.792 -3.968)" fill="#a78966"/>
      <path id="Trazado_1178029" data-name="Trazado 1178029" d="M22,29h3.488v3.488H22Z" transform="translate(-2.56 -3.456)" fill="#a78966"/>
      <path id="Trazado_1178030" data-name="Trazado 1178030" d="M23.232,33v1.744A3.483,3.483,0,0,1,18,37.761a3.471,3.471,0,0,0,1.744-3.017V33Z" transform="translate(-2.048 -3.968)" fill="#806749"/>
      <path id="Trazado_1178031" data-name="Trazado 1178031" d="M17,51h5.232v5.232H17Z" transform="translate(-1.92 -6.272)" fill="#c6c5ca"/>
      <path id="Trazado_1178032" data-name="Trazado 1178032" d="M20,51h2.616v5.232H20Z" transform="translate(-2.304 -6.272)" fill="#acabb1"/>
      <path id="Trazado_1178051" data-name="Trazado 1178051" d="M25.671,19.16h1.744a6.986,6.986,0,0,0-2.99-5.726l-1,1.43A5.241,5.241,0,0,1,25.671,19.16Z" transform="translate(-2.743 -1.463)"/>
      <path id="Trazado_1178052" data-name="Trazado 1178052" d="M21.99,12.289A6.953,6.953,0,0,0,20,12v1.744a5.232,5.232,0,0,1,1.492.215Z" transform="translate(-2.304 -1.28)"/>
      <path id="Trazado_1178053" data-name="Trazado 1178053" d="M19,2h1.744V5.488H19Z" transform="translate(-2.176)"/>
      <path id="Trazado_1178054" data-name="Trazado 1178054" d="M0,0H1.744V3.488H0Z" transform="translate(5.98 7.215) rotate(-45)"/>
      <path id="Trazado_1178055" data-name="Trazado 1178055" d="M2,19H5.488v1.744H2Z" transform="translate(0 -2.176)"/>
      <path id="Trazado_1178056" data-name="Trazado 1178056" d="M34,19h3.488v1.744H34Z" transform="translate(-4.096 -2.176)"/>
      <path id="Trazado_1178057" data-name="Trazado 1178057" d="M0,0H3.488V1.744H0Z" transform="translate(25.709 8.449) rotate(-45)"/>
      <path id="Trazado_1178058" data-name="Trazado 1178058" d="M30.776,25.44H25.344a9.988,9.988,0,0,0,2.817-6.976,10.464,10.464,0,1,0-20.928,0,9.988,9.988,0,0,0,2.817,6.976H4.616A2.624,2.624,0,0,0,2,28.056v15.7a2.624,2.624,0,0,0,2.616,2.616h9.592v3.488h-.872a2.624,2.624,0,0,0-2.616,2.616v1.744a.872.872,0,0,0,.872.872H23.8a.872.872,0,0,0,.872-.872V52.472a2.624,2.624,0,0,0-2.616-2.616h-.872V46.368h9.592a2.624,2.624,0,0,0,2.616-2.616v-15.7a2.624,2.624,0,0,0-2.616-2.616Zm-21.8-6.976a8.72,8.72,0,1,1,17.44,0A8.38,8.38,0,0,1,22.64,25.44H18.568V20.208h2.616V18.464H14.208v1.744h2.616V25.44H12.752A8.38,8.38,0,0,1,8.976,18.464Zm4.36,10.464V27.184h8.72v1.744Zm6.976,1.744v.872a2.616,2.616,0,0,1-5.232,0v-.872ZM22.056,51.6a.872.872,0,0,1,.872.872v.872H12.464v-.872a.872.872,0,0,1,.872-.872Zm-6.1-1.744V46.368H19.44v3.488Zm15.7-6.1a.872.872,0,0,1-.872.872H4.616a.872.872,0,0,1-.872-.872v-15.7a.872.872,0,0,1,.872-.872h6.976V29.8a.872.872,0,0,0,.872.872h.872v.872a4.36,4.36,0,0,0,8.72,0v-.872h.872A.872.872,0,0,0,23.8,29.8V27.184h6.976a.872.872,0,0,1,.872.872Z" transform="translate(0 -0.768)"/>
      <g id="Grupo_1223653" data-name="Grupo 1223653" transform="translate(36.008 2.81)">
        <path id="Trazado_1178033" data-name="Trazado 1178033" d="M62.605,40.727H60.03l-3.864-2.576-6.439,2.576-1.288-2.576-3.864,2.576H42a10.321,10.321,0,0,1,3.014-7.29c.154-.154.309-.3.476-.437H59.115c.167.142.322.283.476.438A10.321,10.321,0,0,1,62.605,40.727Z" transform="translate(-36.849 -18.837)" fill="#ffcd00"/>
        <path id="Trazado_1178034" data-name="Trazado 1178034" d="M60.878,41.3H58.3L55.56,39.474a10.332,10.332,0,0,0-2.846-5.46A10.46,10.46,0,0,0,48,31.322,10.611,10.611,0,0,1,50.576,31a10.289,10.289,0,0,1,10.3,10.3Z" transform="translate(-35.122 -19.413)" fill="#ebbf00"/>
        <path id="Trazado_1178035" data-name="Trazado 1178035" d="M63.015,52V63.591H54V56.1Z" transform="translate(-33.395 -13.368)" fill="#c0ab91"/>
        <path id="Trazado_1178036" data-name="Trazado 1178036" d="M64.166,52.576l-9.015,4.1L50,59.015,52.576,50Z" transform="translate(-34.546 -13.944)" fill="#ff3051"/>
        <path id="Trazado_1178037" data-name="Trazado 1178037" d="M65.757,26.864l-5.151,1.545-7.727,2.318-7.727-2.318L40,26.864,52.878,23l6.439,1.932Z" transform="translate(-37.424 -21.715)" fill="#ff3051"/>
        <path id="Trazado_1178038" data-name="Trazado 1178038" d="M59.454,39.576v2.576a7.727,7.727,0,0,1-15.454,0V39.576L47.864,37l1.288,2.576L55.591,37Z" transform="translate(-36.273 -17.686)" fill="#ffc477"/>
        <path id="Trazado_1178039" data-name="Trazado 1178039" d="M59.454,27.2v7.469H44V27.2l7.727,2.318Z" transform="translate(-36.273 -20.506)" fill="#d43237"/>
        <path id="Trazado_1178040" data-name="Trazado 1178040" d="M55.151,55.18v7.5H50V57.524Z" transform="translate(-34.546 -12.453)" fill="#ff3051"/>
        <path id="Trazado_1178041" data-name="Trazado 1178041" d="M53.151,46.65v4.314l-2.576,9.015L48,50.964V46.65A7.584,7.584,0,0,0,53.151,46.65Z" transform="translate(-35.122 -14.908)" fill="#ffc477"/>
        <path id="Trazado_1178042" data-name="Trazado 1178042" d="M51.151,57.524v5.151H46v-7.5Z" transform="translate(-35.697 -12.453)" fill="#ff3051"/>
        <path id="Trazado_1178043" data-name="Trazado 1178043" d="M50.591,50l2.576,9.015-5.151-2.344L39,52.576Z" transform="translate(-37.712 -13.944)" fill="#ff3051"/>
        <path id="Trazado_1178044" data-name="Trazado 1178044" d="M48.015,56.1v7.5H39V52Z" transform="translate(-37.712 -13.368)" fill="#c0ab91"/>
        <path id="Trazado_1178045" data-name="Trazado 1178045" d="M62.151,52V63.591H57V54.344Z" transform="translate(-32.531 -13.368)" fill="#a78966"/>
        <path id="Trazado_1178046" data-name="Trazado 1178046" d="M63.781,52.576l-4.649,2.112L51.34,52.962,52.19,50Z" transform="translate(-34.16 -13.944)" fill="#cd2a00"/>
        <path id="Trazado_1178047" data-name="Trazado 1178047" d="M58.3,39.576v2.576a7.7,7.7,0,0,1-5.151,7.276,7.584,7.584,0,0,1-5.151,0,7.7,7.7,0,0,0,5.151-7.276V39.576L51.22,38.288,54.439,37Z" transform="translate(-35.122 -17.686)" fill="#ffa733"/>
        <path id="Trazado_1178048" data-name="Trazado 1178048" d="M63.635,26.864l-4.082,1.223L47.37,24.017,50.757,23Z" transform="translate(-35.303 -21.715)" fill="#cd2a00"/>
        <path id="Trazado_1178049" data-name="Trazado 1178049" d="M57.151,27.2v7.469H52V28.745Z" transform="translate(-33.97 -20.506)" fill="#ab2300"/>
        <path id="Trazado_1178063" data-name="Trazado 1178063" d="M67.9,59.372,57.318,57.029V54.595a9.015,9.015,0,0,0,5.151-8.126V45.18h1.288a1.288,1.288,0,0,0,1.288-1.288,11.5,11.5,0,0,0-2.653-7.379,1.052,1.052,0,0,0,.077-.348V29.649l2.576-.773V33.59H67.62V27.151a1.3,1.3,0,0,0-.914-1.236L53.828,22.051a1.468,1.468,0,0,0-.747,0L40.2,25.914a1.288,1.288,0,0,0,0,2.473l4.237,1.262v6.516a1.052,1.052,0,0,0,.077.348,11.571,11.571,0,0,0-2.653,7.379,1.288,1.288,0,0,0,1.288,1.288h1.288v1.288a9.015,9.015,0,0,0,5.151,8.126v2.434L39,59.372a1.3,1.3,0,0,0-1,1.262V72.225a1.288,1.288,0,0,0,1.288,1.288H67.62a1.288,1.288,0,0,0,1.288-1.288V60.635a1.3,1.3,0,0,0-1-1.262ZM63.577,61.06l-8.113,3.683,1.468-5.164ZM53.454,24.626l8.4,2.524-8.4,2.524-8.4-2.524Zm6.439,5.8v4.456H47.015V30.422l6.066,1.829a1.379,1.379,0,0,0,.747,0ZM44.529,42.6a8.948,8.948,0,0,1,2.55-5.087c.013-.026.039-.039.064-.064H59.765c.026.026.052.039.064.052a9.024,9.024,0,0,1,2.55,5.1h-.811l-3.542-2.357a1.252,1.252,0,0,0-1.185-.129L51.5,42.257l-.76-1.52a1.319,1.319,0,0,0-.811-.67,1.3,1.3,0,0,0-1.043.18L45.341,42.6Zm2.486,3.864v-1.88L49.088,43.2l.644,1.275a1.263,1.263,0,0,0,1.146.708,1.25,1.25,0,0,0,.476-.09l5.808-2.331,2.73,1.829v1.88a6.439,6.439,0,1,1-12.878,0Zm2.962,13.11,1.468,5.164L43.332,61.06ZM47.015,70.937H40.576V62.631l6.439,2.936Zm5.151,0H49.591V66.726L52.166,67.9Zm0-13.059v-2.5a8.1,8.1,0,0,0,2.576,0v2.5l-1.288,4.507Zm5.151,13.059H54.742V67.9l2.576-1.172Zm9.015,0H59.893v-5.37l6.439-2.936Z" transform="translate(-38 -22.002)"/>
      </g>
    </g>
  </g>
</svg>
