<svg xmlns="http://www.w3.org/2000/svg" width="400" height="456.51" viewBox="0 0 400 456.51">
  <g id="Grupo_1223230" data-name="Grupo 1223230" transform="translate(796 -3428)">
    <rect id="retrato-de-una-mujer-juez-para-el-dia-internacional-de-las-mujeres-jueces_8_" data-name="retrato-de-una-mujer-juez-para-el-dia-internacional-de-las-mujeres-jueces (8)" width="400" height="456.51" transform="translate(-796 3428)" fill="#f4f4f4"/>
    <g id="Grupo_1223231" data-name="Grupo 1223231" transform="translate(0.272 -1.991)">
      <g id="Logo" transform="translate(-836.628 3719.5)">
        <g id="Layer_2" transform="translate(36.9 25.5)">
          <g id="Grupo_1099336" data-name="Grupo 1099336" transform="translate(0 0)">
            <g id="Grupo_1099335" data-name="Grupo 1099335" transform="translate(48.457 10.797)">
              <g id="Grupo_1099333" data-name="Grupo 1099333">
                <path id="Trazado_874004" data-name="Trazado 874004" d="M200.674,78.525a9.859,9.859,0,0,0-.7-1.853c-.351-.607-.575-.767-1.821-.767h-2.236v10.86c0,1.725.192,1.98,2.3,2.108v.639H191.73v-.639c2.076-.128,2.268-.351,2.268-2.108V75.905h-2.044c-1.214,0-1.6.128-1.948.8a11.086,11.086,0,0,0-.735,1.821H188.6c.128-1.374.256-2.779.319-4.025h.511c.319.543.575.511,1.214.511h8.848a1.154,1.154,0,0,0,1.15-.511h.543c0,1.054.1,2.651.192,3.961l-.671.064Z" transform="translate(-188.6 -69.645)" fill="#e5782c"/>
                <path id="Trazado_874005" data-name="Trazado 874005" d="M245.387,86.92c-.128.575-.735,2.875-.958,3.546H233.6v-.639c2.076-.16,2.236-.351,2.236-2.172V78.839c0-1.98-.256-2.108-1.917-2.268v-.639h6.836c2.108,0,2.971,0,3.226-.032,0,.543.1,2.236.192,3.418l-.671.1a6.651,6.651,0,0,0-.671-1.693c-.351-.735-.862-.894-2.2-.894h-2.108c-.7,0-.735.064-.735.7v4.919h2.492c1.661,0,1.789-.319,2.044-1.853h.7v4.6h-.7c-.287-1.6-.479-1.821-2.076-1.821h-2.46v4.44c0,1.565.479,1.693,1.6,1.725h2.076c1.374,0,1.6-.192,2.076-.767a10.472,10.472,0,0,0,1.214-2.044l.671.192Z" transform="translate(-219.226 -70.598)" fill="#e5782c"/>
                <path id="Trazado_874006" data-name="Trazado 874006" d="M288.852,86.444a29.848,29.848,0,0,1-1.214,3.354,20.669,20.669,0,0,1-4.089.543c-5.334,0-8.049-3.546-8.049-7.443s3.45-7.7,8.465-7.7,3.482.415,4.216.511c.1.99.255,2.332.415,3.45l-.7.16c-.447-1.5-.99-2.4-2.108-2.875a6.338,6.338,0,0,0-2.332-.415c-3.673,0-5.622,2.715-5.622,6.388s2.236,7.059,5.845,7.059,3.386-1.054,4.536-3.29l.671.224Z" transform="translate(-247.742 -70.121)" fill="#e5782c"/>
                <path id="Trazado_874007" data-name="Trazado 874007" d="M338.475,76.807c-1.437.16-1.885.383-1.948,1.405,0,.7-.064,1.661-.064,3.737v8.944H335.6L326.05,79.235v5.59c0,2.012.064,3,.1,3.673.032,1.15.607,1.469,2.2,1.6v.639h-5.43v-.639c1.374-.1,1.917-.447,2.012-1.533.064-.7.1-1.725.1-3.737V79.139a1.855,1.855,0,0,0-.447-1.469c-.415-.543-.894-.7-1.98-.8v-.639h3.354l9.455,11.212V81.982c0-2.076-.032-3.035-.1-3.705-.064-.99-.575-1.31-2.364-1.437V76.2h5.526v.639Z" transform="translate(-279.797 -70.802)" fill="#e5782c"/>
                <path id="Trazado_874008" data-name="Trazado 874008" d="M385.27,75.1a7.186,7.186,0,0,1,7.219,7.379,7.482,7.482,0,0,1-7.379,7.794A7.362,7.362,0,0,1,377.7,82.83c0-4.184,2.843-7.7,7.538-7.7Zm-.447.83c-2.492,0-4.759,2.108-4.759,6.261s2.268,7.219,5.43,7.219,4.727-2.012,4.727-6.325S387.73,75.93,384.823,75.93Z" transform="translate(-317.297 -70.053)" fill="#e5782c"/>
                <path id="Trazado_874009" data-name="Trazado 874009" d="M441.5,86.9c-.128.7-.8,3-1.022,3.705H430.1v-.639c2.044-.192,2.2-.319,2.2-2.2V78.911c0-1.885-.223-2.012-2.012-2.172V76.1h5.973v.639c-1.789.192-2.044.256-2.044,2.172v9.072c0,1.374.192,1.661,1.437,1.693h1.757c1.15,0,1.469-.128,1.98-.7a8.138,8.138,0,0,0,1.373-2.3l.7.192Z" transform="translate(-352.959 -70.734)" fill="#e5782c"/>
                <path id="Trazado_874010" data-name="Trazado 874010" d="M478.67,64.347a7.187,7.187,0,0,1,7.219,7.379,7.482,7.482,0,0,1-7.379,7.794,7.362,7.362,0,0,1-7.411-7.443c0-4.184,2.843-7.7,7.538-7.7Zm-.447.83c-2.492,0-4.759,2.108-4.759,6.261s2.268,7.219,5.43,7.219,4.727-2.012,4.727-6.325S481.13,65.177,478.223,65.177Zm-.894-2.46,3.705-3.418a3.812,3.812,0,0,1,1.6,1.214v.192l-4.855,2.587-.447-.543Z" transform="translate(-380.863 -59.3)" fill="#e5782c"/>
                <path id="Trazado_874011" data-name="Trazado 874011" d="M539.766,83.92c-1.374.192-1.469.319-1.469,1.629v1.885a10.655,10.655,0,0,0,.128,2.108,22.288,22.288,0,0,1-5.079.8c-5.079,0-8.145-3.13-8.145-7.634s3.833-7.506,8.3-7.506,3.961.447,4.632.543c.032.83.16,2.172.319,3.578l-.671.128c-.543-1.885-1.182-2.715-2.587-3.162A7.092,7.092,0,0,0,533.122,76c-3.418,0-5.622,2.332-5.622,6.42s1.821,7.059,6.165,7.059,1.438-.16,1.885-.383c.479-.256.767-.511.767-1.437V85.837c0-1.629-.192-1.821-2.332-1.948v-.639h5.75v.639Z" transform="translate(-417.682 -70.121)" fill="#e5782c"/>
                <path id="Trazado_874012" data-name="Trazado 874012" d="M576.2,90.6v-.639c1.821-.192,2.012-.287,2.012-2.172V78.943c0-1.917-.192-2.012-2.012-2.2V76.1h5.973v.639c-1.853.192-2.044.287-2.044,2.2v8.848c0,1.917.192,1.98,2.044,2.172V90.6Z" transform="translate(-452.391 -70.734)" fill="#e5782c"/>
                <path id="Trazado_874013" data-name="Trazado 874013" d="M614.952,86.444a29.86,29.86,0,0,1-1.214,3.354,20.671,20.671,0,0,1-4.089.543c-5.334,0-8.049-3.546-8.049-7.443s3.45-7.7,8.465-7.7,3.482.415,4.216.511c.1.99.256,2.332.415,3.45l-.7.16c-.447-1.5-.99-2.4-2.108-2.875a6.338,6.338,0,0,0-2.332-.415c-3.673,0-5.622,2.715-5.622,6.388s2.236,7.059,5.845,7.059,3.386-1.054,4.536-3.29l.671.224Z" transform="translate(-469.678 -70.121)" fill="#e5782c"/>
                <path id="Trazado_874014" data-name="Trazado 874014" d="M656.8,89.921v-.639c1.437-.192,1.629-.415,1.31-1.246-.287-.862-.735-1.98-1.214-3.386h-4.823c-.351.99-.7,1.885-.99,2.779-.479,1.437-.192,1.629,1.661,1.853v.639H647.6v-.639c1.405-.192,1.757-.319,2.555-2.332l4.632-11.723.7-.128c1.405,3.8,2.939,8.018,4.344,11.883.7,1.949.926,2.108,2.491,2.3v.639H656.8Zm-2.236-11.883c-.7,1.917-1.469,3.961-2.14,5.718h4.184Z" transform="translate(-500.985 -70.053)" fill="#e5782c"/>
                <path id="Trazado_874015" data-name="Trazado 874015" d="M717.9,76.032c3.13,0,5.143.639,6.516,1.949A6.469,6.469,0,0,1,726.3,82.74a8.163,8.163,0,0,1-2.779,6.037c-1.693,1.278-3.865,1.757-6.612,1.757H711.7v-.639c1.917-.192,2.012-.319,2.012-2.172V78.811c0-1.917-.255-2.012-2.012-2.172V76h6.2Zm-2.268,11.531c0,1.661.7,2.14,2.4,2.14,4.025,0,6.069-2.747,6.069-6.644s-.83-4.28-2.587-5.366a7.133,7.133,0,0,0-3.8-.894c-1.469,0-1.533.128-1.757.319-.192.128-.287.383-.287,1.246v9.2Z" transform="translate(-544.61 -70.666)" fill="#e5782c"/>
                <path id="Trazado_874016" data-name="Trazado 874016" d="M775.387,86.92c-.128.575-.735,2.875-.958,3.546H763.6v-.639c2.076-.16,2.236-.351,2.236-2.172V78.839c0-1.98-.255-2.108-1.917-2.268v-.639h6.836c2.108,0,2.971,0,3.226-.032,0,.543.1,2.236.192,3.418l-.671.1a6.658,6.658,0,0,0-.671-1.693c-.351-.735-.863-.894-2.2-.894h-2.108c-.7,0-.735.064-.735.7v4.919h2.491c1.661,0,1.789-.319,2.044-1.853h.7v4.6h-.7c-.287-1.6-.479-1.821-2.076-1.821h-2.46v4.44c0,1.565.479,1.693,1.6,1.725h2.076c1.374,0,1.6-.192,2.076-.767a10.467,10.467,0,0,0,1.214-2.044l.671.192Z" transform="translate(-579.931 -70.598)" fill="#e5782c"/>
                <path id="Trazado_874017" data-name="Trazado 874017" d="M816.1,86.9c-.128.7-.8,3-1.022,3.705H804.7v-.639c2.044-.192,2.2-.319,2.2-2.2V78.911c0-1.885-.224-2.012-2.012-2.172V76.1h5.973v.639c-1.789.192-2.044.256-2.044,2.172v9.072c0,1.374.192,1.661,1.438,1.693h1.757c1.15,0,1.469-.128,1.98-.7a8.142,8.142,0,0,0,1.374-2.3l.7.192Z" transform="translate(-607.903 -70.734)" fill="#e5782c"/>
                <path id="Trazado_874018" data-name="Trazado 874018" d="M868.87,75.1a7.186,7.186,0,0,1,7.219,7.379,7.482,7.482,0,0,1-7.379,7.794A7.362,7.362,0,0,1,861.3,82.83c0-4.184,2.843-7.7,7.538-7.7Zm-.447.83c-2.492,0-4.76,2.108-4.76,6.261s2.268,7.219,5.43,7.219,4.728-2.012,4.728-6.325S871.33,75.93,868.423,75.93Z" transform="translate(-646.424 -70.053)" fill="#e5782c"/>
                <path id="Trazado_874019" data-name="Trazado 874019" d="M927.624,90.793a7.221,7.221,0,0,1-.831-.032,3.956,3.956,0,0,1-3.482-1.917c-.831-1.15-1.629-2.555-2.332-3.673-.447-.7-.735-.862-1.885-.862h-.767v3.514c0,1.885.255,2.012,2.044,2.172v.639H914.4v-.639c1.853-.192,2.012-.287,2.012-2.172V78.911c0-1.885-.255-1.948-2.012-2.172V76.1h5.686a6.211,6.211,0,0,1,3.578.767,3.326,3.326,0,0,1,1.533,2.939,4.768,4.768,0,0,1-2.875,3.833c.415.7,1.374,2.172,2.044,3.194a23.668,23.668,0,0,0,1.757,2.3,3.241,3.241,0,0,0,1.629,1.022l-.1.639Zm-8.209-7.251a3.776,3.776,0,0,0,2.46-.639,3.131,3.131,0,0,0,1.214-2.747A3,3,0,0,0,919.8,76.9c-1.693,0-1.022.1-1.182.224-.192.16-.256.383-.256.958v5.462h1.054Z" transform="translate(-682.562 -70.734)" fill="#e5782c"/>
                <path id="Trazado_874020" data-name="Trazado 874020" d="M958.6,90.6v-.639c1.821-.192,2.012-.287,2.012-2.172V78.943c0-1.917-.192-2.012-2.012-2.2V76.1h5.973v.639c-1.853.192-2.044.287-2.044,2.2v8.848c0,1.917.192,1.98,2.044,2.172V90.6Z" transform="translate(-712.644 -70.734)" fill="#e5782c"/>
                <path id="Trazado_874021" data-name="Trazado 874021" d="M995.487,86.92c-.128.575-.735,2.875-.958,3.546H983.7v-.639c2.076-.16,2.236-.351,2.236-2.172V78.839c0-1.98-.255-2.108-1.917-2.268v-.639h6.836c2.108,0,2.971,0,3.226-.032,0,.543.1,2.236.192,3.418l-.671.1a6.658,6.658,0,0,0-.671-1.693c-.351-.735-.863-.894-2.2-.894h-2.108c-.7,0-.735.064-.735.7v4.919h2.491c1.661,0,1.789-.319,2.044-1.853h.7v4.6h-.7c-.287-1.6-.479-1.821-2.076-1.821h-2.46v4.44c0,1.565.479,1.693,1.6,1.725h2.076c1.374,0,1.6-.192,2.076-.767a10.479,10.479,0,0,0,1.214-2.044l.671.192Z" transform="translate(-729.726 -70.598)" fill="#e5782c"/>
                <path id="Trazado_874022" data-name="Trazado 874022" d="M1039.975,76.807c-1.437.16-1.885.383-1.948,1.405,0,.7-.064,1.661-.064,3.737v8.944h-.863l-9.551-11.659v5.59c0,2.012.064,3,.1,3.673.032,1.15.607,1.469,2.2,1.6v.639h-5.43v-.639c1.374-.1,1.916-.447,2.012-1.533.064-.7.1-1.725.1-3.737V79.139a1.855,1.855,0,0,0-.447-1.469c-.415-.543-.894-.7-1.98-.8v-.639h3.354l9.455,11.212V81.982c0-2.076-.032-3.035-.1-3.705-.064-.99-.575-1.31-2.364-1.437V76.2h5.526v.639Z" transform="translate(-757.222 -70.802)" fill="#e5782c"/>
                <path id="Trazado_874023" data-name="Trazado 874023" d="M1090.974,78.525a9.874,9.874,0,0,0-.7-1.853c-.352-.607-.575-.767-1.821-.767h-2.236v10.86c0,1.725.192,1.98,2.3,2.108v.639h-6.484v-.639c2.076-.128,2.268-.351,2.268-2.108V75.905h-2.044c-1.214,0-1.6.128-1.948.8a11.117,11.117,0,0,0-.735,1.821h-.671c.128-1.374.255-2.779.319-4.025h.511c.32.543.575.511,1.214.511h8.848a1.154,1.154,0,0,0,1.15-.511h.543c0,1.054.1,2.651.192,3.961l-.671.064Z" transform="translate(-794.517 -69.645)" fill="#e5782c"/>
                <path id="Trazado_874024" data-name="Trazado 874024" d="M1135.587,86.92c-.128.575-.735,2.875-.958,3.546H1123.8v-.639c2.076-.16,2.236-.351,2.236-2.172V78.839c0-1.98-.256-2.108-1.917-2.268v-.639h6.836c2.108,0,2.97,0,3.226-.032,0,.543.1,2.236.192,3.418l-.671.1a6.657,6.657,0,0,0-.671-1.693c-.351-.735-.862-.894-2.2-.894h-2.108c-.7,0-.735.064-.735.7v4.919h2.492c1.661,0,1.789-.319,2.044-1.853h.7v4.6h-.7c-.287-1.6-.479-1.821-2.076-1.821h-2.46v4.44c0,1.565.479,1.693,1.6,1.725h2.076c1.373,0,1.6-.192,2.076-.767a10.48,10.48,0,0,0,1.214-2.044l.671.192Z" transform="translate(-825.075 -70.598)" fill="#e5782c"/>
              </g>
              <g id="Grupo_1099334" data-name="Grupo 1099334" transform="translate(25.203 25.682)">
                <path id="Trazado_874025" data-name="Trazado 874025" d="M268.874,147.3V158H267.5V147.3Z" transform="translate(-267.5 -144.872)"/>
                <path id="Trazado_874026" data-name="Trazado 874026" d="M279.264,158V147.3h1.5l3.418,5.4a27.658,27.658,0,0,1,1.917,3.482h0c-.128-1.437-.16-2.747-.16-4.408V147.3h1.31V158h-1.405l-3.386-5.43a33.641,33.641,0,0,1-2.012-3.578h-.032c.064,1.374.1,2.651.1,4.408v4.568H279.2Z" transform="translate(-275.463 -144.872)"/>
                <path id="Trazado_874027" data-name="Trazado 874027" d="M310.651,155.9a4.849,4.849,0,0,0,2.46.7c1.406,0,2.236-.735,2.236-1.821s-.575-1.565-2.012-2.14c-1.757-.607-2.811-1.533-2.811-3.035a3.174,3.174,0,0,1,3.45-2.907c2.076,0,1.885.256,2.364.511l-.383,1.118a4.231,4.231,0,0,0-2.044-.511c-1.469,0-2.012.862-2.012,1.6s.639,1.5,2.14,2.076c1.821.7,2.715,1.565,2.715,3.13s-1.214,3.066-3.737,3.066-2.172-.287-2.715-.671l.351-1.15Z" transform="translate(-296.629 -144.464)"/>
                <path id="Trazado_874028" data-name="Trazado 874028" d="M335.958,148.482H332.7V147.3h7.922v1.182h-3.258V158h-1.405Z" transform="translate(-311.873 -144.872)"/>
                <path id="Trazado_874029" data-name="Trazado 874029" d="M362.573,147.3V158H361.2V147.3Z" transform="translate(-331.27 -144.872)"/>
                <path id="Trazado_874030" data-name="Trazado 874030" d="M372.458,148.482H369.2V147.3h7.922v1.182h-3.258V158h-1.406Z" transform="translate(-336.715 -144.872)"/>
                <path id="Trazado_874031" data-name="Trazado 874031" d="M399.005,147.3v6.325c0,2.4,1.054,3.418,2.492,3.418s2.587-1.054,2.587-3.418V147.3h1.406v6.229c0,3.29-1.725,4.632-4.057,4.632s-3.833-1.246-3.833-4.568V147.3Z" transform="translate(-356.043 -144.872)"/>
                <path id="Trazado_874032" data-name="Trazado 874032" d="M435.981,157.309a6.838,6.838,0,0,1-2.811.511,5,5,0,0,1-5.27-5.4,5.257,5.257,0,0,1,5.59-5.622c3.322,0,2.172.288,2.523.479l-.319,1.118a5.008,5.008,0,0,0-2.172-.447c-2.491,0-4.184,1.6-4.184,4.408s1.5,4.312,4.121,4.312,1.693-.16,2.236-.447Z" transform="translate(-376.664 -144.532)"/>
                <path id="Trazado_874033" data-name="Trazado 874033" d="M459.974,147.3V158H458.6V147.3Z" transform="translate(-397.558 -144.872)"/>
                <path id="Trazado_874034" data-name="Trazado 874034" d="M478.342,147.366c0,3.673-2.236,5.622-4.951,5.622s-4.791-2.172-4.791-5.43,2.108-5.622,4.951-5.622,4.791,2.236,4.791,5.4Zm-8.3.192c0,2.268,1.246,4.344,3.418,4.344s3.418-2.012,3.418-4.44-1.118-4.344-3.418-4.344S470.037,145.226,470.037,147.558Zm5.718-7.858-2.012,1.853h-1.15l1.469-1.853Z" transform="translate(-404.364 -139.7)"/>
                <path id="Trazado_874035" data-name="Trazado 874035" d="M504.564,158V147.3h1.5l3.418,5.4a27.65,27.65,0,0,1,1.917,3.482h0c-.128-1.437-.16-2.747-.16-4.408V147.3h1.31V158h-1.405l-3.386-5.43a33.631,33.631,0,0,1-2.012-3.578h-.032c.064,1.374.1,2.651.1,4.408v4.568H504.5Z" transform="translate(-428.797 -144.872)"/>
                <path id="Trazado_874036" data-name="Trazado 874036" d="M547.9,147.324a19.675,19.675,0,0,1,2.939-.224,6.1,6.1,0,0,1,4.344,1.342,4.878,4.878,0,0,1,1.5,3.833,5.724,5.724,0,0,1-1.533,4.153,6.615,6.615,0,0,1-4.727,1.533,10.228,10.228,0,0,1-2.491-.128V147.324Zm1.373,9.455a9.019,9.019,0,0,0,1.406.064c2.939,0,4.536-1.661,4.536-4.536,0-2.523-1.406-4.121-4.344-4.121s-1.246.064-1.629.128v8.433Z" transform="translate(-458.334 -144.736)"/>
                <path id="Trazado_874037" data-name="Trazado 874037" d="M586.426,152.986h-4.152v3.865h4.632V158H580.9V147.3h5.781v1.15h-4.376v3.386h4.152v1.15Z" transform="translate(-480.793 -144.872)"/>
                <path id="Trazado_874038" data-name="Trazado 874038" d="M621.426,152.986h-4.153v3.865h4.632V158H615.9V147.3h5.782v1.15h-4.376v3.386h4.152v1.15Z" transform="translate(-504.613 -144.872)"/>
                <path id="Trazado_874039" data-name="Trazado 874039" d="M640.3,147.324a19.677,19.677,0,0,1,2.939-.224,6.1,6.1,0,0,1,4.344,1.342,4.878,4.878,0,0,1,1.5,3.833,5.723,5.723,0,0,1-1.533,4.153,6.615,6.615,0,0,1-4.728,1.533,10.229,10.229,0,0,1-2.491-.128V147.324Zm1.374,9.455a9.016,9.016,0,0,0,1.405.064c2.939,0,4.536-1.661,4.536-4.536,0-2.523-1.405-4.121-4.344-4.121s-1.246.064-1.629.128v8.433Z" transform="translate(-521.219 -144.736)"/>
                <path id="Trazado_874040" data-name="Trazado 874040" d="M674.705,147.3v6.325c0,2.4,1.054,3.418,2.492,3.418s2.587-1.054,2.587-3.418V147.3h1.406v6.229c0,3.29-1.725,4.632-4.057,4.632s-3.833-1.246-3.833-4.568V147.3Z" transform="translate(-543.678 -144.872)"/>
                <path id="Trazado_874041" data-name="Trazado 874041" d="M711.581,157.309a6.837,6.837,0,0,1-2.811.511,5,5,0,0,1-5.271-5.4,5.257,5.257,0,0,1,5.59-5.622c3.322,0,2.172.288,2.523.479l-.319,1.118a5.007,5.007,0,0,0-2.172-.447c-2.492,0-4.185,1.6-4.185,4.408s1.5,4.312,4.121,4.312,1.693-.16,2.236-.447Z" transform="translate(-564.231 -144.532)"/>
                <path id="Trazado_874042" data-name="Trazado 874042" d="M734.455,154.647,733.337,158H731.9l3.641-10.7H737.2l3.641,10.7h-1.469l-1.15-3.354h-3.8Zm3.482-1.086-1.054-3.066c-.224-.7-.383-1.342-.543-1.948h0c-.16.639-.319,1.278-.543,1.948l-1.054,3.1h3.226Z" transform="translate(-583.56 -144.872)"/>
                <path id="Trazado_874043" data-name="Trazado 874043" d="M770.281,157.309a6.838,6.838,0,0,1-2.811.511,5,5,0,0,1-5.271-5.4,5.257,5.257,0,0,1,5.59-5.622c3.322,0,2.172.288,2.524.479l-.319,1.118a5.008,5.008,0,0,0-2.172-.447c-2.491,0-4.184,1.6-4.184,4.408s1.5,4.312,4.121,4.312,1.693-.16,2.236-.447l.287,1.086Z" transform="translate(-604.181 -144.532)"/>
                <path id="Trazado_874044" data-name="Trazado 874044" d="M794.274,147.3V158H792.9V147.3Z" transform="translate(-625.075 -144.872)"/>
                <path id="Trazado_874045" data-name="Trazado 874045" d="M812.542,147.366c0,3.673-2.236,5.622-4.951,5.622s-4.791-2.172-4.791-5.43,2.108-5.622,4.951-5.622,4.791,2.236,4.791,5.4Zm-8.273.192c0,2.268,1.246,4.344,3.418,4.344s3.418-2.012,3.418-4.44-1.118-4.344-3.418-4.344S804.269,145.226,804.269,147.558Zm5.718-7.858-2.012,1.853h-1.15l1.469-1.853Z" transform="translate(-631.813 -139.7)"/>
                <path id="Trazado_874046" data-name="Trazado 874046" d="M838.764,158V147.3h1.5l3.418,5.4a27.634,27.634,0,0,1,1.917,3.482h0c-.128-1.437-.16-2.747-.16-4.408V147.3h1.31V158h-1.405l-3.386-5.43a33.661,33.661,0,0,1-2.012-3.578h-.032c.064,1.374.1,2.651.1,4.408v4.568H838.7Z" transform="translate(-656.245 -144.872)"/>
                <path id="Trazado_874047" data-name="Trazado 874047" d="M880.751,155.9a4.849,4.849,0,0,0,2.459.7c1.406,0,2.236-.735,2.236-1.821s-.575-1.565-2.012-2.14c-1.757-.607-2.811-1.533-2.811-3.035a3.174,3.174,0,0,1,3.45-2.907c2.076,0,1.885.256,2.364.511l-.383,1.118a4.231,4.231,0,0,0-2.044-.511c-1.469,0-2.012.862-2.012,1.6s.639,1.5,2.14,2.076c1.821.7,2.715,1.565,2.715,3.13s-1.214,3.066-3.737,3.066-2.172-.287-2.715-.671l.351-1.15Z" transform="translate(-684.625 -144.464)"/>
                <path id="Trazado_874048" data-name="Trazado 874048" d="M907.905,147.3v6.325c0,2.4,1.054,3.418,2.491,3.418s2.587-1.054,2.587-3.418V147.3h1.405v6.229c0,3.29-1.725,4.632-4.057,4.632s-3.833-1.246-3.833-4.568V147.3Z" transform="translate(-702.388 -144.872)"/>
                <path id="Trazado_874049" data-name="Trazado 874049" d="M938.7,147.292a18.169,18.169,0,0,1,2.651-.192,4.863,4.863,0,0,1,3,.894,2.9,2.9,0,0,1,.926,2.236,3.09,3.09,0,0,1-.831,2.268,4.472,4.472,0,0,1-3.258,1.182c-1.342,0-.8,0-1.118-.1v4.28H938.7V147.292Zm1.374,5.175a5.511,5.511,0,0,0,1.15.1c1.661,0,2.683-.8,2.683-2.268s-.99-2.108-2.523-2.108-1.054.032-1.31.1v4.184Z" transform="translate(-724.303 -144.736)"/>
                <path id="Trazado_874050" data-name="Trazado 874050" d="M970.626,152.986h-4.152v3.865H971.1V158H965.1V147.3h5.782v1.15h-4.376v3.386h4.152v1.15Z" transform="translate(-742.27 -144.872)"/>
                <path id="Trazado_874051" data-name="Trazado 874051" d="M989.5,147.324a15.812,15.812,0,0,1,2.651-.224,4.386,4.386,0,0,1,3.1.862,2.67,2.67,0,0,1,.83,2.044,2.807,2.807,0,0,1-2.012,2.715h0a2.773,2.773,0,0,1,1.565,2.2,16.786,16.786,0,0,0,.831,2.939h-1.437a13.683,13.683,0,0,1-.7-2.555c-.319-1.469-.894-2.044-2.14-2.076h-1.31v4.632H989.5Zm1.374,4.855h1.405c1.47,0,2.4-.8,2.4-2.044s-.99-1.98-2.46-2.012a5.717,5.717,0,0,0-1.374.128v3.9Z" transform="translate(-758.876 -144.736)"/>
                <path id="Trazado_874052" data-name="Trazado 874052" d="M1017.673,147.3V158H1016.3V147.3Z" transform="translate(-777.116 -144.872)"/>
                <path id="Trazado_874053" data-name="Trazado 874053" d="M1035.942,152.13c0,3.673-2.236,5.622-4.951,5.622s-4.791-2.172-4.791-5.43,2.108-5.622,4.951-5.622,4.791,2.236,4.791,5.4Zm-8.305.192c0,2.268,1.246,4.344,3.418,4.344s3.418-2.012,3.418-4.44-1.118-4.344-3.418-4.344S1027.637,149.99,1027.637,152.322Z" transform="translate(-783.853 -144.464)"/>
                <path id="Trazado_874054" data-name="Trazado 874054" d="M1062.3,147.324a15.812,15.812,0,0,1,2.651-.224,4.385,4.385,0,0,1,3.1.862,2.669,2.669,0,0,1,.831,2.044,2.807,2.807,0,0,1-2.012,2.715h0a2.773,2.773,0,0,1,1.565,2.2,16.8,16.8,0,0,0,.831,2.939h-1.437a13.71,13.71,0,0,1-.7-2.555c-.319-1.469-.894-2.044-2.14-2.076h-1.31v4.632H1062.3Zm1.373,4.855h1.406c1.469,0,2.4-.8,2.4-2.044s-.99-1.98-2.459-2.012a5.717,5.717,0,0,0-1.374.128v3.9Z" transform="translate(-808.422 -144.736)"/>
              </g>
            </g>
          </g>
        </g>
      </g>
      <g id="Grupo_1223230-2" data-name="Grupo 1223230" transform="translate(-659.123 3521.991)">
        <circle id="Elipse_11488" data-name="Elipse 11488" cx="20.934" cy="20.934" r="20.934" transform="translate(42.189 42.189)" fill="#219248"/>
        <path id="Trazado_874002" data-name="Trazado 874002" d="M100.023,25.5a63.123,63.123,0,1,0,63.123,63.123A63.178,63.178,0,0,0,100.023,25.5Zm0,116.313a53.19,53.19,0,1,1,53.19-53.19A53.2,53.2,0,0,1,100.023,141.813Z" transform="translate(-36.9 -25.5)" fill="#0b0b0c"/>
        <path id="Trazado_874003" data-name="Trazado 874003" d="M162.926,117.107v51.588a53.2,53.2,0,0,1-53.19,53.19H90.19A53.2,53.2,0,0,1,37,168.695V117.107h2.136A67.878,67.878,0,0,0,79.082,152.14V170.3a7.042,7.042,0,0,0,7.049,7.049H113.9a6.952,6.952,0,0,0,6.942-7.049V152.14A67.609,67.609,0,0,0,161.11,117h1.816Z" transform="translate(-36.893 -19.272)" fill="#e5782c"/>
      </g>
    </g>
  </g>
</svg>
