<svg xmlns="http://www.w3.org/2000/svg" xmlns:xlink="http://www.w3.org/1999/xlink" width="118" height="118" viewBox="0 0 118 118">
  <defs>
    <filter id="Trazado_982547" x="0" y="0" width="118" height="118" filterUnits="userSpaceOnUse">
      <feOffset dy="3" input="SourceAlpha"/>
      <feGaussianBlur stdDeviation="3" result="blur"/>
      <feFlood flood-opacity="0.161"/>
      <feComposite operator="in" in2="blur"/>
      <feComposite in="SourceGraphic"/>
    </filter>
  </defs>
  <g id="Grupo_1223906" data-name="Grupo 1223906" transform="translate(-1213.5 -2554.632)">
    <g id="Grupo_1223905" data-name="Grupo 1223905">
      <g id="Grupo_1223752" data-name="Grupo 1223752" transform="translate(0 -6350.413)">
        <g id="Grupo_1223202" data-name="Grupo 1223202" transform="translate(1222.5 8911.045)">
          <g id="Grupo_1211216" data-name="Grupo 1211216" transform="translate(0)">
            <g id="Grupo_1210737" data-name="Grupo 1210737">
              <g id="Grupo_1210537" data-name="Grupo 1210537">
                <g id="Grupo_1164202" data-name="Grupo 1164202">
                  <g id="Grupo_1158168" data-name="Grupo 1158168">
                    <g id="Grupo_1152576" data-name="Grupo 1152576">
                      <g id="Grupo_1148633" data-name="Grupo 1148633">
                        <g id="Grupo_1148525" data-name="Grupo 1148525">
                          <g transform="matrix(1, 0, 0, 1, -9, -6)" filter="url(#Trazado_982547)">
                            <g id="Trazado_982547-2" data-name="Trazado 982547" transform="translate(9 6)" fill="#fcf5f0">
                              <path d="M 49.99999618530273 98.5 C 43.45188140869141 98.5 37.10042572021484 97.21786499023438 31.12206840515137 94.68923950195312 C 25.34691047668457 92.24655151367188 20.15996742248535 88.74931335449219 15.70532512664795 84.29468536376953 C 11.25068187713623 79.84004211425781 7.753438949584961 74.65309906005859 5.310753345489502 68.87792205810547 C 2.782124757766724 62.89956665039062 1.499996185302734 56.54811096191406 1.499996185302734 49.99999618530273 C 1.499996185302734 43.45188140869141 2.782124757766724 37.10042572021484 5.310753345489502 31.12206840515137 C 7.753438949584961 25.34691047668457 11.25068187713623 20.15996742248535 15.70532512664795 15.70532512664795 C 20.15996742248535 11.25068187713623 25.34691047668457 7.753438949584961 31.12206840515137 5.310753345489502 C 37.10042572021484 2.782124757766724 43.45188140869141 1.499996185302734 49.99999618530273 1.499996185302734 C 56.54811096191406 1.499996185302734 62.89956665039062 2.782124757766724 68.87792205810547 5.310753345489502 C 74.65309906005859 7.753438949584961 79.84004211425781 11.25068187713623 84.29468536376953 15.70532512664795 C 88.74931335449219 20.15996742248535 92.24655151367188 25.34691047668457 94.68923950195312 31.12206840515137 C 97.21786499023438 37.10042572021484 98.5 43.45188140869141 98.5 49.99999618530273 C 98.5 56.54811096191406 97.21786499023438 62.89956665039062 94.68923950195312 68.87792205810547 C 92.24655151367188 74.65309906005859 88.74931335449219 79.84004211425781 84.29468536376953 84.29468536376953 C 79.84004211425781 88.74931335449219 74.65309906005859 92.24655151367188 68.87792205810547 94.68923950195312 C 62.89956665039062 97.21786499023438 56.54811096191406 98.5 49.99999618530273 98.5 Z" stroke="none"/>
                              <path d="M 49.99999618530273 2.999992370605469 C 43.65372085571289 2.999992370605469 37.49885940551758 4.242256164550781 31.70639801025391 6.6922607421875 C 26.11002349853516 9.059318542480469 21.08335113525391 12.4486083984375 16.76598358154297 16.76598358154297 C 12.4486083984375 21.08335113525391 9.059318542480469 26.11002349853516 6.6922607421875 31.70639801025391 C 4.242256164550781 37.49885940551758 2.999992370605469 43.65372085571289 2.999992370605469 49.99999618530273 C 2.999992370605469 56.34627151489258 4.242256164550781 62.50113296508789 6.6922607421875 68.29359436035156 C 9.059318542480469 73.88996887207031 12.4486083984375 78.91664123535156 16.76598358154297 83.2340087890625 C 21.08335113525391 87.55138397216797 26.11002349853516 90.940673828125 31.70639801025391 93.30773162841797 C 37.49885940551758 95.75773620605469 43.65372085571289 97 49.99999618530273 97 C 56.34627151489258 97 62.50113296508789 95.75773620605469 68.29359436035156 93.30773162841797 C 73.88996887207031 90.940673828125 78.91664123535156 87.55138397216797 83.2340087890625 83.2340087890625 C 87.55138397216797 78.91664123535156 90.940673828125 73.88996887207031 93.30773162841797 68.29359436035156 C 95.75773620605469 62.50113296508789 97 56.34627151489258 97 49.99999618530273 C 97 43.65372085571289 95.75773620605469 37.49885940551758 93.30773162841797 31.70639801025391 C 90.940673828125 26.11002349853516 87.55138397216797 21.08335113525391 83.2340087890625 16.76598358154297 C 78.91664123535156 12.4486083984375 73.88996887207031 9.059318542480469 68.29359436035156 6.6922607421875 C 62.50113296508789 4.242256164550781 56.34627151489258 2.999992370605469 49.99999618530273 2.999992370605469 M 49.99999618530273 -7.62939453125e-06 C 77.61422729492188 -7.62939453125e-06 100 22.38576507568359 100 49.99999618530273 C 100 77.61422729492188 77.61422729492188 100 49.99999618530273 100 C 22.38576507568359 100 -7.62939453125e-06 77.61422729492188 -7.62939453125e-06 49.99999618530273 C -7.62939453125e-06 22.38576507568359 22.38576507568359 -7.62939453125e-06 49.99999618530273 -7.62939453125e-06 Z" stroke="none" fill="#eca675"/>
                            </g>
                          </g>
                        </g>
                      </g>
                    </g>
                  </g>
                </g>
              </g>
            </g>
          </g>
        </g>
      </g>
      <g id="compensation_5491844" transform="translate(1240.93 2578.93)">
        <g id="Grupo_1223903" data-name="Grupo 1223903" transform="translate(1.035 7.242)">
          <g id="Grupo_1223886" data-name="Grupo 1223886" transform="translate(47.588 42.415)">
            <path id="Trazado_1179195" data-name="Trazado 1179195" d="M53.207,48h4.138a6.216,6.216,0,0,1-6.207,6.207H47A6.216,6.216,0,0,1,53.207,48Z" transform="translate(-47 -48)" fill="#b4dd7f"/>
          </g>
          <g id="Grupo_1223887" data-name="Grupo 1223887" transform="translate(39.312 49.657)">
            <path id="Trazado_1179196" data-name="Trazado 1179196" d="M47.276,60.173v1.035h-3.1A5.174,5.174,0,0,1,39,56.035V55h3.1A5.174,5.174,0,0,1,47.276,60.173Z" transform="translate(-39 -55)" fill="#b4dd7f"/>
          </g>
          <g id="Grupo_1223888" data-name="Grupo 1223888" transform="translate(33.105 30.001)">
            <path id="Trazado_1179197" data-name="Trazado 1179197" d="M47.483,44.276H41.276A8.274,8.274,0,0,1,33,36h6.207A8.274,8.274,0,0,1,47.483,44.276Z" transform="translate(-33 -36)" fill="#b4dd7f"/>
          </g>
          <g id="Grupo_1223889" data-name="Grupo 1223889" transform="translate(47.588 30.001)">
            <path id="Trazado_1179198" data-name="Trazado 1179198" d="M55.276,36h6.207a8.274,8.274,0,0,1-8.276,8.276H47A8.274,8.274,0,0,1,55.276,36Z" transform="translate(-47 -36)" fill="#b4dd7f"/>
          </g>
          <g id="Grupo_1223890" data-name="Grupo 1223890" transform="translate(47.588 15.518)">
            <path id="Trazado_1179199" data-name="Trazado 1179199" d="M53.207,22h4.138a6.216,6.216,0,0,1-6.207,6.207H47A6.216,6.216,0,0,1,53.207,22Z" transform="translate(-47 -22)" fill="#b4dd7f"/>
          </g>
          <g id="Grupo_1223891" data-name="Grupo 1223891" transform="translate(36.208 19.656)">
            <path id="Trazado_1179200" data-name="Trazado 1179200" d="M46.345,32.207H42.207A6.216,6.216,0,0,1,36,26h4.138a6.216,6.216,0,0,1,6.207,6.207Z" transform="translate(-36 -26)" fill="#b4dd7f"/>
          </g>
          <g id="Grupo_1223892" data-name="Grupo 1223892" transform="translate(3.104)">
            <path id="Trazado_1179201" data-name="Trazado 1179201" d="M13.249,17.956h-.01A12.451,12.451,0,0,0,8.831,20.79l-.693.693H7.1a3.021,3.021,0,0,0-2.038.776A9.049,9.049,0,0,1,4,17.987,10.985,10.985,0,0,1,14.987,7H21.37a6.19,6.19,0,0,1,5.162,2.762l.228.341a6.216,6.216,0,0,1,6.207,6.207v1.966A9.119,9.119,0,0,1,32,22.352a3.044,3.044,0,0,0-2.141-.869H28.828l-.693-.693a12.451,12.451,0,0,0-4.407-2.835h-.01a3.064,3.064,0,0,1-1.3,1.945l-.828.548-3.1-3.1-3.1,3.1-.828-.548a3.064,3.064,0,0,1-1.3-1.945Z" transform="translate(-4 -7)" fill="#656d78"/>
          </g>
          <g id="Grupo_1223893" data-name="Grupo 1223893" transform="translate(0 34.139)">
            <path id="Trazado_1179202" data-name="Trazado 1179202" d="M26.553,40.879,22.725,40l-4.138,3.1L14.449,40l-3.828.879A12.428,12.428,0,0,0,1,52.983v2.535a6.212,6.212,0,0,0,6.207,6.207h4.138a3.1,3.1,0,0,1-3.1-3.1V56.552a3.1,3.1,0,0,1,3.1-3.1H12.38a1.038,1.038,0,0,1-1.035-1.035V50.345a1.038,1.038,0,0,1,1.035-1.035,1.038,1.038,0,0,1-1.035-1.035V46.207a1.038,1.038,0,0,1,1.035-1.035H24.794a1.038,1.038,0,0,1,1.035,1.035v2.069a1.038,1.038,0,0,1-1.035,1.035,1.038,1.038,0,0,1,1.035,1.035v2.069a1.038,1.038,0,0,1-1.035,1.035h1.035a3.1,3.1,0,0,1,3.1,3.1v2.069a3.1,3.1,0,0,1-3.1,3.1h4.138a6.212,6.212,0,0,0,6.207-6.207V52.983A12.428,12.428,0,0,0,26.553,40.879Z" transform="translate(-1 -40)" fill="#e6e9ed"/>
          </g>
          <g id="Grupo_1223894" data-name="Grupo 1223894" transform="translate(11.38 51.726)">
            <path id="Trazado_1179203" data-name="Trazado 1179203" d="M24.414,61.138H12a2.075,2.075,0,0,0,2.069-2.069V57h8.276v2.069A2.075,2.075,0,0,0,24.414,61.138Z" transform="translate(-12 -57)" fill="#ffc729"/>
          </g>
          <g id="Grupo_1223895" data-name="Grupo 1223895" transform="translate(10.345 43.45)">
            <path id="Trazado_1179204" data-name="Trazado 1179204" d="M25.483,50.035V52.1a1.038,1.038,0,0,1-1.035,1.035H12.035A1.038,1.038,0,0,1,11,52.1V50.035A1.038,1.038,0,0,1,12.035,49H24.449A1.038,1.038,0,0,1,25.483,50.035Z" transform="translate(-11 -49)" fill="#ffc729"/>
          </g>
          <g id="Grupo_1223896" data-name="Grupo 1223896" transform="translate(11.38 47.588)">
            <path id="Trazado_1179205" data-name="Trazado 1179205" d="M14.069,55.069A2.075,2.075,0,0,0,12,53H24.414a2.075,2.075,0,0,0-2.069,2.069v2.069H14.069Z" transform="translate(-12 -53)" fill="#fcd770"/>
          </g>
          <g id="Grupo_1223897" data-name="Grupo 1223897" transform="translate(10.345 39.312)">
            <path id="Trazado_1179206" data-name="Trazado 1179206" d="M25.483,46.035V48.1a1.038,1.038,0,0,1-1.035,1.035H12.035A1.038,1.038,0,0,1,11,48.1V46.035A1.038,1.038,0,0,1,12.035,45H24.449A1.038,1.038,0,0,1,25.483,46.035Z" transform="translate(-11 -45)" fill="#fcd770"/>
          </g>
          <g id="Grupo_1223898" data-name="Grupo 1223898" transform="translate(21.725 47.588)">
            <path id="Trazado_1179207" data-name="Trazado 1179207" d="M28.207,56.1v2.069a3.1,3.1,0,0,1-3.1,3.1H24.069A2.075,2.075,0,0,1,22,59.207V55.069A2.075,2.075,0,0,1,24.069,53H25.1A3.1,3.1,0,0,1,28.207,56.1Z" transform="translate(-22 -53)" fill="#f0d0b4"/>
          </g>
          <g id="Grupo_1223899" data-name="Grupo 1223899" transform="translate(7.242 47.588)">
            <path id="Trazado_1179208" data-name="Trazado 1179208" d="M8,58.173V56.1A3.1,3.1,0,0,1,11.1,53h1.035a2.075,2.075,0,0,1,2.069,2.069v4.138a2.075,2.075,0,0,1-2.069,2.069H11.1A3.1,3.1,0,0,1,8,58.173Z" transform="translate(-8 -53)" fill="#f0d0b4"/>
          </g>
          <g id="Grupo_1223900" data-name="Grupo 1223900" transform="translate(27.932 14.483)">
            <path id="Trazado_1179209" data-name="Trazado 1179209" d="M31.228,21.91a3.1,3.1,0,0,1-2.193,5.3H28V21h1.035a3.044,3.044,0,0,1,2.141.869.182.182,0,0,1,.052.041Z" transform="translate(-28 -21)" fill="#f0d0b4"/>
          </g>
          <g id="Grupo_1223901" data-name="Grupo 1223901" transform="translate(7.242 10.345)">
            <path id="Trazado_1179210" data-name="Trazado 1179210" d="M28.69,27.345v1.49a9.319,9.319,0,0,1-5.152,8.328l-.486.238a1.038,1.038,0,0,0-.569.931v2.462l-4.138,3.1-4.138-3.1V38.332a1.038,1.038,0,0,0-.569-.931l-.486-.238A9.319,9.319,0,0,1,8,28.835v-7.7l.693-.693A12.451,12.451,0,0,1,13.1,17.61h.01a3.064,3.064,0,0,0,1.3,1.945l.828.548,3.1-3.1,3.1,3.1.828-.548a3.065,3.065,0,0,0,1.3-1.945h.01A12.451,12.451,0,0,1,28,20.445l.693.693Z" transform="translate(-8 -17)" fill="#f0d0b4"/>
          </g>
          <g id="Grupo_1223902" data-name="Grupo 1223902" transform="translate(3.104 14.483)">
            <path id="Trazado_1179211" data-name="Trazado 1179211" d="M8.138,21v6.207H7.1a3.1,3.1,0,0,1-2.193-5.3,1.8,1.8,0,0,1,.155-.134A3.021,3.021,0,0,1,7.1,21Z" transform="translate(-4 -21)" fill="#f0d0b4"/>
          </g>
        </g>
        <g id="Grupo_1223904" data-name="Grupo 1223904" transform="translate(0)">
          <circle id="Elipse_14728" data-name="Elipse 14728" cx="1" cy="1" r="1" transform="translate(23.07 24.07)"/>
          <circle id="Elipse_14729" data-name="Elipse 14729" cx="1" cy="1" r="1" transform="translate(12.07 24.07)"/>
          <path id="Trazado_1179212" data-name="Trazado 1179212" d="M17.478,30.1l1.143-.572a2.071,2.071,0,0,0,.926-2.777l-.462-.925V24H17.015v2.069a1.037,1.037,0,0,0,.109.462l.572,1.143-1.143.572Z" transform="translate(0.571 0.828)"/>
          <path id="Trazado_1179213" data-name="Trazado 1179213" d="M18.149,34.121a5.191,5.191,0,0,0,4.48-2.586L20.839,30.5a3.106,3.106,0,0,1-5.378,0L13.67,31.535a5.191,5.191,0,0,0,4.479,2.586Z" transform="translate(0.472 1.053)"/>
          <path id="Trazado_1179214" data-name="Trazado 1179214" d="M26.818,41.048l-3.024-.7V38.709l.488-.243A10.288,10.288,0,0,0,30,29.214v-.454a4.122,4.122,0,0,0,3.345-6.554,10.222,10.222,0,0,0,.793-3.9V16.345a7.252,7.252,0,0,0-6.675-7.22A7.226,7.226,0,0,0,21.507,6H15.129A12.04,12.04,0,0,0,3.1,18.026a10.1,10.1,0,0,0,.88,4.075,4.1,4.1,0,0,0-.88,2.52,4.142,4.142,0,0,0,4.138,4.138h0v.454a10.288,10.288,0,0,0,5.718,9.252l.488.245v1.641l-3.023.7A13.387,13.387,0,0,0,0,54.153v2.539a7.25,7.25,0,0,0,7.242,7.242H30a7.25,7.25,0,0,0,7.242-7.242V54.153a13.387,13.387,0,0,0-10.425-13.1ZM30,26.69V22.552a2.069,2.069,0,0,1,0,4.138ZM15.13,8.069h6.378a5.161,5.161,0,0,1,4.3,2.3l.533.8H26.9a5.178,5.178,0,0,1,5.173,5.173v1.962a8.14,8.14,0,0,1-.415,2.526A4.107,4.107,0,0,0,30,20.483h-.023a13.3,13.3,0,0,0-2.22-6.781l-1.721,1.147a11.252,11.252,0,0,1,1.691,4.118,13.258,13.258,0,0,0-2.781-1.645,4.092,4.092,0,0,0-.419-1.823l-.844-1.687-1.851.926.844,1.687a2.073,2.073,0,0,1-.7,2.647l-.118.079-3.235-3.235-3.235,3.235-.118-.079a2.073,2.073,0,0,1-.7-2.647l.843-1.687-1.851-.926L12.715,15.5a4.092,4.092,0,0,0-.419,1.823,13.253,13.253,0,0,0-2.781,1.644,11.27,11.27,0,0,1,1.691-4.118L9.485,13.7a13.3,13.3,0,0,0-2.221,6.782H7.242a4.126,4.126,0,0,0-1.568.312,8.054,8.054,0,0,1-.5-2.769A9.968,9.968,0,0,1,15.13,8.069ZM7.242,26.69a2.069,2.069,0,0,1,0-4.138V26.69Zm2.07,2.523V21.946l.387-.387a11.2,11.2,0,0,1,3.12-2.2,4.105,4.105,0,0,0,1.3,1.433l1.53,1.019,2.972-2.972,2.972,2.972,1.53-1.019a4.087,4.087,0,0,0,1.3-1.433,11.178,11.178,0,0,1,3.12,2.2l.387.387v7.267a8.232,8.232,0,0,1-4.575,7.4l-.488.244a2.055,2.055,0,0,0-1.144,1.85v1.947l-3.1,2.328-3.1-2.328V38.71a2.059,2.059,0,0,0-1.143-1.851l-.488-.244a8.231,8.231,0,0,1-4.575-7.4ZM21.725,57.726H15.518V56.691a3.069,3.069,0,0,0-.19-1.035h6.589a3.044,3.044,0,0,0-.191,1.035Zm-6.207,2.069h6.207v1.035a3.069,3.069,0,0,0,.19,1.035H15.326a3.044,3.044,0,0,0,.191-1.035Zm-3.1-6.207V51.519H24.828v2.069H12.414ZM24.828,49.45H12.414V47.381H24.828V49.45ZM2.069,56.691V54.153A11.327,11.327,0,0,1,10.89,43.065l3.358-.775,4.028,3.022H12.414a2.071,2.071,0,0,0-2.069,2.069V49.45a2.046,2.046,0,0,0,.288,1.035,2.046,2.046,0,0,0-.288,1.035v2.069H4.138v2.069H7.817a4.1,4.1,0,0,0-.575,2.069v2.069a4.1,4.1,0,0,0,.575,2.069H7.242a5.178,5.178,0,0,1-5.173-5.173Zm9.311,5.173a2.071,2.071,0,0,1-2.069-2.069V57.726a2.071,2.071,0,0,1,2.069-2.069h1.035a1.036,1.036,0,0,1,1.035,1.035v1.035H11.38v2.069h2.069v1.035a1.036,1.036,0,0,1-1.035,1.035Zm13.449,0a1.036,1.036,0,0,1-1.035-1.035V59.795h2.069V57.726H23.794V56.691a1.036,1.036,0,0,1,1.035-1.035h1.035a2.071,2.071,0,0,1,2.069,2.069v2.069a2.071,2.071,0,0,1-2.069,2.069Zm10.345-5.173A5.178,5.178,0,0,1,30,61.864h-.575A4.1,4.1,0,0,0,30,59.795V57.726a4.1,4.1,0,0,0-.575-2.069H33.1V53.588H26.9V51.519a2.046,2.046,0,0,0-.288-1.035A2.046,2.046,0,0,0,26.9,49.45V47.381a2.071,2.071,0,0,0-2.069-2.069H18.966l4.028-3.022,3.358.775a11.327,11.327,0,0,1,8.821,11.088Z" transform="translate(0 0.207)"/>
          <path id="Trazado_1179215" data-name="Trazado 1179215" d="M46.138,16.552v2.069h2.069V16.552a4.138,4.138,0,0,0,0-8.276H46.138a2.069,2.069,0,1,1,0-4.138h2.069a2.071,2.071,0,0,1,2.069,2.069h2.069a4.142,4.142,0,0,0-4.138-4.138V0H46.138V2.069a4.138,4.138,0,0,0,0,8.276h2.069a2.069,2.069,0,0,1,0,4.138H46.138a2.071,2.071,0,0,1-2.069-2.069V11.38H42v1.035A4.142,4.142,0,0,0,46.138,16.552Z" transform="translate(1.45)"/>
          <path id="Trazado_1179216" data-name="Trazado 1179216" d="M55.794,35.518a9.293,9.293,0,0,0-7.242,3.472V29.311h3.1A7.25,7.25,0,0,0,58.9,22.069V21.035H53.725a7.217,7.217,0,0,0-5.173,2.183V20H46.483v8.7a7.239,7.239,0,0,0-6.207-3.531H35.1v1.035a7.25,7.25,0,0,0,7.242,7.242h4.138V38.99a9.293,9.293,0,0,0-7.242-3.472H32v1.035a9.322,9.322,0,0,0,9.311,9.311h5.173v10.9a6.175,6.175,0,0,0-4.138-1.593H38.207v2.069a6.213,6.213,0,0,0,6.207,6.207h4.138V56.208h3.1A7.25,7.25,0,0,0,58.9,48.967V47.932H53.725a7.217,7.217,0,0,0-5.173,2.183V45.863h5.173a9.322,9.322,0,0,0,9.311-9.311V35.518ZM53.725,23.1h3a5.181,5.181,0,0,1-5.068,4.138h-3A5.181,5.181,0,0,1,53.725,23.1ZM42.345,31.38a5.181,5.181,0,0,1-5.068-4.138h3a5.181,5.181,0,0,1,5.068,4.138ZM41.311,43.794a7.253,7.253,0,0,1-7.168-6.207h5.1a7.253,7.253,0,0,1,7.168,6.207ZM40.276,57.243h2.069a4.142,4.142,0,0,1,4.138,4.138H44.414A4.142,4.142,0,0,1,40.276,57.243ZM53.725,50h3a5.181,5.181,0,0,1-5.068,4.138h-3A5.181,5.181,0,0,1,53.725,50Zm0-6.207h-5.1a7.253,7.253,0,0,1,7.168-6.207h5.1A7.253,7.253,0,0,1,53.725,43.794Z" transform="translate(1.105 0.69)"/>
        </g>
      </g>
    </g>
  </g>
</svg>
